<svg version="1.1" xmlns="http://www.w3.org/2000/svg" xmlns:xlink="http://www.w3.org/1999/xlink" width="500" height="276"><defs/><g><g transform="translate(-6,-30) scale(1,1)"><path fill="#ffffff" stroke="none" d="M 26 112 L 67.05078125 112 Q 77.05078125 112 77.05078125 122 L 77.05078125 141 Q 77.05078125 151 67.05078125 151 L 26 151 Q 16 151 16 141 L 16 122 Q 16 112 26 112 Z"/></g><g transform="translate(-6,-30) scale(1,1)"><path fill="none" stroke="#000000" d="M 26 112 L 67.05078125 112 Q 77.05078125 112 77.05078125 122 L 77.05078125 141 Q 77.05078125 151 67.05078125 151 L 26 151 Q 16 151 16 141 L 16 122 Q 16 112 26 112 Z" stroke-miterlimit="10"/></g><g transform="translate(-6,-30) scale(1,1)"><g><path fill="none" stroke="none"/><text fill="#000000" stroke="none" font-family="Roboto" font-size="13px" font-style="normal" font-weight="normal" text-decoration="none" x="20.5" y="129.5">«named»</text></g></g><g transform="translate(-6,-30) scale(1,1)"><g><path fill="none" stroke="none"/><text fill="#000000" stroke="none" font-family="Roboto" font-size="13px" font-style="normal" font-weight="bold" text-decoration="none" x="33.757080078125" y="144.5">date</text></g></g><g transform="translate(-6,-30) scale(1,1)"><path fill="#ffffff" stroke="none" d="M 98 40 L 486 40 Q 496 40 496 50 L 496 286 Q 496 296 486 296 L 98 296 Q 88 296 88 286 L 88 50 Q 88 40 98 40 Z"/></g><g transform="translate(-6,-30) scale(1,1)"><path fill="none" stroke="#000000" d="M 98 40 L 486 40 Q 496 40 496 50 L 496 286 Q 496 296 486 296 L 98 296 Q 88 296 88 286 L 88 50 Q 88 40 98 40 Z" stroke-miterlimit="10"/></g><g transform="translate(-6,-30) scale(1,1)"><path fill="none" stroke="#000000" d="M 88 65 L 496 65" stroke-miterlimit="10"/></g><g transform="translate(-6,-30) scale(1,1)"><g><path fill="none" stroke="none"/><text fill="#000000" stroke="none" font-family="Roboto" font-size="13px" font-style="normal" font-weight="bold" text-decoration="none" x="225.809814453125" y="59.5">POSITIVE POSSIBILITY</text></g></g><g transform="translate(-6,-30) scale(1,1)"><path fill="#ffffff" stroke="none" d="M 130 112 L 190 112 Q 200 112 200 122 L 200 141 Q 200 151 190 151 L 130 151 Q 120 151 120 141 L 120 122 Q 120 112 130 112 Z"/></g><g transform="translate(-6,-30) scale(1,1)"><path fill="none" stroke="#000000" d="M 130 112 L 190 112 Q 200 112 200 122 L 200 141 Q 200 151 190 151 L 130 151 Q 120 151 120 141 L 120 122 Q 120 112 130 112 Z" stroke-miterlimit="10"/></g><g transform="translate(-6,-30) scale(1,1)"><g><path fill="none" stroke="none"/><text fill="#000000" stroke="none" font-family="Roboto" font-size="13px" font-style="normal" font-weight="bold" text-decoration="none" x="127.37939453125" y="131.5">11.06.2017</text></g></g><g transform="translate(-6,-30) scale(1,1)"><path fill="#ffffff" stroke="none" d="M 130 176 L 190 176 Q 200 176 200 186 L 200 205 Q 200 215 190 215 L 130 215 Q 120 215 120 205 L 120 186 Q 120 176 130 176 Z"/></g><g transform="translate(-6,-30) scale(1,1)"><path fill="none" stroke="#000000" d="M 130 176 L 190 176 Q 200 176 200 186 L 200 205 Q 200 215 190 215 L 130 215 Q 120 215 120 205 L 120 186 Q 120 176 130 176 Z" stroke-miterlimit="10"/></g><g transform="translate(-6,-30) scale(1,1)"><g><path fill="none" stroke="none"/><text fill="#000000" stroke="none" font-family="Roboto" font-size="13px" font-style="normal" font-weight="bold" text-decoration="none" x="158.232177734375" y="195.5">I</text></g></g><g transform="translate(-6,-30) scale(1,1)"><path fill="#ffffff" stroke="none" d="M 130 240 L 190 240 Q 200 240 200 250 L 200 269 Q 200 279 190 279 L 130 279 Q 120 279 120 269 L 120 250 Q 120 240 130 240 Z"/></g><g transform="translate(-6,-30) scale(1,1)"><path fill="none" stroke="#000000" d="M 130 240 L 190 240 Q 200 240 200 250 L 200 269 Q 200 279 190 279 L 130 279 Q 120 279 120 269 L 120 250 Q 120 240 130 240 Z" stroke-miterlimit="10"/></g><g transform="translate(-6,-30) scale(1,1)"><g><path fill="none" stroke="none"/><text fill="#000000" stroke="none" font-family="Roboto" font-size="13px" font-style="normal" font-weight="normal" text-decoration="none" x="132.15283203125" y="257.5">«relation»</text></g></g><g transform="translate(-6,-30) scale(1,1)"><g><path fill="none" stroke="none"/><text fill="#000000" stroke="none" font-family="Roboto" font-size="13px" font-style="normal" font-weight="bold" text-decoration="none" x="145.83837890625" y="272.5">think</text></g></g><g transform="translate(-6,-30) scale(1,1)"><path fill="#ffffff" stroke="none" d="M 418 112 L 457 112 Q 467 112 467 122 L 467 141 Q 467 151 457 151 L 418 151 Q 408 151 408 141 L 408 122 Q 408 112 418 112 Z"/></g><g transform="translate(-6,-30) scale(1,1)"><path fill="none" stroke="#000000" d="M 418 112 L 457 112 Q 467 112 467 122 L 467 141 Q 467 151 457 151 L 418 151 Q 408 151 408 141 L 408 122 Q 408 112 418 112 Z" stroke-miterlimit="10"/></g><g transform="translate(-6,-30) scale(1,1)"><g><path fill="none" stroke="none"/><text fill="#000000" stroke="none" font-family="Roboto" font-size="13px" font-style="normal" font-weight="bold" text-decoration="none" x="428.191162109375" y="131.5">red</text></g></g><g transform="translate(-6,-30) scale(1,1)"><path fill="#ffffff" stroke="none" d="M 354 208 L 393 208 Q 403 208 403 218 L 403 237 Q 403 247 393 247 L 354 247 Q 344 247 344 237 L 344 218 Q 344 208 354 208 Z"/></g><g transform="translate(-6,-30) scale(1,1)"><path fill="none" stroke="#000000" d="M 354 208 L 393 208 Q 403 208 403 218 L 403 237 Q 403 247 393 247 L 354 247 Q 344 247 344 237 L 344 218 Q 344 208 354 208 Z" stroke-miterlimit="10"/></g><g transform="translate(-6,-30) scale(1,1)"><g><path fill="none" stroke="none"/><text fill="#000000" stroke="none" font-family="Roboto" font-size="13px" font-style="normal" font-weight="bold" text-decoration="none" x="362.223388671875" y="227.5">tent</text></g></g><g transform="translate(-6,-30) scale(1,1)"><path fill="#ffffff" stroke="none" d="M 258 72 L 478 72 Q 488 72 488 82 L 488 278 Q 488 288 478 288 L 258 288 Q 248 288 248 278 L 248 82 Q 248 72 258 72 Z"/></g><g transform="translate(-6,-30) scale(1,1)"><path fill="none" stroke="#000000" d="M 258 72 L 478 72 Q 488 72 488 82 L 488 278 Q 488 288 478 288 L 258 288 Q 248 288 248 278 L 248 82 Q 248 72 258 72 Z" stroke-miterlimit="10"/></g><g transform="translate(-6,-30) scale(1,1)"><path fill="none" stroke="#000000" d="M 248 97 L 488 97" stroke-miterlimit="10"/></g><g transform="translate(-6,-30) scale(1,1)"><g><path fill="none" stroke="none"/><text fill="#000000" stroke="none" font-family="Roboto" font-size="13px" font-style="normal" font-weight="bold" text-decoration="none" x="301.809814453125" y="91.5">POSITIVE POSSIBILITY</text></g></g><g transform="translate(-6,-30) scale(1,1)"><path fill="#ffffff" stroke="none" d="M 314 112 L 358.6943359375 112 Q 368.6943359375 112 368.6943359375 122 L 368.6943359375 141 Q 368.6943359375 151 358.6943359375 151 L 314 151 Q 304 151 304 141 L 304 122 Q 304 112 314 112 Z"/></g><g transform="translate(-6,-30) scale(1,1)"><path fill="none" stroke="#000000" d="M 314 112 L 358.6943359375 112 Q 368.6943359375 112 368.6943359375 122 L 368.6943359375 141 Q 368.6943359375 151 358.6943359375 151 L 314 151 Q 304 151 304 141 L 304 122 Q 304 112 314 112 Z" stroke-miterlimit="10"/></g><g transform="translate(-6,-30) scale(1,1)"><g><path fill="none" stroke="none"/><text fill="#000000" stroke="none" font-family="Roboto" font-size="13px" font-style="normal" font-weight="normal" text-decoration="none" x="308.5" y="129.5">«relation»</text></g></g><g transform="translate(-6,-30) scale(1,1)"><g><path fill="none" stroke="none"/><text fill="#000000" stroke="none" font-family="Roboto" font-size="13px" font-style="normal" font-weight="bold" text-decoration="none" x="326.1083984375" y="144.5">see</text></g></g><g transform="translate(-6,-30) scale(1,1)"><path fill="#ffffff" stroke="none" d="M 314 240 L 353 240 Q 363 240 363 250 L 363 269 Q 363 279 353 279 L 314 279 Q 304 279 304 269 L 304 250 Q 304 240 314 240 Z"/></g><g transform="translate(-6,-30) scale(1,1)"><path fill="none" stroke="#000000" d="M 314 240 L 353 240 Q 363 240 363 250 L 363 269 Q 363 279 353 279 L 314 279 Q 304 279 304 269 L 304 250 Q 304 240 314 240 Z" stroke-miterlimit="10"/></g><g transform="translate(-6,-30) scale(1,1)"><g><path fill="none" stroke="none"/><text fill="#000000" stroke="none" font-family="Roboto" font-size="13px" font-style="normal" font-weight="bold" text-decoration="none" x="328.336181640625" y="259.5">in</text></g></g><g transform="translate(-6,-30) scale(1,1)"><path fill="#ffffff" stroke="none" d="M 426 112 L 465 112 Q 475 112 475 122 L 475 141 Q 475 151 465 151 L 426 151 Q 416 151 416 141 L 416 122 Q 416 112 426 112 Z"/></g><g transform="translate(-6,-30) scale(1,1)"><path fill="none" stroke="#000000" d="M 426 112 L 465 112 Q 475 112 475 122 L 475 141 Q 475 151 465 151 L 426 151 Q 416 151 416 141 L 416 122 Q 416 112 426 112 Z" stroke-miterlimit="10"/></g><g transform="translate(-6,-30) scale(1,1)"><g><path fill="none" stroke="none"/><text fill="#000000" stroke="none" font-family="Roboto" font-size="13px" font-style="normal" font-weight="bold" text-decoration="none" x="435.13427734375" y="131.5">you</text></g></g><g transform="translate(-6,-30) scale(1,1)"><path fill="#ffffff" stroke="none" d="M 314 176 L 353 176 Q 363 176 363 186 L 363 205 Q 363 215 353 215 L 314 215 Q 304 215 304 205 L 304 186 Q 304 176 314 176 Z"/></g><g transform="translate(-6,-30) scale(1,1)"><path fill="none" stroke="#000000" d="M 314 176 L 353 176 Q 363 176 363 186 L 363 205 Q 363 215 353 215 L 314 215 Q 304 215 304 205 L 304 186 Q 304 176 314 176 Z" stroke-miterlimit="10"/></g><g transform="translate(-6,-30) scale(1,1)"><g><path fill="none" stroke="none"/><text fill="#000000" stroke="none" font-family="Roboto" font-size="13px" font-style="normal" font-weight="bold" text-decoration="none" x="322.223388671875" y="195.5">tent</text></g></g><g transform="translate(-6,-30) scale(1,1)"><path fill="#ffffff" stroke="none" d="M 426 176 L 465 176 Q 475 176 475 186 L 475 205 Q 475 215 465 215 L 426 215 Q 416 215 416 205 L 416 186 Q 416 176 426 176 Z"/></g><g transform="translate(-6,-30) scale(1,1)"><path fill="none" stroke="#000000" d="M 426 176 L 465 176 Q 475 176 475 186 L 475 205 Q 475 215 465 215 L 426 215 Q 416 215 416 205 L 416 186 Q 416 176 426 176 Z" stroke-miterlimit="10"/></g><g transform="translate(-6,-30) scale(1,1)"><g><path fill="none" stroke="none"/><text fill="#000000" stroke="none" font-family="Roboto" font-size="13px" font-style="normal" font-weight="bold" text-decoration="none" x="436.191162109375" y="195.5">red</text></g></g><g transform="translate(-6,-30) scale(1,1)"><path fill="none" stroke="#000000" d="M 77 131 L 120 131" stroke-miterlimit="10"/></g><g transform="translate(-6,-30) scale(1,1)"><path fill="none" stroke="#000000" d="M 109.83732514237585 135.209517756016 L 120 131 L 109.83732514237585 126.79048224398402" stroke-miterlimit="10"/></g><g transform="translate(-6,-30) scale(1,1)"><g><path fill="none" stroke="none"/><text fill="#000000" stroke="none" font-family="Roboto" font-size="13px" font-style="normal" font-weight="normal" text-decoration="none" x="96.5" y="153.5">inst</text></g></g><g transform="translate(-6,-30) scale(1,1)"><path fill="none" stroke="#000000" d="M 200 131 L 304 131" stroke-miterlimit="10"/></g><g transform="translate(-6,-30) scale(1,1)"><path fill="none" stroke="#000000" d="M 293.83732514237585 135.209517756016 L 304 131 L 293.83732514237585 126.79048224398402" stroke-miterlimit="10"/></g><g transform="translate(-6,-30) scale(1,1)"><g><path fill="none" stroke="none"/><text fill="#000000" stroke="none" font-family="Roboto" font-size="13px" font-style="normal" font-weight="normal" text-decoration="none" x="254.5" y="124.5">patient</text></g></g><g transform="translate(-6,-30) scale(1,1)"><path fill="none" stroke="#000000" d="M 304 144 L 216 144 L 216 192 L 200 192" stroke-miterlimit="10"/></g><g transform="translate(-6,-30) scale(1,1)"><path fill="none" stroke="#000000" d="M 210.16267485762415 187.790482243984 L 200 192 L 210.16267485762415 196.209517756016" stroke-miterlimit="10"/></g><g transform="translate(-6,-30) scale(1,1)"><g><path fill="none" stroke="none"/><text fill="#000000" stroke="none" font-family="Roboto" font-size="13px" font-style="normal" font-weight="normal" text-decoration="none" x="262.5" y="164.5">agent</text></g></g><g transform="translate(-6,-30) scale(1,1)"><path fill="none" stroke="#000000" d="M 369 131 L 416 131" stroke-miterlimit="10"/></g><g transform="translate(-6,-30) scale(1,1)"><path fill="none" stroke="#000000" d="M 405.83732514237585 135.209517756016 L 416 131 L 405.83732514237585 126.79048224398402" stroke-miterlimit="10"/></g><g transform="translate(-6,-30) scale(1,1)"><g><path fill="none" stroke="none"/><text fill="#000000" stroke="none" font-family="Roboto" font-size="13px" font-style="normal" font-weight="normal" text-decoration="none" x="371.5" y="122.5">patient</text></g></g><g transform="translate(-6,-30) scale(1,1)"><path fill="none" stroke="#000000" d="M 334 176 L 334 151" stroke-miterlimit="10"/></g><g transform="translate(-6,-30) scale(1,1)"><path fill="none" stroke="#000000" d="M 338.209517756016 161.16267485762415 L 334 151 L 329.790482243984 161.16267485762415" stroke-miterlimit="10"/></g><g transform="translate(-6,-30) scale(1,1)"><g><path fill="none" stroke="none"/><text fill="#000000" stroke="none" font-family="Roboto" font-size="13px" font-style="normal" font-weight="normal" text-decoration="none" x="342.5" y="171.5">patient</text></g></g><g transform="translate(-6,-30) scale(1,1)"><path fill="none" stroke="#000000" d="M 416 195 L 363 195" stroke-miterlimit="10"/></g><g transform="translate(-6,-30) scale(1,1)"><path fill="none" stroke="#000000" d="M 373.16267485762415 190.790482243984 L 363 195 L 373.16267485762415 199.209517756016" stroke-miterlimit="10"/></g><g transform="translate(-6,-30) scale(1,1)"><g><path fill="none" stroke="none"/><text fill="#000000" stroke="none" font-family="Roboto" font-size="13px" font-style="normal" font-weight="normal" text-decoration="none" x="379.5" y="211.5">inst</text></g></g><g transform="translate(-6,-30) scale(1,1)"><path fill="none" stroke="#000000" d="M 333 240 L 333 215" stroke-miterlimit="10"/></g><g transform="translate(-6,-30) scale(1,1)"><path fill="none" stroke="#000000" d="M 337.209517756016 225.16267485762415 L 333 215 L 328.790482243984 225.16267485762415" stroke-miterlimit="10"/></g><g transform="translate(-6,-30) scale(1,1)"><g><path fill="none" stroke="none"/><text fill="#000000" stroke="none" font-family="Roboto" font-size="13px" font-style="normal" font-weight="normal" text-decoration="none" x="285.5" y="232.5">patient</text></g></g><g transform="translate(-6,-30) scale(1,1)"><path fill="none" stroke="#000000" d="M 156 240 L 156 215" stroke-miterlimit="10"/></g><g transform="translate(-6,-30) scale(1,1)"><path fill="none" stroke="#000000" d="M 160.209517756016 225.16267485762415 L 156 215 L 151.790482243984 225.16267485762415" stroke-miterlimit="10"/></g><g transform="translate(-6,-30) scale(1,1)"><g><path fill="none" stroke="none"/><text fill="#000000" stroke="none" font-family="Roboto" font-size="13px" font-style="normal" font-weight="normal" text-decoration="none" x="165.5" y="231.5">agent</text></g></g><g transform="translate(-6,-30) scale(1,1)"><path fill="none" stroke="#000000" d="M 200 256 L 248 256" stroke-miterlimit="10"/></g><g transform="translate(-6,-30) scale(1,1)"><path fill="none" stroke="#000000" d="M 237.83732514237585 260.209517756016 L 248 256 L 237.83732514237585 251.790482243984" stroke-miterlimit="10"/></g><g transform="translate(-6,-30) scale(1,1)"><g><path fill="none" stroke="none"/><text fill="#000000" stroke="none" font-family="Roboto" font-size="13px" font-style="normal" font-weight="normal" text-decoration="none" x="202.5" y="278.5">patient</text></g></g></g></svg>