<svg version="1.1" xmlns="http://www.w3.org/2000/svg" xmlns:xlink="http://www.w3.org/1999/xlink" width="655.60009765625" height="379"><defs/><g><g transform="translate(-134,-70) scale(1,1)"><path fill="#ffffff" stroke="none" d="M 194 208 L 235.05078125 208 Q 245.05078125 208 245.05078125 218 L 245.05078125 237 Q 245.05078125 247 235.05078125 247 L 194 247 Q 184 247 184 237 L 184 218 Q 184 208 194 208 Z"/></g><g transform="translate(-134,-70) scale(1,1)"><path fill="none" stroke="#000000" d="M 194 208 L 235.05078125 208 Q 245.05078125 208 245.05078125 218 L 245.05078125 237 Q 245.05078125 247 235.05078125 247 L 194 247 Q 184 247 184 237 L 184 218 Q 184 208 194 208 Z" stroke-miterlimit="10"/></g><g transform="translate(-134,-70) scale(1,1)"><g><path fill="none" stroke="none"/><text fill="#000000" stroke="none" font-family="Roboto" font-size="13px" font-style="normal" font-weight="normal" text-decoration="none" x="188.5" y="225.5">«named»</text></g></g><g transform="translate(-134,-70) scale(1,1)"><g><path fill="none" stroke="none"/><text fill="#000000" stroke="none" font-family="Roboto" font-size="13px" font-style="normal" font-weight="bold" text-decoration="none" x="201.757080078125" y="240.5">date</text></g></g><g transform="translate(-134,-70) scale(1,1)"><path fill="#ffffff" stroke="none" d="M 266 136 L 654 136 Q 664 136 664 146 L 664 382 Q 664 392 654 392 L 266 392 Q 256 392 256 382 L 256 146 Q 256 136 266 136 Z"/></g><g transform="translate(-134,-70) scale(1,1)"><path fill="none" stroke="#000000" d="M 266 136 L 654 136 Q 664 136 664 146 L 664 382 Q 664 392 654 392 L 266 392 Q 256 392 256 382 L 256 146 Q 256 136 266 136 Z" stroke-miterlimit="10"/></g><g transform="translate(-134,-70) scale(1,1)"><path fill="none" stroke="#000000" d="M 256 161 L 664 161" stroke-miterlimit="10"/></g><g transform="translate(-134,-70) scale(1,1)"><g><path fill="none" stroke="none"/><text fill="#000000" stroke="none" font-family="Roboto" font-size="13px" font-style="normal" font-weight="bold" text-decoration="none" x="393.809814453125" y="155.5">POSITIVE POSSIBILITY</text></g></g><g transform="translate(-134,-70) scale(1,1)"><path fill="#ffffff" stroke="none" d="M 298 208 L 358 208 Q 368 208 368 218 L 368 237 Q 368 247 358 247 L 298 247 Q 288 247 288 237 L 288 218 Q 288 208 298 208 Z"/></g><g transform="translate(-134,-70) scale(1,1)"><path fill="none" stroke="#000000" d="M 298 208 L 358 208 Q 368 208 368 218 L 368 237 Q 368 247 358 247 L 298 247 Q 288 247 288 237 L 288 218 Q 288 208 298 208 Z" stroke-miterlimit="10"/></g><g transform="translate(-134,-70) scale(1,1)"><g><path fill="none" stroke="none"/><text fill="#000000" stroke="none" font-family="Roboto" font-size="13px" font-style="normal" font-weight="bold" text-decoration="none" x="295.37939453125" y="227.5">11.06.2017</text></g></g><g transform="translate(-134,-70) scale(1,1)"><path fill="#ffffff" stroke="none" d="M 298 272 L 358 272 Q 368 272 368 282 L 368 301 Q 368 311 358 311 L 298 311 Q 288 311 288 301 L 288 282 Q 288 272 298 272 Z"/></g><g transform="translate(-134,-70) scale(1,1)"><path fill="none" stroke="#000000" d="M 298 272 L 358 272 Q 368 272 368 282 L 368 301 Q 368 311 358 311 L 298 311 Q 288 311 288 301 L 288 282 Q 288 272 298 272 Z" stroke-miterlimit="10"/></g><g transform="translate(-134,-70) scale(1,1)"><g><path fill="none" stroke="none"/><text fill="#000000" stroke="none" font-family="Roboto" font-size="13px" font-style="normal" font-weight="bold" text-decoration="none" x="326.232177734375" y="291.5">I</text></g></g><g transform="translate(-134,-70) scale(1,1)"><path fill="#ffffff" stroke="none" d="M 298 336 L 358 336 Q 368 336 368 346 L 368 365 Q 368 375 358 375 L 298 375 Q 288 375 288 365 L 288 346 Q 288 336 298 336 Z"/></g><g transform="translate(-134,-70) scale(1,1)"><path fill="none" stroke="#000000" d="M 298 336 L 358 336 Q 368 336 368 346 L 368 365 Q 368 375 358 375 L 298 375 Q 288 375 288 365 L 288 346 Q 288 336 298 336 Z" stroke-miterlimit="10"/></g><g transform="translate(-134,-70) scale(1,1)"><g><path fill="none" stroke="none"/><text fill="#000000" stroke="none" font-family="Roboto" font-size="13px" font-style="normal" font-weight="normal" text-decoration="none" x="300.15283203125" y="353.5">«relation»</text></g></g><g transform="translate(-134,-70) scale(1,1)"><g><path fill="none" stroke="none"/><text fill="#000000" stroke="none" font-family="Roboto" font-size="13px" font-style="normal" font-weight="bold" text-decoration="none" x="313.83837890625" y="368.5">think</text></g></g><g transform="translate(-134,-70) scale(1,1)"><path fill="#ffffff" stroke="none" d="M 586 208 L 625 208 Q 635 208 635 218 L 635 237 Q 635 247 625 247 L 586 247 Q 576 247 576 237 L 576 218 Q 576 208 586 208 Z"/></g><g transform="translate(-134,-70) scale(1,1)"><path fill="none" stroke="#000000" d="M 586 208 L 625 208 Q 635 208 635 218 L 635 237 Q 635 247 625 247 L 586 247 Q 576 247 576 237 L 576 218 Q 576 208 586 208 Z" stroke-miterlimit="10"/></g><g transform="translate(-134,-70) scale(1,1)"><g><path fill="none" stroke="none"/><text fill="#000000" stroke="none" font-family="Roboto" font-size="13px" font-style="normal" font-weight="bold" text-decoration="none" x="596.191162109375" y="227.5">red</text></g></g><g transform="translate(-134,-70) scale(1,1)"><path fill="#ffffff" stroke="none" d="M 522 304 L 561 304 Q 571 304 571 314 L 571 333 Q 571 343 561 343 L 522 343 Q 512 343 512 333 L 512 314 Q 512 304 522 304 Z"/></g><g transform="translate(-134,-70) scale(1,1)"><path fill="none" stroke="#000000" d="M 522 304 L 561 304 Q 571 304 571 314 L 571 333 Q 571 343 561 343 L 522 343 Q 512 343 512 333 L 512 314 Q 512 304 522 304 Z" stroke-miterlimit="10"/></g><g transform="translate(-134,-70) scale(1,1)"><g><path fill="none" stroke="none"/><text fill="#000000" stroke="none" font-family="Roboto" font-size="13px" font-style="normal" font-weight="bold" text-decoration="none" x="530.223388671875" y="323.5">tent</text></g></g><g transform="translate(-134,-70) scale(1,1)"><path fill="#ffffff" stroke="none" d="M 426 168 L 646 168 Q 656 168 656 178 L 656 374 Q 656 384 646 384 L 426 384 Q 416 384 416 374 L 416 178 Q 416 168 426 168 Z"/></g><g transform="translate(-134,-70) scale(1,1)"><path fill="none" stroke="#000000" d="M 426 168 L 646 168 Q 656 168 656 178 L 656 374 Q 656 384 646 384 L 426 384 Q 416 384 416 374 L 416 178 Q 416 168 426 168 Z" stroke-miterlimit="10"/></g><g transform="translate(-134,-70) scale(1,1)"><path fill="none" stroke="#000000" d="M 416 193 L 656 193" stroke-miterlimit="10"/></g><g transform="translate(-134,-70) scale(1,1)"><g><path fill="none" stroke="none"/><text fill="#000000" stroke="none" font-family="Roboto" font-size="13px" font-style="normal" font-weight="bold" text-decoration="none" x="469.809814453125" y="187.5">POSITIVE POSSIBILITY</text></g></g><g transform="translate(-134,-70) scale(1,1)"><path fill="#ffffff" stroke="none" d="M 482 208 L 526.6943359375 208 Q 536.6943359375 208 536.6943359375 218 L 536.6943359375 237 Q 536.6943359375 247 526.6943359375 247 L 482 247 Q 472 247 472 237 L 472 218 Q 472 208 482 208 Z"/></g><g transform="translate(-134,-70) scale(1,1)"><path fill="none" stroke="#000000" d="M 482 208 L 526.6943359375 208 Q 536.6943359375 208 536.6943359375 218 L 536.6943359375 237 Q 536.6943359375 247 526.6943359375 247 L 482 247 Q 472 247 472 237 L 472 218 Q 472 208 482 208 Z" stroke-miterlimit="10"/></g><g transform="translate(-134,-70) scale(1,1)"><g><path fill="none" stroke="none"/><text fill="#000000" stroke="none" font-family="Roboto" font-size="13px" font-style="normal" font-weight="normal" text-decoration="none" x="476.5" y="225.5">«relation»</text></g></g><g transform="translate(-134,-70) scale(1,1)"><g><path fill="none" stroke="none"/><text fill="#000000" stroke="none" font-family="Roboto" font-size="13px" font-style="normal" font-weight="bold" text-decoration="none" x="494.1083984375" y="240.5">see</text></g></g><g transform="translate(-134,-70) scale(1,1)"><path fill="#ffffff" stroke="none" d="M 482 336 L 521 336 Q 531 336 531 346 L 531 365 Q 531 375 521 375 L 482 375 Q 472 375 472 365 L 472 346 Q 472 336 482 336 Z"/></g><g transform="translate(-134,-70) scale(1,1)"><path fill="none" stroke="#000000" d="M 482 336 L 521 336 Q 531 336 531 346 L 531 365 Q 531 375 521 375 L 482 375 Q 472 375 472 365 L 472 346 Q 472 336 482 336 Z" stroke-miterlimit="10"/></g><g transform="translate(-134,-70) scale(1,1)"><g><path fill="none" stroke="none"/><text fill="#000000" stroke="none" font-family="Roboto" font-size="13px" font-style="normal" font-weight="bold" text-decoration="none" x="496.336181640625" y="355.5">in</text></g></g><g transform="translate(-134,-70) scale(1,1)"><path fill="#ffffff" stroke="none" d="M 594 208 L 633 208 Q 643 208 643 218 L 643 237 Q 643 247 633 247 L 594 247 Q 584 247 584 237 L 584 218 Q 584 208 594 208 Z"/></g><g transform="translate(-134,-70) scale(1,1)"><path fill="none" stroke="#000000" d="M 594 208 L 633 208 Q 643 208 643 218 L 643 237 Q 643 247 633 247 L 594 247 Q 584 247 584 237 L 584 218 Q 584 208 594 208 Z" stroke-miterlimit="10"/></g><g transform="translate(-134,-70) scale(1,1)"><g><path fill="none" stroke="none"/><text fill="#000000" stroke="none" font-family="Roboto" font-size="13px" font-style="normal" font-weight="bold" text-decoration="none" x="603.13427734375" y="227.5">you</text></g></g><g transform="translate(-134,-70) scale(1,1)"><path fill="#ffffff" stroke="none" d="M 482 272 L 521 272 Q 531 272 531 282 L 531 301 Q 531 311 521 311 L 482 311 Q 472 311 472 301 L 472 282 Q 472 272 482 272 Z"/></g><g transform="translate(-134,-70) scale(1,1)"><path fill="none" stroke="#000000" d="M 482 272 L 521 272 Q 531 272 531 282 L 531 301 Q 531 311 521 311 L 482 311 Q 472 311 472 301 L 472 282 Q 472 272 482 272 Z" stroke-miterlimit="10"/></g><g transform="translate(-134,-70) scale(1,1)"><g><path fill="none" stroke="none"/><text fill="#000000" stroke="none" font-family="Roboto" font-size="13px" font-style="normal" font-weight="bold" text-decoration="none" x="490.223388671875" y="291.5">tent</text></g></g><g transform="translate(-134,-70) scale(1,1)"><path fill="#ffffff" stroke="none" d="M 594 272 L 633 272 Q 643 272 643 282 L 643 301 Q 643 311 633 311 L 594 311 Q 584 311 584 301 L 584 282 Q 584 272 594 272 Z"/></g><g transform="translate(-134,-70) scale(1,1)"><path fill="none" stroke="#000000" d="M 594 272 L 633 272 Q 643 272 643 282 L 643 301 Q 643 311 633 311 L 594 311 Q 584 311 584 301 L 584 282 Q 584 272 594 272 Z" stroke-miterlimit="10"/></g><g transform="translate(-134,-70) scale(1,1)"><g><path fill="none" stroke="none"/><text fill="#000000" stroke="none" font-family="Roboto" font-size="13px" font-style="normal" font-weight="bold" text-decoration="none" x="604.191162109375" y="291.5">red</text></g></g><g transform="translate(-134,-70) scale(1,1)"><path fill="none" stroke="#000000" d="M 245 227 L 288 227" stroke-miterlimit="10"/></g><g transform="translate(-134,-70) scale(1,1)"><path fill="none" stroke="#000000" d="M 277.83732514237585 231.209517756016 L 288 227 L 277.83732514237585 222.790482243984" stroke-miterlimit="10"/></g><g transform="translate(-134,-70) scale(1,1)"><g><path fill="none" stroke="none"/><text fill="#000000" stroke="none" font-family="Roboto" font-size="13px" font-style="normal" font-weight="normal" text-decoration="none" x="264.5" y="249.5">inst</text></g></g><g transform="translate(-134,-70) scale(1,1)"><path fill="none" stroke="#000000" d="M 368 227 L 472 227" stroke-miterlimit="10"/></g><g transform="translate(-134,-70) scale(1,1)"><path fill="none" stroke="#000000" d="M 461.83732514237585 231.209517756016 L 472 227 L 461.83732514237585 222.790482243984" stroke-miterlimit="10"/></g><g transform="translate(-134,-70) scale(1,1)"><g><path fill="none" stroke="none"/><text fill="#000000" stroke="none" font-family="Roboto" font-size="13px" font-style="normal" font-weight="normal" text-decoration="none" x="422.5" y="220.5">patient</text></g></g><g transform="translate(-134,-70) scale(1,1)"><path fill="none" stroke="#000000" d="M 472 240 L 384 240 L 384 288 L 368 288" stroke-miterlimit="10"/></g><g transform="translate(-134,-70) scale(1,1)"><path fill="none" stroke="#000000" d="M 378.16267485762415 283.790482243984 L 368 288 L 378.16267485762415 292.209517756016" stroke-miterlimit="10"/></g><g transform="translate(-134,-70) scale(1,1)"><g><path fill="none" stroke="none"/><text fill="#000000" stroke="none" font-family="Roboto" font-size="13px" font-style="normal" font-weight="normal" text-decoration="none" x="430.5" y="252.5">agent</text></g></g><g transform="translate(-134,-70) scale(1,1)"><path fill="none" stroke="#000000" d="M 537 227 L 584 227" stroke-miterlimit="10"/></g><g transform="translate(-134,-70) scale(1,1)"><path fill="none" stroke="#000000" d="M 573.8373251423759 231.209517756016 L 584 227 L 573.8373251423758 222.790482243984" stroke-miterlimit="10"/></g><g transform="translate(-134,-70) scale(1,1)"><g><path fill="none" stroke="none"/><text fill="#000000" stroke="none" font-family="Roboto" font-size="13px" font-style="normal" font-weight="normal" text-decoration="none" x="539.5" y="218.5">patient</text></g></g><g transform="translate(-134,-70) scale(1,1)"><path fill="none" stroke="#000000" d="M 502 272 L 502 247" stroke-miterlimit="10"/></g><g transform="translate(-134,-70) scale(1,1)"><path fill="none" stroke="#000000" d="M 506.209517756016 257.16267485762415 L 502 247 L 497.790482243984 257.16267485762415" stroke-miterlimit="10"/></g><g transform="translate(-134,-70) scale(1,1)"><g><path fill="none" stroke="none"/><text fill="#000000" stroke="none" font-family="Roboto" font-size="13px" font-style="normal" font-weight="normal" text-decoration="none" x="510.5" y="267.5">patient</text></g></g><g transform="translate(-134,-70) scale(1,1)"><path fill="none" stroke="#000000" d="M 584 291 L 531 291" stroke-miterlimit="10"/></g><g transform="translate(-134,-70) scale(1,1)"><path fill="none" stroke="#000000" d="M 541.1626748576241 286.790482243984 L 531 291 L 541.1626748576241 295.209517756016" stroke-miterlimit="10"/></g><g transform="translate(-134,-70) scale(1,1)"><g><path fill="none" stroke="none"/><text fill="#000000" stroke="none" font-family="Roboto" font-size="13px" font-style="normal" font-weight="normal" text-decoration="none" x="547.5" y="307.5">inst</text></g></g><g transform="translate(-134,-70) scale(1,1)"><path fill="none" stroke="#000000" d="M 501 336 L 501 311" stroke-miterlimit="10"/></g><g transform="translate(-134,-70) scale(1,1)"><path fill="none" stroke="#000000" d="M 505.209517756016 321.16267485762415 L 501 311 L 496.790482243984 321.16267485762415" stroke-miterlimit="10"/></g><g transform="translate(-134,-70) scale(1,1)"><g><path fill="none" stroke="none"/><text fill="#000000" stroke="none" font-family="Roboto" font-size="13px" font-style="normal" font-weight="normal" text-decoration="none" x="509.5" y="327.5">patient</text></g></g><g transform="translate(-134,-70) scale(1,1)"><path fill="none" stroke="#000000" d="M 324 336 L 324 311" stroke-miterlimit="10"/></g><g transform="translate(-134,-70) scale(1,1)"><path fill="none" stroke="#000000" d="M 328.209517756016 321.16267485762415 L 324 311 L 319.790482243984 321.16267485762415" stroke-miterlimit="10"/></g><g transform="translate(-134,-70) scale(1,1)"><g><path fill="none" stroke="none"/><text fill="#000000" stroke="none" font-family="Roboto" font-size="13px" font-style="normal" font-weight="normal" text-decoration="none" x="332.5" y="331.5">agent</text></g></g><g transform="translate(-134,-70) scale(1,1)"><path fill="none" stroke="#000000" d="M 368 352 L 416 352" stroke-miterlimit="10"/></g><g transform="translate(-134,-70) scale(1,1)"><path fill="none" stroke="#000000" d="M 405.83732514237585 356.209517756016 L 416 352 L 405.83732514237585 347.790482243984" stroke-miterlimit="10"/></g><g transform="translate(-134,-70) scale(1,1)"><g><path fill="none" stroke="none"/><text fill="#000000" stroke="none" font-family="Roboto" font-size="13px" font-style="normal" font-weight="normal" text-decoration="none" x="368.5" y="347.5">patient</text></g></g><g transform="translate(-134,-70) scale(1,1)"><path fill="#ffffff" stroke="none" d="M 178 144 L 234.2216796875 144 Q 244.2216796875 144 244.2216796875 154 L 244.2216796875 173 Q 244.2216796875 183 234.2216796875 183 L 178 183 Q 168 183 168 173 L 168 154 Q 168 144 178 144 Z"/></g><g transform="translate(-134,-70) scale(1,1)"><path fill="none" stroke="#000000" d="M 178 144 L 234.2216796875 144 Q 244.2216796875 144 244.2216796875 154 L 244.2216796875 173 Q 244.2216796875 183 234.2216796875 183 L 178 183 Q 168 183 168 173 L 168 154 Q 168 144 178 144 Z" stroke-miterlimit="10"/></g><g transform="translate(-134,-70) scale(1,1)"><g><path fill="none" stroke="none"/><text fill="#000000" stroke="none" font-family="Roboto" font-size="13px" font-style="normal" font-weight="bold" text-decoration="none" x="173.490234375" y="163.5">11.06.2017</text></g></g><g transform="translate(-134,-70) scale(1,1)"><path fill="#ffffff" stroke="none" d="M 154 272 L 233.60009765625 272 Q 243.60009765625 272 243.60009765625 282 L 243.60009765625 301 Q 243.60009765625 311 233.60009765625 311 L 154 311 Q 144 311 144 301 L 144 282 Q 144 272 154 272 Z"/></g><g transform="translate(-134,-70) scale(1,1)"><path fill="none" stroke="#000000" d="M 154 272 L 233.60009765625 272 Q 243.60009765625 272 243.60009765625 282 L 243.60009765625 301 Q 243.60009765625 311 233.60009765625 311 L 154 311 Q 144 311 144 301 L 144 282 Q 144 272 154 272 Z" stroke-miterlimit="10"/></g><g transform="translate(-134,-70) scale(1,1)"><g><path fill="none" stroke="none"/><text fill="#000000" stroke="none" font-family="Roboto" font-size="13px" font-style="normal" font-weight="normal" text-decoration="none" x="148.5" y="289.5">«latent, named»</text></g></g><g transform="translate(-134,-70) scale(1,1)"><g><path fill="none" stroke="none"/><text fill="#000000" stroke="none" font-family="Roboto" font-size="13px" font-style="normal" font-weight="bold" text-decoration="none" x="192.0322265625" y="304.5">I</text></g></g><g transform="translate(-134,-70) scale(1,1)"><path fill="#ffffff" stroke="none" d="M 154 336 L 233.60009765625 336 Q 243.60009765625 336 243.60009765625 346 L 243.60009765625 365 Q 243.60009765625 375 233.60009765625 375 L 154 375 Q 144 375 144 365 L 144 346 Q 144 336 154 336 Z"/></g><g transform="translate(-134,-70) scale(1,1)"><path fill="none" stroke="#000000" d="M 154 336 L 233.60009765625 336 Q 243.60009765625 336 243.60009765625 346 L 243.60009765625 365 Q 243.60009765625 375 233.60009765625 375 L 154 375 Q 144 375 144 365 L 144 346 Q 144 336 154 336 Z" stroke-miterlimit="10"/></g><g transform="translate(-134,-70) scale(1,1)"><g><path fill="none" stroke="none"/><text fill="#000000" stroke="none" font-family="Roboto" font-size="13px" font-style="normal" font-weight="normal" text-decoration="none" x="148.5" y="353.5">«latent, named»</text></g></g><g transform="translate(-134,-70) scale(1,1)"><g><path fill="none" stroke="none"/><text fill="#000000" stroke="none" font-family="Roboto" font-size="13px" font-style="normal" font-weight="bold" text-decoration="none" x="179.638427734375" y="368.5">think</text></g></g><g transform="translate(-134,-70) scale(1,1)"><path fill="#ffffff" stroke="none" d="M 442 400 L 521.60009765625 400 Q 531.60009765625 400 531.60009765625 410 L 531.60009765625 429 Q 531.60009765625 439 521.60009765625 439 L 442 439 Q 432 439 432 429 L 432 410 Q 432 400 442 400 Z"/></g><g transform="translate(-134,-70) scale(1,1)"><path fill="none" stroke="#000000" d="M 442 400 L 521.60009765625 400 Q 531.60009765625 400 531.60009765625 410 L 531.60009765625 429 Q 531.60009765625 439 521.60009765625 439 L 442 439 Q 432 439 432 429 L 432 410 Q 432 400 442 400 Z" stroke-miterlimit="10"/></g><g transform="translate(-134,-70) scale(1,1)"><g><path fill="none" stroke="none"/><text fill="#000000" stroke="none" font-family="Roboto" font-size="13px" font-style="normal" font-weight="normal" text-decoration="none" x="436.5" y="417.5">«latent, named»</text></g></g><g transform="translate(-134,-70) scale(1,1)"><g><path fill="none" stroke="none"/><text fill="#000000" stroke="none" font-family="Roboto" font-size="13px" font-style="normal" font-weight="bold" text-decoration="none" x="476.63623046875" y="432.5">in</text></g></g><g transform="translate(-134,-70) scale(1,1)"><path fill="#ffffff" stroke="none" d="M 570 400 L 649.60009765625 400 Q 659.60009765625 400 659.60009765625 410 L 659.60009765625 429 Q 659.60009765625 439 649.60009765625 439 L 570 439 Q 560 439 560 429 L 560 410 Q 560 400 570 400 Z"/></g><g transform="translate(-134,-70) scale(1,1)"><path fill="none" stroke="#000000" d="M 570 400 L 649.60009765625 400 Q 659.60009765625 400 659.60009765625 410 L 659.60009765625 429 Q 659.60009765625 439 649.60009765625 439 L 570 439 Q 560 439 560 429 L 560 410 Q 560 400 570 400 Z" stroke-miterlimit="10"/></g><g transform="translate(-134,-70) scale(1,1)"><g><path fill="none" stroke="none"/><text fill="#000000" stroke="none" font-family="Roboto" font-size="13px" font-style="normal" font-weight="normal" text-decoration="none" x="564.5" y="417.5">«latent, named»</text></g></g><g transform="translate(-134,-70) scale(1,1)"><g><path fill="none" stroke="none"/><text fill="#000000" stroke="none" font-family="Roboto" font-size="13px" font-style="normal" font-weight="bold" text-decoration="none" x="600.4912109375" y="432.5">red</text></g></g><g transform="translate(-134,-70) scale(1,1)"><path fill="#ffffff" stroke="none" d="M 570 80 L 649.60009765625 80 Q 659.60009765625 80 659.60009765625 90 L 659.60009765625 109 Q 659.60009765625 119 649.60009765625 119 L 570 119 Q 560 119 560 109 L 560 90 Q 560 80 570 80 Z"/></g><g transform="translate(-134,-70) scale(1,1)"><path fill="none" stroke="#000000" d="M 570 80 L 649.60009765625 80 Q 659.60009765625 80 659.60009765625 90 L 659.60009765625 109 Q 659.60009765625 119 649.60009765625 119 L 570 119 Q 560 119 560 109 L 560 90 Q 560 80 570 80 Z" stroke-miterlimit="10"/></g><g transform="translate(-134,-70) scale(1,1)"><g><path fill="none" stroke="none"/><text fill="#000000" stroke="none" font-family="Roboto" font-size="13px" font-style="normal" font-weight="normal" text-decoration="none" x="564.5" y="97.5">«latent, named»</text></g></g><g transform="translate(-134,-70) scale(1,1)"><g><path fill="none" stroke="none"/><text fill="#000000" stroke="none" font-family="Roboto" font-size="13px" font-style="normal" font-weight="bold" text-decoration="none" x="599.434326171875" y="112.5">you</text></g></g><g transform="translate(-134,-70) scale(1,1)"><path fill="#ffffff" stroke="none" d="M 690 272 L 769.60009765625 272 Q 779.60009765625 272 779.60009765625 282 L 779.60009765625 301 Q 779.60009765625 311 769.60009765625 311 L 690 311 Q 680 311 680 301 L 680 282 Q 680 272 690 272 Z"/></g><g transform="translate(-134,-70) scale(1,1)"><path fill="none" stroke="#000000" d="M 690 272 L 769.60009765625 272 Q 779.60009765625 272 779.60009765625 282 L 779.60009765625 301 Q 779.60009765625 311 769.60009765625 311 L 690 311 Q 680 311 680 301 L 680 282 Q 680 272 690 272 Z" stroke-miterlimit="10"/></g><g transform="translate(-134,-70) scale(1,1)"><g><path fill="none" stroke="none"/><text fill="#000000" stroke="none" font-family="Roboto" font-size="13px" font-style="normal" font-weight="normal" text-decoration="none" x="684.5" y="289.5">«latent, named»</text></g></g><g transform="translate(-134,-70) scale(1,1)"><g><path fill="none" stroke="none"/><text fill="#000000" stroke="none" font-family="Roboto" font-size="13px" font-style="normal" font-weight="bold" text-decoration="none" x="718.5234375" y="304.5">tent</text></g></g><g transform="translate(-134,-70) scale(1,1)"><path fill="#ffffff" stroke="none" d="M 322 400 L 401.60009765625 400 Q 411.60009765625 400 411.60009765625 410 L 411.60009765625 429 Q 411.60009765625 439 401.60009765625 439 L 322 439 Q 312 439 312 429 L 312 410 Q 312 400 322 400 Z"/></g><g transform="translate(-134,-70) scale(1,1)"><path fill="none" stroke="#000000" d="M 322 400 L 401.60009765625 400 Q 411.60009765625 400 411.60009765625 410 L 411.60009765625 429 Q 411.60009765625 439 401.60009765625 439 L 322 439 Q 312 439 312 429 L 312 410 Q 312 400 322 400 Z" stroke-miterlimit="10"/></g><g transform="translate(-134,-70) scale(1,1)"><g><path fill="none" stroke="none"/><text fill="#000000" stroke="none" font-family="Roboto" font-size="13px" font-style="normal" font-weight="normal" text-decoration="none" x="316.5" y="417.5">«latent, named»</text></g></g><g transform="translate(-134,-70) scale(1,1)"><g><path fill="none" stroke="none"/><text fill="#000000" stroke="none" font-family="Roboto" font-size="13px" font-style="normal" font-weight="bold" text-decoration="none" x="351.561279296875" y="432.5">see</text></g></g><g transform="translate(-134,-70) scale(1,1)"><path fill="none" stroke="#000000" d="M 244 176 L 328 176 L 328 208" stroke-miterlimit="10"/></g><g transform="translate(-134,-70) scale(1,1)"><path fill="none" stroke="#000000" d="M 323.790482243984 197.83732514237585 L 328 208 L 332.209517756016 197.83732514237585" stroke-miterlimit="10"/></g><g transform="translate(-134,-70) scale(1,1)"><g><path fill="none" stroke="none"/><text fill="#000000" stroke="none" font-family="Roboto" font-size="13px" font-style="normal" font-weight="normal" text-decoration="none" x="294.5" y="195.5">inst</text></g></g><g transform="translate(-134,-70) scale(1,1)"><path fill="none" stroke="#000000" d="M 209 208 L 209 183" stroke-miterlimit="10"/></g><g transform="translate(-134,-70) scale(1,1)"><path fill="none" stroke="#000000" d="M 213.209517756016 193.16267485762415 L 209 183 L 204.790482243984 193.16267485762415" stroke-miterlimit="10"/></g><g transform="translate(-134,-70) scale(1,1)"><g><path fill="none" stroke="none"/><text fill="#000000" stroke="none" font-family="Roboto" font-size="13px" font-style="normal" font-weight="normal" text-decoration="none" x="215.5" y="203.5">inst</text></g></g><g transform="translate(-134,-70) scale(1,1)"><path fill="none" stroke="#000000" d="M 680 286 L 648 286 L 648 264 L 576 264 L 576 280 L 531 280" stroke-miterlimit="10"/></g><g transform="translate(-134,-70) scale(1,1)"><path fill="none" stroke="#000000" d="M 541.1626748576241 275.790482243984 L 531 280 L 541.1626748576241 284.209517756016" stroke-miterlimit="10"/></g><g transform="translate(-134,-70) scale(1,1)"><g><path fill="none" stroke="none"/><text fill="#000000" stroke="none" font-family="Roboto" font-size="13px" font-style="normal" font-weight="normal" text-decoration="none" x="567.137939453125" y="259.5">inst</text></g></g><g transform="translate(-134,-70) scale(1,1)"><path fill="none" stroke="#000000" d="M 612 400 L 612 311" stroke-miterlimit="10"/></g><g transform="translate(-134,-70) scale(1,1)"><path fill="none" stroke="#000000" d="M 616.209517756016 321.16267485762415 L 612 311 L 607.790482243984 321.16267485762415" stroke-miterlimit="10"/></g><g transform="translate(-134,-70) scale(1,1)"><g><path fill="none" stroke="none"/><text fill="#000000" stroke="none" font-family="Roboto" font-size="13px" font-style="normal" font-weight="normal" text-decoration="none" x="586.5" y="360.5">inst</text></g></g><g transform="translate(-134,-70) scale(1,1)"><path fill="none" stroke="#000000" d="M 448 400 L 448 360 L 472 360" stroke-miterlimit="10"/></g><g transform="translate(-134,-70) scale(1,1)"><path fill="none" stroke="#000000" d="M 461.83732514237585 364.209517756016 L 472 360 L 461.83732514237585 355.790482243984" stroke-miterlimit="10"/></g><g transform="translate(-134,-70) scale(1,1)"><g><path fill="none" stroke="none"/><text fill="#000000" stroke="none" font-family="Roboto" font-size="13px" font-style="normal" font-weight="normal" text-decoration="none" x="447.5" y="351.5">inst</text></g></g><g transform="translate(-134,-70) scale(1,1)"><path fill="none" stroke="#000000" d="M 384 400 L 384 368 L 432 368 L 432 264 L 488 264 L 488 247" stroke-miterlimit="10"/></g><g transform="translate(-134,-70) scale(1,1)"><path fill="none" stroke="#000000" d="M 492.209517756016 257.16267485762415 L 488 247 L 483.790482243984 257.16267485762415" stroke-miterlimit="10"/></g><g transform="translate(-134,-70) scale(1,1)"><g><path fill="none" stroke="none"/><text fill="#000000" stroke="none" font-family="Roboto" font-size="13px" font-style="normal" font-weight="normal" text-decoration="none" x="439.5" y="280.5">inst</text></g></g><g transform="translate(-134,-70) scale(1,1)"><path fill="none" stroke="#000000" d="M 616 119 L 616 208" stroke-miterlimit="10"/></g><g transform="translate(-134,-70) scale(1,1)"><path fill="none" stroke="#000000" d="M 611.790482243984 197.83732514237585 L 616 208 L 620.209517756016 197.83732514237585" stroke-miterlimit="10"/></g><g transform="translate(-134,-70) scale(1,1)"><g><path fill="none" stroke="none"/><text fill="#000000" stroke="none" font-family="Roboto" font-size="13px" font-style="normal" font-weight="normal" text-decoration="none" x="623.5" y="187.5">inst</text></g></g><g transform="translate(-134,-70) scale(1,1)"><path fill="none" stroke="#000000" d="M 244 355 L 288 355" stroke-miterlimit="10"/></g><g transform="translate(-134,-70) scale(1,1)"><path fill="none" stroke="#000000" d="M 277.83732514237585 359.209517756016 L 288 355 L 277.83732514237585 350.790482243984" stroke-miterlimit="10"/></g><g transform="translate(-134,-70) scale(1,1)"><g><path fill="none" stroke="none"/><text fill="#000000" stroke="none" font-family="Roboto" font-size="13px" font-style="normal" font-weight="normal" text-decoration="none" x="263.5" y="348.5">inst</text></g></g><g transform="translate(-134,-70) scale(1,1)"><path fill="none" stroke="#000000" d="M 244 291 L 288 291" stroke-miterlimit="10"/></g><g transform="translate(-134,-70) scale(1,1)"><path fill="none" stroke="#000000" d="M 277.83732514237585 295.209517756016 L 288 291 L 277.83732514237585 286.790482243984" stroke-miterlimit="10"/></g><g transform="translate(-134,-70) scale(1,1)"><g><path fill="none" stroke="none"/><text fill="#000000" stroke="none" font-family="Roboto" font-size="13px" font-style="normal" font-weight="normal" text-decoration="none" x="263.5" y="284.5">inst</text></g></g></g></svg>