<svg version="1.1" xmlns="http://www.w3.org/2000/svg" xmlns:xlink="http://www.w3.org/1999/xlink" width="711.60009765625" height="531"><defs/><g><g transform="translate(-182,-30) scale(1,1)"><path fill="#ffffff" stroke="none" d="M 298 320 L 339.05078125 320 Q 349.05078125 320 349.05078125 330 L 349.05078125 349 Q 349.05078125 359 339.05078125 359 L 298 359 Q 288 359 288 349 L 288 330 Q 288 320 298 320 Z"/></g><g transform="translate(-182,-30) scale(1,1)"><path fill="none" stroke="#000000" d="M 298 320 L 339.05078125 320 Q 349.05078125 320 349.05078125 330 L 349.05078125 349 Q 349.05078125 359 339.05078125 359 L 298 359 Q 288 359 288 349 L 288 330 Q 288 320 298 320 Z" stroke-miterlimit="10"/></g><g transform="translate(-182,-30) scale(1,1)"><g><path fill="none" stroke="none"/><text fill="#000000" stroke="none" font-family="Roboto" font-size="13px" font-style="normal" font-weight="normal" text-decoration="none" x="292.5" y="337.5">«named»</text></g></g><g transform="translate(-182,-30) scale(1,1)"><g><path fill="none" stroke="none"/><text fill="#000000" stroke="none" font-family="Roboto" font-size="13px" font-style="normal" font-weight="bold" text-decoration="none" x="305.757080078125" y="352.5">date</text></g></g><g transform="translate(-182,-30) scale(1,1)"><path fill="#ffffff" stroke="none" d="M 370 248 L 758 248 Q 768 248 768 258 L 768 494 Q 768 504 758 504 L 370 504 Q 360 504 360 494 L 360 258 Q 360 248 370 248 Z"/></g><g transform="translate(-182,-30) scale(1,1)"><path fill="none" stroke="#000000" d="M 370 248 L 758 248 Q 768 248 768 258 L 768 494 Q 768 504 758 504 L 370 504 Q 360 504 360 494 L 360 258 Q 360 248 370 248 Z" stroke-miterlimit="10"/></g><g transform="translate(-182,-30) scale(1,1)"><path fill="none" stroke="#000000" d="M 360 273 L 768 273" stroke-miterlimit="10"/></g><g transform="translate(-182,-30) scale(1,1)"><g><path fill="none" stroke="none"/><text fill="#000000" stroke="none" font-family="Roboto" font-size="13px" font-style="normal" font-weight="bold" text-decoration="none" x="497.809814453125" y="267.5">POSITIVE POSSIBILITY</text></g></g><g transform="translate(-182,-30) scale(1,1)"><path fill="#ffffff" stroke="none" d="M 402 320 L 462 320 Q 472 320 472 330 L 472 349 Q 472 359 462 359 L 402 359 Q 392 359 392 349 L 392 330 Q 392 320 402 320 Z"/></g><g transform="translate(-182,-30) scale(1,1)"><path fill="none" stroke="#000000" d="M 402 320 L 462 320 Q 472 320 472 330 L 472 349 Q 472 359 462 359 L 402 359 Q 392 359 392 349 L 392 330 Q 392 320 402 320 Z" stroke-miterlimit="10"/></g><g transform="translate(-182,-30) scale(1,1)"><g><path fill="none" stroke="none"/><text fill="#000000" stroke="none" font-family="Roboto" font-size="13px" font-style="normal" font-weight="bold" text-decoration="none" x="399.37939453125" y="339.5">11.06.2017</text></g></g><g transform="translate(-182,-30) scale(1,1)"><path fill="#ffffff" stroke="none" d="M 402 384 L 462 384 Q 472 384 472 394 L 472 413 Q 472 423 462 423 L 402 423 Q 392 423 392 413 L 392 394 Q 392 384 402 384 Z"/></g><g transform="translate(-182,-30) scale(1,1)"><path fill="none" stroke="#000000" d="M 402 384 L 462 384 Q 472 384 472 394 L 472 413 Q 472 423 462 423 L 402 423 Q 392 423 392 413 L 392 394 Q 392 384 402 384 Z" stroke-miterlimit="10"/></g><g transform="translate(-182,-30) scale(1,1)"><g><path fill="none" stroke="none"/><text fill="#000000" stroke="none" font-family="Roboto" font-size="13px" font-style="normal" font-weight="bold" text-decoration="none" x="430.232177734375" y="403.5">I</text></g></g><g transform="translate(-182,-30) scale(1,1)"><path fill="#ffffff" stroke="none" d="M 402 448 L 462 448 Q 472 448 472 458 L 472 477 Q 472 487 462 487 L 402 487 Q 392 487 392 477 L 392 458 Q 392 448 402 448 Z"/></g><g transform="translate(-182,-30) scale(1,1)"><path fill="none" stroke="#000000" d="M 402 448 L 462 448 Q 472 448 472 458 L 472 477 Q 472 487 462 487 L 402 487 Q 392 487 392 477 L 392 458 Q 392 448 402 448 Z" stroke-miterlimit="10"/></g><g transform="translate(-182,-30) scale(1,1)"><g><path fill="none" stroke="none"/><text fill="#000000" stroke="none" font-family="Roboto" font-size="13px" font-style="normal" font-weight="normal" text-decoration="none" x="404.15283203125" y="465.5">«relation»</text></g></g><g transform="translate(-182,-30) scale(1,1)"><g><path fill="none" stroke="none"/><text fill="#000000" stroke="none" font-family="Roboto" font-size="13px" font-style="normal" font-weight="bold" text-decoration="none" x="417.83837890625" y="480.5">think</text></g></g><g transform="translate(-182,-30) scale(1,1)"><path fill="#ffffff" stroke="none" d="M 690 320 L 729 320 Q 739 320 739 330 L 739 349 Q 739 359 729 359 L 690 359 Q 680 359 680 349 L 680 330 Q 680 320 690 320 Z"/></g><g transform="translate(-182,-30) scale(1,1)"><path fill="none" stroke="#000000" d="M 690 320 L 729 320 Q 739 320 739 330 L 739 349 Q 739 359 729 359 L 690 359 Q 680 359 680 349 L 680 330 Q 680 320 690 320 Z" stroke-miterlimit="10"/></g><g transform="translate(-182,-30) scale(1,1)"><g><path fill="none" stroke="none"/><text fill="#000000" stroke="none" font-family="Roboto" font-size="13px" font-style="normal" font-weight="bold" text-decoration="none" x="700.191162109375" y="339.5">red</text></g></g><g transform="translate(-182,-30) scale(1,1)"><path fill="#ffffff" stroke="none" d="M 626 416 L 665 416 Q 675 416 675 426 L 675 445 Q 675 455 665 455 L 626 455 Q 616 455 616 445 L 616 426 Q 616 416 626 416 Z"/></g><g transform="translate(-182,-30) scale(1,1)"><path fill="none" stroke="#000000" d="M 626 416 L 665 416 Q 675 416 675 426 L 675 445 Q 675 455 665 455 L 626 455 Q 616 455 616 445 L 616 426 Q 616 416 626 416 Z" stroke-miterlimit="10"/></g><g transform="translate(-182,-30) scale(1,1)"><g><path fill="none" stroke="none"/><text fill="#000000" stroke="none" font-family="Roboto" font-size="13px" font-style="normal" font-weight="bold" text-decoration="none" x="634.223388671875" y="435.5">tent</text></g></g><g transform="translate(-182,-30) scale(1,1)"><path fill="#ffffff" stroke="none" d="M 530 280 L 750 280 Q 760 280 760 290 L 760 486 Q 760 496 750 496 L 530 496 Q 520 496 520 486 L 520 290 Q 520 280 530 280 Z"/></g><g transform="translate(-182,-30) scale(1,1)"><path fill="none" stroke="#000000" d="M 530 280 L 750 280 Q 760 280 760 290 L 760 486 Q 760 496 750 496 L 530 496 Q 520 496 520 486 L 520 290 Q 520 280 530 280 Z" stroke-miterlimit="10"/></g><g transform="translate(-182,-30) scale(1,1)"><path fill="none" stroke="#000000" d="M 520 305 L 760 305" stroke-miterlimit="10"/></g><g transform="translate(-182,-30) scale(1,1)"><g><path fill="none" stroke="none"/><text fill="#000000" stroke="none" font-family="Roboto" font-size="13px" font-style="normal" font-weight="bold" text-decoration="none" x="573.809814453125" y="299.5">POSITIVE POSSIBILITY</text></g></g><g transform="translate(-182,-30) scale(1,1)"><path fill="#ffffff" stroke="none" d="M 586 320 L 630.6943359375 320 Q 640.6943359375 320 640.6943359375 330 L 640.6943359375 349 Q 640.6943359375 359 630.6943359375 359 L 586 359 Q 576 359 576 349 L 576 330 Q 576 320 586 320 Z"/></g><g transform="translate(-182,-30) scale(1,1)"><path fill="none" stroke="#000000" d="M 586 320 L 630.6943359375 320 Q 640.6943359375 320 640.6943359375 330 L 640.6943359375 349 Q 640.6943359375 359 630.6943359375 359 L 586 359 Q 576 359 576 349 L 576 330 Q 576 320 586 320 Z" stroke-miterlimit="10"/></g><g transform="translate(-182,-30) scale(1,1)"><g><path fill="none" stroke="none"/><text fill="#000000" stroke="none" font-family="Roboto" font-size="13px" font-style="normal" font-weight="normal" text-decoration="none" x="580.5" y="337.5">«relation»</text></g></g><g transform="translate(-182,-30) scale(1,1)"><g><path fill="none" stroke="none"/><text fill="#000000" stroke="none" font-family="Roboto" font-size="13px" font-style="normal" font-weight="bold" text-decoration="none" x="598.1083984375" y="352.5">see</text></g></g><g transform="translate(-182,-30) scale(1,1)"><path fill="#ffffff" stroke="none" d="M 586 448 L 625 448 Q 635 448 635 458 L 635 477 Q 635 487 625 487 L 586 487 Q 576 487 576 477 L 576 458 Q 576 448 586 448 Z"/></g><g transform="translate(-182,-30) scale(1,1)"><path fill="none" stroke="#000000" d="M 586 448 L 625 448 Q 635 448 635 458 L 635 477 Q 635 487 625 487 L 586 487 Q 576 487 576 477 L 576 458 Q 576 448 586 448 Z" stroke-miterlimit="10"/></g><g transform="translate(-182,-30) scale(1,1)"><g><path fill="none" stroke="none"/><text fill="#000000" stroke="none" font-family="Roboto" font-size="13px" font-style="normal" font-weight="bold" text-decoration="none" x="600.336181640625" y="467.5">in</text></g></g><g transform="translate(-182,-30) scale(1,1)"><path fill="#ffffff" stroke="none" d="M 698 320 L 737 320 Q 747 320 747 330 L 747 349 Q 747 359 737 359 L 698 359 Q 688 359 688 349 L 688 330 Q 688 320 698 320 Z"/></g><g transform="translate(-182,-30) scale(1,1)"><path fill="none" stroke="#000000" d="M 698 320 L 737 320 Q 747 320 747 330 L 747 349 Q 747 359 737 359 L 698 359 Q 688 359 688 349 L 688 330 Q 688 320 698 320 Z" stroke-miterlimit="10"/></g><g transform="translate(-182,-30) scale(1,1)"><g><path fill="none" stroke="none"/><text fill="#000000" stroke="none" font-family="Roboto" font-size="13px" font-style="normal" font-weight="bold" text-decoration="none" x="707.13427734375" y="339.5">you</text></g></g><g transform="translate(-182,-30) scale(1,1)"><path fill="#ffffff" stroke="none" d="M 586 384 L 625 384 Q 635 384 635 394 L 635 413 Q 635 423 625 423 L 586 423 Q 576 423 576 413 L 576 394 Q 576 384 586 384 Z"/></g><g transform="translate(-182,-30) scale(1,1)"><path fill="none" stroke="#000000" d="M 586 384 L 625 384 Q 635 384 635 394 L 635 413 Q 635 423 625 423 L 586 423 Q 576 423 576 413 L 576 394 Q 576 384 586 384 Z" stroke-miterlimit="10"/></g><g transform="translate(-182,-30) scale(1,1)"><g><path fill="none" stroke="none"/><text fill="#000000" stroke="none" font-family="Roboto" font-size="13px" font-style="normal" font-weight="bold" text-decoration="none" x="594.223388671875" y="403.5">tent</text></g></g><g transform="translate(-182,-30) scale(1,1)"><path fill="#ffffff" stroke="none" d="M 698 384 L 737 384 Q 747 384 747 394 L 747 413 Q 747 423 737 423 L 698 423 Q 688 423 688 413 L 688 394 Q 688 384 698 384 Z"/></g><g transform="translate(-182,-30) scale(1,1)"><path fill="none" stroke="#000000" d="M 698 384 L 737 384 Q 747 384 747 394 L 747 413 Q 747 423 737 423 L 698 423 Q 688 423 688 413 L 688 394 Q 688 384 698 384 Z" stroke-miterlimit="10"/></g><g transform="translate(-182,-30) scale(1,1)"><g><path fill="none" stroke="none"/><text fill="#000000" stroke="none" font-family="Roboto" font-size="13px" font-style="normal" font-weight="bold" text-decoration="none" x="708.191162109375" y="403.5">red</text></g></g><g transform="translate(-182,-30) scale(1,1)"><path fill="none" stroke="#000000" d="M 349 339 L 392 339" stroke-miterlimit="10"/></g><g transform="translate(-182,-30) scale(1,1)"><path fill="none" stroke="#000000" d="M 381.83732514237585 343.209517756016 L 392 339 L 381.83732514237585 334.790482243984" stroke-miterlimit="10"/></g><g transform="translate(-182,-30) scale(1,1)"><g><path fill="none" stroke="none"/><text fill="#000000" stroke="none" font-family="Roboto" font-size="13px" font-style="normal" font-weight="normal" text-decoration="none" x="368.5" y="361.5">inst</text></g></g><g transform="translate(-182,-30) scale(1,1)"><path fill="none" stroke="#000000" d="M 472 339 L 576 339" stroke-miterlimit="10"/></g><g transform="translate(-182,-30) scale(1,1)"><path fill="none" stroke="#000000" d="M 565.8373251423759 343.209517756016 L 576 339 L 565.8373251423758 334.790482243984" stroke-miterlimit="10"/></g><g transform="translate(-182,-30) scale(1,1)"><g><path fill="none" stroke="none"/><text fill="#000000" stroke="none" font-family="Roboto" font-size="13px" font-style="normal" font-weight="normal" text-decoration="none" x="526.5" y="332.5">patient</text></g></g><g transform="translate(-182,-30) scale(1,1)"><path fill="none" stroke="#000000" d="M 576 352 L 488 352 L 488 400 L 472 400" stroke-miterlimit="10"/></g><g transform="translate(-182,-30) scale(1,1)"><path fill="none" stroke="#000000" d="M 482.16267485762415 395.790482243984 L 472 400 L 482.16267485762415 404.209517756016" stroke-miterlimit="10"/></g><g transform="translate(-182,-30) scale(1,1)"><g><path fill="none" stroke="none"/><text fill="#000000" stroke="none" font-family="Roboto" font-size="13px" font-style="normal" font-weight="normal" text-decoration="none" x="534.5" y="364.5">agent</text></g></g><g transform="translate(-182,-30) scale(1,1)"><path fill="none" stroke="#000000" d="M 641 339 L 688 339" stroke-miterlimit="10"/></g><g transform="translate(-182,-30) scale(1,1)"><path fill="none" stroke="#000000" d="M 677.8373251423759 343.209517756016 L 688 339 L 677.8373251423758 334.790482243984" stroke-miterlimit="10"/></g><g transform="translate(-182,-30) scale(1,1)"><g><path fill="none" stroke="none"/><text fill="#000000" stroke="none" font-family="Roboto" font-size="13px" font-style="normal" font-weight="normal" text-decoration="none" x="643.5" y="330.5">patient</text></g></g><g transform="translate(-182,-30) scale(1,1)"><path fill="none" stroke="#000000" d="M 606 384 L 606 359" stroke-miterlimit="10"/></g><g transform="translate(-182,-30) scale(1,1)"><path fill="none" stroke="#000000" d="M 610.209517756016 369.16267485762415 L 606 359 L 601.790482243984 369.16267485762415" stroke-miterlimit="10"/></g><g transform="translate(-182,-30) scale(1,1)"><g><path fill="none" stroke="none"/><text fill="#000000" stroke="none" font-family="Roboto" font-size="13px" font-style="normal" font-weight="normal" text-decoration="none" x="614.5" y="379.5">patient</text></g></g><g transform="translate(-182,-30) scale(1,1)"><path fill="none" stroke="#000000" d="M 688 403 L 635 403" stroke-miterlimit="10"/></g><g transform="translate(-182,-30) scale(1,1)"><path fill="none" stroke="#000000" d="M 645.1626748576241 398.790482243984 L 635 403 L 645.1626748576241 407.209517756016" stroke-miterlimit="10"/></g><g transform="translate(-182,-30) scale(1,1)"><g><path fill="none" stroke="none"/><text fill="#000000" stroke="none" font-family="Roboto" font-size="13px" font-style="normal" font-weight="normal" text-decoration="none" x="651.5" y="419.5">inst</text></g></g><g transform="translate(-182,-30) scale(1,1)"><path fill="none" stroke="#000000" d="M 605 448 L 605 423" stroke-miterlimit="10"/></g><g transform="translate(-182,-30) scale(1,1)"><path fill="none" stroke="#000000" d="M 609.209517756016 433.16267485762415 L 605 423 L 600.790482243984 433.16267485762415" stroke-miterlimit="10"/></g><g transform="translate(-182,-30) scale(1,1)"><g><path fill="none" stroke="none"/><text fill="#000000" stroke="none" font-family="Roboto" font-size="13px" font-style="normal" font-weight="normal" text-decoration="none" x="613.5" y="439.5">patient</text></g></g><g transform="translate(-182,-30) scale(1,1)"><path fill="none" stroke="#000000" d="M 428 448 L 428 423" stroke-miterlimit="10"/></g><g transform="translate(-182,-30) scale(1,1)"><path fill="none" stroke="#000000" d="M 432.209517756016 433.16267485762415 L 428 423 L 423.790482243984 433.16267485762415" stroke-miterlimit="10"/></g><g transform="translate(-182,-30) scale(1,1)"><g><path fill="none" stroke="none"/><text fill="#000000" stroke="none" font-family="Roboto" font-size="13px" font-style="normal" font-weight="normal" text-decoration="none" x="436.5" y="443.5">agent</text></g></g><g transform="translate(-182,-30) scale(1,1)"><path fill="none" stroke="#000000" d="M 472 464 L 520 464" stroke-miterlimit="10"/></g><g transform="translate(-182,-30) scale(1,1)"><path fill="none" stroke="#000000" d="M 509.83732514237585 468.209517756016 L 520 464 L 509.83732514237585 459.790482243984" stroke-miterlimit="10"/></g><g transform="translate(-182,-30) scale(1,1)"><g><path fill="none" stroke="none"/><text fill="#000000" stroke="none" font-family="Roboto" font-size="13px" font-style="normal" font-weight="normal" text-decoration="none" x="472.5" y="459.5">patient</text></g></g><g transform="translate(-182,-30) scale(1,1)"><path fill="#ffffff" stroke="none" d="M 282 256 L 338.2216796875 256 Q 348.2216796875 256 348.2216796875 266 L 348.2216796875 285 Q 348.2216796875 295 338.2216796875 295 L 282 295 Q 272 295 272 285 L 272 266 Q 272 256 282 256 Z"/></g><g transform="translate(-182,-30) scale(1,1)"><path fill="none" stroke="#000000" d="M 282 256 L 338.2216796875 256 Q 348.2216796875 256 348.2216796875 266 L 348.2216796875 285 Q 348.2216796875 295 338.2216796875 295 L 282 295 Q 272 295 272 285 L 272 266 Q 272 256 282 256 Z" stroke-miterlimit="10"/></g><g transform="translate(-182,-30) scale(1,1)"><g><path fill="none" stroke="none"/><text fill="#000000" stroke="none" font-family="Roboto" font-size="13px" font-style="normal" font-weight="bold" text-decoration="none" x="277.490234375" y="275.5">11.06.2017</text></g></g><g transform="translate(-182,-30) scale(1,1)"><path fill="#ffffff" stroke="none" d="M 258 384 L 337.60009765625 384 Q 347.60009765625 384 347.60009765625 394 L 347.60009765625 413 Q 347.60009765625 423 337.60009765625 423 L 258 423 Q 248 423 248 413 L 248 394 Q 248 384 258 384 Z"/></g><g transform="translate(-182,-30) scale(1,1)"><path fill="none" stroke="#000000" d="M 258 384 L 337.60009765625 384 Q 347.60009765625 384 347.60009765625 394 L 347.60009765625 413 Q 347.60009765625 423 337.60009765625 423 L 258 423 Q 248 423 248 413 L 248 394 Q 248 384 258 384 Z" stroke-miterlimit="10"/></g><g transform="translate(-182,-30) scale(1,1)"><g><path fill="none" stroke="none"/><text fill="#000000" stroke="none" font-family="Roboto" font-size="13px" font-style="normal" font-weight="normal" text-decoration="none" x="252.5" y="401.5">«latent, named»</text></g></g><g transform="translate(-182,-30) scale(1,1)"><g><path fill="none" stroke="none"/><text fill="#000000" stroke="none" font-family="Roboto" font-size="13px" font-style="normal" font-weight="bold" text-decoration="none" x="296.0322265625" y="416.5">I</text></g></g><g transform="translate(-182,-30) scale(1,1)"><path fill="#ffffff" stroke="none" d="M 258 448 L 337.60009765625 448 Q 347.60009765625 448 347.60009765625 458 L 347.60009765625 477 Q 347.60009765625 487 337.60009765625 487 L 258 487 Q 248 487 248 477 L 248 458 Q 248 448 258 448 Z"/></g><g transform="translate(-182,-30) scale(1,1)"><path fill="none" stroke="#000000" d="M 258 448 L 337.60009765625 448 Q 347.60009765625 448 347.60009765625 458 L 347.60009765625 477 Q 347.60009765625 487 337.60009765625 487 L 258 487 Q 248 487 248 477 L 248 458 Q 248 448 258 448 Z" stroke-miterlimit="10"/></g><g transform="translate(-182,-30) scale(1,1)"><g><path fill="none" stroke="none"/><text fill="#000000" stroke="none" font-family="Roboto" font-size="13px" font-style="normal" font-weight="normal" text-decoration="none" x="252.5" y="465.5">«latent, named»</text></g></g><g transform="translate(-182,-30) scale(1,1)"><g><path fill="none" stroke="none"/><text fill="#000000" stroke="none" font-family="Roboto" font-size="13px" font-style="normal" font-weight="bold" text-decoration="none" x="283.638427734375" y="480.5">think</text></g></g><g transform="translate(-182,-30) scale(1,1)"><path fill="#ffffff" stroke="none" d="M 546 512 L 625.60009765625 512 Q 635.60009765625 512 635.60009765625 522 L 635.60009765625 541 Q 635.60009765625 551 625.60009765625 551 L 546 551 Q 536 551 536 541 L 536 522 Q 536 512 546 512 Z"/></g><g transform="translate(-182,-30) scale(1,1)"><path fill="none" stroke="#000000" d="M 546 512 L 625.60009765625 512 Q 635.60009765625 512 635.60009765625 522 L 635.60009765625 541 Q 635.60009765625 551 625.60009765625 551 L 546 551 Q 536 551 536 541 L 536 522 Q 536 512 546 512 Z" stroke-miterlimit="10"/></g><g transform="translate(-182,-30) scale(1,1)"><g><path fill="none" stroke="none"/><text fill="#000000" stroke="none" font-family="Roboto" font-size="13px" font-style="normal" font-weight="normal" text-decoration="none" x="540.5" y="529.5">«latent, named»</text></g></g><g transform="translate(-182,-30) scale(1,1)"><g><path fill="none" stroke="none"/><text fill="#000000" stroke="none" font-family="Roboto" font-size="13px" font-style="normal" font-weight="bold" text-decoration="none" x="580.63623046875" y="544.5">in</text></g></g><g transform="translate(-182,-30) scale(1,1)"><path fill="#ffffff" stroke="none" d="M 674 512 L 753.60009765625 512 Q 763.60009765625 512 763.60009765625 522 L 763.60009765625 541 Q 763.60009765625 551 753.60009765625 551 L 674 551 Q 664 551 664 541 L 664 522 Q 664 512 674 512 Z"/></g><g transform="translate(-182,-30) scale(1,1)"><path fill="none" stroke="#000000" d="M 674 512 L 753.60009765625 512 Q 763.60009765625 512 763.60009765625 522 L 763.60009765625 541 Q 763.60009765625 551 753.60009765625 551 L 674 551 Q 664 551 664 541 L 664 522 Q 664 512 674 512 Z" stroke-miterlimit="10"/></g><g transform="translate(-182,-30) scale(1,1)"><g><path fill="none" stroke="none"/><text fill="#000000" stroke="none" font-family="Roboto" font-size="13px" font-style="normal" font-weight="normal" text-decoration="none" x="668.5" y="529.5">«latent, named»</text></g></g><g transform="translate(-182,-30) scale(1,1)"><g><path fill="none" stroke="none"/><text fill="#000000" stroke="none" font-family="Roboto" font-size="13px" font-style="normal" font-weight="bold" text-decoration="none" x="704.4912109375" y="544.5">red</text></g></g><g transform="translate(-182,-30) scale(1,1)"><path fill="#ffffff" stroke="none" d="M 674 200 L 753.60009765625 200 Q 763.60009765625 200 763.60009765625 210 L 763.60009765625 229 Q 763.60009765625 239 753.60009765625 239 L 674 239 Q 664 239 664 229 L 664 210 Q 664 200 674 200 Z"/></g><g transform="translate(-182,-30) scale(1,1)"><path fill="none" stroke="#000000" d="M 674 200 L 753.60009765625 200 Q 763.60009765625 200 763.60009765625 210 L 763.60009765625 229 Q 763.60009765625 239 753.60009765625 239 L 674 239 Q 664 239 664 229 L 664 210 Q 664 200 674 200 Z" stroke-miterlimit="10"/></g><g transform="translate(-182,-30) scale(1,1)"><g><path fill="none" stroke="none"/><text fill="#000000" stroke="none" font-family="Roboto" font-size="13px" font-style="normal" font-weight="normal" text-decoration="none" x="668.5" y="217.5">«latent, named»</text></g></g><g transform="translate(-182,-30) scale(1,1)"><g><path fill="none" stroke="none"/><text fill="#000000" stroke="none" font-family="Roboto" font-size="13px" font-style="normal" font-weight="bold" text-decoration="none" x="703.434326171875" y="232.5">you</text></g></g><g transform="translate(-182,-30) scale(1,1)"><path fill="#ffffff" stroke="none" d="M 794 384 L 873.60009765625 384 Q 883.60009765625 384 883.60009765625 394 L 883.60009765625 413 Q 883.60009765625 423 873.60009765625 423 L 794 423 Q 784 423 784 413 L 784 394 Q 784 384 794 384 Z"/></g><g transform="translate(-182,-30) scale(1,1)"><path fill="none" stroke="#000000" d="M 794 384 L 873.60009765625 384 Q 883.60009765625 384 883.60009765625 394 L 883.60009765625 413 Q 883.60009765625 423 873.60009765625 423 L 794 423 Q 784 423 784 413 L 784 394 Q 784 384 794 384 Z" stroke-miterlimit="10"/></g><g transform="translate(-182,-30) scale(1,1)"><g><path fill="none" stroke="none"/><text fill="#000000" stroke="none" font-family="Roboto" font-size="13px" font-style="normal" font-weight="normal" text-decoration="none" x="788.5" y="401.5">«latent, named»</text></g></g><g transform="translate(-182,-30) scale(1,1)"><g><path fill="none" stroke="none"/><text fill="#000000" stroke="none" font-family="Roboto" font-size="13px" font-style="normal" font-weight="bold" text-decoration="none" x="822.5234375" y="416.5">tent</text></g></g><g transform="translate(-182,-30) scale(1,1)"><path fill="#ffffff" stroke="none" d="M 426 512 L 505.60009765625 512 Q 515.60009765625 512 515.60009765625 522 L 515.60009765625 541 Q 515.60009765625 551 505.60009765625 551 L 426 551 Q 416 551 416 541 L 416 522 Q 416 512 426 512 Z"/></g><g transform="translate(-182,-30) scale(1,1)"><path fill="none" stroke="#000000" d="M 426 512 L 505.60009765625 512 Q 515.60009765625 512 515.60009765625 522 L 515.60009765625 541 Q 515.60009765625 551 505.60009765625 551 L 426 551 Q 416 551 416 541 L 416 522 Q 416 512 426 512 Z" stroke-miterlimit="10"/></g><g transform="translate(-182,-30) scale(1,1)"><g><path fill="none" stroke="none"/><text fill="#000000" stroke="none" font-family="Roboto" font-size="13px" font-style="normal" font-weight="normal" text-decoration="none" x="420.5" y="529.5">«latent, named»</text></g></g><g transform="translate(-182,-30) scale(1,1)"><g><path fill="none" stroke="none"/><text fill="#000000" stroke="none" font-family="Roboto" font-size="13px" font-style="normal" font-weight="bold" text-decoration="none" x="455.561279296875" y="544.5">see</text></g></g><g transform="translate(-182,-30) scale(1,1)"><path fill="none" stroke="#000000" d="M 348 288 L 432 288 L 432 320" stroke-miterlimit="10"/></g><g transform="translate(-182,-30) scale(1,1)"><path fill="none" stroke="#000000" d="M 427.790482243984 309.83732514237585 L 432 320 L 436.209517756016 309.83732514237585" stroke-miterlimit="10"/></g><g transform="translate(-182,-30) scale(1,1)"><g><path fill="none" stroke="none"/><text fill="#000000" stroke="none" font-family="Roboto" font-size="13px" font-style="normal" font-weight="normal" text-decoration="none" x="398.5" y="307.5">inst</text></g></g><g transform="translate(-182,-30) scale(1,1)"><path fill="none" stroke="#000000" d="M 313 320 L 313 295" stroke-miterlimit="10"/></g><g transform="translate(-182,-30) scale(1,1)"><path fill="none" stroke="#000000" d="M 317.209517756016 305.16267485762415 L 313 295 L 308.790482243984 305.16267485762415" stroke-miterlimit="10"/></g><g transform="translate(-182,-30) scale(1,1)"><g><path fill="none" stroke="none"/><text fill="#000000" stroke="none" font-family="Roboto" font-size="13px" font-style="normal" font-weight="normal" text-decoration="none" x="319.5" y="315.5">inst</text></g></g><g transform="translate(-182,-30) scale(1,1)"><path fill="none" stroke="#000000" d="M 784 398 L 752 398 L 752 376 L 680 376 L 680 392 L 635 392" stroke-miterlimit="10"/></g><g transform="translate(-182,-30) scale(1,1)"><path fill="none" stroke="#000000" d="M 645.1626748576241 387.790482243984 L 635 392 L 645.1626748576241 396.209517756016" stroke-miterlimit="10"/></g><g transform="translate(-182,-30) scale(1,1)"><g><path fill="none" stroke="none"/><text fill="#000000" stroke="none" font-family="Roboto" font-size="13px" font-style="normal" font-weight="normal" text-decoration="none" x="671.137939453125" y="371.5">inst</text></g></g><g transform="translate(-182,-30) scale(1,1)"><path fill="none" stroke="#000000" d="M 716 512 L 716 423" stroke-miterlimit="10"/></g><g transform="translate(-182,-30) scale(1,1)"><path fill="none" stroke="#000000" d="M 720.209517756016 433.16267485762415 L 716 423 L 711.790482243984 433.16267485762415" stroke-miterlimit="10"/></g><g transform="translate(-182,-30) scale(1,1)"><g><path fill="none" stroke="none"/><text fill="#000000" stroke="none" font-family="Roboto" font-size="13px" font-style="normal" font-weight="normal" text-decoration="none" x="690.5" y="472.5">inst</text></g></g><g transform="translate(-182,-30) scale(1,1)"><path fill="none" stroke="#000000" d="M 552 512 L 552 472 L 576 472" stroke-miterlimit="10"/></g><g transform="translate(-182,-30) scale(1,1)"><path fill="none" stroke="#000000" d="M 565.8373251423759 476.209517756016 L 576 472 L 565.8373251423758 467.790482243984" stroke-miterlimit="10"/></g><g transform="translate(-182,-30) scale(1,1)"><g><path fill="none" stroke="none"/><text fill="#000000" stroke="none" font-family="Roboto" font-size="13px" font-style="normal" font-weight="normal" text-decoration="none" x="551.5" y="463.5">inst</text></g></g><g transform="translate(-182,-30) scale(1,1)"><path fill="none" stroke="#000000" d="M 488 512 L 488 480 L 536 480 L 536 376 L 592 376 L 592 359" stroke-miterlimit="10"/></g><g transform="translate(-182,-30) scale(1,1)"><path fill="none" stroke="#000000" d="M 596.209517756016 369.16267485762415 L 592 359 L 587.790482243984 369.16267485762415" stroke-miterlimit="10"/></g><g transform="translate(-182,-30) scale(1,1)"><g><path fill="none" stroke="none"/><text fill="#000000" stroke="none" font-family="Roboto" font-size="13px" font-style="normal" font-weight="normal" text-decoration="none" x="543.5" y="392.5">inst</text></g></g><g transform="translate(-182,-30) scale(1,1)"><path fill="none" stroke="#000000" d="M 720 239 L 720 320" stroke-miterlimit="10"/></g><g transform="translate(-182,-30) scale(1,1)"><path fill="none" stroke="#000000" d="M 715.790482243984 309.83732514237585 L 720 320 L 724.209517756016 309.83732514237585" stroke-miterlimit="10"/></g><g transform="translate(-182,-30) scale(1,1)"><g><path fill="none" stroke="none"/><text fill="#000000" stroke="none" font-family="Roboto" font-size="13px" font-style="normal" font-weight="normal" text-decoration="none" x="727.5" y="299.5">inst</text></g></g><g transform="translate(-182,-30) scale(1,1)"><path fill="none" stroke="#000000" d="M 348 467 L 392 467" stroke-miterlimit="10"/></g><g transform="translate(-182,-30) scale(1,1)"><path fill="none" stroke="#000000" d="M 381.83732514237585 471.209517756016 L 392 467 L 381.83732514237585 462.790482243984" stroke-miterlimit="10"/></g><g transform="translate(-182,-30) scale(1,1)"><g><path fill="none" stroke="none"/><text fill="#000000" stroke="none" font-family="Roboto" font-size="13px" font-style="normal" font-weight="normal" text-decoration="none" x="367.5" y="460.5">inst</text></g></g><g transform="translate(-182,-30) scale(1,1)"><path fill="none" stroke="#000000" d="M 348 403 L 392 403" stroke-miterlimit="10"/></g><g transform="translate(-182,-30) scale(1,1)"><path fill="none" stroke="#000000" d="M 381.83732514237585 407.209517756016 L 392 403 L 381.83732514237585 398.790482243984" stroke-miterlimit="10"/></g><g transform="translate(-182,-30) scale(1,1)"><g><path fill="none" stroke="none"/><text fill="#000000" stroke="none" font-family="Roboto" font-size="13px" font-style="normal" font-weight="normal" text-decoration="none" x="367.5" y="396.5">inst</text></g></g><g transform="translate(-182,-30) scale(1,1)"><path fill="#ffffff" stroke="none" d="M 378 40 L 419.05078125 40 Q 429.05078125 40 429.05078125 50 L 429.05078125 69 Q 429.05078125 79 419.05078125 79 L 378 79 Q 368 79 368 69 L 368 50 Q 368 40 378 40 Z"/></g><g transform="translate(-182,-30) scale(1,1)"><path fill="none" stroke="#000000" d="M 378 40 L 419.05078125 40 Q 429.05078125 40 429.05078125 50 L 429.05078125 69 Q 429.05078125 79 419.05078125 79 L 378 79 Q 368 79 368 69 L 368 50 Q 368 40 378 40 Z" stroke-miterlimit="10"/></g><g transform="translate(-182,-30) scale(1,1)"><g><path fill="none" stroke="none"/><text fill="#000000" stroke="none" font-family="Roboto" font-size="13px" font-style="normal" font-weight="normal" text-decoration="none" x="372.5" y="57.5">«named»</text></g></g><g transform="translate(-182,-30) scale(1,1)"><g><path fill="none" stroke="none"/><text fill="#000000" stroke="none" font-family="Roboto" font-size="13px" font-style="normal" font-weight="bold" text-decoration="none" x="378.590576171875" y="72.5">person</text></g></g><g transform="translate(-182,-30) scale(1,1)"><path fill="#ffffff" stroke="none" d="M 250 104 L 291.05078125 104 Q 301.05078125 104 301.05078125 114 L 301.05078125 133 Q 301.05078125 143 291.05078125 143 L 250 143 Q 240 143 240 133 L 240 114 Q 240 104 250 104 Z"/></g><g transform="translate(-182,-30) scale(1,1)"><path fill="none" stroke="#000000" d="M 250 104 L 291.05078125 104 Q 301.05078125 104 301.05078125 114 L 301.05078125 133 Q 301.05078125 143 291.05078125 143 L 250 143 Q 240 143 240 133 L 240 114 Q 240 104 250 104 Z" stroke-miterlimit="10"/></g><g transform="translate(-182,-30) scale(1,1)"><g><path fill="none" stroke="none"/><text fill="#000000" stroke="none" font-family="Roboto" font-size="13px" font-style="normal" font-weight="normal" text-decoration="none" x="244.5" y="121.5">«named»</text></g></g><g transform="translate(-182,-30) scale(1,1)"><g><path fill="none" stroke="none"/><text fill="#000000" stroke="none" font-family="Roboto" font-size="13px" font-style="normal" font-weight="bold" text-decoration="none" x="259.125" y="136.5">Bob</text></g></g><g transform="translate(-182,-30) scale(1,1)"><path fill="#ffffff" stroke="none" d="M 498 104 L 539.05078125 104 Q 549.05078125 104 549.05078125 114 L 549.05078125 133 Q 549.05078125 143 539.05078125 143 L 498 143 Q 488 143 488 133 L 488 114 Q 488 104 498 104 Z"/></g><g transform="translate(-182,-30) scale(1,1)"><path fill="none" stroke="#000000" d="M 498 104 L 539.05078125 104 Q 549.05078125 104 549.05078125 114 L 549.05078125 133 Q 549.05078125 143 539.05078125 143 L 498 143 Q 488 143 488 133 L 488 114 Q 488 104 498 104 Z" stroke-miterlimit="10"/></g><g transform="translate(-182,-30) scale(1,1)"><g><path fill="none" stroke="none"/><text fill="#000000" stroke="none" font-family="Roboto" font-size="13px" font-style="normal" font-weight="normal" text-decoration="none" x="492.5" y="121.5">«named»</text></g></g><g transform="translate(-182,-30) scale(1,1)"><g><path fill="none" stroke="none"/><text fill="#000000" stroke="none" font-family="Roboto" font-size="13px" font-style="normal" font-weight="bold" text-decoration="none" x="504.284423828125" y="136.5">Alice</text></g></g><g transform="translate(-182,-30) scale(1,1)"><path fill="#ffffff" stroke="none" d="M 250 176 L 294.6943359375 176 Q 304.6943359375 176 304.6943359375 186 L 304.6943359375 205 Q 304.6943359375 215 294.6943359375 215 L 250 215 Q 240 215 240 205 L 240 186 Q 240 176 250 176 Z"/></g><g transform="translate(-182,-30) scale(1,1)"><path fill="none" stroke="#000000" d="M 250 176 L 294.6943359375 176 Q 304.6943359375 176 304.6943359375 186 L 304.6943359375 205 Q 304.6943359375 215 294.6943359375 215 L 250 215 Q 240 215 240 205 L 240 186 Q 240 176 250 176 Z" stroke-miterlimit="10"/></g><g transform="translate(-182,-30) scale(1,1)"><g><path fill="none" stroke="none"/><text fill="#000000" stroke="none" font-family="Roboto" font-size="13px" font-style="normal" font-weight="normal" text-decoration="none" x="244.5" y="193.5">«relation»</text></g></g><g transform="translate(-182,-30) scale(1,1)"><g><path fill="none" stroke="none"/><text fill="#000000" stroke="none" font-family="Roboto" font-size="13px" font-style="normal" font-weight="bold" text-decoration="none" x="258.2998046875" y="208.5">send</text></g></g><g transform="translate(-182,-30) scale(1,1)"><path fill="#ffffff" stroke="none" d="M 394 104 L 438.6943359375 104 Q 448.6943359375 104 448.6943359375 114 L 448.6943359375 133 Q 448.6943359375 143 438.6943359375 143 L 394 143 Q 384 143 384 133 L 384 114 Q 384 104 394 104 Z"/></g><g transform="translate(-182,-30) scale(1,1)"><path fill="none" stroke="#000000" d="M 394 104 L 438.6943359375 104 Q 448.6943359375 104 448.6943359375 114 L 448.6943359375 133 Q 448.6943359375 143 438.6943359375 143 L 394 143 Q 384 143 384 133 L 384 114 Q 384 104 394 104 Z" stroke-miterlimit="10"/></g><g transform="translate(-182,-30) scale(1,1)"><g><path fill="none" stroke="none"/><text fill="#000000" stroke="none" font-family="Roboto" font-size="13px" font-style="normal" font-weight="normal" text-decoration="none" x="388.5" y="121.5">«relation»</text></g></g><g transform="translate(-182,-30) scale(1,1)"><g><path fill="none" stroke="none"/><text fill="#000000" stroke="none" font-family="Roboto" font-size="13px" font-style="normal" font-weight="bold" text-decoration="none" x="395.688720703125" y="136.5">receive</text></g></g><g transform="translate(-182,-30) scale(1,1)"><path fill="#ffffff" stroke="none" d="M 394 176 L 436.06640625 176 Q 446.06640625 176 446.06640625 186 L 446.06640625 205 Q 446.06640625 215 436.06640625 215 L 394 215 Q 384 215 384 205 L 384 186 Q 384 176 394 176 Z"/></g><g transform="translate(-182,-30) scale(1,1)"><path fill="none" stroke="#000000" d="M 394 176 L 436.06640625 176 Q 446.06640625 176 446.06640625 186 L 446.06640625 205 Q 446.06640625 215 436.06640625 215 L 394 215 Q 384 215 384 205 L 384 186 Q 384 176 394 176 Z" stroke-miterlimit="10"/></g><g transform="translate(-182,-30) scale(1,1)"><g><path fill="none" stroke="none"/><text fill="#000000" stroke="none" font-family="Roboto" font-size="13px" font-style="normal" font-weight="bold" text-decoration="none" x="388.5634765625" y="195.5">message</text></g></g><g transform="translate(-182,-30) scale(1,1)"><path fill="#ffffff" stroke="none" d="M 498 176 L 542.6943359375 176 Q 552.6943359375 176 552.6943359375 186 L 552.6943359375 205 Q 552.6943359375 215 542.6943359375 215 L 498 215 Q 488 215 488 205 L 488 186 Q 488 176 498 176 Z"/></g><g transform="translate(-182,-30) scale(1,1)"><path fill="none" stroke="#000000" d="M 498 176 L 542.6943359375 176 Q 552.6943359375 176 552.6943359375 186 L 552.6943359375 205 Q 552.6943359375 215 542.6943359375 215 L 498 215 Q 488 215 488 205 L 488 186 Q 488 176 498 176 Z" stroke-miterlimit="10"/></g><g transform="translate(-182,-30) scale(1,1)"><g><path fill="none" stroke="none"/><text fill="#000000" stroke="none" font-family="Roboto" font-size="13px" font-style="normal" font-weight="normal" text-decoration="none" x="492.5" y="193.5">«relation»</text></g></g><g transform="translate(-182,-30) scale(1,1)"><g><path fill="none" stroke="none"/><text fill="#000000" stroke="none" font-family="Roboto" font-size="13px" font-style="normal" font-weight="bold" text-decoration="none" x="498.82861328125" y="208.5">contain</text></g></g><g transform="translate(-182,-30) scale(1,1)"><path fill="#ffffff" stroke="none" d="M 202 256 L 243.05078125 256 Q 253.05078125 256 253.05078125 266 L 253.05078125 285 Q 253.05078125 295 243.05078125 295 L 202 295 Q 192 295 192 285 L 192 266 Q 192 256 202 256 Z"/></g><g transform="translate(-182,-30) scale(1,1)"><path fill="none" stroke="#000000" d="M 202 256 L 243.05078125 256 Q 253.05078125 256 253.05078125 266 L 253.05078125 285 Q 253.05078125 295 243.05078125 295 L 202 295 Q 192 295 192 285 L 192 266 Q 192 256 202 256 Z" stroke-miterlimit="10"/></g><g transform="translate(-182,-30) scale(1,1)"><g><path fill="none" stroke="none"/><text fill="#000000" stroke="none" font-family="Roboto" font-size="13px" font-style="normal" font-weight="normal" text-decoration="none" x="196.5" y="273.5">«named»</text></g></g><g transform="translate(-182,-30) scale(1,1)"><g><path fill="none" stroke="none"/><text fill="#000000" stroke="none" font-family="Roboto" font-size="13px" font-style="normal" font-weight="bold" text-decoration="none" x="208.47802734375" y="288.5">send</text></g></g><g transform="translate(-182,-30) scale(1,1)"><path fill="none" stroke="#000000" d="M 221 256 L 221 195 L 240 195" stroke-miterlimit="10"/></g><g transform="translate(-182,-30) scale(1,1)"><path fill="none" stroke="#000000" d="M 229.83732514237585 199.209517756016 L 240 195 L 229.83732514237585 190.790482243984" stroke-miterlimit="10"/></g><g transform="translate(-182,-30) scale(1,1)"><g><path fill="none" stroke="none"/><text fill="#000000" stroke="none" font-family="Roboto" font-size="13px" font-style="normal" font-weight="normal" text-decoration="none" x="223.5" y="235.5">inst</text></g></g><g transform="translate(-182,-30) scale(1,1)"><path fill="#ffffff" stroke="none" d="M 602 176 L 643.05078125 176 Q 653.05078125 176 653.05078125 186 L 653.05078125 205 Q 653.05078125 215 643.05078125 215 L 602 215 Q 592 215 592 205 L 592 186 Q 592 176 602 176 Z"/></g><g transform="translate(-182,-30) scale(1,1)"><path fill="none" stroke="#000000" d="M 602 176 L 643.05078125 176 Q 653.05078125 176 653.05078125 186 L 653.05078125 205 Q 653.05078125 215 643.05078125 215 L 602 215 Q 592 215 592 205 L 592 186 Q 592 176 602 176 Z" stroke-miterlimit="10"/></g><g transform="translate(-182,-30) scale(1,1)"><g><path fill="none" stroke="none"/><text fill="#000000" stroke="none" font-family="Roboto" font-size="13px" font-style="normal" font-weight="normal" text-decoration="none" x="596.5" y="193.5">«named»</text></g></g><g transform="translate(-182,-30) scale(1,1)"><g><path fill="none" stroke="none"/><text fill="#000000" stroke="none" font-family="Roboto" font-size="13px" font-style="normal" font-weight="bold" text-decoration="none" x="601.0068359375" y="208.5">contain</text></g></g><g transform="translate(-182,-30) scale(1,1)"><path fill="#ffffff" stroke="none" d="M 602 104 L 644.06640625 104 Q 654.06640625 104 654.06640625 114 L 654.06640625 133 Q 654.06640625 143 644.06640625 143 L 602 143 Q 592 143 592 133 L 592 114 Q 592 104 602 104 Z"/></g><g transform="translate(-182,-30) scale(1,1)"><path fill="none" stroke="#000000" d="M 602 104 L 644.06640625 104 Q 654.06640625 104 654.06640625 114 L 654.06640625 133 Q 654.06640625 143 644.06640625 143 L 602 143 Q 592 143 592 133 L 592 114 Q 592 104 602 104 Z" stroke-miterlimit="10"/></g><g transform="translate(-182,-30) scale(1,1)"><g><path fill="none" stroke="none"/><text fill="#000000" stroke="none" font-family="Roboto" font-size="13px" font-style="normal" font-weight="normal" text-decoration="none" x="597.0078125" y="121.5">«named»</text></g></g><g transform="translate(-182,-30) scale(1,1)"><g><path fill="none" stroke="none"/><text fill="#000000" stroke="none" font-family="Roboto" font-size="13px" font-style="normal" font-weight="bold" text-decoration="none" x="596.5634765625" y="136.5">message</text></g></g><g transform="translate(-182,-30) scale(1,1)"><path fill="#ffffff" stroke="none" d="M 322 104 L 363.05078125 104 Q 373.05078125 104 373.05078125 114 L 373.05078125 133 Q 373.05078125 143 363.05078125 143 L 322 143 Q 312 143 312 133 L 312 114 Q 312 104 322 104 Z"/></g><g transform="translate(-182,-30) scale(1,1)"><path fill="none" stroke="#000000" d="M 322 104 L 363.05078125 104 Q 373.05078125 104 373.05078125 114 L 373.05078125 133 Q 373.05078125 143 363.05078125 143 L 322 143 Q 312 143 312 133 L 312 114 Q 312 104 322 104 Z" stroke-miterlimit="10"/></g><g transform="translate(-182,-30) scale(1,1)"><g><path fill="none" stroke="none"/><text fill="#000000" stroke="none" font-family="Roboto" font-size="13px" font-style="normal" font-weight="normal" text-decoration="none" x="316.5" y="121.5">«named»</text></g></g><g transform="translate(-182,-30) scale(1,1)"><g><path fill="none" stroke="none"/><text fill="#000000" stroke="none" font-family="Roboto" font-size="13px" font-style="normal" font-weight="bold" text-decoration="none" x="321.866943359375" y="136.5">receive</text></g></g><g transform="translate(-182,-30) scale(1,1)"><path fill="none" stroke="#000000" d="M 349 143 L 349 160 L 400 160 L 400 143" stroke-miterlimit="10"/></g><g transform="translate(-182,-30) scale(1,1)"><path fill="none" stroke="#000000" d="M 404.209517756016 153.16267485762415 L 400 143 L 395.790482243984 153.16267485762415" stroke-miterlimit="10"/></g><g transform="translate(-182,-30) scale(1,1)"><g><path fill="none" stroke="none"/><text fill="#000000" stroke="none" font-family="Roboto" font-size="13px" font-style="normal" font-weight="normal" text-decoration="none" x="367.5" y="156.5">inst</text></g></g><g transform="translate(-182,-30) scale(1,1)"><path fill="none" stroke="#000000" d="M 271 175 L 271 144" stroke-miterlimit="10"/></g><g transform="translate(-182,-30) scale(1,1)"><path fill="none" stroke="#000000" d="M 275.209517756016 154.16267485762415 L 271 144 L 266.790482243984 154.16267485762415" stroke-miterlimit="10"/></g><g transform="translate(-182,-30) scale(1,1)"><g><path fill="none" stroke="none"/><text fill="#000000" stroke="none" font-family="Roboto" font-size="13px" font-style="normal" font-weight="normal" text-decoration="none" x="229.5" y="164.5">agent</text></g></g><g transform="translate(-182,-30) scale(1,1)"><path fill="none" stroke="#000000" d="M 306 195 L 383 195" stroke-miterlimit="10"/></g><g transform="translate(-182,-30) scale(1,1)"><path fill="none" stroke="#000000" d="M 372.83732514237585 199.209517756016 L 383 195 L 372.83732514237585 190.790482243984" stroke-miterlimit="10"/></g><g transform="translate(-182,-30) scale(1,1)"><g><path fill="none" stroke="none"/><text fill="#000000" stroke="none" font-family="Roboto" font-size="13px" font-style="normal" font-weight="normal" text-decoration="none" x="318.5" y="212.5">patient</text></g></g><g transform="translate(-182,-30) scale(1,1)"><path fill="none" stroke="#000000" d="M 282 256 L 282 215" stroke-miterlimit="10"/></g><g transform="translate(-182,-30) scale(1,1)"><path fill="none" stroke="#000000" d="M 286.209517756016 225.16267485762415 L 282 215 L 277.790482243984 225.16267485762415" stroke-miterlimit="10"/></g><g transform="translate(-182,-30) scale(1,1)"><g><path fill="none" stroke="none"/><text fill="#000000" stroke="none" font-family="Roboto" font-size="13px" font-style="normal" font-weight="normal" text-decoration="none" x="286.5" y="243.5">patient</text></g></g><g transform="translate(-182,-30) scale(1,1)"><path fill="none" stroke="#000000" d="M 488 195 L 446 195" stroke-miterlimit="10"/></g><g transform="translate(-182,-30) scale(1,1)"><path fill="none" stroke="#000000" d="M 456.16267485762415 190.790482243984 L 446 195 L 456.16267485762415 199.209517756016" stroke-miterlimit="10"/></g><g transform="translate(-182,-30) scale(1,1)"><g><path fill="none" stroke="none"/><text fill="#000000" stroke="none" font-family="Roboto" font-size="13px" font-style="normal" font-weight="normal" text-decoration="none" x="449.5" y="216.5">agent</text></g></g><g transform="translate(-182,-30) scale(1,1)"><path fill="none" stroke="#000000" d="M 525 215 L 525 248" stroke-miterlimit="10"/></g><g transform="translate(-182,-30) scale(1,1)"><path fill="none" stroke="#000000" d="M 520.790482243984 237.83732514237585 L 525 248 L 529.209517756016 237.83732514237585" stroke-miterlimit="10"/></g><g transform="translate(-182,-30) scale(1,1)"><g><path fill="none" stroke="none"/><text fill="#000000" stroke="none" font-family="Roboto" font-size="13px" font-style="normal" font-weight="normal" text-decoration="none" x="534.5" y="236.5">patient</text></g></g><g transform="translate(-182,-30) scale(1,1)"><path fill="none" stroke="#000000" d="M 416 143 L 416 176" stroke-miterlimit="10"/></g><g transform="translate(-182,-30) scale(1,1)"><path fill="none" stroke="#000000" d="M 411.790482243984 165.83732514237585 L 416 176 L 420.209517756016 165.83732514237585" stroke-miterlimit="10"/></g><g transform="translate(-182,-30) scale(1,1)"><g><path fill="none" stroke="none"/><text fill="#000000" stroke="none" font-family="Roboto" font-size="13px" font-style="normal" font-weight="normal" text-decoration="none" x="422.5" y="164.5">patient</text></g></g><g transform="translate(-182,-30) scale(1,1)"><path fill="none" stroke="#000000" d="M 449 123 L 488 123" stroke-miterlimit="10"/></g><g transform="translate(-182,-30) scale(1,1)"><path fill="none" stroke="#000000" d="M 477.83732514237585 127.20951775601598 L 488 123 L 477.83732514237585 118.79048224398402" stroke-miterlimit="10"/></g><g transform="translate(-182,-30) scale(1,1)"><g><path fill="none" stroke="none"/><text fill="#000000" stroke="none" font-family="Roboto" font-size="13px" font-style="normal" font-weight="normal" text-decoration="none" x="451.5" y="114.5">agent</text></g></g><g transform="translate(-182,-30) scale(1,1)"><path fill="none" stroke="#000000" d="M 368 56 L 272 56 L 272 104" stroke-miterlimit="10"/></g><g transform="translate(-182,-30) scale(1,1)"><path fill="none" stroke="#000000" d="M 267.790482243984 93.83732514237585 L 272 104 L 276.209517756016 93.83732514237585" stroke-miterlimit="10"/></g><g transform="translate(-182,-30) scale(1,1)"><g><path fill="none" stroke="none"/><text fill="#000000" stroke="none" font-family="Roboto" font-size="13px" font-style="normal" font-weight="normal" text-decoration="none" x="279.5" y="75.5">inst</text></g></g><g transform="translate(-182,-30) scale(1,1)"><path fill="none" stroke="#000000" d="M 429 56 L 520 56 L 520 104" stroke-miterlimit="10"/></g><g transform="translate(-182,-30) scale(1,1)"><path fill="none" stroke="#000000" d="M 515.790482243984 93.83732514237585 L 520 104 L 524.209517756016 93.83732514237585" stroke-miterlimit="10"/></g><g transform="translate(-182,-30) scale(1,1)"><g><path fill="none" stroke="none"/><text fill="#000000" stroke="none" font-family="Roboto" font-size="13px" font-style="normal" font-weight="normal" text-decoration="none" x="478.5" y="75.5">inst</text></g></g><g transform="translate(-182,-30) scale(1,1)"><path fill="none" stroke="#000000" d="M 592 195 L 553 195" stroke-miterlimit="10"/></g><g transform="translate(-182,-30) scale(1,1)"><path fill="none" stroke="#000000" d="M 563.1626748576241 190.790482243984 L 553 195 L 563.1626748576241 199.209517756016" stroke-miterlimit="10"/></g><g transform="translate(-182,-30) scale(1,1)"><g><path fill="none" stroke="none"/><text fill="#000000" stroke="none" font-family="Roboto" font-size="13px" font-style="normal" font-weight="normal" text-decoration="none" x="560.5" y="187.5">inst</text></g></g><g transform="translate(-182,-30) scale(1,1)"><path fill="none" stroke="#000000" d="M 623 143 L 623 160 L 472 160 L 472 184 L 446 184" stroke-miterlimit="10"/></g><g transform="translate(-182,-30) scale(1,1)"><path fill="none" stroke="#000000" d="M 456.16267485762415 179.790482243984 L 446 184 L 456.16267485762415 188.209517756016" stroke-miterlimit="10"/></g><g transform="translate(-182,-30) scale(1,1)"><g><path fill="none" stroke="none"/><text fill="#000000" stroke="none" font-family="Roboto" font-size="13px" font-style="normal" font-weight="normal" text-decoration="none" x="559.5" y="156.5">inst</text></g></g></g></svg>