<svg version="1.1" xmlns="http://www.w3.org/2000/svg" xmlns:xlink="http://www.w3.org/1999/xlink" width="1151.60009765625" height="547"><defs/><g><g transform="translate(-190,-54) scale(1,1)"><path fill="#ffffff" stroke="none" d="M 218 288 L 542 288 Q 552 288 552 298 L 552 510 Q 552 520 542 520 L 218 520 Q 208 520 208 510 L 208 298 Q 208 288 218 288 Z"/></g><g transform="translate(-190,-54) scale(1,1)"><path fill="none" stroke="#000000" d="M 218 288 L 542 288 Q 552 288 552 298 L 552 510 Q 552 520 542 520 L 218 520 Q 208 520 208 510 L 208 298 Q 208 288 218 288 Z" stroke-miterlimit="10"/></g><g transform="translate(-190,-54) scale(1,1)"><path fill="none" stroke="#000000" d="M 208 313 L 552 313" stroke-miterlimit="10"/></g><g transform="translate(-190,-54) scale(1,1)"><g><path fill="none" stroke="none"/><text fill="#000000" stroke="none" font-family="Roboto" font-size="13px" font-style="normal" font-weight="bold" text-decoration="none" x="313.809814453125" y="307.5">POSITIVE POSSIBILITY</text></g></g><g transform="translate(-190,-54) scale(1,1)"><path fill="#ffffff" stroke="none" d="M 746 344 L 787.05078125 344 Q 797.05078125 344 797.05078125 354 L 797.05078125 373 Q 797.05078125 383 787.05078125 383 L 746 383 Q 736 383 736 373 L 736 354 Q 736 344 746 344 Z"/></g><g transform="translate(-190,-54) scale(1,1)"><path fill="none" stroke="#000000" d="M 746 344 L 787.05078125 344 Q 797.05078125 344 797.05078125 354 L 797.05078125 373 Q 797.05078125 383 787.05078125 383 L 746 383 Q 736 383 736 373 L 736 354 Q 736 344 746 344 Z" stroke-miterlimit="10"/></g><g transform="translate(-190,-54) scale(1,1)"><g><path fill="none" stroke="none"/><text fill="#000000" stroke="none" font-family="Roboto" font-size="13px" font-style="normal" font-weight="normal" text-decoration="none" x="740.5" y="361.5">«named»</text></g></g><g transform="translate(-190,-54) scale(1,1)"><g><path fill="none" stroke="none"/><text fill="#000000" stroke="none" font-family="Roboto" font-size="13px" font-style="normal" font-weight="bold" text-decoration="none" x="753.757080078125" y="376.5">date</text></g></g><g transform="translate(-190,-54) scale(1,1)"><path fill="#ffffff" stroke="none" d="M 818 288 L 1206 288 Q 1216 288 1216 298 L 1216 534 Q 1216 544 1206 544 L 818 544 Q 808 544 808 534 L 808 298 Q 808 288 818 288 Z"/></g><g transform="translate(-190,-54) scale(1,1)"><path fill="none" stroke="#000000" d="M 818 288 L 1206 288 Q 1216 288 1216 298 L 1216 534 Q 1216 544 1206 544 L 818 544 Q 808 544 808 534 L 808 298 Q 808 288 818 288 Z" stroke-miterlimit="10"/></g><g transform="translate(-190,-54) scale(1,1)"><path fill="none" stroke="#000000" d="M 808 313 L 1216 313" stroke-miterlimit="10"/></g><g transform="translate(-190,-54) scale(1,1)"><g><path fill="none" stroke="none"/><text fill="#000000" stroke="none" font-family="Roboto" font-size="13px" font-style="normal" font-weight="bold" text-decoration="none" x="945.809814453125" y="307.5">POSITIVE POSSIBILITY</text></g></g><g transform="translate(-190,-54) scale(1,1)"><path fill="#ffffff" stroke="none" d="M 850 360 L 910 360 Q 920 360 920 370 L 920 389 Q 920 399 910 399 L 850 399 Q 840 399 840 389 L 840 370 Q 840 360 850 360 Z"/></g><g transform="translate(-190,-54) scale(1,1)"><path fill="none" stroke="#000000" d="M 850 360 L 910 360 Q 920 360 920 370 L 920 389 Q 920 399 910 399 L 850 399 Q 840 399 840 389 L 840 370 Q 840 360 850 360 Z" stroke-miterlimit="10"/></g><g transform="translate(-190,-54) scale(1,1)"><g><path fill="none" stroke="none"/><text fill="#000000" stroke="none" font-family="Roboto" font-size="13px" font-style="normal" font-weight="bold" text-decoration="none" x="847.37939453125" y="379.5">11.06.2017</text></g></g><g transform="translate(-190,-54) scale(1,1)"><path fill="#ffffff" stroke="none" d="M 850 424 L 910 424 Q 920 424 920 434 L 920 453 Q 920 463 910 463 L 850 463 Q 840 463 840 453 L 840 434 Q 840 424 850 424 Z"/></g><g transform="translate(-190,-54) scale(1,1)"><path fill="none" stroke="#000000" d="M 850 424 L 910 424 Q 920 424 920 434 L 920 453 Q 920 463 910 463 L 850 463 Q 840 463 840 453 L 840 434 Q 840 424 850 424 Z" stroke-miterlimit="10"/></g><g transform="translate(-190,-54) scale(1,1)"><g><path fill="none" stroke="none"/><text fill="#000000" stroke="none" font-family="Roboto" font-size="13px" font-style="normal" font-weight="bold" text-decoration="none" x="878.232177734375" y="443.5">I</text></g></g><g transform="translate(-190,-54) scale(1,1)"><path fill="#ffffff" stroke="none" d="M 850 488 L 910 488 Q 920 488 920 498 L 920 517 Q 920 527 910 527 L 850 527 Q 840 527 840 517 L 840 498 Q 840 488 850 488 Z"/></g><g transform="translate(-190,-54) scale(1,1)"><path fill="none" stroke="#000000" d="M 850 488 L 910 488 Q 920 488 920 498 L 920 517 Q 920 527 910 527 L 850 527 Q 840 527 840 517 L 840 498 Q 840 488 850 488 Z" stroke-miterlimit="10"/></g><g transform="translate(-190,-54) scale(1,1)"><g><path fill="none" stroke="none"/><text fill="#000000" stroke="none" font-family="Roboto" font-size="13px" font-style="normal" font-weight="normal" text-decoration="none" x="852.15283203125" y="505.5">«relation»</text></g></g><g transform="translate(-190,-54) scale(1,1)"><g><path fill="none" stroke="none"/><text fill="#000000" stroke="none" font-family="Roboto" font-size="13px" font-style="normal" font-weight="bold" text-decoration="none" x="865.83837890625" y="520.5">think</text></g></g><g transform="translate(-190,-54) scale(1,1)"><path fill="#ffffff" stroke="none" d="M 1138 360 L 1177 360 Q 1187 360 1187 370 L 1187 389 Q 1187 399 1177 399 L 1138 399 Q 1128 399 1128 389 L 1128 370 Q 1128 360 1138 360 Z"/></g><g transform="translate(-190,-54) scale(1,1)"><path fill="none" stroke="#000000" d="M 1138 360 L 1177 360 Q 1187 360 1187 370 L 1187 389 Q 1187 399 1177 399 L 1138 399 Q 1128 399 1128 389 L 1128 370 Q 1128 360 1138 360 Z" stroke-miterlimit="10"/></g><g transform="translate(-190,-54) scale(1,1)"><g><path fill="none" stroke="none"/><text fill="#000000" stroke="none" font-family="Roboto" font-size="13px" font-style="normal" font-weight="bold" text-decoration="none" x="1148.191162109375" y="379.5">red</text></g></g><g transform="translate(-190,-54) scale(1,1)"><path fill="#ffffff" stroke="none" d="M 1074 456 L 1113 456 Q 1123 456 1123 466 L 1123 485 Q 1123 495 1113 495 L 1074 495 Q 1064 495 1064 485 L 1064 466 Q 1064 456 1074 456 Z"/></g><g transform="translate(-190,-54) scale(1,1)"><path fill="none" stroke="#000000" d="M 1074 456 L 1113 456 Q 1123 456 1123 466 L 1123 485 Q 1123 495 1113 495 L 1074 495 Q 1064 495 1064 485 L 1064 466 Q 1064 456 1074 456 Z" stroke-miterlimit="10"/></g><g transform="translate(-190,-54) scale(1,1)"><g><path fill="none" stroke="none"/><text fill="#000000" stroke="none" font-family="Roboto" font-size="13px" font-style="normal" font-weight="bold" text-decoration="none" x="1082.223388671875" y="475.5">tent</text></g></g><g transform="translate(-190,-54) scale(1,1)"><path fill="#ffffff" stroke="none" d="M 978 320 L 1198 320 Q 1208 320 1208 330 L 1208 526 Q 1208 536 1198 536 L 978 536 Q 968 536 968 526 L 968 330 Q 968 320 978 320 Z"/></g><g transform="translate(-190,-54) scale(1,1)"><path fill="none" stroke="#000000" d="M 978 320 L 1198 320 Q 1208 320 1208 330 L 1208 526 Q 1208 536 1198 536 L 978 536 Q 968 536 968 526 L 968 330 Q 968 320 978 320 Z" stroke-miterlimit="10"/></g><g transform="translate(-190,-54) scale(1,1)"><path fill="none" stroke="#000000" d="M 968 345 L 1208 345" stroke-miterlimit="10"/></g><g transform="translate(-190,-54) scale(1,1)"><g><path fill="none" stroke="none"/><text fill="#000000" stroke="none" font-family="Roboto" font-size="13px" font-style="normal" font-weight="bold" text-decoration="none" x="1021.809814453125" y="339.5">POSITIVE POSSIBILITY</text></g></g><g transform="translate(-190,-54) scale(1,1)"><path fill="#ffffff" stroke="none" d="M 1034 360 L 1078.6943359375 360 Q 1088.6943359375 360 1088.6943359375 370 L 1088.6943359375 389 Q 1088.6943359375 399 1078.6943359375 399 L 1034 399 Q 1024 399 1024 389 L 1024 370 Q 1024 360 1034 360 Z"/></g><g transform="translate(-190,-54) scale(1,1)"><path fill="none" stroke="#000000" d="M 1034 360 L 1078.6943359375 360 Q 1088.6943359375 360 1088.6943359375 370 L 1088.6943359375 389 Q 1088.6943359375 399 1078.6943359375 399 L 1034 399 Q 1024 399 1024 389 L 1024 370 Q 1024 360 1034 360 Z" stroke-miterlimit="10"/></g><g transform="translate(-190,-54) scale(1,1)"><g><path fill="none" stroke="none"/><text fill="#000000" stroke="none" font-family="Roboto" font-size="13px" font-style="normal" font-weight="normal" text-decoration="none" x="1028.5" y="377.5">«relation»</text></g></g><g transform="translate(-190,-54) scale(1,1)"><g><path fill="none" stroke="none"/><text fill="#000000" stroke="none" font-family="Roboto" font-size="13px" font-style="normal" font-weight="bold" text-decoration="none" x="1046.1083984375" y="392.5">see</text></g></g><g transform="translate(-190,-54) scale(1,1)"><path fill="#ffffff" stroke="none" d="M 1034 488 L 1073 488 Q 1083 488 1083 498 L 1083 517 Q 1083 527 1073 527 L 1034 527 Q 1024 527 1024 517 L 1024 498 Q 1024 488 1034 488 Z"/></g><g transform="translate(-190,-54) scale(1,1)"><path fill="none" stroke="#000000" d="M 1034 488 L 1073 488 Q 1083 488 1083 498 L 1083 517 Q 1083 527 1073 527 L 1034 527 Q 1024 527 1024 517 L 1024 498 Q 1024 488 1034 488 Z" stroke-miterlimit="10"/></g><g transform="translate(-190,-54) scale(1,1)"><g><path fill="none" stroke="none"/><text fill="#000000" stroke="none" font-family="Roboto" font-size="13px" font-style="normal" font-weight="bold" text-decoration="none" x="1048.336181640625" y="507.5">in</text></g></g><g transform="translate(-190,-54) scale(1,1)"><path fill="#ffffff" stroke="none" d="M 1146 360 L 1185 360 Q 1195 360 1195 370 L 1195 389 Q 1195 399 1185 399 L 1146 399 Q 1136 399 1136 389 L 1136 370 Q 1136 360 1146 360 Z"/></g><g transform="translate(-190,-54) scale(1,1)"><path fill="none" stroke="#000000" d="M 1146 360 L 1185 360 Q 1195 360 1195 370 L 1195 389 Q 1195 399 1185 399 L 1146 399 Q 1136 399 1136 389 L 1136 370 Q 1136 360 1146 360 Z" stroke-miterlimit="10"/></g><g transform="translate(-190,-54) scale(1,1)"><g><path fill="none" stroke="none"/><text fill="#000000" stroke="none" font-family="Roboto" font-size="13px" font-style="normal" font-weight="bold" text-decoration="none" x="1155.13427734375" y="379.5">you</text></g></g><g transform="translate(-190,-54) scale(1,1)"><path fill="#ffffff" stroke="none" d="M 1034 424 L 1073 424 Q 1083 424 1083 434 L 1083 453 Q 1083 463 1073 463 L 1034 463 Q 1024 463 1024 453 L 1024 434 Q 1024 424 1034 424 Z"/></g><g transform="translate(-190,-54) scale(1,1)"><path fill="none" stroke="#000000" d="M 1034 424 L 1073 424 Q 1083 424 1083 434 L 1083 453 Q 1083 463 1073 463 L 1034 463 Q 1024 463 1024 453 L 1024 434 Q 1024 424 1034 424 Z" stroke-miterlimit="10"/></g><g transform="translate(-190,-54) scale(1,1)"><g><path fill="none" stroke="none"/><text fill="#000000" stroke="none" font-family="Roboto" font-size="13px" font-style="normal" font-weight="bold" text-decoration="none" x="1042.223388671875" y="443.5">tent</text></g></g><g transform="translate(-190,-54) scale(1,1)"><path fill="#ffffff" stroke="none" d="M 1146 424 L 1185 424 Q 1195 424 1195 434 L 1195 453 Q 1195 463 1185 463 L 1146 463 Q 1136 463 1136 453 L 1136 434 Q 1136 424 1146 424 Z"/></g><g transform="translate(-190,-54) scale(1,1)"><path fill="none" stroke="#000000" d="M 1146 424 L 1185 424 Q 1195 424 1195 434 L 1195 453 Q 1195 463 1185 463 L 1146 463 Q 1136 463 1136 453 L 1136 434 Q 1136 424 1146 424 Z" stroke-miterlimit="10"/></g><g transform="translate(-190,-54) scale(1,1)"><g><path fill="none" stroke="none"/><text fill="#000000" stroke="none" font-family="Roboto" font-size="13px" font-style="normal" font-weight="bold" text-decoration="none" x="1156.191162109375" y="443.5">red</text></g></g><g transform="translate(-190,-54) scale(1,1)"><path fill="none" stroke="#000000" d="M 797 379 L 840 379" stroke-miterlimit="10"/></g><g transform="translate(-190,-54) scale(1,1)"><path fill="none" stroke="#000000" d="M 829.8373251423759 383.209517756016 L 840 379 L 829.8373251423758 374.790482243984" stroke-miterlimit="10"/></g><g transform="translate(-190,-54) scale(1,1)"><g><path fill="none" stroke="none"/><text fill="#000000" stroke="none" font-family="Roboto" font-size="13px" font-style="normal" font-weight="normal" text-decoration="none" x="816.5" y="401.5">inst</text></g></g><g transform="translate(-190,-54) scale(1,1)"><path fill="none" stroke="#000000" d="M 920 379 L 1024 379" stroke-miterlimit="10"/></g><g transform="translate(-190,-54) scale(1,1)"><path fill="none" stroke="#000000" d="M 1013.8373251423759 383.209517756016 L 1024 379 L 1013.8373251423758 374.790482243984" stroke-miterlimit="10"/></g><g transform="translate(-190,-54) scale(1,1)"><g><path fill="none" stroke="none"/><text fill="#000000" stroke="none" font-family="Roboto" font-size="13px" font-style="normal" font-weight="normal" text-decoration="none" x="974.5" y="372.5">patient</text></g></g><g transform="translate(-190,-54) scale(1,1)"><path fill="none" stroke="#000000" d="M 1024 392 L 936 392 L 936 440 L 920 440" stroke-miterlimit="10"/></g><g transform="translate(-190,-54) scale(1,1)"><path fill="none" stroke="#000000" d="M 930.1626748576241 435.790482243984 L 920 440 L 930.1626748576241 444.209517756016" stroke-miterlimit="10"/></g><g transform="translate(-190,-54) scale(1,1)"><g><path fill="none" stroke="none"/><text fill="#000000" stroke="none" font-family="Roboto" font-size="13px" font-style="normal" font-weight="normal" text-decoration="none" x="982.5" y="404.5">agent</text></g></g><g transform="translate(-190,-54) scale(1,1)"><path fill="none" stroke="#000000" d="M 1089 379 L 1136 379" stroke-miterlimit="10"/></g><g transform="translate(-190,-54) scale(1,1)"><path fill="none" stroke="#000000" d="M 1125.837325142376 383.209517756016 L 1136 379 L 1125.837325142376 374.790482243984" stroke-miterlimit="10"/></g><g transform="translate(-190,-54) scale(1,1)"><g><path fill="none" stroke="none"/><text fill="#000000" stroke="none" font-family="Roboto" font-size="13px" font-style="normal" font-weight="normal" text-decoration="none" x="1091.5" y="370.5">patient</text></g></g><g transform="translate(-190,-54) scale(1,1)"><path fill="none" stroke="#000000" d="M 1054 424 L 1054 399" stroke-miterlimit="10"/></g><g transform="translate(-190,-54) scale(1,1)"><path fill="none" stroke="#000000" d="M 1058.2095177560159 409.16267485762415 L 1054 399 L 1049.7904822439841 409.16267485762415" stroke-miterlimit="10"/></g><g transform="translate(-190,-54) scale(1,1)"><g><path fill="none" stroke="none"/><text fill="#000000" stroke="none" font-family="Roboto" font-size="13px" font-style="normal" font-weight="normal" text-decoration="none" x="1062.5" y="419.5">patient</text></g></g><g transform="translate(-190,-54) scale(1,1)"><path fill="none" stroke="#000000" d="M 1136 443 L 1083 443" stroke-miterlimit="10"/></g><g transform="translate(-190,-54) scale(1,1)"><path fill="none" stroke="#000000" d="M 1093.162674857624 438.790482243984 L 1083 443 L 1093.162674857624 447.209517756016" stroke-miterlimit="10"/></g><g transform="translate(-190,-54) scale(1,1)"><g><path fill="none" stroke="none"/><text fill="#000000" stroke="none" font-family="Roboto" font-size="13px" font-style="normal" font-weight="normal" text-decoration="none" x="1099.5" y="459.5">inst</text></g></g><g transform="translate(-190,-54) scale(1,1)"><path fill="none" stroke="#000000" d="M 1053 488 L 1053 463" stroke-miterlimit="10"/></g><g transform="translate(-190,-54) scale(1,1)"><path fill="none" stroke="#000000" d="M 1057.2095177560159 473.16267485762415 L 1053 463 L 1048.7904822439841 473.16267485762415" stroke-miterlimit="10"/></g><g transform="translate(-190,-54) scale(1,1)"><g><path fill="none" stroke="none"/><text fill="#000000" stroke="none" font-family="Roboto" font-size="13px" font-style="normal" font-weight="normal" text-decoration="none" x="1061.5" y="479.5">patient</text></g></g><g transform="translate(-190,-54) scale(1,1)"><path fill="none" stroke="#000000" d="M 876 488 L 876 463" stroke-miterlimit="10"/></g><g transform="translate(-190,-54) scale(1,1)"><path fill="none" stroke="#000000" d="M 880.209517756016 473.16267485762415 L 876 463 L 871.790482243984 473.16267485762415" stroke-miterlimit="10"/></g><g transform="translate(-190,-54) scale(1,1)"><g><path fill="none" stroke="none"/><text fill="#000000" stroke="none" font-family="Roboto" font-size="13px" font-style="normal" font-weight="normal" text-decoration="none" x="884.5" y="483.5">agent</text></g></g><g transform="translate(-190,-54) scale(1,1)"><path fill="none" stroke="#000000" d="M 920 504 L 968 504" stroke-miterlimit="10"/></g><g transform="translate(-190,-54) scale(1,1)"><path fill="none" stroke="#000000" d="M 957.8373251423759 508.209517756016 L 968 504 L 957.8373251423758 499.790482243984" stroke-miterlimit="10"/></g><g transform="translate(-190,-54) scale(1,1)"><g><path fill="none" stroke="none"/><text fill="#000000" stroke="none" font-family="Roboto" font-size="13px" font-style="normal" font-weight="normal" text-decoration="none" x="920.5" y="499.5">patient</text></g></g><g transform="translate(-190,-54) scale(1,1)"><path fill="#ffffff" stroke="none" d="M 730 280 L 786.2216796875 280 Q 796.2216796875 280 796.2216796875 290 L 796.2216796875 309 Q 796.2216796875 319 786.2216796875 319 L 730 319 Q 720 319 720 309 L 720 290 Q 720 280 730 280 Z"/></g><g transform="translate(-190,-54) scale(1,1)"><path fill="none" stroke="#000000" d="M 730 280 L 786.2216796875 280 Q 796.2216796875 280 796.2216796875 290 L 796.2216796875 309 Q 796.2216796875 319 786.2216796875 319 L 730 319 Q 720 319 720 309 L 720 290 Q 720 280 730 280 Z" stroke-miterlimit="10"/></g><g transform="translate(-190,-54) scale(1,1)"><g><path fill="none" stroke="none"/><text fill="#000000" stroke="none" font-family="Roboto" font-size="13px" font-style="normal" font-weight="bold" text-decoration="none" x="725.490234375" y="299.5">11.06.2017</text></g></g><g transform="translate(-190,-54) scale(1,1)"><path fill="#ffffff" stroke="none" d="M 706 424 L 785.60009765625 424 Q 795.60009765625 424 795.60009765625 434 L 795.60009765625 453 Q 795.60009765625 463 785.60009765625 463 L 706 463 Q 696 463 696 453 L 696 434 Q 696 424 706 424 Z"/></g><g transform="translate(-190,-54) scale(1,1)"><path fill="none" stroke="#000000" d="M 706 424 L 785.60009765625 424 Q 795.60009765625 424 795.60009765625 434 L 795.60009765625 453 Q 795.60009765625 463 785.60009765625 463 L 706 463 Q 696 463 696 453 L 696 434 Q 696 424 706 424 Z" stroke-miterlimit="10"/></g><g transform="translate(-190,-54) scale(1,1)"><g><path fill="none" stroke="none"/><text fill="#000000" stroke="none" font-family="Roboto" font-size="13px" font-style="normal" font-weight="normal" text-decoration="none" x="700.5" y="441.5">«latent, named»</text></g></g><g transform="translate(-190,-54) scale(1,1)"><g><path fill="none" stroke="none"/><text fill="#000000" stroke="none" font-family="Roboto" font-size="13px" font-style="normal" font-weight="bold" text-decoration="none" x="744.0322265625" y="456.5">I</text></g></g><g transform="translate(-190,-54) scale(1,1)"><path fill="#ffffff" stroke="none" d="M 706 488 L 785.60009765625 488 Q 795.60009765625 488 795.60009765625 498 L 795.60009765625 517 Q 795.60009765625 527 785.60009765625 527 L 706 527 Q 696 527 696 517 L 696 498 Q 696 488 706 488 Z"/></g><g transform="translate(-190,-54) scale(1,1)"><path fill="none" stroke="#000000" d="M 706 488 L 785.60009765625 488 Q 795.60009765625 488 795.60009765625 498 L 795.60009765625 517 Q 795.60009765625 527 785.60009765625 527 L 706 527 Q 696 527 696 517 L 696 498 Q 696 488 706 488 Z" stroke-miterlimit="10"/></g><g transform="translate(-190,-54) scale(1,1)"><g><path fill="none" stroke="none"/><text fill="#000000" stroke="none" font-family="Roboto" font-size="13px" font-style="normal" font-weight="normal" text-decoration="none" x="700.5" y="505.5">«latent, named»</text></g></g><g transform="translate(-190,-54) scale(1,1)"><g><path fill="none" stroke="none"/><text fill="#000000" stroke="none" font-family="Roboto" font-size="13px" font-style="normal" font-weight="bold" text-decoration="none" x="731.638427734375" y="520.5">think</text></g></g><g transform="translate(-190,-54) scale(1,1)"><path fill="#ffffff" stroke="none" d="M 994 552 L 1073.60009765625 552 Q 1083.60009765625 552 1083.60009765625 562 L 1083.60009765625 581 Q 1083.60009765625 591 1073.60009765625 591 L 994 591 Q 984 591 984 581 L 984 562 Q 984 552 994 552 Z"/></g><g transform="translate(-190,-54) scale(1,1)"><path fill="none" stroke="#000000" d="M 994 552 L 1073.60009765625 552 Q 1083.60009765625 552 1083.60009765625 562 L 1083.60009765625 581 Q 1083.60009765625 591 1073.60009765625 591 L 994 591 Q 984 591 984 581 L 984 562 Q 984 552 994 552 Z" stroke-miterlimit="10"/></g><g transform="translate(-190,-54) scale(1,1)"><g><path fill="none" stroke="none"/><text fill="#000000" stroke="none" font-family="Roboto" font-size="13px" font-style="normal" font-weight="normal" text-decoration="none" x="988.5" y="569.5">«latent, named»</text></g></g><g transform="translate(-190,-54) scale(1,1)"><g><path fill="none" stroke="none"/><text fill="#000000" stroke="none" font-family="Roboto" font-size="13px" font-style="normal" font-weight="bold" text-decoration="none" x="1028.63623046875" y="584.5">in</text></g></g><g transform="translate(-190,-54) scale(1,1)"><path fill="#ffffff" stroke="none" d="M 1122 552 L 1201.60009765625 552 Q 1211.60009765625 552 1211.60009765625 562 L 1211.60009765625 581 Q 1211.60009765625 591 1201.60009765625 591 L 1122 591 Q 1112 591 1112 581 L 1112 562 Q 1112 552 1122 552 Z"/></g><g transform="translate(-190,-54) scale(1,1)"><path fill="none" stroke="#000000" d="M 1122 552 L 1201.60009765625 552 Q 1211.60009765625 552 1211.60009765625 562 L 1211.60009765625 581 Q 1211.60009765625 591 1201.60009765625 591 L 1122 591 Q 1112 591 1112 581 L 1112 562 Q 1112 552 1122 552 Z" stroke-miterlimit="10"/></g><g transform="translate(-190,-54) scale(1,1)"><g><path fill="none" stroke="none"/><text fill="#000000" stroke="none" font-family="Roboto" font-size="13px" font-style="normal" font-weight="normal" text-decoration="none" x="1116.5" y="569.5">«latent, named»</text></g></g><g transform="translate(-190,-54) scale(1,1)"><g><path fill="none" stroke="none"/><text fill="#000000" stroke="none" font-family="Roboto" font-size="13px" font-style="normal" font-weight="bold" text-decoration="none" x="1152.4912109375" y="584.5">red</text></g></g><g transform="translate(-190,-54) scale(1,1)"><path fill="#ffffff" stroke="none" d="M 1122 240 L 1201.60009765625 240 Q 1211.60009765625 240 1211.60009765625 250 L 1211.60009765625 269 Q 1211.60009765625 279 1201.60009765625 279 L 1122 279 Q 1112 279 1112 269 L 1112 250 Q 1112 240 1122 240 Z"/></g><g transform="translate(-190,-54) scale(1,1)"><path fill="none" stroke="#000000" d="M 1122 240 L 1201.60009765625 240 Q 1211.60009765625 240 1211.60009765625 250 L 1211.60009765625 269 Q 1211.60009765625 279 1201.60009765625 279 L 1122 279 Q 1112 279 1112 269 L 1112 250 Q 1112 240 1122 240 Z" stroke-miterlimit="10"/></g><g transform="translate(-190,-54) scale(1,1)"><g><path fill="none" stroke="none"/><text fill="#000000" stroke="none" font-family="Roboto" font-size="13px" font-style="normal" font-weight="normal" text-decoration="none" x="1116.5" y="257.5">«latent, named»</text></g></g><g transform="translate(-190,-54) scale(1,1)"><g><path fill="none" stroke="none"/><text fill="#000000" stroke="none" font-family="Roboto" font-size="13px" font-style="normal" font-weight="bold" text-decoration="none" x="1151.434326171875" y="272.5">you</text></g></g><g transform="translate(-190,-54) scale(1,1)"><path fill="#ffffff" stroke="none" d="M 1242 424 L 1321.60009765625 424 Q 1331.60009765625 424 1331.60009765625 434 L 1331.60009765625 453 Q 1331.60009765625 463 1321.60009765625 463 L 1242 463 Q 1232 463 1232 453 L 1232 434 Q 1232 424 1242 424 Z"/></g><g transform="translate(-190,-54) scale(1,1)"><path fill="none" stroke="#000000" d="M 1242 424 L 1321.60009765625 424 Q 1331.60009765625 424 1331.60009765625 434 L 1331.60009765625 453 Q 1331.60009765625 463 1321.60009765625 463 L 1242 463 Q 1232 463 1232 453 L 1232 434 Q 1232 424 1242 424 Z" stroke-miterlimit="10"/></g><g transform="translate(-190,-54) scale(1,1)"><g><path fill="none" stroke="none"/><text fill="#000000" stroke="none" font-family="Roboto" font-size="13px" font-style="normal" font-weight="normal" text-decoration="none" x="1236.5" y="441.5">«latent, named»</text></g></g><g transform="translate(-190,-54) scale(1,1)"><g><path fill="none" stroke="none"/><text fill="#000000" stroke="none" font-family="Roboto" font-size="13px" font-style="normal" font-weight="bold" text-decoration="none" x="1270.5234375" y="456.5">tent</text></g></g><g transform="translate(-190,-54) scale(1,1)"><path fill="#ffffff" stroke="none" d="M 874 552 L 953.60009765625 552 Q 963.60009765625 552 963.60009765625 562 L 963.60009765625 581 Q 963.60009765625 591 953.60009765625 591 L 874 591 Q 864 591 864 581 L 864 562 Q 864 552 874 552 Z"/></g><g transform="translate(-190,-54) scale(1,1)"><path fill="none" stroke="#000000" d="M 874 552 L 953.60009765625 552 Q 963.60009765625 552 963.60009765625 562 L 963.60009765625 581 Q 963.60009765625 591 953.60009765625 591 L 874 591 Q 864 591 864 581 L 864 562 Q 864 552 874 552 Z" stroke-miterlimit="10"/></g><g transform="translate(-190,-54) scale(1,1)"><g><path fill="none" stroke="none"/><text fill="#000000" stroke="none" font-family="Roboto" font-size="13px" font-style="normal" font-weight="normal" text-decoration="none" x="868.5" y="569.5">«latent, named»</text></g></g><g transform="translate(-190,-54) scale(1,1)"><g><path fill="none" stroke="none"/><text fill="#000000" stroke="none" font-family="Roboto" font-size="13px" font-style="normal" font-weight="bold" text-decoration="none" x="903.561279296875" y="584.5">see</text></g></g><g transform="translate(-190,-54) scale(1,1)"><path fill="none" stroke="#000000" d="M 796 299 L 880 299 L 880 360" stroke-miterlimit="10"/></g><g transform="translate(-190,-54) scale(1,1)"><path fill="none" stroke="#000000" d="M 875.790482243984 349.83732514237585 L 880 360 L 884.209517756016 349.83732514237585" stroke-miterlimit="10"/></g><g transform="translate(-190,-54) scale(1,1)"><g><path fill="none" stroke="none"/><text fill="#000000" stroke="none" font-family="Roboto" font-size="13px" font-style="normal" font-weight="normal" text-decoration="none" x="887.5" y="339.5">inst</text></g></g><g transform="translate(-190,-54) scale(1,1)"><path fill="none" stroke="#000000" d="M 761 344 L 761 319" stroke-miterlimit="10"/></g><g transform="translate(-190,-54) scale(1,1)"><path fill="none" stroke="#000000" d="M 765.209517756016 329.16267485762415 L 761 319 L 756.790482243984 329.16267485762415" stroke-miterlimit="10"/></g><g transform="translate(-190,-54) scale(1,1)"><g><path fill="none" stroke="none"/><text fill="#000000" stroke="none" font-family="Roboto" font-size="13px" font-style="normal" font-weight="normal" text-decoration="none" x="767.5" y="339.5">inst</text></g></g><g transform="translate(-190,-54) scale(1,1)"><path fill="none" stroke="#000000" d="M 1232 438 L 1200 438 L 1200 416 L 1128 416 L 1128 432 L 1083 432" stroke-miterlimit="10"/></g><g transform="translate(-190,-54) scale(1,1)"><path fill="none" stroke="#000000" d="M 1093.162674857624 427.790482243984 L 1083 432 L 1093.162674857624 436.209517756016" stroke-miterlimit="10"/></g><g transform="translate(-190,-54) scale(1,1)"><g><path fill="none" stroke="none"/><text fill="#000000" stroke="none" font-family="Roboto" font-size="13px" font-style="normal" font-weight="normal" text-decoration="none" x="1119.137939453125" y="411.5">inst</text></g></g><g transform="translate(-190,-54) scale(1,1)"><path fill="none" stroke="#000000" d="M 1164 552 L 1164 463" stroke-miterlimit="10"/></g><g transform="translate(-190,-54) scale(1,1)"><path fill="none" stroke="#000000" d="M 1168.2095177560159 473.16267485762415 L 1164 463 L 1159.7904822439841 473.16267485762415" stroke-miterlimit="10"/></g><g transform="translate(-190,-54) scale(1,1)"><g><path fill="none" stroke="none"/><text fill="#000000" stroke="none" font-family="Roboto" font-size="13px" font-style="normal" font-weight="normal" text-decoration="none" x="1138.5" y="512.5">inst</text></g></g><g transform="translate(-190,-54) scale(1,1)"><path fill="none" stroke="#000000" d="M 1000 552 L 1000 512 L 1024 512" stroke-miterlimit="10"/></g><g transform="translate(-190,-54) scale(1,1)"><path fill="none" stroke="#000000" d="M 1013.8373251423759 516.209517756016 L 1024 512 L 1013.8373251423758 507.790482243984" stroke-miterlimit="10"/></g><g transform="translate(-190,-54) scale(1,1)"><g><path fill="none" stroke="none"/><text fill="#000000" stroke="none" font-family="Roboto" font-size="13px" font-style="normal" font-weight="normal" text-decoration="none" x="999.5" y="503.5">inst</text></g></g><g transform="translate(-190,-54) scale(1,1)"><path fill="none" stroke="#000000" d="M 936 552 L 936 520 L 984 520 L 984 416 L 1040 416 L 1040 399" stroke-miterlimit="10"/></g><g transform="translate(-190,-54) scale(1,1)"><path fill="none" stroke="#000000" d="M 1044.2095177560159 409.16267485762415 L 1040 399 L 1035.7904822439841 409.16267485762415" stroke-miterlimit="10"/></g><g transform="translate(-190,-54) scale(1,1)"><g><path fill="none" stroke="none"/><text fill="#000000" stroke="none" font-family="Roboto" font-size="13px" font-style="normal" font-weight="normal" text-decoration="none" x="991.5" y="432.5">inst</text></g></g><g transform="translate(-190,-54) scale(1,1)"><path fill="none" stroke="#000000" d="M 1168 279 L 1168 360" stroke-miterlimit="10"/></g><g transform="translate(-190,-54) scale(1,1)"><path fill="none" stroke="#000000" d="M 1163.7904822439841 349.83732514237585 L 1168 360 L 1172.2095177560159 349.83732514237585" stroke-miterlimit="10"/></g><g transform="translate(-190,-54) scale(1,1)"><g><path fill="none" stroke="none"/><text fill="#000000" stroke="none" font-family="Roboto" font-size="13px" font-style="normal" font-weight="normal" text-decoration="none" x="1175.5" y="339.5">inst</text></g></g><g transform="translate(-190,-54) scale(1,1)"><path fill="none" stroke="#000000" d="M 796 507 L 840 507" stroke-miterlimit="10"/></g><g transform="translate(-190,-54) scale(1,1)"><path fill="none" stroke="#000000" d="M 829.8373251423759 511.209517756016 L 840 507 L 829.8373251423758 502.790482243984" stroke-miterlimit="10"/></g><g transform="translate(-190,-54) scale(1,1)"><g><path fill="none" stroke="none"/><text fill="#000000" stroke="none" font-family="Roboto" font-size="13px" font-style="normal" font-weight="normal" text-decoration="none" x="815.5" y="500.5">inst</text></g></g><g transform="translate(-190,-54) scale(1,1)"><path fill="none" stroke="#000000" d="M 796 443 L 840 443" stroke-miterlimit="10"/></g><g transform="translate(-190,-54) scale(1,1)"><path fill="none" stroke="#000000" d="M 829.8373251423759 447.209517756016 L 840 443 L 829.8373251423758 438.790482243984" stroke-miterlimit="10"/></g><g transform="translate(-190,-54) scale(1,1)"><g><path fill="none" stroke="none"/><text fill="#000000" stroke="none" font-family="Roboto" font-size="13px" font-style="normal" font-weight="normal" text-decoration="none" x="815.5" y="436.5">inst</text></g></g><g transform="translate(-190,-54) scale(1,1)"><path fill="#ffffff" stroke="none" d="M 826 80 L 867.05078125 80 Q 877.05078125 80 877.05078125 90 L 877.05078125 109 Q 877.05078125 119 867.05078125 119 L 826 119 Q 816 119 816 109 L 816 90 Q 816 80 826 80 Z"/></g><g transform="translate(-190,-54) scale(1,1)"><path fill="none" stroke="#000000" d="M 826 80 L 867.05078125 80 Q 877.05078125 80 877.05078125 90 L 877.05078125 109 Q 877.05078125 119 867.05078125 119 L 826 119 Q 816 119 816 109 L 816 90 Q 816 80 826 80 Z" stroke-miterlimit="10"/></g><g transform="translate(-190,-54) scale(1,1)"><g><path fill="none" stroke="none"/><text fill="#000000" stroke="none" font-family="Roboto" font-size="13px" font-style="normal" font-weight="normal" text-decoration="none" x="820.5" y="97.5">«named»</text></g></g><g transform="translate(-190,-54) scale(1,1)"><g><path fill="none" stroke="none"/><text fill="#000000" stroke="none" font-family="Roboto" font-size="13px" font-style="normal" font-weight="bold" text-decoration="none" x="826.590576171875" y="112.5">person</text></g></g><g transform="translate(-190,-54) scale(1,1)"><path fill="#ffffff" stroke="none" d="M 698 80 L 739.05078125 80 Q 749.05078125 80 749.05078125 90 L 749.05078125 109 Q 749.05078125 119 739.05078125 119 L 698 119 Q 688 119 688 109 L 688 90 Q 688 80 698 80 Z"/></g><g transform="translate(-190,-54) scale(1,1)"><path fill="none" stroke="#000000" d="M 698 80 L 739.05078125 80 Q 749.05078125 80 749.05078125 90 L 749.05078125 109 Q 749.05078125 119 739.05078125 119 L 698 119 Q 688 119 688 109 L 688 90 Q 688 80 698 80 Z" stroke-miterlimit="10"/></g><g transform="translate(-190,-54) scale(1,1)"><g><path fill="none" stroke="none"/><text fill="#000000" stroke="none" font-family="Roboto" font-size="13px" font-style="normal" font-weight="normal" text-decoration="none" x="692.5" y="97.5">«named»</text></g></g><g transform="translate(-190,-54) scale(1,1)"><g><path fill="none" stroke="none"/><text fill="#000000" stroke="none" font-family="Roboto" font-size="13px" font-style="normal" font-weight="bold" text-decoration="none" x="707.125" y="112.5">Bob</text></g></g><g transform="translate(-190,-54) scale(1,1)"><path fill="#ffffff" stroke="none" d="M 946 144 L 987.05078125 144 Q 997.05078125 144 997.05078125 154 L 997.05078125 173 Q 997.05078125 183 987.05078125 183 L 946 183 Q 936 183 936 173 L 936 154 Q 936 144 946 144 Z"/></g><g transform="translate(-190,-54) scale(1,1)"><path fill="none" stroke="#000000" d="M 946 144 L 987.05078125 144 Q 997.05078125 144 997.05078125 154 L 997.05078125 173 Q 997.05078125 183 987.05078125 183 L 946 183 Q 936 183 936 173 L 936 154 Q 936 144 946 144 Z" stroke-miterlimit="10"/></g><g transform="translate(-190,-54) scale(1,1)"><g><path fill="none" stroke="none"/><text fill="#000000" stroke="none" font-family="Roboto" font-size="13px" font-style="normal" font-weight="normal" text-decoration="none" x="940.5" y="161.5">«named»</text></g></g><g transform="translate(-190,-54) scale(1,1)"><g><path fill="none" stroke="none"/><text fill="#000000" stroke="none" font-family="Roboto" font-size="13px" font-style="normal" font-weight="bold" text-decoration="none" x="952.284423828125" y="176.5">Alice</text></g></g><g transform="translate(-190,-54) scale(1,1)"><path fill="#ffffff" stroke="none" d="M 698 216 L 742.6943359375 216 Q 752.6943359375 216 752.6943359375 226 L 752.6943359375 245 Q 752.6943359375 255 742.6943359375 255 L 698 255 Q 688 255 688 245 L 688 226 Q 688 216 698 216 Z"/></g><g transform="translate(-190,-54) scale(1,1)"><path fill="none" stroke="#000000" d="M 698 216 L 742.6943359375 216 Q 752.6943359375 216 752.6943359375 226 L 752.6943359375 245 Q 752.6943359375 255 742.6943359375 255 L 698 255 Q 688 255 688 245 L 688 226 Q 688 216 698 216 Z" stroke-miterlimit="10"/></g><g transform="translate(-190,-54) scale(1,1)"><g><path fill="none" stroke="none"/><text fill="#000000" stroke="none" font-family="Roboto" font-size="13px" font-style="normal" font-weight="normal" text-decoration="none" x="692.5" y="233.5">«relation»</text></g></g><g transform="translate(-190,-54) scale(1,1)"><g><path fill="none" stroke="none"/><text fill="#000000" stroke="none" font-family="Roboto" font-size="13px" font-style="normal" font-weight="bold" text-decoration="none" x="706.2998046875" y="248.5">send</text></g></g><g transform="translate(-190,-54) scale(1,1)"><path fill="#ffffff" stroke="none" d="M 842 144 L 886.6943359375 144 Q 896.6943359375 144 896.6943359375 154 L 896.6943359375 173 Q 896.6943359375 183 886.6943359375 183 L 842 183 Q 832 183 832 173 L 832 154 Q 832 144 842 144 Z"/></g><g transform="translate(-190,-54) scale(1,1)"><path fill="none" stroke="#000000" d="M 842 144 L 886.6943359375 144 Q 896.6943359375 144 896.6943359375 154 L 896.6943359375 173 Q 896.6943359375 183 886.6943359375 183 L 842 183 Q 832 183 832 173 L 832 154 Q 832 144 842 144 Z" stroke-miterlimit="10"/></g><g transform="translate(-190,-54) scale(1,1)"><g><path fill="none" stroke="none"/><text fill="#000000" stroke="none" font-family="Roboto" font-size="13px" font-style="normal" font-weight="normal" text-decoration="none" x="836.5" y="161.5">«relation»</text></g></g><g transform="translate(-190,-54) scale(1,1)"><g><path fill="none" stroke="none"/><text fill="#000000" stroke="none" font-family="Roboto" font-size="13px" font-style="normal" font-weight="bold" text-decoration="none" x="843.688720703125" y="176.5">receive</text></g></g><g transform="translate(-190,-54) scale(1,1)"><path fill="#ffffff" stroke="none" d="M 842 216 L 884.06640625 216 Q 894.06640625 216 894.06640625 226 L 894.06640625 245 Q 894.06640625 255 884.06640625 255 L 842 255 Q 832 255 832 245 L 832 226 Q 832 216 842 216 Z"/></g><g transform="translate(-190,-54) scale(1,1)"><path fill="none" stroke="#000000" d="M 842 216 L 884.06640625 216 Q 894.06640625 216 894.06640625 226 L 894.06640625 245 Q 894.06640625 255 884.06640625 255 L 842 255 Q 832 255 832 245 L 832 226 Q 832 216 842 216 Z" stroke-miterlimit="10"/></g><g transform="translate(-190,-54) scale(1,1)"><g><path fill="none" stroke="none"/><text fill="#000000" stroke="none" font-family="Roboto" font-size="13px" font-style="normal" font-weight="bold" text-decoration="none" x="836.5634765625" y="235.5">message</text></g></g><g transform="translate(-190,-54) scale(1,1)"><path fill="#ffffff" stroke="none" d="M 946 216 L 990.6943359375 216 Q 1000.6943359375 216 1000.6943359375 226 L 1000.6943359375 245 Q 1000.6943359375 255 990.6943359375 255 L 946 255 Q 936 255 936 245 L 936 226 Q 936 216 946 216 Z"/></g><g transform="translate(-190,-54) scale(1,1)"><path fill="none" stroke="#000000" d="M 946 216 L 990.6943359375 216 Q 1000.6943359375 216 1000.6943359375 226 L 1000.6943359375 245 Q 1000.6943359375 255 990.6943359375 255 L 946 255 Q 936 255 936 245 L 936 226 Q 936 216 946 216 Z" stroke-miterlimit="10"/></g><g transform="translate(-190,-54) scale(1,1)"><g><path fill="none" stroke="none"/><text fill="#000000" stroke="none" font-family="Roboto" font-size="13px" font-style="normal" font-weight="normal" text-decoration="none" x="940.5" y="233.5">«relation»</text></g></g><g transform="translate(-190,-54) scale(1,1)"><g><path fill="none" stroke="none"/><text fill="#000000" stroke="none" font-family="Roboto" font-size="13px" font-style="normal" font-weight="bold" text-decoration="none" x="946.82861328125" y="248.5">contain</text></g></g><g transform="translate(-190,-54) scale(1,1)"><path fill="#ffffff" stroke="none" d="M 586 216 L 627.05078125 216 Q 637.05078125 216 637.05078125 226 L 637.05078125 245 Q 637.05078125 255 627.05078125 255 L 586 255 Q 576 255 576 245 L 576 226 Q 576 216 586 216 Z"/></g><g transform="translate(-190,-54) scale(1,1)"><path fill="none" stroke="#000000" d="M 586 216 L 627.05078125 216 Q 637.05078125 216 637.05078125 226 L 637.05078125 245 Q 637.05078125 255 627.05078125 255 L 586 255 Q 576 255 576 245 L 576 226 Q 576 216 586 216 Z" stroke-miterlimit="10"/></g><g transform="translate(-190,-54) scale(1,1)"><g><path fill="none" stroke="none"/><text fill="#000000" stroke="none" font-family="Roboto" font-size="13px" font-style="normal" font-weight="normal" text-decoration="none" x="580.5" y="233.5">«named»</text></g></g><g transform="translate(-190,-54) scale(1,1)"><g><path fill="none" stroke="none"/><text fill="#000000" stroke="none" font-family="Roboto" font-size="13px" font-style="normal" font-weight="bold" text-decoration="none" x="592.47802734375" y="248.5">send</text></g></g><g transform="translate(-190,-54) scale(1,1)"><path fill="none" stroke="#000000" d="M 637 235 L 688 235" stroke-miterlimit="10"/></g><g transform="translate(-190,-54) scale(1,1)"><path fill="none" stroke="#000000" d="M 677.8373251423759 239.209517756016 L 688 235 L 677.8373251423758 230.790482243984" stroke-miterlimit="10"/></g><g transform="translate(-190,-54) scale(1,1)"><g><path fill="none" stroke="none"/><text fill="#000000" stroke="none" font-family="Roboto" font-size="13px" font-style="normal" font-weight="normal" text-decoration="none" x="647.5" y="252.5">inst</text></g></g><g transform="translate(-190,-54) scale(1,1)"><path fill="#ffffff" stroke="none" d="M 1050 216 L 1091.05078125 216 Q 1101.05078125 216 1101.05078125 226 L 1101.05078125 245 Q 1101.05078125 255 1091.05078125 255 L 1050 255 Q 1040 255 1040 245 L 1040 226 Q 1040 216 1050 216 Z"/></g><g transform="translate(-190,-54) scale(1,1)"><path fill="none" stroke="#000000" d="M 1050 216 L 1091.05078125 216 Q 1101.05078125 216 1101.05078125 226 L 1101.05078125 245 Q 1101.05078125 255 1091.05078125 255 L 1050 255 Q 1040 255 1040 245 L 1040 226 Q 1040 216 1050 216 Z" stroke-miterlimit="10"/></g><g transform="translate(-190,-54) scale(1,1)"><g><path fill="none" stroke="none"/><text fill="#000000" stroke="none" font-family="Roboto" font-size="13px" font-style="normal" font-weight="normal" text-decoration="none" x="1044.5" y="233.5">«named»</text></g></g><g transform="translate(-190,-54) scale(1,1)"><g><path fill="none" stroke="none"/><text fill="#000000" stroke="none" font-family="Roboto" font-size="13px" font-style="normal" font-weight="bold" text-decoration="none" x="1049.0068359375" y="248.5">contain</text></g></g><g transform="translate(-190,-54) scale(1,1)"><path fill="#ffffff" stroke="none" d="M 1050 144 L 1092.06640625 144 Q 1102.06640625 144 1102.06640625 154 L 1102.06640625 173 Q 1102.06640625 183 1092.06640625 183 L 1050 183 Q 1040 183 1040 173 L 1040 154 Q 1040 144 1050 144 Z"/></g><g transform="translate(-190,-54) scale(1,1)"><path fill="none" stroke="#000000" d="M 1050 144 L 1092.06640625 144 Q 1102.06640625 144 1102.06640625 154 L 1102.06640625 173 Q 1102.06640625 183 1092.06640625 183 L 1050 183 Q 1040 183 1040 173 L 1040 154 Q 1040 144 1050 144 Z" stroke-miterlimit="10"/></g><g transform="translate(-190,-54) scale(1,1)"><g><path fill="none" stroke="none"/><text fill="#000000" stroke="none" font-family="Roboto" font-size="13px" font-style="normal" font-weight="normal" text-decoration="none" x="1045.0078125" y="161.5">«named»</text></g></g><g transform="translate(-190,-54) scale(1,1)"><g><path fill="none" stroke="none"/><text fill="#000000" stroke="none" font-family="Roboto" font-size="13px" font-style="normal" font-weight="bold" text-decoration="none" x="1044.5634765625" y="176.5">message</text></g></g><g transform="translate(-190,-54) scale(1,1)"><path fill="#ffffff" stroke="none" d="M 586 152 L 627.05078125 152 Q 637.05078125 152 637.05078125 162 L 637.05078125 181 Q 637.05078125 191 627.05078125 191 L 586 191 Q 576 191 576 181 L 576 162 Q 576 152 586 152 Z"/></g><g transform="translate(-190,-54) scale(1,1)"><path fill="none" stroke="#000000" d="M 586 152 L 627.05078125 152 Q 637.05078125 152 637.05078125 162 L 637.05078125 181 Q 637.05078125 191 627.05078125 191 L 586 191 Q 576 191 576 181 L 576 162 Q 576 152 586 152 Z" stroke-miterlimit="10"/></g><g transform="translate(-190,-54) scale(1,1)"><g><path fill="none" stroke="none"/><text fill="#000000" stroke="none" font-family="Roboto" font-size="13px" font-style="normal" font-weight="normal" text-decoration="none" x="580.5" y="169.5">«named»</text></g></g><g transform="translate(-190,-54) scale(1,1)"><g><path fill="none" stroke="none"/><text fill="#000000" stroke="none" font-family="Roboto" font-size="13px" font-style="normal" font-weight="bold" text-decoration="none" x="585.866943359375" y="184.5">receive</text></g></g><g transform="translate(-190,-54) scale(1,1)"><path fill="none" stroke="#000000" d="M 637 168 L 832 168" stroke-miterlimit="10"/></g><g transform="translate(-190,-54) scale(1,1)"><path fill="none" stroke="#000000" d="M 821.8373251423759 172.209517756016 L 832 168 L 821.8373251423758 163.790482243984" stroke-miterlimit="10"/></g><g transform="translate(-190,-54) scale(1,1)"><g><path fill="none" stroke="none"/><text fill="#000000" stroke="none" font-family="Roboto" font-size="13px" font-style="normal" font-weight="normal" text-decoration="none" x="767.5" y="187.5">inst</text></g></g><g transform="translate(-190,-54) scale(1,1)"><path fill="none" stroke="#000000" d="M 718 216 L 718 119" stroke-miterlimit="10"/></g><g transform="translate(-190,-54) scale(1,1)"><path fill="none" stroke="#000000" d="M 722.209517756016 129.16267485762415 L 718 119 L 713.790482243984 129.16267485762415" stroke-miterlimit="10"/></g><g transform="translate(-190,-54) scale(1,1)"><g><path fill="none" stroke="none"/><text fill="#000000" stroke="none" font-family="Roboto" font-size="13px" font-style="normal" font-weight="normal" text-decoration="none" x="678.5" y="147.5">agent</text></g></g><g transform="translate(-190,-54) scale(1,1)"><path fill="none" stroke="#000000" d="M 754 235 L 831 235" stroke-miterlimit="10"/></g><g transform="translate(-190,-54) scale(1,1)"><path fill="none" stroke="#000000" d="M 820.8373251423759 239.209517756016 L 831 235 L 820.8373251423758 230.790482243984" stroke-miterlimit="10"/></g><g transform="translate(-190,-54) scale(1,1)"><g><path fill="none" stroke="none"/><text fill="#000000" stroke="none" font-family="Roboto" font-size="13px" font-style="normal" font-weight="normal" text-decoration="none" x="766.5" y="252.5">patient</text></g></g><g transform="translate(-190,-54) scale(1,1)"><path fill="none" stroke="#000000" d="M 730 280 L 730 255" stroke-miterlimit="10"/></g><g transform="translate(-190,-54) scale(1,1)"><path fill="none" stroke="#000000" d="M 734.209517756016 265.16267485762415 L 730 255 L 725.790482243984 265.16267485762415" stroke-miterlimit="10"/></g><g transform="translate(-190,-54) scale(1,1)"><g><path fill="none" stroke="none"/><text fill="#000000" stroke="none" font-family="Roboto" font-size="13px" font-style="normal" font-weight="normal" text-decoration="none" x="734.5" y="275.5">patient</text></g></g><g transform="translate(-190,-54) scale(1,1)"><path fill="none" stroke="#000000" d="M 936 235 L 894 235" stroke-miterlimit="10"/></g><g transform="translate(-190,-54) scale(1,1)"><path fill="none" stroke="#000000" d="M 904.1626748576241 230.790482243984 L 894 235 L 904.1626748576241 239.209517756016" stroke-miterlimit="10"/></g><g transform="translate(-190,-54) scale(1,1)"><g><path fill="none" stroke="none"/><text fill="#000000" stroke="none" font-family="Roboto" font-size="13px" font-style="normal" font-weight="normal" text-decoration="none" x="897.5" y="256.5">agent</text></g></g><g transform="translate(-190,-54) scale(1,1)"><path fill="none" stroke="#000000" d="M 973 255 L 973 288" stroke-miterlimit="10"/></g><g transform="translate(-190,-54) scale(1,1)"><path fill="none" stroke="#000000" d="M 968.790482243984 277.83732514237585 L 973 288 L 977.209517756016 277.83732514237585" stroke-miterlimit="10"/></g><g transform="translate(-190,-54) scale(1,1)"><g><path fill="none" stroke="none"/><text fill="#000000" stroke="none" font-family="Roboto" font-size="13px" font-style="normal" font-weight="normal" text-decoration="none" x="982.5" y="276.5">patient</text></g></g><g transform="translate(-190,-54) scale(1,1)"><path fill="none" stroke="#000000" d="M 864 183 L 864 216" stroke-miterlimit="10"/></g><g transform="translate(-190,-54) scale(1,1)"><path fill="none" stroke="#000000" d="M 859.790482243984 205.83732514237585 L 864 216 L 868.209517756016 205.83732514237585" stroke-miterlimit="10"/></g><g transform="translate(-190,-54) scale(1,1)"><g><path fill="none" stroke="none"/><text fill="#000000" stroke="none" font-family="Roboto" font-size="13px" font-style="normal" font-weight="normal" text-decoration="none" x="870.5" y="204.5">patient</text></g></g><g transform="translate(-190,-54) scale(1,1)"><path fill="none" stroke="#000000" d="M 897 163 L 936 163" stroke-miterlimit="10"/></g><g transform="translate(-190,-54) scale(1,1)"><path fill="none" stroke="#000000" d="M 925.8373251423759 167.209517756016 L 936 163 L 925.8373251423758 158.790482243984" stroke-miterlimit="10"/></g><g transform="translate(-190,-54) scale(1,1)"><g><path fill="none" stroke="none"/><text fill="#000000" stroke="none" font-family="Roboto" font-size="13px" font-style="normal" font-weight="normal" text-decoration="none" x="899.5" y="154.5">agent</text></g></g><g transform="translate(-190,-54) scale(1,1)"><path fill="none" stroke="#000000" d="M 816 104 L 749 104" stroke-miterlimit="10"/></g><g transform="translate(-190,-54) scale(1,1)"><path fill="none" stroke="#000000" d="M 759.1626748576241 99.79048224398402 L 749 104 L 759.1626748576241 108.20951775601598" stroke-miterlimit="10"/></g><g transform="translate(-190,-54) scale(1,1)"><g><path fill="none" stroke="none"/><text fill="#000000" stroke="none" font-family="Roboto" font-size="13px" font-style="normal" font-weight="normal" text-decoration="none" x="757.5" y="128.5">inst</text></g></g><g transform="translate(-190,-54) scale(1,1)"><path fill="none" stroke="#000000" d="M 877 96 L 968 96 L 968 144" stroke-miterlimit="10"/></g><g transform="translate(-190,-54) scale(1,1)"><path fill="none" stroke="#000000" d="M 963.790482243984 133.83732514237585 L 968 144 L 972.209517756016 133.83732514237585" stroke-miterlimit="10"/></g><g transform="translate(-190,-54) scale(1,1)"><g><path fill="none" stroke="none"/><text fill="#000000" stroke="none" font-family="Roboto" font-size="13px" font-style="normal" font-weight="normal" text-decoration="none" x="926.5" y="115.5">inst</text></g></g><g transform="translate(-190,-54) scale(1,1)"><path fill="none" stroke="#000000" d="M 1040 235 L 1001 235" stroke-miterlimit="10"/></g><g transform="translate(-190,-54) scale(1,1)"><path fill="none" stroke="#000000" d="M 1011.1626748576241 230.790482243984 L 1001 235 L 1011.1626748576241 239.209517756016" stroke-miterlimit="10"/></g><g transform="translate(-190,-54) scale(1,1)"><g><path fill="none" stroke="none"/><text fill="#000000" stroke="none" font-family="Roboto" font-size="13px" font-style="normal" font-weight="normal" text-decoration="none" x="1008.5" y="227.5">inst</text></g></g><g transform="translate(-190,-54) scale(1,1)"><path fill="none" stroke="#000000" d="M 1071 183 L 1071 200 L 920 200 L 920 224 L 894 224" stroke-miterlimit="10"/></g><g transform="translate(-190,-54) scale(1,1)"><path fill="none" stroke="#000000" d="M 904.1626748576241 219.790482243984 L 894 224 L 904.1626748576241 228.209517756016" stroke-miterlimit="10"/></g><g transform="translate(-190,-54) scale(1,1)"><g><path fill="none" stroke="none"/><text fill="#000000" stroke="none" font-family="Roboto" font-size="13px" font-style="normal" font-weight="normal" text-decoration="none" x="1007.5" y="196.5">inst</text></g></g><g transform="translate(-190,-54) scale(1,1)"><path fill="#ffffff" stroke="none" d="M 226 416 L 534 416 Q 544 416 544 426 L 544 502 Q 544 512 534 512 L 226 512 Q 216 512 216 502 L 216 426 Q 216 416 226 416 Z"/></g><g transform="translate(-190,-54) scale(1,1)"><path fill="none" stroke="#000000" d="M 226 416 L 534 416 Q 544 416 544 426 L 544 502 Q 544 512 534 512 L 226 512 Q 216 512 216 502 L 216 426 Q 216 416 226 416 Z" stroke-miterlimit="10"/></g><g transform="translate(-190,-54) scale(1,1)"><path fill="none" stroke="#000000" d="M 216 441 L 544 441" stroke-miterlimit="10"/></g><g transform="translate(-190,-54) scale(1,1)"><g><path fill="none" stroke="none"/><text fill="#000000" stroke="none" font-family="Roboto" font-size="13px" font-style="normal" font-weight="bold" text-decoration="none" x="313.809814453125" y="435.5">POSITIVE POSSIBILITY</text></g></g><g transform="translate(-190,-54) scale(1,1)"><path fill="#ffffff" stroke="none" d="M 362 448 L 406.6943359375 448 Q 416.6943359375 448 416.6943359375 458 L 416.6943359375 477 Q 416.6943359375 487 406.6943359375 487 L 362 487 Q 352 487 352 477 L 352 458 Q 352 448 362 448 Z"/></g><g transform="translate(-190,-54) scale(1,1)"><path fill="none" stroke="#000000" d="M 362 448 L 406.6943359375 448 Q 416.6943359375 448 416.6943359375 458 L 416.6943359375 477 Q 416.6943359375 487 406.6943359375 487 L 362 487 Q 352 487 352 477 L 352 458 Q 352 448 362 448 Z" stroke-miterlimit="10"/></g><g transform="translate(-190,-54) scale(1,1)"><g><path fill="none" stroke="none"/><text fill="#000000" stroke="none" font-family="Roboto" font-size="13px" font-style="normal" font-weight="normal" text-decoration="none" x="356.5" y="465.5">«relation»</text></g></g><g transform="translate(-190,-54) scale(1,1)"><g><path fill="none" stroke="none"/><text fill="#000000" stroke="none" font-family="Roboto" font-size="13px" font-style="normal" font-weight="bold" text-decoration="none" x="374.1083984375" y="480.5">see</text></g></g><g transform="translate(-190,-54) scale(1,1)"><path fill="#ffffff" stroke="none" d="M 242 352 L 281 352 Q 291 352 291 362 L 291 381 Q 291 391 281 391 L 242 391 Q 232 391 232 381 L 232 362 Q 232 352 242 352 Z"/></g><g transform="translate(-190,-54) scale(1,1)"><path fill="none" stroke="#000000" d="M 242 352 L 281 352 Q 291 352 291 362 L 291 381 Q 291 391 281 391 L 242 391 Q 232 391 232 381 L 232 362 Q 232 352 242 352 Z" stroke-miterlimit="10"/></g><g transform="translate(-190,-54) scale(1,1)"><g><path fill="none" stroke="none"/><text fill="#000000" stroke="none" font-family="Roboto" font-size="13px" font-style="normal" font-weight="bold" text-decoration="none" x="259.732177734375" y="371.5">I</text></g></g><g transform="translate(-190,-54) scale(1,1)"><path fill="#ffffff" stroke="none" d="M 338 320 L 486 320 Q 496 320 496 330 L 496 390 Q 496 400 486 400 L 338 400 Q 328 400 328 390 L 328 330 Q 328 320 338 320 Z"/></g><g transform="translate(-190,-54) scale(1,1)"><path fill="none" stroke="#000000" d="M 338 320 L 486 320 Q 496 320 496 330 L 496 390 Q 496 400 486 400 L 338 400 Q 328 400 328 390 L 328 330 Q 328 320 338 320 Z" stroke-miterlimit="10"/></g><g transform="translate(-190,-54) scale(1,1)"><path fill="none" stroke="#000000" d="M 328 345 L 496 345" stroke-miterlimit="10"/></g><g transform="translate(-190,-54) scale(1,1)"><g><path fill="none" stroke="none"/><text fill="#000000" stroke="none" font-family="Roboto" font-size="13px" font-style="normal" font-weight="bold" text-decoration="none" x="355.616943359375" y="339.5">NEGATIVE ACTUAL</text></g></g><g transform="translate(-190,-54) scale(1,1)"><path fill="#ffffff" stroke="none" d="M 386 352 L 435.3916015625 352 Q 445.3916015625 352 445.3916015625 362 L 445.3916015625 381 Q 445.3916015625 391 435.3916015625 391 L 386 391 Q 376 391 376 381 L 376 362 Q 376 352 386 352 Z"/></g><g transform="translate(-190,-54) scale(1,1)"><path fill="none" stroke="#000000" d="M 386 352 L 435.3916015625 352 Q 445.3916015625 352 445.3916015625 362 L 445.3916015625 381 Q 445.3916015625 391 435.3916015625 391 L 386 391 Q 376 391 376 381 L 376 362 Q 376 352 386 352 Z" stroke-miterlimit="10"/></g><g transform="translate(-190,-54) scale(1,1)"><g><path fill="none" stroke="none"/><text fill="#000000" stroke="none" font-family="Roboto" font-size="13px" font-style="normal" font-weight="normal" text-decoration="none" x="382.8486328125" y="369.5">«relation»</text></g></g><g transform="translate(-190,-54) scale(1,1)"><g><path fill="none" stroke="none"/><text fill="#000000" stroke="none" font-family="Roboto" font-size="13px" font-style="normal" font-weight="bold" text-decoration="none" x="380.92529296875" y="384.5">remember</text></g></g><g transform="translate(-190,-54) scale(1,1)"><path fill="#ffffff" stroke="none" d="M 482 448 L 521 448 Q 531 448 531 458 L 531 477 Q 531 487 521 487 L 482 487 Q 472 487 472 477 L 472 458 Q 472 448 482 448 Z"/></g><g transform="translate(-190,-54) scale(1,1)"><path fill="none" stroke="#000000" d="M 482 448 L 521 448 Q 531 448 531 458 L 531 477 Q 531 487 521 487 L 482 487 Q 472 487 472 477 L 472 458 Q 472 448 482 448 Z" stroke-miterlimit="10"/></g><g transform="translate(-190,-54) scale(1,1)"><g><path fill="none" stroke="none"/><text fill="#000000" stroke="none" font-family="Roboto" font-size="13px" font-style="normal" font-weight="bold" text-decoration="none" x="491.13427734375" y="467.5">you</text></g></g><g transform="translate(-190,-54) scale(1,1)"><path fill="#ffffff" stroke="none" d="M 234 448 L 290.2216796875 448 Q 300.2216796875 448 300.2216796875 458 L 300.2216796875 477 Q 300.2216796875 487 290.2216796875 487 L 234 487 Q 224 487 224 477 L 224 458 Q 224 448 234 448 Z"/></g><g transform="translate(-190,-54) scale(1,1)"><path fill="none" stroke="#000000" d="M 234 448 L 290.2216796875 448 Q 300.2216796875 448 300.2216796875 458 L 300.2216796875 477 Q 300.2216796875 487 290.2216796875 487 L 234 487 Q 224 487 224 477 L 224 458 Q 224 448 234 448 Z" stroke-miterlimit="10"/></g><g transform="translate(-190,-54) scale(1,1)"><g><path fill="none" stroke="none"/><text fill="#000000" stroke="none" font-family="Roboto" font-size="13px" font-style="normal" font-weight="bold" text-decoration="none" x="229.490234375" y="467.5">11.06.2017</text></g></g><g transform="translate(-190,-54) scale(1,1)"><path fill="none" stroke="#000000" d="M 376 371 L 291 371" stroke-miterlimit="10"/></g><g transform="translate(-190,-54) scale(1,1)"><path fill="none" stroke="#000000" d="M 301.16267485762415 366.790482243984 L 291 371 L 301.16267485762415 375.209517756016" stroke-miterlimit="10"/></g><g transform="translate(-190,-54) scale(1,1)"><g><path fill="none" stroke="none"/><text fill="#000000" stroke="none" font-family="Roboto" font-size="13px" font-style="normal" font-weight="normal" text-decoration="none" x="334.5" y="364.5">agent</text></g></g><g transform="translate(-190,-54) scale(1,1)"><path fill="none" stroke="#000000" d="M 445 368 L 488 368 L 488 416" stroke-miterlimit="10"/></g><g transform="translate(-190,-54) scale(1,1)"><path fill="none" stroke="#000000" d="M 483.790482243984 405.83732514237585 L 488 416 L 492.209517756016 405.83732514237585" stroke-miterlimit="10"/></g><g transform="translate(-190,-54) scale(1,1)"><g><path fill="none" stroke="none"/><text fill="#000000" stroke="none" font-family="Roboto" font-size="13px" font-style="normal" font-weight="normal" text-decoration="none" x="446.5" y="362.5">patient</text></g></g><g transform="translate(-190,-54) scale(1,1)"><path fill="none" stroke="#000000" d="M 417 467 L 472 467" stroke-miterlimit="10"/></g><g transform="translate(-190,-54) scale(1,1)"><path fill="none" stroke="#000000" d="M 461.83732514237585 471.209517756016 L 472 467 L 461.83732514237585 462.790482243984" stroke-miterlimit="10"/></g><g transform="translate(-190,-54) scale(1,1)"><g><path fill="none" stroke="none"/><text fill="#000000" stroke="none" font-family="Roboto" font-size="13px" font-style="normal" font-weight="normal" text-decoration="none" x="422.5" y="484.5">patient</text></g></g><g transform="translate(-190,-54) scale(1,1)"><path fill="none" stroke="#000000" d="M 300 472 L 352 472" stroke-miterlimit="10"/></g><g transform="translate(-190,-54) scale(1,1)"><path fill="none" stroke="#000000" d="M 341.83732514237585 476.209517756016 L 352 472 L 341.83732514237585 467.790482243984" stroke-miterlimit="10"/></g><g transform="translate(-190,-54) scale(1,1)"><g><path fill="none" stroke="none"/><text fill="#000000" stroke="none" font-family="Roboto" font-size="13px" font-style="normal" font-weight="normal" text-decoration="none" x="302.5" y="489.5">patient</text></g></g><g transform="translate(-190,-54) scale(1,1)"><path fill="none" stroke="#000000" d="M 352 464 L 304 464 L 304 408 L 264 408 L 264 391" stroke-miterlimit="10"/></g><g transform="translate(-190,-54) scale(1,1)"><path fill="none" stroke="#000000" d="M 268.209517756016 401.16267485762415 L 264 391 L 259.790482243984 401.16267485762415" stroke-miterlimit="10"/></g><g transform="translate(-190,-54) scale(1,1)"><g><path fill="none" stroke="none"/><text fill="#000000" stroke="none" font-family="Roboto" font-size="13px" font-style="normal" font-weight="normal" text-decoration="none" x="310.5" y="459.5">agent</text></g></g><g transform="translate(-190,-54) scale(1,1)"><path fill="#ffffff" stroke="none" d="M 466 216 L 510.6943359375 216 Q 520.6943359375 216 520.6943359375 226 L 520.6943359375 245 Q 520.6943359375 255 510.6943359375 255 L 466 255 Q 456 255 456 245 L 456 226 Q 456 216 466 216 Z"/></g><g transform="translate(-190,-54) scale(1,1)"><path fill="none" stroke="#000000" d="M 466 216 L 510.6943359375 216 Q 520.6943359375 216 520.6943359375 226 L 520.6943359375 245 Q 520.6943359375 255 510.6943359375 255 L 466 255 Q 456 255 456 245 L 456 226 Q 456 216 466 216 Z" stroke-miterlimit="10"/></g><g transform="translate(-190,-54) scale(1,1)"><g><path fill="none" stroke="none"/><text fill="#000000" stroke="none" font-family="Roboto" font-size="13px" font-style="normal" font-weight="normal" text-decoration="none" x="460.5" y="233.5">«relation»</text></g></g><g transform="translate(-190,-54) scale(1,1)"><g><path fill="none" stroke="none"/><text fill="#000000" stroke="none" font-family="Roboto" font-size="13px" font-style="normal" font-weight="bold" text-decoration="none" x="474.2998046875" y="248.5">send</text></g></g><g transform="translate(-190,-54) scale(1,1)"><path fill="#ffffff" stroke="none" d="M 466 152 L 510.6943359375 152 Q 520.6943359375 152 520.6943359375 162 L 520.6943359375 181 Q 520.6943359375 191 510.6943359375 191 L 466 191 Q 456 191 456 181 L 456 162 Q 456 152 466 152 Z"/></g><g transform="translate(-190,-54) scale(1,1)"><path fill="none" stroke="#000000" d="M 466 152 L 510.6943359375 152 Q 520.6943359375 152 520.6943359375 162 L 520.6943359375 181 Q 520.6943359375 191 510.6943359375 191 L 466 191 Q 456 191 456 181 L 456 162 Q 456 152 466 152 Z" stroke-miterlimit="10"/></g><g transform="translate(-190,-54) scale(1,1)"><g><path fill="none" stroke="none"/><text fill="#000000" stroke="none" font-family="Roboto" font-size="13px" font-style="normal" font-weight="normal" text-decoration="none" x="460.5" y="169.5">«relation»</text></g></g><g transform="translate(-190,-54) scale(1,1)"><g><path fill="none" stroke="none"/><text fill="#000000" stroke="none" font-family="Roboto" font-size="13px" font-style="normal" font-weight="bold" text-decoration="none" x="467.688720703125" y="184.5">receive</text></g></g><g transform="translate(-190,-54) scale(1,1)"><path fill="#ffffff" stroke="none" d="M 362 216 L 404.06640625 216 Q 414.06640625 216 414.06640625 226 L 414.06640625 245 Q 414.06640625 255 404.06640625 255 L 362 255 Q 352 255 352 245 L 352 226 Q 352 216 362 216 Z"/></g><g transform="translate(-190,-54) scale(1,1)"><path fill="none" stroke="#000000" d="M 362 216 L 404.06640625 216 Q 414.06640625 216 414.06640625 226 L 414.06640625 245 Q 414.06640625 255 404.06640625 255 L 362 255 Q 352 255 352 245 L 352 226 Q 352 216 362 216 Z" stroke-miterlimit="10"/></g><g transform="translate(-190,-54) scale(1,1)"><g><path fill="none" stroke="none"/><text fill="#000000" stroke="none" font-family="Roboto" font-size="13px" font-style="normal" font-weight="bold" text-decoration="none" x="356.5634765625" y="235.5">message</text></g></g><g transform="translate(-190,-54) scale(1,1)"><path fill="#ffffff" stroke="none" d="M 250 216 L 294.6943359375 216 Q 304.6943359375 216 304.6943359375 226 L 304.6943359375 245 Q 304.6943359375 255 294.6943359375 255 L 250 255 Q 240 255 240 245 L 240 226 Q 240 216 250 216 Z"/></g><g transform="translate(-190,-54) scale(1,1)"><path fill="none" stroke="#000000" d="M 250 216 L 294.6943359375 216 Q 304.6943359375 216 304.6943359375 226 L 304.6943359375 245 Q 304.6943359375 255 294.6943359375 255 L 250 255 Q 240 255 240 245 L 240 226 Q 240 216 250 216 Z" stroke-miterlimit="10"/></g><g transform="translate(-190,-54) scale(1,1)"><g><path fill="none" stroke="none"/><text fill="#000000" stroke="none" font-family="Roboto" font-size="13px" font-style="normal" font-weight="normal" text-decoration="none" x="244.5" y="233.5">«relation»</text></g></g><g transform="translate(-190,-54) scale(1,1)"><g><path fill="none" stroke="none"/><text fill="#000000" stroke="none" font-family="Roboto" font-size="13px" font-style="normal" font-weight="bold" text-decoration="none" x="250.82861328125" y="248.5">contain</text></g></g><g transform="translate(-190,-54) scale(1,1)"><path fill="#ffffff" stroke="none" d="M 586 296 L 642.2216796875 296 Q 652.2216796875 296 652.2216796875 306 L 652.2216796875 325 Q 652.2216796875 335 642.2216796875 335 L 586 335 Q 576 335 576 325 L 576 306 Q 576 296 586 296 Z"/></g><g transform="translate(-190,-54) scale(1,1)"><path fill="none" stroke="#000000" d="M 586 296 L 642.2216796875 296 Q 652.2216796875 296 652.2216796875 306 L 652.2216796875 325 Q 652.2216796875 335 642.2216796875 335 L 586 335 Q 576 335 576 325 L 576 306 Q 576 296 586 296 Z" stroke-miterlimit="10"/></g><g transform="translate(-190,-54) scale(1,1)"><g><path fill="none" stroke="none"/><text fill="#000000" stroke="none" font-family="Roboto" font-size="13px" font-style="normal" font-weight="bold" text-decoration="none" x="581.490234375" y="315.5">12.06.2017</text></g></g><g transform="translate(-190,-54) scale(1,1)"><path fill="none" stroke="#000000" d="M 306 235 L 351 235" stroke-miterlimit="10"/></g><g transform="translate(-190,-54) scale(1,1)"><path fill="none" stroke="#000000" d="M 340.83732514237585 239.209517756016 L 351 235 L 340.83732514237585 230.790482243984" stroke-miterlimit="10"/></g><g transform="translate(-190,-54) scale(1,1)"><g><path fill="none" stroke="none"/><text fill="#000000" stroke="none" font-family="Roboto" font-size="13px" font-style="normal" font-weight="normal" text-decoration="none" x="311.5" y="226.5">agent</text></g></g><g transform="translate(-190,-54) scale(1,1)"><path fill="none" stroke="#000000" d="M 286 255 L 286 288" stroke-miterlimit="10"/></g><g transform="translate(-190,-54) scale(1,1)"><path fill="none" stroke="#000000" d="M 281.790482243984 277.83732514237585 L 286 288 L 290.209517756016 277.83732514237585" stroke-miterlimit="10"/></g><g transform="translate(-190,-54) scale(1,1)"><g><path fill="none" stroke="none"/><text fill="#000000" stroke="none" font-family="Roboto" font-size="13px" font-style="normal" font-weight="normal" text-decoration="none" x="238.5" y="275.5">patient</text></g></g><g transform="translate(-190,-54) scale(1,1)"><path fill="none" stroke="#000000" d="M 736 360 L 614 360 L 614 335" stroke-miterlimit="10"/></g><g transform="translate(-190,-54) scale(1,1)"><path fill="none" stroke="#000000" d="M 618.209517756016 345.16267485762415 L 614 335 L 609.790482243984 345.16267485762415" stroke-miterlimit="10"/></g><g transform="translate(-190,-54) scale(1,1)"><g><path fill="none" stroke="none"/><text fill="#000000" stroke="none" font-family="Roboto" font-size="13px" font-style="normal" font-weight="normal" text-decoration="none" x="622.5" y="349.5">inst</text></g></g><g transform="translate(-190,-54) scale(1,1)"><path fill="none" stroke="#000000" d="M 608 296 L 608 255" stroke-miterlimit="10"/></g><g transform="translate(-190,-54) scale(1,1)"><path fill="none" stroke="#000000" d="M 612.209517756016 265.16267485762415 L 608 255 L 603.790482243984 265.16267485762415" stroke-miterlimit="10"/></g><g transform="translate(-190,-54) scale(1,1)"><g><path fill="none" stroke="none"/><text fill="#000000" stroke="none" font-family="Roboto" font-size="13px" font-style="normal" font-weight="normal" text-decoration="none" x="614.5" y="283.5">patient</text></g></g><g transform="translate(-190,-54) scale(1,1)"><path fill="none" stroke="#000000" d="M 575 235 L 522 235" stroke-miterlimit="10"/></g><g transform="translate(-190,-54) scale(1,1)"><path fill="none" stroke="#000000" d="M 532.1626748576241 230.790482243984 L 522 235 L 532.1626748576241 239.209517756016" stroke-miterlimit="10"/></g><g transform="translate(-190,-54) scale(1,1)"><g><path fill="none" stroke="none"/><text fill="#000000" stroke="none" font-family="Roboto" font-size="13px" font-style="normal" font-weight="normal" text-decoration="none" x="536.5" y="256.5">inst</text></g></g><g transform="translate(-190,-54) scale(1,1)"><path fill="none" stroke="#000000" d="M 575 171 L 522 171" stroke-miterlimit="10"/></g><g transform="translate(-190,-54) scale(1,1)"><path fill="none" stroke="#000000" d="M 532.1626748576241 166.790482243984 L 522 171 L 532.1626748576241 175.209517756016" stroke-miterlimit="10"/></g><g transform="translate(-190,-54) scale(1,1)"><g><path fill="none" stroke="none"/><text fill="#000000" stroke="none" font-family="Roboto" font-size="13px" font-style="normal" font-weight="normal" text-decoration="none" x="536.5" y="192.5">inst</text></g></g><g transform="translate(-190,-54) scale(1,1)"><path fill="none" stroke="#000000" d="M 455 235 L 415 235" stroke-miterlimit="10"/></g><g transform="translate(-190,-54) scale(1,1)"><path fill="none" stroke="#000000" d="M 425.16267485762415 230.790482243984 L 415 235 L 425.16267485762415 239.209517756016" stroke-miterlimit="10"/></g><g transform="translate(-190,-54) scale(1,1)"><g><path fill="none" stroke="none"/><text fill="#000000" stroke="none" font-family="Roboto" font-size="13px" font-style="normal" font-weight="normal" text-decoration="none" x="413.5" y="256.5">patient</text></g></g><g transform="translate(-190,-54) scale(1,1)"><path fill="none" stroke="#000000" d="M 456 168 L 384 168 L 384 216" stroke-miterlimit="10"/></g><g transform="translate(-190,-54) scale(1,1)"><path fill="none" stroke="#000000" d="M 379.790482243984 205.83732514237585 L 384 216 L 388.209517756016 205.83732514237585" stroke-miterlimit="10"/></g><g transform="translate(-190,-54) scale(1,1)"><g><path fill="none" stroke="none"/><text fill="#000000" stroke="none" font-family="Roboto" font-size="13px" font-style="normal" font-weight="normal" text-decoration="none" x="389.5" y="188.5">patient</text></g></g><g transform="translate(-190,-54) scale(1,1)"><path fill="none" stroke="#000000" d="M 488 152 L 488 96 L 688 96" stroke-miterlimit="10"/></g><g transform="translate(-190,-54) scale(1,1)"><path fill="none" stroke="#000000" d="M 677.8373251423759 100.20951775601598 L 688 96 L 677.8373251423758 91.79048224398402" stroke-miterlimit="10"/></g><g transform="translate(-190,-54) scale(1,1)"><g><path fill="none" stroke="none"/><text fill="#000000" stroke="none" font-family="Roboto" font-size="13px" font-style="normal" font-weight="normal" text-decoration="none" x="494.5" y="115.5">agent</text></g></g><g transform="translate(-190,-54) scale(1,1)"><path fill="none" stroke="#000000" d="M 456 230 L 448 230 L 448 72 L 976 72 L 976 144" stroke-miterlimit="10"/></g><g transform="translate(-190,-54) scale(1,1)"><path fill="none" stroke="#000000" d="M 971.790482243984 133.83732514237585 L 976 144 L 980.209517756016 133.83732514237585" stroke-miterlimit="10"/></g><g transform="translate(-190,-54) scale(1,1)"><g><path fill="none" stroke="none"/><text fill="#000000" stroke="none" font-family="Roboto" font-size="13px" font-style="normal" font-weight="normal" text-decoration="none" x="454.5" y="90.5">agent</text></g></g><g transform="translate(-190,-54) scale(1,1)"><path fill="#ffffff" stroke="none" d="M 578 368 L 657.60009765625 368 Q 667.60009765625 368 667.60009765625 378 L 667.60009765625 397 Q 667.60009765625 407 657.60009765625 407 L 578 407 Q 568 407 568 397 L 568 378 Q 568 368 578 368 Z"/></g><g transform="translate(-190,-54) scale(1,1)"><path fill="none" stroke="#000000" d="M 578 368 L 657.60009765625 368 Q 667.60009765625 368 667.60009765625 378 L 667.60009765625 397 Q 667.60009765625 407 657.60009765625 407 L 578 407 Q 568 407 568 397 L 568 378 Q 568 368 578 368 Z" stroke-miterlimit="10"/></g><g transform="translate(-190,-54) scale(1,1)"><g><path fill="none" stroke="none"/><text fill="#000000" stroke="none" font-family="Roboto" font-size="13px" font-style="normal" font-weight="normal" text-decoration="none" x="572.5" y="385.5">«latent, named»</text></g></g><g transform="translate(-190,-54) scale(1,1)"><g><path fill="none" stroke="none"/><text fill="#000000" stroke="none" font-family="Roboto" font-size="13px" font-style="normal" font-weight="bold" text-decoration="none" x="588.029541015625" y="400.5">remember</text></g></g><g transform="translate(-190,-54) scale(1,1)"><path fill="none" stroke="#000000" d="M 568 376 L 445 376" stroke-miterlimit="10"/></g><g transform="translate(-190,-54) scale(1,1)"><path fill="none" stroke="#000000" d="M 455.16267485762415 371.790482243984 L 445 376 L 455.16267485762415 380.209517756016" stroke-miterlimit="10"/></g><g transform="translate(-190,-54) scale(1,1)"><g><path fill="none" stroke="none"/><text fill="#000000" stroke="none" font-family="Roboto" font-size="13px" font-style="normal" font-weight="normal" text-decoration="none" x="455.5" y="396.5">inst</text></g></g><g transform="translate(-190,-54) scale(1,1)"><path fill="none" stroke="#000000" d="M 864 561 L 384 561 L 384 487" stroke-miterlimit="10"/></g><g transform="translate(-190,-54) scale(1,1)"><path fill="none" stroke="#000000" d="M 388.209517756016 497.16267485762415 L 384 487 L 379.790482243984 497.16267485762415" stroke-miterlimit="10"/></g><g transform="translate(-190,-54) scale(1,1)"><g><path fill="none" stroke="none"/><text fill="#000000" stroke="none" font-family="Roboto" font-size="13px" font-style="normal" font-weight="normal" text-decoration="none" x="391.5" y="508.5">inst</text></g></g><g transform="translate(-190,-54) scale(1,1)"><path fill="none" stroke="#000000" d="M 720 299 L 688 299 L 688 536 L 256 536 L 256 487" stroke-miterlimit="10"/></g><g transform="translate(-190,-54) scale(1,1)"><path fill="none" stroke="#000000" d="M 260.209517756016 497.16267485762415 L 256 487 L 251.790482243984 497.16267485762415" stroke-miterlimit="10"/></g><g transform="translate(-190,-54) scale(1,1)"><g><path fill="none" stroke="none"/><text fill="#000000" stroke="none" font-family="Roboto" font-size="13px" font-style="normal" font-weight="normal" text-decoration="none" x="263.5" y="507.5">inst</text></g></g><g transform="translate(-190,-54) scale(1,1)"><path fill="none" stroke="#000000" d="M 1071 144 L 1071 64 L 368 64 L 368 216" stroke-miterlimit="10"/></g><g transform="translate(-190,-54) scale(1,1)"><path fill="none" stroke="#000000" d="M 363.790482243984 205.83732514237585 L 368 216 L 372.209517756016 205.83732514237585" stroke-miterlimit="10"/></g><g transform="translate(-190,-54) scale(1,1)"><g><path fill="none" stroke="none"/><text fill="#000000" stroke="none" font-family="Roboto" font-size="13px" font-style="normal" font-weight="normal" text-decoration="none" x="375.5" y="84.5">inst</text></g></g><g transform="translate(-190,-54) scale(1,1)"><path fill="none" stroke="#000000" d="M 696 440 L 616 440 L 616 576 L 200 576 L 200 368 L 232 368" stroke-miterlimit="10"/></g><g transform="translate(-190,-54) scale(1,1)"><path fill="none" stroke="#000000" d="M 221.83732514237585 372.209517756016 L 232 368 L 221.83732514237585 363.790482243984" stroke-miterlimit="10"/></g><g transform="translate(-190,-54) scale(1,1)"><g><path fill="none" stroke="none"/><text fill="#000000" stroke="none" font-family="Roboto" font-size="13px" font-style="normal" font-weight="normal" text-decoration="none" x="207.5" y="571.5">inst</text></g></g></g></svg>