<svg version="1.1" xmlns="http://www.w3.org/2000/svg" xmlns:xlink="http://www.w3.org/1999/xlink" width="172" height="100"><defs/><g><g transform="translate(-6,-6) scale(1,1)"><path fill="#ffffff" stroke="none" d="M 26 16 L 158 16 Q 168 16 168 26 L 168 86 Q 168 96 158 96 L 26 96 Q 16 96 16 86 L 16 26 Q 16 16 26 16 Z"/></g><g transform="translate(-6,-6) scale(1,1)"><path fill="none" stroke="#b33535" d="M 26 16 L 158 16 Q 168 16 168 26 L 168 86 Q 168 96 158 96 L 26 96 Q 16 96 16 86 L 16 26 Q 16 16 26 16 Z" stroke-miterlimit="10"/></g><g transform="translate(-6,-6) scale(1,1)"><path fill="none" stroke="#b33535" d="M 16 41 L 168 41" stroke-miterlimit="10"/></g><g transform="translate(-6,-6) scale(1,1)"><g><path fill="none" stroke="none"/><text fill="#b33535" stroke="none" font-family="Roboto" font-size="13px" font-style="normal" font-weight="bold" text-decoration="none" x="25.809814453125" y="35.5">POSITIVE POSSIBILITY</text></g></g><g transform="translate(-6,-6) scale(1,1)"><path fill="#ffffff" stroke="none" d="M 74 48 L 113 48 Q 123 48 123 58 L 123 77 Q 123 87 113 87 L 74 87 Q 64 87 64 77 L 64 58 Q 64 48 74 48 Z"/></g><g transform="translate(-6,-6) scale(1,1)"><path fill="none" stroke="#000000" d="M 74 48 L 113 48 Q 123 48 123 58 L 123 77 Q 123 87 113 87 L 74 87 Q 64 87 64 77 L 64 58 Q 64 48 74 48 Z" stroke-miterlimit="10"/></g><g transform="translate(-6,-6) scale(1,1)"><g><path fill="none" stroke="none"/><text fill="#000000" stroke="none" font-family="Roboto" font-size="13px" font-style="normal" font-weight="normal" text-decoration="none" x="83.546875" y="65.5">«S»</text></g></g><g transform="translate(-6,-6) scale(1,1)"><g><path fill="none" stroke="none"/><text fill="#000000" stroke="none" font-family="Roboto" font-size="13px" font-style="normal" font-weight="bold" text-decoration="none" x="93.5" y="80.5"></text></g></g></g></svg>