<?xml version="1.0" encoding="UTF-8" standalone="no"?>
<svg
   xmlns:dc="http://purl.org/dc/elements/1.1/"
   xmlns:cc="http://creativecommons.org/ns#"
   xmlns:rdf="http://www.w3.org/1999/02/22-rdf-syntax-ns#"
   xmlns:svg="http://www.w3.org/2000/svg"
   xmlns="http://www.w3.org/2000/svg"
   xmlns:sodipodi="http://sodipodi.sourceforge.net/DTD/sodipodi-0.dtd"
   xmlns:inkscape="http://www.inkscape.org/namespaces/inkscape"
   version="1.1"
   width="540"
   height="140"
   id="svg218"
   sodipodi:docname="possibExpansion.svg"
   inkscape:version="0.92.1 r15371">
  <metadata
     id="metadata222">
    <rdf:RDF>
      <cc:Work
         rdf:about="">
        <dc:format>image/svg+xml</dc:format>
        <dc:type
           rdf:resource="http://purl.org/dc/dcmitype/StillImage" />
      </cc:Work>
    </rdf:RDF>
  </metadata>
  <sodipodi:namedview
     pagecolor="#ffffff"
     bordercolor="#666666"
     borderopacity="1"
     objecttolerance="10"
     gridtolerance="10"
     guidetolerance="10"
     inkscape:pageopacity="0"
     inkscape:pageshadow="2"
     inkscape:window-width="1366"
     inkscape:window-height="746"
     id="namedview220"
     showgrid="false"
     inkscape:zoom="2.5925926"
     inkscape:cx="254.10913"
     inkscape:cy="-3.4296196"
     inkscape:window-x="-8"
     inkscape:window-y="424"
     inkscape:window-maximized="1"
     inkscape:current-layer="g162" />
  <defs
     id="defs2" />
  <g
     id="g216">
    <g
       transform="translate(-6,-6) scale(1,1)"
       id="g6">
      <path
         fill="#ffffff"
         stroke="none"
         d="M 250 80 L 302 80 Q 312 80 312 90 L 312 109 Q 312 119 302 119 L 250 119 Q 240 119 240 109 L 240 90 Q 240 80 250 80 Z"
         id="path4" />
    </g>
    <g
       transform="translate(-6,-6) scale(1,1)"
       id="g10">
      <path
         fill="none"
         stroke="#b33535"
         d="M 250 80 L 302 80 Q 312 80 312 90 L 312 109 Q 312 119 302 119 L 250 119 Q 240 119 240 109 L 240 90 Q 240 80 250 80 Z"
         stroke-miterlimit="10"
         id="path8" />
    </g>
    <g
       transform="translate(-6,-6) scale(1,1)"
       id="g18">
      <g
         id="g16">
        <path
           fill="none"
           stroke="none"
           id="path12" />
        <text
           fill="#b33535"
           stroke="none"
           font-family="Roboto"
           font-size="13px"
           font-style="normal"
           font-weight="normal"
           text-decoration="none"
           x="248.295654296875"
           y="97.5"
           id="text14">«context»</text>
      </g>
    </g>
    <g
       transform="translate(-6,-6) scale(1,1)"
       id="g26">
      <g
         id="g24">
        <path
           fill="none"
           stroke="none"
           id="path20" />
        <text
           fill="#b33535"
           stroke="none"
           font-family="Roboto"
           font-size="13px"
           font-style="normal"
           font-weight="bold"
           text-decoration="none"
           x="276"
           y="112.5"
           id="text22" />
      </g>
    </g>
    <g
       transform="translate(-6,-6) scale(1,1)"
       id="g30">
      <path
         fill="#ffffff"
         stroke="none"
         d="M 330 16 L 526 16 Q 536 16 536 26 L 536 126 Q 536 136 526 136 L 330 136 Q 320 136 320 126 L 320 26 Q 320 16 330 16 Z"
         id="path28" />
    </g>
    <g
       transform="translate(-6,-6) scale(1,1)"
       id="g34">
      <path
         fill="none"
         stroke="#b33535"
         d="M 330 16 L 526 16 Q 536 16 536 26 L 536 126 Q 536 136 526 136 L 330 136 Q 320 136 320 126 L 320 26 Q 320 16 330 16 Z"
         stroke-miterlimit="10"
         id="path32" />
    </g>
    <g
       transform="translate(-6,-6) scale(1,1)"
       id="g38">
      <path
         fill="none"
         stroke="#b33535"
         d="M 320 41 L 536 41"
         stroke-miterlimit="10"
         id="path36" />
    </g>
    <g
       transform="translate(-6,-6) scale(1,1)"
       id="g46">
      <g
         id="g44">
        <path
           fill="none"
           stroke="none"
           id="path40" />
        <text
           fill="#b33535"
           stroke="none"
           font-family="Roboto"
           font-size="13px"
           font-style="normal"
           font-weight="bold"
           text-decoration="none"
           x="371.616943359375"
           y="35.5"
           id="text42">NEGATIVE ACTUAL</text>
      </g>
    </g>
    <g
       transform="translate(-6,-6) scale(1,1)"
       id="g50">
      <path
         fill="#ffffff"
         stroke="none"
         d="M 26 16 L 222 16 Q 232 16 232 26 L 232 126 Q 232 136 222 136 L 26 136 Q 16 136 16 126 L 16 26 Q 16 16 26 16 Z"
         id="path48" />
    </g>
    <g
       transform="translate(-6,-6) scale(1,1)"
       id="g54">
      <path
         fill="none"
         stroke="#b33535"
         d="M 26 16 L 222 16 Q 232 16 232 26 L 232 126 Q 232 136 222 136 L 26 136 Q 16 136 16 126 L 16 26 Q 16 16 26 16 Z"
         stroke-miterlimit="10"
         id="path52" />
    </g>
    <g
       transform="translate(-6,-6) scale(1,1)"
       id="g58">
      <path
         fill="none"
         stroke="#b33535"
         d="M 16 41 L 232 41"
         stroke-miterlimit="10"
         id="path56" />
    </g>
    <g
       transform="translate(-6,-6) scale(1,1)"
       id="g66">
      <g
         id="g64">
        <path
           fill="none"
           stroke="none"
           id="path60" />
        <text
           fill="#b33535"
           stroke="none"
           font-family="Roboto"
           font-size="13px"
           font-style="normal"
           font-weight="bold"
           text-decoration="none"
           x="67.616943359375"
           y="35.5"
           id="text62">NEGATIVE ACTUAL</text>
      </g>
    </g>
    <g
       transform="translate(-6,-6) scale(1,1)"
       id="g70">
      <path
         fill="#ffffff"
         stroke="none"
         d="M 338 48 L 445 48 Q 455 48 455 58 L 455 118 Q 455 128 445 128 L 338 128 Q 328 128 328 118 L 328 58 Q 328 48 338 48 Z"
         id="path68" />
    </g>
    <g
       transform="translate(-6,-6) scale(1,1)"
       id="g74">
      <path
         fill="none"
         stroke="#b33535"
         d="M 338 48 L 445 48 Q 455 48 455 58 L 455 118 Q 455 128 445 128 L 338 128 Q 328 128 328 118 L 328 58 Q 328 48 338 48 Z"
         stroke-miterlimit="10"
         id="path72" />
    </g>
    <g
       transform="translate(-6,-6) scale(1,1)"
       id="g78">
      <path
         fill="none"
         stroke="#b33535"
         d="M 328 73 L 455 73"
         stroke-miterlimit="10"
         id="path76" />
    </g>
    <g
       transform="translate(-6,-6) scale(1,1)"
       id="g86">
      <g
         id="g84">
        <path
           fill="none"
           stroke="none"
           id="path80" />
        <text
           fill="#b33535"
           stroke="none"
           font-family="Roboto"
           font-size="13px"
           font-style="normal"
           font-weight="bold"
           text-decoration="none"
           x="335.116943359375"
           y="67.5"
           id="text82">NEGATIVE ACTUAL</text>
      </g>
    </g>
    <g
       transform="translate(-6,-6) scale(1,1)"
       id="g90">
      <path
         fill="#ffffff"
         stroke="none"
         d="M 370 80 L 409 80 Q 419 80 419 90 L 419 109 Q 419 119 409 119 L 370 119 Q 360 119 360 109 L 360 90 Q 360 80 370 80 Z"
         id="path88" />
    </g>
    <g
       transform="translate(-6,-6) scale(1,1)"
       id="g94">
      <path
         fill="none"
         stroke="#b33535"
         d="M 370 80 L 409 80 Q 419 80 419 90 L 419 109 Q 419 119 409 119 L 370 119 Q 360 119 360 109 L 360 90 Q 360 80 370 80 Z"
         stroke-miterlimit="10"
         id="path92" />
    </g>
    <g
       transform="translate(-6,-6) scale(1,1)"
       id="g102">
      <g
         id="g100">
        <path
           fill="none"
           stroke="none"
           id="path96" />
        <text
           fill="#b33535"
           stroke="none"
           font-family="Roboto"
           font-size="13px"
           font-style="normal"
           font-weight="normal"
           text-decoration="none"
           x="365.6455078125"
           y="97.5"
           id="text98">«actual»</text>
      </g>
    </g>
    <g
       transform="translate(-6,-6) scale(1,1)"
       id="g110">
      <g
         id="g108">
        <path
           fill="none"
           stroke="none"
           id="path104" />
        <text
           fill="#b33535"
           stroke="none"
           font-family="Roboto"
           font-size="13px"
           font-style="normal"
           font-weight="bold"
           text-decoration="none"
           x="389.5"
           y="112.5"
           id="text106" />
      </g>
    </g>
    <g
       transform="translate(-6,-6) scale(1,1)"
       id="g114">
      <path
         fill="#ffffff"
         stroke="none"
         d="M 34 48 L 139 48 Q 149 48 149 58 L 149 118 Q 149 128 139 128 L 34 128 Q 24 128 24 118 L 24 58 Q 24 48 34 48 Z"
         id="path112" />
    </g>
    <g
       transform="translate(-6,-6) scale(1,1)"
       id="g118">
      <path
         fill="none"
         stroke="#b33535"
         d="M 34 48 L 139 48 Q 149 48 149 58 L 149 118 Q 149 128 139 128 L 34 128 Q 24 128 24 118 L 24 58 Q 24 48 34 48 Z"
         stroke-miterlimit="10"
         id="path116" />
    </g>
    <g
       transform="translate(-6,-6) scale(1,1)"
       id="g122">
      <path
         fill="none"
         stroke="#b33535"
         d="M 24 73 L 149 73"
         stroke-miterlimit="10"
         id="path120" />
    </g>
    <g
       transform="translate(-6,-6) scale(1,1)"
       id="g130">
      <g
         id="g128">
        <path
           fill="none"
           stroke="none"
           id="path124" />
        <text
           fill="#b33535"
           stroke="none"
           font-family="Roboto"
           font-size="13px"
           font-style="normal"
           font-weight="bold"
           text-decoration="none"
           x="30.116943359375"
           y="67.5"
           id="text126">NEGATIVE ACTUAL</text>
      </g>
    </g>
    <g
       transform="translate(-6,-6) scale(1,1)"
       id="g134">
      <path
         fill="#ffffff"
         stroke="none"
         d="M 170 80 L 209 80 Q 219 80 219 90 L 219 109 Q 219 119 209 119 L 170 119 Q 160 119 160 109 L 160 90 Q 160 80 170 80 Z"
         id="path132" />
    </g>
    <g
       transform="translate(-6,-6) scale(1,1)"
       id="g138">
      <path
         fill="none"
         stroke="#b33535"
         d="M 170 80 L 209 80 Q 219 80 219 90 L 219 109 Q 219 119 209 119 L 170 119 Q 160 119 160 109 L 160 90 Q 160 80 170 80 Z"
         stroke-miterlimit="10"
         id="path136" />
    </g>
    <g
       transform="translate(-6,-6) scale(1,1)"
       id="g146">
      <g
         id="g144">
        <path
           fill="none"
           stroke="none"
           id="path140" />
        <text
           fill="#b33535"
           stroke="none"
           font-family="Roboto"
           font-size="13px"
           font-style="normal"
           font-weight="normal"
           text-decoration="none"
           x="165.6455078125"
           y="97.5"
           id="text142">«actual»</text>
      </g>
    </g>
    <g
       transform="translate(-6,-6) scale(1,1)"
       id="g154">
      <g
         id="g152">
        <path
           fill="none"
           stroke="none"
           id="path148" />
        <text
           fill="#b33535"
           stroke="none"
           font-family="Roboto"
           font-size="13px"
           font-style="normal"
           font-weight="bold"
           text-decoration="none"
           x="189.5"
           y="112.5"
           id="text150" />
      </g>
    </g>
    <g
       transform="translate(-6,-6) scale(1,1)"
       id="g158">
      <path
         fill="none"
         stroke="#b33535"
         d="M 220 120 L 220 121"
         stroke-miterlimit="10"
         stroke-dasharray="3"
         id="path156" />
    </g>
    <g
       transform="translate(-6,-6) scale(1,1)"
       id="g162">
      <path
         fill="none"
         stroke="#b33535"
         d="M 312 99 L 360 99"
         stroke-miterlimit="10"
         stroke-dasharray="3"
         id="path160"
         style="stroke-width:1;stroke-miterlimit:10;stroke-dasharray:3,3;stroke-dashoffset:0" />
    </g>
    <g
       transform="translate(-6,-6) scale(1,1)"
       id="g166">
      <path
         fill="none"
         stroke="#b33535"
         d="M 220 99 L 239 99"
         stroke-miterlimit="10"
         stroke-dasharray="3"
         id="path164"
         style="stroke-width:1;stroke-miterlimit:10;stroke-dasharray:3,3;stroke-dashoffset:0" />
    </g>
    <g
       transform="translate(-6,-6) scale(1,1)"
       id="g170">
      <path
         fill="#ffffff"
         stroke="none"
         d="M 66 80 L 105 80 Q 115 80 115 90 L 115 109 Q 115 119 105 119 L 66 119 Q 56 119 56 109 L 56 90 Q 56 80 66 80 Z"
         id="path168" />
    </g>
    <g
       transform="translate(-6,-6) scale(1,1)"
       id="g174">
      <path
         fill="none"
         stroke="#000000"
         d="M 66 80 L 105 80 Q 115 80 115 90 L 115 109 Q 115 119 105 119 L 66 119 Q 56 119 56 109 L 56 90 Q 56 80 66 80 Z"
         stroke-miterlimit="10"
         id="path172" />
    </g>
    <g
       transform="translate(-6,-6) scale(1,1)"
       id="g182">
      <g
         id="g180">
        <path
           fill="none"
           stroke="none"
           id="path176" />
        <text
           fill="#000000"
           stroke="none"
           font-family="Roboto"
           font-size="13px"
           font-style="normal"
           font-weight="normal"
           text-decoration="none"
           x="75.546875"
           y="97.5"
           id="text178">«S»</text>
      </g>
    </g>
    <g
       transform="translate(-6,-6) scale(1,1)"
       id="g190">
      <g
         id="g188">
        <path
           fill="none"
           stroke="none"
           id="path184" />
        <text
           fill="#000000"
           stroke="none"
           font-family="Roboto"
           font-size="13px"
           font-style="normal"
           font-weight="bold"
           text-decoration="none"
           x="85.5"
           y="112.5"
           id="text186" />
      </g>
    </g>
    <g
       transform="translate(-6,-6) scale(1,1)"
       id="g194">
      <path
         fill="#ffffff"
         stroke="none"
         d="M 474 80 L 513 80 Q 523 80 523 90 L 523 109 Q 523 119 513 119 L 474 119 Q 464 119 464 109 L 464 90 Q 464 80 474 80 Z"
         id="path192" />
    </g>
    <g
       transform="translate(-6,-6) scale(1,1)"
       id="g198">
      <path
         fill="none"
         stroke="#000000"
         d="M 474 80 L 513 80 Q 523 80 523 90 L 523 109 Q 523 119 513 119 L 474 119 Q 464 119 464 109 L 464 90 Q 464 80 474 80 Z"
         stroke-miterlimit="10"
         id="path196" />
    </g>
    <g
       transform="translate(-6,-6) scale(1,1)"
       id="g206">
      <g
         id="g204">
        <path
           fill="none"
           stroke="none"
           id="path200" />
        <text
           fill="#000000"
           stroke="none"
           font-family="Roboto"
           font-size="13px"
           font-style="normal"
           font-weight="normal"
           text-decoration="none"
           x="483.546875"
           y="97.5"
           id="text202">«S»</text>
      </g>
    </g>
    <g
       transform="translate(-6,-6) scale(1,1)"
       id="g214">
      <g
         id="g212">
        <path
           fill="none"
           stroke="none"
           id="path208" />
        <text
           fill="#000000"
           stroke="none"
           font-family="Roboto"
           font-size="13px"
           font-style="normal"
           font-weight="bold"
           text-decoration="none"
           x="493.5"
           y="112.5"
           id="text210" />
      </g>
    </g>
  </g>
</svg>
