<?xml version="1.0" encoding="UTF-8" standalone="no"?>
<svg
   xmlns:dc="http://purl.org/dc/elements/1.1/"
   xmlns:cc="http://creativecommons.org/ns#"
   xmlns:rdf="http://www.w3.org/1999/02/22-rdf-syntax-ns#"
   xmlns:svg="http://www.w3.org/2000/svg"
   xmlns="http://www.w3.org/2000/svg"
   xmlns:sodipodi="http://sodipodi.sourceforge.net/DTD/sodipodi-0.dtd"
   xmlns:inkscape="http://www.inkscape.org/namespaces/inkscape"
   version="1.1"
   width="540"
   height="140"
   id="svg210"
   sodipodi:docname="possibExpansion.svg"
   inkscape:version="0.92.1 r15371">
  <metadata
     id="metadata214">
    <rdf:RDF>
      <cc:Work
         rdf:about="">
        <dc:format>image/svg+xml</dc:format>
        <dc:type
           rdf:resource="http://purl.org/dc/dcmitype/StillImage" />
      </cc:Work>
    </rdf:RDF>
  </metadata>
  <sodipodi:namedview
     pagecolor="#ffffff"
     bordercolor="#666666"
     borderopacity="1"
     objecttolerance="10"
     gridtolerance="10"
     guidetolerance="10"
     inkscape:pageopacity="0"
     inkscape:pageshadow="2"
     inkscape:window-width="1920"
     inkscape:window-height="1148"
     id="namedview212"
     showgrid="false"
     inkscape:zoom="1.8332398"
     inkscape:cx="288.01879"
     inkscape:cy="64.451038"
     inkscape:window-x="1358"
     inkscape:window-y="-8"
     inkscape:window-maximized="1"
     inkscape:current-layer="g158" />
  <defs
     id="defs2" />
  <g
     id="g208">
    <g
       transform="translate(-6,-6) scale(1,1)"
       id="g6">
      <path
         fill="#ffffff"
         stroke="none"
         d="M 258 80 L 297 80 Q 307 80 307 90 L 307 109 Q 307 119 297 119 L 258 119 Q 248 119 248 109 L 248 90 Q 248 80 258 80 Z"
         id="path4" />
    </g>
    <g
       transform="translate(-6,-6) scale(1,1)"
       id="g10">
      <path
         fill="none"
         stroke="#b33535"
         d="M 258 80 L 297 80 Q 307 80 307 90 L 307 109 Q 307 119 297 119 L 258 119 Q 248 119 248 109 L 248 90 Q 248 80 258 80 Z"
         stroke-miterlimit="10"
         id="path8" />
    </g>
    <g
       transform="translate(-6,-6) scale(1,1)"
       id="g18">
      <g
         id="g16">
        <path
           fill="none"
           stroke="none"
           id="path12" />
        <text
           fill="#b33535"
           stroke="none"
           font-family="Roboto"
           font-size="13px"
           font-style="normal"
           font-weight="bold"
           text-decoration="none"
           x="277.5"
           y="99.5"
           id="text14" />
      </g>
    </g>
    <g
       transform="translate(-6,-6) scale(1,1)"
       id="g22">
      <path
         fill="#ffffff"
         stroke="none"
         d="M 330 16 L 526 16 Q 536 16 536 26 L 536 126 Q 536 136 526 136 L 330 136 Q 320 136 320 126 L 320 26 Q 320 16 330 16 Z"
         id="path20" />
    </g>
    <g
       transform="translate(-6,-6) scale(1,1)"
       id="g26">
      <path
         fill="none"
         stroke="#b33535"
         d="M 330 16 L 526 16 Q 536 16 536 26 L 536 126 Q 536 136 526 136 L 330 136 Q 320 136 320 126 L 320 26 Q 320 16 330 16 Z"
         stroke-miterlimit="10"
         id="path24" />
    </g>
    <g
       transform="translate(-6,-6) scale(1,1)"
       id="g30">
      <path
         fill="none"
         stroke="#b33535"
         d="M 320 41 L 536 41"
         stroke-miterlimit="10"
         id="path28" />
    </g>
    <g
       transform="translate(-6,-6) scale(1,1)"
       id="g38">
      <g
         id="g36">
        <path
           fill="none"
           stroke="none"
           id="path32" />
        <text
           fill="#b33535"
           stroke="none"
           font-family="Roboto"
           font-size="13px"
           font-style="normal"
           font-weight="bold"
           text-decoration="none"
           x="371.616943359375"
           y="35.5"
           id="text34">NEGATIVE ACTUAL</text>
      </g>
    </g>
    <g
       transform="translate(-6,-6) scale(1,1)"
       id="g42">
      <path
         fill="#ffffff"
         stroke="none"
         d="M 26 16 L 222 16 Q 232 16 232 26 L 232 126 Q 232 136 222 136 L 26 136 Q 16 136 16 126 L 16 26 Q 16 16 26 16 Z"
         id="path40" />
    </g>
    <g
       transform="translate(-6,-6) scale(1,1)"
       id="g46">
      <path
         fill="none"
         stroke="#b33535"
         d="M 26 16 L 222 16 Q 232 16 232 26 L 232 126 Q 232 136 222 136 L 26 136 Q 16 136 16 126 L 16 26 Q 16 16 26 16 Z"
         stroke-miterlimit="10"
         id="path44" />
    </g>
    <g
       transform="translate(-6,-6) scale(1,1)"
       id="g50">
      <path
         fill="none"
         stroke="#b33535"
         d="M 16 41 L 232 41"
         stroke-miterlimit="10"
         id="path48" />
    </g>
    <g
       transform="translate(-6,-6) scale(1,1)"
       id="g58">
      <g
         id="g56">
        <path
           fill="none"
           stroke="none"
           id="path52" />
        <text
           fill="#b33535"
           stroke="none"
           font-family="Roboto"
           font-size="13px"
           font-style="normal"
           font-weight="bold"
           text-decoration="none"
           x="67.616943359375"
           y="35.5"
           id="text54">NEGATIVE ACTUAL</text>
      </g>
    </g>
    <g
       transform="translate(-6,-6) scale(1,1)"
       id="g62">
      <path
         fill="#ffffff"
         stroke="none"
         d="M 338 48 L 445 48 Q 455 48 455 58 L 455 118 Q 455 128 445 128 L 338 128 Q 328 128 328 118 L 328 58 Q 328 48 338 48 Z"
         id="path60" />
    </g>
    <g
       transform="translate(-6,-6) scale(1,1)"
       id="g66">
      <path
         fill="none"
         stroke="#b33535"
         d="M 338 48 L 445 48 Q 455 48 455 58 L 455 118 Q 455 128 445 128 L 338 128 Q 328 128 328 118 L 328 58 Q 328 48 338 48 Z"
         stroke-miterlimit="10"
         id="path64" />
    </g>
    <g
       transform="translate(-6,-6) scale(1,1)"
       id="g70">
      <path
         fill="none"
         stroke="#b33535"
         d="M 328 73 L 455 73"
         stroke-miterlimit="10"
         id="path68" />
    </g>
    <g
       transform="translate(-6,-6) scale(1,1)"
       id="g78">
      <g
         id="g76">
        <path
           fill="none"
           stroke="none"
           id="path72" />
        <text
           fill="#b33535"
           stroke="none"
           font-family="Roboto"
           font-size="13px"
           font-style="normal"
           font-weight="bold"
           text-decoration="none"
           x="335.116943359375"
           y="67.5"
           id="text74">NEGATIVE ACTUAL</text>
      </g>
    </g>
    <g
       transform="translate(-6,-6) scale(1,1)"
       id="g82">
      <path
         fill="#ffffff"
         stroke="none"
         d="M 370 80 L 409 80 Q 419 80 419 90 L 419 109 Q 419 119 409 119 L 370 119 Q 360 119 360 109 L 360 90 Q 360 80 370 80 Z"
         id="path80" />
    </g>
    <g
       transform="translate(-6,-6) scale(1,1)"
       id="g86">
      <path
         fill="none"
         stroke="#b33535"
         d="M 370 80 L 409 80 Q 419 80 419 90 L 419 109 Q 419 119 409 119 L 370 119 Q 360 119 360 109 L 360 90 Q 360 80 370 80 Z"
         stroke-miterlimit="10"
         id="path84" />
    </g>
    <g
       transform="translate(-6,-6) scale(1,1)"
       id="g94">
      <g
         id="g92">
        <path
           fill="none"
           stroke="none"
           id="path88" />
        <text
           fill="#b33535"
           stroke="none"
           font-family="Roboto"
           font-size="13px"
           font-style="normal"
           font-weight="normal"
           text-decoration="none"
           x="365.6455078125"
           y="97.5"
           id="text90">«actual»</text>
      </g>
    </g>
    <g
       transform="translate(-6,-6) scale(1,1)"
       id="g102">
      <g
         id="g100">
        <path
           fill="none"
           stroke="none"
           id="path96" />
        <text
           fill="#b33535"
           stroke="none"
           font-family="Roboto"
           font-size="13px"
           font-style="normal"
           font-weight="bold"
           text-decoration="none"
           x="389.5"
           y="112.5"
           id="text98" />
      </g>
    </g>
    <g
       transform="translate(-6,-6) scale(1,1)"
       id="g106">
      <path
         fill="#ffffff"
         stroke="none"
         d="M 34 48 L 139 48 Q 149 48 149 58 L 149 118 Q 149 128 139 128 L 34 128 Q 24 128 24 118 L 24 58 Q 24 48 34 48 Z"
         id="path104" />
    </g>
    <g
       transform="translate(-6,-6) scale(1,1)"
       id="g110">
      <path
         fill="none"
         stroke="#b33535"
         d="M 34 48 L 139 48 Q 149 48 149 58 L 149 118 Q 149 128 139 128 L 34 128 Q 24 128 24 118 L 24 58 Q 24 48 34 48 Z"
         stroke-miterlimit="10"
         id="path108" />
    </g>
    <g
       transform="translate(-6,-6) scale(1,1)"
       id="g114">
      <path
         fill="none"
         stroke="#b33535"
         d="M 24 73 L 149 73"
         stroke-miterlimit="10"
         id="path112" />
    </g>
    <g
       transform="translate(-6,-6) scale(1,1)"
       id="g122">
      <g
         id="g120">
        <path
           fill="none"
           stroke="none"
           id="path116" />
        <text
           fill="#b33535"
           stroke="none"
           font-family="Roboto"
           font-size="13px"
           font-style="normal"
           font-weight="bold"
           text-decoration="none"
           x="30.116943359375"
           y="67.5"
           id="text118">NEGATIVE ACTUAL</text>
      </g>
    </g>
    <g
       transform="translate(-6,-6) scale(1,1)"
       id="g126">
      <path
         fill="#ffffff"
         stroke="none"
         d="M 170 80 L 209 80 Q 219 80 219 90 L 219 109 Q 219 119 209 119 L 170 119 Q 160 119 160 109 L 160 90 Q 160 80 170 80 Z"
         id="path124" />
    </g>
    <g
       transform="translate(-6,-6) scale(1,1)"
       id="g130">
      <path
         fill="none"
         stroke="#b33535"
         d="M 170 80 L 209 80 Q 219 80 219 90 L 219 109 Q 219 119 209 119 L 170 119 Q 160 119 160 109 L 160 90 Q 160 80 170 80 Z"
         stroke-miterlimit="10"
         id="path128" />
    </g>
    <g
       transform="translate(-6,-6) scale(1,1)"
       id="g138">
      <g
         id="g136">
        <path
           fill="none"
           stroke="none"
           id="path132" />
        <text
           fill="#b33535"
           stroke="none"
           font-family="Roboto"
           font-size="13px"
           font-style="normal"
           font-weight="normal"
           text-decoration="none"
           x="165.6455078125"
           y="97.5"
           id="text134">«actual»</text>
      </g>
    </g>
    <g
       transform="translate(-6,-6) scale(1,1)"
       id="g146">
      <g
         id="g144">
        <path
           fill="none"
           stroke="none"
           id="path140" />
        <text
           fill="#b33535"
           stroke="none"
           font-family="Roboto"
           font-size="13px"
           font-style="normal"
           font-weight="bold"
           text-decoration="none"
           x="189.5"
           y="112.5"
           id="text142" />
      </g>
    </g>
    <g
       transform="translate(-6,-6) scale(1,1)"
       id="g150">
      <path
         fill="none"
         stroke="#b33535"
         d="M 220 120 L 220 121"
         stroke-miterlimit="10"
         stroke-dasharray="3"
         id="path148" />
    </g>
    <g
       transform="translate(-6,-6) scale(1,1)"
       id="g154">
      <path
         fill="none"
         stroke="#b33535"
         d="M 307 99 L 360 99"
         stroke-miterlimit="10"
         stroke-dasharray="3"
         id="path152"
         style="stroke-width:1;stroke-miterlimit:10;stroke-dasharray:3,3;stroke-dashoffset:0" />
    </g>
    <g
       transform="translate(-6,-6) scale(1,1)"
       id="g158">
      <path
         fill="none"
         stroke="#b33535"
         d="M 220 99 L 247 99"
         stroke-miterlimit="10"
         stroke-dasharray="3"
         id="path156"
         style="stroke-width:1;stroke-miterlimit:10;stroke-dasharray:3,3;stroke-dashoffset:0" />
    </g>
    <g
       transform="translate(-6,-6) scale(1,1)"
       id="g162">
      <path
         fill="#ffffff"
         stroke="none"
         d="M 66 80 L 105 80 Q 115 80 115 90 L 115 109 Q 115 119 105 119 L 66 119 Q 56 119 56 109 L 56 90 Q 56 80 66 80 Z"
         id="path160" />
    </g>
    <g
       transform="translate(-6,-6) scale(1,1)"
       id="g166">
      <path
         fill="none"
         stroke="#000000"
         d="M 66 80 L 105 80 Q 115 80 115 90 L 115 109 Q 115 119 105 119 L 66 119 Q 56 119 56 109 L 56 90 Q 56 80 66 80 Z"
         stroke-miterlimit="10"
         id="path164" />
    </g>
    <g
       transform="translate(-6,-6) scale(1,1)"
       id="g174">
      <g
         id="g172">
        <path
           fill="none"
           stroke="none"
           id="path168" />
        <text
           fill="#000000"
           stroke="none"
           font-family="Roboto"
           font-size="13px"
           font-style="normal"
           font-weight="normal"
           text-decoration="none"
           x="75.546875"
           y="97.5"
           id="text170">«S»</text>
      </g>
    </g>
    <g
       transform="translate(-6,-6) scale(1,1)"
       id="g182">
      <g
         id="g180">
        <path
           fill="none"
           stroke="none"
           id="path176" />
        <text
           fill="#000000"
           stroke="none"
           font-family="Roboto"
           font-size="13px"
           font-style="normal"
           font-weight="bold"
           text-decoration="none"
           x="85.5"
           y="112.5"
           id="text178" />
      </g>
    </g>
    <g
       transform="translate(-6,-6) scale(1,1)"
       id="g186">
      <path
         fill="#ffffff"
         stroke="none"
         d="M 474 80 L 513 80 Q 523 80 523 90 L 523 109 Q 523 119 513 119 L 474 119 Q 464 119 464 109 L 464 90 Q 464 80 474 80 Z"
         id="path184" />
    </g>
    <g
       transform="translate(-6,-6) scale(1,1)"
       id="g190">
      <path
         fill="none"
         stroke="#000000"
         d="M 474 80 L 513 80 Q 523 80 523 90 L 523 109 Q 523 119 513 119 L 474 119 Q 464 119 464 109 L 464 90 Q 464 80 474 80 Z"
         stroke-miterlimit="10"
         id="path188" />
    </g>
    <g
       transform="translate(-6,-6) scale(1,1)"
       id="g198">
      <g
         id="g196">
        <path
           fill="none"
           stroke="none"
           id="path192" />
        <text
           fill="#000000"
           stroke="none"
           font-family="Roboto"
           font-size="13px"
           font-style="normal"
           font-weight="normal"
           text-decoration="none"
           x="483.546875"
           y="97.5"
           id="text194">«S»</text>
      </g>
    </g>
    <g
       transform="translate(-6,-6) scale(1,1)"
       id="g206">
      <g
         id="g204">
        <path
           fill="none"
           stroke="none"
           id="path200" />
        <text
           fill="#000000"
           stroke="none"
           font-family="Roboto"
           font-size="13px"
           font-style="normal"
           font-weight="bold"
           text-decoration="none"
           x="493.5"
           y="112.5"
           id="text202" />
      </g>
    </g>
  </g>
</svg>
