<?xml version="1.0" encoding="UTF-8" standalone="no"?>
<svg
   xmlns:dc="http://purl.org/dc/elements/1.1/"
   xmlns:cc="http://creativecommons.org/ns#"
   xmlns:rdf="http://www.w3.org/1999/02/22-rdf-syntax-ns#"
   xmlns:svg="http://www.w3.org/2000/svg"
   xmlns="http://www.w3.org/2000/svg"
   xmlns:xlink="http://www.w3.org/1999/xlink"
   xmlns:sodipodi="http://sodipodi.sourceforge.net/DTD/sodipodi-0.dtd"
   xmlns:inkscape="http://www.inkscape.org/namespaces/inkscape"
   width="330"
   height="180"
   viewBox="0 0 330 180"
   version="1.1"
   id="svg111"
   sodipodi:docname="pslPhase.svg"
   inkscape:version="0.92.1 r15371">
  <metadata
     id="metadata115">
    <rdf:RDF>
      <cc:Work
         rdf:about="">
        <dc:format>image/svg+xml</dc:format>
        <dc:type
           rdf:resource="http://purl.org/dc/dcmitype/StillImage" />
        <dc:title>pslPhase</dc:title>
      </cc:Work>
    </rdf:RDF>
  </metadata>
  <sodipodi:namedview
     pagecolor="#ffffff"
     bordercolor="#666666"
     borderopacity="1"
     objecttolerance="10"
     gridtolerance="10"
     guidetolerance="10"
     inkscape:pageopacity="0"
     inkscape:pageshadow="2"
     inkscape:window-width="1920"
     inkscape:window-height="1148"
     id="namedview113"
     showgrid="false"
     inkscape:zoom="1.0606061"
     inkscape:cx="165"
     inkscape:cy="90"
     inkscape:window-x="1358"
     inkscape:window-y="-8"
     inkscape:window-maximized="1"
     inkscape:current-layer="svg111" />
  <title
     id="title2">pslPhase</title>
  <desc
     id="desc4">Created using Figma</desc>
  <g
     id="Canvas"
     transform="translate(-1005 -1020)">
    <clipPath
       id="clip-0"
       clip-rule="evenodd">
      <path
         d="M 655 1020L 1335 1020L 1335 1200L 655 1200L 655 1020Z"
         fill="#FFFFFF"
         id="path6" />
    </clipPath>
    <g
       id="architecture"
       clip-path="url(#clip-0)">
      <g
         id="Group">
        <g
           id="Ellipse 6">
          <use
             xlink:href="#path0_fill"
             transform="translate(1125 1090)"
             fill="#355FB3"
             id="use9" />
        </g>
        <g
           id="Conjunction Graph">
          <use
             xlink:href="#path1_fill"
             transform="translate(1125 1105.94)"
             fill="#FFFFFF"
             id="use12" />
        </g>
      </g>
      <g
         id="g23">
        <g
           id="g18">
          <use
             xlink:href="#path0_fill"
             transform="translate(1245 1160)"
             fill="#355FB3"
             id="use16" />
        </g>
        <g
           id="New Knowledge Graph">
          <use
             xlink:href="#path2_fill"
             transform="translate(1245 1175.94)"
             fill="#FFFFFF"
             id="use20" />
        </g>
      </g>
      <g
         id="g32">
        <g
           id="g27">
          <use
             xlink:href="#path0_fill"
             transform="translate(1005 1160)"
             fill="#355FB3"
             id="use25" />
        </g>
        <g
           id="PSL Program">
          <use
             xlink:href="#path3_fill"
             transform="translate(1005 1175.94)"
             fill="#FFFFFF"
             id="use29" />
        </g>
      </g>
      <g
         id="g41">
        <g
           id="g36">
          <use
             xlink:href="#path0_fill"
             transform="translate(1125 1020)"
             fill="#355FB3"
             id="use34" />
        </g>
        <g
           id="Old Knowledge Graph">
          <use
             xlink:href="#path4_fill"
             transform="translate(1125 1035.94)"
             fill="#FFFFFF"
             id="use38" />
        </g>
      </g>
      <g
         id="g49">
        <g
           id="Rectangle 6">
          <use
             xlink:href="#path5_fill"
             transform="translate(1125 1160)"
             fill="#B33535"
             id="use43" />
        </g>
        <g
           id="PSL Optimizer">
          <use
             xlink:href="#path6_fill"
             transform="translate(1125 1175.94)"
             fill="#FFFFFF"
             id="use46" />
        </g>
      </g>
      <g
         id="g58">
        <g
           id="g53">
          <use
             xlink:href="#path5_fill"
             transform="translate(1245 1090)"
             fill="#3BB335"
             id="use51" />
        </g>
        <g
           id="Database">
          <use
             xlink:href="#path7_fill"
             transform="translate(1245 1105.94)"
             fill="#FFFFFF"
             id="use55" />
        </g>
      </g>
      <g
         id="Arrow">
        <use
           xlink:href="#path8_stroke"
           transform="translate(1095 1110)"
           id="use60" />
      </g>
      <g
         id="g65">
        <use
           xlink:href="#path8_stroke"
           transform="translate(1095 1180)"
           id="use63" />
      </g>
      <g
         id="Vector">
        <use
           xlink:href="#path9_stroke"
           transform="translate(1215 1040)"
           id="use67" />
      </g>
      <g
         id="g72">
        <use
           xlink:href="#path8_stroke"
           transform="translate(1215 1180)"
           id="use70" />
      </g>
      <g
         id="g76">
        <use
           xlink:href="#path8_stroke"
           transform="matrix(7.17448e-17 1 -1 5.55112e-17 1170 1060)"
           id="use74" />
      </g>
      <g
         id="g80">
        <use
           xlink:href="#path8_stroke"
           transform="matrix(7.17448e-17 1 -1 5.55112e-17 1170 1130)"
           id="use78" />
      </g>
      <g
         id="g84">
        <use
           xlink:href="#path10_stroke"
           transform="matrix(-3.35479e-08 -1 1 -3.35479e-08 1290 1160)"
           id="use82" />
      </g>
      <g
         id="g93">
        <g
           id="g88">
          <use
             xlink:href="#path0_fill"
             transform="translate(1005 1090)"
             fill="#355FB3"
             id="use86" />
        </g>
        <g
           id="Extraction Graph">
          <use
             xlink:href="#path11_fill"
             transform="translate(1005 1105.94)"
             fill="#FFFFFF"
             id="use90" />
        </g>
      </g>
    </g>
  </g>
  <defs
     id="defs109">
    <path
       id="path0_fill"
       d="M 90 20C 90 31.0457 69.8528 40 45 40C 20.1472 40 0 31.0457 0 20C 0 8.9543 20.1472 0 45 0C 69.8528 0 90 8.9543 90 20Z" />
    <path
       id="path1_fill"
       d="M 24.3945 -0.255859C 24.3066 0.496094 24.0283 1.07715 23.5596 1.4873C 23.0941 1.89421 22.474 2.09766 21.6992 2.09766C 20.8594 2.09766 20.1855 1.79655 19.6777 1.19434C 19.1732 0.592122 18.9209 -0.213542 18.9209 -1.22266L 18.9209 -1.90625C 18.9209 -2.56706 19.0381 -3.14811 19.2725 -3.64941C 19.5101 -4.15072 19.8454 -4.53483 20.2783 -4.80176C 20.7113 -5.07194 21.2126 -5.20703 21.7822 -5.20703C 22.5374 -5.20703 23.1429 -4.99544 23.5986 -4.57227C 24.0544 -4.15234 24.3197 -3.56966 24.3945 -2.82422L 23.4521 -2.82422C 23.3708 -3.39062 23.1934 -3.80078 22.9199 -4.05469C 22.6497 -4.30859 22.2705 -4.43555 21.7822 -4.43555C 21.1833 -4.43555 20.7129 -4.21419 20.3711 -3.77148C 20.0326 -3.32878 19.8633 -2.69889 19.8633 -1.88184L 19.8633 -1.19336C 19.8633 -0.421875 20.0244 0.191732 20.3467 0.647461C 20.6689 1.10319 21.1198 1.33105 21.6992 1.33105C 22.2201 1.33105 22.6188 1.21387 22.8955 0.979492C 23.1755 0.741862 23.361 0.330078 23.4521 -0.255859L 24.3945 -0.255859ZM 25.2979 -0.69043C 25.2979 -1.20801 25.3988 -1.6735 25.6006 -2.08691C 25.8057 -2.50033 26.0889 -2.81934 26.4502 -3.04395C 26.8148 -3.26855 27.2298 -3.38086 27.6953 -3.38086C 28.4147 -3.38086 28.9958 -3.13184 29.4385 -2.63379C 29.8844 -2.13574 30.1074 -1.47331 30.1074 -0.646484L 30.1074 -0.583008C 30.1074 -0.0686848 30.0081 0.393555 29.8096 0.803711C 29.6143 1.21061 29.3327 1.52799 28.9648 1.75586C 28.6003 1.98372 28.1803 2.09766 27.7051 2.09766C 26.9889 2.09766 26.4079 1.84863 25.9619 1.35059C 25.5192 0.852539 25.2979 0.193359 25.2979 -0.626953L 25.2979 -0.69043ZM 26.2061 -0.583008C 26.2061 0.00292969 26.3411 0.473307 26.6113 0.828125C 26.8848 1.18294 27.2493 1.36035 27.7051 1.36035C 28.1641 1.36035 28.5286 1.18132 28.7988 0.823242C 29.069 0.461914 29.2041 -0.0426433 29.2041 -0.69043C 29.2041 -1.26986 29.0658 -1.73861 28.7891 -2.09668C 28.5156 -2.45801 28.151 -2.63867 27.6953 -2.63867C 27.2493 -2.63867 26.8896 -2.46126 26.6162 -2.10645C 26.3428 -1.75163 26.2061 -1.24382 26.2061 -0.583008ZM 32.0947 -3.2832L 32.124 -2.61914C 32.5277 -3.12695 33.055 -3.38086 33.7061 -3.38086C 34.8226 -3.38086 35.3857 -2.75098 35.3955 -1.49121L 35.3955 2L 34.4922 2L 34.4922 -1.49609C 34.4889 -1.87695 34.401 -2.15853 34.2285 -2.34082C 34.0592 -2.52311 33.7939 -2.61426 33.4326 -2.61426C 33.1396 -2.61426 32.8825 -2.53613 32.6611 -2.37988C 32.4398 -2.22363 32.2673 -2.01855 32.1436 -1.76465L 32.1436 2L 31.2402 2L 31.2402 -3.2832L 32.0947 -3.2832ZM 37.6904 -3.2832L 37.6904 2.61035C 37.6904 3.62598 37.2298 4.13379 36.3086 4.13379C 36.11 4.13379 35.9261 4.10449 35.7568 4.0459L 35.7568 3.32324C 35.861 3.34928 35.9977 3.3623 36.167 3.3623C 36.3688 3.3623 36.5218 3.30697 36.626 3.19629C 36.7334 3.08887 36.7871 2.90007 36.7871 2.62988L 36.7871 -3.2832L 37.6904 -3.2832ZM 36.6943 -4.68457C 36.6943 -4.8278 36.7383 -4.94987 36.8262 -5.05078C 36.9173 -5.15495 37.0492 -5.20703 37.2217 -5.20703C 37.3975 -5.20703 37.5309 -5.15658 37.6221 -5.05566C 37.7132 -4.95475 37.7588 -4.83105 37.7588 -4.68457C 37.7588 -4.53809 37.7132 -4.41602 37.6221 -4.31836C 37.5309 -4.2207 37.3975 -4.17188 37.2217 -4.17188C 37.0459 -4.17188 36.9141 -4.2207 36.8262 -4.31836C 36.7383 -4.41602 36.6943 -4.53809 36.6943 -4.68457ZM 42.4121 1.47754C 42.0605 1.89095 41.5446 2.09766 40.8643 2.09766C 40.3011 2.09766 39.8714 1.9349 39.5752 1.60938C 39.2822 1.2806 39.1341 0.795573 39.1309 0.154297L 39.1309 -3.2832L 40.0342 -3.2832L 40.0342 0.129883C 40.0342 0.930664 40.3597 1.33105 41.0107 1.33105C 41.7008 1.33105 42.1598 1.07389 42.3877 0.55957L 42.3877 -3.2832L 43.291 -3.2832L 43.291 2L 42.4316 2L 42.4121 1.47754ZM 45.5225 -3.2832L 45.5518 -2.61914C 45.9554 -3.12695 46.4827 -3.38086 47.1338 -3.38086C 48.2503 -3.38086 48.8135 -2.75098 48.8232 -1.49121L 48.8232 2L 47.9199 2L 47.9199 -1.49609C 47.9167 -1.87695 47.8288 -2.15853 47.6562 -2.34082C 47.487 -2.52311 47.2217 -2.61426 46.8604 -2.61426C 46.5674 -2.61426 46.3102 -2.53613 46.0889 -2.37988C 45.8675 -2.22363 45.695 -2.01855 45.5713 -1.76465L 45.5713 2L 44.668 2L 44.668 -3.2832L 45.5225 -3.2832ZM 52.3047 1.36035C 52.627 1.36035 52.9085 1.2627 53.1494 1.06738C 53.3903 0.87207 53.5238 0.62793 53.5498 0.334961L 54.4043 0.334961C 54.388 0.637695 54.2839 0.925781 54.0918 1.19922C 53.8997 1.47266 53.6426 1.69076 53.3203 1.85352C 53.0013 2.01628 52.6628 2.09766 52.3047 2.09766C 51.5853 2.09766 51.0124 1.8584 50.5859 1.37988C 50.1628 0.898112 49.9512 0.24056 49.9512 -0.592773L 49.9512 -0.744141C 49.9512 -1.25846 50.0456 -1.71582 50.2344 -2.11621C 50.4232 -2.5166 50.6934 -2.82747 51.0449 -3.04883C 51.3997 -3.27018 51.818 -3.38086 52.2998 -3.38086C 52.8923 -3.38086 53.3838 -3.20345 53.7744 -2.84863C 54.1683 -2.49382 54.3783 -2.0332 54.4043 -1.4668L 53.5498 -1.4668C 53.5238 -1.80859 53.3936 -2.08854 53.1592 -2.30664C 52.9281 -2.52799 52.6416 -2.63867 52.2998 -2.63867C 51.8408 -2.63867 51.4844 -2.47266 51.2305 -2.14062C 50.9798 -1.81185 50.8545 -1.33496 50.8545 -0.709961L 50.8545 -0.539062C 50.8545 0.0696614 50.9798 0.538411 51.2305 0.867188C 51.4811 1.19596 51.8392 1.36035 52.3047 1.36035ZM 56.6455 -4.5625L 56.6455 -3.2832L 57.6318 -3.2832L 57.6318 -2.58496L 56.6455 -2.58496L 56.6455 0.691406C 56.6455 0.902995 56.6895 1.0625 56.7773 1.16992C 56.8652 1.27409 57.015 1.32617 57.2266 1.32617C 57.3307 1.32617 57.474 1.30664 57.6562 1.26758L 57.6562 2C 57.4186 2.0651 57.1875 2.09766 56.9629 2.09766C 56.5592 2.09766 56.2549 1.97559 56.0498 1.73145C 55.8447 1.4873 55.7422 1.14062 55.7422 0.691406L 55.7422 -2.58496L 54.7803 -2.58496L 54.7803 -3.2832L 55.7422 -3.2832L 55.7422 -4.5625L 56.6455 -4.5625ZM 59.6729 2L 58.7695 2L 58.7695 -3.2832L 59.6729 -3.2832L 59.6729 2ZM 58.6963 -4.68457C 58.6963 -4.83105 58.7402 -4.95475 58.8281 -5.05566C 58.9193 -5.15658 59.0527 -5.20703 59.2285 -5.20703C 59.4043 -5.20703 59.5378 -5.15658 59.6289 -5.05566C 59.7201 -4.95475 59.7656 -4.83105 59.7656 -4.68457C 59.7656 -4.53809 59.7201 -4.41602 59.6289 -4.31836C 59.5378 -4.2207 59.4043 -4.17188 59.2285 -4.17188C 59.0527 -4.17188 58.9193 -4.2207 58.8281 -4.31836C 58.7402 -4.41602 58.6963 -4.53809 58.6963 -4.68457ZM 60.8838 -0.69043C 60.8838 -1.20801 60.9847 -1.6735 61.1865 -2.08691C 61.3916 -2.50033 61.6748 -2.81934 62.0361 -3.04395C 62.4007 -3.26855 62.8158 -3.38086 63.2812 -3.38086C 64.0007 -3.38086 64.5817 -3.13184 65.0244 -2.63379C 65.4704 -2.13574 65.6934 -1.47331 65.6934 -0.646484L 65.6934 -0.583008C 65.6934 -0.0686848 65.5941 0.393555 65.3955 0.803711C 65.2002 1.21061 64.9186 1.52799 64.5508 1.75586C 64.1862 1.98372 63.7663 2.09766 63.291 2.09766C 62.5749 2.09766 61.9938 1.84863 61.5479 1.35059C 61.1051 0.852539 60.8838 0.193359 60.8838 -0.626953L 60.8838 -0.69043ZM 61.792 -0.583008C 61.792 0.00292969 61.9271 0.473307 62.1973 0.828125C 62.4707 1.18294 62.8353 1.36035 63.291 1.36035C 63.75 1.36035 64.1146 1.18132 64.3848 0.823242C 64.6549 0.461914 64.79 -0.0426433 64.79 -0.69043C 64.79 -1.26986 64.6517 -1.73861 64.375 -2.09668C 64.1016 -2.45801 63.737 -2.63867 63.2812 -2.63867C 62.8353 -2.63867 62.4756 -2.46126 62.2021 -2.10645C 61.9287 -1.75163 61.792 -1.24382 61.792 -0.583008ZM 67.6807 -3.2832L 67.71 -2.61914C 68.1136 -3.12695 68.641 -3.38086 69.292 -3.38086C 70.4085 -3.38086 70.9717 -2.75098 70.9814 -1.49121L 70.9814 2L 70.0781 2L 70.0781 -1.49609C 70.0749 -1.87695 69.987 -2.15853 69.8145 -2.34082C 69.6452 -2.52311 69.3799 -2.61426 69.0186 -2.61426C 68.7256 -2.61426 68.4684 -2.53613 68.2471 -2.37988C 68.0257 -2.22363 67.8532 -2.01855 67.7295 -1.76465L 67.7295 2L 66.8262 2L 66.8262 -3.2832L 67.6807 -3.2832ZM 37.7881 13.0674C 37.5472 13.4124 37.2103 13.6712 36.7773 13.8438C 36.3477 14.013 35.8464 14.0977 35.2734 14.0977C 34.694 14.0977 34.1797 13.9626 33.7305 13.6924C 33.2812 13.4189 32.9329 13.0316 32.6855 12.5303C 32.4414 12.029 32.3161 11.4479 32.3096 10.7871L 32.3096 10.167C 32.3096 9.09603 32.5586 8.26595 33.0566 7.67676C 33.5579 7.08757 34.2611 6.79297 35.166 6.79297C 35.9082 6.79297 36.5055 6.9834 36.958 7.36426C 37.4105 7.74186 37.6872 8.27897 37.7881 8.97559L 36.8506 8.97559C 36.6748 8.03483 36.1149 7.56445 35.1709 7.56445C 34.5426 7.56445 34.0658 7.78581 33.7402 8.22852C 33.418 8.66797 33.2552 9.30599 33.252 10.1426L 33.252 10.7236C 33.252 11.5212 33.4342 12.1559 33.7988 12.6279C 34.1634 13.0967 34.6566 13.3311 35.2783 13.3311C 35.6299 13.3311 35.9375 13.292 36.2012 13.2139C 36.4648 13.1357 36.6829 13.0039 36.8555 12.8184L 36.8555 11.2217L 35.21 11.2217L 35.21 10.46L 37.7881 10.46L 37.7881 13.0674ZM 41.7676 9.52734C 41.6309 9.50456 41.4827 9.49316 41.3232 9.49316C 40.7308 9.49316 40.3288 9.74544 40.1172 10.25L 40.1172 14L 39.2139 14L 39.2139 8.7168L 40.0928 8.7168L 40.1074 9.32715C 40.4036 8.85514 40.8236 8.61914 41.3672 8.61914C 41.543 8.61914 41.6764 8.64193 41.7676 8.6875L 41.7676 9.52734ZM 45.6689 14C 45.6169 13.8958 45.5745 13.7103 45.542 13.4434C 45.1221 13.8796 44.6208 14.0977 44.0381 14.0977C 43.5173 14.0977 43.0892 13.9512 42.7539 13.6582C 42.4219 13.362 42.2559 12.9876 42.2559 12.5352C 42.2559 11.985 42.4642 11.5586 42.8809 11.2559C 43.3008 10.9499 43.89 10.7969 44.6484 10.7969L 45.5273 10.7969L 45.5273 10.3818C 45.5273 10.0661 45.4329 9.81543 45.2441 9.62988C 45.0553 9.44108 44.777 9.34668 44.4092 9.34668C 44.0869 9.34668 43.8167 9.42806 43.5986 9.59082C 43.3805 9.75358 43.2715 9.95052 43.2715 10.1816L 42.3633 10.1816C 42.3633 9.91797 42.4561 9.66406 42.6416 9.41992C 42.8304 9.17253 43.0843 8.97721 43.4033 8.83398C 43.7256 8.69076 44.0788 8.61914 44.4629 8.61914C 45.0716 8.61914 45.5485 8.77214 45.8936 9.07812C 46.2386 9.38086 46.4176 9.79915 46.4307 10.333L 46.4307 12.7646C 46.4307 13.2497 46.4925 13.6354 46.6162 13.9219L 46.6162 14L 45.6689 14ZM 44.1699 13.3115C 44.4531 13.3115 44.7217 13.2383 44.9756 13.0918C 45.2295 12.9453 45.4134 12.7549 45.5273 12.5205L 45.5273 11.4365L 44.8193 11.4365C 43.7126 11.4365 43.1592 11.7604 43.1592 12.4082C 43.1592 12.6914 43.2536 12.9128 43.4424 13.0723C 43.6312 13.2318 43.8737 13.3115 44.1699 13.3115ZM 52.3096 11.417C 52.3096 12.221 52.1257 12.8688 51.7578 13.3604C 51.39 13.8519 50.8919 14.0977 50.2637 14.0977C 49.6224 14.0977 49.1178 13.8942 48.75 13.4873L 48.75 16.0312L 47.8467 16.0312L 47.8467 8.7168L 48.6719 8.7168L 48.7158 9.30273C 49.0837 8.84701 49.5947 8.61914 50.249 8.61914C 50.8838 8.61914 51.3851 8.8584 51.7529 9.33691C 52.124 9.81543 52.3096 10.4811 52.3096 11.334L 52.3096 11.417ZM 51.4062 11.3145C 51.4062 10.7188 51.2793 10.2484 51.0254 9.90332C 50.7715 9.55827 50.4232 9.38574 49.9805 9.38574C 49.4336 9.38574 49.0234 9.62826 48.75 10.1133L 48.75 12.6377C 49.0202 13.1195 49.4336 13.3604 49.9902 13.3604C 50.4232 13.3604 50.7666 13.1895 51.0205 12.8477C 51.2777 12.5026 51.4062 11.9915 51.4062 11.3145ZM 54.3652 9.35645C 54.7656 8.86491 55.2865 8.61914 55.9277 8.61914C 57.0443 8.61914 57.6074 9.24902 57.6172 10.5088L 57.6172 14L 56.7139 14L 56.7139 10.5039C 56.7106 10.123 56.6227 9.84147 56.4502 9.65918C 56.2809 9.47689 56.0156 9.38574 55.6543 9.38574C 55.3613 9.38574 55.1042 9.46387 54.8828 9.62012C 54.6615 9.77637 54.4889 9.98145 54.3652 10.2354L 54.3652 14L 53.4619 14L 53.4619 6.5L 54.3652 6.5L 54.3652 9.35645Z" />
    <path
       id="path2_fill"
       d="M 15.4785 2L 14.5361 2L 10.957 -3.47852L 10.957 2L 10.0146 2L 10.0146 -5.10938L 10.957 -5.10938L 14.5459 0.393555L 14.5459 -5.10938L 15.4785 -5.10938L 15.4785 2ZM 19.1943 2.09766C 18.4782 2.09766 17.8955 1.86328 17.4463 1.39453C 16.9971 0.922526 16.7725 0.292643 16.7725 -0.495117L 16.7725 -0.661133C 16.7725 -1.18522 16.8717 -1.65234 17.0703 -2.0625C 17.2721 -2.47591 17.5521 -2.79818 17.9102 -3.0293C 18.2715 -3.26367 18.6621 -3.38086 19.082 -3.38086C 19.7689 -3.38086 20.3027 -3.15462 20.6836 -2.70215C 21.0645 -2.24967 21.2549 -1.60189 21.2549 -0.758789L 21.2549 -0.382812L 17.6758 -0.382812C 17.6888 0.138021 17.8402 0.55957 18.1299 0.881836C 18.4229 1.20085 18.7939 1.36035 19.2432 1.36035C 19.5622 1.36035 19.8324 1.29525 20.0537 1.16504C 20.2751 1.03483 20.4688 0.862305 20.6348 0.647461L 21.1865 1.07715C 20.7438 1.75749 20.0798 2.09766 19.1943 2.09766ZM 19.082 -2.63867C 18.7174 -2.63867 18.4115 -2.50521 18.1641 -2.23828C 17.9167 -1.97461 17.7637 -1.60352 17.7051 -1.125L 20.3516 -1.125L 20.3516 -1.19336C 20.3255 -1.65234 20.2018 -2.00716 19.9805 -2.25781C 19.7591 -2.51172 19.4596 -2.63867 19.082 -2.63867ZM 26.9824 0.754883L 27.998 -3.2832L 28.9014 -3.2832L 27.3633 2L 26.6309 2L 25.3467 -2.00391L 24.0967 2L 23.3643 2L 21.8311 -3.2832L 22.7295 -3.2832L 23.7695 0.671875L 25 -3.2832L 25.7275 -3.2832L 26.9824 0.754883ZM 34.2529 -1.30566L 33.3838 -0.402344L 33.3838 2L 32.4463 2L 32.4463 -5.10938L 33.3838 -5.10938L 33.3838 -1.59375L 36.543 -5.10938L 37.6758 -5.10938L 34.8779 -1.96973L 37.8955 2L 36.7725 2L 34.2529 -1.30566ZM 39.3115 -3.2832L 39.3408 -2.61914C 39.7445 -3.12695 40.2718 -3.38086 40.9229 -3.38086C 42.0394 -3.38086 42.6025 -2.75098 42.6123 -1.49121L 42.6123 2L 41.709 2L 41.709 -1.49609C 41.7057 -1.87695 41.6178 -2.15853 41.4453 -2.34082C 41.276 -2.52311 41.0107 -2.61426 40.6494 -2.61426C 40.3564 -2.61426 40.0993 -2.53613 39.8779 -2.37988C 39.6566 -2.22363 39.484 -2.01855 39.3604 -1.76465L 39.3604 2L 38.457 2L 38.457 -3.2832L 39.3115 -3.2832ZM 43.7354 -0.69043C 43.7354 -1.20801 43.8363 -1.6735 44.0381 -2.08691C 44.2432 -2.50033 44.5264 -2.81934 44.8877 -3.04395C 45.2523 -3.26855 45.6673 -3.38086 46.1328 -3.38086C 46.8522 -3.38086 47.4333 -3.13184 47.876 -2.63379C 48.3219 -2.13574 48.5449 -1.47331 48.5449 -0.646484L 48.5449 -0.583008C 48.5449 -0.0686848 48.4456 0.393555 48.2471 0.803711C 48.0518 1.21061 47.7702 1.52799 47.4023 1.75586C 47.0378 1.98372 46.6178 2.09766 46.1426 2.09766C 45.4264 2.09766 44.8454 1.84863 44.3994 1.35059C 43.9567 0.852539 43.7354 0.193359 43.7354 -0.626953L 43.7354 -0.69043ZM 44.6436 -0.583008C 44.6436 0.00292969 44.7786 0.473307 45.0488 0.828125C 45.3223 1.18294 45.6868 1.36035 46.1426 1.36035C 46.6016 1.36035 46.9661 1.18132 47.2363 0.823242C 47.5065 0.461914 47.6416 -0.0426433 47.6416 -0.69043C 47.6416 -1.26986 47.5033 -1.73861 47.2266 -2.09668C 46.9531 -2.45801 46.5885 -2.63867 46.1328 -2.63867C 45.6868 -2.63867 45.3271 -2.46126 45.0537 -2.10645C 44.7803 -1.75163 44.6436 -1.24382 44.6436 -0.583008ZM 54.3555 0.754883L 55.3711 -3.2832L 56.2744 -3.2832L 54.7363 2L 54.0039 2L 52.7197 -2.00391L 51.4697 2L 50.7373 2L 49.2041 -3.2832L 50.1025 -3.2832L 51.1426 0.671875L 52.373 -3.2832L 53.1006 -3.2832L 54.3555 0.754883ZM 58.1787 2L 57.2754 2L 57.2754 -5.5L 58.1787 -5.5L 58.1787 2ZM 61.8213 2.09766C 61.1051 2.09766 60.5225 1.86328 60.0732 1.39453C 59.624 0.922526 59.3994 0.292643 59.3994 -0.495117L 59.3994 -0.661133C 59.3994 -1.18522 59.4987 -1.65234 59.6973 -2.0625C 59.8991 -2.47591 60.179 -2.79818 60.5371 -3.0293C 60.8984 -3.26367 61.2891 -3.38086 61.709 -3.38086C 62.3958 -3.38086 62.9297 -3.15462 63.3105 -2.70215C 63.6914 -2.24967 63.8818 -1.60189 63.8818 -0.758789L 63.8818 -0.382812L 60.3027 -0.382812C 60.3158 0.138021 60.4671 0.55957 60.7568 0.881836C 61.0498 1.20085 61.4209 1.36035 61.8701 1.36035C 62.1891 1.36035 62.4593 1.29525 62.6807 1.16504C 62.902 1.03483 63.0957 0.862305 63.2617 0.647461L 63.8135 1.07715C 63.3708 1.75749 62.7067 2.09766 61.8213 2.09766ZM 61.709 -2.63867C 61.3444 -2.63867 61.0384 -2.50521 60.791 -2.23828C 60.5436 -1.97461 60.3906 -1.60352 60.332 -1.125L 62.9785 -1.125L 62.9785 -1.19336C 62.9525 -1.65234 62.8288 -2.00716 62.6074 -2.25781C 62.3861 -2.51172 62.0866 -2.63867 61.709 -2.63867ZM 64.7119 -0.685547C 64.7119 -1.49609 64.904 -2.14714 65.2881 -2.63867C 65.6722 -3.13346 66.1751 -3.38086 66.7969 -3.38086C 67.4154 -3.38086 67.9053 -3.16927 68.2666 -2.74609L 68.2666 -5.5L 69.1699 -5.5L 69.1699 2L 68.3398 2L 68.2959 1.43359C 67.9346 1.8763 67.4316 2.09766 66.7871 2.09766C 66.1751 2.09766 65.6755 1.84701 65.2881 1.3457C 64.904 0.844401 64.7119 0.190104 64.7119 -0.617188L 64.7119 -0.685547ZM 65.6152 -0.583008C 65.6152 0.0159505 65.7389 0.4847 65.9863 0.823242C 66.2337 1.16178 66.5755 1.33105 67.0117 1.33105C 67.5846 1.33105 68.0029 1.07389 68.2666 0.55957L 68.2666 -1.86719C 67.9964 -2.36523 67.5814 -2.61426 67.0215 -2.61426C 66.5788 -2.61426 66.2337 -2.44336 65.9863 -2.10156C 65.7389 -1.75977 65.6152 -1.25358 65.6152 -0.583008ZM 70.3613 -0.685547C 70.3613 -1.50911 70.5518 -2.16341 70.9326 -2.64844C 71.3135 -3.13672 71.818 -3.38086 72.4463 -3.38086C 73.0908 -3.38086 73.5938 -3.15299 73.9551 -2.69727L 73.999 -3.2832L 74.8242 -3.2832L 74.8242 1.87305C 74.8242 2.55664 74.6208 3.09538 74.2139 3.48926C 73.8102 3.88314 73.2666 4.08008 72.583 4.08008C 72.2021 4.08008 71.8294 3.9987 71.4648 3.83594C 71.1003 3.67318 70.8219 3.4502 70.6299 3.16699L 71.0986 2.625C 71.486 3.10352 71.9596 3.34277 72.5195 3.34277C 72.959 3.34277 73.3008 3.21908 73.5449 2.97168C 73.7923 2.72428 73.916 2.37598 73.916 1.92676L 73.916 1.47266C 73.5547 1.88932 73.0615 2.09766 72.4365 2.09766C 71.818 2.09766 71.3167 1.84863 70.9326 1.35059C 70.5518 0.852539 70.3613 0.173828 70.3613 -0.685547ZM 71.2695 -0.583008C 71.2695 0.0126953 71.3916 0.481445 71.6357 0.823242C 71.8799 1.16178 72.2217 1.33105 72.6611 1.33105C 73.2308 1.33105 73.6491 1.07227 73.916 0.554688L 73.916 -1.85742C 73.6393 -2.36198 73.2243 -2.61426 72.6709 -2.61426C 72.2314 -2.61426 71.888 -2.44336 71.6406 -2.10156C 71.3932 -1.75977 71.2695 -1.25358 71.2695 -0.583008ZM 78.3838 2.09766C 77.6676 2.09766 77.085 1.86328 76.6357 1.39453C 76.1865 0.922526 75.9619 0.292643 75.9619 -0.495117L 75.9619 -0.661133C 75.9619 -1.18522 76.0612 -1.65234 76.2598 -2.0625C 76.4616 -2.47591 76.7415 -2.79818 77.0996 -3.0293C 77.4609 -3.26367 77.8516 -3.38086 78.2715 -3.38086C 78.9583 -3.38086 79.4922 -3.15462 79.873 -2.70215C 80.2539 -2.24967 80.4443 -1.60189 80.4443 -0.758789L 80.4443 -0.382812L 76.8652 -0.382812C 76.8783 0.138021 77.0296 0.55957 77.3193 0.881836C 77.6123 1.20085 77.9834 1.36035 78.4326 1.36035C 78.7516 1.36035 79.0218 1.29525 79.2432 1.16504C 79.4645 1.03483 79.6582 0.862305 79.8242 0.647461L 80.376 1.07715C 79.9333 1.75749 79.2692 2.09766 78.3838 2.09766ZM 78.2715 -2.63867C 77.9069 -2.63867 77.6009 -2.50521 77.3535 -2.23828C 77.1061 -1.97461 76.9531 -1.60352 76.8945 -1.125L 79.541 -1.125L 79.541 -1.19336C 79.515 -1.65234 79.3913 -2.00716 79.1699 -2.25781C 78.9486 -2.51172 78.6491 -2.63867 78.2715 -2.63867ZM 37.7881 13.0674C 37.5472 13.4124 37.2103 13.6712 36.7773 13.8438C 36.3477 14.013 35.8464 14.0977 35.2734 14.0977C 34.694 14.0977 34.1797 13.9626 33.7305 13.6924C 33.2812 13.4189 32.9329 13.0316 32.6855 12.5303C 32.4414 12.029 32.3161 11.4479 32.3096 10.7871L 32.3096 10.167C 32.3096 9.09603 32.5586 8.26595 33.0566 7.67676C 33.5579 7.08757 34.2611 6.79297 35.166 6.79297C 35.9082 6.79297 36.5055 6.9834 36.958 7.36426C 37.4105 7.74186 37.6872 8.27897 37.7881 8.97559L 36.8506 8.97559C 36.6748 8.03483 36.1149 7.56445 35.1709 7.56445C 34.5426 7.56445 34.0658 7.78581 33.7402 8.22852C 33.418 8.66797 33.2552 9.30599 33.252 10.1426L 33.252 10.7236C 33.252 11.5212 33.4342 12.1559 33.7988 12.6279C 34.1634 13.0967 34.6566 13.3311 35.2783 13.3311C 35.6299 13.3311 35.9375 13.292 36.2012 13.2139C 36.4648 13.1357 36.6829 13.0039 36.8555 12.8184L 36.8555 11.2217L 35.21 11.2217L 35.21 10.46L 37.7881 10.46L 37.7881 13.0674ZM 41.7676 9.52734C 41.6309 9.50456 41.4827 9.49316 41.3232 9.49316C 40.7308 9.49316 40.3288 9.74544 40.1172 10.25L 40.1172 14L 39.2139 14L 39.2139 8.7168L 40.0928 8.7168L 40.1074 9.32715C 40.4036 8.85514 40.8236 8.61914 41.3672 8.61914C 41.543 8.61914 41.6764 8.64193 41.7676 8.6875L 41.7676 9.52734ZM 45.6689 14C 45.6169 13.8958 45.5745 13.7103 45.542 13.4434C 45.1221 13.8796 44.6208 14.0977 44.0381 14.0977C 43.5173 14.0977 43.0892 13.9512 42.7539 13.6582C 42.4219 13.362 42.2559 12.9876 42.2559 12.5352C 42.2559 11.985 42.4642 11.5586 42.8809 11.2559C 43.3008 10.9499 43.89 10.7969 44.6484 10.7969L 45.5273 10.7969L 45.5273 10.3818C 45.5273 10.0661 45.4329 9.81543 45.2441 9.62988C 45.0553 9.44108 44.777 9.34668 44.4092 9.34668C 44.0869 9.34668 43.8167 9.42806 43.5986 9.59082C 43.3805 9.75358 43.2715 9.95052 43.2715 10.1816L 42.3633 10.1816C 42.3633 9.91797 42.4561 9.66406 42.6416 9.41992C 42.8304 9.17253 43.0843 8.97721 43.4033 8.83398C 43.7256 8.69076 44.0788 8.61914 44.4629 8.61914C 45.0716 8.61914 45.5485 8.77214 45.8936 9.07812C 46.2386 9.38086 46.4176 9.79915 46.4307 10.333L 46.4307 12.7646C 46.4307 13.2497 46.4925 13.6354 46.6162 13.9219L 46.6162 14L 45.6689 14ZM 44.1699 13.3115C 44.4531 13.3115 44.7217 13.2383 44.9756 13.0918C 45.2295 12.9453 45.4134 12.7549 45.5273 12.5205L 45.5273 11.4365L 44.8193 11.4365C 43.7126 11.4365 43.1592 11.7604 43.1592 12.4082C 43.1592 12.6914 43.2536 12.9128 43.4424 13.0723C 43.6312 13.2318 43.8737 13.3115 44.1699 13.3115ZM 52.3096 11.417C 52.3096 12.221 52.1257 12.8688 51.7578 13.3604C 51.39 13.8519 50.8919 14.0977 50.2637 14.0977C 49.6224 14.0977 49.1178 13.8942 48.75 13.4873L 48.75 16.0312L 47.8467 16.0312L 47.8467 8.7168L 48.6719 8.7168L 48.7158 9.30273C 49.0837 8.84701 49.5947 8.61914 50.249 8.61914C 50.8838 8.61914 51.3851 8.8584 51.7529 9.33691C 52.124 9.81543 52.3096 10.4811 52.3096 11.334L 52.3096 11.417ZM 51.4062 11.3145C 51.4062 10.7188 51.2793 10.2484 51.0254 9.90332C 50.7715 9.55827 50.4232 9.38574 49.9805 9.38574C 49.4336 9.38574 49.0234 9.62826 48.75 10.1133L 48.75 12.6377C 49.0202 13.1195 49.4336 13.3604 49.9902 13.3604C 50.4232 13.3604 50.7666 13.1895 51.0205 12.8477C 51.2777 12.5026 51.4062 11.9915 51.4062 11.3145ZM 54.3652 9.35645C 54.7656 8.86491 55.2865 8.61914 55.9277 8.61914C 57.0443 8.61914 57.6074 9.24902 57.6172 10.5088L 57.6172 14L 56.7139 14L 56.7139 10.5039C 56.7106 10.123 56.6227 9.84147 56.4502 9.65918C 56.2809 9.47689 56.0156 9.38574 55.6543 9.38574C 55.3613 9.38574 55.1042 9.46387 54.8828 9.62012C 54.6615 9.77637 54.4889 9.98145 54.3652 10.2354L 54.3652 14L 53.4619 14L 53.4619 6.5L 54.3652 6.5L 54.3652 9.35645Z" />
    <path
       id="path3_fill"
       d="M 17.5488 5.2168L 17.5488 8L 16.6113 8L 16.6113 0.890625L 19.2334 0.890625C 20.0114 0.890625 20.6201 1.08919 21.0596 1.48633C 21.5023 1.88346 21.7236 2.40918 21.7236 3.06348C 21.7236 3.75358 21.5072 4.28581 21.0742 4.66016C 20.6445 5.03125 20.0277 5.2168 19.2236 5.2168L 17.5488 5.2168ZM 17.5488 4.4502L 19.2334 4.4502C 19.7347 4.4502 20.1188 4.33301 20.3857 4.09863C 20.6527 3.861 20.7861 3.51921 20.7861 3.07324C 20.7861 2.65007 20.6527 2.31152 20.3857 2.05762C 20.1188 1.80371 19.7526 1.67188 19.2871 1.66211L 17.5488 1.66211L 17.5488 4.4502ZM 25.0146 4.83105C 24.2106 4.59993 23.6247 4.31673 23.2568 3.98145C 22.8923 3.6429 22.71 3.22624 22.71 2.73145C 22.71 2.17155 22.9329 1.70931 23.3789 1.34473C 23.8281 0.976888 24.4108 0.792969 25.127 0.792969C 25.6152 0.792969 26.0498 0.88737 26.4307 1.07617C 26.8148 1.26497 27.111 1.52539 27.3193 1.85742C 27.5309 2.18945 27.6367 2.55241 27.6367 2.94629L 26.6943 2.94629C 26.6943 2.5166 26.5576 2.17969 26.2842 1.93555C 26.0107 1.68815 25.625 1.56445 25.127 1.56445C 24.6647 1.56445 24.3034 1.66699 24.043 1.87207C 23.7858 2.07389 23.6572 2.35547 23.6572 2.7168C 23.6572 3.00651 23.7793 3.25228 24.0234 3.4541C 24.2708 3.65267 24.6891 3.83496 25.2783 4.00098C 25.8708 4.16699 26.333 4.35091 26.665 4.55273C 27.0003 4.7513 27.2477 4.98405 27.4072 5.25098C 27.57 5.5179 27.6514 5.83203 27.6514 6.19336C 27.6514 6.76953 27.4268 7.23177 26.9775 7.58008C 26.5283 7.92513 25.9277 8.09766 25.1758 8.09766C 24.6875 8.09766 24.2318 8.00488 23.8086 7.81934C 23.3854 7.63053 23.0583 7.37337 22.8271 7.04785C 22.5993 6.72233 22.4854 6.35286 22.4854 5.93945L 23.4277 5.93945C 23.4277 6.36914 23.5856 6.70931 23.9014 6.95996C 24.2204 7.20736 24.6452 7.33105 25.1758 7.33105C 25.6706 7.33105 26.0498 7.23014 26.3135 7.02832C 26.5771 6.8265 26.709 6.55143 26.709 6.20312C 26.709 5.85482 26.5869 5.58626 26.3428 5.39746C 26.0986 5.2054 25.6559 5.0166 25.0146 4.83105ZM 29.7998 7.2334L 33.1689 7.2334L 33.1689 8L 28.8574 8L 28.8574 0.890625L 29.7998 0.890625L 29.7998 7.2334ZM 37.6562 5.2168L 37.6562 8L 36.7188 8L 36.7188 0.890625L 39.3408 0.890625C 40.1188 0.890625 40.7275 1.08919 41.167 1.48633C 41.6097 1.88346 41.8311 2.40918 41.8311 3.06348C 41.8311 3.75358 41.6146 4.28581 41.1816 4.66016C 40.752 5.03125 40.1351 5.2168 39.3311 5.2168L 37.6562 5.2168ZM 37.6562 4.4502L 39.3408 4.4502C 39.8421 4.4502 40.2262 4.33301 40.4932 4.09863C 40.7601 3.861 40.8936 3.51921 40.8936 3.07324C 40.8936 2.65007 40.7601 2.31152 40.4932 2.05762C 40.2262 1.80371 39.86 1.67188 39.3945 1.66211L 37.6562 1.66211L 37.6562 4.4502ZM 45.4395 3.52734C 45.3027 3.50456 45.1546 3.49316 44.9951 3.49316C 44.4027 3.49316 44.0007 3.74544 43.7891 4.25L 43.7891 8L 42.8857 8L 42.8857 2.7168L 43.7646 2.7168L 43.7793 3.32715C 44.0755 2.85514 44.4954 2.61914 45.0391 2.61914C 45.2148 2.61914 45.3483 2.64193 45.4395 2.6875L 45.4395 3.52734ZM 45.9375 5.30957C 45.9375 4.79199 46.0384 4.3265 46.2402 3.91309C 46.4453 3.49967 46.7285 3.18066 47.0898 2.95605C 47.4544 2.73145 47.8695 2.61914 48.335 2.61914C 49.0544 2.61914 49.6354 2.86816 50.0781 3.36621C 50.5241 3.86426 50.7471 4.52669 50.7471 5.35352L 50.7471 5.41699C 50.7471 5.93132 50.6478 6.39355 50.4492 6.80371C 50.2539 7.21061 49.9723 7.52799 49.6045 7.75586C 49.2399 7.98372 48.82 8.09766 48.3447 8.09766C 47.6286 8.09766 47.0475 7.84863 46.6016 7.35059C 46.1589 6.85254 45.9375 6.19336 45.9375 5.37305L 45.9375 5.30957ZM 46.8457 5.41699C 46.8457 6.00293 46.9808 6.47331 47.251 6.82812C 47.5244 7.18294 47.889 7.36035 48.3447 7.36035C 48.8037 7.36035 49.1683 7.18132 49.4385 6.82324C 49.7087 6.46191 49.8438 5.95736 49.8438 5.30957C 49.8438 4.73014 49.7054 4.26139 49.4287 3.90332C 49.1553 3.54199 48.7907 3.36133 48.335 3.36133C 47.889 3.36133 47.5293 3.53874 47.2559 3.89355C 46.9824 4.24837 46.8457 4.75618 46.8457 5.41699ZM 51.665 5.31445C 51.665 4.49089 51.8555 3.83659 52.2363 3.35156C 52.6172 2.86328 53.1217 2.61914 53.75 2.61914C 54.3945 2.61914 54.8975 2.84701 55.2588 3.30273L 55.3027 2.7168L 56.1279 2.7168L 56.1279 7.87305C 56.1279 8.55664 55.9245 9.09538 55.5176 9.48926C 55.1139 9.88314 54.5703 10.0801 53.8867 10.0801C 53.5059 10.0801 53.1331 9.9987 52.7686 9.83594C 52.404 9.67318 52.1257 9.4502 51.9336 9.16699L 52.4023 8.625C 52.7897 9.10352 53.2633 9.34277 53.8232 9.34277C 54.2627 9.34277 54.6045 9.21908 54.8486 8.97168C 55.096 8.72428 55.2197 8.37598 55.2197 7.92676L 55.2197 7.47266C 54.8584 7.88932 54.3652 8.09766 53.7402 8.09766C 53.1217 8.09766 52.6204 7.84863 52.2363 7.35059C 51.8555 6.85254 51.665 6.17383 51.665 5.31445ZM 52.5732 5.41699C 52.5732 6.0127 52.6953 6.48145 52.9395 6.82324C 53.1836 7.16178 53.5254 7.33105 53.9648 7.33105C 54.5345 7.33105 54.9528 7.07227 55.2197 6.55469L 55.2197 4.14258C 54.943 3.63802 54.528 3.38574 53.9746 3.38574C 53.5352 3.38574 53.1917 3.55664 52.9443 3.89844C 52.6969 4.24023 52.5732 4.74642 52.5732 5.41699ZM 60.0488 3.52734C 59.9121 3.50456 59.764 3.49316 59.6045 3.49316C 59.012 3.49316 58.61 3.74544 58.3984 4.25L 58.3984 8L 57.4951 8L 57.4951 2.7168L 58.374 2.7168L 58.3887 3.32715C 58.6849 2.85514 59.1048 2.61914 59.6484 2.61914C 59.8242 2.61914 59.9577 2.64193 60.0488 2.6875L 60.0488 3.52734ZM 63.9502 8C 63.8981 7.89583 63.8558 7.71029 63.8232 7.44336C 63.4033 7.87956 62.902 8.09766 62.3193 8.09766C 61.7985 8.09766 61.3704 7.95117 61.0352 7.6582C 60.7031 7.36198 60.5371 6.98763 60.5371 6.53516C 60.5371 5.98503 60.7454 5.55859 61.1621 5.25586C 61.582 4.94987 62.1712 4.79688 62.9297 4.79688L 63.8086 4.79688L 63.8086 4.38184C 63.8086 4.06608 63.7142 3.81543 63.5254 3.62988C 63.3366 3.44108 63.0583 3.34668 62.6904 3.34668C 62.3682 3.34668 62.098 3.42806 61.8799 3.59082C 61.6618 3.75358 61.5527 3.95052 61.5527 4.18164L 60.6445 4.18164C 60.6445 3.91797 60.7373 3.66406 60.9229 3.41992C 61.1117 3.17253 61.3656 2.97721 61.6846 2.83398C 62.0068 2.69076 62.36 2.61914 62.7441 2.61914C 63.3529 2.61914 63.8298 2.77214 64.1748 3.07812C 64.5199 3.38086 64.6989 3.79915 64.7119 4.33301L 64.7119 6.76465C 64.7119 7.24967 64.7738 7.63542 64.8975 7.92188L 64.8975 8L 63.9502 8ZM 62.4512 7.31152C 62.7344 7.31152 63.0029 7.23828 63.2568 7.0918C 63.5107 6.94531 63.6947 6.75488 63.8086 6.52051L 63.8086 5.43652L 63.1006 5.43652C 61.9938 5.43652 61.4404 5.76042 61.4404 6.4082C 61.4404 6.69141 61.5348 6.91276 61.7236 7.07227C 61.9124 7.23177 62.1549 7.31152 62.4512 7.31152ZM 66.9775 2.7168L 67.002 3.30273C 67.3893 2.84701 67.9118 2.61914 68.5693 2.61914C 69.3083 2.61914 69.8112 2.90234 70.0781 3.46875C 70.2539 3.21484 70.4818 3.00977 70.7617 2.85352C 71.0449 2.69727 71.3786 2.61914 71.7627 2.61914C 72.9215 2.61914 73.5107 3.23275 73.5303 4.45996L 73.5303 8L 72.627 8L 72.627 4.51367C 72.627 4.13607 72.5407 3.85449 72.3682 3.66895C 72.1956 3.48014 71.9059 3.38574 71.499 3.38574C 71.1637 3.38574 70.8854 3.48665 70.6641 3.68848C 70.4427 3.88704 70.3141 4.1556 70.2783 4.49414L 70.2783 8L 69.3701 8L 69.3701 4.53809C 69.3701 3.76986 68.9941 3.38574 68.2422 3.38574C 67.6497 3.38574 67.2445 3.63802 67.0264 4.14258L 67.0264 8L 66.123 8L 66.123 2.7168L 66.9775 2.7168Z" />
    <path
       id="path4_fill"
       d="M 17.9834 -1.3252C 17.9834 -0.628581 17.8662 -0.0198567 17.6318 0.500977C 17.3975 1.01855 17.0654 1.41406 16.6357 1.6875C 16.2061 1.96094 15.7048 2.09766 15.1318 2.09766C 14.5719 2.09766 14.0755 1.96094 13.6426 1.6875C 13.2096 1.41081 12.8727 1.01855 12.6318 0.510742C 12.3942 -0.000325471 12.2721 -0.591146 12.2656 -1.26172L 12.2656 -1.77441C 12.2656 -2.45801 12.3844 -3.06185 12.6221 -3.58594C 12.8597 -4.11003 13.195 -4.51042 13.6279 -4.78711C 14.0641 -5.06706 14.5622 -5.20703 15.1221 -5.20703C 15.6917 -5.20703 16.193 -5.06868 16.626 -4.79199C 17.0622 -4.51855 17.3975 -4.11979 17.6318 -3.5957C 17.8662 -3.07487 17.9834 -2.46777 17.9834 -1.77441L 17.9834 -1.3252ZM 17.0508 -1.78418C 17.0508 -2.62728 16.8815 -3.27344 16.543 -3.72266C 16.2044 -4.17513 15.7308 -4.40137 15.1221 -4.40137C 14.5296 -4.40137 14.0625 -4.17513 13.7207 -3.72266C 13.3822 -3.27344 13.208 -2.64844 13.1982 -1.84766L 13.1982 -1.3252C 13.1982 -0.508138 13.3691 0.134766 13.7109 0.603516C 14.056 1.06901 14.5296 1.30176 15.1318 1.30176C 15.7373 1.30176 16.2061 1.08203 16.5381 0.642578C 16.8701 0.19987 17.041 -0.433268 17.0508 -1.25684L 17.0508 -1.78418ZM 20.2295 2L 19.3262 2L 19.3262 -5.5L 20.2295 -5.5L 20.2295 2ZM 21.46 -0.685547C 21.46 -1.49609 21.652 -2.14714 22.0361 -2.63867C 22.4202 -3.13346 22.9232 -3.38086 23.5449 -3.38086C 24.1634 -3.38086 24.6533 -3.16927 25.0146 -2.74609L 25.0146 -5.5L 25.918 -5.5L 25.918 2L 25.0879 2L 25.0439 1.43359C 24.6826 1.8763 24.1797 2.09766 23.5352 2.09766C 22.9232 2.09766 22.4235 1.84701 22.0361 1.3457C 21.652 0.844401 21.46 0.190104 21.46 -0.617188L 21.46 -0.685547ZM 22.3633 -0.583008C 22.3633 0.0159505 22.487 0.4847 22.7344 0.823242C 22.9818 1.16178 23.3236 1.33105 23.7598 1.33105C 24.3327 1.33105 24.751 1.07389 25.0146 0.55957L 25.0146 -1.86719C 24.7445 -2.36523 24.3294 -2.61426 23.7695 -2.61426C 23.3268 -2.61426 22.9818 -2.44336 22.7344 -2.10156C 22.487 -1.75977 22.3633 -1.25358 22.3633 -0.583008ZM 31.7529 -1.30566L 30.8838 -0.402344L 30.8838 2L 29.9463 2L 29.9463 -5.10938L 30.8838 -5.10938L 30.8838 -1.59375L 34.043 -5.10938L 35.1758 -5.10938L 32.3779 -1.96973L 35.3955 2L 34.2725 2L 31.7529 -1.30566ZM 36.8115 -3.2832L 36.8408 -2.61914C 37.2445 -3.12695 37.7718 -3.38086 38.4229 -3.38086C 39.5394 -3.38086 40.1025 -2.75098 40.1123 -1.49121L 40.1123 2L 39.209 2L 39.209 -1.49609C 39.2057 -1.87695 39.1178 -2.15853 38.9453 -2.34082C 38.776 -2.52311 38.5107 -2.61426 38.1494 -2.61426C 37.8564 -2.61426 37.5993 -2.53613 37.3779 -2.37988C 37.1566 -2.22363 36.984 -2.01855 36.8604 -1.76465L 36.8604 2L 35.957 2L 35.957 -3.2832L 36.8115 -3.2832ZM 41.2354 -0.69043C 41.2354 -1.20801 41.3363 -1.6735 41.5381 -2.08691C 41.7432 -2.50033 42.0264 -2.81934 42.3877 -3.04395C 42.7523 -3.26855 43.1673 -3.38086 43.6328 -3.38086C 44.3522 -3.38086 44.9333 -3.13184 45.376 -2.63379C 45.8219 -2.13574 46.0449 -1.47331 46.0449 -0.646484L 46.0449 -0.583008C 46.0449 -0.0686848 45.9456 0.393555 45.7471 0.803711C 45.5518 1.21061 45.2702 1.52799 44.9023 1.75586C 44.5378 1.98372 44.1178 2.09766 43.6426 2.09766C 42.9264 2.09766 42.3454 1.84863 41.8994 1.35059C 41.4567 0.852539 41.2354 0.193359 41.2354 -0.626953L 41.2354 -0.69043ZM 42.1436 -0.583008C 42.1436 0.00292969 42.2786 0.473307 42.5488 0.828125C 42.8223 1.18294 43.1868 1.36035 43.6426 1.36035C 44.1016 1.36035 44.4661 1.18132 44.7363 0.823242C 45.0065 0.461914 45.1416 -0.0426433 45.1416 -0.69043C 45.1416 -1.26986 45.0033 -1.73861 44.7266 -2.09668C 44.4531 -2.45801 44.0885 -2.63867 43.6328 -2.63867C 43.1868 -2.63867 42.8271 -2.46126 42.5537 -2.10645C 42.2803 -1.75163 42.1436 -1.24382 42.1436 -0.583008ZM 51.8555 0.754883L 52.8711 -3.2832L 53.7744 -3.2832L 52.2363 2L 51.5039 2L 50.2197 -2.00391L 48.9697 2L 48.2373 2L 46.7041 -3.2832L 47.6025 -3.2832L 48.6426 0.671875L 49.873 -3.2832L 50.6006 -3.2832L 51.8555 0.754883ZM 55.6787 2L 54.7754 2L 54.7754 -5.5L 55.6787 -5.5L 55.6787 2ZM 59.3213 2.09766C 58.6051 2.09766 58.0225 1.86328 57.5732 1.39453C 57.124 0.922526 56.8994 0.292643 56.8994 -0.495117L 56.8994 -0.661133C 56.8994 -1.18522 56.9987 -1.65234 57.1973 -2.0625C 57.3991 -2.47591 57.679 -2.79818 58.0371 -3.0293C 58.3984 -3.26367 58.7891 -3.38086 59.209 -3.38086C 59.8958 -3.38086 60.4297 -3.15462 60.8105 -2.70215C 61.1914 -2.24967 61.3818 -1.60189 61.3818 -0.758789L 61.3818 -0.382812L 57.8027 -0.382812C 57.8158 0.138021 57.9671 0.55957 58.2568 0.881836C 58.5498 1.20085 58.9209 1.36035 59.3701 1.36035C 59.6891 1.36035 59.9593 1.29525 60.1807 1.16504C 60.402 1.03483 60.5957 0.862305 60.7617 0.647461L 61.3135 1.07715C 60.8708 1.75749 60.2067 2.09766 59.3213 2.09766ZM 59.209 -2.63867C 58.8444 -2.63867 58.5384 -2.50521 58.291 -2.23828C 58.0436 -1.97461 57.8906 -1.60352 57.832 -1.125L 60.4785 -1.125L 60.4785 -1.19336C 60.4525 -1.65234 60.3288 -2.00716 60.1074 -2.25781C 59.8861 -2.51172 59.5866 -2.63867 59.209 -2.63867ZM 62.2119 -0.685547C 62.2119 -1.49609 62.404 -2.14714 62.7881 -2.63867C 63.1722 -3.13346 63.6751 -3.38086 64.2969 -3.38086C 64.9154 -3.38086 65.4053 -3.16927 65.7666 -2.74609L 65.7666 -5.5L 66.6699 -5.5L 66.6699 2L 65.8398 2L 65.7959 1.43359C 65.4346 1.8763 64.9316 2.09766 64.2871 2.09766C 63.6751 2.09766 63.1755 1.84701 62.7881 1.3457C 62.404 0.844401 62.2119 0.190104 62.2119 -0.617188L 62.2119 -0.685547ZM 63.1152 -0.583008C 63.1152 0.0159505 63.2389 0.4847 63.4863 0.823242C 63.7337 1.16178 64.0755 1.33105 64.5117 1.33105C 65.0846 1.33105 65.5029 1.07389 65.7666 0.55957L 65.7666 -1.86719C 65.4964 -2.36523 65.0814 -2.61426 64.5215 -2.61426C 64.0788 -2.61426 63.7337 -2.44336 63.4863 -2.10156C 63.2389 -1.75977 63.1152 -1.25358 63.1152 -0.583008ZM 67.8613 -0.685547C 67.8613 -1.50911 68.0518 -2.16341 68.4326 -2.64844C 68.8135 -3.13672 69.318 -3.38086 69.9463 -3.38086C 70.5908 -3.38086 71.0938 -3.15299 71.4551 -2.69727L 71.499 -3.2832L 72.3242 -3.2832L 72.3242 1.87305C 72.3242 2.55664 72.1208 3.09538 71.7139 3.48926C 71.3102 3.88314 70.7666 4.08008 70.083 4.08008C 69.7021 4.08008 69.3294 3.9987 68.9648 3.83594C 68.6003 3.67318 68.3219 3.4502 68.1299 3.16699L 68.5986 2.625C 68.986 3.10352 69.4596 3.34277 70.0195 3.34277C 70.459 3.34277 70.8008 3.21908 71.0449 2.97168C 71.2923 2.72428 71.416 2.37598 71.416 1.92676L 71.416 1.47266C 71.0547 1.88932 70.5615 2.09766 69.9365 2.09766C 69.318 2.09766 68.8167 1.84863 68.4326 1.35059C 68.0518 0.852539 67.8613 0.173828 67.8613 -0.685547ZM 68.7695 -0.583008C 68.7695 0.0126953 68.8916 0.481445 69.1357 0.823242C 69.3799 1.16178 69.7217 1.33105 70.1611 1.33105C 70.7308 1.33105 71.1491 1.07227 71.416 0.554688L 71.416 -1.85742C 71.1393 -2.36198 70.7243 -2.61426 70.1709 -2.61426C 69.7314 -2.61426 69.388 -2.44336 69.1406 -2.10156C 68.8932 -1.75977 68.7695 -1.25358 68.7695 -0.583008ZM 75.8838 2.09766C 75.1676 2.09766 74.585 1.86328 74.1357 1.39453C 73.6865 0.922526 73.4619 0.292643 73.4619 -0.495117L 73.4619 -0.661133C 73.4619 -1.18522 73.5612 -1.65234 73.7598 -2.0625C 73.9616 -2.47591 74.2415 -2.79818 74.5996 -3.0293C 74.9609 -3.26367 75.3516 -3.38086 75.7715 -3.38086C 76.4583 -3.38086 76.9922 -3.15462 77.373 -2.70215C 77.7539 -2.24967 77.9443 -1.60189 77.9443 -0.758789L 77.9443 -0.382812L 74.3652 -0.382812C 74.3783 0.138021 74.5296 0.55957 74.8193 0.881836C 75.1123 1.20085 75.4834 1.36035 75.9326 1.36035C 76.2516 1.36035 76.5218 1.29525 76.7432 1.16504C 76.9645 1.03483 77.1582 0.862305 77.3242 0.647461L 77.876 1.07715C 77.4333 1.75749 76.7692 2.09766 75.8838 2.09766ZM 75.7715 -2.63867C 75.4069 -2.63867 75.1009 -2.50521 74.8535 -2.23828C 74.6061 -1.97461 74.4531 -1.60352 74.3945 -1.125L 77.041 -1.125L 77.041 -1.19336C 77.015 -1.65234 76.8913 -2.00716 76.6699 -2.25781C 76.4486 -2.51172 76.1491 -2.63867 75.7715 -2.63867ZM 37.7881 13.0674C 37.5472 13.4124 37.2103 13.6712 36.7773 13.8438C 36.3477 14.013 35.8464 14.0977 35.2734 14.0977C 34.694 14.0977 34.1797 13.9626 33.7305 13.6924C 33.2812 13.4189 32.9329 13.0316 32.6855 12.5303C 32.4414 12.029 32.3161 11.4479 32.3096 10.7871L 32.3096 10.167C 32.3096 9.09603 32.5586 8.26595 33.0566 7.67676C 33.5579 7.08757 34.2611 6.79297 35.166 6.79297C 35.9082 6.79297 36.5055 6.9834 36.958 7.36426C 37.4105 7.74186 37.6872 8.27897 37.7881 8.97559L 36.8506 8.97559C 36.6748 8.03483 36.1149 7.56445 35.1709 7.56445C 34.5426 7.56445 34.0658 7.78581 33.7402 8.22852C 33.418 8.66797 33.2552 9.30599 33.252 10.1426L 33.252 10.7236C 33.252 11.5212 33.4342 12.1559 33.7988 12.6279C 34.1634 13.0967 34.6566 13.3311 35.2783 13.3311C 35.6299 13.3311 35.9375 13.292 36.2012 13.2139C 36.4648 13.1357 36.6829 13.0039 36.8555 12.8184L 36.8555 11.2217L 35.21 11.2217L 35.21 10.46L 37.7881 10.46L 37.7881 13.0674ZM 41.7676 9.52734C 41.6309 9.50456 41.4827 9.49316 41.3232 9.49316C 40.7308 9.49316 40.3288 9.74544 40.1172 10.25L 40.1172 14L 39.2139 14L 39.2139 8.7168L 40.0928 8.7168L 40.1074 9.32715C 40.4036 8.85514 40.8236 8.61914 41.3672 8.61914C 41.543 8.61914 41.6764 8.64193 41.7676 8.6875L 41.7676 9.52734ZM 45.6689 14C 45.6169 13.8958 45.5745 13.7103 45.542 13.4434C 45.1221 13.8796 44.6208 14.0977 44.0381 14.0977C 43.5173 14.0977 43.0892 13.9512 42.7539 13.6582C 42.4219 13.362 42.2559 12.9876 42.2559 12.5352C 42.2559 11.985 42.4642 11.5586 42.8809 11.2559C 43.3008 10.9499 43.89 10.7969 44.6484 10.7969L 45.5273 10.7969L 45.5273 10.3818C 45.5273 10.0661 45.4329 9.81543 45.2441 9.62988C 45.0553 9.44108 44.777 9.34668 44.4092 9.34668C 44.0869 9.34668 43.8167 9.42806 43.5986 9.59082C 43.3805 9.75358 43.2715 9.95052 43.2715 10.1816L 42.3633 10.1816C 42.3633 9.91797 42.4561 9.66406 42.6416 9.41992C 42.8304 9.17253 43.0843 8.97721 43.4033 8.83398C 43.7256 8.69076 44.0788 8.61914 44.4629 8.61914C 45.0716 8.61914 45.5485 8.77214 45.8936 9.07812C 46.2386 9.38086 46.4176 9.79915 46.4307 10.333L 46.4307 12.7646C 46.4307 13.2497 46.4925 13.6354 46.6162 13.9219L 46.6162 14L 45.6689 14ZM 44.1699 13.3115C 44.4531 13.3115 44.7217 13.2383 44.9756 13.0918C 45.2295 12.9453 45.4134 12.7549 45.5273 12.5205L 45.5273 11.4365L 44.8193 11.4365C 43.7126 11.4365 43.1592 11.7604 43.1592 12.4082C 43.1592 12.6914 43.2536 12.9128 43.4424 13.0723C 43.6312 13.2318 43.8737 13.3115 44.1699 13.3115ZM 52.3096 11.417C 52.3096 12.221 52.1257 12.8688 51.7578 13.3604C 51.39 13.8519 50.8919 14.0977 50.2637 14.0977C 49.6224 14.0977 49.1178 13.8942 48.75 13.4873L 48.75 16.0312L 47.8467 16.0312L 47.8467 8.7168L 48.6719 8.7168L 48.7158 9.30273C 49.0837 8.84701 49.5947 8.61914 50.249 8.61914C 50.8838 8.61914 51.3851 8.8584 51.7529 9.33691C 52.124 9.81543 52.3096 10.4811 52.3096 11.334L 52.3096 11.417ZM 51.4062 11.3145C 51.4062 10.7188 51.2793 10.2484 51.0254 9.90332C 50.7715 9.55827 50.4232 9.38574 49.9805 9.38574C 49.4336 9.38574 49.0234 9.62826 48.75 10.1133L 48.75 12.6377C 49.0202 13.1195 49.4336 13.3604 49.9902 13.3604C 50.4232 13.3604 50.7666 13.1895 51.0205 12.8477C 51.2777 12.5026 51.4062 11.9915 51.4062 11.3145ZM 54.3652 9.35645C 54.7656 8.86491 55.2865 8.61914 55.9277 8.61914C 57.0443 8.61914 57.6074 9.24902 57.6172 10.5088L 57.6172 14L 56.7139 14L 56.7139 10.5039C 56.7106 10.123 56.6227 9.84147 56.4502 9.65918C 56.2809 9.47689 56.0156 9.38574 55.6543 9.38574C 55.3613 9.38574 55.1042 9.46387 54.8828 9.62012C 54.6615 9.77637 54.4889 9.98145 54.3652 10.2354L 54.3652 14L 53.4619 14L 53.4619 6.5L 54.3652 6.5L 54.3652 9.35645Z" />
    <path
       id="path5_fill"
       d="M 0 2C 0 0.895431 0.895431 0 2 0L 88 0C 89.1046 0 90 0.895431 90 2L 90 38C 90 39.1046 89.1046 40 88 40L 2 40C 0.895431 40 0 39.1046 0 38L 0 2Z" />
    <path
       id="path6_fill"
       d="M 15.2246 5.2168L 15.2246 8L 14.2871 8L 14.2871 0.890625L 16.9092 0.890625C 17.6872 0.890625 18.2959 1.08919 18.7354 1.48633C 19.1781 1.88346 19.3994 2.40918 19.3994 3.06348C 19.3994 3.75358 19.1829 4.28581 18.75 4.66016C 18.3203 5.03125 17.7035 5.2168 16.8994 5.2168L 15.2246 5.2168ZM 15.2246 4.4502L 16.9092 4.4502C 17.4105 4.4502 17.7946 4.33301 18.0615 4.09863C 18.3285 3.861 18.4619 3.51921 18.4619 3.07324C 18.4619 2.65007 18.3285 2.31152 18.0615 2.05762C 17.7946 1.80371 17.4284 1.67188 16.9629 1.66211L 15.2246 1.66211L 15.2246 4.4502ZM 22.6904 4.83105C 21.8864 4.59993 21.3005 4.31673 20.9326 3.98145C 20.568 3.6429 20.3857 3.22624 20.3857 2.73145C 20.3857 2.17155 20.6087 1.70931 21.0547 1.34473C 21.5039 0.976888 22.0866 0.792969 22.8027 0.792969C 23.291 0.792969 23.7256 0.88737 24.1064 1.07617C 24.4906 1.26497 24.7868 1.52539 24.9951 1.85742C 25.2067 2.18945 25.3125 2.55241 25.3125 2.94629L 24.3701 2.94629C 24.3701 2.5166 24.2334 2.17969 23.96 1.93555C 23.6865 1.68815 23.3008 1.56445 22.8027 1.56445C 22.3405 1.56445 21.9792 1.66699 21.7188 1.87207C 21.4616 2.07389 21.333 2.35547 21.333 2.7168C 21.333 3.00651 21.4551 3.25228 21.6992 3.4541C 21.9466 3.65267 22.3649 3.83496 22.9541 4.00098C 23.5465 4.16699 24.0088 4.35091 24.3408 4.55273C 24.6761 4.7513 24.9235 4.98405 25.083 5.25098C 25.2458 5.5179 25.3271 5.83203 25.3271 6.19336C 25.3271 6.76953 25.1025 7.23177 24.6533 7.58008C 24.2041 7.92513 23.6035 8.09766 22.8516 8.09766C 22.3633 8.09766 21.9076 8.00488 21.4844 7.81934C 21.0612 7.63053 20.734 7.37337 20.5029 7.04785C 20.2751 6.72233 20.1611 6.35286 20.1611 5.93945L 21.1035 5.93945C 21.1035 6.36914 21.2614 6.70931 21.5771 6.95996C 21.8962 7.20736 22.321 7.33105 22.8516 7.33105C 23.3464 7.33105 23.7256 7.23014 23.9893 7.02832C 24.2529 6.8265 24.3848 6.55143 24.3848 6.20312C 24.3848 5.85482 24.2627 5.58626 24.0186 5.39746C 23.7744 5.2054 23.3317 5.0166 22.6904 4.83105ZM 27.4756 7.2334L 30.8447 7.2334L 30.8447 8L 26.5332 8L 26.5332 0.890625L 27.4756 0.890625L 27.4756 7.2334ZM 39.8633 4.6748C 39.8633 5.37142 39.7461 5.98014 39.5117 6.50098C 39.2773 7.01855 38.9453 7.41406 38.5156 7.6875C 38.0859 7.96094 37.5846 8.09766 37.0117 8.09766C 36.4518 8.09766 35.9554 7.96094 35.5225 7.6875C 35.0895 7.41081 34.7526 7.01855 34.5117 6.51074C 34.2741 5.99967 34.152 5.40885 34.1455 4.73828L 34.1455 4.22559C 34.1455 3.54199 34.2643 2.93815 34.502 2.41406C 34.7396 1.88997 35.0749 1.48958 35.5078 1.21289C 35.944 0.932943 36.4421 0.792969 37.002 0.792969C 37.5716 0.792969 38.0729 0.931315 38.5059 1.20801C 38.9421 1.48145 39.2773 1.88021 39.5117 2.4043C 39.7461 2.92513 39.8633 3.53223 39.8633 4.22559L 39.8633 4.6748ZM 38.9307 4.21582C 38.9307 3.37272 38.7614 2.72656 38.4229 2.27734C 38.0843 1.82487 37.6107 1.59863 37.002 1.59863C 36.4095 1.59863 35.9424 1.82487 35.6006 2.27734C 35.262 2.72656 35.0879 3.35156 35.0781 4.15234L 35.0781 4.6748C 35.0781 5.49186 35.249 6.13477 35.5908 6.60352C 35.9359 7.06901 36.4095 7.30176 37.0117 7.30176C 37.6172 7.30176 38.0859 7.08203 38.418 6.64258C 38.75 6.19987 38.9209 5.56673 38.9307 4.74316L 38.9307 4.21582ZM 45.5908 5.41699C 45.5908 6.22103 45.4069 6.86882 45.0391 7.36035C 44.6712 7.85189 44.1732 8.09766 43.5449 8.09766C 42.9036 8.09766 42.3991 7.89421 42.0312 7.4873L 42.0312 10.0312L 41.1279 10.0312L 41.1279 2.7168L 41.9531 2.7168L 41.9971 3.30273C 42.3649 2.84701 42.876 2.61914 43.5303 2.61914C 44.165 2.61914 44.6663 2.8584 45.0342 3.33691C 45.4053 3.81543 45.5908 4.48112 45.5908 5.33398L 45.5908 5.41699ZM 44.6875 5.31445C 44.6875 4.71875 44.5605 4.24837 44.3066 3.90332C 44.0527 3.55827 43.7044 3.38574 43.2617 3.38574C 42.7148 3.38574 42.3047 3.62826 42.0312 4.11328L 42.0312 6.6377C 42.3014 7.11947 42.7148 7.36035 43.2715 7.36035C 43.7044 7.36035 44.0479 7.18945 44.3018 6.84766C 44.5589 6.5026 44.6875 5.99154 44.6875 5.31445ZM 47.9688 1.4375L 47.9688 2.7168L 48.9551 2.7168L 48.9551 3.41504L 47.9688 3.41504L 47.9688 6.69141C 47.9688 6.90299 48.0127 7.0625 48.1006 7.16992C 48.1885 7.27409 48.3382 7.32617 48.5498 7.32617C 48.654 7.32617 48.7972 7.30664 48.9795 7.26758L 48.9795 8C 48.7419 8.0651 48.5107 8.09766 48.2861 8.09766C 47.8825 8.09766 47.5781 7.97559 47.373 7.73145C 47.168 7.4873 47.0654 7.14062 47.0654 6.69141L 47.0654 3.41504L 46.1035 3.41504L 46.1035 2.7168L 47.0654 2.7168L 47.0654 1.4375L 47.9688 1.4375ZM 50.9961 8L 50.0928 8L 50.0928 2.7168L 50.9961 2.7168L 50.9961 8ZM 50.0195 1.31543C 50.0195 1.16895 50.0635 1.04525 50.1514 0.944336C 50.2425 0.843425 50.376 0.792969 50.5518 0.792969C 50.7275 0.792969 50.861 0.843425 50.9521 0.944336C 51.0433 1.04525 51.0889 1.16895 51.0889 1.31543C 51.0889 1.46191 51.0433 1.58398 50.9521 1.68164C 50.861 1.7793 50.7275 1.82812 50.5518 1.82812C 50.376 1.82812 50.2425 1.7793 50.1514 1.68164C 50.0635 1.58398 50.0195 1.46191 50.0195 1.31543ZM 53.2959 2.7168L 53.3203 3.30273C 53.7077 2.84701 54.2301 2.61914 54.8877 2.61914C 55.6266 2.61914 56.1296 2.90234 56.3965 3.46875C 56.5723 3.21484 56.8001 3.00977 57.0801 2.85352C 57.3633 2.69727 57.6969 2.61914 58.0811 2.61914C 59.2399 2.61914 59.8291 3.23275 59.8486 4.45996L 59.8486 8L 58.9453 8L 58.9453 4.51367C 58.9453 4.13607 58.859 3.85449 58.6865 3.66895C 58.514 3.48014 58.2243 3.38574 57.8174 3.38574C 57.4821 3.38574 57.2038 3.48665 56.9824 3.68848C 56.7611 3.88704 56.6325 4.1556 56.5967 4.49414L 56.5967 8L 55.6885 8L 55.6885 4.53809C 55.6885 3.76986 55.3125 3.38574 54.5605 3.38574C 53.9681 3.38574 53.5628 3.63802 53.3447 4.14258L 53.3447 8L 52.4414 8L 52.4414 2.7168L 53.2959 2.7168ZM 62.1973 8L 61.2939 8L 61.2939 2.7168L 62.1973 2.7168L 62.1973 8ZM 61.2207 1.31543C 61.2207 1.16895 61.2646 1.04525 61.3525 0.944336C 61.4437 0.843425 61.5771 0.792969 61.7529 0.792969C 61.9287 0.792969 62.0622 0.843425 62.1533 0.944336C 62.2445 1.04525 62.29 1.16895 62.29 1.31543C 62.29 1.46191 62.2445 1.58398 62.1533 1.68164C 62.0622 1.7793 61.9287 1.82812 61.7529 1.82812C 61.5771 1.82812 61.4437 1.7793 61.3525 1.68164C 61.2646 1.58398 61.2207 1.46191 61.2207 1.31543ZM 64.4971 7.2627L 67.5879 7.2627L 67.5879 8L 63.3936 8L 63.3936 7.33594L 66.3086 3.46387L 63.4375 3.46387L 63.4375 2.7168L 67.4414 2.7168L 67.4414 3.35645L 64.4971 7.2627ZM 70.7227 8.09766C 70.0065 8.09766 69.4238 7.86328 68.9746 7.39453C 68.5254 6.92253 68.3008 6.29264 68.3008 5.50488L 68.3008 5.33887C 68.3008 4.81478 68.4001 4.34766 68.5986 3.9375C 68.8005 3.52409 69.0804 3.20182 69.4385 2.9707C 69.7998 2.73633 70.1904 2.61914 70.6104 2.61914C 71.2972 2.61914 71.8311 2.84538 72.2119 3.29785C 72.5928 3.75033 72.7832 4.39811 72.7832 5.24121L 72.7832 5.61719L 69.2041 5.61719C 69.2171 6.13802 69.3685 6.55957 69.6582 6.88184C 69.9512 7.20085 70.3223 7.36035 70.7715 7.36035C 71.0905 7.36035 71.3607 7.29525 71.582 7.16504C 71.8034 7.03483 71.9971 6.8623 72.1631 6.64746L 72.7148 7.07715C 72.2721 7.75749 71.6081 8.09766 70.7227 8.09766ZM 70.6104 3.36133C 70.2458 3.36133 69.9398 3.49479 69.6924 3.76172C 69.445 4.02539 69.292 4.39648 69.2334 4.875L 71.8799 4.875L 71.8799 4.80664C 71.8538 4.34766 71.7301 3.99284 71.5088 3.74219C 71.2874 3.48828 70.988 3.36133 70.6104 3.36133ZM 76.3867 3.52734C 76.25 3.50456 76.1019 3.49316 75.9424 3.49316C 75.3499 3.49316 74.9479 3.74544 74.7363 4.25L 74.7363 8L 73.833 8L 73.833 2.7168L 74.7119 2.7168L 74.7266 3.32715C 75.0228 2.85514 75.4427 2.61914 75.9863 2.61914C 76.1621 2.61914 76.2956 2.64193 76.3867 2.6875L 76.3867 3.52734Z" />
    <path
       id="path7_fill"
       d="M 24.7119 8L 24.7119 0.890625L 26.7188 0.890625C 27.3372 0.890625 27.8841 1.02734 28.3594 1.30078C 28.8346 1.57422 29.2008 1.96322 29.458 2.46777C 29.7184 2.97233 29.8503 3.55176 29.8535 4.20605L 29.8535 4.66016C 29.8535 5.33073 29.7233 5.91829 29.4629 6.42285C 29.2057 6.92741 28.8363 7.31478 28.3545 7.58496C 27.876 7.85514 27.3177 7.99349 26.6797 8L 24.7119 8ZM 25.6494 1.66211L 25.6494 7.2334L 26.6357 7.2334C 27.3584 7.2334 27.9199 7.00879 28.3203 6.55957C 28.724 6.11035 28.9258 5.4707 28.9258 4.64062L 28.9258 4.22559C 28.9258 3.41829 28.7354 2.79167 28.3545 2.3457C 27.9769 1.89648 27.4398 1.66862 26.7432 1.66211L 25.6494 1.66211ZM 34.3945 8C 34.3424 7.89583 34.3001 7.71029 34.2676 7.44336C 33.8477 7.87956 33.3464 8.09766 32.7637 8.09766C 32.2428 8.09766 31.8148 7.95117 31.4795 7.6582C 31.1475 7.36198 30.9814 6.98763 30.9814 6.53516C 30.9814 5.98503 31.1898 5.55859 31.6064 5.25586C 32.0264 4.94987 32.6156 4.79688 33.374 4.79688L 34.2529 4.79688L 34.2529 4.38184C 34.2529 4.06608 34.1585 3.81543 33.9697 3.62988C 33.7809 3.44108 33.5026 3.34668 33.1348 3.34668C 32.8125 3.34668 32.5423 3.42806 32.3242 3.59082C 32.1061 3.75358 31.9971 3.95052 31.9971 4.18164L 31.0889 4.18164C 31.0889 3.91797 31.1816 3.66406 31.3672 3.41992C 31.556 3.17253 31.8099 2.97721 32.1289 2.83398C 32.4512 2.69076 32.8044 2.61914 33.1885 2.61914C 33.7972 2.61914 34.2741 2.77214 34.6191 3.07812C 34.9642 3.38086 35.1432 3.79915 35.1562 4.33301L 35.1562 6.76465C 35.1562 7.24967 35.2181 7.63542 35.3418 7.92188L 35.3418 8L 34.3945 8ZM 32.8955 7.31152C 33.1787 7.31152 33.4473 7.23828 33.7012 7.0918C 33.9551 6.94531 34.139 6.75488 34.2529 6.52051L 34.2529 5.43652L 33.5449 5.43652C 32.4382 5.43652 31.8848 5.76042 31.8848 6.4082C 31.8848 6.69141 31.9792 6.91276 32.168 7.07227C 32.3568 7.23177 32.5993 7.31152 32.8955 7.31152ZM 37.7979 1.4375L 37.7979 2.7168L 38.7842 2.7168L 38.7842 3.41504L 37.7979 3.41504L 37.7979 6.69141C 37.7979 6.90299 37.8418 7.0625 37.9297 7.16992C 38.0176 7.27409 38.1673 7.32617 38.3789 7.32617C 38.4831 7.32617 38.6263 7.30664 38.8086 7.26758L 38.8086 8C 38.571 8.0651 38.3398 8.09766 38.1152 8.09766C 37.7116 8.09766 37.4072 7.97559 37.2021 7.73145C 36.9971 7.4873 36.8945 7.14062 36.8945 6.69141L 36.8945 3.41504L 35.9326 3.41504L 35.9326 2.7168L 36.8945 2.7168L 36.8945 1.4375L 37.7979 1.4375ZM 43.1055 8C 43.0534 7.89583 43.0111 7.71029 42.9785 7.44336C 42.5586 7.87956 42.0573 8.09766 41.4746 8.09766C 40.9538 8.09766 40.5257 7.95117 40.1904 7.6582C 39.8584 7.36198 39.6924 6.98763 39.6924 6.53516C 39.6924 5.98503 39.9007 5.55859 40.3174 5.25586C 40.7373 4.94987 41.3265 4.79688 42.085 4.79688L 42.9639 4.79688L 42.9639 4.38184C 42.9639 4.06608 42.8695 3.81543 42.6807 3.62988C 42.4919 3.44108 42.2135 3.34668 41.8457 3.34668C 41.5234 3.34668 41.2533 3.42806 41.0352 3.59082C 40.8171 3.75358 40.708 3.95052 40.708 4.18164L 39.7998 4.18164C 39.7998 3.91797 39.8926 3.66406 40.0781 3.41992C 40.2669 3.17253 40.5208 2.97721 40.8398 2.83398C 41.1621 2.69076 41.5153 2.61914 41.8994 2.61914C 42.5081 2.61914 42.985 2.77214 43.3301 3.07812C 43.6751 3.38086 43.8542 3.79915 43.8672 4.33301L 43.8672 6.76465C 43.8672 7.24967 43.929 7.63542 44.0527 7.92188L 44.0527 8L 43.1055 8ZM 41.6064 7.31152C 41.8896 7.31152 42.1582 7.23828 42.4121 7.0918C 42.666 6.94531 42.8499 6.75488 42.9639 6.52051L 42.9639 5.43652L 42.2559 5.43652C 41.1491 5.43652 40.5957 5.76042 40.5957 6.4082C 40.5957 6.69141 40.6901 6.91276 40.8789 7.07227C 41.0677 7.23177 41.3102 7.31152 41.6064 7.31152ZM 49.7559 5.41699C 49.7559 6.22428 49.5703 6.8737 49.1992 7.36523C 48.8281 7.85352 48.3301 8.09766 47.7051 8.09766C 47.0378 8.09766 46.5218 7.86165 46.1572 7.38965L 46.1133 8L 45.2832 8L 45.2832 0.5L 46.1865 0.5L 46.1865 3.29785C 46.5511 2.84538 47.054 2.61914 47.6953 2.61914C 48.3366 2.61914 48.8395 2.86165 49.2041 3.34668C 49.5719 3.83171 49.7559 4.49577 49.7559 5.33887L 49.7559 5.41699ZM 48.8525 5.31445C 48.8525 4.69922 48.7337 4.22396 48.4961 3.88867C 48.2585 3.55339 47.9167 3.38574 47.4707 3.38574C 46.875 3.38574 46.4469 3.66243 46.1865 4.21582L 46.1865 6.50098C 46.4632 7.05436 46.8945 7.33105 47.4805 7.33105C 47.9134 7.33105 48.2503 7.16341 48.4912 6.82812C 48.7321 6.49284 48.8525 5.98828 48.8525 5.31445ZM 54.1602 8C 54.1081 7.89583 54.0658 7.71029 54.0332 7.44336C 53.6133 7.87956 53.112 8.09766 52.5293 8.09766C 52.0085 8.09766 51.5804 7.95117 51.2451 7.6582C 50.9131 7.36198 50.7471 6.98763 50.7471 6.53516C 50.7471 5.98503 50.9554 5.55859 51.3721 5.25586C 51.792 4.94987 52.3812 4.79688 53.1396 4.79688L 54.0186 4.79688L 54.0186 4.38184C 54.0186 4.06608 53.9242 3.81543 53.7354 3.62988C 53.5465 3.44108 53.2682 3.34668 52.9004 3.34668C 52.5781 3.34668 52.3079 3.42806 52.0898 3.59082C 51.8717 3.75358 51.7627 3.95052 51.7627 4.18164L 50.8545 4.18164C 50.8545 3.91797 50.9473 3.66406 51.1328 3.41992C 51.3216 3.17253 51.5755 2.97721 51.8945 2.83398C 52.2168 2.69076 52.57 2.61914 52.9541 2.61914C 53.5628 2.61914 54.0397 2.77214 54.3848 3.07812C 54.7298 3.38086 54.9089 3.79915 54.9219 4.33301L 54.9219 6.76465C 54.9219 7.24967 54.9837 7.63542 55.1074 7.92188L 55.1074 8L 54.1602 8ZM 52.6611 7.31152C 52.9443 7.31152 53.2129 7.23828 53.4668 7.0918C 53.7207 6.94531 53.9046 6.75488 54.0186 6.52051L 54.0186 5.43652L 53.3105 5.43652C 52.2038 5.43652 51.6504 5.76042 51.6504 6.4082C 51.6504 6.69141 51.7448 6.91276 51.9336 7.07227C 52.1224 7.23177 52.3649 7.31152 52.6611 7.31152ZM 59.4141 6.59863C 59.4141 6.35449 59.3213 6.16569 59.1357 6.03223C 58.9535 5.89551 58.6328 5.77832 58.1738 5.68066C 57.7181 5.58301 57.3551 5.46582 57.085 5.3291C 56.818 5.19238 56.6195 5.02962 56.4893 4.84082C 56.3623 4.65202 56.2988 4.42741 56.2988 4.16699C 56.2988 3.73405 56.4811 3.36784 56.8457 3.06836C 57.2135 2.76888 57.6823 2.61914 58.252 2.61914C 58.8509 2.61914 59.3359 2.77376 59.707 3.08301C 60.0814 3.39225 60.2686 3.78776 60.2686 4.26953L 59.3604 4.26953C 59.3604 4.02214 59.2546 3.80892 59.043 3.62988C 58.8346 3.45085 58.571 3.36133 58.252 3.36133C 57.9232 3.36133 57.666 3.43294 57.4805 3.57617C 57.2949 3.7194 57.2021 3.90658 57.2021 4.1377C 57.2021 4.35579 57.2884 4.52018 57.4609 4.63086C 57.6335 4.74154 57.9443 4.84733 58.3936 4.94824C 58.846 5.04915 59.2122 5.1696 59.4922 5.30957C 59.7721 5.44954 59.9788 5.61882 60.1123 5.81738C 60.249 6.0127 60.3174 6.25195 60.3174 6.53516C 60.3174 7.00716 60.1286 7.38639 59.751 7.67285C 59.3734 7.95605 58.8835 8.09766 58.2812 8.09766C 57.8581 8.09766 57.4837 8.02279 57.1582 7.87305C 56.8327 7.72331 56.5771 7.51497 56.3916 7.24805C 56.2093 6.97786 56.1182 6.68652 56.1182 6.37402L 57.0215 6.37402C 57.0378 6.67676 57.1582 6.91764 57.3828 7.09668C 57.6107 7.27246 57.9102 7.36035 58.2812 7.36035C 58.623 7.36035 58.8965 7.29199 59.1016 7.15527C 59.3099 7.0153 59.4141 6.82975 59.4141 6.59863ZM 63.6865 8.09766C 62.9704 8.09766 62.3877 7.86328 61.9385 7.39453C 61.4893 6.92253 61.2646 6.29264 61.2646 5.50488L 61.2646 5.33887C 61.2646 4.81478 61.3639 4.34766 61.5625 3.9375C 61.7643 3.52409 62.0443 3.20182 62.4023 2.9707C 62.7637 2.73633 63.1543 2.61914 63.5742 2.61914C 64.2611 2.61914 64.7949 2.84538 65.1758 3.29785C 65.5566 3.75033 65.7471 4.39811 65.7471 5.24121L 65.7471 5.61719L 62.168 5.61719C 62.181 6.13802 62.3324 6.55957 62.6221 6.88184C 62.915 7.20085 63.2861 7.36035 63.7354 7.36035C 64.0544 7.36035 64.3245 7.29525 64.5459 7.16504C 64.7673 7.03483 64.9609 6.8623 65.127 6.64746L 65.6787 7.07715C 65.236 7.75749 64.5719 8.09766 63.6865 8.09766ZM 63.5742 3.36133C 63.2096 3.36133 62.9036 3.49479 62.6562 3.76172C 62.4089 4.02539 62.2559 4.39648 62.1973 4.875L 64.8438 4.875L 64.8438 4.80664C 64.8177 4.34766 64.694 3.99284 64.4727 3.74219C 64.2513 3.48828 63.9518 3.36133 63.5742 3.36133Z" />
    <path
       id="path8_stroke"
       d="M 30 0L 20 -5.7735L 20 5.7735L 30 0ZM 0 1L 21 1L 21 -1L 0 -1L 0 1Z" />
    <path
       id="path9_stroke"
       d="M 75 8.19178e-07L 76 8.19178e-07L 76 -0.999999L 75 -0.999999L 75 8.19178e-07ZM 0 0L 10 5.7735L 10 -5.7735L 0 0ZM 76 50L 76 8.19178e-07L 74 8.19178e-07L 74 50L 76 50ZM 75 -0.999999L 9 -1L 9 1L 75 1L 75 -0.999999Z" />
    <path
       id="path10_stroke"
       d="M 30 0L 20 -5.7735L 20 5.7735L 30 0ZM 0 1L 21 1L 21 -1L 0 -1L 0 1Z" />
    <path
       id="path11_fill"
       d="M 27.4902 -1.28613L 24.4092 -1.28613L 24.4092 1.2334L 27.9883 1.2334L 27.9883 2L 23.4717 2L 23.4717 -5.10938L 27.9395 -5.10938L 27.9395 -4.33789L 24.4092 -4.33789L 24.4092 -2.05273L 27.4902 -2.05273L 27.4902 -1.28613ZM 30.7861 -1.35449L 31.958 -3.2832L 33.0127 -3.2832L 31.2842 -0.670898L 33.0664 2L 32.0215 2L 30.8008 0.0224609L 29.5801 2L 28.5303 2L 30.3125 -0.670898L 28.584 -3.2832L 29.6289 -3.2832L 30.7861 -1.35449ZM 35.2002 -4.5625L 35.2002 -3.2832L 36.1865 -3.2832L 36.1865 -2.58496L 35.2002 -2.58496L 35.2002 0.691406C 35.2002 0.902995 35.2441 1.0625 35.332 1.16992C 35.4199 1.27409 35.5697 1.32617 35.7812 1.32617C 35.8854 1.32617 36.0286 1.30664 36.2109 1.26758L 36.2109 2C 35.9733 2.0651 35.7422 2.09766 35.5176 2.09766C 35.1139 2.09766 34.8096 1.97559 34.6045 1.73145C 34.3994 1.4873 34.2969 1.14062 34.2969 0.691406L 34.2969 -2.58496L 33.335 -2.58496L 33.335 -3.2832L 34.2969 -3.2832L 34.2969 -4.5625L 35.2002 -4.5625ZM 39.7998 -2.47266C 39.6631 -2.49544 39.515 -2.50684 39.3555 -2.50684C 38.763 -2.50684 38.361 -2.25456 38.1494 -1.75L 38.1494 2L 37.2461 2L 37.2461 -3.2832L 38.125 -3.2832L 38.1396 -2.67285C 38.4359 -3.14486 38.8558 -3.38086 39.3994 -3.38086C 39.5752 -3.38086 39.7087 -3.35807 39.7998 -3.3125L 39.7998 -2.47266ZM 43.7012 2C 43.6491 1.89583 43.6068 1.71029 43.5742 1.44336C 43.1543 1.87956 42.653 2.09766 42.0703 2.09766C 41.5495 2.09766 41.1214 1.95117 40.7861 1.6582C 40.4541 1.36198 40.2881 0.98763 40.2881 0.535156C 40.2881 -0.0149739 40.4964 -0.441406 40.9131 -0.744141C 41.333 -1.05013 41.9222 -1.20312 42.6807 -1.20312L 43.5596 -1.20312L 43.5596 -1.61816C 43.5596 -1.93392 43.4652 -2.18457 43.2764 -2.37012C 43.0876 -2.55892 42.8092 -2.65332 42.4414 -2.65332C 42.1191 -2.65332 41.849 -2.57194 41.6309 -2.40918C 41.4128 -2.24642 41.3037 -2.04948 41.3037 -1.81836L 40.3955 -1.81836C 40.3955 -2.08203 40.4883 -2.33594 40.6738 -2.58008C 40.8626 -2.82747 41.1165 -3.02279 41.4355 -3.16602C 41.7578 -3.30924 42.111 -3.38086 42.4951 -3.38086C 43.1038 -3.38086 43.5807 -3.22786 43.9258 -2.92188C 44.2708 -2.61914 44.4499 -2.20085 44.4629 -1.66699L 44.4629 0.764648C 44.4629 1.24967 44.5247 1.63542 44.6484 1.92188L 44.6484 2L 43.7012 2ZM 42.2021 1.31152C 42.4854 1.31152 42.7539 1.23828 43.0078 1.0918C 43.2617 0.945312 43.4456 0.754883 43.5596 0.520508L 43.5596 -0.563477L 42.8516 -0.563477C 41.7448 -0.563477 41.1914 -0.239583 41.1914 0.408203C 41.1914 0.691406 41.2858 0.91276 41.4746 1.07227C 41.6634 1.23177 41.9059 1.31152 42.2021 1.31152ZM 47.998 1.36035C 48.3203 1.36035 48.6019 1.2627 48.8428 1.06738C 49.0837 0.87207 49.2171 0.62793 49.2432 0.334961L 50.0977 0.334961C 50.0814 0.637695 49.9772 0.925781 49.7852 1.19922C 49.5931 1.47266 49.3359 1.69076 49.0137 1.85352C 48.6947 2.01628 48.3561 2.09766 47.998 2.09766C 47.2786 2.09766 46.7057 1.8584 46.2793 1.37988C 45.8561 0.898112 45.6445 0.24056 45.6445 -0.592773L 45.6445 -0.744141C 45.6445 -1.25846 45.7389 -1.71582 45.9277 -2.11621C 46.1165 -2.5166 46.3867 -2.82747 46.7383 -3.04883C 47.0931 -3.27018 47.5114 -3.38086 47.9932 -3.38086C 48.5856 -3.38086 49.0771 -3.20345 49.4678 -2.84863C 49.8617 -2.49382 50.0716 -2.0332 50.0977 -1.4668L 49.2432 -1.4668C 49.2171 -1.80859 49.0869 -2.08854 48.8525 -2.30664C 48.6214 -2.52799 48.335 -2.63867 47.9932 -2.63867C 47.5342 -2.63867 47.1777 -2.47266 46.9238 -2.14062C 46.6732 -1.81185 46.5479 -1.33496 46.5479 -0.709961L 46.5479 -0.539062C 46.5479 0.0696614 46.6732 0.538411 46.9238 0.867188C 47.1745 1.19596 47.5326 1.36035 47.998 1.36035ZM 52.3389 -4.5625L 52.3389 -3.2832L 53.3252 -3.2832L 53.3252 -2.58496L 52.3389 -2.58496L 52.3389 0.691406C 52.3389 0.902995 52.3828 1.0625 52.4707 1.16992C 52.5586 1.27409 52.7083 1.32617 52.9199 1.32617C 53.0241 1.32617 53.1673 1.30664 53.3496 1.26758L 53.3496 2C 53.112 2.0651 52.8809 2.09766 52.6562 2.09766C 52.2526 2.09766 51.9482 1.97559 51.7432 1.73145C 51.5381 1.4873 51.4355 1.14062 51.4355 0.691406L 51.4355 -2.58496L 50.4736 -2.58496L 50.4736 -3.2832L 51.4355 -3.2832L 51.4355 -4.5625L 52.3389 -4.5625ZM 55.3662 2L 54.4629 2L 54.4629 -3.2832L 55.3662 -3.2832L 55.3662 2ZM 54.3896 -4.68457C 54.3896 -4.83105 54.4336 -4.95475 54.5215 -5.05566C 54.6126 -5.15658 54.7461 -5.20703 54.9219 -5.20703C 55.0977 -5.20703 55.2311 -5.15658 55.3223 -5.05566C 55.4134 -4.95475 55.459 -4.83105 55.459 -4.68457C 55.459 -4.53809 55.4134 -4.41602 55.3223 -4.31836C 55.2311 -4.2207 55.0977 -4.17188 54.9219 -4.17188C 54.7461 -4.17188 54.6126 -4.2207 54.5215 -4.31836C 54.4336 -4.41602 54.3896 -4.53809 54.3896 -4.68457ZM 56.5771 -0.69043C 56.5771 -1.20801 56.6781 -1.6735 56.8799 -2.08691C 57.085 -2.50033 57.3682 -2.81934 57.7295 -3.04395C 58.0941 -3.26855 58.5091 -3.38086 58.9746 -3.38086C 59.694 -3.38086 60.2751 -3.13184 60.7178 -2.63379C 61.1637 -2.13574 61.3867 -1.47331 61.3867 -0.646484L 61.3867 -0.583008C 61.3867 -0.0686848 61.2874 0.393555 61.0889 0.803711C 60.8936 1.21061 60.612 1.52799 60.2441 1.75586C 59.8796 1.98372 59.4596 2.09766 58.9844 2.09766C 58.2682 2.09766 57.6872 1.84863 57.2412 1.35059C 56.7985 0.852539 56.5771 0.193359 56.5771 -0.626953L 56.5771 -0.69043ZM 57.4854 -0.583008C 57.4854 0.00292969 57.6204 0.473307 57.8906 0.828125C 58.1641 1.18294 58.5286 1.36035 58.9844 1.36035C 59.4434 1.36035 59.8079 1.18132 60.0781 0.823242C 60.3483 0.461914 60.4834 -0.0426433 60.4834 -0.69043C 60.4834 -1.26986 60.3451 -1.73861 60.0684 -2.09668C 59.7949 -2.45801 59.4303 -2.63867 58.9746 -2.63867C 58.5286 -2.63867 58.1689 -2.46126 57.8955 -2.10645C 57.6221 -1.75163 57.4854 -1.24382 57.4854 -0.583008ZM 63.374 -3.2832L 63.4033 -2.61914C 63.807 -3.12695 64.3343 -3.38086 64.9854 -3.38086C 66.1019 -3.38086 66.665 -2.75098 66.6748 -1.49121L 66.6748 2L 65.7715 2L 65.7715 -1.49609C 65.7682 -1.87695 65.6803 -2.15853 65.5078 -2.34082C 65.3385 -2.52311 65.0732 -2.61426 64.7119 -2.61426C 64.4189 -2.61426 64.1618 -2.53613 63.9404 -2.37988C 63.7191 -2.22363 63.5465 -2.01855 63.4229 -1.76465L 63.4229 2L 62.5195 2L 62.5195 -3.2832L 63.374 -3.2832ZM 37.7881 13.0674C 37.5472 13.4124 37.2103 13.6712 36.7773 13.8438C 36.3477 14.013 35.8464 14.0977 35.2734 14.0977C 34.694 14.0977 34.1797 13.9626 33.7305 13.6924C 33.2812 13.4189 32.9329 13.0316 32.6855 12.5303C 32.4414 12.029 32.3161 11.4479 32.3096 10.7871L 32.3096 10.167C 32.3096 9.09603 32.5586 8.26595 33.0566 7.67676C 33.5579 7.08757 34.2611 6.79297 35.166 6.79297C 35.9082 6.79297 36.5055 6.9834 36.958 7.36426C 37.4105 7.74186 37.6872 8.27897 37.7881 8.97559L 36.8506 8.97559C 36.6748 8.03483 36.1149 7.56445 35.1709 7.56445C 34.5426 7.56445 34.0658 7.78581 33.7402 8.22852C 33.418 8.66797 33.2552 9.30599 33.252 10.1426L 33.252 10.7236C 33.252 11.5212 33.4342 12.1559 33.7988 12.6279C 34.1634 13.0967 34.6566 13.3311 35.2783 13.3311C 35.6299 13.3311 35.9375 13.292 36.2012 13.2139C 36.4648 13.1357 36.6829 13.0039 36.8555 12.8184L 36.8555 11.2217L 35.21 11.2217L 35.21 10.46L 37.7881 10.46L 37.7881 13.0674ZM 41.7676 9.52734C 41.6309 9.50456 41.4827 9.49316 41.3232 9.49316C 40.7308 9.49316 40.3288 9.74544 40.1172 10.25L 40.1172 14L 39.2139 14L 39.2139 8.7168L 40.0928 8.7168L 40.1074 9.32715C 40.4036 8.85514 40.8236 8.61914 41.3672 8.61914C 41.543 8.61914 41.6764 8.64193 41.7676 8.6875L 41.7676 9.52734ZM 45.6689 14C 45.6169 13.8958 45.5745 13.7103 45.542 13.4434C 45.1221 13.8796 44.6208 14.0977 44.0381 14.0977C 43.5173 14.0977 43.0892 13.9512 42.7539 13.6582C 42.4219 13.362 42.2559 12.9876 42.2559 12.5352C 42.2559 11.985 42.4642 11.5586 42.8809 11.2559C 43.3008 10.9499 43.89 10.7969 44.6484 10.7969L 45.5273 10.7969L 45.5273 10.3818C 45.5273 10.0661 45.4329 9.81543 45.2441 9.62988C 45.0553 9.44108 44.777 9.34668 44.4092 9.34668C 44.0869 9.34668 43.8167 9.42806 43.5986 9.59082C 43.3805 9.75358 43.2715 9.95052 43.2715 10.1816L 42.3633 10.1816C 42.3633 9.91797 42.4561 9.66406 42.6416 9.41992C 42.8304 9.17253 43.0843 8.97721 43.4033 8.83398C 43.7256 8.69076 44.0788 8.61914 44.4629 8.61914C 45.0716 8.61914 45.5485 8.77214 45.8936 9.07812C 46.2386 9.38086 46.4176 9.79915 46.4307 10.333L 46.4307 12.7646C 46.4307 13.2497 46.4925 13.6354 46.6162 13.9219L 46.6162 14L 45.6689 14ZM 44.1699 13.3115C 44.4531 13.3115 44.7217 13.2383 44.9756 13.0918C 45.2295 12.9453 45.4134 12.7549 45.5273 12.5205L 45.5273 11.4365L 44.8193 11.4365C 43.7126 11.4365 43.1592 11.7604 43.1592 12.4082C 43.1592 12.6914 43.2536 12.9128 43.4424 13.0723C 43.6312 13.2318 43.8737 13.3115 44.1699 13.3115ZM 52.3096 11.417C 52.3096 12.221 52.1257 12.8688 51.7578 13.3604C 51.39 13.8519 50.8919 14.0977 50.2637 14.0977C 49.6224 14.0977 49.1178 13.8942 48.75 13.4873L 48.75 16.0312L 47.8467 16.0312L 47.8467 8.7168L 48.6719 8.7168L 48.7158 9.30273C 49.0837 8.84701 49.5947 8.61914 50.249 8.61914C 50.8838 8.61914 51.3851 8.8584 51.7529 9.33691C 52.124 9.81543 52.3096 10.4811 52.3096 11.334L 52.3096 11.417ZM 51.4062 11.3145C 51.4062 10.7188 51.2793 10.2484 51.0254 9.90332C 50.7715 9.55827 50.4232 9.38574 49.9805 9.38574C 49.4336 9.38574 49.0234 9.62826 48.75 10.1133L 48.75 12.6377C 49.0202 13.1195 49.4336 13.3604 49.9902 13.3604C 50.4232 13.3604 50.7666 13.1895 51.0205 12.8477C 51.2777 12.5026 51.4062 11.9915 51.4062 11.3145ZM 54.3652 9.35645C 54.7656 8.86491 55.2865 8.61914 55.9277 8.61914C 57.0443 8.61914 57.6074 9.24902 57.6172 10.5088L 57.6172 14L 56.7139 14L 56.7139 10.5039C 56.7106 10.123 56.6227 9.84147 56.4502 9.65918C 56.2809 9.47689 56.0156 9.38574 55.6543 9.38574C 55.3613 9.38574 55.1042 9.46387 54.8828 9.62012C 54.6615 9.77637 54.4889 9.98145 54.3652 10.2354L 54.3652 14L 53.4619 14L 53.4619 6.5L 54.3652 6.5L 54.3652 9.35645Z" />
  </defs>
</svg>
