<svg version="1.1" xmlns="http://www.w3.org/2000/svg" xmlns:xlink="http://www.w3.org/1999/xlink" width="879" height="773"><defs/><g><g transform="translate(-54,-6) scale(1,1)"><path fill="#ffffff" stroke="none" d="M 266 432 L 822 432 Q 832 432 832 442 L 832 654 Q 832 664 822 664 L 266 664 Q 256 664 256 654 L 256 442 Q 256 432 266 432 Z"/></g><g transform="translate(-54,-6) scale(1,1)"><path fill="none" stroke="#000000" d="M 266 432 L 822 432 Q 832 432 832 442 L 832 654 Q 832 664 822 664 L 266 664 Q 256 664 256 654 L 256 442 Q 256 432 266 432 Z" stroke-miterlimit="10"/></g><g transform="translate(-54,-6) scale(1,1)"><path fill="none" stroke="#000000" d="M 256 457 L 832 457" stroke-miterlimit="10"/></g><g transform="translate(-54,-6) scale(1,1)"><g><path fill="none" stroke="none"/><text fill="#000000" stroke="none" font-family="Arial" font-size="13px" font-style="normal" font-weight="bold" text-decoration="none" x="462.0009765625" y="451.5">c1. POSITIVE POSSIBILITY</text></g></g><g transform="translate(-54,-6) scale(1,1)"><path fill="#ffffff" stroke="none" d="M 586 528 L 798 528 Q 808 528 808 538 L 808 638 Q 808 648 798 648 L 586 648 Q 576 648 576 638 L 576 538 Q 576 528 586 528 Z"/></g><g transform="translate(-54,-6) scale(1,1)"><path fill="none" stroke="#000000" d="M 586 528 L 798 528 Q 808 528 808 538 L 808 638 Q 808 648 798 648 L 586 648 Q 576 648 576 638 L 576 538 Q 576 528 586 528 Z" stroke-miterlimit="10"/></g><g transform="translate(-54,-6) scale(1,1)"><path fill="none" stroke="#000000" d="M 576 553 L 808 553" stroke-miterlimit="10"/></g><g transform="translate(-54,-6) scale(1,1)"><g><path fill="none" stroke="none"/><text fill="#000000" stroke="none" font-family="Arial" font-size="13px" font-style="normal" font-weight="bold" text-decoration="none" x="607.11279296875" y="547.5">c4. NEGATIVE POSSIBILITY</text></g></g><g transform="translate(-54,-6) scale(1,1)"><path fill="#ffffff" stroke="none" d="M 378 248 L 417 248 Q 427 248 427 258 L 427 277 Q 427 287 417 287 L 378 287 Q 368 287 368 277 L 368 258 Q 368 248 378 248 Z"/></g><g transform="translate(-54,-6) scale(1,1)"><path fill="none" stroke="#000000" d="M 378 248 L 417 248 Q 427 248 427 258 L 427 277 Q 427 287 417 287 L 378 287 Q 368 287 368 277 L 368 258 Q 368 248 378 248 Z" stroke-miterlimit="10"/></g><g transform="translate(-54,-6) scale(1,1)"><g><path fill="none" stroke="none"/><text fill="#000000" stroke="none" font-family="Arial" font-size="13px" font-style="normal" font-weight="bold" text-decoration="none" x="383.411376953125" y="267.5">Alice</text></g></g><g transform="translate(-54,-6) scale(1,1)"><path fill="#ffffff" stroke="none" d="M 650 248 L 689 248 Q 699 248 699 258 L 699 277 Q 699 287 689 287 L 650 287 Q 640 287 640 277 L 640 258 Q 640 248 650 248 Z"/></g><g transform="translate(-54,-6) scale(1,1)"><path fill="none" stroke="#000000" d="M 650 248 L 689 248 Q 699 248 699 258 L 699 277 Q 699 287 689 287 L 650 287 Q 640 287 640 277 L 640 258 Q 640 248 650 248 Z" stroke-miterlimit="10"/></g><g transform="translate(-54,-6) scale(1,1)"><g><path fill="none" stroke="none"/><text fill="#000000" stroke="none" font-family="Arial" font-size="13px" font-style="normal" font-weight="bold" text-decoration="none" x="657.9345703125" y="267.5">Bob</text></g></g><g transform="translate(-54,-6) scale(1,1)"><path fill="#ffffff" stroke="none" d="M 514 336 L 558.64990234375 336 Q 568.64990234375 336 568.64990234375 346 L 568.64990234375 365 Q 568.64990234375 375 558.64990234375 375 L 514 375 Q 504 375 504 365 L 504 346 Q 504 336 514 336 Z"/></g><g transform="translate(-54,-6) scale(1,1)"><path fill="none" stroke="#000000" d="M 514 336 L 558.64990234375 336 Q 568.64990234375 336 568.64990234375 346 L 568.64990234375 365 Q 568.64990234375 375 558.64990234375 375 L 514 375 Q 504 375 504 365 L 504 346 Q 504 336 514 336 Z" stroke-miterlimit="10"/></g><g transform="translate(-54,-6) scale(1,1)"><g><path fill="none" stroke="none"/><text fill="#000000" stroke="none" font-family="Arial" font-size="13px" font-style="normal" font-weight="bold" text-decoration="none" x="509.950439453125" y="355.5">message</text></g></g><g transform="translate(-54,-6) scale(1,1)"><path fill="#ffffff" stroke="none" d="M 378 336 L 417 336 Q 427 336 427 346 L 427 365 Q 427 375 417 375 L 378 375 Q 368 375 368 365 L 368 346 Q 368 336 378 336 Z"/></g><g transform="translate(-54,-6) scale(1,1)"><path fill="none" stroke="#000000" d="M 378 336 L 417 336 Q 427 336 427 346 L 427 365 Q 427 375 417 375 L 378 375 Q 368 375 368 365 L 368 346 Q 368 336 378 336 Z" stroke-miterlimit="10"/></g><g transform="translate(-54,-6) scale(1,1)"><g><path fill="none" stroke="none"/><text fill="#000000" stroke="none" font-family="Arial" font-size="13px" font-style="normal" font-weight="bold" text-decoration="none" x="383.405029296875" y="355.5">send</text></g></g><g transform="translate(-54,-6) scale(1,1)"><path fill="#ffffff" stroke="none" d="M 650 336 L 689 336 Q 699 336 699 346 L 699 365 Q 699 375 689 375 L 650 375 Q 640 375 640 365 L 640 346 Q 640 336 650 336 Z"/></g><g transform="translate(-54,-6) scale(1,1)"><path fill="none" stroke="#000000" d="M 650 336 L 689 336 Q 699 336 699 346 L 699 365 Q 699 375 689 375 L 650 375 Q 640 375 640 365 L 640 346 Q 640 336 650 336 Z" stroke-miterlimit="10"/></g><g transform="translate(-54,-6) scale(1,1)"><g><path fill="none" stroke="none"/><text fill="#000000" stroke="none" font-family="Arial" font-size="13px" font-style="normal" font-weight="bold" text-decoration="none" x="648.54638671875" y="355.5">receive</text></g></g><g transform="translate(-54,-6) scale(1,1)"><path fill="none" stroke="#000000" d="M 397 336 L 397 287" stroke-miterlimit="10"/></g><g transform="translate(-54,-6) scale(1,1)"><path fill="none" stroke="#000000" d="M 401.209517756016 297.16267485762415 L 397 287 L 392.790482243984 297.16267485762415" stroke-miterlimit="10"/></g><g transform="translate(-54,-6) scale(1,1)"><g><path fill="none" stroke="none"/><text fill="#000000" stroke="none" font-family="Arial" font-size="13px" font-style="normal" font-weight="normal" text-decoration="none" x="369.575927734375" y="316.5">subj</text></g></g><g transform="translate(-54,-6) scale(1,1)"><path fill="none" stroke="#000000" d="M 427 355 L 504 355" stroke-miterlimit="10"/></g><g transform="translate(-54,-6) scale(1,1)"><path fill="none" stroke="#000000" d="M 493.83732514237585 359.209517756016 L 504 355 L 493.83732514237585 350.790482243984" stroke-miterlimit="10"/></g><g transform="translate(-54,-6) scale(1,1)"><g><path fill="none" stroke="none"/><text fill="#000000" stroke="none" font-family="Arial" font-size="13px" font-style="normal" font-weight="normal" text-decoration="none" x="455.5" y="372.5">obj</text></g></g><g transform="translate(-54,-6) scale(1,1)"><path fill="none" stroke="#000000" d="M 640 355 L 569 355" stroke-miterlimit="10"/></g><g transform="translate(-54,-6) scale(1,1)"><path fill="none" stroke="#000000" d="M 579.1626748576241 350.790482243984 L 569 355 L 579.1626748576241 359.209517756016" stroke-miterlimit="10"/></g><g transform="translate(-54,-6) scale(1,1)"><g><path fill="none" stroke="none"/><text fill="#000000" stroke="none" font-family="Arial" font-size="13px" font-style="normal" font-weight="normal" text-decoration="none" x="594.5" y="372.5">obj</text></g></g><g transform="translate(-54,-6) scale(1,1)"><path fill="none" stroke="#000000" d="M 669 336 L 669 287" stroke-miterlimit="10"/></g><g transform="translate(-54,-6) scale(1,1)"><path fill="none" stroke="#000000" d="M 673.209517756016 297.16267485762415 L 669 287 L 664.790482243984 297.16267485762415" stroke-miterlimit="10"/></g><g transform="translate(-54,-6) scale(1,1)"><g><path fill="none" stroke="none"/><text fill="#000000" stroke="none" font-family="Arial" font-size="13px" font-style="normal" font-weight="normal" text-decoration="none" x="641.575927734375" y="316.5">subj</text></g></g><g transform="translate(-54,-6) scale(1,1)"><path fill="none" stroke="#000000" d="M 536 375 L 536 432" stroke-miterlimit="10"/></g><g transform="translate(-54,-6) scale(1,1)"><path fill="none" stroke="#000000" d="M 531.790482243984 421.83732514237585 L 536 432 L 540.209517756016 421.83732514237585" stroke-miterlimit="10"/></g><g transform="translate(-54,-6) scale(1,1)"><g><path fill="none" stroke="none"/><text fill="#000000" stroke="none" font-family="Arial" font-size="13px" font-style="normal" font-weight="normal" text-decoration="none" x="541.5" y="408.5">obj</text></g></g><g transform="translate(-54,-6) scale(1,1)"><path fill="#c6c6c6" stroke="none" d="M 186 416 L 225 416 Q 235 416 235 426 L 235 445 Q 235 455 225 455 L 186 455 Q 176 455 176 445 L 176 426 Q 176 416 186 416 Z"/></g><g transform="translate(-54,-6) scale(1,1)"><path fill="none" stroke="#000000" d="M 186 416 L 225 416 Q 235 416 235 426 L 235 445 Q 235 455 225 455 L 186 455 Q 176 455 176 445 L 176 426 Q 176 416 186 416 Z" stroke-miterlimit="10"/></g><g transform="translate(-54,-6) scale(1,1)"><g><path fill="none" stroke="none"/><text fill="#000000" stroke="none" font-family="Arial" font-size="13px" font-style="normal" font-weight="bold" text-decoration="none" x="193.220458984375" y="435.5">time</text></g></g><g transform="translate(-54,-6) scale(1,1)"><path fill="#ffffff" stroke="none" d="M 490 472 L 529 472 Q 539 472 539 482 L 539 501 Q 539 511 529 511 L 490 511 Q 480 511 480 501 L 480 482 Q 480 472 490 472 Z"/></g><g transform="translate(-54,-6) scale(1,1)"><path fill="none" stroke="#000000" d="M 490 472 L 529 472 Q 539 472 539 482 L 539 501 Q 539 511 529 511 L 490 511 Q 480 511 480 501 L 480 482 Q 480 472 490 472 Z" stroke-miterlimit="10"/></g><g transform="translate(-54,-6) scale(1,1)"><g><path fill="none" stroke="none"/><text fill="#000000" stroke="none" font-family="Arial" font-size="13px" font-style="normal" font-weight="bold" text-decoration="none" x="507.694091796875" y="491.5">I</text></g></g><g transform="translate(-54,-6) scale(1,1)"><path fill="none" stroke="#000000" d="M 379 568 L 488 568 L 488 511" stroke-miterlimit="10"/></g><g transform="translate(-54,-6) scale(1,1)"><path fill="none" stroke="#000000" d="M 492.209517756016 521.1626748576241 L 488 511 L 483.790482243984 521.1626748576241" stroke-miterlimit="10"/></g><g transform="translate(-54,-6) scale(1,1)"><g><path fill="none" stroke="none"/><text fill="#000000" stroke="none" font-family="Arial" font-size="13px" font-style="normal" font-weight="normal" text-decoration="none" x="397.575927734375" y="564.5">subj</text></g></g><g transform="translate(-54,-6) scale(1,1)"><path fill="none" stroke="#000000" d="M 379 584 L 576 584" stroke-miterlimit="10"/></g><g transform="translate(-54,-6) scale(1,1)"><path fill="none" stroke="#000000" d="M 565.8373251423759 588.209517756016 L 576 584 L 565.8373251423758 579.790482243984" stroke-miterlimit="10"/></g><g transform="translate(-54,-6) scale(1,1)"><g><path fill="none" stroke="none"/><text fill="#000000" stroke="none" font-family="Arial" font-size="13px" font-style="normal" font-weight="normal" text-decoration="none" x="399.5" y="600.5">obj</text></g></g><g transform="translate(-54,-6) scale(1,1)"><path fill="none" stroke="#000000" d="M 608 576 L 528 576 L 528 511" stroke-miterlimit="10"/></g><g transform="translate(-54,-6) scale(1,1)"><path fill="none" stroke="#000000" d="M 532.209517756016 521.1626748576241 L 528 511 L 523.790482243984 521.1626748576241" stroke-miterlimit="10"/></g><g transform="translate(-54,-6) scale(1,1)"><g><path fill="none" stroke="none"/><text fill="#000000" stroke="none" font-family="Arial" font-size="13px" font-style="normal" font-weight="normal" text-decoration="none" x="579.575927734375" y="571.5">subj</text></g></g><g transform="translate(-54,-6) scale(1,1)"><path fill="none" stroke="#000000" d="M 176 432 L 138 432" stroke-miterlimit="10"/></g><g transform="translate(-54,-6) scale(1,1)"><path fill="none" stroke="#000000" d="M 148.16267485762415 427.790482243984 L 138 432 L 148.16267485762415 436.209517756016" stroke-miterlimit="10"/></g><g transform="translate(-54,-6) scale(1,1)"><g><path fill="none" stroke="none"/><text fill="#000000" stroke="none" font-family="Arial" font-size="13px" font-style="normal" font-weight="normal" text-decoration="none" x="151.5" y="447.5">obj</text></g></g><g transform="translate(-54,-6) scale(1,1)"><path fill="none" stroke="#000000" d="M 480 491 L 304 491 L 304 272 L 368 272" stroke-miterlimit="10" stroke-dasharray="3"/></g><g transform="translate(-54,-6) scale(1,1)"><path fill="none" stroke="#000000" d="M 779 584 L 792 584 L 792 272 L 699 272" stroke-miterlimit="10" stroke-dasharray="3"/></g><g transform="translate(-54,-6) scale(1,1)"><path fill="#c6c6c6" stroke="none" d="M 514 248 L 553 248 Q 563 248 563 258 L 563 277 Q 563 287 553 287 L 514 287 Q 504 287 504 277 L 504 258 Q 504 248 514 248 Z"/></g><g transform="translate(-54,-6) scale(1,1)"><path fill="none" stroke="#000000" d="M 514 248 L 553 248 Q 563 248 563 258 L 563 277 Q 563 287 553 287 L 514 287 Q 504 287 504 277 L 504 258 Q 504 248 514 248 Z" stroke-miterlimit="10"/></g><g transform="translate(-54,-6) scale(1,1)"><g><path fill="none" stroke="none"/><text fill="#000000" stroke="none" font-family="Arial" font-size="13px" font-style="normal" font-weight="bold" text-decoration="none" x="513.62548828125" y="267.5">person</text></g></g><g transform="translate(-54,-6) scale(1,1)"><path fill="none" stroke="#000000" d="M 504 267 L 427 267" stroke-miterlimit="10"/></g><g transform="translate(-54,-6) scale(1,1)"><path fill="none" stroke="#000000" d="M 437.16267485762415 262.790482243984 L 427 267 L 437.16267485762415 271.209517756016" stroke-miterlimit="10"/></g><g transform="translate(-54,-6) scale(1,1)"><g><path fill="none" stroke="none"/><text fill="#000000" stroke="none" font-family="Arial" font-size="13px" font-style="normal" font-weight="normal" text-decoration="none" x="455.5" y="259.5">obj</text></g></g><g transform="translate(-54,-6) scale(1,1)"><path fill="none" stroke="#000000" d="M 563 267 L 640 267" stroke-miterlimit="10"/></g><g transform="translate(-54,-6) scale(1,1)"><path fill="none" stroke="#000000" d="M 629.8373251423759 271.209517756016 L 640 267 L 629.8373251423758 262.790482243984" stroke-miterlimit="10"/></g><g transform="translate(-54,-6) scale(1,1)"><g><path fill="none" stroke="none"/><text fill="#000000" stroke="none" font-family="Arial" font-size="13px" font-style="normal" font-weight="normal" text-decoration="none" x="592.5" y="258.5">obj</text></g></g><g transform="translate(-54,-6) scale(1,1)"><path fill="#c6c6c6" stroke="none" d="M 194 336 L 248.0634765625 336 Q 258.0634765625 336 258.0634765625 346 L 258.0634765625 365 Q 258.0634765625 375 248.0634765625 375 L 194 375 Q 184 375 184 365 L 184 346 Q 184 336 194 336 Z"/></g><g transform="translate(-54,-6) scale(1,1)"><path fill="none" stroke="#000000" d="M 194 336 L 248.0634765625 336 Q 258.0634765625 336 258.0634765625 346 L 258.0634765625 365 Q 258.0634765625 375 248.0634765625 375 L 194 375 Q 184 375 184 365 L 184 346 Q 184 336 194 336 Z" stroke-miterlimit="10"/></g><g transform="translate(-54,-6) scale(1,1)"><g><path fill="none" stroke="none"/><text fill="#000000" stroke="none" font-family="Arial" font-size="13px" font-style="normal" font-weight="bold" text-decoration="none" x="188.5" y="355.5">12.06.2017</text></g></g><g transform="translate(-54,-6) scale(1,1)"><path fill="#c6c6c6" stroke="none" d="M 74 416 L 128.0634765625 416 Q 138.0634765625 416 138.0634765625 426 L 138.0634765625 445 Q 138.0634765625 455 128.0634765625 455 L 74 455 Q 64 455 64 445 L 64 426 Q 64 416 74 416 Z"/></g><g transform="translate(-54,-6) scale(1,1)"><path fill="none" stroke="#000000" d="M 74 416 L 128.0634765625 416 Q 138.0634765625 416 138.0634765625 426 L 138.0634765625 445 Q 138.0634765625 455 128.0634765625 455 L 74 455 Q 64 455 64 445 L 64 426 Q 64 416 74 416 Z" stroke-miterlimit="10"/></g><g transform="translate(-54,-6) scale(1,1)"><g><path fill="none" stroke="none"/><text fill="#000000" stroke="none" font-family="Arial" font-size="13px" font-style="normal" font-weight="bold" text-decoration="none" x="68.5" y="435.5">11.06.2017</text></g></g><g transform="translate(-54,-6) scale(1,1)"><path fill="none" stroke="#000000" d="M 258 355 L 368 355" stroke-miterlimit="10"/></g><g transform="translate(-54,-6) scale(1,1)"><path fill="none" stroke="#000000" d="M 357.83732514237585 359.209517756016 L 368 355 L 357.83732514237585 350.790482243984" stroke-miterlimit="10"/></g><g transform="translate(-54,-6) scale(1,1)"><g><path fill="none" stroke="none"/><text fill="#000000" stroke="none" font-family="Arial" font-size="13px" font-style="normal" font-weight="normal" text-decoration="none" x="312.5" y="370.5">obj</text></g></g><g transform="translate(-54,-6) scale(1,1)"><path fill="none" stroke="#000000" d="M 216 416 L 216 375" stroke-miterlimit="10"/></g><g transform="translate(-54,-6) scale(1,1)"><path fill="none" stroke="#000000" d="M 220.209517756016 385.16267485762415 L 216 375 L 211.790482243984 385.16267485762415" stroke-miterlimit="10"/></g><g transform="translate(-54,-6) scale(1,1)"><g><path fill="none" stroke="none"/><text fill="#000000" stroke="none" font-family="Arial" font-size="13px" font-style="normal" font-weight="normal" text-decoration="none" x="218.5" y="405.5">obj</text></g></g><g transform="translate(-54,-6) scale(1,1)"><path fill="#c6c6c6" stroke="none" d="M 394 704 L 442.26171875 704 Q 452.26171875 704 452.26171875 714 L 452.26171875 733 Q 452.26171875 743 442.26171875 743 L 394 743 Q 384 743 384 733 L 384 714 Q 384 704 394 704 Z"/></g><g transform="translate(-54,-6) scale(1,1)"><path fill="none" stroke="#000000" d="M 394 704 L 442.26171875 704 Q 452.26171875 704 452.26171875 714 L 452.26171875 733 Q 452.26171875 743 442.26171875 743 L 394 743 Q 384 743 384 733 L 384 714 Q 384 704 394 704 Z" stroke-miterlimit="10"/></g><g transform="translate(-54,-6) scale(1,1)"><g><path fill="none" stroke="none"/><text fill="#000000" stroke="none" font-family="Arial" font-size="13px" font-style="normal" font-weight="bold" text-decoration="none" x="391.035888671875" y="723.5">necessity</text></g></g><g transform="translate(-54,-6) scale(1,1)"><path fill="#c6c6c6" stroke="none" d="M 274 704 L 313 704 Q 323 704 323 714 L 323 733 Q 323 743 313 743 L 274 743 Q 264 743 264 733 L 264 714 Q 264 704 274 704 Z"/></g><g transform="translate(-54,-6) scale(1,1)"><path fill="none" stroke="#000000" d="M 274 704 L 313 704 Q 323 704 323 714 L 323 733 Q 323 743 313 743 L 274 743 Q 264 743 264 733 L 264 714 Q 264 704 274 704 Z" stroke-miterlimit="10"/></g><g transform="translate(-54,-6) scale(1,1)"><g><path fill="none" stroke="none"/><text fill="#000000" stroke="none" font-family="Arial" font-size="13px" font-style="normal" font-weight="bold" text-decoration="none" x="279.77001953125" y="723.5">think</text></g></g><g transform="translate(-54,-6) scale(1,1)"><path fill="none" stroke="#000000" d="M 296 704 L 296 576 L 320 576" stroke-miterlimit="10"/></g><g transform="translate(-54,-6) scale(1,1)"><path fill="none" stroke="#000000" d="M 309.83732514237585 580.209517756016 L 320 576 L 309.83732514237585 571.790482243984" stroke-miterlimit="10"/></g><g transform="translate(-54,-6) scale(1,1)"><g><path fill="none" stroke="none"/><text fill="#000000" stroke="none" font-family="Arial" font-size="13px" font-style="normal" font-weight="normal" text-decoration="none" x="303.5" y="610.5">obj</text></g></g><g transform="translate(-54,-6) scale(1,1)"><path fill="none" stroke="#000000" d="M 383 723 L 324 723" stroke-miterlimit="10"/></g><g transform="translate(-54,-6) scale(1,1)"><path fill="none" stroke="#000000" d="M 334.16267485762415 718.790482243984 L 324 723 L 334.16267485762415 727.209517756016" stroke-miterlimit="10"/></g><g transform="translate(-54,-6) scale(1,1)"><g><path fill="none" stroke="none"/><text fill="#000000" stroke="none" font-family="Arial" font-size="13px" font-style="normal" font-weight="normal" text-decoration="none" x="343.5" y="744.5">obj</text></g></g><g transform="translate(-54,-6) scale(1,1)"><path fill="none" stroke="#000000" d="M 408 704 L 408 640 L 344 640 L 344 599" stroke-miterlimit="10"/></g><g transform="translate(-54,-6) scale(1,1)"><path fill="none" stroke="#000000" d="M 348.209517756016 609.1626748576241 L 344 599 L 339.790482243984 609.1626748576241" stroke-miterlimit="10"/></g><g transform="translate(-54,-6) scale(1,1)"><g><path fill="none" stroke="none"/><text fill="#000000" stroke="none" font-family="Arial" font-size="13px" font-style="normal" font-weight="normal" text-decoration="none" x="351.5" y="627.5">obj</text></g></g><g transform="translate(-54,-6) scale(1,1)"><path fill="#ffffff" stroke="none" d="M 330 560 L 369 560 Q 379 560 379 570 L 379 589 Q 379 599 369 599 L 330 599 Q 320 599 320 589 L 320 570 Q 320 560 330 560 Z"/></g><g transform="translate(-54,-6) scale(1,1)"><path fill="none" stroke="#000000" d="M 330 560 L 369 560 Q 379 560 379 570 L 379 589 Q 379 599 369 599 L 330 599 Q 320 599 320 589 L 320 570 Q 320 560 330 560 Z" stroke-miterlimit="10"/></g><g transform="translate(-54,-6) scale(1,1)"><g><path fill="none" stroke="none"/><text fill="#000000" stroke="none" font-family="Arial" font-size="13px" font-style="normal" font-weight="bold" text-decoration="none" x="335.77001953125" y="579.5">think</text></g></g><g transform="translate(-54,-6) scale(1,1)"><path fill="#ffffff" stroke="none" d="M 618 568 L 657 568 Q 667 568 667 578 L 667 597 Q 667 607 657 607 L 618 607 Q 608 607 608 597 L 608 578 Q 608 568 618 568 Z"/></g><g transform="translate(-54,-6) scale(1,1)"><path fill="none" stroke="#000000" d="M 618 568 L 657 568 Q 667 568 667 578 L 667 597 Q 667 607 657 607 L 618 607 Q 608 607 608 597 L 608 578 Q 608 568 618 568 Z" stroke-miterlimit="10"/></g><g transform="translate(-54,-6) scale(1,1)"><g><path fill="none" stroke="none"/><text fill="#000000" stroke="none" font-family="Arial" font-size="13px" font-style="normal" font-weight="bold" text-decoration="none" x="627.02001953125" y="587.5">see</text></g></g><g transform="translate(-54,-6) scale(1,1)"><path fill="#ffffff" stroke="none" d="M 730 568 L 769 568 Q 779 568 779 578 L 779 597 Q 779 607 769 607 L 730 607 Q 720 607 720 597 L 720 578 Q 720 568 730 568 Z"/></g><g transform="translate(-54,-6) scale(1,1)"><path fill="none" stroke="#000000" d="M 730 568 L 769 568 Q 779 568 779 578 L 779 597 Q 779 607 769 607 L 730 607 Q 720 607 720 597 L 720 578 Q 720 568 730 568 Z" stroke-miterlimit="10"/></g><g transform="translate(-54,-6) scale(1,1)"><g><path fill="none" stroke="none"/><text fill="#000000" stroke="none" font-family="Arial" font-size="13px" font-style="normal" font-weight="bold" text-decoration="none" x="739.02001953125" y="587.5">you</text></g></g><g transform="translate(-54,-6) scale(1,1)"><path fill="none" stroke="#000000" d="M 104 455 L 104 768 L 624 768 L 624 607" stroke-miterlimit="10"/></g><g transform="translate(-54,-6) scale(1,1)"><path fill="none" stroke="#000000" d="M 628.209517756016 617.1626748576241 L 624 607 L 619.790482243984 617.1626748576241" stroke-miterlimit="10"/></g><g transform="translate(-54,-6) scale(1,1)"><g><path fill="none" stroke="none"/><text fill="#000000" stroke="none" font-family="Arial" font-size="13px" font-style="normal" font-weight="normal" text-decoration="none" x="597.5" y="636.5">obj</text></g></g><g transform="translate(-54,-6) scale(1,1)"><path fill="none" stroke="#000000" d="M 667 587 L 720 587" stroke-miterlimit="10"/></g><g transform="translate(-54,-6) scale(1,1)"><path fill="none" stroke="#000000" d="M 709.8373251423759 591.209517756016 L 720 587 L 709.8373251423758 582.790482243984" stroke-miterlimit="10"/></g><g transform="translate(-54,-6) scale(1,1)"><g><path fill="none" stroke="none"/><text fill="#000000" stroke="none" font-family="Arial" font-size="13px" font-style="normal" font-weight="normal" text-decoration="none" x="679.5" y="579.5">obj</text></g></g><g transform="translate(-54,-6) scale(1,1)"><path fill="#c6c6c6" stroke="none" d="M 874 416 L 913 416 Q 923 416 923 426 L 923 445 Q 923 455 913 455 L 874 455 Q 864 455 864 445 L 864 426 Q 864 416 874 416 Z"/></g><g transform="translate(-54,-6) scale(1,1)"><path fill="none" stroke="#000000" d="M 874 416 L 913 416 Q 923 416 923 426 L 923 445 Q 923 455 913 455 L 874 455 Q 864 455 864 445 L 864 426 Q 864 416 874 416 Z" stroke-miterlimit="10"/></g><g transform="translate(-54,-6) scale(1,1)"><g><path fill="none" stroke="none"/><text fill="#000000" stroke="none" font-family="Arial" font-size="13px" font-style="normal" font-weight="bold" text-decoration="none" x="883.02001953125" y="435.5">see</text></g></g><g transform="translate(-54,-6) scale(1,1)"><path fill="none" stroke="#000000" d="M 896 455 L 896 632 L 648 632 L 648 607" stroke-miterlimit="10"/></g><g transform="translate(-54,-6) scale(1,1)"><path fill="none" stroke="#000000" d="M 652.209517756016 617.1626748576241 L 648 607 L 643.790482243984 617.1626748576241" stroke-miterlimit="10"/></g><g transform="translate(-54,-6) scale(1,1)"><g><path fill="none" stroke="none"/><text fill="#000000" stroke="none" font-family="Arial" font-size="13px" font-style="normal" font-weight="normal" text-decoration="none" x="669.325927734375" y="627.5">obj</text></g></g><g transform="translate(-54,-6) scale(1,1)"><path fill="#ffffff" stroke="none" d="M 514 168 L 558.64990234375 168 Q 568.64990234375 168 568.64990234375 178 L 568.64990234375 197 Q 568.64990234375 207 558.64990234375 207 L 514 207 Q 504 207 504 197 L 504 178 Q 504 168 514 168 Z"/></g><g transform="translate(-54,-6) scale(1,1)"><path fill="none" stroke="#000000" d="M 514 168 L 558.64990234375 168 Q 568.64990234375 168 568.64990234375 178 L 568.64990234375 197 Q 568.64990234375 207 558.64990234375 207 L 514 207 Q 504 207 504 197 L 504 178 Q 504 168 514 168 Z" stroke-miterlimit="10"/></g><g transform="translate(-54,-6) scale(1,1)"><g><path fill="none" stroke="none"/><text fill="#000000" stroke="none" font-family="Arial" font-size="13px" font-style="normal" font-weight="bold" text-decoration="none" x="509.950439453125" y="187.5">message</text></g></g><g transform="translate(-54,-6) scale(1,1)"><path fill="#ffffff" stroke="none" d="M 378 168 L 417 168 Q 427 168 427 178 L 427 197 Q 427 207 417 207 L 378 207 Q 368 207 368 197 L 368 178 Q 368 168 378 168 Z"/></g><g transform="translate(-54,-6) scale(1,1)"><path fill="none" stroke="#000000" d="M 378 168 L 417 168 Q 427 168 427 178 L 427 197 Q 427 207 417 207 L 378 207 Q 368 207 368 197 L 368 178 Q 368 168 378 168 Z" stroke-miterlimit="10"/></g><g transform="translate(-54,-6) scale(1,1)"><g><path fill="none" stroke="none"/><text fill="#000000" stroke="none" font-family="Arial" font-size="13px" font-style="normal" font-weight="bold" text-decoration="none" x="376.54638671875" y="187.5">receive</text></g></g><g transform="translate(-54,-6) scale(1,1)"><path fill="#ffffff" stroke="none" d="M 650 168 L 689 168 Q 699 168 699 178 L 699 197 Q 699 207 689 207 L 650 207 Q 640 207 640 197 L 640 178 Q 640 168 650 168 Z"/></g><g transform="translate(-54,-6) scale(1,1)"><path fill="none" stroke="#000000" d="M 650 168 L 689 168 Q 699 168 699 178 L 699 197 Q 699 207 689 207 L 650 207 Q 640 207 640 197 L 640 178 Q 640 168 650 168 Z" stroke-miterlimit="10"/></g><g transform="translate(-54,-6) scale(1,1)"><g><path fill="none" stroke="none"/><text fill="#000000" stroke="none" font-family="Arial" font-size="13px" font-style="normal" font-weight="bold" text-decoration="none" x="655.405029296875" y="187.5">send</text></g></g><g transform="translate(-54,-6) scale(1,1)"><path fill="none" stroke="#000000" d="M 397 207 L 397 248" stroke-miterlimit="10"/></g><g transform="translate(-54,-6) scale(1,1)"><path fill="none" stroke="#000000" d="M 392.790482243984 237.83732514237585 L 397 248 L 401.209517756016 237.83732514237585" stroke-miterlimit="10"/></g><g transform="translate(-54,-6) scale(1,1)"><g><path fill="none" stroke="none"/><text fill="#000000" stroke="none" font-family="Arial" font-size="13px" font-style="normal" font-weight="normal" text-decoration="none" x="367.5" y="231.5">subj</text></g></g><g transform="translate(-54,-6) scale(1,1)"><path fill="none" stroke="#000000" d="M 669 207 L 669 248" stroke-miterlimit="10"/></g><g transform="translate(-54,-6) scale(1,1)"><path fill="none" stroke="#000000" d="M 664.790482243984 237.83732514237585 L 669 248 L 673.209517756016 237.83732514237585" stroke-miterlimit="10"/></g><g transform="translate(-54,-6) scale(1,1)"><g><path fill="none" stroke="none"/><text fill="#000000" stroke="none" font-family="Arial" font-size="13px" font-style="normal" font-weight="normal" text-decoration="none" x="639.5" y="231.5">subj</text></g></g><g transform="translate(-54,-6) scale(1,1)"><path fill="none" stroke="#000000" d="M 427 187 L 504 187" stroke-miterlimit="10"/></g><g transform="translate(-54,-6) scale(1,1)"><path fill="none" stroke="#000000" d="M 493.83732514237585 191.209517756016 L 504 187 L 493.83732514237585 182.790482243984" stroke-miterlimit="10"/></g><g transform="translate(-54,-6) scale(1,1)"><g><path fill="none" stroke="none"/><text fill="#000000" stroke="none" font-family="Arial" font-size="13px" font-style="normal" font-weight="normal" text-decoration="none" x="456.5" y="180.5">obj</text></g></g><g transform="translate(-54,-6) scale(1,1)"><path fill="none" stroke="#000000" d="M 640 187 L 569 187" stroke-miterlimit="10"/></g><g transform="translate(-54,-6) scale(1,1)"><path fill="none" stroke="#000000" d="M 579.1626748576241 182.790482243984 L 569 187 L 579.1626748576241 191.209517756016" stroke-miterlimit="10"/></g><g transform="translate(-54,-6) scale(1,1)"><g><path fill="none" stroke="none"/><text fill="#000000" stroke="none" font-family="Arial" font-size="13px" font-style="normal" font-weight="normal" text-decoration="none" x="594.5" y="179.5">obj</text></g></g><g transform="translate(-54,-6) scale(1,1)"><path fill="none" stroke="#000000" d="M 104 416 L 104 192 L 368 192" stroke-miterlimit="10"/></g><g transform="translate(-54,-6) scale(1,1)"><path fill="none" stroke="#000000" d="M 357.83732514237585 196.209517756016 L 368 192 L 357.83732514237585 187.790482243984" stroke-miterlimit="10"/></g><g transform="translate(-54,-6) scale(1,1)"><g><path fill="none" stroke="none"/><text fill="#000000" stroke="none" font-family="Arial" font-size="13px" font-style="normal" font-weight="normal" text-decoration="none" x="111.5" y="211.5">obj</text></g></g><g transform="translate(-54,-6) scale(1,1)"><path fill="#ffffff" stroke="none" d="M 378 16 L 686 16 Q 696 16 696 26 L 696 118 Q 696 128 686 128 L 378 128 Q 368 128 368 118 L 368 26 Q 368 16 378 16 Z"/></g><g transform="translate(-54,-6) scale(1,1)"><path fill="none" stroke="#000000" d="M 378 16 L 686 16 Q 696 16 696 26 L 696 118 Q 696 128 686 128 L 378 128 Q 368 128 368 118 L 368 26 Q 368 16 378 16 Z" stroke-miterlimit="10"/></g><g transform="translate(-54,-6) scale(1,1)"><path fill="none" stroke="#000000" d="M 368 41 L 696 41" stroke-miterlimit="10"/></g><g transform="translate(-54,-6) scale(1,1)"><g><path fill="none" stroke="none"/><text fill="#000000" stroke="none" font-family="Arial" font-size="13px" font-style="normal" font-weight="bold" text-decoration="none" x="450.0009765625" y="35.5">c5. POSITIVE POSSIBILITY</text></g></g><g transform="translate(-54,-6) scale(1,1)"><path fill="#ffffff" stroke="none" d="M 402 56 L 441 56 Q 451 56 451 66 L 451 85 Q 451 95 441 95 L 402 95 Q 392 95 392 85 L 392 66 Q 392 56 402 56 Z"/></g><g transform="translate(-54,-6) scale(1,1)"><path fill="none" stroke="#000000" d="M 402 56 L 441 56 Q 451 56 451 66 L 451 85 Q 451 95 441 95 L 402 95 Q 392 95 392 85 L 392 66 Q 392 56 402 56 Z" stroke-miterlimit="10"/></g><g transform="translate(-54,-6) scale(1,1)"><g><path fill="none" stroke="none"/><text fill="#000000" stroke="none" font-family="Arial" font-size="13px" font-style="normal" font-weight="bold" text-decoration="none" x="411.02001953125" y="75.5">you</text></g></g><g transform="translate(-54,-6) scale(1,1)"><path fill="#ffffff" stroke="none" d="M 514 56 L 553 56 Q 563 56 563 66 L 563 85 Q 563 95 553 95 L 514 95 Q 504 95 504 85 L 504 66 Q 504 56 514 56 Z"/></g><g transform="translate(-54,-6) scale(1,1)"><path fill="none" stroke="#000000" d="M 514 56 L 553 56 Q 563 56 563 66 L 563 85 Q 563 95 553 95 L 514 95 Q 504 95 504 85 L 504 66 Q 504 56 514 56 Z" stroke-miterlimit="10"/></g><g transform="translate(-54,-6) scale(1,1)"><g><path fill="none" stroke="none"/><text fill="#000000" stroke="none" font-family="Arial" font-size="13px" font-style="normal" font-weight="bold" text-decoration="none" x="523.02001953125" y="75.5">see</text></g></g><g transform="translate(-54,-6) scale(1,1)"><path fill="#ffffff" stroke="none" d="M 626 56 L 665 56 Q 675 56 675 66 L 675 85 Q 675 95 665 95 L 626 95 Q 616 95 616 85 L 616 66 Q 616 56 626 56 Z"/></g><g transform="translate(-54,-6) scale(1,1)"><path fill="none" stroke="#000000" d="M 626 56 L 665 56 Q 675 56 675 66 L 675 85 Q 675 95 665 95 L 626 95 Q 616 95 616 85 L 616 66 Q 616 56 626 56 Z" stroke-miterlimit="10"/></g><g transform="translate(-54,-6) scale(1,1)"><g><path fill="none" stroke="none"/><text fill="#000000" stroke="none" font-family="Arial" font-size="13px" font-style="normal" font-weight="bold" text-decoration="none" x="643.694091796875" y="75.5">I</text></g></g><g transform="translate(-54,-6) scale(1,1)"><path fill="none" stroke="#000000" d="M 528 168 L 528 128" stroke-miterlimit="10"/></g><g transform="translate(-54,-6) scale(1,1)"><path fill="none" stroke="#000000" d="M 532.209517756016 138.16267485762415 L 528 128 L 523.790482243984 138.16267485762415" stroke-miterlimit="10"/></g><g transform="translate(-54,-6) scale(1,1)"><g><path fill="none" stroke="none"/><text fill="#000000" stroke="none" font-family="Arial" font-size="13px" font-style="normal" font-weight="normal" text-decoration="none" x="504.5" y="153.5">obj</text></g></g><g transform="translate(-54,-6) scale(1,1)"><path fill="none" stroke="#000000" d="M 503 75 L 452 75" stroke-miterlimit="10"/></g><g transform="translate(-54,-6) scale(1,1)"><path fill="none" stroke="#000000" d="M 462.16267485762415 70.79048224398402 L 452 75 L 462.16267485762415 79.20951775601598" stroke-miterlimit="10"/></g><g transform="translate(-54,-6) scale(1,1)"><g><path fill="none" stroke="none"/><text fill="#000000" stroke="none" font-family="Arial" font-size="13px" font-style="normal" font-weight="normal" text-decoration="none" x="474.75" y="68.5">obj</text></g></g><g transform="translate(-54,-6) scale(1,1)"><path fill="none" stroke="#000000" d="M 564 75 L 615 75" stroke-miterlimit="10"/></g><g transform="translate(-54,-6) scale(1,1)"><path fill="none" stroke="#000000" d="M 604.8373251423759 79.20951775601598 L 615 75 L 604.8373251423758 70.79048224398402" stroke-miterlimit="10"/></g><g transform="translate(-54,-6) scale(1,1)"><g><path fill="none" stroke="none"/><text fill="#000000" stroke="none" font-family="Arial" font-size="13px" font-style="normal" font-weight="normal" text-decoration="none" x="572.5" y="67.5">subj</text></g></g><g transform="translate(-54,-6) scale(1,1)"><path fill="none" stroke="#000000" d="M 896 416 L 896 152 L 544 152 L 544 95" stroke-miterlimit="10"/></g><g transform="translate(-54,-6) scale(1,1)"><path fill="none" stroke="#000000" d="M 548.209517756016 105.16267485762415 L 544 95 L 539.790482243984 105.16267485762415" stroke-miterlimit="10"/></g><g transform="translate(-54,-6) scale(1,1)"><g><path fill="none" stroke="none"/><text fill="#000000" stroke="none" font-family="Arial" font-size="13px" font-style="normal" font-weight="normal" text-decoration="none" x="551.5" y="115.5">obj</text></g></g><g transform="translate(-54,-6) scale(1,1)"><path fill="none" stroke="#000000" d="M 88 416 L 88 112 L 528 112 L 528 95" stroke-miterlimit="10"/></g><g transform="translate(-54,-6) scale(1,1)"><path fill="none" stroke="#000000" d="M 532.209517756016 105.16267485762415 L 528 95 L 523.790482243984 105.16267485762415" stroke-miterlimit="10"/></g><g transform="translate(-54,-6) scale(1,1)"><g><path fill="none" stroke="none"/><text fill="#000000" stroke="none" font-family="Arial" font-size="13px" font-style="normal" font-weight="normal" text-decoration="none" x="375.5" y="108.5">obj</text></g></g><g transform="translate(-54,-6) scale(1,1)"><path fill="none" stroke="#000000" d="M 392 80 L 304 80 L 304 264 L 368 264" stroke-miterlimit="10" stroke-dasharray="3"/></g><g transform="translate(-54,-6) scale(1,1)"><path fill="none" stroke="#000000" d="M 675 72 L 792 72 L 792 264 L 699 264" stroke-miterlimit="10" stroke-dasharray="3"/></g></g></svg>