<svg version="1.1" xmlns="http://www.w3.org/2000/svg" xmlns:xlink="http://www.w3.org/1999/xlink" width="711" height="372"><defs/><g><g transform="translate(-182,-6) scale(1,1)"><path fill="#ffffff" stroke="none" d="M 378 248 L 417 248 Q 427 248 427 258 L 427 277 Q 427 287 417 287 L 378 287 Q 368 287 368 277 L 368 258 Q 368 248 378 248 Z"/></g><g transform="translate(-182,-6) scale(1,1)"><path fill="none" stroke="#000000" d="M 378 248 L 417 248 Q 427 248 427 258 L 427 277 Q 427 287 417 287 L 378 287 Q 368 287 368 277 L 368 258 Q 368 248 378 248 Z" stroke-miterlimit="10"/></g><g transform="translate(-182,-6) scale(1,1)"><g><path fill="none" stroke="none"/><text fill="#000000" stroke="none" font-family="Arial" font-size="13px" font-style="normal" font-weight="bold" text-decoration="none" x="383.411376953125" y="267.5">Alice</text></g></g><g transform="translate(-182,-6) scale(1,1)"><path fill="#ffffff" stroke="none" d="M 650 248 L 689 248 Q 699 248 699 258 L 699 277 Q 699 287 689 287 L 650 287 Q 640 287 640 277 L 640 258 Q 640 248 650 248 Z"/></g><g transform="translate(-182,-6) scale(1,1)"><path fill="none" stroke="#000000" d="M 650 248 L 689 248 Q 699 248 699 258 L 699 277 Q 699 287 689 287 L 650 287 Q 640 287 640 277 L 640 258 Q 640 248 650 248 Z" stroke-miterlimit="10"/></g><g transform="translate(-182,-6) scale(1,1)"><g><path fill="none" stroke="none"/><text fill="#000000" stroke="none" font-family="Arial" font-size="13px" font-style="normal" font-weight="bold" text-decoration="none" x="657.9345703125" y="267.5">Bob</text></g></g><g transform="translate(-182,-6) scale(1,1)"><path fill="#c6c6c6" stroke="none" d="M 202 248 L 241 248 Q 251 248 251 258 L 251 277 Q 251 287 241 287 L 202 287 Q 192 287 192 277 L 192 258 Q 192 248 202 248 Z"/></g><g transform="translate(-182,-6) scale(1,1)"><path fill="none" stroke="#000000" d="M 202 248 L 241 248 Q 251 248 251 258 L 251 277 Q 251 287 241 287 L 202 287 Q 192 287 192 277 L 192 258 Q 192 248 202 248 Z" stroke-miterlimit="10"/></g><g transform="translate(-182,-6) scale(1,1)"><g><path fill="none" stroke="none"/><text fill="#000000" stroke="none" font-family="Arial" font-size="13px" font-style="normal" font-weight="bold" text-decoration="none" x="209.220458984375" y="267.5">time</text></g></g><g transform="translate(-182,-6) scale(1,1)"><path fill="none" stroke="#000000" d="M 224 248 L 224 207" stroke-miterlimit="10"/></g><g transform="translate(-182,-6) scale(1,1)"><path fill="none" stroke="#000000" d="M 228.209517756016 217.16267485762415 L 224 207 L 219.790482243984 217.16267485762415" stroke-miterlimit="10"/></g><g transform="translate(-182,-6) scale(1,1)"><g><path fill="none" stroke="none"/><text fill="#000000" stroke="none" font-family="Arial" font-size="13px" font-style="normal" font-weight="normal" text-decoration="none" x="199.5" y="236.5">obj</text></g></g><g transform="translate(-182,-6) scale(1,1)"><path fill="#c6c6c6" stroke="none" d="M 514 248 L 553 248 Q 563 248 563 258 L 563 277 Q 563 287 553 287 L 514 287 Q 504 287 504 277 L 504 258 Q 504 248 514 248 Z"/></g><g transform="translate(-182,-6) scale(1,1)"><path fill="none" stroke="#000000" d="M 514 248 L 553 248 Q 563 248 563 258 L 563 277 Q 563 287 553 287 L 514 287 Q 504 287 504 277 L 504 258 Q 504 248 514 248 Z" stroke-miterlimit="10"/></g><g transform="translate(-182,-6) scale(1,1)"><g><path fill="none" stroke="none"/><text fill="#000000" stroke="none" font-family="Arial" font-size="13px" font-style="normal" font-weight="bold" text-decoration="none" x="513.62548828125" y="267.5">person</text></g></g><g transform="translate(-182,-6) scale(1,1)"><path fill="none" stroke="#000000" d="M 504 267 L 427 267" stroke-miterlimit="10"/></g><g transform="translate(-182,-6) scale(1,1)"><path fill="none" stroke="#000000" d="M 437.16267485762415 262.790482243984 L 427 267 L 437.16267485762415 271.209517756016" stroke-miterlimit="10"/></g><g transform="translate(-182,-6) scale(1,1)"><g><path fill="none" stroke="none"/><text fill="#000000" stroke="none" font-family="Arial" font-size="13px" font-style="normal" font-weight="normal" text-decoration="none" x="455.5" y="259.5">obj</text></g></g><g transform="translate(-182,-6) scale(1,1)"><path fill="none" stroke="#000000" d="M 563 267 L 640 267" stroke-miterlimit="10"/></g><g transform="translate(-182,-6) scale(1,1)"><path fill="none" stroke="#000000" d="M 629.8373251423759 271.209517756016 L 640 267 L 629.8373251423758 262.790482243984" stroke-miterlimit="10"/></g><g transform="translate(-182,-6) scale(1,1)"><g><path fill="none" stroke="none"/><text fill="#000000" stroke="none" font-family="Arial" font-size="13px" font-style="normal" font-weight="normal" text-decoration="none" x="592.5" y="258.5">obj</text></g></g><g transform="translate(-182,-6) scale(1,1)"><path fill="#c6c6c6" stroke="none" d="M 202 168 L 256.0634765625 168 Q 266.0634765625 168 266.0634765625 178 L 266.0634765625 197 Q 266.0634765625 207 256.0634765625 207 L 202 207 Q 192 207 192 197 L 192 178 Q 192 168 202 168 Z"/></g><g transform="translate(-182,-6) scale(1,1)"><path fill="none" stroke="#000000" d="M 202 168 L 256.0634765625 168 Q 266.0634765625 168 266.0634765625 178 L 266.0634765625 197 Q 266.0634765625 207 256.0634765625 207 L 202 207 Q 192 207 192 197 L 192 178 Q 192 168 202 168 Z" stroke-miterlimit="10"/></g><g transform="translate(-182,-6) scale(1,1)"><g><path fill="none" stroke="none"/><text fill="#000000" stroke="none" font-family="Arial" font-size="13px" font-style="normal" font-weight="bold" text-decoration="none" x="196.5" y="187.5">11.06.2017</text></g></g><g transform="translate(-182,-6) scale(1,1)"><path fill="#c6c6c6" stroke="none" d="M 570 328 L 618.26171875 328 Q 628.26171875 328 628.26171875 338 L 628.26171875 357 Q 628.26171875 367 618.26171875 367 L 570 367 Q 560 367 560 357 L 560 338 Q 560 328 570 328 Z"/></g><g transform="translate(-182,-6) scale(1,1)"><path fill="none" stroke="#000000" d="M 570 328 L 618.26171875 328 Q 628.26171875 328 628.26171875 338 L 628.26171875 357 Q 628.26171875 367 618.26171875 367 L 570 367 Q 560 367 560 357 L 560 338 Q 560 328 570 328 Z" stroke-miterlimit="10"/></g><g transform="translate(-182,-6) scale(1,1)"><g><path fill="none" stroke="none"/><text fill="#000000" stroke="none" font-family="Arial" font-size="13px" font-style="normal" font-weight="bold" text-decoration="none" x="567.035888671875" y="347.5">necessity</text></g></g><g transform="translate(-182,-6) scale(1,1)"><path fill="#c6c6c6" stroke="none" d="M 450 328 L 489 328 Q 499 328 499 338 L 499 357 Q 499 367 489 367 L 450 367 Q 440 367 440 357 L 440 338 Q 440 328 450 328 Z"/></g><g transform="translate(-182,-6) scale(1,1)"><path fill="none" stroke="#000000" d="M 450 328 L 489 328 Q 499 328 499 338 L 499 357 Q 499 367 489 367 L 450 367 Q 440 367 440 357 L 440 338 Q 440 328 450 328 Z" stroke-miterlimit="10"/></g><g transform="translate(-182,-6) scale(1,1)"><g><path fill="none" stroke="none"/><text fill="#000000" stroke="none" font-family="Arial" font-size="13px" font-style="normal" font-weight="bold" text-decoration="none" x="455.77001953125" y="347.5">think</text></g></g><g transform="translate(-182,-6) scale(1,1)"><path fill="none" stroke="#000000" d="M 559 347 L 500 347" stroke-miterlimit="10"/></g><g transform="translate(-182,-6) scale(1,1)"><path fill="none" stroke="#000000" d="M 510.16267485762415 342.790482243984 L 500 347 L 510.16267485762415 351.209517756016" stroke-miterlimit="10"/></g><g transform="translate(-182,-6) scale(1,1)"><g><path fill="none" stroke="none"/><text fill="#000000" stroke="none" font-family="Arial" font-size="13px" font-style="normal" font-weight="normal" text-decoration="none" x="519.5" y="368.5">obj</text></g></g><g transform="translate(-182,-6) scale(1,1)"><path fill="#c6c6c6" stroke="none" d="M 834 88 L 873 88 Q 883 88 883 98 L 883 117 Q 883 127 873 127 L 834 127 Q 824 127 824 117 L 824 98 Q 824 88 834 88 Z"/></g><g transform="translate(-182,-6) scale(1,1)"><path fill="none" stroke="#000000" d="M 834 88 L 873 88 Q 883 88 883 98 L 883 117 Q 883 127 873 127 L 834 127 Q 824 127 824 117 L 824 98 Q 824 88 834 88 Z" stroke-miterlimit="10"/></g><g transform="translate(-182,-6) scale(1,1)"><g><path fill="none" stroke="none"/><text fill="#000000" stroke="none" font-family="Arial" font-size="13px" font-style="normal" font-weight="bold" text-decoration="none" x="843.02001953125" y="107.5">see</text></g></g><g transform="translate(-182,-6) scale(1,1)"><path fill="#ffffff" stroke="none" d="M 514 168 L 558.64990234375 168 Q 568.64990234375 168 568.64990234375 178 L 568.64990234375 197 Q 568.64990234375 207 558.64990234375 207 L 514 207 Q 504 207 504 197 L 504 178 Q 504 168 514 168 Z"/></g><g transform="translate(-182,-6) scale(1,1)"><path fill="none" stroke="#000000" d="M 514 168 L 558.64990234375 168 Q 568.64990234375 168 568.64990234375 178 L 568.64990234375 197 Q 568.64990234375 207 558.64990234375 207 L 514 207 Q 504 207 504 197 L 504 178 Q 504 168 514 168 Z" stroke-miterlimit="10"/></g><g transform="translate(-182,-6) scale(1,1)"><g><path fill="none" stroke="none"/><text fill="#000000" stroke="none" font-family="Arial" font-size="13px" font-style="normal" font-weight="bold" text-decoration="none" x="509.950439453125" y="187.5">message</text></g></g><g transform="translate(-182,-6) scale(1,1)"><path fill="#ffffff" stroke="none" d="M 378 168 L 417 168 Q 427 168 427 178 L 427 197 Q 427 207 417 207 L 378 207 Q 368 207 368 197 L 368 178 Q 368 168 378 168 Z"/></g><g transform="translate(-182,-6) scale(1,1)"><path fill="none" stroke="#000000" d="M 378 168 L 417 168 Q 427 168 427 178 L 427 197 Q 427 207 417 207 L 378 207 Q 368 207 368 197 L 368 178 Q 368 168 378 168 Z" stroke-miterlimit="10"/></g><g transform="translate(-182,-6) scale(1,1)"><g><path fill="none" stroke="none"/><text fill="#000000" stroke="none" font-family="Arial" font-size="13px" font-style="normal" font-weight="bold" text-decoration="none" x="376.54638671875" y="187.5">receive</text></g></g><g transform="translate(-182,-6) scale(1,1)"><path fill="#ffffff" stroke="none" d="M 650 168 L 689 168 Q 699 168 699 178 L 699 197 Q 699 207 689 207 L 650 207 Q 640 207 640 197 L 640 178 Q 640 168 650 168 Z"/></g><g transform="translate(-182,-6) scale(1,1)"><path fill="none" stroke="#000000" d="M 650 168 L 689 168 Q 699 168 699 178 L 699 197 Q 699 207 689 207 L 650 207 Q 640 207 640 197 L 640 178 Q 640 168 650 168 Z" stroke-miterlimit="10"/></g><g transform="translate(-182,-6) scale(1,1)"><g><path fill="none" stroke="none"/><text fill="#000000" stroke="none" font-family="Arial" font-size="13px" font-style="normal" font-weight="bold" text-decoration="none" x="655.405029296875" y="187.5">send</text></g></g><g transform="translate(-182,-6) scale(1,1)"><path fill="none" stroke="#000000" d="M 397 207 L 397 248" stroke-miterlimit="10"/></g><g transform="translate(-182,-6) scale(1,1)"><path fill="none" stroke="#000000" d="M 392.790482243984 237.83732514237585 L 397 248 L 401.209517756016 237.83732514237585" stroke-miterlimit="10"/></g><g transform="translate(-182,-6) scale(1,1)"><g><path fill="none" stroke="none"/><text fill="#000000" stroke="none" font-family="Arial" font-size="13px" font-style="normal" font-weight="normal" text-decoration="none" x="367.5" y="231.5">subj</text></g></g><g transform="translate(-182,-6) scale(1,1)"><path fill="none" stroke="#000000" d="M 669 207 L 669 248" stroke-miterlimit="10"/></g><g transform="translate(-182,-6) scale(1,1)"><path fill="none" stroke="#000000" d="M 664.790482243984 237.83732514237585 L 669 248 L 673.209517756016 237.83732514237585" stroke-miterlimit="10"/></g><g transform="translate(-182,-6) scale(1,1)"><g><path fill="none" stroke="none"/><text fill="#000000" stroke="none" font-family="Arial" font-size="13px" font-style="normal" font-weight="normal" text-decoration="none" x="639.5" y="231.5">subj</text></g></g><g transform="translate(-182,-6) scale(1,1)"><path fill="none" stroke="#000000" d="M 427 187 L 504 187" stroke-miterlimit="10"/></g><g transform="translate(-182,-6) scale(1,1)"><path fill="none" stroke="#000000" d="M 493.83732514237585 191.209517756016 L 504 187 L 493.83732514237585 182.790482243984" stroke-miterlimit="10"/></g><g transform="translate(-182,-6) scale(1,1)"><g><path fill="none" stroke="none"/><text fill="#000000" stroke="none" font-family="Arial" font-size="13px" font-style="normal" font-weight="normal" text-decoration="none" x="456.5" y="180.5">obj</text></g></g><g transform="translate(-182,-6) scale(1,1)"><path fill="none" stroke="#000000" d="M 640 187 L 569 187" stroke-miterlimit="10"/></g><g transform="translate(-182,-6) scale(1,1)"><path fill="none" stroke="#000000" d="M 579.1626748576241 182.790482243984 L 569 187 L 579.1626748576241 191.209517756016" stroke-miterlimit="10"/></g><g transform="translate(-182,-6) scale(1,1)"><g><path fill="none" stroke="none"/><text fill="#000000" stroke="none" font-family="Arial" font-size="13px" font-style="normal" font-weight="normal" text-decoration="none" x="594.5" y="179.5">obj</text></g></g><g transform="translate(-182,-6) scale(1,1)"><path fill="none" stroke="#000000" d="M 266 192 L 368 192" stroke-miterlimit="10"/></g><g transform="translate(-182,-6) scale(1,1)"><path fill="none" stroke="#000000" d="M 357.83732514237585 196.209517756016 L 368 192 L 357.83732514237585 187.790482243984" stroke-miterlimit="10"/></g><g transform="translate(-182,-6) scale(1,1)"><g><path fill="none" stroke="none"/><text fill="#000000" stroke="none" font-family="Arial" font-size="13px" font-style="normal" font-weight="normal" text-decoration="none" x="324.5" y="211.5">obj</text></g></g><g transform="translate(-182,-6) scale(1,1)"><path fill="#ffffff" stroke="none" d="M 378 16 L 686 16 Q 696 16 696 26 L 696 118 Q 696 128 686 128 L 378 128 Q 368 128 368 118 L 368 26 Q 368 16 378 16 Z"/></g><g transform="translate(-182,-6) scale(1,1)"><path fill="none" stroke="#000000" d="M 378 16 L 686 16 Q 696 16 696 26 L 696 118 Q 696 128 686 128 L 378 128 Q 368 128 368 118 L 368 26 Q 368 16 378 16 Z" stroke-miterlimit="10"/></g><g transform="translate(-182,-6) scale(1,1)"><path fill="none" stroke="#000000" d="M 368 41 L 696 41" stroke-miterlimit="10"/></g><g transform="translate(-182,-6) scale(1,1)"><g><path fill="none" stroke="none"/><text fill="#000000" stroke="none" font-family="Arial" font-size="13px" font-style="normal" font-weight="bold" text-decoration="none" x="450.0009765625" y="35.5">c5. POSITIVE POSSIBILITY</text></g></g><g transform="translate(-182,-6) scale(1,1)"><path fill="#ffffff" stroke="none" d="M 402 56 L 441 56 Q 451 56 451 66 L 451 85 Q 451 95 441 95 L 402 95 Q 392 95 392 85 L 392 66 Q 392 56 402 56 Z"/></g><g transform="translate(-182,-6) scale(1,1)"><path fill="none" stroke="#000000" d="M 402 56 L 441 56 Q 451 56 451 66 L 451 85 Q 451 95 441 95 L 402 95 Q 392 95 392 85 L 392 66 Q 392 56 402 56 Z" stroke-miterlimit="10"/></g><g transform="translate(-182,-6) scale(1,1)"><g><path fill="none" stroke="none"/><text fill="#000000" stroke="none" font-family="Arial" font-size="13px" font-style="normal" font-weight="bold" text-decoration="none" x="411.02001953125" y="75.5">you</text></g></g><g transform="translate(-182,-6) scale(1,1)"><path fill="#ffffff" stroke="none" d="M 514 56 L 553 56 Q 563 56 563 66 L 563 85 Q 563 95 553 95 L 514 95 Q 504 95 504 85 L 504 66 Q 504 56 514 56 Z"/></g><g transform="translate(-182,-6) scale(1,1)"><path fill="none" stroke="#000000" d="M 514 56 L 553 56 Q 563 56 563 66 L 563 85 Q 563 95 553 95 L 514 95 Q 504 95 504 85 L 504 66 Q 504 56 514 56 Z" stroke-miterlimit="10"/></g><g transform="translate(-182,-6) scale(1,1)"><g><path fill="none" stroke="none"/><text fill="#000000" stroke="none" font-family="Arial" font-size="13px" font-style="normal" font-weight="bold" text-decoration="none" x="523.02001953125" y="75.5">see</text></g></g><g transform="translate(-182,-6) scale(1,1)"><path fill="#ffffff" stroke="none" d="M 626 56 L 665 56 Q 675 56 675 66 L 675 85 Q 675 95 665 95 L 626 95 Q 616 95 616 85 L 616 66 Q 616 56 626 56 Z"/></g><g transform="translate(-182,-6) scale(1,1)"><path fill="none" stroke="#000000" d="M 626 56 L 665 56 Q 675 56 675 66 L 675 85 Q 675 95 665 95 L 626 95 Q 616 95 616 85 L 616 66 Q 616 56 626 56 Z" stroke-miterlimit="10"/></g><g transform="translate(-182,-6) scale(1,1)"><g><path fill="none" stroke="none"/><text fill="#000000" stroke="none" font-family="Arial" font-size="13px" font-style="normal" font-weight="bold" text-decoration="none" x="643.694091796875" y="75.5">I</text></g></g><g transform="translate(-182,-6) scale(1,1)"><path fill="none" stroke="#000000" d="M 528 168 L 528 128" stroke-miterlimit="10"/></g><g transform="translate(-182,-6) scale(1,1)"><path fill="none" stroke="#000000" d="M 532.209517756016 138.16267485762415 L 528 128 L 523.790482243984 138.16267485762415" stroke-miterlimit="10"/></g><g transform="translate(-182,-6) scale(1,1)"><g><path fill="none" stroke="none"/><text fill="#000000" stroke="none" font-family="Arial" font-size="13px" font-style="normal" font-weight="normal" text-decoration="none" x="504.5" y="153.5">obj</text></g></g><g transform="translate(-182,-6) scale(1,1)"><path fill="none" stroke="#000000" d="M 503 75 L 452 75" stroke-miterlimit="10"/></g><g transform="translate(-182,-6) scale(1,1)"><path fill="none" stroke="#000000" d="M 462.16267485762415 70.79048224398402 L 452 75 L 462.16267485762415 79.20951775601598" stroke-miterlimit="10"/></g><g transform="translate(-182,-6) scale(1,1)"><g><path fill="none" stroke="none"/><text fill="#000000" stroke="none" font-family="Arial" font-size="13px" font-style="normal" font-weight="normal" text-decoration="none" x="474.75" y="68.5">obj</text></g></g><g transform="translate(-182,-6) scale(1,1)"><path fill="none" stroke="#000000" d="M 564 75 L 615 75" stroke-miterlimit="10"/></g><g transform="translate(-182,-6) scale(1,1)"><path fill="none" stroke="#000000" d="M 604.8373251423759 79.20951775601598 L 615 75 L 604.8373251423758 70.79048224398402" stroke-miterlimit="10"/></g><g transform="translate(-182,-6) scale(1,1)"><g><path fill="none" stroke="none"/><text fill="#000000" stroke="none" font-family="Arial" font-size="13px" font-style="normal" font-weight="normal" text-decoration="none" x="572.5" y="67.5">subj</text></g></g><g transform="translate(-182,-6) scale(1,1)"><path fill="none" stroke="#000000" d="M 824 112 L 544 112 L 544 95" stroke-miterlimit="10"/></g><g transform="translate(-182,-6) scale(1,1)"><path fill="none" stroke="#000000" d="M 548.209517756016 105.16267485762415 L 544 95 L 539.790482243984 105.16267485762415" stroke-miterlimit="10"/></g><g transform="translate(-182,-6) scale(1,1)"><g><path fill="none" stroke="none"/><text fill="#000000" stroke="none" font-family="Arial" font-size="13px" font-style="normal" font-weight="normal" text-decoration="none" x="567.5" y="105.5">obj</text></g></g><g transform="translate(-182,-6) scale(1,1)"><path fill="none" stroke="#000000" d="M 213 168 L 213 112 L 528 112 L 528 95" stroke-miterlimit="10"/></g><g transform="translate(-182,-6) scale(1,1)"><path fill="none" stroke="#000000" d="M 532.209517756016 105.16267485762415 L 528 95 L 523.790482243984 105.16267485762415" stroke-miterlimit="10"/></g><g transform="translate(-182,-6) scale(1,1)"><g><path fill="none" stroke="none"/><text fill="#000000" stroke="none" font-family="Arial" font-size="13px" font-style="normal" font-weight="normal" text-decoration="none" x="437.5" y="108.5">obj</text></g></g><g transform="translate(-182,-6) scale(1,1)"><path fill="none" stroke="#000000" d="M 392 80 L 304 80 L 304 264 L 368 264" stroke-miterlimit="10" stroke-dasharray="3"/></g><g transform="translate(-182,-6) scale(1,1)"><path fill="none" stroke="#000000" d="M 675 72 L 792 72 L 792 264 L 699 264" stroke-miterlimit="10" stroke-dasharray="3"/></g></g></svg>