<svg width="759" height="160" viewBox="0 0 759 160" version="1.1" xmlns="http://www.w3.org/2000/svg" xmlns:xlink="http://www.w3.org/1999/xlink" xmlns:figma="http://www.figma.com/figma/ns">
<title>overview</title>
<desc>Created using Figma</desc>
<g id="Canvas" transform="translate(611 86)" figma:type="canvas">
<g id="Group" figma:type="frame">
<g id="Arrow" figma:type="vector">
<use xlink:href="#path0_stroke" transform="matrix(1 -2.44929e-16 2.44929e-16 1 -528 -61)"/>
</g>
<g id="Arrow" figma:type="vector">
<use xlink:href="#path0_stroke" transform="matrix(1 -2.44929e-16 2.44929e-16 1 -380 -61)"/>
</g>
<g id="Arrow" figma:type="vector">
<use xlink:href="#path0_stroke" transform="matrix(1 -2.44929e-16 2.44929e-16 1 -265 -61)"/>
</g>
<g id="Arrow" figma:type="vector">
<use xlink:href="#path0_stroke" transform="matrix(1 -2.44929e-16 2.44929e-16 1 -117 -61)"/>
</g>
<g id="Arrow" figma:type="vector">
<use xlink:href="#path0_stroke" transform="matrix(1 -2.44929e-16 2.44929e-16 1 -2 -61)"/>
</g>
<g id="Arrow" figma:type="vector">
<use xlink:href="#path1_stroke" transform="matrix(8.41171e-17 1 -1 8.41171e-17 89 -37)"/>
</g>
<g id="Arrow" figma:type="vector">
<use xlink:href="#path2_stroke" transform="matrix(-1 1.45349e-16 -1.45349e-16 -1 -85 49)"/>
</g>
</g>
<g id="Group" figma:type="frame">
<g id="block" figma:type="symbol">
<g id="Rectangle" figma:type="rounded-rectangle">
<use xlink:href="#path3_fill" transform="translate(-496 -84)" fill="#EB5757"/>
</g>
<g id="NLP Framework" figma:type="text">
<use xlink:href="#path4_fill" transform="translate(-496 -84)" fill="#F2F2F2"/>
</g>
</g>
<g id="data" figma:type="symbol">
<g id="Ellipse" figma:type="ellipse">
<use xlink:href="#path5_fill" transform="translate(-611 -86)" fill="#333333"/>
</g>
<g id="Message Stream" figma:type="text">
<use xlink:href="#path6_fill" transform="translate(-611 -86)" fill="#F2F2F2"/>
</g>
</g>
<g id="data" figma:type="instance">
<g id="Ellipse" figma:type="ellipse">
<use xlink:href="#path7_fill" transform="translate(-348 -86)" fill="#993939"/>
</g>
<g id="Local Extraction Graph" figma:type="text">
<use xlink:href="#path8_fill" transform="translate(-348 -86)" fill="#F2F2F2"/>
</g>
</g>
<g id="data" figma:type="instance">
<g id="Ellipse" figma:type="ellipse">
<use xlink:href="#path7_fill" transform="translate(-85 -86)" fill="#1D8046"/>
</g>
<g id="New Global Knowledge Graph" figma:type="text">
<use xlink:href="#path9_fill" transform="translate(-85 -86)" fill="#F2F2F2"/>
</g>
</g>
<g id="data" figma:type="instance">
<g id="Ellipse" figma:type="ellipse">
<use xlink:href="#path7_fill" transform="translate(-85 24)" fill="#1E5399"/>
</g>
<g id="Old Global Knowledge Graph" figma:type="text">
<use xlink:href="#path10_fill" transform="translate(-85 24)" fill="#F2F2F2"/>
</g>
</g>
<g id="block" figma:type="instance">
<g id="Rectangle" figma:type="rounded-rectangle">
<use xlink:href="#path11_fill" transform="translate(-233 -84)" fill="#27AE60"/>
</g>
<g id="Online PSL Optimizer" figma:type="text">
<use xlink:href="#path12_fill" transform="translate(-233 -84)" fill="#F2F2F2"/>
</g>
</g>
<g id="block" figma:type="instance">
<g id="Rectangle" figma:type="rounded-rectangle">
<use xlink:href="#path11_fill" transform="translate(30 -84)" fill="#2F80ED"/>
</g>
<g id="Graph Storage" figma:type="text">
<use xlink:href="#path13_fill" transform="translate(30 -84)" fill="#F2F2F2"/>
</g>
</g>
</g>
</g>
<defs>
<path id="path0_stroke" d="M 30 0L 20 -5.7735L 20 5.7735L 30 0ZM 0 1L 21 1L 21 -1L 0 -1L 0 1Z"/>
<path id="path1_stroke" d="M 86 0L 87 0L 87 -1L 86 -1L 86 0ZM 86 87L 91.7735 77L 80.2265 77L 86 87ZM 0 1L 86 1L 86 -1L 0 -1L 0 1ZM 85 0L 85 78L 87 78L 87 0L 85 0Z"/>
<path id="path2_stroke" d="M 89 0L 90 0L 90 -1L 89 -1L 89 0ZM 89 84L 94.7735 74L 83.2265 74L 89 84ZM 0 1L 89 1L 89 -1L 0 -1L 0 1ZM 88 0L 88 75L 90 75L 90 0L 88 0Z"/>
<path id="path3_fill" d="M 0 2C 0 0.895431 0.895431 0 2 0L 116 0C 117.105 0 118 0.895431 118 2L 118 45C 118 46.1046 117.105 47 116 47L 2 47C 0.895431 47 0 46.1046 0 45L 0 2Z"/>
<path id="path4_fill" d="M 23.8965 28L 22.7656 28L 18.4707 21.4258L 18.4707 28L 17.3398 28L 17.3398 19.4688L 18.4707 19.4688L 22.7773 26.0723L 22.7773 19.4688L 23.8965 19.4688L 23.8965 28ZM 27.0254 27.0801L 31.0684 27.0801L 31.0684 28L 25.8945 28L 25.8945 19.4688L 27.0254 19.4688L 27.0254 27.0801ZM 33.4766 24.6602L 33.4766 28L 32.3516 28L 32.3516 19.4688L 35.498 19.4688C 36.4316 19.4688 37.1621 19.707 37.6895 20.1836C 38.2207 20.6602 38.4863 21.291 38.4863 22.0762C 38.4863 22.9043 38.2266 23.543 37.707 23.9922C 37.1914 24.4375 36.4512 24.6602 35.4863 24.6602L 33.4766 24.6602ZM 33.4766 23.7402L 35.498 23.7402C 36.0996 23.7402 36.5605 23.5996 36.8809 23.3184C 37.2012 23.0332 37.3613 22.623 37.3613 22.0879C 37.3613 21.5801 37.2012 21.1738 36.8809 20.8691C 36.5605 20.5645 36.1211 20.4062 35.5625 20.3945L 33.4766 20.3945L 33.4766 23.7402ZM 47.6035 24.2324L 44.0234 24.2324L 44.0234 28L 42.8984 28L 42.8984 19.4688L 48.1836 19.4688L 48.1836 20.3945L 44.0234 20.3945L 44.0234 23.3125L 47.6035 23.3125L 47.6035 24.2324ZM 52.2734 22.6328C 52.1094 22.6055 51.9316 22.5918 51.7402 22.5918C 51.0293 22.5918 50.5469 22.8945 50.293 23.5L 50.293 28L 49.209 28L 49.209 21.6602L 50.2637 21.6602L 50.2812 22.3926C 50.6367 21.8262 51.1406 21.543 51.793 21.543C 52.0039 21.543 52.1641 21.5703 52.2734 21.625L 52.2734 22.6328ZM 56.9551 28C 56.8926 27.875 56.8418 27.6523 56.8027 27.332C 56.2988 27.8555 55.6973 28.1172 54.998 28.1172C 54.373 28.1172 53.8594 27.9414 53.457 27.5898C 53.0586 27.2344 52.8594 26.7852 52.8594 26.2422C 52.8594 25.582 53.1094 25.0703 53.6094 24.707C 54.1133 24.3398 54.8203 24.1562 55.7305 24.1562L 56.7852 24.1562L 56.7852 23.6582C 56.7852 23.2793 56.6719 22.9785 56.4453 22.7559C 56.2187 22.5293 55.8848 22.416 55.4434 22.416C 55.0566 22.416 54.7324 22.5137 54.4707 22.709C 54.209 22.9043 54.0781 23.1406 54.0781 23.418L 52.9883 23.418C 52.9883 23.1016 53.0996 22.7969 53.3223 22.5039C 53.5488 22.207 53.8535 21.9727 54.2363 21.8008C 54.623 21.6289 55.0469 21.543 55.5078 21.543C 56.2383 21.543 56.8105 21.7266 57.2246 22.0938C 57.6387 22.457 57.8535 22.959 57.8691 23.5996L 57.8691 26.5176C 57.8691 27.0996 57.9434 27.5625 58.0918 27.9062L 58.0918 28L 56.9551 28ZM 55.1562 27.1738C 55.4961 27.1738 55.8184 27.0859 56.123 26.9102C 56.4277 26.7344 56.6484 26.5059 56.7852 26.2246L 56.7852 24.9238L 55.9355 24.9238C 54.6074 24.9238 53.9434 25.3125 53.9434 26.0898C 53.9434 26.4297 54.0566 26.6953 54.2832 26.8867C 54.5098 27.0781 54.8008 27.1738 55.1562 27.1738ZM 60.5879 21.6602L 60.6172 22.3633C 61.082 21.8164 61.709 21.543 62.498 21.543C 63.3848 21.543 63.9883 21.8828 64.3086 22.5625C 64.5195 22.2578 64.793 22.0117 65.1289 21.8242C 65.4688 21.6367 65.8691 21.543 66.3301 21.543C 67.7207 21.543 68.4277 22.2793 68.4512 23.752L 68.4512 28L 67.3672 28L 67.3672 23.8164C 67.3672 23.3633 67.2637 23.0254 67.0566 22.8027C 66.8496 22.5762 66.502 22.4629 66.0137 22.4629C 65.6113 22.4629 65.2773 22.584 65.0117 22.8262C 64.7461 23.0645 64.5918 23.3867 64.5488 23.793L 64.5488 28L 63.459 28L 63.459 23.8457C 63.459 22.9238 63.0078 22.4629 62.1055 22.4629C 61.3945 22.4629 60.9082 22.7656 60.6465 23.3711L 60.6465 28L 59.5625 28L 59.5625 21.6602L 60.5879 21.6602ZM 72.7227 28.1172C 71.8633 28.1172 71.1641 27.8359 70.625 27.2734C 70.0859 26.707 69.8164 25.9512 69.8164 25.0059L 69.8164 24.8066C 69.8164 24.1777 69.9355 23.6172 70.1738 23.125C 70.416 22.6289 70.752 22.2422 71.1816 21.9648C 71.6152 21.6836 72.084 21.543 72.5879 21.543C 73.4121 21.543 74.0527 21.8145 74.5098 22.3574C 74.9668 22.9004 75.1953 23.6777 75.1953 24.6895L 75.1953 25.1406L 70.9004 25.1406C 70.916 25.7656 71.0977 26.2715 71.4453 26.6582C 71.7969 27.041 72.2422 27.2324 72.7812 27.2324C 73.1641 27.2324 73.4883 27.1543 73.7539 26.998C 74.0195 26.8418 74.252 26.6348 74.4512 26.377L 75.1133 26.8926C 74.582 27.709 73.7852 28.1172 72.7227 28.1172ZM 72.5879 22.4336C 72.1504 22.4336 71.7832 22.5937 71.4863 22.9141C 71.1895 23.2305 71.0059 23.6758 70.9355 24.25L 74.1113 24.25L 74.1113 24.168C 74.0801 23.6172 73.9316 23.1914 73.666 22.8906C 73.4004 22.5859 73.041 22.4336 72.5879 22.4336ZM 82.0684 26.5059L 83.2871 21.6602L 84.3711 21.6602L 82.5254 28L 81.6465 28L 80.1055 23.1953L 78.6055 28L 77.7266 28L 75.8867 21.6602L 76.9648 21.6602L 78.2129 26.4062L 79.6895 21.6602L 80.5625 21.6602L 82.0684 26.5059ZM 85.1914 24.7715C 85.1914 24.1504 85.3125 23.5918 85.5547 23.0957C 85.8008 22.5996 86.1406 22.2168 86.5742 21.9473C 87.0117 21.6777 87.5098 21.543 88.0684 21.543C 88.9316 21.543 89.6289 21.8418 90.1602 22.4395C 90.6953 23.0371 90.9629 23.832 90.9629 24.8242L 90.9629 24.9004C 90.9629 25.5176 90.8437 26.0723 90.6055 26.5645C 90.3711 27.0527 90.0332 27.4336 89.5918 27.707C 89.1543 27.9805 88.6504 28.1172 88.0801 28.1172C 87.2207 28.1172 86.5234 27.8184 85.9883 27.2207C 85.457 26.623 85.1914 25.832 85.1914 24.8477L 85.1914 24.7715ZM 86.2812 24.9004C 86.2812 25.6035 86.4434 26.168 86.7676 26.5938C 87.0957 27.0195 87.5332 27.2324 88.0801 27.2324C 88.6309 27.2324 89.0684 27.0176 89.3926 26.5879C 89.7168 26.1543 89.8789 25.5488 89.8789 24.7715C 89.8789 24.0762 89.7129 23.5137 89.3809 23.084C 89.0527 22.6504 88.6152 22.4336 88.0684 22.4336C 87.5332 22.4336 87.1016 22.6465 86.7734 23.0723C 86.4453 23.498 86.2812 24.1074 86.2812 24.9004ZM 95.3867 22.6328C 95.2227 22.6055 95.0449 22.5918 94.8535 22.5918C 94.1426 22.5918 93.6602 22.8945 93.4062 23.5L 93.4062 28L 92.3223 28L 92.3223 21.6602L 93.377 21.6602L 93.3945 22.3926C 93.75 21.8262 94.2539 21.543 94.9062 21.543C 95.1172 21.543 95.2773 21.5703 95.3867 21.625L 95.3867 22.6328ZM 98.1582 25.0645L 97.4785 25.7734L 97.4785 28L 96.3945 28L 96.3945 19L 97.4785 19L 97.4785 24.4434L 98.0586 23.7461L 100.033 21.6602L 101.352 21.6602L 98.8848 24.3086L 101.639 28L 100.367 28L 98.1582 25.0645Z"/>
<path id="path5_fill" d="M 85 25C 85 38.8071 65.9721 50 42.5 50C 19.0279 50 0 38.8071 0 25C 0 11.1929 19.0279 0 42.5 0C 65.9721 0 85 11.1929 85 25Z"/>
<path id="path6_fill" d="M 24.1846 15.8906L 26.5088 21.6914L 28.833 15.8906L 30.0488 15.8906L 30.0488 23L 29.1113 23L 29.1113 20.2314L 29.1992 17.2432L 26.8652 23L 26.1475 23L 23.8184 17.2578L 23.9111 20.2314L 23.9111 23L 22.9736 23L 22.9736 15.8906L 24.1846 15.8906ZM 33.7549 23.0977C 33.0387 23.0977 32.4561 22.8633 32.0068 22.3945C 31.5576 21.9225 31.333 21.2926 31.333 20.5049L 31.333 20.3389C 31.333 19.8148 31.4323 19.3477 31.6309 18.9375C 31.8327 18.5241 32.1126 18.2018 32.4707 17.9707C 32.832 17.7363 33.2227 17.6191 33.6426 17.6191C 34.3294 17.6191 34.8633 17.8454 35.2441 18.2979C 35.625 18.7503 35.8154 19.3981 35.8154 20.2412L 35.8154 20.6172L 32.2363 20.6172C 32.2493 21.138 32.4007 21.5596 32.6904 21.8818C 32.9834 22.2008 33.3545 22.3604 33.8037 22.3604C 34.1227 22.3604 34.3929 22.2952 34.6143 22.165C 34.8356 22.0348 35.0293 21.8623 35.1953 21.6475L 35.7471 22.0771C 35.3044 22.7575 34.6403 23.0977 33.7549 23.0977ZM 33.6426 18.3613C 33.278 18.3613 32.972 18.4948 32.7246 18.7617C 32.4772 19.0254 32.3242 19.3965 32.2656 19.875L 34.9121 19.875L 34.9121 19.8066C 34.8861 19.3477 34.7624 18.9928 34.541 18.7422C 34.3197 18.4883 34.0202 18.3613 33.6426 18.3613ZM 39.9414 21.5986C 39.9414 21.3545 39.8486 21.1657 39.6631 21.0322C 39.4808 20.8955 39.1602 20.7783 38.7012 20.6807C 38.2454 20.583 37.8825 20.4658 37.6123 20.3291C 37.3454 20.1924 37.1468 20.0296 37.0166 19.8408C 36.8896 19.652 36.8262 19.4274 36.8262 19.167C 36.8262 18.734 37.0085 18.3678 37.373 18.0684C 37.7409 17.7689 38.2096 17.6191 38.7793 17.6191C 39.3783 17.6191 39.8633 17.7738 40.2344 18.083C 40.6087 18.3923 40.7959 18.7878 40.7959 19.2695L 39.8877 19.2695C 39.8877 19.0221 39.7819 18.8089 39.5703 18.6299C 39.362 18.4508 39.0983 18.3613 38.7793 18.3613C 38.4505 18.3613 38.1934 18.4329 38.0078 18.5762C 37.8223 18.7194 37.7295 18.9066 37.7295 19.1377C 37.7295 19.3558 37.8158 19.5202 37.9883 19.6309C 38.1608 19.7415 38.4717 19.8473 38.9209 19.9482C 39.3734 20.0492 39.7396 20.1696 40.0195 20.3096C 40.2995 20.4495 40.5062 20.6188 40.6396 20.8174C 40.7764 21.0127 40.8447 21.252 40.8447 21.5352C 40.8447 22.0072 40.6559 22.3864 40.2783 22.6729C 39.9007 22.9561 39.4108 23.0977 38.8086 23.0977C 38.3854 23.0977 38.0111 23.0228 37.6855 22.873C 37.36 22.7233 37.1045 22.515 36.9189 22.248C 36.7367 21.9779 36.6455 21.6865 36.6455 21.374L 37.5488 21.374C 37.5651 21.6768 37.6855 21.9176 37.9102 22.0967C 38.138 22.2725 38.4375 22.3604 38.8086 22.3604C 39.1504 22.3604 39.4238 22.292 39.6289 22.1553C 39.8372 22.0153 39.9414 21.8298 39.9414 21.5986ZM 45.0977 21.5986C 45.0977 21.3545 45.0049 21.1657 44.8193 21.0322C 44.637 20.8955 44.3164 20.7783 43.8574 20.6807C 43.4017 20.583 43.0387 20.4658 42.7686 20.3291C 42.5016 20.1924 42.3031 20.0296 42.1729 19.8408C 42.0459 19.652 41.9824 19.4274 41.9824 19.167C 41.9824 18.734 42.1647 18.3678 42.5293 18.0684C 42.8971 17.7689 43.3659 17.6191 43.9355 17.6191C 44.5345 17.6191 45.0195 17.7738 45.3906 18.083C 45.765 18.3923 45.9521 18.7878 45.9521 19.2695L 45.0439 19.2695C 45.0439 19.0221 44.9382 18.8089 44.7266 18.6299C 44.5182 18.4508 44.2546 18.3613 43.9355 18.3613C 43.6068 18.3613 43.3496 18.4329 43.1641 18.5762C 42.9785 18.7194 42.8857 18.9066 42.8857 19.1377C 42.8857 19.3558 42.972 19.5202 43.1445 19.6309C 43.3171 19.7415 43.6279 19.8473 44.0771 19.9482C 44.5296 20.0492 44.8958 20.1696 45.1758 20.3096C 45.4557 20.4495 45.6624 20.6188 45.7959 20.8174C 45.9326 21.0127 46.001 21.252 46.001 21.5352C 46.001 22.0072 45.8122 22.3864 45.4346 22.6729C 45.057 22.9561 44.5671 23.0977 43.9648 23.0977C 43.5417 23.0977 43.1673 23.0228 42.8418 22.873C 42.5163 22.7233 42.2607 22.515 42.0752 22.248C 41.8929 21.9779 41.8018 21.6865 41.8018 21.374L 42.7051 21.374C 42.7214 21.6768 42.8418 21.9176 43.0664 22.0967C 43.2943 22.2725 43.5938 22.3604 43.9648 22.3604C 44.3066 22.3604 44.5801 22.292 44.7852 22.1553C 44.9935 22.0153 45.0977 21.8298 45.0977 21.5986ZM 50.4395 23C 50.3874 22.8958 50.3451 22.7103 50.3125 22.4434C 49.8926 22.8796 49.3913 23.0977 48.8086 23.0977C 48.2878 23.0977 47.8597 22.9512 47.5244 22.6582C 47.1924 22.362 47.0264 21.9876 47.0264 21.5352C 47.0264 20.985 47.2347 20.5586 47.6514 20.2559C 48.0713 19.9499 48.6605 19.7969 49.4189 19.7969L 50.2979 19.7969L 50.2979 19.3818C 50.2979 19.0661 50.2035 18.8154 50.0146 18.6299C 49.8258 18.4411 49.5475 18.3467 49.1797 18.3467C 48.8574 18.3467 48.5872 18.4281 48.3691 18.5908C 48.151 18.7536 48.042 18.9505 48.042 19.1816L 47.1338 19.1816C 47.1338 18.918 47.2266 18.6641 47.4121 18.4199C 47.6009 18.1725 47.8548 17.9772 48.1738 17.834C 48.4961 17.6908 48.8493 17.6191 49.2334 17.6191C 49.8421 17.6191 50.319 17.7721 50.6641 18.0781C 51.0091 18.3809 51.1882 18.7992 51.2012 19.333L 51.2012 21.7646C 51.2012 22.2497 51.263 22.6354 51.3867 22.9219L 51.3867 23L 50.4395 23ZM 48.9404 22.3115C 49.2236 22.3115 49.4922 22.2383 49.7461 22.0918C 50 21.9453 50.1839 21.7549 50.2979 21.5205L 50.2979 20.4365L 49.5898 20.4365C 48.4831 20.4365 47.9297 20.7604 47.9297 21.4082C 47.9297 21.6914 48.0241 21.9128 48.2129 22.0723C 48.4017 22.2318 48.6442 22.3115 48.9404 22.3115ZM 52.4023 20.3145C 52.4023 19.4909 52.5928 18.8366 52.9736 18.3516C 53.3545 17.8633 53.859 17.6191 54.4873 17.6191C 55.1318 17.6191 55.6348 17.847 55.9961 18.3027L 56.04 17.7168L 56.8652 17.7168L 56.8652 22.873C 56.8652 23.5566 56.6618 24.0954 56.2549 24.4893C 55.8512 24.8831 55.3076 25.0801 54.624 25.0801C 54.2432 25.0801 53.8704 24.9987 53.5059 24.8359C 53.1413 24.6732 52.863 24.4502 52.6709 24.167L 53.1396 23.625C 53.527 24.1035 54.0007 24.3428 54.5605 24.3428C 55 24.3428 55.3418 24.2191 55.5859 23.9717C 55.8333 23.7243 55.957 23.376 55.957 22.9268L 55.957 22.4727C 55.5957 22.8893 55.1025 23.0977 54.4775 23.0977C 53.859 23.0977 53.3577 22.8486 52.9736 22.3506C 52.5928 21.8525 52.4023 21.1738 52.4023 20.3145ZM 53.3105 20.417C 53.3105 21.0127 53.4326 21.4814 53.6768 21.8232C 53.9209 22.1618 54.2627 22.3311 54.7021 22.3311C 55.2718 22.3311 55.6901 22.0723 55.957 21.5547L 55.957 19.1426C 55.6803 18.638 55.2653 18.3857 54.7119 18.3857C 54.2725 18.3857 53.929 18.5566 53.6816 18.8984C 53.4342 19.2402 53.3105 19.7464 53.3105 20.417ZM 60.4248 23.0977C 59.7087 23.0977 59.126 22.8633 58.6768 22.3945C 58.2275 21.9225 58.0029 21.2926 58.0029 20.5049L 58.0029 20.3389C 58.0029 19.8148 58.1022 19.3477 58.3008 18.9375C 58.5026 18.5241 58.7826 18.2018 59.1406 17.9707C 59.502 17.7363 59.8926 17.6191 60.3125 17.6191C 60.9993 17.6191 61.5332 17.8454 61.9141 18.2979C 62.2949 18.7503 62.4854 19.3981 62.4854 20.2412L 62.4854 20.6172L 58.9062 20.6172C 58.9193 21.138 59.0706 21.5596 59.3604 21.8818C 59.6533 22.2008 60.0244 22.3604 60.4736 22.3604C 60.7926 22.3604 61.0628 22.2952 61.2842 22.165C 61.5055 22.0348 61.6992 21.8623 61.8652 21.6475L 62.417 22.0771C 61.9743 22.7575 61.3102 23.0977 60.4248 23.0977ZM 60.3125 18.3613C 59.9479 18.3613 59.6419 18.4948 59.3945 18.7617C 59.1471 19.0254 58.9941 19.3965 58.9355 19.875L 61.582 19.875L 61.582 19.8066C 61.556 19.3477 61.4323 18.9928 61.2109 18.7422C 60.9896 18.4883 60.6901 18.3613 60.3125 18.3613ZM 29.4141 30.8311C 28.61 30.5999 28.0241 30.3167 27.6562 29.9814C 27.2917 29.6429 27.1094 29.2262 27.1094 28.7314C 27.1094 28.1715 27.3324 27.7093 27.7783 27.3447C 28.2275 26.9769 28.8102 26.793 29.5264 26.793C 30.0146 26.793 30.4492 26.8874 30.8301 27.0762C 31.2142 27.265 31.5104 27.5254 31.7188 27.8574C 31.9303 28.1895 32.0361 28.5524 32.0361 28.9463L 31.0938 28.9463C 31.0938 28.5166 30.957 28.1797 30.6836 27.9355C 30.4102 27.6882 30.0244 27.5645 29.5264 27.5645C 29.0641 27.5645 28.7028 27.667 28.4424 27.8721C 28.1852 28.0739 28.0566 28.3555 28.0566 28.7168C 28.0566 29.0065 28.1787 29.2523 28.4229 29.4541C 28.6702 29.6527 29.0885 29.835 29.6777 30.001C 30.2702 30.167 30.7324 30.3509 31.0645 30.5527C 31.3997 30.7513 31.6471 30.984 31.8066 31.251C 31.9694 31.5179 32.0508 31.832 32.0508 32.1934C 32.0508 32.7695 31.8262 33.2318 31.377 33.5801C 30.9277 33.9251 30.3271 34.0977 29.5752 34.0977C 29.0869 34.0977 28.6312 34.0049 28.208 33.8193C 27.7848 33.6305 27.4577 33.3734 27.2266 33.0479C 26.9987 32.7223 26.8848 32.3529 26.8848 31.9395L 27.8271 31.9395C 27.8271 32.3691 27.985 32.7093 28.3008 32.96C 28.6198 33.2074 29.0446 33.3311 29.5752 33.3311C 30.07 33.3311 30.4492 33.2301 30.7129 33.0283C 30.9766 32.8265 31.1084 32.5514 31.1084 32.2031C 31.1084 31.8548 30.9863 31.5863 30.7422 31.3975C 30.498 31.2054 30.0553 31.0166 29.4141 30.8311ZM 34.3408 27.4375L 34.3408 28.7168L 35.3271 28.7168L 35.3271 29.415L 34.3408 29.415L 34.3408 32.6914C 34.3408 32.903 34.3848 33.0625 34.4727 33.1699C 34.5605 33.2741 34.7103 33.3262 34.9219 33.3262C 35.026 33.3262 35.1693 33.3066 35.3516 33.2676L 35.3516 34C 35.1139 34.0651 34.8828 34.0977 34.6582 34.0977C 34.2546 34.0977 33.9502 33.9756 33.7451 33.7314C 33.54 33.4873 33.4375 33.1406 33.4375 32.6914L 33.4375 29.415L 32.4756 29.415L 32.4756 28.7168L 33.4375 28.7168L 33.4375 27.4375L 34.3408 27.4375ZM 38.9404 29.5273C 38.8037 29.5046 38.6556 29.4932 38.4961 29.4932C 37.9036 29.4932 37.5016 29.7454 37.29 30.25L 37.29 34L 36.3867 34L 36.3867 28.7168L 37.2656 28.7168L 37.2803 29.3271C 37.5765 28.8551 37.9964 28.6191 38.54 28.6191C 38.7158 28.6191 38.8493 28.6419 38.9404 28.6875L 38.9404 29.5273ZM 41.8701 34.0977C 41.154 34.0977 40.5713 33.8633 40.1221 33.3945C 39.6729 32.9225 39.4482 32.2926 39.4482 31.5049L 39.4482 31.3389C 39.4482 30.8148 39.5475 30.3477 39.7461 29.9375C 39.9479 29.5241 40.2279 29.2018 40.5859 28.9707C 40.9473 28.7363 41.3379 28.6191 41.7578 28.6191C 42.4447 28.6191 42.9785 28.8454 43.3594 29.2979C 43.7402 29.7503 43.9307 30.3981 43.9307 31.2412L 43.9307 31.6172L 40.3516 31.6172C 40.3646 32.138 40.516 32.5596 40.8057 32.8818C 41.0986 33.2008 41.4697 33.3604 41.9189 33.3604C 42.238 33.3604 42.5081 33.2952 42.7295 33.165C 42.9508 33.0348 43.1445 32.8623 43.3105 32.6475L 43.8623 33.0771C 43.4196 33.7575 42.7555 34.0977 41.8701 34.0977ZM 41.7578 29.3613C 41.3932 29.3613 41.0872 29.4948 40.8398 29.7617C 40.5924 30.0254 40.4395 30.3965 40.3809 30.875L 43.0273 30.875L 43.0273 30.8066C 43.0013 30.3477 42.8776 29.9928 42.6562 29.7422C 42.4349 29.4883 42.1354 29.3613 41.7578 29.3613ZM 48.2422 34C 48.1901 33.8958 48.1478 33.7103 48.1152 33.4434C 47.6953 33.8796 47.194 34.0977 46.6113 34.0977C 46.0905 34.0977 45.6624 33.9512 45.3271 33.6582C 44.9951 33.362 44.8291 32.9876 44.8291 32.5352C 44.8291 31.985 45.0374 31.5586 45.4541 31.2559C 45.874 30.9499 46.4632 30.7969 47.2217 30.7969L 48.1006 30.7969L 48.1006 30.3818C 48.1006 30.0661 48.0062 29.8154 47.8174 29.6299C 47.6286 29.4411 47.3503 29.3467 46.9824 29.3467C 46.6602 29.3467 46.39 29.4281 46.1719 29.5908C 45.9538 29.7536 45.8447 29.9505 45.8447 30.1816L 44.9365 30.1816C 44.9365 29.918 45.0293 29.6641 45.2148 29.4199C 45.4036 29.1725 45.6576 28.9772 45.9766 28.834C 46.2988 28.6908 46.652 28.6191 47.0361 28.6191C 47.6449 28.6191 48.1217 28.7721 48.4668 29.0781C 48.8118 29.3809 48.9909 29.7992 49.0039 30.333L 49.0039 32.7646C 49.0039 33.2497 49.0658 33.6354 49.1895 33.9219L 49.1895 34L 48.2422 34ZM 46.7432 33.3115C 47.0264 33.3115 47.2949 33.2383 47.5488 33.0918C 47.8027 32.9453 47.9867 32.7549 48.1006 32.5205L 48.1006 31.4365L 47.3926 31.4365C 46.2858 31.4365 45.7324 31.7604 45.7324 32.4082C 45.7324 32.6914 45.8268 32.9128 46.0156 33.0723C 46.2044 33.2318 46.4469 33.3115 46.7432 33.3115ZM 51.2695 28.7168L 51.2939 29.3027C 51.6813 28.847 52.2038 28.6191 52.8613 28.6191C 53.6003 28.6191 54.1032 28.9023 54.3701 29.4688C 54.5459 29.2148 54.7738 29.0098 55.0537 28.8535C 55.3369 28.6973 55.6706 28.6191 56.0547 28.6191C 57.2135 28.6191 57.8027 29.2327 57.8223 30.46L 57.8223 34L 56.9189 34L 56.9189 30.5137C 56.9189 30.1361 56.8327 29.8545 56.6602 29.6689C 56.4876 29.4801 56.1979 29.3857 55.791 29.3857C 55.4557 29.3857 55.1774 29.4867 54.9561 29.6885C 54.7347 29.887 54.6061 30.1556 54.5703 30.4941L 54.5703 34L 53.6621 34L 53.6621 30.5381C 53.6621 29.7699 53.2861 29.3857 52.5342 29.3857C 51.9417 29.3857 51.5365 29.638 51.3184 30.1426L 51.3184 34L 50.415 34L 50.415 28.7168L 51.2695 28.7168Z"/>
<path id="path7_fill" d="M 85 25C 85 38.8071 65.9721 50 42.5 50C 19.0279 50 0 38.8071 0 25C 0 11.1929 19.0279 0 42.5 0C 65.9721 0 85 11.1929 85 25Z"/>
<path id="path8_fill" d="M 32.1729 16.2334L 35.542 16.2334L 35.542 17L 31.2305 17L 31.2305 9.89062L 32.1729 9.89062L 32.1729 16.2334ZM 36.2305 14.3096C 36.2305 13.792 36.3314 13.3265 36.5332 12.9131C 36.7383 12.4997 37.0215 12.1807 37.3828 11.9561C 37.7474 11.7314 38.1624 11.6191 38.6279 11.6191C 39.3473 11.6191 39.9284 11.8682 40.3711 12.3662C 40.8171 12.8643 41.04 13.5267 41.04 14.3535L 41.04 14.417C 41.04 14.9313 40.9408 15.3936 40.7422 15.8037C 40.5469 16.2106 40.2653 16.528 39.8975 16.7559C 39.5329 16.9837 39.113 17.0977 38.6377 17.0977C 37.9215 17.0977 37.3405 16.8486 36.8945 16.3506C 36.4518 15.8525 36.2305 15.1934 36.2305 14.373L 36.2305 14.3096ZM 37.1387 14.417C 37.1387 15.0029 37.2738 15.4733 37.5439 15.8281C 37.8174 16.1829 38.182 16.3604 38.6377 16.3604C 39.0967 16.3604 39.4613 16.1813 39.7314 15.8232C 40.0016 15.4619 40.1367 14.9574 40.1367 14.3096C 40.1367 13.7301 39.9984 13.2614 39.7217 12.9033C 39.4482 12.542 39.0837 12.3613 38.6279 12.3613C 38.182 12.3613 37.8223 12.5387 37.5488 12.8936C 37.2754 13.2484 37.1387 13.7562 37.1387 14.417ZM 44.292 16.3604C 44.6143 16.3604 44.8958 16.2627 45.1367 16.0674C 45.3776 15.8721 45.5111 15.6279 45.5371 15.335L 46.3916 15.335C 46.3753 15.6377 46.2712 15.9258 46.0791 16.1992C 45.887 16.4727 45.6299 16.6908 45.3076 16.8535C 44.9886 17.0163 44.6501 17.0977 44.292 17.0977C 43.5726 17.0977 42.9997 16.8584 42.5732 16.3799C 42.1501 15.8981 41.9385 15.2406 41.9385 14.4072L 41.9385 14.2559C 41.9385 13.7415 42.0329 13.2842 42.2217 12.8838C 42.4105 12.4834 42.6807 12.1725 43.0322 11.9512C 43.387 11.7298 43.8053 11.6191 44.2871 11.6191C 44.8796 11.6191 45.3711 11.7965 45.7617 12.1514C 46.1556 12.5062 46.3656 12.9668 46.3916 13.5332L 45.5371 13.5332C 45.5111 13.1914 45.3809 12.9115 45.1465 12.6934C 44.9154 12.472 44.6289 12.3613 44.2871 12.3613C 43.8281 12.3613 43.4717 12.5273 43.2178 12.8594C 42.9671 13.1882 42.8418 13.665 42.8418 14.29L 42.8418 14.4609C 42.8418 15.0697 42.9671 15.5384 43.2178 15.8672C 43.4684 16.196 43.8265 16.3604 44.292 16.3604ZM 50.6689 17C 50.6169 16.8958 50.5745 16.7103 50.542 16.4434C 50.1221 16.8796 49.6208 17.0977 49.0381 17.0977C 48.5173 17.0977 48.0892 16.9512 47.7539 16.6582C 47.4219 16.362 47.2559 15.9876 47.2559 15.5352C 47.2559 14.985 47.4642 14.5586 47.8809 14.2559C 48.3008 13.9499 48.89 13.7969 49.6484 13.7969L 50.5273 13.7969L 50.5273 13.3818C 50.5273 13.0661 50.4329 12.8154 50.2441 12.6299C 50.0553 12.4411 49.777 12.3467 49.4092 12.3467C 49.0869 12.3467 48.8167 12.4281 48.5986 12.5908C 48.3805 12.7536 48.2715 12.9505 48.2715 13.1816L 47.3633 13.1816C 47.3633 12.918 47.4561 12.6641 47.6416 12.4199C 47.8304 12.1725 48.0843 11.9772 48.4033 11.834C 48.7256 11.6908 49.0788 11.6191 49.4629 11.6191C 50.0716 11.6191 50.5485 11.7721 50.8936 12.0781C 51.2386 12.3809 51.4176 12.7992 51.4307 13.333L 51.4307 15.7646C 51.4307 16.2497 51.4925 16.6354 51.6162 16.9219L 51.6162 17L 50.6689 17ZM 49.1699 16.3115C 49.4531 16.3115 49.7217 16.2383 49.9756 16.0918C 50.2295 15.9453 50.4134 15.7549 50.5273 15.5205L 50.5273 14.4365L 49.8193 14.4365C 48.7126 14.4365 48.1592 14.7604 48.1592 15.4082C 48.1592 15.6914 48.2536 15.9128 48.4424 16.0723C 48.6312 16.2318 48.8737 16.3115 49.1699 16.3115ZM 53.8281 17L 52.9248 17L 52.9248 9.5L 53.8281 9.5L 53.8281 17ZM 24.9902 24.7139L 21.9092 24.7139L 21.9092 27.2334L 25.4883 27.2334L 25.4883 28L 20.9717 28L 20.9717 20.8906L 25.4395 20.8906L 25.4395 21.6621L 21.9092 21.6621L 21.9092 23.9473L 24.9902 23.9473L 24.9902 24.7139ZM 28.2861 24.6455L 29.458 22.7168L 30.5127 22.7168L 28.7842 25.3291L 30.5664 28L 29.5215 28L 28.3008 26.0225L 27.0801 28L 26.0303 28L 27.8125 25.3291L 26.084 22.7168L 27.1289 22.7168L 28.2861 24.6455ZM 32.7002 21.4375L 32.7002 22.7168L 33.6865 22.7168L 33.6865 23.415L 32.7002 23.415L 32.7002 26.6914C 32.7002 26.903 32.7441 27.0625 32.832 27.1699C 32.9199 27.2741 33.0697 27.3262 33.2812 27.3262C 33.3854 27.3262 33.5286 27.3066 33.7109 27.2676L 33.7109 28C 33.4733 28.0651 33.2422 28.0977 33.0176 28.0977C 32.6139 28.0977 32.3096 27.9756 32.1045 27.7314C 31.8994 27.4873 31.7969 27.1406 31.7969 26.6914L 31.7969 23.415L 30.835 23.415L 30.835 22.7168L 31.7969 22.7168L 31.7969 21.4375L 32.7002 21.4375ZM 37.2998 23.5273C 37.1631 23.5046 37.015 23.4932 36.8555 23.4932C 36.263 23.4932 35.861 23.7454 35.6494 24.25L 35.6494 28L 34.7461 28L 34.7461 22.7168L 35.625 22.7168L 35.6396 23.3271C 35.9359 22.8551 36.3558 22.6191 36.8994 22.6191C 37.0752 22.6191 37.2087 22.6419 37.2998 22.6875L 37.2998 23.5273ZM 41.2012 28C 41.1491 27.8958 41.1068 27.7103 41.0742 27.4434C 40.6543 27.8796 40.153 28.0977 39.5703 28.0977C 39.0495 28.0977 38.6214 27.9512 38.2861 27.6582C 37.9541 27.362 37.7881 26.9876 37.7881 26.5352C 37.7881 25.985 37.9964 25.5586 38.4131 25.2559C 38.833 24.9499 39.4222 24.7969 40.1807 24.7969L 41.0596 24.7969L 41.0596 24.3818C 41.0596 24.0661 40.9652 23.8154 40.7764 23.6299C 40.5876 23.4411 40.3092 23.3467 39.9414 23.3467C 39.6191 23.3467 39.349 23.4281 39.1309 23.5908C 38.9128 23.7536 38.8037 23.9505 38.8037 24.1816L 37.8955 24.1816C 37.8955 23.918 37.9883 23.6641 38.1738 23.4199C 38.3626 23.1725 38.6165 22.9772 38.9355 22.834C 39.2578 22.6908 39.611 22.6191 39.9951 22.6191C 40.6038 22.6191 41.0807 22.7721 41.4258 23.0781C 41.7708 23.3809 41.9499 23.7992 41.9629 24.333L 41.9629 26.7646C 41.9629 27.2497 42.0247 27.6354 42.1484 27.9219L 42.1484 28L 41.2012 28ZM 39.7021 27.3115C 39.9854 27.3115 40.2539 27.2383 40.5078 27.0918C 40.7617 26.9453 40.9456 26.7549 41.0596 26.5205L 41.0596 25.4365L 40.3516 25.4365C 39.2448 25.4365 38.6914 25.7604 38.6914 26.4082C 38.6914 26.6914 38.7858 26.9128 38.9746 27.0723C 39.1634 27.2318 39.4059 27.3115 39.7021 27.3115ZM 45.498 27.3604C 45.8203 27.3604 46.1019 27.2627 46.3428 27.0674C 46.5837 26.8721 46.7171 26.6279 46.7432 26.335L 47.5977 26.335C 47.5814 26.6377 47.4772 26.9258 47.2852 27.1992C 47.0931 27.4727 46.8359 27.6908 46.5137 27.8535C 46.1947 28.0163 45.8561 28.0977 45.498 28.0977C 44.7786 28.0977 44.2057 27.8584 43.7793 27.3799C 43.3561 26.8981 43.1445 26.2406 43.1445 25.4072L 43.1445 25.2559C 43.1445 24.7415 43.2389 24.2842 43.4277 23.8838C 43.6165 23.4834 43.8867 23.1725 44.2383 22.9512C 44.5931 22.7298 45.0114 22.6191 45.4932 22.6191C 46.0856 22.6191 46.5771 22.7965 46.9678 23.1514C 47.3617 23.5062 47.5716 23.9668 47.5977 24.5332L 46.7432 24.5332C 46.7171 24.1914 46.5869 23.9115 46.3525 23.6934C 46.1214 23.472 45.835 23.3613 45.4932 23.3613C 45.0342 23.3613 44.6777 23.5273 44.4238 23.8594C 44.1732 24.1882 44.0479 24.665 44.0479 25.29L 44.0479 25.4609C 44.0479 26.0697 44.1732 26.5384 44.4238 26.8672C 44.6745 27.196 45.0326 27.3604 45.498 27.3604ZM 49.8389 21.4375L 49.8389 22.7168L 50.8252 22.7168L 50.8252 23.415L 49.8389 23.415L 49.8389 26.6914C 49.8389 26.903 49.8828 27.0625 49.9707 27.1699C 50.0586 27.2741 50.2083 27.3262 50.4199 27.3262C 50.5241 27.3262 50.6673 27.3066 50.8496 27.2676L 50.8496 28C 50.612 28.0651 50.3809 28.0977 50.1562 28.0977C 49.7526 28.0977 49.4482 27.9756 49.2432 27.7314C 49.0381 27.4873 48.9355 27.1406 48.9355 26.6914L 48.9355 23.415L 47.9736 23.415L 47.9736 22.7168L 48.9355 22.7168L 48.9355 21.4375L 49.8389 21.4375ZM 52.8662 28L 51.9629 28L 51.9629 22.7168L 52.8662 22.7168L 52.8662 28ZM 51.8896 21.3154C 51.8896 21.1689 51.9336 21.0452 52.0215 20.9443C 52.1126 20.8434 52.2461 20.793 52.4219 20.793C 52.5977 20.793 52.7311 20.8434 52.8223 20.9443C 52.9134 21.0452 52.959 21.1689 52.959 21.3154C 52.959 21.4619 52.9134 21.584 52.8223 21.6816C 52.7311 21.7793 52.5977 21.8281 52.4219 21.8281C 52.2461 21.8281 52.1126 21.7793 52.0215 21.6816C 51.9336 21.584 51.8896 21.4619 51.8896 21.3154ZM 54.0771 25.3096C 54.0771 24.792 54.1781 24.3265 54.3799 23.9131C 54.585 23.4997 54.8682 23.1807 55.2295 22.9561C 55.5941 22.7314 56.0091 22.6191 56.4746 22.6191C 57.194 22.6191 57.7751 22.8682 58.2178 23.3662C 58.6637 23.8643 58.8867 24.5267 58.8867 25.3535L 58.8867 25.417C 58.8867 25.9313 58.7874 26.3936 58.5889 26.8037C 58.3936 27.2106 58.112 27.528 57.7441 27.7559C 57.3796 27.9837 56.9596 28.0977 56.4844 28.0977C 55.7682 28.0977 55.1872 27.8486 54.7412 27.3506C 54.2985 26.8525 54.0771 26.1934 54.0771 25.373L 54.0771 25.3096ZM 54.9854 25.417C 54.9854 26.0029 55.1204 26.4733 55.3906 26.8281C 55.6641 27.1829 56.0286 27.3604 56.4844 27.3604C 56.9434 27.3604 57.3079 27.1813 57.5781 26.8232C 57.8483 26.4619 57.9834 25.9574 57.9834 25.3096C 57.9834 24.7301 57.8451 24.2614 57.5684 23.9033C 57.2949 23.542 56.9303 23.3613 56.4746 23.3613C 56.0286 23.3613 55.6689 23.5387 55.3955 23.8936C 55.1221 24.2484 54.9854 24.7562 54.9854 25.417ZM 60.874 22.7168L 60.9033 23.3809C 61.307 22.873 61.8343 22.6191 62.4854 22.6191C 63.6019 22.6191 64.165 23.249 64.1748 24.5088L 64.1748 28L 63.2715 28L 63.2715 24.5039C 63.2682 24.123 63.1803 23.8415 63.0078 23.6592C 62.8385 23.4769 62.5732 23.3857 62.2119 23.3857C 61.9189 23.3857 61.6618 23.4639 61.4404 23.6201C 61.2191 23.7764 61.0465 23.9814 60.9229 24.2354L 60.9229 28L 60.0195 28L 60.0195 22.7168L 60.874 22.7168ZM 35.2881 39.0674C 35.0472 39.4124 34.7103 39.6712 34.2773 39.8438C 33.8477 40.013 33.3464 40.0977 32.7734 40.0977C 32.194 40.0977 31.6797 39.9626 31.2305 39.6924C 30.7812 39.4189 30.4329 39.0316 30.1855 38.5303C 29.9414 38.029 29.8161 37.4479 29.8096 36.7871L 29.8096 36.167C 29.8096 35.096 30.0586 34.266 30.5566 33.6768C 31.0579 33.0876 31.7611 32.793 32.666 32.793C 33.4082 32.793 34.0055 32.9834 34.458 33.3643C 34.9105 33.7419 35.1872 34.279 35.2881 34.9756L 34.3506 34.9756C 34.1748 34.0348 33.6149 33.5645 32.6709 33.5645C 32.0426 33.5645 31.5658 33.7858 31.2402 34.2285C 30.918 34.668 30.7552 35.306 30.752 36.1426L 30.752 36.7236C 30.752 37.5212 30.9342 38.1559 31.2988 38.6279C 31.6634 39.0967 32.1566 39.3311 32.7783 39.3311C 33.1299 39.3311 33.4375 39.292 33.7012 39.2139C 33.9648 39.1357 34.1829 39.0039 34.3555 38.8184L 34.3555 37.2217L 32.71 37.2217L 32.71 36.46L 35.2881 36.46L 35.2881 39.0674ZM 39.2676 35.5273C 39.1309 35.5046 38.9827 35.4932 38.8232 35.4932C 38.2308 35.4932 37.8288 35.7454 37.6172 36.25L 37.6172 40L 36.7139 40L 36.7139 34.7168L 37.5928 34.7168L 37.6074 35.3271C 37.9036 34.8551 38.3236 34.6191 38.8672 34.6191C 39.043 34.6191 39.1764 34.6419 39.2676 34.6875L 39.2676 35.5273ZM 43.1689 40C 43.1169 39.8958 43.0745 39.7103 43.042 39.4434C 42.6221 39.8796 42.1208 40.0977 41.5381 40.0977C 41.0173 40.0977 40.5892 39.9512 40.2539 39.6582C 39.9219 39.362 39.7559 38.9876 39.7559 38.5352C 39.7559 37.985 39.9642 37.5586 40.3809 37.2559C 40.8008 36.9499 41.39 36.7969 42.1484 36.7969L 43.0273 36.7969L 43.0273 36.3818C 43.0273 36.0661 42.9329 35.8154 42.7441 35.6299C 42.5553 35.4411 42.277 35.3467 41.9092 35.3467C 41.5869 35.3467 41.3167 35.4281 41.0986 35.5908C 40.8805 35.7536 40.7715 35.9505 40.7715 36.1816L 39.8633 36.1816C 39.8633 35.918 39.9561 35.6641 40.1416 35.4199C 40.3304 35.1725 40.5843 34.9772 40.9033 34.834C 41.2256 34.6908 41.5788 34.6191 41.9629 34.6191C 42.5716 34.6191 43.0485 34.7721 43.3936 35.0781C 43.7386 35.3809 43.9176 35.7992 43.9307 36.333L 43.9307 38.7646C 43.9307 39.2497 43.9925 39.6354 44.1162 39.9219L 44.1162 40L 43.1689 40ZM 41.6699 39.3115C 41.9531 39.3115 42.2217 39.2383 42.4756 39.0918C 42.7295 38.9453 42.9134 38.7549 43.0273 38.5205L 43.0273 37.4365L 42.3193 37.4365C 41.2126 37.4365 40.6592 37.7604 40.6592 38.4082C 40.6592 38.6914 40.7536 38.9128 40.9424 39.0723C 41.1312 39.2318 41.3737 39.3115 41.6699 39.3115ZM 49.8096 37.417C 49.8096 38.221 49.6257 38.8688 49.2578 39.3604C 48.89 39.8519 48.3919 40.0977 47.7637 40.0977C 47.1224 40.0977 46.6178 39.8942 46.25 39.4873L 46.25 42.0312L 45.3467 42.0312L 45.3467 34.7168L 46.1719 34.7168L 46.2158 35.3027C 46.5837 34.847 47.0947 34.6191 47.749 34.6191C 48.3838 34.6191 48.8851 34.8584 49.2529 35.3369C 49.624 35.8154 49.8096 36.4811 49.8096 37.334L 49.8096 37.417ZM 48.9062 37.3145C 48.9062 36.7188 48.7793 36.2484 48.5254 35.9033C 48.2715 35.5583 47.9232 35.3857 47.4805 35.3857C 46.9336 35.3857 46.5234 35.6283 46.25 36.1133L 46.25 38.6377C 46.5202 39.1195 46.9336 39.3604 47.4902 39.3604C 47.9232 39.3604 48.2666 39.1895 48.5205 38.8477C 48.7777 38.5026 48.9062 37.9915 48.9062 37.3145ZM 51.8652 35.3564C 52.2656 34.8649 52.7865 34.6191 53.4277 34.6191C 54.5443 34.6191 55.1074 35.249 55.1172 36.5088L 55.1172 40L 54.2139 40L 54.2139 36.5039C 54.2106 36.123 54.1227 35.8415 53.9502 35.6592C 53.7809 35.4769 53.5156 35.3857 53.1543 35.3857C 52.8613 35.3857 52.6042 35.4639 52.3828 35.6201C 52.1615 35.7764 51.9889 35.9814 51.8652 36.2354L 51.8652 40L 50.9619 40L 50.9619 32.5L 51.8652 32.5L 51.8652 35.3564Z"/>
<path id="path9_fill" d="M 23.3545 17L 22.4121 17L 18.833 11.5215L 18.833 17L 17.8906 17L 17.8906 9.89062L 18.833 9.89062L 22.4219 15.3936L 22.4219 9.89062L 23.3545 9.89062L 23.3545 17ZM 27.0703 17.0977C 26.3542 17.0977 25.7715 16.8633 25.3223 16.3945C 24.873 15.9225 24.6484 15.2926 24.6484 14.5049L 24.6484 14.3389C 24.6484 13.8148 24.7477 13.3477 24.9463 12.9375C 25.1481 12.5241 25.4281 12.2018 25.7861 11.9707C 26.1475 11.7363 26.5381 11.6191 26.958 11.6191C 27.6449 11.6191 28.1787 11.8454 28.5596 12.2979C 28.9404 12.7503 29.1309 13.3981 29.1309 14.2412L 29.1309 14.6172L 25.5518 14.6172C 25.5648 15.138 25.7161 15.5596 26.0059 15.8818C 26.2988 16.2008 26.6699 16.3604 27.1191 16.3604C 27.4382 16.3604 27.7083 16.2952 27.9297 16.165C 28.151 16.0348 28.3447 15.8623 28.5107 15.6475L 29.0625 16.0771C 28.6198 16.7575 27.9557 17.0977 27.0703 17.0977ZM 26.958 12.3613C 26.5934 12.3613 26.2874 12.4948 26.04 12.7617C 25.7926 13.0254 25.6396 13.3965 25.5811 13.875L 28.2275 13.875L 28.2275 13.8066C 28.2015 13.3477 28.0778 12.9928 27.8564 12.7422C 27.6351 12.4883 27.3356 12.3613 26.958 12.3613ZM 34.8584 15.7549L 35.874 11.7168L 36.7773 11.7168L 35.2393 17L 34.5068 17L 33.2227 12.9961L 31.9727 17L 31.2402 17L 29.707 11.7168L 30.6055 11.7168L 31.6455 15.6719L 32.876 11.7168L 33.6035 11.7168L 34.8584 15.7549ZM 45.5713 16.0674C 45.3304 16.4124 44.9935 16.6712 44.5605 16.8438C 44.1309 17.013 43.6296 17.0977 43.0566 17.0977C 42.4772 17.0977 41.9629 16.9626 41.5137 16.6924C 41.0645 16.4189 40.7161 16.0316 40.4688 15.5303C 40.2246 15.029 40.0993 14.4479 40.0928 13.7871L 40.0928 13.167C 40.0928 12.096 40.3418 11.266 40.8398 10.6768C 41.3411 10.0876 42.0443 9.79297 42.9492 9.79297C 43.6914 9.79297 44.2887 9.9834 44.7412 10.3643C 45.1937 10.7419 45.4704 11.279 45.5713 11.9756L 44.6338 11.9756C 44.458 11.0348 43.8981 10.5645 42.9541 10.5645C 42.3258 10.5645 41.849 10.7858 41.5234 11.2285C 41.2012 11.668 41.0384 12.306 41.0352 13.1426L 41.0352 13.7236C 41.0352 14.5212 41.2174 15.1559 41.582 15.6279C 41.9466 16.0967 42.4398 16.3311 43.0615 16.3311C 43.4131 16.3311 43.7207 16.292 43.9844 16.2139C 44.248 16.1357 44.4661 16.0039 44.6387 15.8184L 44.6387 14.2217L 42.9932 14.2217L 42.9932 13.46L 45.5713 13.46L 45.5713 16.0674ZM 47.9785 17L 47.0752 17L 47.0752 9.5L 47.9785 9.5L 47.9785 17ZM 49.1895 14.3096C 49.1895 13.792 49.2904 13.3265 49.4922 12.9131C 49.6973 12.4997 49.9805 12.1807 50.3418 11.9561C 50.7064 11.7314 51.1214 11.6191 51.5869 11.6191C 52.3063 11.6191 52.8874 11.8682 53.3301 12.3662C 53.776 12.8643 53.999 13.5267 53.999 14.3535L 53.999 14.417C 53.999 14.9313 53.8997 15.3936 53.7012 15.8037C 53.5059 16.2106 53.2243 16.528 52.8564 16.7559C 52.4919 16.9837 52.0719 17.0977 51.5967 17.0977C 50.8805 17.0977 50.2995 16.8486 49.8535 16.3506C 49.4108 15.8525 49.1895 15.1934 49.1895 14.373L 49.1895 14.3096ZM 50.0977 14.417C 50.0977 15.0029 50.2327 15.4733 50.5029 15.8281C 50.7764 16.1829 51.141 16.3604 51.5967 16.3604C 52.0557 16.3604 52.4202 16.1813 52.6904 15.8232C 52.9606 15.4619 53.0957 14.9574 53.0957 14.3096C 53.0957 13.7301 52.9574 13.2614 52.6807 12.9033C 52.4072 12.542 52.0426 12.3613 51.5869 12.3613C 51.141 12.3613 50.7812 12.5387 50.5078 12.8936C 50.2344 13.2484 50.0977 13.7562 50.0977 14.417ZM 59.6045 14.417C 59.6045 15.2243 59.4189 15.8737 59.0479 16.3652C 58.6768 16.8535 58.1787 17.0977 57.5537 17.0977C 56.8864 17.0977 56.3704 16.8617 56.0059 16.3896L 55.9619 17L 55.1318 17L 55.1318 9.5L 56.0352 9.5L 56.0352 12.2979C 56.3997 11.8454 56.9027 11.6191 57.5439 11.6191C 58.1852 11.6191 58.6882 11.8617 59.0527 12.3467C 59.4206 12.8317 59.6045 13.4958 59.6045 14.3389L 59.6045 14.417ZM 58.7012 14.3145C 58.7012 13.6992 58.5824 13.224 58.3447 12.8887C 58.1071 12.5534 57.7653 12.3857 57.3193 12.3857C 56.7236 12.3857 56.2956 12.6624 56.0352 13.2158L 56.0352 15.501C 56.3118 16.0544 56.7432 16.3311 57.3291 16.3311C 57.762 16.3311 58.099 16.1634 58.3398 15.8281C 58.5807 15.4928 58.7012 14.9883 58.7012 14.3145ZM 64.0088 17C 63.9567 16.8958 63.9144 16.7103 63.8818 16.4434C 63.4619 16.8796 62.9606 17.0977 62.3779 17.0977C 61.8571 17.0977 61.429 16.9512 61.0938 16.6582C 60.7617 16.362 60.5957 15.9876 60.5957 15.5352C 60.5957 14.985 60.804 14.5586 61.2207 14.2559C 61.6406 13.9499 62.2298 13.7969 62.9883 13.7969L 63.8672 13.7969L 63.8672 13.3818C 63.8672 13.0661 63.7728 12.8154 63.584 12.6299C 63.3952 12.4411 63.1169 12.3467 62.749 12.3467C 62.4268 12.3467 62.1566 12.4281 61.9385 12.5908C 61.7204 12.7536 61.6113 12.9505 61.6113 13.1816L 60.7031 13.1816C 60.7031 12.918 60.7959 12.6641 60.9814 12.4199C 61.1702 12.1725 61.4242 11.9772 61.7432 11.834C 62.0654 11.6908 62.4186 11.6191 62.8027 11.6191C 63.4115 11.6191 63.8883 11.7721 64.2334 12.0781C 64.5785 12.3809 64.7575 12.7992 64.7705 13.333L 64.7705 15.7646C 64.7705 16.2497 64.8324 16.6354 64.9561 16.9219L 64.9561 17L 64.0088 17ZM 62.5098 16.3115C 62.793 16.3115 63.0615 16.2383 63.3154 16.0918C 63.5693 15.9453 63.7533 15.7549 63.8672 15.5205L 63.8672 14.4365L 63.1592 14.4365C 62.0524 14.4365 61.499 14.7604 61.499 15.4082C 61.499 15.6914 61.5934 15.9128 61.7822 16.0723C 61.971 16.2318 62.2135 16.3115 62.5098 16.3115ZM 67.168 17L 66.2646 17L 66.2646 9.5L 67.168 9.5L 67.168 17ZM 20.5371 24.6943L 19.668 25.5977L 19.668 28L 18.7305 28L 18.7305 20.8906L 19.668 20.8906L 19.668 24.4062L 22.8271 20.8906L 23.96 20.8906L 21.1621 24.0303L 24.1797 28L 23.0566 28L 20.5371 24.6943ZM 25.5957 22.7168L 25.625 23.3809C 26.0286 22.873 26.556 22.6191 27.207 22.6191C 28.3236 22.6191 28.8867 23.249 28.8965 24.5088L 28.8965 28L 27.9932 28L 27.9932 24.5039C 27.9899 24.123 27.902 23.8415 27.7295 23.6592C 27.5602 23.4769 27.2949 23.3857 26.9336 23.3857C 26.6406 23.3857 26.3835 23.4639 26.1621 23.6201C 25.9408 23.7764 25.7682 23.9814 25.6445 24.2354L 25.6445 28L 24.7412 28L 24.7412 22.7168L 25.5957 22.7168ZM 30.0195 25.3096C 30.0195 24.792 30.1204 24.3265 30.3223 23.9131C 30.5273 23.4997 30.8105 23.1807 31.1719 22.9561C 31.5365 22.7314 31.9515 22.6191 32.417 22.6191C 33.1364 22.6191 33.7174 22.8682 34.1602 23.3662C 34.6061 23.8643 34.8291 24.5267 34.8291 25.3535L 34.8291 25.417C 34.8291 25.9313 34.7298 26.3936 34.5312 26.8037C 34.3359 27.2106 34.0544 27.528 33.6865 27.7559C 33.3219 27.9837 32.902 28.0977 32.4268 28.0977C 31.7106 28.0977 31.1296 27.8486 30.6836 27.3506C 30.2409 26.8525 30.0195 26.1934 30.0195 25.373L 30.0195 25.3096ZM 30.9277 25.417C 30.9277 26.0029 31.0628 26.4733 31.333 26.8281C 31.6064 27.1829 31.971 27.3604 32.4268 27.3604C 32.8857 27.3604 33.2503 27.1813 33.5205 26.8232C 33.7907 26.4619 33.9258 25.9574 33.9258 25.3096C 33.9258 24.7301 33.7874 24.2614 33.5107 23.9033C 33.2373 23.542 32.8727 23.3613 32.417 23.3613C 31.971 23.3613 31.6113 23.5387 31.3379 23.8936C 31.0645 24.2484 30.9277 24.7562 30.9277 25.417ZM 40.6396 26.7549L 41.6553 22.7168L 42.5586 22.7168L 41.0205 28L 40.2881 28L 39.0039 23.9961L 37.7539 28L 37.0215 28L 35.4883 22.7168L 36.3867 22.7168L 37.4268 26.6719L 38.6572 22.7168L 39.3848 22.7168L 40.6396 26.7549ZM 44.4629 28L 43.5596 28L 43.5596 20.5L 44.4629 20.5L 44.4629 28ZM 48.1055 28.0977C 47.3893 28.0977 46.8066 27.8633 46.3574 27.3945C 45.9082 26.9225 45.6836 26.2926 45.6836 25.5049L 45.6836 25.3389C 45.6836 24.8148 45.7829 24.3477 45.9814 23.9375C 46.1833 23.5241 46.4632 23.2018 46.8213 22.9707C 47.1826 22.7363 47.5732 22.6191 47.9932 22.6191C 48.68 22.6191 49.2139 22.8454 49.5947 23.2979C 49.9756 23.7503 50.166 24.3981 50.166 25.2412L 50.166 25.6172L 46.5869 25.6172C 46.5999 26.138 46.7513 26.5596 47.041 26.8818C 47.334 27.2008 47.7051 27.3604 48.1543 27.3604C 48.4733 27.3604 48.7435 27.2952 48.9648 27.165C 49.1862 27.0348 49.3799 26.8623 49.5459 26.6475L 50.0977 27.0771C 49.6549 27.7575 48.9909 28.0977 48.1055 28.0977ZM 47.9932 23.3613C 47.6286 23.3613 47.3226 23.4948 47.0752 23.7617C 46.8278 24.0254 46.6748 24.3965 46.6162 24.875L 49.2627 24.875L 49.2627 24.8066C 49.2367 24.3477 49.113 23.9928 48.8916 23.7422C 48.6702 23.4883 48.3708 23.3613 47.9932 23.3613ZM 50.9961 25.3145C 50.9961 24.5039 51.1882 23.8529 51.5723 23.3613C 51.9564 22.8665 52.4593 22.6191 53.0811 22.6191C 53.6995 22.6191 54.1895 22.8307 54.5508 23.2539L 54.5508 20.5L 55.4541 20.5L 55.4541 28L 54.624 28L 54.5801 27.4336C 54.2188 27.8763 53.7158 28.0977 53.0713 28.0977C 52.4593 28.0977 51.9596 27.847 51.5723 27.3457C 51.1882 26.8444 50.9961 26.1901 50.9961 25.3828L 50.9961 25.3145ZM 51.8994 25.417C 51.8994 26.016 52.0231 26.4847 52.2705 26.8232C 52.5179 27.1618 52.8597 27.3311 53.2959 27.3311C 53.8688 27.3311 54.2871 27.0739 54.5508 26.5596L 54.5508 24.1328C 54.2806 23.6348 53.8656 23.3857 53.3057 23.3857C 52.863 23.3857 52.5179 23.5566 52.2705 23.8984C 52.0231 24.2402 51.8994 24.7464 51.8994 25.417ZM 56.6455 25.3145C 56.6455 24.4909 56.8359 23.8366 57.2168 23.3516C 57.5977 22.8633 58.1022 22.6191 58.7305 22.6191C 59.375 22.6191 59.8779 22.847 60.2393 23.3027L 60.2832 22.7168L 61.1084 22.7168L 61.1084 27.873C 61.1084 28.5566 60.9049 29.0954 60.498 29.4893C 60.0944 29.8831 59.5508 30.0801 58.8672 30.0801C 58.4863 30.0801 58.1136 29.9987 57.749 29.8359C 57.3844 29.6732 57.1061 29.4502 56.9141 29.167L 57.3828 28.625C 57.7702 29.1035 58.2438 29.3428 58.8037 29.3428C 59.2432 29.3428 59.585 29.2191 59.8291 28.9717C 60.0765 28.7243 60.2002 28.376 60.2002 27.9268L 60.2002 27.4727C 59.8389 27.8893 59.3457 28.0977 58.7207 28.0977C 58.1022 28.0977 57.6009 27.8486 57.2168 27.3506C 56.8359 26.8525 56.6455 26.1738 56.6455 25.3145ZM 57.5537 25.417C 57.5537 26.0127 57.6758 26.4814 57.9199 26.8232C 58.1641 27.1618 58.5059 27.3311 58.9453 27.3311C 59.515 27.3311 59.9333 27.0723 60.2002 26.5547L 60.2002 24.1426C 59.9235 23.638 59.5085 23.3857 58.9551 23.3857C 58.5156 23.3857 58.1722 23.5566 57.9248 23.8984C 57.6774 24.2402 57.5537 24.7464 57.5537 25.417ZM 64.668 28.0977C 63.9518 28.0977 63.3691 27.8633 62.9199 27.3945C 62.4707 26.9225 62.2461 26.2926 62.2461 25.5049L 62.2461 25.3389C 62.2461 24.8148 62.3454 24.3477 62.5439 23.9375C 62.7458 23.5241 63.0257 23.2018 63.3838 22.9707C 63.7451 22.7363 64.1357 22.6191 64.5557 22.6191C 65.2425 22.6191 65.7764 22.8454 66.1572 23.2979C 66.5381 23.7503 66.7285 24.3981 66.7285 25.2412L 66.7285 25.6172L 63.1494 25.6172C 63.1624 26.138 63.3138 26.5596 63.6035 26.8818C 63.8965 27.2008 64.2676 27.3604 64.7168 27.3604C 65.0358 27.3604 65.306 27.2952 65.5273 27.165C 65.7487 27.0348 65.9424 26.8623 66.1084 26.6475L 66.6602 27.0771C 66.2174 27.7575 65.5534 28.0977 64.668 28.0977ZM 64.5557 23.3613C 64.1911 23.3613 63.8851 23.4948 63.6377 23.7617C 63.3903 24.0254 63.2373 24.3965 63.1787 24.875L 65.8252 24.875L 65.8252 24.8066C 65.7992 24.3477 65.6755 23.9928 65.4541 23.7422C 65.2327 23.4883 64.9333 23.3613 64.5557 23.3613ZM 35.2881 39.0674C 35.0472 39.4124 34.7103 39.6712 34.2773 39.8438C 33.8477 40.013 33.3464 40.0977 32.7734 40.0977C 32.194 40.0977 31.6797 39.9626 31.2305 39.6924C 30.7812 39.4189 30.4329 39.0316 30.1855 38.5303C 29.9414 38.029 29.8161 37.4479 29.8096 36.7871L 29.8096 36.167C 29.8096 35.096 30.0586 34.266 30.5566 33.6768C 31.0579 33.0876 31.7611 32.793 32.666 32.793C 33.4082 32.793 34.0055 32.9834 34.458 33.3643C 34.9105 33.7419 35.1872 34.279 35.2881 34.9756L 34.3506 34.9756C 34.1748 34.0348 33.6149 33.5645 32.6709 33.5645C 32.0426 33.5645 31.5658 33.7858 31.2402 34.2285C 30.918 34.668 30.7552 35.306 30.752 36.1426L 30.752 36.7236C 30.752 37.5212 30.9342 38.1559 31.2988 38.6279C 31.6634 39.0967 32.1566 39.3311 32.7783 39.3311C 33.1299 39.3311 33.4375 39.292 33.7012 39.2139C 33.9648 39.1357 34.1829 39.0039 34.3555 38.8184L 34.3555 37.2217L 32.71 37.2217L 32.71 36.46L 35.2881 36.46L 35.2881 39.0674ZM 39.2676 35.5273C 39.1309 35.5046 38.9827 35.4932 38.8232 35.4932C 38.2308 35.4932 37.8288 35.7454 37.6172 36.25L 37.6172 40L 36.7139 40L 36.7139 34.7168L 37.5928 34.7168L 37.6074 35.3271C 37.9036 34.8551 38.3236 34.6191 38.8672 34.6191C 39.043 34.6191 39.1764 34.6419 39.2676 34.6875L 39.2676 35.5273ZM 43.1689 40C 43.1169 39.8958 43.0745 39.7103 43.042 39.4434C 42.6221 39.8796 42.1208 40.0977 41.5381 40.0977C 41.0173 40.0977 40.5892 39.9512 40.2539 39.6582C 39.9219 39.362 39.7559 38.9876 39.7559 38.5352C 39.7559 37.985 39.9642 37.5586 40.3809 37.2559C 40.8008 36.9499 41.39 36.7969 42.1484 36.7969L 43.0273 36.7969L 43.0273 36.3818C 43.0273 36.0661 42.9329 35.8154 42.7441 35.6299C 42.5553 35.4411 42.277 35.3467 41.9092 35.3467C 41.5869 35.3467 41.3167 35.4281 41.0986 35.5908C 40.8805 35.7536 40.7715 35.9505 40.7715 36.1816L 39.8633 36.1816C 39.8633 35.918 39.9561 35.6641 40.1416 35.4199C 40.3304 35.1725 40.5843 34.9772 40.9033 34.834C 41.2256 34.6908 41.5788 34.6191 41.9629 34.6191C 42.5716 34.6191 43.0485 34.7721 43.3936 35.0781C 43.7386 35.3809 43.9176 35.7992 43.9307 36.333L 43.9307 38.7646C 43.9307 39.2497 43.9925 39.6354 44.1162 39.9219L 44.1162 40L 43.1689 40ZM 41.6699 39.3115C 41.9531 39.3115 42.2217 39.2383 42.4756 39.0918C 42.7295 38.9453 42.9134 38.7549 43.0273 38.5205L 43.0273 37.4365L 42.3193 37.4365C 41.2126 37.4365 40.6592 37.7604 40.6592 38.4082C 40.6592 38.6914 40.7536 38.9128 40.9424 39.0723C 41.1312 39.2318 41.3737 39.3115 41.6699 39.3115ZM 49.8096 37.417C 49.8096 38.221 49.6257 38.8688 49.2578 39.3604C 48.89 39.8519 48.3919 40.0977 47.7637 40.0977C 47.1224 40.0977 46.6178 39.8942 46.25 39.4873L 46.25 42.0312L 45.3467 42.0312L 45.3467 34.7168L 46.1719 34.7168L 46.2158 35.3027C 46.5837 34.847 47.0947 34.6191 47.749 34.6191C 48.3838 34.6191 48.8851 34.8584 49.2529 35.3369C 49.624 35.8154 49.8096 36.4811 49.8096 37.334L 49.8096 37.417ZM 48.9062 37.3145C 48.9062 36.7188 48.7793 36.2484 48.5254 35.9033C 48.2715 35.5583 47.9232 35.3857 47.4805 35.3857C 46.9336 35.3857 46.5234 35.6283 46.25 36.1133L 46.25 38.6377C 46.5202 39.1195 46.9336 39.3604 47.4902 39.3604C 47.9232 39.3604 48.2666 39.1895 48.5205 38.8477C 48.7777 38.5026 48.9062 37.9915 48.9062 37.3145ZM 51.8652 35.3564C 52.2656 34.8649 52.7865 34.6191 53.4277 34.6191C 54.5443 34.6191 55.1074 35.249 55.1172 36.5088L 55.1172 40L 54.2139 40L 54.2139 36.5039C 54.2106 36.123 54.1227 35.8415 53.9502 35.6592C 53.7809 35.4769 53.5156 35.3857 53.1543 35.3857C 52.8613 35.3857 52.6042 35.4639 52.3828 35.6201C 52.1615 35.7764 51.9889 35.9814 51.8652 36.2354L 51.8652 40L 50.9619 40L 50.9619 32.5L 51.8652 32.5L 51.8652 35.3564Z"/>
<path id="path10_fill" d="M 25.8594 13.6748C 25.8594 14.3714 25.7422 14.9801 25.5078 15.501C 25.2734 16.0186 24.9414 16.4141 24.5117 16.6875C 24.082 16.9609 23.5807 17.0977 23.0078 17.0977C 22.4479 17.0977 21.9515 16.9609 21.5186 16.6875C 21.0856 16.4108 20.7487 16.0186 20.5078 15.5107C 20.2702 14.9997 20.1481 14.4089 20.1416 13.7383L 20.1416 13.2256C 20.1416 12.542 20.2604 11.9382 20.498 11.4141C 20.7357 10.89 21.071 10.4896 21.5039 10.2129C 21.9401 9.93294 22.4382 9.79297 22.998 9.79297C 23.5677 9.79297 24.069 9.93132 24.502 10.208C 24.9382 10.4814 25.2734 10.8802 25.5078 11.4043C 25.7422 11.9251 25.8594 12.5322 25.8594 13.2256L 25.8594 13.6748ZM 24.9268 13.2158C 24.9268 12.3727 24.7575 11.7266 24.4189 11.2773C 24.0804 10.8249 23.6068 10.5986 22.998 10.5986C 22.4056 10.5986 21.9385 10.8249 21.5967 11.2773C 21.2581 11.7266 21.084 12.3516 21.0742 13.1523L 21.0742 13.6748C 21.0742 14.4919 21.2451 15.1348 21.5869 15.6035C 21.932 16.069 22.4056 16.3018 23.0078 16.3018C 23.6133 16.3018 24.082 16.082 24.4141 15.6426C 24.7461 15.1999 24.917 14.5667 24.9268 13.7432L 24.9268 13.2158ZM 28.1055 17L 27.2021 17L 27.2021 9.5L 28.1055 9.5L 28.1055 17ZM 29.3359 14.3145C 29.3359 13.5039 29.528 12.8529 29.9121 12.3613C 30.2962 11.8665 30.7992 11.6191 31.4209 11.6191C 32.0394 11.6191 32.5293 11.8307 32.8906 12.2539L 32.8906 9.5L 33.7939 9.5L 33.7939 17L 32.9639 17L 32.9199 16.4336C 32.5586 16.8763 32.0557 17.0977 31.4111 17.0977C 30.7992 17.0977 30.2995 16.847 29.9121 16.3457C 29.528 15.8444 29.3359 15.1901 29.3359 14.3828L 29.3359 14.3145ZM 30.2393 14.417C 30.2393 15.016 30.363 15.4847 30.6104 15.8232C 30.8577 16.1618 31.1995 16.3311 31.6357 16.3311C 32.2087 16.3311 32.627 16.0739 32.8906 15.5596L 32.8906 13.1328C 32.6204 12.6348 32.2054 12.3857 31.6455 12.3857C 31.2028 12.3857 30.8577 12.5566 30.6104 12.8984C 30.363 13.2402 30.2393 13.7464 30.2393 14.417ZM 43.0713 16.0674C 42.8304 16.4124 42.4935 16.6712 42.0605 16.8438C 41.6309 17.013 41.1296 17.0977 40.5566 17.0977C 39.9772 17.0977 39.4629 16.9626 39.0137 16.6924C 38.5645 16.4189 38.2161 16.0316 37.9688 15.5303C 37.7246 15.029 37.5993 14.4479 37.5928 13.7871L 37.5928 13.167C 37.5928 12.096 37.8418 11.266 38.3398 10.6768C 38.8411 10.0876 39.5443 9.79297 40.4492 9.79297C 41.1914 9.79297 41.7887 9.9834 42.2412 10.3643C 42.6937 10.7419 42.9704 11.279 43.0713 11.9756L 42.1338 11.9756C 41.958 11.0348 41.3981 10.5645 40.4541 10.5645C 39.8258 10.5645 39.349 10.7858 39.0234 11.2285C 38.7012 11.668 38.5384 12.306 38.5352 13.1426L 38.5352 13.7236C 38.5352 14.5212 38.7174 15.1559 39.082 15.6279C 39.4466 16.0967 39.9398 16.3311 40.5615 16.3311C 40.9131 16.3311 41.2207 16.292 41.4844 16.2139C 41.748 16.1357 41.9661 16.0039 42.1387 15.8184L 42.1387 14.2217L 40.4932 14.2217L 40.4932 13.46L 43.0713 13.46L 43.0713 16.0674ZM 45.4785 17L 44.5752 17L 44.5752 9.5L 45.4785 9.5L 45.4785 17ZM 46.6895 14.3096C 46.6895 13.792 46.7904 13.3265 46.9922 12.9131C 47.1973 12.4997 47.4805 12.1807 47.8418 11.9561C 48.2064 11.7314 48.6214 11.6191 49.0869 11.6191C 49.8063 11.6191 50.3874 11.8682 50.8301 12.3662C 51.276 12.8643 51.499 13.5267 51.499 14.3535L 51.499 14.417C 51.499 14.9313 51.3997 15.3936 51.2012 15.8037C 51.0059 16.2106 50.7243 16.528 50.3564 16.7559C 49.9919 16.9837 49.5719 17.0977 49.0967 17.0977C 48.3805 17.0977 47.7995 16.8486 47.3535 16.3506C 46.9108 15.8525 46.6895 15.1934 46.6895 14.373L 46.6895 14.3096ZM 47.5977 14.417C 47.5977 15.0029 47.7327 15.4733 48.0029 15.8281C 48.2764 16.1829 48.641 16.3604 49.0967 16.3604C 49.5557 16.3604 49.9202 16.1813 50.1904 15.8232C 50.4606 15.4619 50.5957 14.9574 50.5957 14.3096C 50.5957 13.7301 50.4574 13.2614 50.1807 12.9033C 49.9072 12.542 49.5426 12.3613 49.0869 12.3613C 48.641 12.3613 48.2812 12.5387 48.0078 12.8936C 47.7344 13.2484 47.5977 13.7562 47.5977 14.417ZM 57.1045 14.417C 57.1045 15.2243 56.9189 15.8737 56.5479 16.3652C 56.1768 16.8535 55.6787 17.0977 55.0537 17.0977C 54.3864 17.0977 53.8704 16.8617 53.5059 16.3896L 53.4619 17L 52.6318 17L 52.6318 9.5L 53.5352 9.5L 53.5352 12.2979C 53.8997 11.8454 54.4027 11.6191 55.0439 11.6191C 55.6852 11.6191 56.1882 11.8617 56.5527 12.3467C 56.9206 12.8317 57.1045 13.4958 57.1045 14.3389L 57.1045 14.417ZM 56.2012 14.3145C 56.2012 13.6992 56.0824 13.224 55.8447 12.8887C 55.6071 12.5534 55.2653 12.3857 54.8193 12.3857C 54.2236 12.3857 53.7956 12.6624 53.5352 13.2158L 53.5352 15.501C 53.8118 16.0544 54.2432 16.3311 54.8291 16.3311C 55.262 16.3311 55.599 16.1634 55.8398 15.8281C 56.0807 15.4928 56.2012 14.9883 56.2012 14.3145ZM 61.5088 17C 61.4567 16.8958 61.4144 16.7103 61.3818 16.4434C 60.9619 16.8796 60.4606 17.0977 59.8779 17.0977C 59.3571 17.0977 58.929 16.9512 58.5938 16.6582C 58.2617 16.362 58.0957 15.9876 58.0957 15.5352C 58.0957 14.985 58.304 14.5586 58.7207 14.2559C 59.1406 13.9499 59.7298 13.7969 60.4883 13.7969L 61.3672 13.7969L 61.3672 13.3818C 61.3672 13.0661 61.2728 12.8154 61.084 12.6299C 60.8952 12.4411 60.6169 12.3467 60.249 12.3467C 59.9268 12.3467 59.6566 12.4281 59.4385 12.5908C 59.2204 12.7536 59.1113 12.9505 59.1113 13.1816L 58.2031 13.1816C 58.2031 12.918 58.2959 12.6641 58.4814 12.4199C 58.6702 12.1725 58.9242 11.9772 59.2432 11.834C 59.5654 11.6908 59.9186 11.6191 60.3027 11.6191C 60.9115 11.6191 61.3883 11.7721 61.7334 12.0781C 62.0785 12.3809 62.2575 12.7992 62.2705 13.333L 62.2705 15.7646C 62.2705 16.2497 62.3324 16.6354 62.4561 16.9219L 62.4561 17L 61.5088 17ZM 60.0098 16.3115C 60.293 16.3115 60.5615 16.2383 60.8154 16.0918C 61.0693 15.9453 61.2533 15.7549 61.3672 15.5205L 61.3672 14.4365L 60.6592 14.4365C 59.5524 14.4365 58.999 14.7604 58.999 15.4082C 58.999 15.6914 59.0934 15.9128 59.2822 16.0723C 59.471 16.2318 59.7135 16.3115 60.0098 16.3115ZM 64.668 17L 63.7646 17L 63.7646 9.5L 64.668 9.5L 64.668 17ZM 20.5371 24.6943L 19.668 25.5977L 19.668 28L 18.7305 28L 18.7305 20.8906L 19.668 20.8906L 19.668 24.4062L 22.8271 20.8906L 23.96 20.8906L 21.1621 24.0303L 24.1797 28L 23.0566 28L 20.5371 24.6943ZM 25.5957 22.7168L 25.625 23.3809C 26.0286 22.873 26.556 22.6191 27.207 22.6191C 28.3236 22.6191 28.8867 23.249 28.8965 24.5088L 28.8965 28L 27.9932 28L 27.9932 24.5039C 27.9899 24.123 27.902 23.8415 27.7295 23.6592C 27.5602 23.4769 27.2949 23.3857 26.9336 23.3857C 26.6406 23.3857 26.3835 23.4639 26.1621 23.6201C 25.9408 23.7764 25.7682 23.9814 25.6445 24.2354L 25.6445 28L 24.7412 28L 24.7412 22.7168L 25.5957 22.7168ZM 30.0195 25.3096C 30.0195 24.792 30.1204 24.3265 30.3223 23.9131C 30.5273 23.4997 30.8105 23.1807 31.1719 22.9561C 31.5365 22.7314 31.9515 22.6191 32.417 22.6191C 33.1364 22.6191 33.7174 22.8682 34.1602 23.3662C 34.6061 23.8643 34.8291 24.5267 34.8291 25.3535L 34.8291 25.417C 34.8291 25.9313 34.7298 26.3936 34.5312 26.8037C 34.3359 27.2106 34.0544 27.528 33.6865 27.7559C 33.3219 27.9837 32.902 28.0977 32.4268 28.0977C 31.7106 28.0977 31.1296 27.8486 30.6836 27.3506C 30.2409 26.8525 30.0195 26.1934 30.0195 25.373L 30.0195 25.3096ZM 30.9277 25.417C 30.9277 26.0029 31.0628 26.4733 31.333 26.8281C 31.6064 27.1829 31.971 27.3604 32.4268 27.3604C 32.8857 27.3604 33.2503 27.1813 33.5205 26.8232C 33.7907 26.4619 33.9258 25.9574 33.9258 25.3096C 33.9258 24.7301 33.7874 24.2614 33.5107 23.9033C 33.2373 23.542 32.8727 23.3613 32.417 23.3613C 31.971 23.3613 31.6113 23.5387 31.3379 23.8936C 31.0645 24.2484 30.9277 24.7562 30.9277 25.417ZM 40.6396 26.7549L 41.6553 22.7168L 42.5586 22.7168L 41.0205 28L 40.2881 28L 39.0039 23.9961L 37.7539 28L 37.0215 28L 35.4883 22.7168L 36.3867 22.7168L 37.4268 26.6719L 38.6572 22.7168L 39.3848 22.7168L 40.6396 26.7549ZM 44.4629 28L 43.5596 28L 43.5596 20.5L 44.4629 20.5L 44.4629 28ZM 48.1055 28.0977C 47.3893 28.0977 46.8066 27.8633 46.3574 27.3945C 45.9082 26.9225 45.6836 26.2926 45.6836 25.5049L 45.6836 25.3389C 45.6836 24.8148 45.7829 24.3477 45.9814 23.9375C 46.1833 23.5241 46.4632 23.2018 46.8213 22.9707C 47.1826 22.7363 47.5732 22.6191 47.9932 22.6191C 48.68 22.6191 49.2139 22.8454 49.5947 23.2979C 49.9756 23.7503 50.166 24.3981 50.166 25.2412L 50.166 25.6172L 46.5869 25.6172C 46.5999 26.138 46.7513 26.5596 47.041 26.8818C 47.334 27.2008 47.7051 27.3604 48.1543 27.3604C 48.4733 27.3604 48.7435 27.2952 48.9648 27.165C 49.1862 27.0348 49.3799 26.8623 49.5459 26.6475L 50.0977 27.0771C 49.6549 27.7575 48.9909 28.0977 48.1055 28.0977ZM 47.9932 23.3613C 47.6286 23.3613 47.3226 23.4948 47.0752 23.7617C 46.8278 24.0254 46.6748 24.3965 46.6162 24.875L 49.2627 24.875L 49.2627 24.8066C 49.2367 24.3477 49.113 23.9928 48.8916 23.7422C 48.6702 23.4883 48.3708 23.3613 47.9932 23.3613ZM 50.9961 25.3145C 50.9961 24.5039 51.1882 23.8529 51.5723 23.3613C 51.9564 22.8665 52.4593 22.6191 53.0811 22.6191C 53.6995 22.6191 54.1895 22.8307 54.5508 23.2539L 54.5508 20.5L 55.4541 20.5L 55.4541 28L 54.624 28L 54.5801 27.4336C 54.2188 27.8763 53.7158 28.0977 53.0713 28.0977C 52.4593 28.0977 51.9596 27.847 51.5723 27.3457C 51.1882 26.8444 50.9961 26.1901 50.9961 25.3828L 50.9961 25.3145ZM 51.8994 25.417C 51.8994 26.016 52.0231 26.4847 52.2705 26.8232C 52.5179 27.1618 52.8597 27.3311 53.2959 27.3311C 53.8688 27.3311 54.2871 27.0739 54.5508 26.5596L 54.5508 24.1328C 54.2806 23.6348 53.8656 23.3857 53.3057 23.3857C 52.863 23.3857 52.5179 23.5566 52.2705 23.8984C 52.0231 24.2402 51.8994 24.7464 51.8994 25.417ZM 56.6455 25.3145C 56.6455 24.4909 56.8359 23.8366 57.2168 23.3516C 57.5977 22.8633 58.1022 22.6191 58.7305 22.6191C 59.375 22.6191 59.8779 22.847 60.2393 23.3027L 60.2832 22.7168L 61.1084 22.7168L 61.1084 27.873C 61.1084 28.5566 60.9049 29.0954 60.498 29.4893C 60.0944 29.8831 59.5508 30.0801 58.8672 30.0801C 58.4863 30.0801 58.1136 29.9987 57.749 29.8359C 57.3844 29.6732 57.1061 29.4502 56.9141 29.167L 57.3828 28.625C 57.7702 29.1035 58.2438 29.3428 58.8037 29.3428C 59.2432 29.3428 59.585 29.2191 59.8291 28.9717C 60.0765 28.7243 60.2002 28.376 60.2002 27.9268L 60.2002 27.4727C 59.8389 27.8893 59.3457 28.0977 58.7207 28.0977C 58.1022 28.0977 57.6009 27.8486 57.2168 27.3506C 56.8359 26.8525 56.6455 26.1738 56.6455 25.3145ZM 57.5537 25.417C 57.5537 26.0127 57.6758 26.4814 57.9199 26.8232C 58.1641 27.1618 58.5059 27.3311 58.9453 27.3311C 59.515 27.3311 59.9333 27.0723 60.2002 26.5547L 60.2002 24.1426C 59.9235 23.638 59.5085 23.3857 58.9551 23.3857C 58.5156 23.3857 58.1722 23.5566 57.9248 23.8984C 57.6774 24.2402 57.5537 24.7464 57.5537 25.417ZM 64.668 28.0977C 63.9518 28.0977 63.3691 27.8633 62.9199 27.3945C 62.4707 26.9225 62.2461 26.2926 62.2461 25.5049L 62.2461 25.3389C 62.2461 24.8148 62.3454 24.3477 62.5439 23.9375C 62.7458 23.5241 63.0257 23.2018 63.3838 22.9707C 63.7451 22.7363 64.1357 22.6191 64.5557 22.6191C 65.2425 22.6191 65.7764 22.8454 66.1572 23.2979C 66.5381 23.7503 66.7285 24.3981 66.7285 25.2412L 66.7285 25.6172L 63.1494 25.6172C 63.1624 26.138 63.3138 26.5596 63.6035 26.8818C 63.8965 27.2008 64.2676 27.3604 64.7168 27.3604C 65.0358 27.3604 65.306 27.2952 65.5273 27.165C 65.7487 27.0348 65.9424 26.8623 66.1084 26.6475L 66.6602 27.0771C 66.2174 27.7575 65.5534 28.0977 64.668 28.0977ZM 64.5557 23.3613C 64.1911 23.3613 63.8851 23.4948 63.6377 23.7617C 63.3903 24.0254 63.2373 24.3965 63.1787 24.875L 65.8252 24.875L 65.8252 24.8066C 65.7992 24.3477 65.6755 23.9928 65.4541 23.7422C 65.2327 23.4883 64.9333 23.3613 64.5557 23.3613ZM 35.2881 39.0674C 35.0472 39.4124 34.7103 39.6712 34.2773 39.8438C 33.8477 40.013 33.3464 40.0977 32.7734 40.0977C 32.194 40.0977 31.6797 39.9626 31.2305 39.6924C 30.7812 39.4189 30.4329 39.0316 30.1855 38.5303C 29.9414 38.029 29.8161 37.4479 29.8096 36.7871L 29.8096 36.167C 29.8096 35.096 30.0586 34.266 30.5566 33.6768C 31.0579 33.0876 31.7611 32.793 32.666 32.793C 33.4082 32.793 34.0055 32.9834 34.458 33.3643C 34.9105 33.7419 35.1872 34.279 35.2881 34.9756L 34.3506 34.9756C 34.1748 34.0348 33.6149 33.5645 32.6709 33.5645C 32.0426 33.5645 31.5658 33.7858 31.2402 34.2285C 30.918 34.668 30.7552 35.306 30.752 36.1426L 30.752 36.7236C 30.752 37.5212 30.9342 38.1559 31.2988 38.6279C 31.6634 39.0967 32.1566 39.3311 32.7783 39.3311C 33.1299 39.3311 33.4375 39.292 33.7012 39.2139C 33.9648 39.1357 34.1829 39.0039 34.3555 38.8184L 34.3555 37.2217L 32.71 37.2217L 32.71 36.46L 35.2881 36.46L 35.2881 39.0674ZM 39.2676 35.5273C 39.1309 35.5046 38.9827 35.4932 38.8232 35.4932C 38.2308 35.4932 37.8288 35.7454 37.6172 36.25L 37.6172 40L 36.7139 40L 36.7139 34.7168L 37.5928 34.7168L 37.6074 35.3271C 37.9036 34.8551 38.3236 34.6191 38.8672 34.6191C 39.043 34.6191 39.1764 34.6419 39.2676 34.6875L 39.2676 35.5273ZM 43.1689 40C 43.1169 39.8958 43.0745 39.7103 43.042 39.4434C 42.6221 39.8796 42.1208 40.0977 41.5381 40.0977C 41.0173 40.0977 40.5892 39.9512 40.2539 39.6582C 39.9219 39.362 39.7559 38.9876 39.7559 38.5352C 39.7559 37.985 39.9642 37.5586 40.3809 37.2559C 40.8008 36.9499 41.39 36.7969 42.1484 36.7969L 43.0273 36.7969L 43.0273 36.3818C 43.0273 36.0661 42.9329 35.8154 42.7441 35.6299C 42.5553 35.4411 42.277 35.3467 41.9092 35.3467C 41.5869 35.3467 41.3167 35.4281 41.0986 35.5908C 40.8805 35.7536 40.7715 35.9505 40.7715 36.1816L 39.8633 36.1816C 39.8633 35.918 39.9561 35.6641 40.1416 35.4199C 40.3304 35.1725 40.5843 34.9772 40.9033 34.834C 41.2256 34.6908 41.5788 34.6191 41.9629 34.6191C 42.5716 34.6191 43.0485 34.7721 43.3936 35.0781C 43.7386 35.3809 43.9176 35.7992 43.9307 36.333L 43.9307 38.7646C 43.9307 39.2497 43.9925 39.6354 44.1162 39.9219L 44.1162 40L 43.1689 40ZM 41.6699 39.3115C 41.9531 39.3115 42.2217 39.2383 42.4756 39.0918C 42.7295 38.9453 42.9134 38.7549 43.0273 38.5205L 43.0273 37.4365L 42.3193 37.4365C 41.2126 37.4365 40.6592 37.7604 40.6592 38.4082C 40.6592 38.6914 40.7536 38.9128 40.9424 39.0723C 41.1312 39.2318 41.3737 39.3115 41.6699 39.3115ZM 49.8096 37.417C 49.8096 38.221 49.6257 38.8688 49.2578 39.3604C 48.89 39.8519 48.3919 40.0977 47.7637 40.0977C 47.1224 40.0977 46.6178 39.8942 46.25 39.4873L 46.25 42.0312L 45.3467 42.0312L 45.3467 34.7168L 46.1719 34.7168L 46.2158 35.3027C 46.5837 34.847 47.0947 34.6191 47.749 34.6191C 48.3838 34.6191 48.8851 34.8584 49.2529 35.3369C 49.624 35.8154 49.8096 36.4811 49.8096 37.334L 49.8096 37.417ZM 48.9062 37.3145C 48.9062 36.7188 48.7793 36.2484 48.5254 35.9033C 48.2715 35.5583 47.9232 35.3857 47.4805 35.3857C 46.9336 35.3857 46.5234 35.6283 46.25 36.1133L 46.25 38.6377C 46.5202 39.1195 46.9336 39.3604 47.4902 39.3604C 47.9232 39.3604 48.2666 39.1895 48.5205 38.8477C 48.7777 38.5026 48.9062 37.9915 48.9062 37.3145ZM 51.8652 35.3564C 52.2656 34.8649 52.7865 34.6191 53.4277 34.6191C 54.5443 34.6191 55.1074 35.249 55.1172 36.5088L 55.1172 40L 54.2139 40L 54.2139 36.5039C 54.2106 36.123 54.1227 35.8415 53.9502 35.6592C 53.7809 35.4769 53.5156 35.3857 53.1543 35.3857C 52.8613 35.3857 52.6042 35.4639 52.3828 35.6201C 52.1615 35.7764 51.9889 35.9814 51.8652 36.2354L 51.8652 40L 50.9619 40L 50.9619 32.5L 51.8652 32.5L 51.8652 35.3564Z"/>
<path id="path11_fill" d="M 0 2C 0 0.895431 0.895431 0 2 0L 116 0C 117.105 0 118 0.895431 118 2L 118 45C 118 46.1046 117.105 47 116 47L 2 47C 0.895431 47 0 46.1046 0 45L 0 2Z"/>
<path id="path12_fill" d="M 49.707 17.0098C 49.707 17.8457 49.5664 18.5762 49.2852 19.2012C 49.0039 19.8223 48.6055 20.2969 48.0898 20.625C 47.5742 20.9531 46.9727 21.1172 46.2852 21.1172C 45.6133 21.1172 45.0176 20.9531 44.498 20.625C 43.9785 20.293 43.5742 19.8223 43.2852 19.2129C 43 18.5996 42.8535 17.8906 42.8457 17.0859L 42.8457 16.4707C 42.8457 15.6504 42.9883 14.9258 43.2734 14.2969C 43.5586 13.668 43.9609 13.1875 44.4805 12.8555C 45.0039 12.5195 45.6016 12.3516 46.2734 12.3516C 46.957 12.3516 47.5586 12.5176 48.0781 12.8496C 48.6016 13.1777 49.0039 13.6562 49.2852 14.2852C 49.5664 14.9102 49.707 15.6387 49.707 16.4707L 49.707 17.0098ZM 48.5879 16.459C 48.5879 15.4473 48.3848 14.6719 47.9785 14.1328C 47.5723 13.5898 47.0039 13.3184 46.2734 13.3184C 45.5625 13.3184 45.002 13.5898 44.5918 14.1328C 44.1855 14.6719 43.9766 15.4219 43.9648 16.3828L 43.9648 17.0098C 43.9648 17.9902 44.1699 18.7617 44.5801 19.3242C 44.9941 19.8828 45.5625 20.1621 46.2852 20.1621C 47.0117 20.1621 47.5742 19.8984 47.9727 19.3711C 48.3711 18.8398 48.5762 18.0801 48.5879 17.0918L 48.5879 16.459ZM 52.25 14.6602L 52.2852 15.457C 52.7695 14.8477 53.4023 14.543 54.1836 14.543C 55.5234 14.543 56.1992 15.2988 56.2109 16.8105L 56.2109 21L 55.127 21L 55.127 16.8047C 55.123 16.3477 55.0176 16.0098 54.8105 15.791C 54.6074 15.5723 54.2891 15.4629 53.8555 15.4629C 53.5039 15.4629 53.1953 15.5566 52.9297 15.7441C 52.6641 15.9316 52.457 16.1777 52.3086 16.4824L 52.3086 21L 51.2246 21L 51.2246 14.6602L 52.25 14.6602ZM 59.0234 21L 57.9395 21L 57.9395 12L 59.0234 12L 59.0234 21ZM 61.9414 21L 60.8574 21L 60.8574 14.6602L 61.9414 14.6602L 61.9414 21ZM 60.7695 12.9785C 60.7695 12.8027 60.8223 12.6543 60.9277 12.5332C 61.0371 12.4121 61.1973 12.3516 61.4082 12.3516C 61.6191 12.3516 61.7793 12.4121 61.8887 12.5332C 61.998 12.6543 62.0527 12.8027 62.0527 12.9785C 62.0527 13.1543 61.998 13.3008 61.8887 13.418C 61.7793 13.5352 61.6191 13.5938 61.4082 13.5938C 61.1973 13.5938 61.0371 13.5352 60.9277 13.418C 60.8223 13.3008 60.7695 13.1543 60.7695 12.9785ZM 64.707 14.6602L 64.7422 15.457C 65.2266 14.8477 65.8594 14.543 66.6406 14.543C 67.9805 14.543 68.6562 15.2988 68.668 16.8105L 68.668 21L 67.584 21L 67.584 16.8047C 67.5801 16.3477 67.4746 16.0098 67.2676 15.791C 67.0645 15.5723 66.7461 15.4629 66.3125 15.4629C 65.9609 15.4629 65.6523 15.5566 65.3867 15.7441C 65.1211 15.9316 64.9141 16.1777 64.7656 16.4824L 64.7656 21L 63.6816 21L 63.6816 14.6602L 64.707 14.6602ZM 72.9336 21.1172C 72.0742 21.1172 71.375 20.8359 70.8359 20.2734C 70.2969 19.707 70.0273 18.9512 70.0273 18.0059L 70.0273 17.8066C 70.0273 17.1777 70.1465 16.6172 70.3848 16.125C 70.627 15.6289 70.9629 15.2422 71.3926 14.9648C 71.8262 14.6836 72.2949 14.543 72.7988 14.543C 73.623 14.543 74.2637 14.8145 74.7207 15.3574C 75.1777 15.9004 75.4062 16.6777 75.4062 17.6895L 75.4062 18.1406L 71.1113 18.1406C 71.127 18.7656 71.3086 19.2715 71.6562 19.6582C 72.0078 20.041 72.4531 20.2324 72.9922 20.2324C 73.375 20.2324 73.6992 20.1543 73.9648 19.998C 74.2305 19.8418 74.4629 19.6348 74.6621 19.377L 75.3242 19.8926C 74.793 20.709 73.9961 21.1172 72.9336 21.1172ZM 72.7988 15.4336C 72.3613 15.4336 71.9941 15.5938 71.6973 15.9141C 71.4004 16.2305 71.2168 16.6758 71.1465 17.25L 74.3223 17.25L 74.3223 17.168C 74.291 16.6172 74.1426 16.1914 73.877 15.8906C 73.6113 15.5859 73.252 15.4336 72.7988 15.4336ZM 23.2695 31.6602L 23.2695 35L 22.1445 35L 22.1445 26.4688L 25.291 26.4688C 26.2246 26.4688 26.9551 26.707 27.4824 27.1836C 28.0137 27.6602 28.2793 28.291 28.2793 29.0762C 28.2793 29.9043 28.0195 30.543 27.5 30.9922C 26.9844 31.4375 26.2441 31.6602 25.2793 31.6602L 23.2695 31.6602ZM 23.2695 30.7402L 25.291 30.7402C 25.8926 30.7402 26.3535 30.5996 26.6738 30.3184C 26.9941 30.0332 27.1543 29.623 27.1543 29.0879C 27.1543 28.5801 26.9941 28.1738 26.6738 27.8691C 26.3535 27.5645 25.9141 27.4062 25.3555 27.3945L 23.2695 27.3945L 23.2695 30.7402ZM 32.2285 31.1973C 31.2637 30.9199 30.5605 30.5801 30.1191 30.1777C 29.6816 29.7715 29.4629 29.2715 29.4629 28.6777C 29.4629 28.0059 29.7305 27.4512 30.2656 27.0137C 30.8047 26.5723 31.5039 26.3516 32.3633 26.3516C 32.9492 26.3516 33.4707 26.4648 33.9277 26.6914C 34.3887 26.918 34.7441 27.2305 34.9941 27.6289C 35.248 28.0273 35.375 28.4629 35.375 28.9355L 34.2441 28.9355C 34.2441 28.4199 34.0801 28.0156 33.752 27.7227C 33.4238 27.4258 32.9609 27.2773 32.3633 27.2773C 31.8086 27.2773 31.375 27.4004 31.0625 27.6465C 30.7539 27.8887 30.5996 28.2266 30.5996 28.6602C 30.5996 29.0078 30.7461 29.3027 31.0391 29.5449C 31.3359 29.7832 31.8379 30.002 32.5449 30.2012C 33.2559 30.4004 33.8105 30.6211 34.209 30.8633C 34.6113 31.1016 34.9082 31.3809 35.0996 31.7012C 35.2949 32.0215 35.3926 32.3984 35.3926 32.832C 35.3926 33.5234 35.123 34.0781 34.584 34.4961C 34.0449 34.9102 33.3242 35.1172 32.4219 35.1172C 31.8359 35.1172 31.2891 35.0059 30.7812 34.7832C 30.2734 34.5566 29.8809 34.248 29.6035 33.8574C 29.3301 33.4668 29.1934 33.0234 29.1934 32.5273L 30.3242 32.5273C 30.3242 33.043 30.5137 33.4512 30.8926 33.752C 31.2754 34.0488 31.7852 34.1973 32.4219 34.1973C 33.0156 34.1973 33.4707 34.0762 33.7871 33.834C 34.1035 33.5918 34.2617 33.2617 34.2617 32.8438C 34.2617 32.4258 34.1152 32.1035 33.8223 31.877C 33.5293 31.6465 32.998 31.4199 32.2285 31.1973ZM 37.9707 34.0801L 42.0137 34.0801L 42.0137 35L 36.8398 35L 36.8398 26.4688L 37.9707 26.4688L 37.9707 34.0801ZM 52.8359 31.0098C 52.8359 31.8457 52.6953 32.5762 52.4141 33.2012C 52.1328 33.8223 51.7344 34.2969 51.2188 34.625C 50.7031 34.9531 50.1016 35.1172 49.4141 35.1172C 48.7422 35.1172 48.1465 34.9531 47.627 34.625C 47.1074 34.293 46.7031 33.8223 46.4141 33.2129C 46.1289 32.5996 45.9824 31.8906 45.9746 31.0859L 45.9746 30.4707C 45.9746 29.6504 46.1172 28.9258 46.4023 28.2969C 46.6875 27.668 47.0898 27.1875 47.6094 26.8555C 48.1328 26.5195 48.7305 26.3516 49.4023 26.3516C 50.0859 26.3516 50.6875 26.5176 51.207 26.8496C 51.7305 27.1777 52.1328 27.6562 52.4141 28.2852C 52.6953 28.9102 52.8359 29.6387 52.8359 30.4707L 52.8359 31.0098ZM 51.7168 30.459C 51.7168 29.4473 51.5137 28.6719 51.1074 28.1328C 50.7012 27.5898 50.1328 27.3184 49.4023 27.3184C 48.6914 27.3184 48.1309 27.5898 47.7207 28.1328C 47.3145 28.6719 47.1055 29.4219 47.0938 30.3828L 47.0938 31.0098C 47.0938 31.9902 47.2988 32.7617 47.709 33.3242C 48.123 33.8828 48.6914 34.1621 49.4141 34.1621C 50.1406 34.1621 50.7031 33.8984 51.1016 33.3711C 51.5 32.8398 51.7051 32.0801 51.7168 31.0918L 51.7168 30.459ZM 59.709 31.9004C 59.709 32.8652 59.4883 33.6426 59.0469 34.2324C 58.6055 34.8223 58.0078 35.1172 57.2539 35.1172C 56.4844 35.1172 55.8789 34.873 55.4375 34.3848L 55.4375 37.4375L 54.3535 37.4375L 54.3535 28.6602L 55.3438 28.6602L 55.3965 29.3633C 55.8379 28.8164 56.4512 28.543 57.2363 28.543C 57.998 28.543 58.5996 28.8301 59.041 29.4043C 59.4863 29.9785 59.709 30.7773 59.709 31.8008L 59.709 31.9004ZM 58.625 31.7773C 58.625 31.0625 58.4727 30.498 58.168 30.084C 57.8633 29.6699 57.4453 29.4629 56.9141 29.4629C 56.2578 29.4629 55.7656 29.7539 55.4375 30.3359L 55.4375 33.3652C 55.7617 33.9434 56.2578 34.2324 56.9258 34.2324C 57.4453 34.2324 57.8574 34.0273 58.1621 33.6172C 58.4707 33.2031 58.625 32.5898 58.625 31.7773ZM 62.5625 27.125L 62.5625 28.6602L 63.7461 28.6602L 63.7461 29.498L 62.5625 29.498L 62.5625 33.4297C 62.5625 33.6836 62.6152 33.875 62.7207 34.0039C 62.8262 34.1289 63.0059 34.1914 63.2598 34.1914C 63.3848 34.1914 63.5566 34.168 63.7754 34.1211L 63.7754 35C 63.4902 35.0781 63.2129 35.1172 62.9434 35.1172C 62.459 35.1172 62.0938 34.9707 61.8477 34.6777C 61.6016 34.3848 61.4785 33.9688 61.4785 33.4297L 61.4785 29.498L 60.3242 29.498L 60.3242 28.6602L 61.4785 28.6602L 61.4785 27.125L 62.5625 27.125ZM 66.1953 35L 65.1113 35L 65.1113 28.6602L 66.1953 28.6602L 66.1953 35ZM 65.0234 26.9785C 65.0234 26.8027 65.0762 26.6543 65.1816 26.5332C 65.291 26.4121 65.4512 26.3516 65.6621 26.3516C 65.873 26.3516 66.0332 26.4121 66.1426 26.5332C 66.252 26.6543 66.3066 26.8027 66.3066 26.9785C 66.3066 27.1543 66.252 27.3008 66.1426 27.418C 66.0332 27.5352 65.873 27.5938 65.6621 27.5938C 65.4512 27.5938 65.291 27.5352 65.1816 27.418C 65.0762 27.3008 65.0234 27.1543 65.0234 26.9785ZM 68.9551 28.6602L 68.9844 29.3633C 69.4492 28.8164 70.0762 28.543 70.8652 28.543C 71.752 28.543 72.3555 28.8828 72.6758 29.5625C 72.8867 29.2578 73.1602 29.0117 73.4961 28.8242C 73.8359 28.6367 74.2363 28.543 74.6973 28.543C 76.0879 28.543 76.7949 29.2793 76.8184 30.752L 76.8184 35L 75.7344 35L 75.7344 30.8164C 75.7344 30.3633 75.6309 30.0254 75.4238 29.8027C 75.2168 29.5762 74.8691 29.4629 74.3809 29.4629C 73.9785 29.4629 73.6445 29.584 73.3789 29.8262C 73.1133 30.0645 72.959 30.3867 72.916 30.793L 72.916 35L 71.8262 35L 71.8262 30.8457C 71.8262 29.9238 71.375 29.4629 70.4727 29.4629C 69.7617 29.4629 69.2754 29.7656 69.0137 30.3711L 69.0137 35L 67.9297 35L 67.9297 28.6602L 68.9551 28.6602ZM 79.6367 35L 78.5527 35L 78.5527 28.6602L 79.6367 28.6602L 79.6367 35ZM 78.4648 26.9785C 78.4648 26.8027 78.5176 26.6543 78.623 26.5332C 78.7324 26.4121 78.8926 26.3516 79.1035 26.3516C 79.3145 26.3516 79.4746 26.4121 79.584 26.5332C 79.6934 26.6543 79.748 26.8027 79.748 26.9785C 79.748 27.1543 79.6934 27.3008 79.584 27.418C 79.4746 27.5352 79.3145 27.5938 79.1035 27.5938C 78.8926 27.5938 78.7324 27.5352 78.623 27.418C 78.5176 27.3008 78.4648 27.1543 78.4648 26.9785ZM 82.3965 34.1152L 86.1055 34.1152L 86.1055 35L 81.0723 35L 81.0723 34.2031L 84.5703 29.5566L 81.125 29.5566L 81.125 28.6602L 85.9297 28.6602L 85.9297 29.4277L 82.3965 34.1152ZM 89.8672 35.1172C 89.0078 35.1172 88.3086 34.8359 87.7695 34.2734C 87.2305 33.707 86.9609 32.9512 86.9609 32.0059L 86.9609 31.8066C 86.9609 31.1777 87.0801 30.6172 87.3184 30.125C 87.5605 29.6289 87.8965 29.2422 88.3262 28.9648C 88.7598 28.6836 89.2285 28.543 89.7324 28.543C 90.5566 28.543 91.1973 28.8145 91.6543 29.3574C 92.1113 29.9004 92.3398 30.6777 92.3398 31.6895L 92.3398 32.1406L 88.0449 32.1406C 88.0605 32.7656 88.2422 33.2715 88.5898 33.6582C 88.9414 34.041 89.3867 34.2324 89.9258 34.2324C 90.3086 34.2324 90.6328 34.1543 90.8984 33.998C 91.1641 33.8418 91.3965 33.6348 91.5957 33.377L 92.2578 33.8926C 91.7266 34.709 90.9297 35.1172 89.8672 35.1172ZM 89.7324 29.4336C 89.2949 29.4336 88.9277 29.5938 88.6309 29.9141C 88.334 30.2305 88.1504 30.6758 88.0801 31.25L 91.2559 31.25L 91.2559 31.168C 91.2246 30.6172 91.0762 30.1914 90.8105 29.8906C 90.5449 29.5859 90.1855 29.4336 89.7324 29.4336ZM 96.6641 29.6328C 96.5 29.6055 96.3223 29.5918 96.1309 29.5918C 95.4199 29.5918 94.9375 29.8945 94.6836 30.5L 94.6836 35L 93.5996 35L 93.5996 28.6602L 94.6543 28.6602L 94.6719 29.3926C 95.0273 28.8262 95.5312 28.543 96.1836 28.543C 96.3945 28.543 96.5547 28.5703 96.6641 28.625L 96.6641 29.6328Z"/>
<path id="path13_fill" d="M 28.2383 26.8809C 27.9492 27.2949 27.5449 27.6055 27.0254 27.8125C 26.5098 28.0156 25.9082 28.1172 25.2207 28.1172C 24.5254 28.1172 23.9082 27.9551 23.3691 27.6309C 22.8301 27.3027 22.4121 26.8379 22.1152 26.2363C 21.8223 25.6348 21.6719 24.9375 21.6641 24.1445L 21.6641 23.4004C 21.6641 22.1152 21.9629 21.1191 22.5605 20.4121C 23.1621 19.7051 24.0059 19.3516 25.0918 19.3516C 25.9824 19.3516 26.6992 19.5801 27.2422 20.0371C 27.7852 20.4902 28.1172 21.1348 28.2383 21.9707L 27.1133 21.9707C 26.9023 20.8418 26.2305 20.2773 25.0977 20.2773C 24.3438 20.2773 23.7715 20.543 23.3809 21.0742C 22.9941 21.6016 22.7988 22.3672 22.7949 23.3711L 22.7949 24.0684C 22.7949 25.0254 23.0137 25.7871 23.4512 26.3535C 23.8887 26.916 24.4805 27.1973 25.2266 27.1973C 25.6484 27.1973 26.0176 27.1504 26.334 27.0566C 26.6504 26.9629 26.9121 26.8047 27.1191 26.582L 27.1191 24.666L 25.1445 24.666L 25.1445 23.752L 28.2383 23.752L 28.2383 26.8809ZM 33.0137 22.6328C 32.8496 22.6055 32.6719 22.5918 32.4805 22.5918C 31.7695 22.5918 31.2871 22.8945 31.0332 23.5L 31.0332 28L 29.9492 28L 29.9492 21.6602L 31.0039 21.6602L 31.0215 22.3926C 31.377 21.8262 31.8809 21.543 32.5332 21.543C 32.7441 21.543 32.9043 21.5703 33.0137 21.625L 33.0137 22.6328ZM 37.6953 28C 37.6328 27.875 37.582 27.6523 37.543 27.332C 37.0391 27.8555 36.4375 28.1172 35.7383 28.1172C 35.1133 28.1172 34.5996 27.9414 34.1973 27.5898C 33.7988 27.2344 33.5996 26.7852 33.5996 26.2422C 33.5996 25.582 33.8496 25.0703 34.3496 24.707C 34.8535 24.3398 35.5605 24.1562 36.4707 24.1562L 37.5254 24.1562L 37.5254 23.6582C 37.5254 23.2793 37.4121 22.9785 37.1855 22.7559C 36.959 22.5293 36.625 22.416 36.1836 22.416C 35.7969 22.416 35.4727 22.5137 35.2109 22.709C 34.9492 22.9043 34.8184 23.1406 34.8184 23.418L 33.7285 23.418C 33.7285 23.1016 33.8398 22.7969 34.0625 22.5039C 34.2891 22.207 34.5938 21.9727 34.9766 21.8008C 35.3633 21.6289 35.7871 21.543 36.248 21.543C 36.9785 21.543 37.5508 21.7266 37.9648 22.0938C 38.3789 22.457 38.5938 22.959 38.6094 23.5996L 38.6094 26.5176C 38.6094 27.0996 38.6836 27.5625 38.832 27.9062L 38.832 28L 37.6953 28ZM 35.8965 27.1738C 36.2363 27.1738 36.5586 27.0859 36.8633 26.9102C 37.168 26.7344 37.3887 26.5059 37.5254 26.2246L 37.5254 24.9238L 36.6758 24.9238C 35.3477 24.9238 34.6836 25.3125 34.6836 26.0898C 34.6836 26.4297 34.7969 26.6953 35.0234 26.8867C 35.25 27.0781 35.541 27.1738 35.8965 27.1738ZM 45.6641 24.9004C 45.6641 25.8652 45.4434 26.6426 45.002 27.2324C 44.5605 27.8223 43.9629 28.1172 43.209 28.1172C 42.4395 28.1172 41.834 27.873 41.3926 27.3848L 41.3926 30.4375L 40.3086 30.4375L 40.3086 21.6602L 41.2988 21.6602L 41.3516 22.3633C 41.793 21.8164 42.4062 21.543 43.1914 21.543C 43.9531 21.543 44.5547 21.8301 44.9961 22.4043C 45.4414 22.9785 45.6641 23.7773 45.6641 24.8008L 45.6641 24.9004ZM 44.5801 24.7773C 44.5801 24.0625 44.4277 23.498 44.123 23.084C 43.8184 22.6699 43.4004 22.4629 42.8691 22.4629C 42.2129 22.4629 41.7207 22.7539 41.3926 23.3359L 41.3926 26.3652C 41.7168 26.9434 42.2129 27.2324 42.8809 27.2324C 43.4004 27.2324 43.8125 27.0273 44.1172 26.6172C 44.4258 26.2031 44.5801 25.5898 44.5801 24.7773ZM 48.1309 22.4277C 48.6113 21.8379 49.2363 21.543 50.0059 21.543C 51.3457 21.543 52.0215 22.2988 52.0332 23.8105L 52.0332 28L 50.9492 28L 50.9492 23.8047C 50.9453 23.3477 50.8398 23.0098 50.6328 22.791C 50.4297 22.5723 50.1113 22.4629 49.6777 22.4629C 49.3262 22.4629 49.0176 22.5566 48.752 22.7441C 48.4863 22.9316 48.2793 23.1777 48.1309 23.4824L 48.1309 28L 47.0469 28L 47.0469 19L 48.1309 19L 48.1309 22.4277ZM 59.3164 24.1973C 58.3516 23.9199 57.6484 23.5801 57.207 23.1777C 56.7695 22.7715 56.5508 22.2715 56.5508 21.6777C 56.5508 21.0059 56.8184 20.4512 57.3535 20.0137C 57.8926 19.5723 58.5918 19.3516 59.4512 19.3516C 60.0371 19.3516 60.5586 19.4648 61.0156 19.6914C 61.4766 19.918 61.832 20.2305 62.082 20.6289C 62.3359 21.0273 62.4629 21.4629 62.4629 21.9355L 61.332 21.9355C 61.332 21.4199 61.168 21.0156 60.8398 20.7227C 60.5117 20.4258 60.0488 20.2773 59.4512 20.2773C 58.8965 20.2773 58.4629 20.4004 58.1504 20.6465C 57.8418 20.8887 57.6875 21.2266 57.6875 21.6602C 57.6875 22.0078 57.834 22.3027 58.127 22.5449C 58.4238 22.7832 58.9258 23.002 59.6328 23.2012C 60.3438 23.4004 60.8984 23.6211 61.2969 23.8633C 61.6992 24.1016 61.9961 24.3809 62.1875 24.7012C 62.3828 25.0215 62.4805 25.3984 62.4805 25.832C 62.4805 26.5234 62.2109 27.0781 61.6719 27.4961C 61.1328 27.9102 60.4121 28.1172 59.5098 28.1172C 58.9238 28.1172 58.377 28.0059 57.8691 27.7832C 57.3613 27.5566 56.9688 27.248 56.6914 26.8574C 56.418 26.4668 56.2812 26.0234 56.2812 25.5273L 57.4121 25.5273C 57.4121 26.043 57.6016 26.4512 57.9805 26.752C 58.3633 27.0488 58.873 27.1973 59.5098 27.1973C 60.1035 27.1973 60.5586 27.0762 60.875 26.834C 61.1914 26.5918 61.3496 26.2617 61.3496 25.8438C 61.3496 25.4258 61.2031 25.1035 60.9102 24.877C 60.6172 24.6465 60.0859 24.4199 59.3164 24.1973ZM 65.2285 20.125L 65.2285 21.6602L 66.4121 21.6602L 66.4121 22.498L 65.2285 22.498L 65.2285 26.4297C 65.2285 26.6836 65.2812 26.875 65.3867 27.0039C 65.4922 27.1289 65.6719 27.1914 65.9258 27.1914C 66.0508 27.1914 66.2227 27.168 66.4414 27.1211L 66.4414 28C 66.1562 28.0781 65.8789 28.1172 65.6094 28.1172C 65.125 28.1172 64.7598 27.9707 64.5137 27.6777C 64.2676 27.3848 64.1445 26.9688 64.1445 26.4297L 64.1445 22.498L 62.9902 22.498L 62.9902 21.6602L 64.1445 21.6602L 64.1445 20.125L 65.2285 20.125ZM 67.2793 24.7715C 67.2793 24.1504 67.4004 23.5918 67.6426 23.0957C 67.8887 22.5996 68.2285 22.2168 68.6621 21.9473C 69.0996 21.6777 69.5977 21.543 70.1562 21.543C 71.0195 21.543 71.7168 21.8418 72.248 22.4395C 72.7832 23.0371 73.0508 23.832 73.0508 24.8242L 73.0508 24.9004C 73.0508 25.5176 72.9316 26.0723 72.6934 26.5645C 72.459 27.0527 72.1211 27.4336 71.6797 27.707C 71.2422 27.9805 70.7383 28.1172 70.168 28.1172C 69.3086 28.1172 68.6113 27.8184 68.0762 27.2207C 67.5449 26.623 67.2793 25.832 67.2793 24.8477L 67.2793 24.7715ZM 68.3691 24.9004C 68.3691 25.6035 68.5312 26.168 68.8555 26.5938C 69.1836 27.0195 69.6211 27.2324 70.168 27.2324C 70.7188 27.2324 71.1562 27.0176 71.4805 26.5879C 71.8047 26.1543 71.9668 25.5488 71.9668 24.7715C 71.9668 24.0762 71.8008 23.5137 71.4688 23.084C 71.1406 22.6504 70.7031 22.4336 70.1562 22.4336C 69.6211 22.4336 69.1895 22.6465 68.8613 23.0723C 68.5332 23.498 68.3691 24.1074 68.3691 24.9004ZM 77.4746 22.6328C 77.3105 22.6055 77.1328 22.5918 76.9414 22.5918C 76.2305 22.5918 75.748 22.8945 75.4941 23.5L 75.4941 28L 74.4102 28L 74.4102 21.6602L 75.4648 21.6602L 75.4824 22.3926C 75.8379 21.8262 76.3418 21.543 76.9941 21.543C 77.2051 21.543 77.3652 21.5703 77.4746 21.625L 77.4746 22.6328ZM 82.1562 28C 82.0938 27.875 82.043 27.6523 82.0039 27.332C 81.5 27.8555 80.8984 28.1172 80.1992 28.1172C 79.5742 28.1172 79.0605 27.9414 78.6582 27.5898C 78.2598 27.2344 78.0605 26.7852 78.0605 26.2422C 78.0605 25.582 78.3105 25.0703 78.8105 24.707C 79.3145 24.3398 80.0215 24.1562 80.9316 24.1562L 81.9863 24.1562L 81.9863 23.6582C 81.9863 23.2793 81.873 22.9785 81.6465 22.7559C 81.4199 22.5293 81.0859 22.416 80.6445 22.416C 80.2578 22.416 79.9336 22.5137 79.6719 22.709C 79.4102 22.9043 79.2793 23.1406 79.2793 23.418L 78.1895 23.418C 78.1895 23.1016 78.3008 22.7969 78.5234 22.5039C 78.75 22.207 79.0547 21.9727 79.4375 21.8008C 79.8242 21.6289 80.248 21.543 80.709 21.543C 81.4395 21.543 82.0117 21.7266 82.4258 22.0938C 82.8398 22.457 83.0547 22.959 83.0703 23.5996L 83.0703 26.5176C 83.0703 27.0996 83.1445 27.5625 83.293 27.9062L 83.293 28L 82.1562 28ZM 80.3574 27.1738C 80.6973 27.1738 81.0195 27.0859 81.3242 26.9102C 81.6289 26.7344 81.8496 26.5059 81.9863 26.2246L 81.9863 24.9238L 81.1367 24.9238C 79.8086 24.9238 79.1445 25.3125 79.1445 26.0898C 79.1445 26.4297 79.2578 26.6953 79.4844 26.8867C 79.7109 27.0781 80.002 27.1738 80.3574 27.1738ZM 84.5117 24.7773C 84.5117 23.7891 84.7402 23.0039 85.1973 22.4219C 85.6543 21.8359 86.2598 21.543 87.0137 21.543C 87.7871 21.543 88.3906 21.8164 88.8242 22.3633L 88.877 21.6602L 89.8672 21.6602L 89.8672 27.8477C 89.8672 28.668 89.623 29.3145 89.1348 29.7871C 88.6504 30.2598 87.998 30.4961 87.1777 30.4961C 86.7207 30.4961 86.2734 30.3984 85.8359 30.2031C 85.3984 30.0078 85.0645 29.7402 84.834 29.4004L 85.3965 28.75C 85.8613 29.3242 86.4297 29.6113 87.1016 29.6113C 87.6289 29.6113 88.0391 29.4629 88.332 29.166C 88.6289 28.8691 88.7773 28.4512 88.7773 27.9121L 88.7773 27.3672C 88.3438 27.8672 87.752 28.1172 87.002 28.1172C 86.2598 28.1172 85.6582 27.8184 85.1973 27.2207C 84.7402 26.623 84.5117 25.8086 84.5117 24.7773ZM 85.6016 24.9004C 85.6016 25.6152 85.748 26.1777 86.041 26.5879C 86.334 26.9941 86.7441 27.1973 87.2715 27.1973C 87.9551 27.1973 88.457 26.8867 88.7773 26.2656L 88.7773 23.3711C 88.4453 22.7656 87.9473 22.4629 87.2832 22.4629C 86.7559 22.4629 86.3438 22.668 86.0469 23.0781C 85.75 23.4883 85.6016 24.0957 85.6016 24.9004ZM 94.1387 28.1172C 93.2793 28.1172 92.5801 27.8359 92.041 27.2734C 91.502 26.707 91.2324 25.9512 91.2324 25.0059L 91.2324 24.8066C 91.2324 24.1777 91.3516 23.6172 91.5898 23.125C 91.832 22.6289 92.168 22.2422 92.5977 21.9648C 93.0312 21.6836 93.5 21.543 94.0039 21.543C 94.8281 21.543 95.4688 21.8145 95.9258 22.3574C 96.3828 22.9004 96.6113 23.6777 96.6113 24.6895L 96.6113 25.1406L 92.3164 25.1406C 92.332 25.7656 92.5137 26.2715 92.8613 26.6582C 93.2129 27.041 93.6582 27.2324 94.1973 27.2324C 94.5801 27.2324 94.9043 27.1543 95.1699 26.998C 95.4355 26.8418 95.668 26.6348 95.8672 26.377L 96.5293 26.8926C 95.998 27.709 95.2012 28.1172 94.1387 28.1172ZM 94.0039 22.4336C 93.5664 22.4336 93.1992 22.5938 92.9023 22.9141C 92.6055 23.2305 92.4219 23.6758 92.3516 24.25L 95.5273 24.25L 95.5273 24.168C 95.4961 23.6172 95.3477 23.1914 95.082 22.8906C 94.8164 22.5859 94.457 22.4336 94.0039 22.4336Z"/>
</defs>
</svg>
