<svg width="418" height="302" viewBox="0 0 418 302" version="1.1" xmlns="http://www.w3.org/2000/svg" xmlns:xlink="http://www.w3.org/1999/xlink">
<title>conceptGraphExample1</title>
<desc>Created using Figma</desc>
<g id="Canvas" transform="translate(-540 0)">
<clipPath id="clip-0" clip-rule="evenodd">
<path d="M 540 0L 958 0L 958 302L 540 302L 540 0Z" fill="#FFFFFF"/>
</clipPath>
<g id="conceptGraphExample1" clip-path="url(#clip-0)">
<g id="P">
<use xlink:href="#path0_fill" transform="translate(611 54)"/>
</g>
<g id="R">
<use xlink:href="#path1_fill" transform="translate(841 54)"/>
</g>
<g id="Rectangle (Stroke)">
<use xlink:href="#path2_fill" transform="translate(564 27)"/>
</g>
<g id="Rectangle (Stroke)">
<use xlink:href="#path3_fill" transform="translate(540 0)"/>
</g>
<g id="Rectangle (Stroke)">
<use xlink:href="#path2_fill" transform="translate(794 27)"/>
</g>
<g id="Rectangle 2 (Stroke)">
<use xlink:href="#path4_fill" transform="translate(591 54)"/>
</g>
<g id="a">
<use xlink:href="#path5_fill" transform="translate(729 212)"/>
</g>
<g id="Rectangle 2 (Stroke)">
<use xlink:href="#path6_fill" transform="translate(706 216)"/>
</g>
<g id="Rectangle 2 (Stroke)">
<use xlink:href="#path4_fill" transform="translate(821 54)"/>
</g>
<g id="Line">
<use xlink:href="#path7_stroke" transform="translate(792 139)"/>
</g>
<g id="Line">
<use xlink:href="#path7_stroke" transform="matrix(-1 0 0 1 706 139)"/>
</g>
</g>
</g>
<defs>
<path id="path0_fill" d="M 12.6914 46.9609L 12.6914 67L 5.94141 67L 5.94141 15.8125L 24.8203 15.8125C 30.4219 15.8125 34.8047 17.2422 37.9688 20.1016C 41.1562 22.9609 42.75 26.7461 42.75 31.457C 42.75 36.4258 41.1914 40.2578 38.0742 42.9531C 34.9805 45.625 30.5391 46.9609 24.75 46.9609L 12.6914 46.9609ZM 12.6914 41.4414L 24.8203 41.4414C 28.4297 41.4414 31.1953 40.5977 33.1172 38.9102C 35.0391 37.1992 36 34.7383 36 31.5273C 36 28.4805 35.0391 26.043 33.1172 24.2148C 31.1953 22.3867 28.5586 21.4375 25.207 21.3672L 12.6914 21.3672L 12.6914 41.4414Z"/>
<path id="path1_fill" d="M 24.7148 46.293L 12.6914 46.293L 12.6914 67L 5.90625 67L 5.90625 15.8125L 22.8516 15.8125C 28.6172 15.8125 33.0469 17.125 36.1406 19.75C 39.2578 22.375 40.8164 26.1953 40.8164 31.2109C 40.8164 34.3984 39.9492 37.1758 38.2148 39.543C 36.5039 41.9102 34.1133 43.6797 31.043 44.8516L 43.0664 66.5781L 43.0664 67L 35.8242 67L 24.7148 46.293ZM 12.6914 40.7734L 23.0625 40.7734C 26.4141 40.7734 29.0742 39.9062 31.043 38.1719C 33.0352 36.4375 34.0312 34.1172 34.0312 31.2109C 34.0312 28.0469 33.082 25.6211 31.1836 23.9336C 29.3086 22.2461 26.5898 21.3906 23.0273 21.3672L 12.6914 21.3672L 12.6914 40.7734Z"/>
<path id="path2_fill" fill-rule="evenodd" d="M 120 7L 20 7C 12.8203 7 7 12.8203 7 20L 7 120C 7 127.18 12.8203 133 20 133L 120 133C 127.18 133 133 127.18 133 120L 133 20C 133 12.8203 127.18 7 120 7ZM 20 0C 8.9543 0 0 8.9543 0 20L 0 120C 0 131.046 8.9543 140 20 140L 120 140C 131.046 140 140 131.046 140 120L 140 20C 140 8.9543 131.046 0 120 0L 20 0Z"/>
<path id="path3_fill" fill-rule="evenodd" d="M 398 7L 20 7C 12.8203 7 7 12.8203 7 20L 7 174C 7 181.18 12.8203 187 20 187L 398 187C 405.18 187 411 181.18 411 174L 411 20C 411 12.8203 405.18 7 398 7ZM 20 0C 8.9543 0 0 8.9543 0 20L 0 174C 0 185.046 8.9543 194 20 194L 398 194C 409.046 194 418 185.046 418 174L 418 20C 418 8.9543 409.046 0 398 0L 20 0Z"/>
<path id="path4_fill" fill-rule="evenodd" d="M 43 2C 20.3563 2 2 20.3563 2 43C 2 65.6437 20.3563 84 43 84C 65.6437 84 84 65.6437 84 43C 84 20.3563 65.6437 2 43 2ZM 43 0C 19.2518 0 0 19.2518 0 43C 0 66.7482 19.2518 86 43 86C 66.7482 86 86 66.7482 86 43C 86 19.2518 66.7482 0 43 0Z"/>
<path id="path5_fill" d="M 28.8242 67C 28.4492 66.25 28.1445 64.9141 27.9102 62.9922C 24.8867 66.1328 21.2773 67.7031 17.082 67.7031C 13.332 67.7031 10.25 66.6484 7.83594 64.5391C 5.44531 62.4062 4.25 59.7109 4.25 56.4531C 4.25 52.4922 5.75 49.4219 8.75 47.2422C 11.7734 45.0391 16.0156 43.9375 21.4766 43.9375L 27.8047 43.9375L 27.8047 40.9492C 27.8047 38.6758 27.125 36.8711 25.7656 35.5352C 24.4062 34.1758 22.4023 33.4961 19.7539 33.4961C 17.4336 33.4961 15.4883 34.082 13.918 35.2539C 12.3477 36.4258 11.5625 37.8438 11.5625 39.5078L 5.02344 39.5078C 5.02344 37.6094 5.69141 35.7812 7.02734 34.0234C 8.38672 32.2422 10.2148 30.8359 12.5117 29.8047C 14.832 28.7734 17.375 28.2578 20.1406 28.2578C 24.5234 28.2578 27.957 29.3594 30.4414 31.5625C 32.9258 33.7422 34.2148 36.7539 34.3086 40.5977L 34.3086 58.1055C 34.3086 61.5977 34.7539 64.375 35.6445 66.4375L 35.6445 67L 28.8242 67ZM 18.0312 62.043C 20.0703 62.043 22.0039 61.5156 23.832 60.4609C 25.6602 59.4062 26.9844 58.0352 27.8047 56.3477L 27.8047 48.543L 22.707 48.543C 14.7383 48.543 10.7539 50.875 10.7539 55.5391C 10.7539 57.5781 11.4336 59.1719 12.793 60.3203C 14.1523 61.4688 15.8984 62.043 18.0312 62.043Z"/>
<path id="path6_fill" fill-rule="evenodd" d="M 84 2L 2 2L 2 84L 84 84L 84 2ZM 2 0L 0 0L 0 2L 0 84L 0 86L 2 86L 84 86L 86 86L 86 84L 86 2L 86 0L 84 0L 2 0Z"/>
<path id="path7_stroke" d="M 72 122L 72 123L 73 123L 73 122L 72 122ZM 71 0L 71 122L 73 122L 73 0L 71 0ZM 72 121L 0 121L 0 123L 72 123L 72 121Z"/>
</defs>
</svg>
