<svg width="903" height="280" viewBox="0 0 903 280" version="1.1" xmlns="http://www.w3.org/2000/svg" xmlns:xlink="http://www.w3.org/1999/xlink">
<title>depParseExample1</title>
<desc>Created using Figma</desc>
<g id="Canvas" transform="translate(0 -341)">
<clipPath id="clip-0" clip-rule="evenodd">
<path d="M 0 341L 903 341L 903 621L 0 621L 0 341Z" fill="#FFFFFF"/>
</clipPath>
<g id="depParseExample1" clip-path="url(#clip-0)">
<path d="M 0 341L 903 341L 903 621L 0 621L 0 341Z" fill="#FFFFFF"/>
<g id="Today">
<use xlink:href="#path0_fill" transform="translate(4 435)" fill="#3BB335"/>
</g>
<g id="adverbial modifier">
<use xlink:href="#path1_fill" transform="translate(183 341)" fill="#3BB335"/>
</g>
<g id="object">
<use xlink:href="#path2_fill" transform="translate(680 352)" fill="#B33535"/>
</g>
<g id="auxiliary">
<use xlink:href="#path3_fill" transform="translate(377 519)"/>
</g>
<g id="subject">
<use xlink:href="#path4_fill" transform="translate(383 577)" fill="#355FB3"/>
</g>
<g id="I">
<use xlink:href="#path5_fill" transform="translate(238 435)" fill="#355FB3"/>
</g>
<g id="&#226;&#128;&#152;m">
<use xlink:href="#path6_fill" transform="translate(356 435)"/>
</g>
<g id="testing">
<use xlink:href="#path7_fill" transform="translate(512 435)"/>
</g>
<g id="myself">
<use xlink:href="#path8_fill" transform="translate(763 435)" fill="#B33535"/>
</g>
<g id="Vector">
<use xlink:href="#path9_stroke" transform="translate(96 385)" fill="#3BB335"/>
</g>
<g id="Vector">
<use xlink:href="#path10_stroke" transform="matrix(-1 0 0 1 847 399)" fill="#B33535"/>
</g>
<g id="Vector">
<use xlink:href="#path11_stroke" transform="matrix(1 0 0 -1 385 519)"/>
</g>
<g id="Vector">
<use xlink:href="#path12_stroke" transform="matrix(1 0 0 -1 252 577)" fill="#355FB3"/>
</g>
</g>
</g>
<defs>
<path id="path0_fill" d="M 27.888 14.792L 27.888 22.184L 25.248 22.184L 24.576 17.72L 23.904 17L 16.512 17L 16.512 44.12L 17.376 44.792L 20.592 45.032L 20.592 47L 8.064 47L 8.064 45.032L 11.28 44.792L 12.144 44.12L 12.144 17L 4.752 17L 4.08 17.72L 3.408 22.184L 0.768 22.184L 0.768 14.792L 27.888 14.792ZM 41.5526 23.432C 43.1846 23.432 44.6726 23.736 46.0166 24.344C 47.3926 24.92 48.5766 25.736 49.5686 26.792C 50.5606 27.848 51.3286 29.112 51.8726 30.584C 52.4486 32.056 52.7366 33.672 52.7366 35.432C 52.7366 37.224 52.4486 38.856 51.8726 40.328C 51.3286 41.8 50.5606 43.064 49.5686 44.12C 48.5766 45.176 47.3926 45.992 46.0166 46.568C 44.6406 47.144 43.1526 47.432 41.5526 47.432C 39.9526 47.432 38.4646 47.144 37.0886 46.568C 35.7446 45.992 34.5766 45.176 33.5846 44.12C 32.5926 43.064 31.8086 41.8 31.2326 40.328C 30.6886 38.856 30.4166 37.224 30.4166 35.432C 30.4166 33.64 30.6886 32.008 31.2326 30.536C 31.8086 29.064 32.5766 27.8 33.5366 26.744C 34.5286 25.688 35.6966 24.872 37.0406 24.296C 38.4166 23.72 39.9206 23.432 41.5526 23.432ZM 41.5526 25.496C 39.6006 25.496 38.0006 26.376 36.7526 28.136C 35.5366 29.864 34.9286 32.296 34.9286 35.432C 34.9286 36.968 35.0886 38.36 35.4086 39.608C 35.7606 40.824 36.2246 41.864 36.8006 42.728C 37.3766 43.592 38.0646 44.248 38.8646 44.696C 39.6966 45.144 40.5926 45.368 41.5526 45.368C 43.5046 45.368 45.1046 44.504 46.3526 42.776C 47.6006 41.016 48.2246 38.568 48.2246 35.432C 48.2246 32.328 47.6006 29.896 46.3526 28.136C 45.1046 26.376 43.5046 25.496 41.5526 25.496ZM 69.2036 14.888L 69.2036 13.4L 75.0596 11.672L 76.8836 11.672L 76.8836 44.264L 77.6996 45.032L 80.0036 45.272L 80.0036 47L 72.8996 47L 72.8996 44.504C 71.6836 45.496 70.4836 46.232 69.2996 46.712C 68.1156 47.192 66.8516 47.432 65.5076 47.432C 64.1956 47.432 62.9796 47.16 61.8596 46.616C 60.7396 46.072 59.7636 45.32 58.9316 44.36C 58.0996 43.368 57.4436 42.184 56.9636 40.808C 56.4836 39.432 56.2436 37.896 56.2436 36.2C 56.2436 34.28 56.5476 32.536 57.1556 30.968C 57.7636 29.4 58.6116 28.056 59.6996 26.936C 60.7876 25.784 62.0836 24.904 63.5876 24.296C 65.1236 23.688 66.8036 23.384 68.6276 23.384C 69.9076 23.384 71.3316 23.56 72.8996 23.912L 72.8996 14.888L 69.2036 14.888ZM 72.8996 26.264C 72.0676 26.008 71.2996 25.816 70.5956 25.688C 69.8916 25.56 69.2516 25.496 68.6756 25.496C 67.4596 25.496 66.3396 25.736 65.3156 26.216C 64.3236 26.664 63.4596 27.32 62.7236 28.184C 62.0196 29.048 61.4596 30.088 61.0436 31.304C 60.6596 32.52 60.4676 33.88 60.4676 35.384C 60.4676 38.2 61.1236 40.408 62.4356 42.008C 63.7476 43.608 65.4916 44.408 67.6676 44.408C 69.3636 44.408 71.1076 43.848 72.8996 42.728L 72.8996 26.264ZM 97.6882 44.216C 96.1522 45.24 94.7442 46.024 93.4642 46.568C 92.1842 47.08 90.9682 47.336 89.8162 47.336C 87.8962 47.336 86.3922 46.776 85.3042 45.656C 84.2163 44.504 83.6723 43.016 83.6723 41.192C 83.6723 39.944 83.9442 38.904 84.4882 38.072C 85.0642 37.208 85.9283 36.456 87.0803 35.816C 88.2323 35.176 89.6882 34.6 91.4483 34.088C 93.2083 33.576 95.2882 33.032 97.6882 32.456L 97.6882 30.92C 97.6882 29 97.3843 27.624 96.7763 26.792C 96.1683 25.96 95.0002 25.544 93.2722 25.544C 92.0883 25.544 90.8723 25.8 89.6243 26.312L 89.6243 30.344L 86.3123 30.344C 85.7683 30.344 85.3843 30.248 85.1603 30.056C 84.9363 29.832 84.8243 29.432 84.8243 28.856C 84.8243 28.12 85.0483 27.432 85.4963 26.792C 85.9442 26.12 86.5843 25.544 87.4163 25.064C 88.2482 24.552 89.2562 24.152 90.4402 23.864C 91.6562 23.576 93.0162 23.432 94.5203 23.432C 97.0483 23.432 98.8722 23.976 99.9922 25.064C 101.112 26.152 101.672 27.912 101.672 30.344L 101.672 44.264L 102.536 45.032L 105.08 45.272L 105.08 47L 98.3123 47L 97.6882 44.216ZM 97.6882 34.136C 95.9922 34.616 94.5203 35.064 93.2722 35.48C 92.0563 35.896 91.0482 36.36 90.2482 36.872C 89.4483 37.352 88.8563 37.912 88.4723 38.552C 88.0883 39.192 87.8962 39.944 87.8962 40.808C 87.8962 41.992 88.2323 42.952 88.9043 43.688C 89.5763 44.392 90.5203 44.744 91.7362 44.744C 92.5362 44.744 93.4163 44.568 94.3762 44.216C 95.3683 43.832 96.4722 43.288 97.6882 42.584L 97.6882 34.136ZM 116.352 23.912L 116.352 25.688L 113.808 25.88L 113.232 26.648L 118.992 41.576L 124.992 26.648L 124.608 25.88L 122.016 25.688L 122.016 23.912L 130.56 23.912L 130.56 25.688L 127.776 26.072L 118.176 49.4C 117.056 52.12 115.888 54.136 114.672 55.448C 113.456 56.792 112.064 57.464 110.496 57.464C 109.472 57.464 108.656 57.208 108.048 56.696C 107.472 56.216 107.184 55.576 107.184 54.776C 107.184 53.816 107.6 52.952 108.432 52.184L 113.04 54.008C 113.68 53.304 114.336 52.36 115.008 51.176C 115.68 49.992 116.32 48.536 116.928 46.808L 108.864 25.976L 105.936 25.688L 105.936 23.912L 116.352 23.912Z"/>
<path id="path1_fill" d="M 12.5142 32.912C 11.3622 33.68 10.3062 34.268 9.34623 34.676C 8.38623 35.06 7.47423 35.252 6.61023 35.252C 5.17023 35.252 4.04223 34.832 3.22623 33.992C 2.41023 33.128 2.00223 32.012 2.00223 30.644C 2.00223 29.708 2.20623 28.928 2.61423 28.304C 3.04623 27.656 3.69423 27.092 4.55823 26.612C 5.42223 26.132 6.51423 25.7 7.83423 25.316C 9.15423 24.932 10.7142 24.524 12.5142 24.092L 12.5142 22.94C 12.5142 21.5 12.2862 20.468 11.8302 19.844C 11.3742 19.22 10.4982 18.908 9.20223 18.908C 8.31423 18.908 7.40223 19.1 6.46623 19.484L 6.46623 22.508L 3.98223 22.508C 3.57423 22.508 3.28623 22.436 3.11823 22.292C 2.95023 22.124 2.86623 21.824 2.86623 21.392C 2.86623 20.84 3.03423 20.324 3.37023 19.844C 3.70623 19.34 4.18623 18.908 4.81023 18.548C 5.43423 18.164 6.19023 17.864 7.07823 17.648C 7.99023 17.432 9.01023 17.324 10.1382 17.324C 12.0342 17.324 13.4022 17.732 14.2422 18.548C 15.0822 19.364 15.5022 20.684 15.5022 22.508L 15.5022 32.948L 16.1502 33.524L 18.0582 33.704L 18.0582 35L 12.9822 35L 12.5142 32.912ZM 12.5142 25.352C 11.2422 25.712 10.1382 26.048 9.20223 26.36C 8.29023 26.672 7.53423 27.02 6.93423 27.404C 6.33423 27.764 5.89023 28.184 5.60223 28.664C 5.31423 29.144 5.17023 29.708 5.17023 30.356C 5.17023 31.244 5.42223 31.964 5.92623 32.516C 6.43023 33.044 7.13823 33.308 8.05023 33.308C 8.65023 33.308 9.31023 33.176 10.0302 32.912C 10.7742 32.624 11.6022 32.216 12.5142 31.688L 12.5142 25.352ZM 29.7523 10.916L 29.7523 9.8L 34.1443 8.504L 35.5123 8.504L 35.5123 32.948L 36.1243 33.524L 37.8523 33.704L 37.8523 35L 32.5243 35L 32.5243 33.128C 31.6123 33.872 30.7123 34.424 29.8243 34.784C 28.9363 35.144 27.9883 35.324 26.9803 35.324C 25.9963 35.324 25.0843 35.12 24.2443 34.712C 23.4043 34.304 22.6723 33.74 22.0483 33.02C 21.4243 32.276 20.9323 31.388 20.5723 30.356C 20.2123 29.324 20.0323 28.172 20.0323 26.9C 20.0323 25.46 20.2603 24.152 20.7163 22.976C 21.1723 21.8 21.8083 20.792 22.6243 19.952C 23.4403 19.088 24.4123 18.428 25.5403 17.972C 26.6923 17.516 27.9523 17.288 29.3203 17.288C 30.2803 17.288 31.3483 17.42 32.5243 17.684L 32.5243 10.916L 29.7523 10.916ZM 32.5243 19.448C 31.9003 19.256 31.3243 19.112 30.7963 19.016C 30.2683 18.92 29.7883 18.872 29.3563 18.872C 28.4443 18.872 27.6043 19.052 26.8363 19.412C 26.0923 19.748 25.4443 20.24 24.8923 20.888C 24.3643 21.536 23.9443 22.316 23.6323 23.228C 23.3443 24.14 23.2003 25.16 23.2003 26.288C 23.2003 28.4 23.6923 30.056 24.6763 31.256C 25.6603 32.456 26.9683 33.056 28.6003 33.056C 29.8723 33.056 31.1803 32.636 32.5243 31.796L 32.5243 19.448ZM 46.7238 17.684L 46.7238 19.016L 44.8158 19.16L 44.3838 19.736L 48.5958 31.508L 53.2038 19.736L 52.9158 19.16L 50.9718 19.016L 50.9718 17.684L 57.3438 17.684L 57.3438 19.016L 55.2198 19.304L 48.9198 35L 46.9038 35L 41.1078 19.232L 38.9118 19.016L 38.9118 17.684L 46.7238 17.684ZM 73.0089 33.164C 71.9289 33.884 70.8129 34.424 69.6609 34.784C 68.5329 35.144 67.3929 35.324 66.2409 35.324C 65.0409 35.324 63.9489 35.108 62.9649 34.676C 61.9809 34.244 61.1409 33.644 60.4449 32.876C 59.7489 32.108 59.1969 31.184 58.7889 30.104C 58.4049 29 58.2129 27.788 58.2129 26.468C 58.2129 25.1 58.4169 23.864 58.8249 22.76C 59.2329 21.632 59.8089 20.672 60.5529 19.88C 61.2969 19.064 62.1729 18.44 63.1809 18.008C 64.2129 17.552 65.3289 17.324 66.5289 17.324C 68.4969 17.324 70.0689 17.948 71.2449 19.196C 72.4209 20.444 73.0089 22.184 73.0089 24.416C 73.0089 24.608 73.0089 24.8 73.0089 24.992C 73.0089 25.16 72.9969 25.34 72.9729 25.532L 61.3089 25.532L 61.3089 25.928C 61.3089 28.256 61.8609 30.068 62.9649 31.364C 64.0689 32.636 65.5329 33.272 67.3569 33.272C 68.2689 33.272 69.1809 33.104 70.0929 32.768C 71.0049 32.408 71.9769 31.88 73.0089 31.184L 73.0089 33.164ZM 69.8049 23.444C 69.8049 21.98 69.4809 20.864 68.8329 20.096C 68.2089 19.328 67.2849 18.944 66.0609 18.944C 65.4849 18.944 64.9329 19.064 64.4049 19.304C 63.8769 19.544 63.3969 19.892 62.9649 20.348C 62.5569 20.78 62.2209 21.308 61.9569 21.932C 61.6929 22.556 61.5369 23.252 61.4889 24.02L 69.8049 24.02L 69.8049 23.444ZM 75.6445 33.704L 77.5525 33.524L 78.2005 32.948L 78.2005 19.916L 75.6445 19.916L 75.6445 18.8L 79.8205 17.504L 81.1885 17.504L 81.1885 20.888C 81.8125 20.24 82.4485 19.628 83.0965 19.052C 83.7445 18.476 84.3925 17.924 85.0405 17.396C 85.1845 17.348 85.3285 17.324 85.4725 17.324C 85.6405 17.324 85.7965 17.324 85.9405 17.324C 86.6605 17.324 87.3805 17.48 88.1005 17.792L 88.1005 20.888L 86.9485 20.888C 86.4685 20.312 85.8565 20.024 85.1125 20.024C 83.9845 20.024 82.6765 20.9 81.1885 22.652L 81.1885 32.948L 81.8005 33.524L 84.3205 33.704L 84.3205 35L 75.6445 35L 75.6445 33.704ZM 94.3945 8.504L 94.3945 18.584C 96.1465 17.744 97.7905 17.324 99.3265 17.324C 100.383 17.324 101.343 17.528 102.207 17.936C 103.095 18.32 103.851 18.872 104.475 19.592C 105.099 20.312 105.579 21.176 105.915 22.184C 106.275 23.192 106.455 24.308 106.455 25.532C 106.455 28.652 105.579 31.016 103.827 32.624C 102.075 34.208 99.4705 35 96.0145 35L 91.4065 35L 91.4065 10.916L 88.5985 10.916L 88.5985 9.8L 93.0265 8.504L 94.3945 8.504ZM 94.3945 33.344C 94.9465 33.368 95.3905 33.38 95.7265 33.38C 96.0625 33.38 96.2785 33.38 96.3745 33.38C 98.7265 33.38 100.455 32.816 101.559 31.688C 102.663 30.536 103.215 28.712 103.215 26.216C 103.215 23.96 102.723 22.232 101.739 21.032C 100.755 19.832 99.3625 19.232 97.5625 19.232C 97.1065 19.232 96.6145 19.28 96.0865 19.376C 95.5585 19.472 94.9945 19.616 94.3945 19.808L 94.3945 33.344ZM 113.261 9.512C 113.837 9.512 114.329 9.716 114.737 10.124C 115.145 10.532 115.349 11.024 115.349 11.6C 115.349 12.176 115.145 12.668 114.737 13.076C 114.329 13.46 113.837 13.652 113.261 13.652C 112.685 13.652 112.193 13.46 111.785 13.076C 111.377 12.668 111.173 12.176 111.173 11.6C 111.173 11 111.377 10.508 111.785 10.124C 112.193 9.716 112.685 9.512 113.261 9.512ZM 114.485 17.504L 114.485 32.948L 115.133 33.524L 117.077 33.704L 117.077 35L 108.977 35L 108.977 33.704L 110.885 33.524L 111.497 32.948L 111.497 19.916L 108.977 19.916L 108.977 18.8L 113.117 17.504L 114.485 17.504ZM 129.831 32.912C 128.679 33.68 127.623 34.268 126.663 34.676C 125.703 35.06 124.791 35.252 123.927 35.252C 122.487 35.252 121.359 34.832 120.543 33.992C 119.727 33.128 119.319 32.012 119.319 30.644C 119.319 29.708 119.523 28.928 119.931 28.304C 120.363 27.656 121.011 27.092 121.875 26.612C 122.739 26.132 123.831 25.7 125.151 25.316C 126.471 24.932 128.031 24.524 129.831 24.092L 129.831 22.94C 129.831 21.5 129.603 20.468 129.147 19.844C 128.691 19.22 127.815 18.908 126.519 18.908C 125.631 18.908 124.719 19.1 123.783 19.484L 123.783 22.508L 121.299 22.508C 120.891 22.508 120.603 22.436 120.435 22.292C 120.267 22.124 120.183 21.824 120.183 21.392C 120.183 20.84 120.351 20.324 120.687 19.844C 121.023 19.34 121.503 18.908 122.127 18.548C 122.751 18.164 123.507 17.864 124.395 17.648C 125.307 17.432 126.327 17.324 127.455 17.324C 129.351 17.324 130.719 17.732 131.559 18.548C 132.399 19.364 132.819 20.684 132.819 22.508L 132.819 32.948L 133.467 33.524L 135.375 33.704L 135.375 35L 130.299 35L 129.831 32.912ZM 129.831 25.352C 128.559 25.712 127.455 26.048 126.519 26.36C 125.607 26.672 124.851 27.02 124.251 27.404C 123.651 27.764 123.207 28.184 122.919 28.664C 122.631 29.144 122.487 29.708 122.487 30.356C 122.487 31.244 122.739 31.964 123.243 32.516C 123.747 33.044 124.455 33.308 125.367 33.308C 125.967 33.308 126.627 33.176 127.347 32.912C 128.091 32.624 128.919 32.216 129.831 31.688L 129.831 25.352ZM 137.061 33.704L 139.185 33.524L 139.797 32.948L 139.797 10.916L 137.025 10.916L 137.025 9.8L 141.417 8.504L 142.785 8.504L 142.785 32.948L 143.433 33.524L 145.485 33.704L 145.485 35L 137.061 35L 137.061 33.704ZM 172.576 19.736C 175.312 18.128 177.376 17.324 178.768 17.324C 180.208 17.324 181.336 17.792 182.152 18.728C 182.992 19.64 183.412 20.996 183.412 22.796L 183.412 32.948L 184.024 33.524L 185.932 33.704L 185.932 35L 178.084 35L 178.084 33.704L 179.776 33.524L 180.424 32.948L 180.424 23.408C 180.424 22.136 180.16 21.2 179.632 20.6C 179.128 20 178.312 19.7 177.184 19.7C 176.608 19.7 175.972 19.808 175.276 20.024C 174.604 20.216 173.884 20.504 173.116 20.888L 173.116 32.948L 173.764 33.524L 175.456 33.704L 175.456 35L 167.788 35L 167.788 33.704L 169.516 33.524L 170.128 32.948L 170.128 23.408C 170.128 20.936 169.072 19.7 166.96 19.7C 165.808 19.7 164.44 20.096 162.856 20.888L 162.856 32.948L 163.468 33.524L 165.196 33.704L 165.196 35L 157.312 35L 157.312 33.704L 159.256 33.524L 159.868 32.948L 159.868 19.916L 157.312 19.916L 157.312 18.8L 161.488 17.504L 162.856 17.504L 162.856 19.484C 164.056 18.788 165.124 18.26 166.06 17.9C 166.996 17.516 167.848 17.324 168.616 17.324C 170.416 17.324 171.736 18.128 172.576 19.736ZM 196.256 17.324C 197.48 17.324 198.596 17.552 199.604 18.008C 200.636 18.44 201.524 19.052 202.268 19.844C 203.012 20.636 203.588 21.584 203.996 22.688C 204.428 23.792 204.644 25.004 204.644 26.324C 204.644 27.668 204.428 28.892 203.996 29.996C 203.588 31.1 203.012 32.048 202.268 32.84C 201.524 33.632 200.636 34.244 199.604 34.676C 198.572 35.108 197.456 35.324 196.256 35.324C 195.056 35.324 193.94 35.108 192.908 34.676C 191.9 34.244 191.024 33.632 190.28 32.84C 189.536 32.048 188.948 31.1 188.516 29.996C 188.108 28.892 187.904 27.668 187.904 26.324C 187.904 24.98 188.108 23.756 188.516 22.652C 188.948 21.548 189.524 20.6 190.244 19.808C 190.988 19.016 191.864 18.404 192.872 17.972C 193.904 17.54 195.032 17.324 196.256 17.324ZM 196.256 18.872C 194.792 18.872 193.592 19.532 192.656 20.852C 191.744 22.148 191.288 23.972 191.288 26.324C 191.288 27.476 191.408 28.52 191.648 29.456C 191.912 30.368 192.26 31.148 192.692 31.796C 193.124 32.444 193.64 32.936 194.24 33.272C 194.864 33.608 195.536 33.776 196.256 33.776C 197.72 33.776 198.92 33.128 199.856 31.832C 200.792 30.512 201.26 28.676 201.26 26.324C 201.26 23.996 200.792 22.172 199.856 20.852C 198.92 19.532 197.72 18.872 196.256 18.872ZM 216.995 10.916L 216.995 9.8L 221.387 8.504L 222.755 8.504L 222.755 32.948L 223.367 33.524L 225.095 33.704L 225.095 35L 219.767 35L 219.767 33.128C 218.855 33.872 217.955 34.424 217.067 34.784C 216.179 35.144 215.231 35.324 214.223 35.324C 213.239 35.324 212.327 35.12 211.487 34.712C 210.647 34.304 209.915 33.74 209.291 33.02C 208.667 32.276 208.175 31.388 207.815 30.356C 207.455 29.324 207.275 28.172 207.275 26.9C 207.275 25.46 207.503 24.152 207.959 22.976C 208.415 21.8 209.051 20.792 209.867 19.952C 210.683 19.088 211.655 18.428 212.783 17.972C 213.935 17.516 215.195 17.288 216.563 17.288C 217.523 17.288 218.591 17.42 219.767 17.684L 219.767 10.916L 216.995 10.916ZM 219.767 19.448C 219.143 19.256 218.567 19.112 218.039 19.016C 217.511 18.92 217.031 18.872 216.599 18.872C 215.687 18.872 214.847 19.052 214.079 19.412C 213.335 19.748 212.687 20.24 212.135 20.888C 211.607 21.536 211.187 22.316 210.875 23.228C 210.587 24.14 210.443 25.16 210.443 26.288C 210.443 28.4 210.935 30.056 211.919 31.256C 212.903 32.456 214.211 33.056 215.843 33.056C 217.115 33.056 218.423 32.636 219.767 31.796L 219.767 19.448ZM 231.878 9.512C 232.454 9.512 232.946 9.716 233.354 10.124C 233.762 10.532 233.966 11.024 233.966 11.6C 233.966 12.176 233.762 12.668 233.354 13.076C 232.946 13.46 232.454 13.652 231.878 13.652C 231.302 13.652 230.81 13.46 230.402 13.076C 229.994 12.668 229.79 12.176 229.79 11.6C 229.79 11 229.994 10.508 230.402 10.124C 230.81 9.716 231.302 9.512 231.878 9.512ZM 233.102 17.504L 233.102 32.948L 233.75 33.524L 235.694 33.704L 235.694 35L 227.594 35L 227.594 33.704L 229.502 33.524L 230.114 32.948L 230.114 19.916L 227.594 19.916L 227.594 18.8L 231.734 17.504L 233.102 17.504ZM 237.468 33.704L 239.376 33.524L 240.024 32.948L 240.024 19.844L 237.72 19.844L 237.72 18.692L 240.024 18.152L 240.024 17.756C 240.024 16.268 240.204 14.936 240.564 13.76C 240.924 12.56 241.428 11.552 242.076 10.736C 242.724 9.92 243.492 9.296 244.38 8.864C 245.292 8.432 246.276 8.216 247.332 8.216C 248.172 8.216 248.844 8.42 249.348 8.828C 249.876 9.212 250.14 9.692 250.14 10.268C 250.14 10.7 250.008 11.084 249.744 11.42C 249.504 11.732 249.144 11.948 248.664 12.068L 245.388 9.908C 243.828 10.628 243.048 12.5 243.048 15.524L 243.048 18.152L 248.052 18.152L 248.052 19.844L 243.012 19.844L 243.012 32.948L 243.624 33.524L 245.856 33.704L 245.856 35L 237.468 35L 237.468 33.704ZM 253.534 9.512C 254.11 9.512 254.602 9.716 255.01 10.124C 255.418 10.532 255.622 11.024 255.622 11.6C 255.622 12.176 255.418 12.668 255.01 13.076C 254.602 13.46 254.11 13.652 253.534 13.652C 252.958 13.652 252.466 13.46 252.058 13.076C 251.65 12.668 251.446 12.176 251.446 11.6C 251.446 11 251.65 10.508 252.058 10.124C 252.466 9.716 252.958 9.512 253.534 9.512ZM 254.758 17.504L 254.758 32.948L 255.406 33.524L 257.35 33.704L 257.35 35L 249.25 35L 249.25 33.704L 251.158 33.524L 251.77 32.948L 251.77 19.916L 249.25 19.916L 249.25 18.8L 253.39 17.504L 254.758 17.504ZM 274.208 33.164C 273.128 33.884 272.012 34.424 270.86 34.784C 269.732 35.144 268.592 35.324 267.44 35.324C 266.24 35.324 265.148 35.108 264.164 34.676C 263.18 34.244 262.34 33.644 261.644 32.876C 260.948 32.108 260.396 31.184 259.988 30.104C 259.604 29 259.412 27.788 259.412 26.468C 259.412 25.1 259.616 23.864 260.024 22.76C 260.432 21.632 261.008 20.672 261.752 19.88C 262.496 19.064 263.372 18.44 264.38 18.008C 265.412 17.552 266.528 17.324 267.728 17.324C 269.696 17.324 271.268 17.948 272.444 19.196C 273.62 20.444 274.208 22.184 274.208 24.416C 274.208 24.608 274.208 24.8 274.208 24.992C 274.208 25.16 274.196 25.34 274.172 25.532L 262.508 25.532L 262.508 25.928C 262.508 28.256 263.06 30.068 264.164 31.364C 265.268 32.636 266.732 33.272 268.556 33.272C 269.468 33.272 270.38 33.104 271.292 32.768C 272.204 32.408 273.176 31.88 274.208 31.184L 274.208 33.164ZM 271.004 23.444C 271.004 21.98 270.68 20.864 270.032 20.096C 269.408 19.328 268.484 18.944 267.26 18.944C 266.684 18.944 266.132 19.064 265.604 19.304C 265.076 19.544 264.596 19.892 264.164 20.348C 263.756 20.78 263.42 21.308 263.156 21.932C 262.892 22.556 262.736 23.252 262.688 24.02L 271.004 24.02L 271.004 23.444ZM 276.844 33.704L 278.752 33.524L 279.4 32.948L 279.4 19.916L 276.844 19.916L 276.844 18.8L 281.02 17.504L 282.388 17.504L 282.388 20.888C 283.012 20.24 283.648 19.628 284.296 19.052C 284.944 18.476 285.592 17.924 286.24 17.396C 286.384 17.348 286.528 17.324 286.672 17.324C 286.84 17.324 286.996 17.324 287.14 17.324C 287.86 17.324 288.58 17.48 289.3 17.792L 289.3 20.888L 288.148 20.888C 287.668 20.312 287.056 20.024 286.312 20.024C 285.184 20.024 283.876 20.9 282.388 22.652L 282.388 32.948L 283 33.524L 285.52 33.704L 285.52 35L 276.844 35L 276.844 33.704Z"/>
<path id="path2_fill" d="M 10.1098 17.324C 11.3338 17.324 12.4498 17.552 13.4578 18.008C 14.4898 18.44 15.3778 19.052 16.1218 19.844C 16.8658 20.636 17.4418 21.584 17.8498 22.688C 18.2818 23.792 18.4978 25.004 18.4978 26.324C 18.4978 27.668 18.2818 28.892 17.8498 29.996C 17.4418 31.1 16.8658 32.048 16.1218 32.84C 15.3778 33.632 14.4898 34.244 13.4578 34.676C 12.4258 35.108 11.3098 35.324 10.1098 35.324C 8.90978 35.324 7.79378 35.108 6.76178 34.676C 5.75378 34.244 4.87778 33.632 4.13378 32.84C 3.38978 32.048 2.80178 31.1 2.36978 29.996C 1.96178 28.892 1.75778 27.668 1.75778 26.324C 1.75778 24.98 1.96178 23.756 2.36978 22.652C 2.80178 21.548 3.37778 20.6 4.09778 19.808C 4.84178 19.016 5.71778 18.404 6.72578 17.972C 7.75778 17.54 8.88578 17.324 10.1098 17.324ZM 10.1098 18.872C 8.64578 18.872 7.44578 19.532 6.50978 20.852C 5.59778 22.148 5.14178 23.972 5.14178 26.324C 5.14178 27.476 5.26178 28.52 5.50178 29.456C 5.76578 30.368 6.11378 31.148 6.54578 31.796C 6.97778 32.444 7.49378 32.936 8.09378 33.272C 8.71778 33.608 9.38978 33.776 10.1098 33.776C 11.5738 33.776 12.7738 33.128 13.7098 31.832C 14.6458 30.512 15.1138 28.676 15.1138 26.324C 15.1138 23.996 14.6458 22.172 13.7098 20.852C 12.7738 19.532 11.5738 18.872 10.1098 18.872ZM 25.916 8.504L 25.916 18.584C 27.668 17.744 29.312 17.324 30.848 17.324C 31.904 17.324 32.864 17.528 33.728 17.936C 34.616 18.32 35.372 18.872 35.996 19.592C 36.62 20.312 37.1 21.176 37.436 22.184C 37.796 23.192 37.976 24.308 37.976 25.532C 37.976 28.652 37.1 31.016 35.348 32.624C 33.596 34.208 30.992 35 27.536 35L 22.928 35L 22.928 10.916L 20.12 10.916L 20.12 9.8L 24.548 8.504L 25.916 8.504ZM 25.916 33.344C 26.468 33.368 26.912 33.38 27.248 33.38C 27.584 33.38 27.8 33.38 27.896 33.38C 30.248 33.38 31.976 32.816 33.08 31.688C 34.184 30.536 34.736 28.712 34.736 26.216C 34.736 23.96 34.244 22.232 33.26 21.032C 32.276 19.832 30.884 19.232 29.084 19.232C 28.628 19.232 28.136 19.28 27.608 19.376C 27.08 19.472 26.516 19.616 25.916 19.808L 25.916 33.344ZM 40.6063 19.916L 40.6063 18.8L 44.7823 17.504L 46.1503 17.504L 46.1503 31.976C 46.1503 32.912 46.1383 33.776 46.1143 34.568C 46.0903 35.36 46.0063 36.104 45.8623 36.8C 45.7423 37.52 45.5383 38.18 45.2503 38.78C 44.9863 39.404 44.6023 39.98 44.0983 40.508C 43.4023 41.276 42.6103 41.852 41.7223 42.236C 40.8343 42.644 39.8983 42.848 38.9143 42.848C 38.1223 42.848 37.5103 42.668 37.0783 42.308C 36.6463 41.948 36.4303 41.48 36.4303 40.904C 36.4303 40.496 36.5383 40.124 36.7543 39.788C 36.9703 39.476 37.3063 39.224 37.7623 39.032L 41.2543 41.156C 42.5263 40.748 43.1623 38.888 43.1623 35.576L 43.1623 19.916L 40.6063 19.916ZM 42.4063 11.6C 42.4063 11 42.6103 10.508 43.0183 10.124C 43.4263 9.716 43.9183 9.512 44.4943 9.512C 45.0703 9.512 45.5623 9.716 45.9703 10.124C 46.3783 10.532 46.5823 11.024 46.5823 11.6C 46.5823 12.176 46.3783 12.668 45.9703 13.076C 45.5623 13.46 45.0703 13.652 44.4943 13.652C 43.9183 13.652 43.4263 13.46 43.0183 13.076C 42.6103 12.668 42.4063 12.176 42.4063 11.6ZM 64.9288 33.164C 63.8488 33.884 62.7328 34.424 61.5808 34.784C 60.4528 35.144 59.3128 35.324 58.1608 35.324C 56.9608 35.324 55.8688 35.108 54.8848 34.676C 53.9008 34.244 53.0608 33.644 52.3648 32.876C 51.6688 32.108 51.1168 31.184 50.7088 30.104C 50.3248 29 50.1328 27.788 50.1328 26.468C 50.1328 25.1 50.3368 23.864 50.7448 22.76C 51.1528 21.632 51.7288 20.672 52.4728 19.88C 53.2168 19.064 54.0928 18.44 55.1008 18.008C 56.1328 17.552 57.2488 17.324 58.4488 17.324C 60.4168 17.324 61.9888 17.948 63.1648 19.196C 64.3408 20.444 64.9288 22.184 64.9288 24.416C 64.9288 24.608 64.9288 24.8 64.9288 24.992C 64.9288 25.16 64.9168 25.34 64.8928 25.532L 53.2288 25.532L 53.2288 25.928C 53.2288 28.256 53.7808 30.068 54.8848 31.364C 55.9888 32.636 57.4528 33.272 59.2768 33.272C 60.1888 33.272 61.1008 33.104 62.0128 32.768C 62.9248 32.408 63.8968 31.88 64.9288 31.184L 64.9288 33.164ZM 61.7248 23.444C 61.7248 21.98 61.4008 20.864 60.7528 20.096C 60.1288 19.328 59.2048 18.944 57.9808 18.944C 57.4048 18.944 56.8528 19.064 56.3248 19.304C 55.7968 19.544 55.3168 19.892 54.8848 20.348C 54.4768 20.78 54.1408 21.308 53.8768 21.932C 53.6128 22.556 53.4568 23.252 53.4088 24.02L 61.7248 24.02L 61.7248 23.444ZM 81.7844 33.488C 79.7684 34.664 77.8124 35.252 75.9164 35.252C 74.6924 35.252 73.5764 35.036 72.5684 34.604C 71.5844 34.172 70.7324 33.572 70.0124 32.804C 69.3164 32.012 68.7764 31.076 68.3924 29.996C 68.0084 28.892 67.8164 27.668 67.8164 26.324C 67.8164 24.98 68.0204 23.756 68.4284 22.652C 68.8604 21.548 69.4484 20.6 70.1924 19.808C 70.9364 19.016 71.8244 18.404 72.8564 17.972C 73.9124 17.54 75.0764 17.324 76.3484 17.324C 78.0764 17.324 79.4084 17.648 80.3444 18.296C 81.2804 18.944 81.7484 19.796 81.7484 20.852C 81.7484 21.428 81.5684 21.896 81.2084 22.256C 80.8484 22.592 80.3564 22.76 79.7324 22.76C 79.1804 22.76 78.6404 22.58 78.1124 22.22L 78.1124 19.268C 77.5604 18.932 76.9844 18.764 76.3844 18.764C 74.8244 18.764 73.5524 19.412 72.5684 20.708C 71.5844 22.004 71.0924 23.792 71.0924 26.072C 71.0924 28.304 71.6444 30.044 72.7484 31.292C 73.8524 32.516 75.3404 33.128 77.2124 33.128C 78.7484 33.128 80.2724 32.624 81.7844 31.616L 81.7844 33.488ZM 83.4508 19.844L 83.4508 18.728L 85.8268 17.684L 87.3748 14.336L 88.7068 14.336L 88.7068 18.152L 94.1788 18.152L 94.1788 19.844L 88.7068 19.844L 88.7068 29.348C 88.7068 30.044 88.7428 30.644 88.8148 31.148C 88.8868 31.628 89.0308 32.024 89.2468 32.336C 89.4628 32.648 89.7628 32.888 90.1468 33.056C 90.5548 33.2 91.0708 33.272 91.6948 33.272C 92.4628 33.272 93.2908 33.176 94.1788 32.984L 94.1788 34.316C 93.3388 34.58 92.5108 34.784 91.6948 34.928C 90.9028 35.048 90.1588 35.108 89.4628 35.108C 87.9748 35.108 86.9788 34.82 86.4748 34.244C 85.9708 33.668 85.7188 32.744 85.7188 31.472L 85.7188 19.844L 83.4508 19.844Z"/>
<path id="path3_fill" d="M 12.522 32.912C 11.37 33.68 10.314 34.268 9.35405 34.676C 8.39405 35.06 7.48205 35.252 6.61805 35.252C 5.17805 35.252 4.05005 34.832 3.23405 33.992C 2.41805 33.128 2.01005 32.012 2.01005 30.644C 2.01005 29.708 2.21405 28.928 2.62205 28.304C 3.05405 27.656 3.70205 27.092 4.56605 26.612C 5.43005 26.132 6.52205 25.7 7.84205 25.316C 9.16205 24.932 10.722 24.524 12.522 24.092L 12.522 22.94C 12.522 21.5 12.294 20.468 11.838 19.844C 11.382 19.22 10.506 18.908 9.21005 18.908C 8.32205 18.908 7.41005 19.1 6.47405 19.484L 6.47405 22.508L 3.99005 22.508C 3.58205 22.508 3.29405 22.436 3.12605 22.292C 2.95805 22.124 2.87405 21.824 2.87405 21.392C 2.87405 20.84 3.04205 20.324 3.37805 19.844C 3.71405 19.34 4.19405 18.908 4.81805 18.548C 5.44205 18.164 6.19805 17.864 7.08605 17.648C 7.99805 17.432 9.01805 17.324 10.146 17.324C 12.042 17.324 13.41 17.732 14.25 18.548C 15.09 19.364 15.51 20.684 15.51 22.508L 15.51 32.948L 16.158 33.524L 18.066 33.704L 18.066 35L 12.99 35L 12.522 32.912ZM 12.522 25.352C 11.25 25.712 10.146 26.048 9.21005 26.36C 8.29805 26.672 7.54205 27.02 6.94205 27.404C 6.34205 27.764 5.89805 28.184 5.61005 28.664C 5.32205 29.144 5.17805 29.708 5.17805 30.356C 5.17805 31.244 5.43005 31.964 5.93405 32.516C 6.43805 33.044 7.14605 33.308 8.05805 33.308C 8.65805 33.308 9.31805 33.176 10.038 32.912C 10.782 32.624 11.61 32.216 12.522 31.688L 12.522 25.352ZM 25.2241 17.324L 25.2241 29.24C 25.2241 30.536 25.5001 31.496 26.0521 32.12C 26.6041 32.744 27.4921 33.056 28.7161 33.056C 30.0121 33.056 31.4041 32.696 32.8921 31.976L 32.8921 19.772L 30.3361 19.772L 30.3361 18.656L 34.5121 17.324L 35.8801 17.324L 35.8801 32.948L 36.5281 33.524L 38.2201 33.704L 38.2201 35L 32.8921 35L 32.8921 32.984C 31.8121 33.752 30.7921 34.34 29.8321 34.748C 28.8721 35.156 27.9481 35.36 27.0601 35.36C 25.5001 35.36 24.3001 34.892 23.4601 33.956C 22.6441 33.02 22.2361 31.652 22.2361 29.852L 22.2361 19.772L 19.6801 19.772L 19.6801 18.656L 23.8561 17.324L 25.2241 17.324ZM 47.6282 17.684L 47.6282 19.016L 45.9722 19.232L 45.7922 19.592L 48.8162 24.308L 52.0922 19.7L 51.8042 19.232L 50.0762 19.016L 50.0762 17.684L 56.5562 17.684L 56.5562 19.016L 54.5402 19.376L 49.7882 25.676L 55.0802 33.38L 57.2402 33.668L 57.2402 35L 49.5722 35L 49.5722 33.668L 51.0842 33.416L 51.2642 33.128L 47.9162 27.764L 44.2442 32.984L 44.4242 33.416L 46.4762 33.668L 46.4762 35L 39.6722 35L 39.6722 33.668L 41.7242 33.38L 46.9082 26.432L 42.0842 19.412L 39.8882 19.016L 39.8882 17.684L 47.6282 17.684ZM 62.8897 9.512C 63.4657 9.512 63.9577 9.716 64.3657 10.124C 64.7737 10.532 64.9777 11.024 64.9777 11.6C 64.9777 12.176 64.7737 12.668 64.3657 13.076C 63.9577 13.46 63.4657 13.652 62.8897 13.652C 62.3137 13.652 61.8217 13.46 61.4137 13.076C 61.0057 12.668 60.8017 12.176 60.8017 11.6C 60.8017 11 61.0057 10.508 61.4137 10.124C 61.8217 9.716 62.3137 9.512 62.8897 9.512ZM 64.1137 17.504L 64.1137 32.948L 64.7617 33.524L 66.7057 33.704L 66.7057 35L 58.6057 35L 58.6057 33.704L 60.5137 33.524L 61.1257 32.948L 61.1257 19.916L 58.6057 19.916L 58.6057 18.8L 62.7457 17.504L 64.1137 17.504ZM 68.4435 33.704L 70.5675 33.524L 71.1795 32.948L 71.1795 10.916L 68.4075 10.916L 68.4075 9.8L 72.7995 8.504L 74.1675 8.504L 74.1675 32.948L 74.8155 33.524L 76.8675 33.704L 76.8675 35L 68.4435 35L 68.4435 33.704ZM 83.1397 9.512C 83.7157 9.512 84.2077 9.716 84.6157 10.124C 85.0237 10.532 85.2277 11.024 85.2277 11.6C 85.2277 12.176 85.0237 12.668 84.6157 13.076C 84.2077 13.46 83.7157 13.652 83.1397 13.652C 82.5637 13.652 82.0717 13.46 81.6637 13.076C 81.2557 12.668 81.0517 12.176 81.0517 11.6C 81.0517 11 81.2557 10.508 81.6637 10.124C 82.0717 9.716 82.5637 9.512 83.1397 9.512ZM 84.3637 17.504L 84.3637 32.948L 85.0117 33.524L 86.9557 33.704L 86.9557 35L 78.8557 35L 78.8557 33.704L 80.7637 33.524L 81.3757 32.948L 81.3757 19.916L 78.8557 19.916L 78.8557 18.8L 82.9957 17.504L 84.3637 17.504ZM 99.7095 32.912C 98.5575 33.68 97.5015 34.268 96.5415 34.676C 95.5815 35.06 94.6695 35.252 93.8055 35.252C 92.3655 35.252 91.2375 34.832 90.4215 33.992C 89.6055 33.128 89.1975 32.012 89.1975 30.644C 89.1975 29.708 89.4015 28.928 89.8095 28.304C 90.2415 27.656 90.8895 27.092 91.7535 26.612C 92.6175 26.132 93.7095 25.7 95.0295 25.316C 96.3495 24.932 97.9095 24.524 99.7095 24.092L 99.7095 22.94C 99.7095 21.5 99.4815 20.468 99.0255 19.844C 98.5695 19.22 97.6935 18.908 96.3975 18.908C 95.5095 18.908 94.5975 19.1 93.6615 19.484L 93.6615 22.508L 91.1775 22.508C 90.7695 22.508 90.4815 22.436 90.3135 22.292C 90.1455 22.124 90.0615 21.824 90.0615 21.392C 90.0615 20.84 90.2295 20.324 90.5655 19.844C 90.9015 19.34 91.3815 18.908 92.0055 18.548C 92.6295 18.164 93.3855 17.864 94.2735 17.648C 95.1855 17.432 96.2055 17.324 97.3335 17.324C 99.2295 17.324 100.598 17.732 101.438 18.548C 102.278 19.364 102.698 20.684 102.698 22.508L 102.698 32.948L 103.346 33.524L 105.254 33.704L 105.254 35L 100.178 35L 99.7095 32.912ZM 99.7095 25.352C 98.4375 25.712 97.3335 26.048 96.3975 26.36C 95.4855 26.672 94.7295 27.02 94.1295 27.404C 93.5295 27.764 93.0855 28.184 92.7975 28.664C 92.5095 29.144 92.3655 29.708 92.3655 30.356C 92.3655 31.244 92.6175 31.964 93.1215 32.516C 93.6255 33.044 94.3335 33.308 95.2455 33.308C 95.8455 33.308 96.5055 33.176 97.2255 32.912C 97.9695 32.624 98.7975 32.216 99.7095 31.688L 99.7095 25.352ZM 107.012 33.704L 108.92 33.524L 109.568 32.948L 109.568 19.916L 107.012 19.916L 107.012 18.8L 111.188 17.504L 112.556 17.504L 112.556 20.888C 113.18 20.24 113.816 19.628 114.464 19.052C 115.112 18.476 115.76 17.924 116.408 17.396C 116.552 17.348 116.696 17.324 116.84 17.324C 117.008 17.324 117.164 17.324 117.308 17.324C 118.028 17.324 118.748 17.48 119.468 17.792L 119.468 20.888L 118.316 20.888C 117.836 20.312 117.224 20.024 116.48 20.024C 115.352 20.024 114.044 20.9 112.556 22.652L 112.556 32.948L 113.168 33.524L 115.688 33.704L 115.688 35L 107.012 35L 107.012 33.704ZM 127.454 17.684L 127.454 19.016L 125.546 19.16L 125.114 19.736L 129.434 30.932L 133.934 19.736L 133.646 19.16L 131.702 19.016L 131.702 17.684L 138.11 17.684L 138.11 19.016L 136.022 19.304L 128.822 36.8C 127.982 38.84 127.106 40.352 126.194 41.336C 125.282 42.344 124.238 42.848 123.062 42.848C 122.294 42.848 121.682 42.656 121.226 42.272C 120.794 41.912 120.578 41.432 120.578 40.832C 120.578 40.112 120.89 39.464 121.514 38.888L 124.97 40.256C 125.45 39.728 125.942 39.02 126.446 38.132C 126.95 37.244 127.43 36.152 127.886 34.856L 121.838 19.232L 119.642 19.016L 119.642 17.684L 127.454 17.684Z"/>
<path id="path4_fill" d="M 12.5578 22.184L 10.7938 22.184L 10.5058 19.628C 9.56983 19.124 8.68183 18.872 7.84183 18.872C 6.88183 18.872 6.13783 19.1 5.60983 19.556C 5.10583 20.012 4.85383 20.648 4.85383 21.464C 4.85383 22.232 5.10583 22.856 5.60983 23.336C 6.13783 23.792 6.90583 24.26 7.91383 24.74C 8.53783 25.052 9.17383 25.364 9.82183 25.676C 10.4938 25.964 11.1298 26.348 11.7298 26.828C 12.6418 27.548 13.0978 28.58 13.0978 29.924C 13.0978 31.604 12.5098 32.924 11.3338 33.884C 10.1578 34.844 8.50183 35.324 6.36583 35.324C 5.45383 35.324 4.60183 35.252 3.80983 35.108C 3.01783 34.988 2.30983 34.808 1.68583 34.568L 1.68583 29.888L 3.41383 29.888L 3.84583 32.948C 4.85383 33.524 5.87383 33.812 6.90583 33.812C 7.96183 33.812 8.78983 33.536 9.38983 32.984C 9.98983 32.432 10.2898 31.736 10.2898 30.896C 10.2898 30.44 10.2058 30.044 10.0378 29.708C 9.89383 29.372 9.66583 29.072 9.35383 28.808C 9.04183 28.544 8.65783 28.292 8.20183 28.052C 7.74583 27.812 7.21783 27.56 6.61783 27.296C 5.08183 26.624 3.91783 25.94 3.12583 25.244C 2.35783 24.524 1.97383 23.564 1.97383 22.364C 1.97383 20.78 2.51383 19.544 3.59383 18.656C 4.69783 17.768 6.28183 17.324 8.34583 17.324C 9.95383 17.324 11.3578 17.588 12.5578 18.116L 12.5578 22.184ZM 21.0679 17.324L 21.0679 29.24C 21.0679 30.536 21.3439 31.496 21.8959 32.12C 22.4479 32.744 23.3359 33.056 24.5599 33.056C 25.8559 33.056 27.2479 32.696 28.7359 31.976L 28.7359 19.772L 26.1799 19.772L 26.1799 18.656L 30.3559 17.324L 31.7239 17.324L 31.7239 32.948L 32.3719 33.524L 34.0639 33.704L 34.0639 35L 28.7359 35L 28.7359 32.984C 27.6559 33.752 26.6359 34.34 25.6759 34.748C 24.7159 35.156 23.7919 35.36 22.9039 35.36C 21.3439 35.36 20.1439 34.892 19.3039 33.956C 18.4879 33.02 18.0799 31.652 18.0799 29.852L 18.0799 19.772L 15.5239 19.772L 15.5239 18.656L 19.6999 17.324L 21.0679 17.324ZM 41.168 8.504L 41.168 18.584C 42.92 17.744 44.564 17.324 46.1 17.324C 47.156 17.324 48.116 17.528 48.98 17.936C 49.868 18.32 50.624 18.872 51.248 19.592C 51.872 20.312 52.352 21.176 52.688 22.184C 53.048 23.192 53.228 24.308 53.228 25.532C 53.228 28.652 52.352 31.016 50.6 32.624C 48.848 34.208 46.244 35 42.788 35L 38.18 35L 38.18 10.916L 35.372 10.916L 35.372 9.8L 39.8 8.504L 41.168 8.504ZM 41.168 33.344C 41.72 33.368 42.164 33.38 42.5 33.38C 42.836 33.38 43.052 33.38 43.148 33.38C 45.5 33.38 47.228 32.816 48.332 31.688C 49.436 30.536 49.988 28.712 49.988 26.216C 49.988 23.96 49.496 22.232 48.512 21.032C 47.528 19.832 46.136 19.232 44.336 19.232C 43.88 19.232 43.388 19.28 42.86 19.376C 42.332 19.472 41.768 19.616 41.168 19.808L 41.168 33.344ZM 55.8582 19.916L 55.8582 18.8L 60.0342 17.504L 61.4022 17.504L 61.4022 31.976C 61.4022 32.912 61.3902 33.776 61.3662 34.568C 61.3422 35.36 61.2582 36.104 61.1142 36.8C 60.9942 37.52 60.7902 38.18 60.5022 38.78C 60.2382 39.404 59.8542 39.98 59.3502 40.508C 58.6542 41.276 57.8622 41.852 56.9742 42.236C 56.0862 42.644 55.1502 42.848 54.1662 42.848C 53.3742 42.848 52.7622 42.668 52.3302 42.308C 51.8982 41.948 51.6822 41.48 51.6822 40.904C 51.6822 40.496 51.7902 40.124 52.0062 39.788C 52.2222 39.476 52.5582 39.224 53.0142 39.032L 56.5062 41.156C 57.7782 40.748 58.4142 38.888 58.4142 35.576L 58.4142 19.916L 55.8582 19.916ZM 57.6582 11.6C 57.6582 11 57.8622 10.508 58.2702 10.124C 58.6782 9.716 59.1702 9.512 59.7462 9.512C 60.3222 9.512 60.8142 9.716 61.2222 10.124C 61.6302 10.532 61.8342 11.024 61.8342 11.6C 61.8342 12.176 61.6302 12.668 61.2222 13.076C 60.8142 13.46 60.3222 13.652 59.7462 13.652C 59.1702 13.652 58.6782 13.46 58.2702 13.076C 57.8622 12.668 57.6582 12.176 57.6582 11.6ZM 80.1807 33.164C 79.1007 33.884 77.9847 34.424 76.8327 34.784C 75.7047 35.144 74.5647 35.324 73.4127 35.324C 72.2127 35.324 71.1207 35.108 70.1367 34.676C 69.1527 34.244 68.3127 33.644 67.6167 32.876C 66.9207 32.108 66.3687 31.184 65.9607 30.104C 65.5767 29 65.3847 27.788 65.3847 26.468C 65.3847 25.1 65.5887 23.864 65.9967 22.76C 66.4047 21.632 66.9807 20.672 67.7247 19.88C 68.4687 19.064 69.3447 18.44 70.3527 18.008C 71.3847 17.552 72.5007 17.324 73.7007 17.324C 75.6687 17.324 77.2407 17.948 78.4167 19.196C 79.5927 20.444 80.1807 22.184 80.1807 24.416C 80.1807 24.608 80.1807 24.8 80.1807 24.992C 80.1807 25.16 80.1687 25.34 80.1447 25.532L 68.4807 25.532L 68.4807 25.928C 68.4807 28.256 69.0327 30.068 70.1367 31.364C 71.2407 32.636 72.7047 33.272 74.5287 33.272C 75.4407 33.272 76.3527 33.104 77.2647 32.768C 78.1767 32.408 79.1487 31.88 80.1807 31.184L 80.1807 33.164ZM 76.9767 23.444C 76.9767 21.98 76.6527 20.864 76.0047 20.096C 75.3807 19.328 74.4567 18.944 73.2327 18.944C 72.6567 18.944 72.1047 19.064 71.5767 19.304C 71.0487 19.544 70.5687 19.892 70.1367 20.348C 69.7287 20.78 69.3927 21.308 69.1287 21.932C 68.8647 22.556 68.7087 23.252 68.6607 24.02L 76.9767 24.02L 76.9767 23.444ZM 97.0363 33.488C 95.0203 34.664 93.0643 35.252 91.1683 35.252C 89.9443 35.252 88.8283 35.036 87.8203 34.604C 86.8363 34.172 85.9843 33.572 85.2643 32.804C 84.5683 32.012 84.0283 31.076 83.6443 29.996C 83.2603 28.892 83.0683 27.668 83.0683 26.324C 83.0683 24.98 83.2723 23.756 83.6803 22.652C 84.1123 21.548 84.7003 20.6 85.4443 19.808C 86.1883 19.016 87.0763 18.404 88.1083 17.972C 89.1643 17.54 90.3283 17.324 91.6003 17.324C 93.3283 17.324 94.6603 17.648 95.5963 18.296C 96.5323 18.944 97.0003 19.796 97.0003 20.852C 97.0003 21.428 96.8203 21.896 96.4603 22.256C 96.1003 22.592 95.6083 22.76 94.9843 22.76C 94.4323 22.76 93.8923 22.58 93.3643 22.22L 93.3643 19.268C 92.8123 18.932 92.2363 18.764 91.6363 18.764C 90.0763 18.764 88.8043 19.412 87.8203 20.708C 86.8363 22.004 86.3443 23.792 86.3443 26.072C 86.3443 28.304 86.8963 30.044 88.0003 31.292C 89.1043 32.516 90.5923 33.128 92.4643 33.128C 94.0003 33.128 95.5243 32.624 97.0363 31.616L 97.0363 33.488ZM 98.7027 19.844L 98.7027 18.728L 101.079 17.684L 102.627 14.336L 103.959 14.336L 103.959 18.152L 109.431 18.152L 109.431 19.844L 103.959 19.844L 103.959 29.348C 103.959 30.044 103.995 30.644 104.067 31.148C 104.139 31.628 104.283 32.024 104.499 32.336C 104.715 32.648 105.015 32.888 105.399 33.056C 105.807 33.2 106.323 33.272 106.947 33.272C 107.715 33.272 108.543 33.176 109.431 32.984L 109.431 34.316C 108.591 34.58 107.763 34.784 106.947 34.928C 106.155 35.048 105.411 35.108 104.715 35.108C 103.227 35.108 102.231 34.82 101.727 34.244C 101.223 33.668 100.971 32.744 100.971 31.472L 100.971 19.844L 98.7027 19.844Z"/>
<path id="path5_fill" d="M 1.68 45.032L 4.752 44.792L 5.568 44.12L 5.568 17.672L 4.752 17L 1.68 16.712L 1.68 14.792L 13.824 14.792L 13.824 16.712L 10.752 17L 9.936 17.672L 9.936 44.12L 10.752 44.792L 13.824 45.032L 13.824 47L 1.68 47L 1.68 45.032Z"/>
<path id="path6_fill" d="M 8.352 12.776C 7.072 14.216 6.112 15.528 5.472 16.712C 4.832 17.896 4.512 19.048 4.512 20.168C 4.512 20.36 4.512 20.552 4.512 20.744C 4.512 20.904 4.544 21.08 4.608 21.272L 7.68 21.272C 8.096 21.88 8.304 22.44 8.304 22.952C 8.304 23.784 8.032 24.472 7.488 25.016C 6.976 25.528 6.288 25.784 5.424 25.784C 4.304 25.784 3.392 25.384 2.688 24.584C 2.016 23.784 1.68 22.712 1.68 21.368C 1.68 18.584 3.216 15.72 6.288 12.776L 8.352 12.776ZM 31.4483 26.648C 35.0963 24.504 37.8483 23.432 39.7043 23.432C 41.6243 23.432 43.1283 24.056 44.2163 25.304C 45.3362 26.52 45.8963 28.328 45.8963 30.728L 45.8963 44.264L 46.7122 45.032L 49.2563 45.272L 49.2563 47L 38.7922 47L 38.7922 45.272L 41.0483 45.032L 41.9123 44.264L 41.9123 31.544C 41.9123 29.848 41.5603 28.6 40.8563 27.8C 40.1843 27 39.0962 26.6 37.5922 26.6C 36.8243 26.6 35.9763 26.744 35.0483 27.032C 34.1523 27.288 33.1923 27.672 32.1683 28.184L 32.1683 44.264L 33.0322 45.032L 35.2883 45.272L 35.2883 47L 25.0643 47L 25.0643 45.272L 27.3682 45.032L 28.1842 44.264L 28.1842 31.544C 28.1842 28.248 26.7763 26.6 23.9602 26.6C 22.4243 26.6 20.6003 27.128 18.4883 28.184L 18.4883 44.264L 19.3042 45.032L 21.6082 45.272L 21.6082 47L 11.0962 47L 11.0962 45.272L 13.6883 45.032L 14.5043 44.264L 14.5043 26.888L 11.0962 26.888L 11.0962 25.4L 16.6642 23.672L 18.4883 23.672L 18.4883 26.312C 20.0883 25.384 21.5122 24.68 22.7602 24.2C 24.0082 23.688 25.1442 23.432 26.1683 23.432C 28.5682 23.432 30.3283 24.504 31.4483 26.648Z"/>
<path id="path7_fill" d="M 1.2 26.792L 1.2 25.304L 4.368 23.912L 6.432 19.448L 8.208 19.448L 8.208 24.536L 15.504 24.536L 15.504 26.792L 8.208 26.792L 8.208 39.464C 8.208 40.392 8.256 41.192 8.352 41.864C 8.448 42.504 8.64 43.032 8.928 43.448C 9.216 43.864 9.616 44.184 10.128 44.408C 10.672 44.6 11.36 44.696 12.192 44.696C 13.216 44.696 14.32 44.568 15.504 44.312L 15.504 46.088C 14.384 46.44 13.28 46.712 12.192 46.904C 11.136 47.064 10.144 47.144 9.216 47.144C 7.232 47.144 5.904 46.76 5.232 45.992C 4.56 45.224 4.224 43.992 4.224 42.296L 4.224 26.792L 1.2 26.792ZM 37.5353 44.552C 36.0953 45.512 34.6073 46.232 33.0712 46.712C 31.5673 47.192 30.0472 47.432 28.5113 47.432C 26.9112 47.432 25.4552 47.144 24.1433 46.568C 22.8313 45.992 21.7113 45.192 20.7833 44.168C 19.8553 43.144 19.1193 41.912 18.5753 40.472C 18.0633 39 17.8072 37.384 17.8072 35.624C 17.8072 33.8 18.0792 32.152 18.6232 30.68C 19.1672 29.176 19.9352 27.896 20.9273 26.84C 21.9193 25.752 23.0872 24.92 24.4312 24.344C 25.8072 23.736 27.2952 23.432 28.8953 23.432C 31.5193 23.432 33.6153 24.264 35.1833 25.928C 36.7512 27.592 37.5353 29.912 37.5353 32.888C 37.5353 33.144 37.5353 33.4 37.5353 33.656C 37.5353 33.88 37.5192 34.12 37.4873 34.376L 21.9352 34.376L 21.9352 34.904C 21.9352 38.008 22.6713 40.424 24.1433 42.152C 25.6152 43.848 27.5673 44.696 29.9992 44.696C 31.2153 44.696 32.4312 44.472 33.6472 44.024C 34.8633 43.544 36.1593 42.84 37.5353 41.912L 37.5353 44.552ZM 33.2632 31.592C 33.2632 29.64 32.8312 28.152 31.9672 27.128C 31.1352 26.104 29.9032 25.592 28.2713 25.592C 27.5033 25.592 26.7673 25.752 26.0633 26.072C 25.3592 26.392 24.7193 26.856 24.1433 27.464C 23.5993 28.04 23.1513 28.744 22.7993 29.576C 22.4473 30.408 22.2392 31.336 22.1752 32.36L 33.2632 32.36L 33.2632 31.592ZM 56.1214 29.912L 53.7694 29.912L 53.3854 26.504C 52.1374 25.832 50.9534 25.496 49.8334 25.496C 48.5534 25.496 47.5614 25.8 46.8574 26.408C 46.1854 27.016 45.8494 27.864 45.8494 28.952C 45.8494 29.976 46.1854 30.808 46.8574 31.448C 47.5614 32.056 48.5854 32.68 49.9294 33.32C 50.7614 33.736 51.6094 34.152 52.4734 34.568C 53.3694 34.952 54.2174 35.464 55.0174 36.104C 56.2334 37.064 56.8414 38.44 56.8414 40.232C 56.8414 42.472 56.0574 44.232 54.4894 45.512C 52.9214 46.792 50.7134 47.432 47.8654 47.432C 46.6494 47.432 45.5134 47.336 44.4574 47.144C 43.4014 46.984 42.4574 46.744 41.6254 46.424L 41.6254 40.184L 43.9294 40.184L 44.5054 44.264C 45.8494 45.032 47.2094 45.416 48.5854 45.416C 49.9934 45.416 51.0974 45.048 51.8974 44.312C 52.6974 43.576 53.0974 42.648 53.0974 41.528C 53.0974 40.92 52.9854 40.392 52.7614 39.944C 52.5694 39.496 52.2654 39.096 51.8494 38.744C 51.4334 38.392 50.9214 38.056 50.3134 37.736C 49.7054 37.416 49.0014 37.08 48.2014 36.728C 46.1534 35.832 44.6014 34.92 43.5454 33.992C 42.5214 33.032 42.0094 31.752 42.0094 30.152C 42.0094 28.04 42.7294 26.392 44.1694 25.208C 45.6414 24.024 47.7534 23.432 50.5054 23.432C 52.6494 23.432 54.5214 23.784 56.1214 24.488L 56.1214 29.912ZM 60.0281 26.792L 60.0281 25.304L 63.1961 23.912L 65.2601 19.448L 67.0361 19.448L 67.0361 24.536L 74.3321 24.536L 74.3321 26.792L 67.0361 26.792L 67.0361 39.464C 67.0361 40.392 67.0841 41.192 67.1801 41.864C 67.2761 42.504 67.4681 43.032 67.7561 43.448C 68.0441 43.864 68.4441 44.184 68.9561 44.408C 69.5001 44.6 70.1881 44.696 71.0201 44.696C 72.0441 44.696 73.1481 44.568 74.3321 44.312L 74.3321 46.088C 73.2121 46.44 72.1081 46.712 71.0201 46.904C 69.9641 47.064 68.9721 47.144 68.0441 47.144C 66.0601 47.144 64.7321 46.76 64.0601 45.992C 63.3881 45.224 63.0521 43.992 63.0521 42.296L 63.0521 26.792L 60.0281 26.792ZM 82.2514 13.016C 83.0194 13.016 83.6754 13.288 84.2194 13.832C 84.7634 14.376 85.0354 15.032 85.0354 15.8C 85.0354 16.568 84.7634 17.224 84.2194 17.768C 83.6754 18.28 83.0194 18.536 82.2514 18.536C 81.4834 18.536 80.8274 18.28 80.2834 17.768C 79.7394 17.224 79.4674 16.568 79.4674 15.8C 79.4674 15 79.7394 14.344 80.2834 13.832C 80.8274 13.288 81.4834 13.016 82.2514 13.016ZM 83.8834 23.672L 83.8834 44.264L 84.7474 45.032L 87.3394 45.272L 87.3394 47L 76.5394 47L 76.5394 45.272L 79.0834 45.032L 79.8994 44.264L 79.8994 26.888L 76.5394 26.888L 76.5394 25.4L 82.0594 23.672L 83.8834 23.672ZM 89.7525 45.272L 92.3445 45.032L 93.1605 44.264L 93.1605 26.888L 89.7525 26.888L 89.7525 25.4L 95.3205 23.672L 97.1445 23.672L 97.1445 26.312C 98.7765 25.416 100.216 24.712 101.465 24.2C 102.713 23.688 103.849 23.432 104.873 23.432C 106.984 23.432 108.585 24.056 109.672 25.304C 110.793 26.52 111.352 28.328 111.352 30.728L 111.352 44.264L 112.168 45.032L 114.761 45.272L 114.761 47L 104.249 47L 104.249 45.272L 106.553 45.032L 107.368 44.264L 107.368 31.544C 107.368 29.784 107.001 28.52 106.264 27.752C 105.561 26.984 104.312 26.6 102.52 26.6C 100.984 26.6 99.1925 27.128 97.1445 28.184L 97.1445 44.264L 97.9605 45.032L 100.264 45.272L 100.264 47L 89.7525 47L 89.7525 45.272ZM 140.17 24.776L 140.17 27.032L 134.89 27.032C 135.786 28.408 136.234 29.896 136.234 31.496C 136.234 32.552 136.01 33.544 135.562 34.472C 135.146 35.368 134.538 36.152 133.738 36.824C 132.938 37.496 131.962 38.024 130.81 38.408C 129.69 38.792 128.442 38.984 127.066 38.984L 126.25 38.984C 125.898 39.688 125.722 40.408 125.722 41.144C 125.722 41.272 125.722 41.432 125.722 41.624C 125.754 41.816 125.786 42.04 125.818 42.296L 130.426 43.016C 131.834 43.24 133.05 43.512 134.074 43.832C 135.098 44.12 135.946 44.504 136.618 44.984C 137.29 45.432 137.786 45.976 138.106 46.616C 138.426 47.256 138.586 48.024 138.586 48.92C 138.586 49.816 138.33 50.744 137.818 51.704C 137.338 52.664 136.634 53.528 135.706 54.296C 134.426 55.32 132.97 56.104 131.338 56.648C 129.738 57.192 128.026 57.464 126.202 57.464C 123.418 57.464 121.274 56.904 119.77 55.784C 118.266 54.696 117.514 53.192 117.514 51.272C 117.514 49.736 117.962 48.424 118.858 47.336C 119.786 46.28 121.066 45.608 122.698 45.32C 122.378 44.584 122.218 43.864 122.218 43.16C 122.218 41.944 122.986 40.424 124.522 38.6C 122.666 38.184 121.21 37.336 120.154 36.056C 119.098 34.744 118.57 33.176 118.57 31.352C 118.57 30.2 118.778 29.144 119.194 28.184C 119.642 27.192 120.266 26.344 121.066 25.64C 121.898 24.936 122.89 24.392 124.042 24.008C 125.194 23.624 126.474 23.432 127.882 23.432C 129.706 23.432 131.514 23.88 133.306 24.776L 140.17 24.776ZM 127.402 25.304C 125.994 25.304 124.858 25.832 123.994 26.888C 123.13 27.912 122.698 29.352 122.698 31.208C 122.698 33.032 123.13 34.472 123.994 35.528C 124.858 36.584 125.994 37.112 127.402 37.112C 128.81 37.112 129.946 36.584 130.81 35.528C 131.674 34.472 132.106 33.032 132.106 31.208C 132.106 29.384 131.674 27.944 130.81 26.888C 129.946 25.832 128.81 25.304 127.402 25.304ZM 125.482 45.56C 124.138 45.976 123.114 46.6 122.41 47.432C 121.706 48.264 121.354 49.208 121.354 50.264C 121.354 51.672 121.946 52.856 123.13 53.816C 124.314 54.776 125.898 55.256 127.882 55.256C 128.938 55.256 129.898 55.112 130.762 54.824C 131.658 54.568 132.41 54.2 133.018 53.72C 133.658 53.24 134.154 52.696 134.506 52.088C 134.858 51.48 135.034 50.84 135.034 50.168C 135.034 49.528 134.938 49 134.746 48.584C 134.554 48.168 134.25 47.816 133.834 47.528C 133.45 47.272 132.938 47.064 132.298 46.904C 131.69 46.744 130.97 46.584 130.138 46.424L 125.482 45.56Z"/>
<path id="path8_fill" d="M 21.792 26.648C 25.44 24.504 28.192 23.432 30.048 23.432C 31.968 23.432 33.472 24.056 34.56 25.304C 35.68 26.52 36.24 28.328 36.24 30.728L 36.24 44.264L 37.056 45.032L 39.6 45.272L 39.6 47L 29.136 47L 29.136 45.272L 31.392 45.032L 32.256 44.264L 32.256 31.544C 32.256 29.848 31.904 28.6 31.2 27.8C 30.528 27 29.44 26.6 27.936 26.6C 27.168 26.6 26.32 26.744 25.392 27.032C 24.496 27.288 23.536 27.672 22.512 28.184L 22.512 44.264L 23.376 45.032L 25.632 45.272L 25.632 47L 15.408 47L 15.408 45.272L 17.712 45.032L 18.528 44.264L 18.528 31.544C 18.528 28.248 17.12 26.6 14.304 26.6C 12.768 26.6 10.944 27.128 8.832 28.184L 8.832 44.264L 9.648 45.032L 11.952 45.272L 11.952 47L 1.44 47L 1.44 45.272L 4.032 45.032L 4.848 44.264L 4.848 26.888L 1.44 26.888L 1.44 25.4L 7.008 23.672L 8.832 23.672L 8.832 26.312C 10.432 25.384 11.856 24.68 13.104 24.2C 14.352 23.688 15.488 23.432 16.512 23.432C 18.912 23.432 20.672 24.504 21.792 26.648ZM 50.8211 23.912L 50.8211 25.688L 48.2771 25.88L 47.7011 26.648L 53.4611 41.576L 59.4611 26.648L 59.0771 25.88L 56.4851 25.688L 56.4851 23.912L 65.0291 23.912L 65.0291 25.688L 62.2451 26.072L 52.6451 49.4C 51.5251 52.12 50.3571 54.136 49.1411 55.448C 47.9251 56.792 46.5331 57.464 44.9651 57.464C 43.9411 57.464 43.1251 57.208 42.5171 56.696C 41.9411 56.216 41.6531 55.576 41.6531 54.776C 41.6531 53.816 42.0691 52.952 42.9011 52.184L 47.5091 54.008C 48.1491 53.304 48.8051 52.36 49.4771 51.176C 50.1491 49.992 50.7891 48.536 51.3971 46.808L 43.3331 25.976L 40.4051 25.688L 40.4051 23.912L 50.8211 23.912ZM 80.7308 29.912L 78.3787 29.912L 77.9947 26.504C 76.7467 25.832 75.5628 25.496 74.4428 25.496C 73.1628 25.496 72.1708 25.8 71.4668 26.408C 70.7948 27.016 70.4587 27.864 70.4587 28.952C 70.4587 29.976 70.7948 30.808 71.4668 31.448C 72.1708 32.056 73.1947 32.68 74.5387 33.32C 75.3707 33.736 76.2188 34.152 77.0828 34.568C 77.9788 34.952 78.8268 35.464 79.6268 36.104C 80.8427 37.064 81.4507 38.44 81.4507 40.232C 81.4507 42.472 80.6667 44.232 79.0987 45.512C 77.5307 46.792 75.3227 47.432 72.4748 47.432C 71.2588 47.432 70.1227 47.336 69.0667 47.144C 68.0108 46.984 67.0667 46.744 66.2348 46.424L 66.2348 40.184L 68.5387 40.184L 69.1148 44.264C 70.4587 45.032 71.8187 45.416 73.1947 45.416C 74.6028 45.416 75.7067 45.048 76.5067 44.312C 77.3067 43.576 77.7067 42.648 77.7067 41.528C 77.7067 40.92 77.5948 40.392 77.3708 39.944C 77.1788 39.496 76.8747 39.096 76.4587 38.744C 76.0427 38.392 75.5308 38.056 74.9228 37.736C 74.3148 37.416 73.6107 37.08 72.8107 36.728C 70.7627 35.832 69.2108 34.92 68.1548 33.992C 67.1308 33.032 66.6188 31.752 66.6188 30.152C 66.6188 28.04 67.3388 26.392 68.7788 25.208C 70.2507 24.024 72.3628 23.432 75.1148 23.432C 77.2588 23.432 79.1307 23.784 80.7308 24.488L 80.7308 29.912ZM 104.942 44.552C 103.502 45.512 102.013 46.232 100.477 46.712C 98.9735 47.192 97.4535 47.432 95.9175 47.432C 94.3175 47.432 92.8615 47.144 91.5495 46.568C 90.2375 45.992 89.1175 45.192 88.1895 44.168C 87.2615 43.144 86.5255 41.912 85.9815 40.472C 85.4695 39 85.2135 37.384 85.2135 35.624C 85.2135 33.8 85.4855 32.152 86.0295 30.68C 86.5735 29.176 87.3415 27.896 88.3335 26.84C 89.3255 25.752 90.4935 24.92 91.8375 24.344C 93.2135 23.736 94.7015 23.432 96.3015 23.432C 98.9255 23.432 101.022 24.264 102.59 25.928C 104.157 27.592 104.942 29.912 104.942 32.888C 104.942 33.144 104.942 33.4 104.942 33.656C 104.942 33.88 104.925 34.12 104.894 34.376L 89.3415 34.376L 89.3415 34.904C 89.3415 38.008 90.0775 40.424 91.5495 42.152C 93.0215 43.848 94.9735 44.696 97.4055 44.696C 98.6215 44.696 99.8375 44.472 101.053 44.024C 102.27 43.544 103.566 42.84 104.942 41.912L 104.942 44.552ZM 100.669 31.592C 100.669 29.64 100.238 28.152 99.3735 27.128C 98.5415 26.104 97.3095 25.592 95.6775 25.592C 94.9095 25.592 94.1735 25.752 93.4695 26.072C 92.7655 26.392 92.1255 26.856 91.5495 27.464C 91.0055 28.04 90.5575 28.744 90.2055 29.576C 89.8535 30.408 89.6455 31.336 89.5815 32.36L 100.669 32.36L 100.669 31.592ZM 108.36 45.272L 111.192 45.032L 112.008 44.264L 112.008 14.888L 108.312 14.888L 108.312 13.4L 114.168 11.672L 115.992 11.672L 115.992 44.264L 116.856 45.032L 119.592 45.272L 119.592 47L 108.36 47L 108.36 45.272ZM 121.954 45.272L 124.499 45.032L 125.362 44.264L 125.362 26.792L 122.29 26.792L 122.29 25.256L 125.362 24.536L 125.362 24.008C 125.362 22.024 125.602 20.248 126.082 18.68C 126.562 17.08 127.234 15.736 128.099 14.648C 128.963 13.56 129.987 12.728 131.171 12.152C 132.387 11.576 133.699 11.288 135.107 11.288C 136.227 11.288 137.123 11.56 137.794 12.104C 138.499 12.616 138.851 13.256 138.851 14.024C 138.851 14.6 138.674 15.112 138.322 15.56C 138.002 15.976 137.522 16.264 136.882 16.424L 132.514 13.544C 130.434 14.504 129.394 17 129.394 21.032L 129.394 24.536L 136.066 24.536L 136.066 26.792L 129.346 26.792L 129.346 44.264L 130.162 45.032L 133.138 45.272L 133.138 47L 121.954 47L 121.954 45.272Z"/>
<path id="path9_stroke" d="M -1.48086 55.7611C -1.61278 56.579 -1.05672 57.3489 -0.238869 57.4809L 13.0889 59.6307C 13.9067 59.7626 14.6767 59.2065 14.8086 58.3887C 14.9405 57.5708 14.3844 56.8009 13.5666 56.669L 1.71973 54.758L 3.63068 42.9111C 3.76261 42.0933 3.20655 41.3233 2.38869 41.1914C 1.57084 41.0595 0.800889 41.6155 0.668965 42.4334L -1.48086 55.7611ZM 464.835 54.7536C 409.492 17.6943 319.346 -1.24306 230.057 -1.4974C 140.78 -1.75171 51.8951 16.671 -0.878219 54.784L 0.878219 57.216C 52.8943 19.6499 141.018 1.24898 230.049 1.50258C 319.067 1.75616 408.526 20.6583 463.165 57.2464L 464.835 54.7536Z"/>
<path id="path10_stroke" d="M -1.49967 42.0314C -1.4823 42.8597 -0.796791 43.517 0.0314538 43.4997L 13.5285 43.2166C 14.3567 43.1992 15.0141 42.5137 14.9967 41.6855C 14.9793 40.8572 14.2938 40.1999 13.4656 40.2172L 1.46822 40.4689L 1.21659 28.4715C 1.19921 27.6433 0.513707 26.9859 -0.314538 27.0033C -1.14278 27.0207 -1.80013 27.7062 -1.78275 28.5344L -1.49967 42.0314ZM 242.043 40.9217C 213.111 12.9469 166.039 -1.3066 119.495 -1.49804C 72.9573 -1.68946 26.5194 12.1771 -1.08267 40.9618L 1.08267 43.0382C 27.9079 15.0636 73.4079 1.31241 119.483 1.50193C 165.55 1.69142 211.764 15.8176 239.957 43.0783L 242.043 40.9217Z"/>
<path id="path11_stroke" d="M -1.49618 27.107C -1.43708 27.9333 -0.719317 28.5553 0.107 28.4962L 13.5726 27.5332C 14.3989 27.4741 15.0209 26.7563 14.9618 25.93C 14.9027 25.1037 14.1849 24.4817 13.3586 24.5408L 1.38918 25.3968L 0.533179 13.4274C 0.474085 12.6011 -0.243683 11.9791 -1.07 12.0382C -1.89632 12.0973 -2.51827 12.8151 -2.45918 13.6414L -1.49618 27.107ZM 141.096 25.9758C 124.142 7.8341 96.5982 -1.37502 69.4193 -1.49874C 42.2449 -1.62243 15.0534 7.33714 -1.13362 26.0177L 1.13362 27.9823C 16.5641 10.1747 42.7805 1.38004 69.4057 1.50123C 96.0265 1.62241 122.674 10.6573 138.904 28.0242L 141.096 25.9758Z"/>
<path id="path12_stroke" d="M -1.48256 85.2281C -1.35659 86.0469 -0.590709 86.6085 0.228085 86.4825L 13.5711 84.4298C 14.3899 84.3038 14.9515 83.5379 14.8256 82.7191C 14.6996 81.9003 13.9337 81.3387 13.1149 81.4647L 1.25447 83.2893L -0.570208 71.4289C -0.696176 70.6101 -1.46206 70.0484 -2.28085 70.1744C -3.09964 70.3004 -3.66129 71.0663 -3.53532 71.8851L -1.48256 85.2281ZM 374.177 84.0695C 329.633 27.7497 256.971 -1.10864 184.943 -1.49605C 112.914 -1.88346 41.2579 26.2028 -1.20961 84.1129L 1.20961 85.887C 42.9801 28.9273 113.619 1.12038 184.927 1.50391C 256.236 1.88745 327.955 30.4641 371.823 85.9305L 374.177 84.0695Z"/>
</defs>
</svg>
