<svg width="418" height="235" viewBox="0 0 418 235" version="1.1" xmlns="http://www.w3.org/2000/svg" xmlns:xlink="http://www.w3.org/1999/xlink">
<title>existentialGraphExample1</title>
<desc>Created using Figma</desc>
<g id="Canvas">
<clipPath id="clip-0" clip-rule="evenodd">
<path d="M 0 -5.68434e-14L 418 -5.68434e-14L 418 235L 0 235L 0 -5.68434e-14Z" fill="#FFFFFF"/>
</clipPath>
<g id="existentialGraphExample1" clip-path="url(#clip-0)">
<g id="Subtract">
<use xlink:href="#path0_fill" fill="#CCCCCC"/>
</g>
<g id="P">
<use xlink:href="#path1_fill" transform="translate(71 54)"/>
</g>
<g id="R">
<use xlink:href="#path2_fill" transform="translate(301 54)"/>
</g>
<g id="Line">
<use xlink:href="#path3_stroke" transform="translate(122 95)"/>
</g>
</g>
</g>
<defs>
<path id="path0_fill" fill-rule="evenodd" d="M 209 194C 324.428 194 418 150.572 418 97C 418 43.4284 324.428 0 209 0C 93.5725 0 0 43.4284 0 97C 0 150.572 93.5725 194 209 194ZM 142 97C 142 123.51 120.51 145 94 145C 67.4903 145 46 123.51 46 97C 46 70.4903 67.4903 49 94 49C 120.51 49 142 70.4903 142 97ZM 372 97C 372 123.51 350.51 145 324 145C 297.49 145 276 123.51 276 97C 276 70.4903 297.49 49 324 49C 350.51 49 372 70.4903 372 97Z"/>
<path id="path1_fill" d="M 12.6914 46.9609L 12.6914 67L 5.94141 67L 5.94141 15.8125L 24.8203 15.8125C 30.4219 15.8125 34.8047 17.2422 37.9688 20.1016C 41.1562 22.9609 42.75 26.7461 42.75 31.457C 42.75 36.4258 41.1914 40.2578 38.0742 42.9531C 34.9805 45.625 30.5391 46.9609 24.75 46.9609L 12.6914 46.9609ZM 12.6914 41.4414L 24.8203 41.4414C 28.4297 41.4414 31.1953 40.5977 33.1172 38.9102C 35.0391 37.1992 36 34.7383 36 31.5273C 36 28.4805 35.0391 26.043 33.1172 24.2148C 31.1953 22.3867 28.5586 21.4375 25.207 21.3672L 12.6914 21.3672L 12.6914 41.4414Z"/>
<path id="path2_fill" d="M 24.7148 46.293L 12.6914 46.293L 12.6914 67L 5.90625 67L 5.90625 15.8125L 22.8516 15.8125C 28.6172 15.8125 33.0469 17.125 36.1406 19.75C 39.2578 22.375 40.8164 26.1953 40.8164 31.2109C 40.8164 34.3984 39.9492 37.1758 38.2148 39.543C 36.5039 41.9102 34.1133 43.6797 31.043 44.8516L 43.0664 66.5781L 43.0664 67L 35.8242 67L 24.7148 46.293ZM 12.6914 40.7734L 23.0625 40.7734C 26.4141 40.7734 29.0742 39.9062 31.043 38.1719C 33.0352 36.4375 34.0312 34.1172 34.0312 31.2109C 34.0312 28.0469 33.082 25.6211 31.1836 23.9336C 29.3086 22.2461 26.5898 21.3906 23.0273 21.3672L 12.6914 21.3672L 12.6914 40.7734Z"/>
<path id="path3_stroke" d="M 0 2.5L 87 2.5L 87 -2.5L 0 -2.5L 0 2.5ZM 87 2.5L 174 2.5L 174 -2.5L 87 -2.5L 87 2.5ZM 84.5 0L 84.5 139.5L 89.5 139.5L 89.5 0L 84.5 0Z"/>
</defs>
</svg>
