<svg version="1.1" xmlns="http://www.w3.org/2000/svg" xmlns:xlink="http://www.w3.org/1999/xlink" width="388" height="276"><defs></defs><g><g transform="translate(2,2) scale(1,1)"><path fill="#ffffff" stroke="none" d="M 18 8 L 366 8 Q 376 8 376 18 L 376 254 Q 376 264 366 264 L 18 264 Q 8 264 8 254 L 8 18 Q 8 8 18 8 Z"></path></g><g transform="translate(2,2) scale(1,1)"><path fill="none" stroke="#000000" d="M 18 8 L 366 8 Q 376 8 376 18 L 376 254 Q 376 264 366 264 L 18 264 Q 8 264 8 254 L 8 18 Q 8 8 18 8 Z" stroke-miterlimit="10"></path></g><g transform="translate(2,2) scale(1,1)"><path fill="none" stroke="#000000" d="M 8 33 L 376 33" stroke-miterlimit="10"></path></g><g transform="translate(2,2) scale(1,1)"><g><path fill="none" stroke="none"></path><text fill="#000000" stroke="none" font-family="Roboto" font-size="13px" font-style="normal" font-weight="bold" text-decoration="none" x="124.5" y="27.5">POSITIVE POSSIBILITY</text></g></g><g transform="translate(2,2) scale(1,1)"><path fill="#ffffff" stroke="none" d="M 154 40 L 358 40 Q 368 40 368 50 L 368 246 Q 368 256 358 256 L 154 256 Q 144 256 144 246 L 144 50 Q 144 40 154 40 Z"></path></g><g transform="translate(2,2) scale(1,1)"><path fill="none" stroke="#000000" d="M 154 40 L 358 40 Q 368 40 368 50 L 368 246 Q 368 256 358 256 L 154 256 Q 144 256 144 246 L 144 50 Q 144 40 154 40 Z" stroke-miterlimit="10"></path></g><g transform="translate(2,2) scale(1,1)"><path fill="none" stroke="#000000" d="M 144 65 L 368 65" stroke-miterlimit="10"></path></g><g transform="translate(2,2) scale(1,1)"><g><path fill="none" stroke="none"></path><text fill="#000000" stroke="none" font-family="Roboto" font-size="13px" font-style="normal" font-weight="bold" text-decoration="none" x="188.5" y="59.5">POSITIVE POSSIBILITY</text></g></g><g transform="translate(2,2) scale(1,1)"><path fill="#ffffff" stroke="none" d="M 26 80 L 65 80 Q 75 80 75 90 L 75 109 Q 75 119 65 119 L 26 119 Q 16 119 16 109 L 16 90 Q 16 80 26 80 Z"></path></g><g transform="translate(2,2) scale(1,1)"><path fill="none" stroke="#000000" d="M 26 80 L 65 80 Q 75 80 75 90 L 75 109 Q 75 119 65 119 L 26 119 Q 16 119 16 109 L 16 90 Q 16 80 26 80 Z" stroke-miterlimit="10"></path></g><g transform="translate(2,2) scale(1,1)"><g><path fill="none" stroke="none"></path><text fill="#000000" stroke="none" font-family="Roboto" font-size="13px" font-style="normal" font-weight="bold" text-decoration="none" x="32.5" y="99.5">Tom</text></g></g><g transform="translate(2,2) scale(1,1)"><path fill="#ffffff" stroke="none" d="M 26 152 L 69 152 Q 79 152 79 162 L 79 181 Q 79 191 69 191 L 26 191 Q 16 191 16 181 L 16 162 Q 16 152 26 152 Z"></path></g><g transform="translate(2,2) scale(1,1)"><path fill="none" stroke="#000000" d="M 26 152 L 69 152 Q 79 152 79 162 L 79 181 Q 79 191 69 191 L 26 191 Q 16 191 16 181 L 16 162 Q 16 152 26 152 Z" stroke-miterlimit="10"></path></g><g transform="translate(2,2) scale(1,1)"><g><path fill="none" stroke="none"></path><text fill="#000000" stroke="none" font-family="Roboto" font-size="13px" font-style="normal" font-weight="normal" text-decoration="none" x="20.5" y="169.5">«relation»</text></g></g><g transform="translate(2,2) scale(1,1)"><g><path fill="none" stroke="none"></path><text fill="#000000" stroke="none" font-family="Roboto" font-size="13px" font-style="normal" font-weight="bold" text-decoration="none" x="33.5" y="184.5">think</text></g></g><g transform="translate(2,2) scale(1,1)"><path fill="none" stroke="#000000" d="M 280 99 L 211 99" stroke-miterlimit="10"></path></g><g transform="translate(2,2) scale(1,1)"><path fill="none" stroke="#000000" d="M 221.16267485762415 94.79048224398402 L 211 99 L 221.16267485762415 103.20951775601598" stroke-miterlimit="10"></path></g><g transform="translate(2,2) scale(1,1)"><g><path fill="none" stroke="none"></path><text fill="#000000" stroke="none" font-family="Roboto" font-size="13px" font-style="normal" font-weight="normal" text-decoration="none" x="227.5" y="120.5">agent</text></g></g><g transform="translate(2,2) scale(1,1)"><path fill="none" stroke="#000000" d="M 40 152 L 40 119" stroke-miterlimit="10"></path></g><g transform="translate(2,2) scale(1,1)"><path fill="none" stroke="#000000" d="M 44.20951775601599 129.16267485762415 L 40 119 L 35.790482243984016 129.16267485762415" stroke-miterlimit="10"></path></g><g transform="translate(2,2) scale(1,1)"><g><path fill="none" stroke="none"></path><text fill="#000000" stroke="none" font-family="Roboto" font-size="13px" font-style="normal" font-weight="normal" text-decoration="none" x="45.5" y="139.5">agent</text></g></g><g transform="translate(2,2) scale(1,1)"><path fill="none" stroke="#000000" d="M 79 168 L 144 168" stroke-miterlimit="10"></path></g><g transform="translate(2,2) scale(1,1)"><path fill="none" stroke="#000000" d="M 133.83732514237585 172.209517756016 L 144 168 L 133.83732514237585 163.790482243984" stroke-miterlimit="10"></path></g><g transform="translate(2,2) scale(1,1)"><g><path fill="none" stroke="none"></path><text fill="#000000" stroke="none" font-family="Roboto" font-size="13px" font-style="normal" font-weight="normal" text-decoration="none" x="91.5" y="187.5">patient</text></g></g><g transform="translate(2,2) scale(1,1)"><path fill="#ffffff" stroke="none" d="M 162 80 L 201 80 Q 211 80 211 90 L 211 109 Q 211 119 201 119 L 162 119 Q 152 119 152 109 L 152 90 Q 152 80 162 80 Z"></path></g><g transform="translate(2,2) scale(1,1)"><path fill="none" stroke="#000000" d="M 162 80 L 201 80 Q 211 80 211 90 L 211 109 Q 211 119 201 119 L 162 119 Q 152 119 152 109 L 152 90 Q 152 80 162 80 Z" stroke-miterlimit="10"></path></g><g transform="translate(2,2) scale(1,1)"><g><path fill="none" stroke="none"></path><text fill="#000000" stroke="none" font-family="Roboto" font-size="13px" font-style="normal" font-weight="bold" text-decoration="none" x="167.5" y="99.5">Mary</text></g></g><g transform="translate(2,2) scale(1,1)"><path fill="#ffffff" stroke="none" d="M 290 80 L 333 80 Q 343 80 343 90 L 343 109 Q 343 119 333 119 L 290 119 Q 280 119 280 109 L 280 90 Q 280 80 290 80 Z"></path></g><g transform="translate(2,2) scale(1,1)"><path fill="none" stroke="#000000" d="M 290 80 L 333 80 Q 343 80 343 90 L 343 109 Q 343 119 333 119 L 290 119 Q 280 119 280 109 L 280 90 Q 280 80 290 80 Z" stroke-miterlimit="10"></path></g><g transform="translate(2,2) scale(1,1)"><g><path fill="none" stroke="none"></path><text fill="#000000" stroke="none" font-family="Roboto" font-size="13px" font-style="normal" font-weight="normal" text-decoration="none" x="284.5" y="97.5">«relation»</text></g></g><g transform="translate(2,2) scale(1,1)"><g><path fill="none" stroke="none"></path><text fill="#000000" stroke="none" font-family="Roboto" font-size="13px" font-style="normal" font-weight="bold" text-decoration="none" x="297.5" y="112.5">want</text></g></g><g transform="translate(2,2) scale(1,1)"><path fill="#ffffff" stroke="none" d="M 162 144 L 350 144 Q 360 144 360 154 L 360 238 Q 360 248 350 248 L 162 248 Q 152 248 152 238 L 152 154 Q 152 144 162 144 Z"></path></g><g transform="translate(2,2) scale(1,1)"><path fill="none" stroke="#000000" d="M 162 144 L 350 144 Q 360 144 360 154 L 360 238 Q 360 248 350 248 L 162 248 Q 152 248 152 238 L 152 154 Q 152 144 162 144 Z" stroke-miterlimit="10"></path></g><g transform="translate(2,2) scale(1,1)"><path fill="none" stroke="#000000" d="M 152 169 L 360 169" stroke-miterlimit="10"></path></g><g transform="translate(2,2) scale(1,1)"><g><path fill="none" stroke="none"></path><text fill="#000000" stroke="none" font-family="Roboto" font-size="13px" font-style="normal" font-weight="bold" text-decoration="none" x="188.5" y="163.5">POSITIVE POSSIBILITY</text></g></g><g transform="translate(2,2) scale(1,1)"><path fill="#ffffff" stroke="none" d="M 170 200 L 213 200 Q 223 200 223 210 L 223 229 Q 223 239 213 239 L 170 239 Q 160 239 160 229 L 160 210 Q 160 200 170 200 Z"></path></g><g transform="translate(2,2) scale(1,1)"><path fill="none" stroke="#000000" d="M 170 200 L 213 200 Q 223 200 223 210 L 223 229 Q 223 239 213 239 L 170 239 Q 160 239 160 229 L 160 210 Q 160 200 170 200 Z" stroke-miterlimit="10"></path></g><g transform="translate(2,2) scale(1,1)"><g><path fill="none" stroke="none"></path><text fill="#000000" stroke="none" font-family="Roboto" font-size="13px" font-style="normal" font-weight="normal" text-decoration="none" x="164.5" y="217.5">«relation»</text></g></g><g transform="translate(2,2) scale(1,1)"><g><path fill="none" stroke="none"></path><text fill="#000000" stroke="none" font-family="Roboto" font-size="13px" font-style="normal" font-weight="bold" text-decoration="none" x="175.5" y="232.5">marry</text></g></g><g transform="translate(2,2) scale(1,1)"><path fill="#ffffff" stroke="none" d="M 298 200 L 337 200 Q 347 200 347 210 L 347 229 Q 347 239 337 239 L 298 239 Q 288 239 288 229 L 288 210 Q 288 200 298 200 Z"></path></g><g transform="translate(2,2) scale(1,1)"><path fill="none" stroke="#000000" d="M 298 200 L 337 200 Q 347 200 347 210 L 347 229 Q 347 239 337 239 L 298 239 Q 288 239 288 229 L 288 210 Q 288 200 298 200 Z" stroke-miterlimit="10"></path></g><g transform="translate(2,2) scale(1,1)"><g><path fill="none" stroke="none"></path><text fill="#000000" stroke="none" font-family="Roboto" font-size="13px" font-style="normal" font-weight="bold" text-decoration="none" x="302" y="219.5">sailor</text></g></g><g transform="translate(2,2) scale(1,1)"><path fill="none" stroke="#000000" d="M 181 200 L 181 119" stroke-miterlimit="10"></path></g><g transform="translate(2,2) scale(1,1)"><path fill="none" stroke="#000000" d="M 185.209517756016 129.16267485762415 L 181 119 L 176.790482243984 129.16267485762415" stroke-miterlimit="10"></path></g><g transform="translate(2,2) scale(1,1)"><g><path fill="none" stroke="none"></path><text fill="#000000" stroke="none" font-family="Roboto" font-size="13px" font-style="normal" font-weight="normal" text-decoration="none" x="182.5" y="187.5">agent</text></g></g><g transform="translate(2,2) scale(1,1)"><path fill="none" stroke="#000000" d="M 312 119 L 312 144" stroke-miterlimit="10"></path></g><g transform="translate(2,2) scale(1,1)"><path fill="none" stroke="#000000" d="M 307.790482243984 133.83732514237585 L 312 144 L 316.209517756016 133.83732514237585" stroke-miterlimit="10"></path></g><g transform="translate(2,2) scale(1,1)"><g><path fill="none" stroke="none"></path><text fill="#000000" stroke="none" font-family="Roboto" font-size="13px" font-style="normal" font-weight="normal" text-decoration="none" x="320.5" y="136.5">patient</text></g></g><g transform="translate(2,2) scale(1,1)"><path fill="none" stroke="#000000" d="M 223 223 L 288 223" stroke-miterlimit="10"></path></g><g transform="translate(2,2) scale(1,1)"><path fill="none" stroke="#000000" d="M 277.83732514237585 227.209517756016 L 288 223 L 277.83732514237585 218.790482243984" stroke-miterlimit="10"></path></g><g transform="translate(2,2) scale(1,1)"><g><path fill="none" stroke="none"></path><text fill="#000000" stroke="none" font-family="Roboto" font-size="13px" font-style="normal" font-weight="normal" text-decoration="none" x="235.5" y="214.5">patient</text></g></g></g></svg>