<svg version="1.1" xmlns="http://www.w3.org/2000/svg" xmlns:xlink="http://www.w3.org/1999/xlink" width="364" height="244"><defs/><g><g transform="translate(-14,-14) scale(1,1)"><path fill="#ffffff" stroke="none" d="M 34 24 L 166 24 Q 176 24 176 34 L 176 110 Q 176 120 166 120 L 34 120 Q 24 120 24 110 L 24 34 Q 24 24 34 24 Z"/></g><g transform="translate(-14,-14) scale(1,1)"><path fill="none" stroke="#000000" d="M 34 24 L 166 24 Q 176 24 176 34 L 176 110 Q 176 120 166 120 L 34 120 Q 24 120 24 110 L 24 34 Q 24 24 34 24 Z" stroke-miterlimit="10"/></g><g transform="translate(-14,-14) scale(1,1)"><path fill="none" stroke="#000000" d="M 24 49 L 176 49" stroke-miterlimit="10"/></g><g transform="translate(-14,-14) scale(1,1)"><g><path fill="none" stroke="none"/><text fill="#000000" stroke="none" font-family="Roboto" font-size="13px" font-style="normal" font-weight="bold" text-decoration="none" x="46.41943359375" y="43.5">POSITIVE ACTUAL</text></g></g><g transform="translate(-14,-14) scale(1,1)"><path fill="#ffffff" stroke="none" d="M 81 64 L 120 64 Q 130 64 130 74 L 130 93 Q 130 103 120 103 L 81 103 Q 71 103 71 93 L 71 74 Q 71 64 81 64 Z"/></g><g transform="translate(-14,-14) scale(1,1)"><path fill="none" stroke="#000000" d="M 81 64 L 120 64 Q 130 64 130 74 L 130 93 Q 130 103 120 103 L 81 103 Q 71 103 71 93 L 71 74 Q 71 64 81 64 Z" stroke-miterlimit="10"/></g><g transform="translate(-14,-14) scale(1,1)"><g><path fill="none" stroke="none"/><text fill="#000000" stroke="none" font-family="Roboto" font-size="13px" font-style="normal" font-weight="bold" text-decoration="none" x="96.4248046875" y="83.5">X</text></g></g><g transform="translate(-14,-14) scale(1,1)"><path fill="#ffffff" stroke="none" d="M 34 152 L 165 152 Q 175 152 175 162 L 175 238 Q 175 248 165 248 L 34 248 Q 24 248 24 238 L 24 162 Q 24 152 34 152 Z"/></g><g transform="translate(-14,-14) scale(1,1)"><path fill="none" stroke="#000000" d="M 34 152 L 165 152 Q 175 152 175 162 L 175 238 Q 175 248 165 248 L 34 248 Q 24 248 24 238 L 24 162 Q 24 152 34 152 Z" stroke-miterlimit="10"/></g><g transform="translate(-14,-14) scale(1,1)"><path fill="none" stroke="#000000" d="M 24 177 L 175 177" stroke-miterlimit="10"/></g><g transform="translate(-14,-14) scale(1,1)"><g><path fill="none" stroke="none"/><text fill="#000000" stroke="none" font-family="Roboto" font-size="13px" font-style="normal" font-weight="bold" text-decoration="none" x="43.116943359375" y="171.5">NEGATIVE ACTUAL</text></g></g><g transform="translate(-14,-14) scale(1,1)"><path fill="#ffffff" stroke="none" d="M 82 192 L 121 192 Q 131 192 131 202 L 131 221 Q 131 231 121 231 L 82 231 Q 72 231 72 221 L 72 202 Q 72 192 82 192 Z"/></g><g transform="translate(-14,-14) scale(1,1)"><path fill="none" stroke="#000000" d="M 82 192 L 121 192 Q 131 192 131 202 L 131 221 Q 131 231 121 231 L 82 231 Q 72 231 72 221 L 72 202 Q 72 192 82 192 Z" stroke-miterlimit="10"/></g><g transform="translate(-14,-14) scale(1,1)"><g><path fill="none" stroke="none"/><text fill="#000000" stroke="none" font-family="Roboto" font-size="13px" font-style="normal" font-weight="bold" text-decoration="none" x="97.4248046875" y="211.5">X</text></g></g><g transform="translate(-14,-14) scale(1,1)"><path fill="#ffffff" stroke="none" d="M 226 24 L 358 24 Q 368 24 368 34 L 368 109 Q 368 119 358 119 L 226 119 Q 216 119 216 109 L 216 34 Q 216 24 226 24 Z"/></g><g transform="translate(-14,-14) scale(1,1)"><path fill="none" stroke="#000000" d="M 226 24 L 358 24 Q 368 24 368 34 L 368 109 Q 368 119 358 119 L 226 119 Q 216 119 216 109 L 216 34 Q 216 24 226 24 Z" stroke-miterlimit="10"/></g><g transform="translate(-14,-14) scale(1,1)"><path fill="none" stroke="#000000" d="M 216 49 L 368 49" stroke-miterlimit="10"/></g><g transform="translate(-14,-14) scale(1,1)"><g><path fill="none" stroke="none"/><text fill="#000000" stroke="none" font-family="Roboto" font-size="13px" font-style="normal" font-weight="bold" text-decoration="none" x="225.809814453125" y="43.5">POSITIVE POSSIBILITY</text></g></g><g transform="translate(-14,-14) scale(1,1)"><path fill="#ffffff" stroke="none" d="M 226 152 L 358 152 Q 368 152 368 162 L 368 238 Q 368 248 358 248 L 226 248 Q 216 248 216 238 L 216 162 Q 216 152 226 152 Z"/></g><g transform="translate(-14,-14) scale(1,1)"><path fill="none" stroke="#000000" d="M 226 152 L 358 152 Q 368 152 368 162 L 368 238 Q 368 248 358 248 L 226 248 Q 216 248 216 238 L 216 162 Q 216 152 226 152 Z" stroke-miterlimit="10"/></g><g transform="translate(-14,-14) scale(1,1)"><path fill="none" stroke="#000000" d="M 216 177 L 368 177" stroke-miterlimit="10"/></g><g transform="translate(-14,-14) scale(1,1)"><g><path fill="none" stroke="none"/><text fill="#000000" stroke="none" font-family="Roboto" font-size="13px" font-style="normal" font-weight="bold" text-decoration="none" x="223.00732421875" y="171.5">NEGATIVE POSSIBILITY</text></g></g><g transform="translate(-14,-14) scale(1,1)"><path fill="#ffffff" stroke="none" d="M 274 64 L 313 64 Q 323 64 323 74 L 323 93 Q 323 103 313 103 L 274 103 Q 264 103 264 93 L 264 74 Q 264 64 274 64 Z"/></g><g transform="translate(-14,-14) scale(1,1)"><path fill="none" stroke="#000000" d="M 274 64 L 313 64 Q 323 64 323 74 L 323 93 Q 323 103 313 103 L 274 103 Q 264 103 264 93 L 264 74 Q 264 64 274 64 Z" stroke-miterlimit="10"/></g><g transform="translate(-14,-14) scale(1,1)"><g><path fill="none" stroke="none"/><text fill="#000000" stroke="none" font-family="Roboto" font-size="13px" font-style="normal" font-weight="bold" text-decoration="none" x="289.4248046875" y="83.5">X</text></g></g><g transform="translate(-14,-14) scale(1,1)"><path fill="#ffffff" stroke="none" d="M 274 192 L 313 192 Q 323 192 323 202 L 323 221 Q 323 231 313 231 L 274 231 Q 264 231 264 221 L 264 202 Q 264 192 274 192 Z"/></g><g transform="translate(-14,-14) scale(1,1)"><path fill="none" stroke="#000000" d="M 274 192 L 313 192 Q 323 192 323 202 L 323 221 Q 323 231 313 231 L 274 231 Q 264 231 264 221 L 264 202 Q 264 192 274 192 Z" stroke-miterlimit="10"/></g><g transform="translate(-14,-14) scale(1,1)"><g><path fill="none" stroke="none"/><text fill="#000000" stroke="none" font-family="Roboto" font-size="13px" font-style="normal" font-weight="bold" text-decoration="none" x="289.4248046875" y="211.5">X</text></g></g></g></svg>