<svg version="1.1" xmlns="http://www.w3.org/2000/svg" xmlns:xlink="http://www.w3.org/1999/xlink" width="657.05078125" height="123"><defs/><g><g transform="translate(2,-6) scale(1,1)"><path fill="#ffffff" stroke="none" d="M 18 48 L 59.05078125 48 Q 69.05078125 48 69.05078125 58 L 69.05078125 77 Q 69.05078125 87 59.05078125 87 L 18 87 Q 8 87 8 77 L 8 58 Q 8 48 18 48 Z"/></g><g transform="translate(2,-6) scale(1,1)"><path fill="none" stroke="#000000" d="M 18 48 L 59.05078125 48 Q 69.05078125 48 69.05078125 58 L 69.05078125 77 Q 69.05078125 87 59.05078125 87 L 18 87 Q 8 87 8 77 L 8 58 Q 8 48 18 48 Z" stroke-miterlimit="10"/></g><g transform="translate(2,-6) scale(1,1)"><g><path fill="none" stroke="none"/><text fill="#000000" stroke="none" font-family="Roboto" font-size="13px" font-style="normal" font-weight="normal" text-decoration="none" x="12.5" y="65.5">«named»</text></g></g><g transform="translate(2,-6) scale(1,1)"><g><path fill="none" stroke="none"/><text fill="#000000" stroke="none" font-family="Roboto" font-size="13px" font-style="normal" font-weight="bold" text-decoration="none" x="25.68408203125" y="80.5">time</text></g></g><g transform="translate(2,-6) scale(1,1)"><path fill="#ffffff" stroke="none" d="M 138 48 L 179.05078125 48 Q 189.05078125 48 189.05078125 58 L 189.05078125 77 Q 189.05078125 87 179.05078125 87 L 138 87 Q 128 87 128 77 L 128 58 Q 128 48 138 48 Z"/></g><g transform="translate(2,-6) scale(1,1)"><path fill="none" stroke="#000000" d="M 138 48 L 179.05078125 48 Q 189.05078125 48 189.05078125 58 L 189.05078125 77 Q 189.05078125 87 179.05078125 87 L 138 87 Q 128 87 128 77 L 128 58 Q 128 48 138 48 Z" stroke-miterlimit="10"/></g><g transform="translate(2,-6) scale(1,1)"><g><path fill="none" stroke="none"/><text fill="#000000" stroke="none" font-family="Roboto" font-size="13px" font-style="normal" font-weight="normal" text-decoration="none" x="132.5" y="65.5">«named»</text></g></g><g transform="translate(2,-6) scale(1,1)"><g><path fill="none" stroke="none"/><text fill="#000000" stroke="none" font-family="Roboto" font-size="13px" font-style="normal" font-weight="bold" text-decoration="none" x="145.757080078125" y="80.5">date</text></g></g><g transform="translate(2,-6) scale(1,1)"><path fill="#ffffff" stroke="none" d="M 226 48 L 267.05078125 48 Q 277.05078125 48 277.05078125 58 L 277.05078125 77 Q 277.05078125 87 267.05078125 87 L 226 87 Q 216 87 216 77 L 216 58 Q 216 48 226 48 Z"/></g><g transform="translate(2,-6) scale(1,1)"><path fill="none" stroke="#000000" d="M 226 48 L 267.05078125 48 Q 277.05078125 48 277.05078125 58 L 277.05078125 77 Q 277.05078125 87 267.05078125 87 L 226 87 Q 216 87 216 77 L 216 58 Q 216 48 226 48 Z" stroke-miterlimit="10"/></g><g transform="translate(2,-6) scale(1,1)"><g><path fill="none" stroke="none"/><text fill="#000000" stroke="none" font-family="Roboto" font-size="13px" font-style="normal" font-weight="normal" text-decoration="none" x="220.5" y="65.5">«named»</text></g></g><g transform="translate(2,-6) scale(1,1)"><g><path fill="none" stroke="none"/><text fill="#000000" stroke="none" font-family="Roboto" font-size="13px" font-style="normal" font-weight="bold" text-decoration="none" x="244.757568359375" y="80.5">I</text></g></g><g transform="translate(2,-6) scale(1,1)"><path fill="#ffffff" stroke="none" d="M 346 16 L 387.05078125 16 Q 397.05078125 16 397.05078125 26 L 397.05078125 45 Q 397.05078125 55 387.05078125 55 L 346 55 Q 336 55 336 45 L 336 26 Q 336 16 346 16 Z"/></g><g transform="translate(2,-6) scale(1,1)"><path fill="none" stroke="#000000" d="M 346 16 L 387.05078125 16 Q 397.05078125 16 397.05078125 26 L 397.05078125 45 Q 397.05078125 55 387.05078125 55 L 346 55 Q 336 55 336 45 L 336 26 Q 336 16 346 16 Z" stroke-miterlimit="10"/></g><g transform="translate(2,-6) scale(1,1)"><g><path fill="none" stroke="none"/><text fill="#000000" stroke="none" font-family="Roboto" font-size="13px" font-style="normal" font-weight="normal" text-decoration="none" x="340.5" y="33.5">«named»</text></g></g><g transform="translate(2,-6) scale(1,1)"><g><path fill="none" stroke="none"/><text fill="#000000" stroke="none" font-family="Roboto" font-size="13px" font-style="normal" font-weight="bold" text-decoration="none" x="357.7529296875" y="48.5">my</text></g></g><g transform="translate(2,-6) scale(1,1)"><path fill="#ffffff" stroke="none" d="M 346 80 L 387.05078125 80 Q 397.05078125 80 397.05078125 90 L 397.05078125 109 Q 397.05078125 119 387.05078125 119 L 346 119 Q 336 119 336 109 L 336 90 Q 336 80 346 80 Z"/></g><g transform="translate(2,-6) scale(1,1)"><path fill="none" stroke="#000000" d="M 346 80 L 387.05078125 80 Q 397.05078125 80 397.05078125 90 L 397.05078125 109 Q 397.05078125 119 387.05078125 119 L 346 119 Q 336 119 336 109 L 336 90 Q 336 80 346 80 Z" stroke-miterlimit="10"/></g><g transform="translate(2,-6) scale(1,1)"><g><path fill="none" stroke="none"/><text fill="#000000" stroke="none" font-family="Roboto" font-size="13px" font-style="normal" font-weight="normal" text-decoration="none" x="340.5" y="97.5">«named»</text></g></g><g transform="translate(2,-6) scale(1,1)"><g><path fill="none" stroke="none"/><text fill="#000000" stroke="none" font-family="Roboto" font-size="13px" font-style="normal" font-weight="bold" text-decoration="none" x="358.197265625" y="112.5">we</text></g></g><g transform="translate(2,-6) scale(1,1)"><path fill="#ffffff" stroke="none" d="M 442 48 L 513.748046875 48 Q 523.748046875 48 523.748046875 58 L 523.748046875 77 Q 523.748046875 87 513.748046875 87 L 442 87 Q 432 87 432 77 L 432 58 Q 432 48 442 48 Z"/></g><g transform="translate(2,-6) scale(1,1)"><path fill="none" stroke="#000000" d="M 442 48 L 513.748046875 48 Q 523.748046875 48 523.748046875 58 L 523.748046875 77 Q 523.748046875 87 513.748046875 87 L 442 87 Q 432 87 432 77 L 432 58 Q 432 48 442 48 Z" stroke-miterlimit="10"/></g><g transform="translate(2,-6) scale(1,1)"><g><path fill="none" stroke="none"/><text fill="#000000" stroke="none" font-family="Roboto" font-size="13px" font-style="normal" font-weight="bold" text-decoration="none" x="436.884033203125" y="67.5">uncombinable</text></g></g><g transform="translate(2,-6) scale(1,1)"><path fill="#ffffff" stroke="none" d="M 594 48 L 635.05078125 48 Q 645.05078125 48 645.05078125 58 L 645.05078125 77 Q 645.05078125 87 635.05078125 87 L 594 87 Q 584 87 584 77 L 584 58 Q 584 48 594 48 Z"/></g><g transform="translate(2,-6) scale(1,1)"><path fill="none" stroke="#000000" d="M 594 48 L 635.05078125 48 Q 645.05078125 48 645.05078125 58 L 645.05078125 77 Q 645.05078125 87 635.05078125 87 L 594 87 Q 584 87 584 77 L 584 58 Q 584 48 594 48 Z" stroke-miterlimit="10"/></g><g transform="translate(2,-6) scale(1,1)"><g><path fill="none" stroke="none"/><text fill="#000000" stroke="none" font-family="Roboto" font-size="13px" font-style="normal" font-weight="normal" text-decoration="none" x="588.5" y="65.5">«named»</text></g></g><g transform="translate(2,-6) scale(1,1)"><g><path fill="none" stroke="none"/><text fill="#000000" stroke="none" font-family="Roboto" font-size="13px" font-style="normal" font-weight="bold" text-decoration="none" x="594.590576171875" y="80.5">person</text></g></g><g transform="translate(2,-6) scale(1,1)"><path fill="none" stroke="#000000" d="M 69 67 L 128 67" stroke-miterlimit="10"/></g><g transform="translate(2,-6) scale(1,1)"><path fill="none" stroke="#000000" d="M 117.83732514237585 71.20951775601598 L 128 67 L 117.83732514237585 62.790482243984016" stroke-miterlimit="10"/></g><g transform="translate(2,-6) scale(1,1)"><g><path fill="none" stroke="none"/><text fill="#000000" stroke="none" font-family="Roboto" font-size="13px" font-style="normal" font-weight="normal" text-decoration="none" x="87.5" y="58.5">inst</text></g></g><g transform="translate(2,-6) scale(1,1)"><path fill="none" stroke="#000000" d="M 248 48 L 248 32 L 336 32" stroke-miterlimit="10"/></g><g transform="translate(2,-6) scale(1,1)"><path fill="none" stroke="#000000" d="M 325.83732514237585 36.20951775601599 L 336 32 L 325.83732514237585 27.790482243984012" stroke-miterlimit="10"/></g><g transform="translate(2,-6) scale(1,1)"><g><path fill="none" stroke="none"/><text fill="#000000" stroke="none" font-family="Roboto" font-size="13px" font-style="normal" font-weight="normal" text-decoration="none" x="287.5" y="51.5">inst</text></g></g><g transform="translate(2,-6) scale(1,1)"><path fill="none" stroke="#000000" d="M 246 87 L 246 104 L 336 104" stroke-miterlimit="10"/></g><g transform="translate(2,-6) scale(1,1)"><path fill="none" stroke="#000000" d="M 325.83732514237585 108.20951775601598 L 336 104 L 325.83732514237585 99.79048224398402" stroke-miterlimit="10"/></g><g transform="translate(2,-6) scale(1,1)"><g><path fill="none" stroke="none"/><text fill="#000000" stroke="none" font-family="Roboto" font-size="13px" font-style="normal" font-weight="normal" text-decoration="none" x="287.5" y="100.5">inst</text></g></g><g transform="translate(2,-6) scale(1,1)"><path fill="none" stroke="#000000" d="M 524 67 L 584 67" stroke-miterlimit="10"/></g><g transform="translate(2,-6) scale(1,1)"><path fill="none" stroke="#000000" d="M 573.8373251423759 71.20951775601598 L 584 67 L 573.8373251423758 62.790482243984016" stroke-miterlimit="10"/></g><g transform="translate(2,-6) scale(1,1)"><g><path fill="none" stroke="none"/><text fill="#000000" stroke="none" font-family="Roboto" font-size="13px" font-style="normal" font-weight="normal" text-decoration="none" x="543.5" y="58.5">inst</text></g></g></g></svg>