<svg version="1.1" xmlns="http://www.w3.org/2000/svg" xmlns:xlink="http://www.w3.org/1999/xlink" width="191" height="61"><defs/><g><g transform="translate(-14,-12) scale(1,1)"><path fill="#ffffff" stroke="none" d="M 146 24 L 185 24 Q 195 24 195 34 L 195 53 Q 195 63 185 63 L 146 63 Q 136 63 136 53 L 136 34 Q 136 24 146 24 Z"/></g><g transform="translate(-14,-12) scale(1,1)"><path fill="none" stroke="#000000" d="M 146 24 L 185 24 Q 195 24 195 34 L 195 53 Q 195 63 185 63 L 146 63 Q 136 63 136 53 L 136 34 Q 136 24 146 24 Z" stroke-miterlimit="10"/></g><g transform="translate(-14,-12) scale(1,1)"><g><path fill="none" stroke="none"/><text fill="#000000" stroke="none" font-family="Roboto" font-size="13px" font-style="normal" font-weight="bold" text-decoration="none" x="151.144775390625" y="43.5">book</text></g></g><g transform="translate(-14,-12) scale(1,1)"><path fill="#ffffff" stroke="none" d="M 34 24 L 73 24 Q 83 24 83 34 L 83 53 Q 83 63 73 63 L 34 63 Q 24 63 24 53 L 24 34 Q 24 24 34 24 Z"/></g><g transform="translate(-14,-12) scale(1,1)"><path fill="none" stroke="#000000" d="M 34 24 L 73 24 Q 83 24 83 34 L 83 53 Q 83 63 73 63 L 34 63 Q 24 63 24 53 L 24 34 Q 24 24 34 24 Z" stroke-miterlimit="10"/></g><g transform="translate(-14,-12) scale(1,1)"><g><path fill="none" stroke="none"/><text fill="#000000" stroke="none" font-family="Roboto" font-size="13px" font-style="normal" font-weight="bold" text-decoration="none" x="38.7734375" y="43.5">good</text></g></g><g transform="translate(-14,-12) scale(1,1)"><path fill="none" stroke="#b33535" d="M 83 43 L 136 43" stroke-miterlimit="10"/></g><g transform="translate(-14,-12) scale(1,1)"><path fill="none" stroke="#b33535" d="M 125.83732514237585 47.20951775601599 L 136 43 L 125.83732514237585 38.790482243984016" stroke-miterlimit="10"/></g><g transform="translate(-14,-12) scale(1,1)"><g><path fill="none" stroke="none"/><text fill="#b33535" stroke="none" font-family="Roboto" font-size="13px" font-style="normal" font-weight="normal" text-decoration="none" x="98.5" y="34.5">inst</text></g></g></g></svg>