<svg version="1.1" xmlns="http://www.w3.org/2000/svg" xmlns:xlink="http://www.w3.org/1999/xlink" width="79" height="59"><defs/><g><g transform="translate(-6,-6) scale(1,1)"><path fill="#ffffff" stroke="none" d="M 26 16 L 65 16 Q 75 16 75 26 L 75 45 Q 75 55 65 55 L 26 55 Q 16 55 16 45 L 16 26 Q 16 16 26 16 Z"/></g><g transform="translate(-6,-6) scale(1,1)"><path fill="none" stroke="#000000" d="M 26 16 L 65 16 Q 75 16 75 26 L 75 45 Q 75 55 65 55 L 26 55 Q 16 55 16 45 L 16 26 Q 16 16 26 16 Z" stroke-miterlimit="10"/></g><g transform="translate(-6,-6) scale(1,1)"><g><path fill="none" stroke="none"/><text fill="#b33535" stroke="none" font-family="Roboto" font-size="13px" font-style="normal" font-weight="bold" text-decoration="none" x="31.144775390625" y="35.5">book</text></g></g></g></svg>