<svg version="1.1" xmlns="http://www.w3.org/2000/svg" xmlns:xlink="http://www.w3.org/1999/xlink" width="486" height="100"><defs></defs><g><g transform="translate(2,2) scale(1,1)"><path fill="#ffffff" stroke="none" d="M 122 8 L 358 8 Q 368 8 368 18 L 368 78 Q 368 88 358 88 L 122 88 Q 112 88 112 78 L 112 18 Q 112 8 122 8 Z"></path></g><g transform="translate(2,2) scale(1,1)"><path fill="none" stroke="#000000" d="M 122 8 L 358 8 Q 368 8 368 18 L 368 78 Q 368 88 358 88 L 122 88 Q 112 88 112 78 L 112 18 Q 112 8 122 8 Z" stroke-miterlimit="10"></path></g><g transform="translate(2,2) scale(1,1)"><path fill="none" stroke="#000000" d="M 112 33 L 368 33" stroke-miterlimit="10"></path></g><g transform="translate(2,2) scale(1,1)"><g><path fill="none" stroke="none"></path><text fill="#000000" stroke="none" font-family="Roboto" font-size="13px" font-style="normal" font-weight="bold" text-decoration="none" x="172.5" y="27.5">POSITIVE POSSIBILITY</text></g></g><g transform="translate(2,2) scale(1,1)"><path fill="#ffffff" stroke="none" d="M 274 40 L 318 40 Q 328 40 328 50 L 328 69 Q 328 79 318 79 L 274 79 Q 264 79 264 69 L 264 50 Q 264 40 274 40 Z"></path></g><g transform="translate(2,2) scale(1,1)"><path fill="none" stroke="#000000" d="M 274 40 L 318 40 Q 328 40 328 50 L 328 69 Q 328 79 318 79 L 274 79 Q 264 79 264 69 L 264 50 Q 264 40 274 40 Z" stroke-miterlimit="10"></path></g><g transform="translate(2,2) scale(1,1)"><g><path fill="none" stroke="none"></path><text fill="#000000" stroke="none" font-family="Roboto" font-size="13px" font-style="normal" font-weight="bold" text-decoration="none" x="284" y="59.5">blue</text></g></g><g transform="translate(2,2) scale(1,1)"><path fill="none" stroke="#000000" d="M 263 59 L 217 59" stroke-miterlimit="10"></path></g><g transform="translate(2,2) scale(1,1)"><path fill="none" stroke="#000000" d="M 227.16267485762415 54.790482243984016 L 217 59 L 227.16267485762415 63.209517756015984" stroke-miterlimit="10"></path></g><g transform="translate(2,2) scale(1,1)"><g><path fill="none" stroke="none"></path><text fill="#000000" stroke="none" font-family="Roboto" font-size="13px" font-style="normal" font-weight="normal" text-decoration="none" x="234.5" y="75.5">inst</text></g></g><g transform="translate(2,2) scale(1,1)"><path fill="#ffffff" stroke="none" d="M 162 40 L 206 40 Q 216 40 216 50 L 216 69 Q 216 79 206 79 L 162 79 Q 152 79 152 69 L 152 50 Q 152 40 162 40 Z"></path></g><g transform="translate(2,2) scale(1,1)"><path fill="none" stroke="#000000" d="M 162 40 L 206 40 Q 216 40 216 50 L 216 69 Q 216 79 206 79 L 162 79 Q 152 79 152 69 L 152 50 Q 152 40 162 40 Z" stroke-miterlimit="10"></path></g><g transform="translate(2,2) scale(1,1)"><g><path fill="none" stroke="none"></path><text fill="#000000" stroke="none" font-family="Roboto" font-size="13px" font-style="normal" font-weight="bold" text-decoration="none" x="169.5" y="59.5">truck</text></g></g><g transform="translate(2,2) scale(1,1)"><path fill="#ffffff" stroke="none" d="M 18 40 L 96 40 Q 106 40 106 50 L 106 69 Q 106 79 96 79 L 18 79 Q 8 79 8 69 L 8 50 Q 8 40 18 40 Z"></path></g><g transform="translate(2,2) scale(1,1)"><path fill="none" stroke="#000000" d="M 18 40 L 96 40 Q 106 40 106 50 L 106 69 Q 106 79 96 79 L 18 79 Q 8 79 8 69 L 8 50 Q 8 40 18 40 Z" stroke-miterlimit="10"></path></g><g transform="translate(2,2) scale(1,1)"><g><path fill="none" stroke="none"></path><text fill="#000000" stroke="none" font-family="Roboto" font-size="13px" font-style="normal" font-weight="normal" text-decoration="none" x="12.5" y="57.5">«latent, named»</text></g></g><g transform="translate(2,2) scale(1,1)"><g><path fill="none" stroke="none"></path><text fill="#000000" stroke="none" font-family="Roboto" font-size="13px" font-style="normal" font-weight="bold" text-decoration="none" x="42.5" y="72.5">truck</text></g></g><g transform="translate(2,2) scale(1,1)"><path fill="#ffffff" stroke="none" d="M 386 40 L 464 40 Q 474 40 474 50 L 474 69 Q 474 79 464 79 L 386 79 Q 376 79 376 69 L 376 50 Q 376 40 386 40 Z"></path></g><g transform="translate(2,2) scale(1,1)"><path fill="none" stroke="#000000" d="M 386 40 L 464 40 Q 474 40 474 50 L 474 69 Q 474 79 464 79 L 386 79 Q 376 79 376 69 L 376 50 Q 376 40 386 40 Z" stroke-miterlimit="10"></path></g><g transform="translate(2,2) scale(1,1)"><g><path fill="none" stroke="none"></path><text fill="#000000" stroke="none" font-family="Roboto" font-size="13px" font-style="normal" font-weight="normal" text-decoration="none" x="380.5" y="57.5">«latent, named»</text></g></g><g transform="translate(2,2) scale(1,1)"><g><path fill="none" stroke="none"></path><text fill="#000000" stroke="none" font-family="Roboto" font-size="13px" font-style="normal" font-weight="bold" text-decoration="none" x="413" y="72.5">blue</text></g></g><g transform="translate(2,2) scale(1,1)"><path fill="none" stroke="#000000" d="M 107 59 L 151 59" stroke-miterlimit="10"></path></g><g transform="translate(2,2) scale(1,1)"><path fill="none" stroke="#000000" d="M 140.83732514237585 63.20951775601599 L 151 59 L 140.83732514237585 54.790482243984016" stroke-miterlimit="10"></path></g><g transform="translate(2,2) scale(1,1)"><g><path fill="none" stroke="none"></path><text fill="#000000" stroke="none" font-family="Roboto" font-size="13px" font-style="normal" font-weight="normal" text-decoration="none" x="118.5" y="75.5">inst</text></g></g><g transform="translate(2,2) scale(1,1)"><path fill="none" stroke="#000000" d="M 375 59 L 329 59" stroke-miterlimit="10"></path></g><g transform="translate(2,2) scale(1,1)"><path fill="none" stroke="#000000" d="M 339.16267485762415 54.790482243984016 L 329 59 L 339.16267485762415 63.209517756015984" stroke-miterlimit="10"></path></g><g transform="translate(2,2) scale(1,1)"><g><path fill="none" stroke="none"></path><text fill="#000000" stroke="none" font-family="Roboto" font-size="13px" font-style="normal" font-weight="normal" text-decoration="none" x="340.5" y="76.5">inst</text></g></g></g></svg>