<svg version="1.1" xmlns="http://www.w3.org/2000/svg" xmlns:xlink="http://www.w3.org/1999/xlink" width="420" height="100"><defs></defs><g><g transform="translate(2,2) scale(1,1)"><path fill="#ffffff" stroke="none" d="M 90 8 L 326 8 Q 336 8 336 18 L 336 78 Q 336 88 326 88 L 90 88 Q 80 88 80 78 L 80 18 Q 80 8 90 8 Z"></path></g><g transform="translate(2,2) scale(1,1)"><path fill="none" stroke="#000000" d="M 90 8 L 326 8 Q 336 8 336 18 L 336 78 Q 336 88 326 88 L 90 88 Q 80 88 80 78 L 80 18 Q 80 8 90 8 Z" stroke-miterlimit="10"></path></g><g transform="translate(2,2) scale(1,1)"><path fill="none" stroke="#000000" d="M 80 33 L 336 33" stroke-miterlimit="10"></path></g><g transform="translate(2,2) scale(1,1)"><g><path fill="none" stroke="none"></path><text fill="#000000" stroke="none" font-family="Roboto" font-size="13px" font-style="normal" font-weight="bold" text-decoration="none" x="140.5" y="27.5">POSITIVE POSSIBILITY</text></g></g><g transform="translate(2,2) scale(1,1)"><path fill="#ffffff" stroke="none" d="M 242 40 L 286 40 Q 296 40 296 50 L 296 69 Q 296 79 286 79 L 242 79 Q 232 79 232 69 L 232 50 Q 232 40 242 40 Z"></path></g><g transform="translate(2,2) scale(1,1)"><path fill="none" stroke="#000000" d="M 242 40 L 286 40 Q 296 40 296 50 L 296 69 Q 296 79 286 79 L 242 79 Q 232 79 232 69 L 232 50 Q 232 40 242 40 Z" stroke-miterlimit="10"></path></g><g transform="translate(2,2) scale(1,1)"><g><path fill="none" stroke="none"></path><text fill="#000000" stroke="none" font-family="Roboto" font-size="13px" font-style="normal" font-weight="bold" text-decoration="none" x="252" y="59.5">blue</text></g></g><g transform="translate(2,2) scale(1,1)"><path fill="none" stroke="#000000" d="M 231 59 L 185 59" stroke-miterlimit="10"></path></g><g transform="translate(2,2) scale(1,1)"><path fill="none" stroke="#000000" d="M 195.16267485762415 54.790482243984016 L 185 59 L 195.16267485762415 63.209517756015984" stroke-miterlimit="10"></path></g><g transform="translate(2,2) scale(1,1)"><g><path fill="none" stroke="none"></path><text fill="#000000" stroke="none" font-family="Roboto" font-size="13px" font-style="normal" font-weight="normal" text-decoration="none" x="202.5" y="75.5">inst</text></g></g><g transform="translate(2,2) scale(1,1)"><path fill="#ffffff" stroke="none" d="M 130 40 L 174 40 Q 184 40 184 50 L 184 69 Q 184 79 174 79 L 130 79 Q 120 79 120 69 L 120 50 Q 120 40 130 40 Z"></path></g><g transform="translate(2,2) scale(1,1)"><path fill="none" stroke="#000000" d="M 130 40 L 174 40 Q 184 40 184 50 L 184 69 Q 184 79 174 79 L 130 79 Q 120 79 120 69 L 120 50 Q 120 40 130 40 Z" stroke-miterlimit="10"></path></g><g transform="translate(2,2) scale(1,1)"><g><path fill="none" stroke="none"></path><text fill="#000000" stroke="none" font-family="Roboto" font-size="13px" font-style="normal" font-weight="bold" text-decoration="none" x="137.5" y="59.5">truck</text></g></g><g transform="translate(2,2) scale(1,1)"><path fill="#ffffff" stroke="none" d="M 18 40 L 62 40 Q 72 40 72 50 L 72 69 Q 72 79 62 79 L 18 79 Q 8 79 8 69 L 8 50 Q 8 40 18 40 Z"></path></g><g transform="translate(2,2) scale(1,1)"><path fill="none" stroke="#000000" d="M 18 40 L 62 40 Q 72 40 72 50 L 72 69 Q 72 79 62 79 L 18 79 Q 8 79 8 69 L 8 50 Q 8 40 18 40 Z" stroke-miterlimit="10"></path></g><g transform="translate(2,2) scale(1,1)"><g><path fill="none" stroke="none"></path><text fill="#000000" stroke="none" font-family="Roboto" font-size="13px" font-style="normal" font-weight="normal" text-decoration="none" x="18" y="57.5">«latent»</text></g></g><g transform="translate(2,2) scale(1,1)"><g><path fill="none" stroke="none"></path><text fill="#000000" stroke="none" font-family="Roboto" font-size="13px" font-style="normal" font-weight="bold" text-decoration="none" x="25.5" y="72.5">truck</text></g></g><g transform="translate(2,2) scale(1,1)"><path fill="#ffffff" stroke="none" d="M 354 40 L 398 40 Q 408 40 408 50 L 408 69 Q 408 79 398 79 L 354 79 Q 344 79 344 69 L 344 50 Q 344 40 354 40 Z"></path></g><g transform="translate(2,2) scale(1,1)"><path fill="none" stroke="#000000" d="M 354 40 L 398 40 Q 408 40 408 50 L 408 69 Q 408 79 398 79 L 354 79 Q 344 79 344 69 L 344 50 Q 344 40 354 40 Z" stroke-miterlimit="10"></path></g><g transform="translate(2,2) scale(1,1)"><g><path fill="none" stroke="none"></path><text fill="#000000" stroke="none" font-family="Roboto" font-size="13px" font-style="normal" font-weight="normal" text-decoration="none" x="354" y="57.5">«latent»</text></g></g><g transform="translate(2,2) scale(1,1)"><g><path fill="none" stroke="none"></path><text fill="#000000" stroke="none" font-family="Roboto" font-size="13px" font-style="normal" font-weight="bold" text-decoration="none" x="364" y="72.5">blue</text></g></g><g transform="translate(2,2) scale(1,1)"><path fill="none" stroke="#000000" d="M 73 59 L 119 59" stroke-miterlimit="10"></path></g><g transform="translate(2,2) scale(1,1)"><path fill="none" stroke="#000000" d="M 108.83732514237585 63.20951775601599 L 119 59 L 108.83732514237585 54.790482243984016" stroke-miterlimit="10"></path></g><g transform="translate(2,2) scale(1,1)"><g><path fill="none" stroke="none"></path><text fill="#000000" stroke="none" font-family="Roboto" font-size="13px" font-style="normal" font-weight="normal" text-decoration="none" x="85.5" y="75.5">inst</text></g></g><g transform="translate(2,2) scale(1,1)"><path fill="none" stroke="#000000" d="M 343 59 L 297 59" stroke-miterlimit="10"></path></g><g transform="translate(2,2) scale(1,1)"><path fill="none" stroke="#000000" d="M 307.16267485762415 54.790482243984016 L 297 59 L 307.16267485762415 63.209517756015984" stroke-miterlimit="10"></path></g><g transform="translate(2,2) scale(1,1)"><g><path fill="none" stroke="none"></path><text fill="#000000" stroke="none" font-family="Roboto" font-size="13px" font-style="normal" font-weight="normal" text-decoration="none" x="308.5" y="76.5">inst</text></g></g></g></svg>