<svg version="1.1" xmlns="http://www.w3.org/2000/svg" xmlns:xlink="http://www.w3.org/1999/xlink" width="544" height="203"><defs></defs><g><g transform="translate(-22,-14) scale(1,1)"><path fill="#ffffff" stroke="none" d="M 386 168 L 425 168 Q 435 168 435 178 L 435 197 Q 435 207 425 207 L 386 207 Q 376 207 376 197 L 376 178 Q 376 168 386 168 Z"></path></g><g transform="translate(-22,-14) scale(1,1)"><path fill="none" stroke="#000000" d="M 386 168 L 425 168 Q 435 168 435 178 L 435 197 Q 435 207 425 207 L 386 207 Q 376 207 376 197 L 376 178 Q 376 168 386 168 Z" stroke-miterlimit="10"></path></g><g transform="translate(-22,-14) scale(1,1)"><g><path fill="none" stroke="none"></path><text fill="#000000" stroke="none" font-family="Roboto" font-size="13px" font-style="normal" font-weight="bold" text-decoration="none" x="402" y="187.5">E</text></g></g><g transform="translate(-22,-14) scale(1,1)"><path fill="#ffffff" stroke="none" d="M 42 88 L 82 88 Q 92 88 92 98 L 92 117 Q 92 127 82 127 L 42 127 Q 32 127 32 117 L 32 98 Q 32 88 42 88 Z"></path></g><g transform="translate(-22,-14) scale(1,1)"><path fill="none" stroke="#000000" d="M 42 88 L 82 88 Q 92 88 92 98 L 92 117 Q 92 127 82 127 L 42 127 Q 32 127 32 117 L 32 98 Q 32 88 42 88 Z" stroke-miterlimit="10"></path></g><g transform="translate(-22,-14) scale(1,1)"><g><path fill="none" stroke="none"></path><text fill="#000000" stroke="none" font-family="Roboto" font-size="13px" font-style="normal" font-weight="normal" text-decoration="none" x="36.5" y="105.5">«named»</text></g></g><g transform="translate(-22,-14) scale(1,1)"><g><path fill="none" stroke="none"></path><text fill="#000000" stroke="none" font-family="Roboto" font-size="13px" font-style="normal" font-weight="bold" text-decoration="none" x="58" y="120.5">S</text></g></g><g transform="translate(-22,-14) scale(1,1)"><path fill="#ffffff" stroke="none" d="M 506 88 L 546 88 Q 556 88 556 98 L 556 117 Q 556 127 546 127 L 506 127 Q 496 127 496 117 L 496 98 Q 496 88 506 88 Z"></path></g><g transform="translate(-22,-14) scale(1,1)"><path fill="none" stroke="#000000" d="M 506 88 L 546 88 Q 556 88 556 98 L 556 117 Q 556 127 546 127 L 506 127 Q 496 127 496 117 L 496 98 Q 496 88 506 88 Z" stroke-miterlimit="10"></path></g><g transform="translate(-22,-14) scale(1,1)"><g><path fill="none" stroke="none"></path><text fill="#000000" stroke="none" font-family="Roboto" font-size="13px" font-style="normal" font-weight="normal" text-decoration="none" x="500.5" y="105.5">«named»</text></g></g><g transform="translate(-22,-14) scale(1,1)"><g><path fill="none" stroke="none"></path><text fill="#000000" stroke="none" font-family="Roboto" font-size="13px" font-style="normal" font-weight="bold" text-decoration="none" x="522" y="120.5">R</text></g></g><g transform="translate(-22,-14) scale(1,1)"><path fill="#ffffff" stroke="none" d="M 146 88 L 189 88 Q 199 88 199 98 L 199 117 Q 199 127 189 127 L 146 127 Q 136 127 136 117 L 136 98 Q 136 88 146 88 Z"></path></g><g transform="translate(-22,-14) scale(1,1)"><path fill="none" stroke="#000000" d="M 146 88 L 189 88 Q 199 88 199 98 L 199 117 Q 199 127 189 127 L 146 127 Q 136 127 136 117 L 136 98 Q 136 88 146 88 Z" stroke-miterlimit="10"></path></g><g transform="translate(-22,-14) scale(1,1)"><g><path fill="none" stroke="none"></path><text fill="#000000" stroke="none" font-family="Roboto" font-size="13px" font-style="normal" font-weight="normal" text-decoration="none" x="140.5" y="105.5">«relation»</text></g></g><g transform="translate(-22,-14) scale(1,1)"><g><path fill="none" stroke="none"></path><text fill="#000000" stroke="none" font-family="Roboto" font-size="13px" font-style="normal" font-weight="bold" text-decoration="none" x="153.5" y="120.5">send</text></g></g><g transform="translate(-22,-14) scale(1,1)"><path fill="#ffffff" stroke="none" d="M 386 88 L 429 88 Q 439 88 439 98 L 439 117 Q 439 127 429 127 L 386 127 Q 376 127 376 117 L 376 98 Q 376 88 386 88 Z"></path></g><g transform="translate(-22,-14) scale(1,1)"><path fill="none" stroke="#000000" d="M 386 88 L 429 88 Q 439 88 439 98 L 439 117 Q 439 127 429 127 L 386 127 Q 376 127 376 117 L 376 98 Q 376 88 386 88 Z" stroke-miterlimit="10"></path></g><g transform="translate(-22,-14) scale(1,1)"><g><path fill="none" stroke="none"></path><text fill="#000000" stroke="none" font-family="Roboto" font-size="13px" font-style="normal" font-weight="normal" text-decoration="none" x="380.5" y="105.5">«relation»</text></g></g><g transform="translate(-22,-14) scale(1,1)"><g><path fill="none" stroke="none"></path><text fill="#000000" stroke="none" font-family="Roboto" font-size="13px" font-style="normal" font-weight="bold" text-decoration="none" x="387" y="120.5">receive</text></g></g><g transform="translate(-22,-14) scale(1,1)"><path fill="#ffffff" stroke="none" d="M 266 88 L 308 88 Q 318 88 318 98 L 318 117 Q 318 127 308 127 L 266 127 Q 256 127 256 117 L 256 98 Q 256 88 266 88 Z"></path></g><g transform="translate(-22,-14) scale(1,1)"><path fill="none" stroke="#000000" d="M 266 88 L 308 88 Q 318 88 318 98 L 318 117 Q 318 127 308 127 L 266 127 Q 256 127 256 117 L 256 98 Q 256 88 266 88 Z" stroke-miterlimit="10"></path></g><g transform="translate(-22,-14) scale(1,1)"><g><path fill="none" stroke="none"></path><text fill="#000000" stroke="none" font-family="Roboto" font-size="13px" font-style="normal" font-weight="bold" text-decoration="none" x="260.5" y="107.5">message</text></g></g><g transform="translate(-22,-14) scale(1,1)"><path fill="#ffffff" stroke="none" d="M 266 168 L 309 168 Q 319 168 319 178 L 319 197 Q 319 207 309 207 L 266 207 Q 256 207 256 197 L 256 178 Q 256 168 266 168 Z"></path></g><g transform="translate(-22,-14) scale(1,1)"><path fill="none" stroke="#000000" d="M 266 168 L 309 168 Q 319 168 319 178 L 319 197 Q 319 207 309 207 L 266 207 Q 256 207 256 197 L 256 178 Q 256 168 266 168 Z" stroke-miterlimit="10"></path></g><g transform="translate(-22,-14) scale(1,1)"><g><path fill="none" stroke="none"></path><text fill="#000000" stroke="none" font-family="Roboto" font-size="13px" font-style="normal" font-weight="normal" text-decoration="none" x="260.5" y="185.5">«relation»</text></g></g><g transform="translate(-22,-14) scale(1,1)"><g><path fill="none" stroke="none"></path><text fill="#000000" stroke="none" font-family="Roboto" font-size="13px" font-style="normal" font-weight="bold" text-decoration="none" x="266.5" y="200.5">contain</text></g></g><g transform="translate(-22,-14) scale(1,1)"><path fill="none" stroke="#000000" d="M 135 107 L 93 107" stroke-miterlimit="10"></path></g><g transform="translate(-22,-14) scale(1,1)"><path fill="none" stroke="#000000" d="M 103.16267485762415 102.79048224398402 L 93 107 L 103.16267485762415 111.20951775601598" stroke-miterlimit="10"></path></g><g transform="translate(-22,-14) scale(1,1)"><g><path fill="none" stroke="none"></path><text fill="#000000" stroke="none" font-family="Roboto" font-size="13px" font-style="normal" font-weight="normal" text-decoration="none" x="96.5" y="128.5">agent</text></g></g><g transform="translate(-22,-14) scale(1,1)"><path fill="none" stroke="#000000" d="M 200 107 L 255 107" stroke-miterlimit="10"></path></g><g transform="translate(-22,-14) scale(1,1)"><path fill="none" stroke="#000000" d="M 244.83732514237585 111.20951775601598 L 255 107 L 244.83732514237585 102.79048224398402" stroke-miterlimit="10"></path></g><g transform="translate(-22,-14) scale(1,1)"><g><path fill="none" stroke="none"></path><text fill="#000000" stroke="none" font-family="Roboto" font-size="13px" font-style="normal" font-weight="normal" text-decoration="none" x="207.5" y="100.5">patient</text></g></g><g transform="translate(-22,-14) scale(1,1)"><path fill="none" stroke="#000000" d="M 375 107 L 319 107" stroke-miterlimit="10"></path></g><g transform="translate(-22,-14) scale(1,1)"><path fill="none" stroke="#000000" d="M 329.16267485762415 102.79048224398402 L 319 107 L 329.16267485762415 111.20951775601598" stroke-miterlimit="10"></path></g><g transform="translate(-22,-14) scale(1,1)"><g><path fill="none" stroke="none"></path><text fill="#000000" stroke="none" font-family="Roboto" font-size="13px" font-style="normal" font-weight="normal" text-decoration="none" x="326.5" y="128.5">patient</text></g></g><g transform="translate(-22,-14) scale(1,1)"><path fill="none" stroke="#000000" d="M 440 107 L 495 107" stroke-miterlimit="10"></path></g><g transform="translate(-22,-14) scale(1,1)"><path fill="none" stroke="#000000" d="M 484.83732514237585 111.20951775601598 L 495 107 L 484.83732514237585 102.79048224398402" stroke-miterlimit="10"></path></g><g transform="translate(-22,-14) scale(1,1)"><g><path fill="none" stroke="none"></path><text fill="#000000" stroke="none" font-family="Roboto" font-size="13px" font-style="normal" font-weight="normal" text-decoration="none" x="449.5" y="124.5">agent</text></g></g><g transform="translate(-22,-14) scale(1,1)"><path fill="none" stroke="#000000" d="M 287 167 L 287 128" stroke-miterlimit="10"></path></g><g transform="translate(-22,-14) scale(1,1)"><path fill="none" stroke="#000000" d="M 291.209517756016 138.16267485762415 L 287 128 L 282.790482243984 138.16267485762415" stroke-miterlimit="10"></path></g><g transform="translate(-22,-14) scale(1,1)"><g><path fill="none" stroke="none"></path><text fill="#000000" stroke="none" font-family="Roboto" font-size="13px" font-style="normal" font-weight="normal" text-decoration="none" x="246.5" y="156.5">agent</text></g></g><g transform="translate(-22,-14) scale(1,1)"><path fill="none" stroke="#000000" d="M 320 187 L 375 187" stroke-miterlimit="10"></path></g><g transform="translate(-22,-14) scale(1,1)"><path fill="none" stroke="#000000" d="M 364.83732514237585 191.209517756016 L 375 187 L 364.83732514237585 182.790482243984" stroke-miterlimit="10"></path></g><g transform="translate(-22,-14) scale(1,1)"><g><path fill="none" stroke="none"></path><text fill="#000000" stroke="none" font-family="Roboto" font-size="13px" font-style="normal" font-weight="normal" text-decoration="none" x="327.5" y="178.5">patient</text></g></g><g transform="translate(-22,-14) scale(1,1)"><path fill="#ffffff" stroke="none" d="M 266 24 L 306 24 Q 316 24 316 34 L 316 53 Q 316 63 306 63 L 266 63 Q 256 63 256 53 L 256 34 Q 256 24 266 24 Z"></path></g><g transform="translate(-22,-14) scale(1,1)"><path fill="none" stroke="#000000" d="M 266 24 L 306 24 Q 316 24 316 34 L 316 53 Q 316 63 306 63 L 266 63 Q 256 63 256 53 L 256 34 Q 256 24 266 24 Z" stroke-miterlimit="10"></path></g><g transform="translate(-22,-14) scale(1,1)"><g><path fill="none" stroke="none"></path><text fill="#000000" stroke="none" font-family="Roboto" font-size="13px" font-style="normal" font-weight="normal" text-decoration="none" x="260.5" y="41.5">«named»</text></g></g><g transform="translate(-22,-14) scale(1,1)"><g><path fill="none" stroke="none"></path><text fill="#000000" stroke="none" font-family="Roboto" font-size="13px" font-style="normal" font-weight="bold" text-decoration="none" x="266.5" y="56.5">person</text></g></g><g transform="translate(-22,-14) scale(1,1)"><path fill="#ffffff" stroke="none" d="M 42 160 L 82 160 Q 92 160 92 170 L 92 189 Q 92 199 82 199 L 42 199 Q 32 199 32 189 L 32 170 Q 32 160 42 160 Z"></path></g><g transform="translate(-22,-14) scale(1,1)"><path fill="none" stroke="#000000" d="M 42 160 L 82 160 Q 92 160 92 170 L 92 189 Q 92 199 82 199 L 42 199 Q 32 199 32 189 L 32 170 Q 32 160 42 160 Z" stroke-miterlimit="10"></path></g><g transform="translate(-22,-14) scale(1,1)"><g><path fill="none" stroke="none"></path><text fill="#000000" stroke="none" font-family="Roboto" font-size="13px" font-style="normal" font-weight="normal" text-decoration="none" x="36.5" y="177.5">«named»</text></g></g><g transform="translate(-22,-14) scale(1,1)"><g><path fill="none" stroke="none"></path><text fill="#000000" stroke="none" font-family="Roboto" font-size="13px" font-style="normal" font-weight="bold" text-decoration="none" x="49.5" y="192.5">time</text></g></g><g transform="translate(-22,-14) scale(1,1)"><path fill="#ffffff" stroke="none" d="M 146 160 L 185 160 Q 195 160 195 170 L 195 189 Q 195 199 185 199 L 146 199 Q 136 199 136 189 L 136 170 Q 136 160 146 160 Z"></path></g><g transform="translate(-22,-14) scale(1,1)"><path fill="none" stroke="#000000" d="M 146 160 L 185 160 Q 195 160 195 170 L 195 189 Q 195 199 185 199 L 146 199 Q 136 199 136 189 L 136 170 Q 136 160 146 160 Z" stroke-miterlimit="10"></path></g><g transform="translate(-22,-14) scale(1,1)"><g><path fill="none" stroke="none"></path><text fill="#000000" stroke="none" font-family="Roboto" font-size="13px" font-style="normal" font-weight="bold" text-decoration="none" x="161.5" y="179.5">T</text></g></g><g transform="translate(-22,-14) scale(1,1)"><path fill="none" stroke="#000000" d="M 92 179 L 136 179" stroke-miterlimit="10"></path></g><g transform="translate(-22,-14) scale(1,1)"><path fill="none" stroke="#000000" d="M 125.83732514237585 183.209517756016 L 136 179 L 125.83732514237585 174.790482243984" stroke-miterlimit="10"></path></g><g transform="translate(-22,-14) scale(1,1)"><g><path fill="none" stroke="none"></path><text fill="#000000" stroke="none" font-family="Roboto" font-size="13px" font-style="normal" font-weight="normal" text-decoration="none" x="103.5" y="172.5">inst</text></g></g><g transform="translate(-22,-14) scale(1,1)"><path fill="none" stroke="#000000" d="M 166 160 L 166 127" stroke-miterlimit="10"></path></g><g transform="translate(-22,-14) scale(1,1)"><path fill="none" stroke="#000000" d="M 170.209517756016 137.16267485762415 L 166 127 L 161.790482243984 137.16267485762415" stroke-miterlimit="10"></path></g><g transform="translate(-22,-14) scale(1,1)"><g><path fill="none" stroke="none"></path><text fill="#000000" stroke="none" font-family="Roboto" font-size="13px" font-style="normal" font-weight="normal" text-decoration="none" x="174.5" y="147.5">patient</text></g></g><g transform="translate(-22,-14) scale(1,1)"><path fill="none" stroke="#000000" d="M 256 40 L 64 40 L 64 88" stroke-miterlimit="10"></path></g><g transform="translate(-22,-14) scale(1,1)"><path fill="none" stroke="#000000" d="M 59.790482243984016 77.83732514237585 L 64 88 L 68.20951775601598 77.83732514237585" stroke-miterlimit="10"></path></g><g transform="translate(-22,-14) scale(1,1)"><g><path fill="none" stroke="none"></path><text fill="#000000" stroke="none" font-family="Roboto" font-size="13px" font-style="normal" font-weight="normal" text-decoration="none" x="150.5" y="60.5">inst</text></g></g><g transform="translate(-22,-14) scale(1,1)"><path fill="none" stroke="#000000" d="M 316 40 L 528 40 L 528 88" stroke-miterlimit="10"></path></g><g transform="translate(-22,-14) scale(1,1)"><path fill="none" stroke="#000000" d="M 523.790482243984 77.83732514237585 L 528 88 L 532.209517756016 77.83732514237585" stroke-miterlimit="10"></path></g><g transform="translate(-22,-14) scale(1,1)"><g><path fill="none" stroke="none"></path><text fill="#000000" stroke="none" font-family="Roboto" font-size="13px" font-style="normal" font-weight="normal" text-decoration="none" x="398.5" y="59.5">inst</text></g></g></g></svg>