<svg version="1.1" xmlns="http://www.w3.org/2000/svg" xmlns:xlink="http://www.w3.org/1999/xlink" width="543" height="139"><defs></defs><g><g transform="translate(-30,-14) scale(1,1)"><path fill="#ffffff" stroke="none" d="M 394 104 L 433 104 Q 443 104 443 114 L 443 133 Q 443 143 433 143 L 394 143 Q 384 143 384 133 L 384 114 Q 384 104 394 104 Z"></path></g><g transform="translate(-30,-14) scale(1,1)"><path fill="none" stroke="#000000" d="M 394 104 L 433 104 Q 443 104 443 114 L 443 133 Q 443 143 433 143 L 394 143 Q 384 143 384 133 L 384 114 Q 384 104 394 104 Z" stroke-miterlimit="10"></path></g><g transform="translate(-30,-14) scale(1,1)"><g><path fill="none" stroke="none"></path><text fill="#000000" stroke="none" font-family="Roboto" font-size="13px" font-style="normal" font-weight="bold" text-decoration="none" x="410" y="123.5">E</text></g></g><g transform="translate(-30,-14) scale(1,1)"><path fill="#ffffff" stroke="none" d="M 50 24 L 89 24 Q 99 24 99 34 L 99 53 Q 99 63 89 63 L 50 63 Q 40 63 40 53 L 40 34 Q 40 24 50 24 Z"></path></g><g transform="translate(-30,-14) scale(1,1)"><path fill="none" stroke="#000000" d="M 50 24 L 89 24 Q 99 24 99 34 L 99 53 Q 99 63 89 63 L 50 63 Q 40 63 40 53 L 40 34 Q 40 24 50 24 Z" stroke-miterlimit="10"></path></g><g transform="translate(-30,-14) scale(1,1)"><g><path fill="none" stroke="none"></path><text fill="#000000" stroke="none" font-family="Roboto" font-size="13px" font-style="normal" font-weight="bold" text-decoration="none" x="65.5" y="43.5">S</text></g></g><g transform="translate(-30,-14) scale(1,1)"><path fill="#ffffff" stroke="none" d="M 514 24 L 553 24 Q 563 24 563 34 L 563 53 Q 563 63 553 63 L 514 63 Q 504 63 504 53 L 504 34 Q 504 24 514 24 Z"></path></g><g transform="translate(-30,-14) scale(1,1)"><path fill="none" stroke="#000000" d="M 514 24 L 553 24 Q 563 24 563 34 L 563 53 Q 563 63 553 63 L 514 63 Q 504 63 504 53 L 504 34 Q 504 24 514 24 Z" stroke-miterlimit="10"></path></g><g transform="translate(-30,-14) scale(1,1)"><g><path fill="none" stroke="none"></path><text fill="#000000" stroke="none" font-family="Roboto" font-size="13px" font-style="normal" font-weight="bold" text-decoration="none" x="529.5" y="43.5">R</text></g></g><g transform="translate(-30,-14) scale(1,1)"><path fill="#ffffff" stroke="none" d="M 154 24 L 197 24 Q 207 24 207 34 L 207 53 Q 207 63 197 63 L 154 63 Q 144 63 144 53 L 144 34 Q 144 24 154 24 Z"></path></g><g transform="translate(-30,-14) scale(1,1)"><path fill="none" stroke="#000000" d="M 154 24 L 197 24 Q 207 24 207 34 L 207 53 Q 207 63 197 63 L 154 63 Q 144 63 144 53 L 144 34 Q 144 24 154 24 Z" stroke-miterlimit="10"></path></g><g transform="translate(-30,-14) scale(1,1)"><g><path fill="none" stroke="none"></path><text fill="#000000" stroke="none" font-family="Roboto" font-size="13px" font-style="normal" font-weight="normal" text-decoration="none" x="148.5" y="41.5">«relation»</text></g></g><g transform="translate(-30,-14) scale(1,1)"><g><path fill="none" stroke="none"></path><text fill="#000000" stroke="none" font-family="Roboto" font-size="13px" font-style="normal" font-weight="bold" text-decoration="none" x="161.5" y="56.5">send</text></g></g><g transform="translate(-30,-14) scale(1,1)"><path fill="#ffffff" stroke="none" d="M 394 24 L 437 24 Q 447 24 447 34 L 447 53 Q 447 63 437 63 L 394 63 Q 384 63 384 53 L 384 34 Q 384 24 394 24 Z"></path></g><g transform="translate(-30,-14) scale(1,1)"><path fill="none" stroke="#000000" d="M 394 24 L 437 24 Q 447 24 447 34 L 447 53 Q 447 63 437 63 L 394 63 Q 384 63 384 53 L 384 34 Q 384 24 394 24 Z" stroke-miterlimit="10"></path></g><g transform="translate(-30,-14) scale(1,1)"><g><path fill="none" stroke="none"></path><text fill="#000000" stroke="none" font-family="Roboto" font-size="13px" font-style="normal" font-weight="normal" text-decoration="none" x="388.5" y="41.5">«relation»</text></g></g><g transform="translate(-30,-14) scale(1,1)"><g><path fill="none" stroke="none"></path><text fill="#000000" stroke="none" font-family="Roboto" font-size="13px" font-style="normal" font-weight="bold" text-decoration="none" x="395" y="56.5">receive</text></g></g><g transform="translate(-30,-14) scale(1,1)"><path fill="#ffffff" stroke="none" d="M 274 24 L 316 24 Q 326 24 326 34 L 326 53 Q 326 63 316 63 L 274 63 Q 264 63 264 53 L 264 34 Q 264 24 274 24 Z"></path></g><g transform="translate(-30,-14) scale(1,1)"><path fill="none" stroke="#000000" d="M 274 24 L 316 24 Q 326 24 326 34 L 326 53 Q 326 63 316 63 L 274 63 Q 264 63 264 53 L 264 34 Q 264 24 274 24 Z" stroke-miterlimit="10"></path></g><g transform="translate(-30,-14) scale(1,1)"><g><path fill="none" stroke="none"></path><text fill="#000000" stroke="none" font-family="Roboto" font-size="13px" font-style="normal" font-weight="bold" text-decoration="none" x="268.5" y="43.5">message</text></g></g><g transform="translate(-30,-14) scale(1,1)"><path fill="#ffffff" stroke="none" d="M 274 104 L 317 104 Q 327 104 327 114 L 327 133 Q 327 143 317 143 L 274 143 Q 264 143 264 133 L 264 114 Q 264 104 274 104 Z"></path></g><g transform="translate(-30,-14) scale(1,1)"><path fill="none" stroke="#000000" d="M 274 104 L 317 104 Q 327 104 327 114 L 327 133 Q 327 143 317 143 L 274 143 Q 264 143 264 133 L 264 114 Q 264 104 274 104 Z" stroke-miterlimit="10"></path></g><g transform="translate(-30,-14) scale(1,1)"><g><path fill="none" stroke="none"></path><text fill="#000000" stroke="none" font-family="Roboto" font-size="13px" font-style="normal" font-weight="normal" text-decoration="none" x="268.5" y="121.5">«relation»</text></g></g><g transform="translate(-30,-14) scale(1,1)"><g><path fill="none" stroke="none"></path><text fill="#000000" stroke="none" font-family="Roboto" font-size="13px" font-style="normal" font-weight="bold" text-decoration="none" x="274.5" y="136.5">contain</text></g></g><g transform="translate(-30,-14) scale(1,1)"><path fill="none" stroke="#000000" d="M 143 43 L 100 43" stroke-miterlimit="10"></path></g><g transform="translate(-30,-14) scale(1,1)"><path fill="none" stroke="#000000" d="M 110.16267485762415 38.790482243984016 L 100 43 L 110.16267485762415 47.209517756015984" stroke-miterlimit="10"></path></g><g transform="translate(-30,-14) scale(1,1)"><g><path fill="none" stroke="none"></path><text fill="#000000" stroke="none" font-family="Roboto" font-size="13px" font-style="normal" font-weight="normal" text-decoration="none" x="103.5" y="64.5">agent</text></g></g><g transform="translate(-30,-14) scale(1,1)"><path fill="none" stroke="#000000" d="M 208 43 L 263 43" stroke-miterlimit="10"></path></g><g transform="translate(-30,-14) scale(1,1)"><path fill="none" stroke="#000000" d="M 252.83732514237585 47.20951775601599 L 263 43 L 252.83732514237585 38.790482243984016" stroke-miterlimit="10"></path></g><g transform="translate(-30,-14) scale(1,1)"><g><path fill="none" stroke="none"></path><text fill="#000000" stroke="none" font-family="Roboto" font-size="13px" font-style="normal" font-weight="normal" text-decoration="none" x="215.5" y="59.5">patient</text></g></g><g transform="translate(-30,-14) scale(1,1)"><path fill="none" stroke="#000000" d="M 383 43 L 327 43" stroke-miterlimit="10"></path></g><g transform="translate(-30,-14) scale(1,1)"><path fill="none" stroke="#000000" d="M 337.16267485762415 38.790482243984016 L 327 43 L 337.16267485762415 47.209517756015984" stroke-miterlimit="10"></path></g><g transform="translate(-30,-14) scale(1,1)"><g><path fill="none" stroke="none"></path><text fill="#000000" stroke="none" font-family="Roboto" font-size="13px" font-style="normal" font-weight="normal" text-decoration="none" x="334.5" y="64.5">patient</text></g></g><g transform="translate(-30,-14) scale(1,1)"><path fill="none" stroke="#000000" d="M 448 43 L 503 43" stroke-miterlimit="10"></path></g><g transform="translate(-30,-14) scale(1,1)"><path fill="none" stroke="#000000" d="M 492.83732514237585 47.20951775601599 L 503 43 L 492.83732514237585 38.790482243984016" stroke-miterlimit="10"></path></g><g transform="translate(-30,-14) scale(1,1)"><g><path fill="none" stroke="none"></path><text fill="#000000" stroke="none" font-family="Roboto" font-size="13px" font-style="normal" font-weight="normal" text-decoration="none" x="457.5" y="60.5">agent</text></g></g><g transform="translate(-30,-14) scale(1,1)"><path fill="none" stroke="#000000" d="M 295 103 L 295 64" stroke-miterlimit="10"></path></g><g transform="translate(-30,-14) scale(1,1)"><path fill="none" stroke="#000000" d="M 299.209517756016 74.16267485762415 L 295 64 L 290.790482243984 74.16267485762415" stroke-miterlimit="10"></path></g><g transform="translate(-30,-14) scale(1,1)"><g><path fill="none" stroke="none"></path><text fill="#000000" stroke="none" font-family="Roboto" font-size="13px" font-style="normal" font-weight="normal" text-decoration="none" x="254.5" y="92.5">agent</text></g></g><g transform="translate(-30,-14) scale(1,1)"><path fill="none" stroke="#000000" d="M 328 123 L 383 123" stroke-miterlimit="10"></path></g><g transform="translate(-30,-14) scale(1,1)"><path fill="none" stroke="#000000" d="M 372.83732514237585 127.20951775601598 L 383 123 L 372.83732514237585 118.79048224398402" stroke-miterlimit="10"></path></g><g transform="translate(-30,-14) scale(1,1)"><g><path fill="none" stroke="none"></path><text fill="#000000" stroke="none" font-family="Roboto" font-size="13px" font-style="normal" font-weight="normal" text-decoration="none" x="335.5" y="114.5">patient</text></g></g></g></svg>