<svg version="1.1" xmlns="http://www.w3.org/2000/svg" xmlns:xlink="http://www.w3.org/1999/xlink" width="165.15087890625" height="140"><defs/><g><g transform="translate(-206,-14) scale(1,1)"><path fill="#ffffff" stroke="none" d="M 226 24 L 351.15087890625 24 Q 361.15087890625 24 361.15087890625 34 L 361.15087890625 134 Q 361.15087890625 144 351.15087890625 144 L 226 144 Q 216 144 216 134 L 216 34 Q 216 24 226 24 Z"/></g><g transform="translate(-206,-14) scale(1,1)"><path fill="none" stroke="#000000" d="M 226 24 L 351.15087890625 24 Q 361.15087890625 24 361.15087890625 34 L 361.15087890625 134 Q 361.15087890625 144 351.15087890625 144 L 226 144 Q 216 144 216 134 L 216 34 Q 216 24 226 24 Z" stroke-miterlimit="10"/></g><g transform="translate(-206,-14) scale(1,1)"><path fill="none" stroke="#000000" d="M 216 49 L 361.15087890625 49" stroke-miterlimit="10"/></g><g transform="translate(-206,-14) scale(1,1)"><g><path fill="none" stroke="none"/><text fill="#000000" stroke="none" font-family="Roboto" font-size="13px" font-style="normal" font-weight="bold" text-decoration="none" x="222.38525390625" y="43.5">POSITIVE POSSIBILITY</text></g></g><g transform="translate(-206,-14) scale(1,1)"><path fill="#ffffff" stroke="none" d="M 234 56 L 342 56 Q 352 56 352 66 L 352 126 Q 352 136 342 136 L 234 136 Q 224 136 224 126 L 224 66 Q 224 56 234 56 Z"/></g><g transform="translate(-206,-14) scale(1,1)"><path fill="none" stroke="#000000" d="M 234 56 L 342 56 Q 352 56 352 66 L 352 126 Q 352 136 342 136 L 234 136 Q 224 136 224 126 L 224 66 Q 224 56 234 56 Z" stroke-miterlimit="10"/></g><g transform="translate(-206,-14) scale(1,1)"><path fill="none" stroke="#000000" d="M 224 81 L 352 81" stroke-miterlimit="10"/></g><g transform="translate(-206,-14) scale(1,1)"><g><path fill="none" stroke="none"/><text fill="#000000" stroke="none" font-family="Roboto" font-size="13px" font-style="normal" font-weight="bold" text-decoration="none" x="231.616943359375" y="75.5">NEGATIVE ACTUAL</text></g></g><g transform="translate(-206,-14) scale(1,1)"><path fill="#ffffff" stroke="none" d="M 266 88 L 305 88 Q 315 88 315 98 L 315 117 Q 315 127 305 127 L 266 127 Q 256 127 256 117 L 256 98 Q 256 88 266 88 Z"/></g><g transform="translate(-206,-14) scale(1,1)"><path fill="none" stroke="#000000" d="M 266 88 L 305 88 Q 315 88 315 98 L 315 117 Q 315 127 305 127 L 266 127 Q 256 127 256 117 L 256 98 Q 256 88 266 88 Z" stroke-miterlimit="10"/></g><g transform="translate(-206,-14) scale(1,1)"><g><path fill="none" stroke="none"/><text fill="#000000" stroke="none" font-family="Roboto" font-size="13px" font-style="normal" font-weight="bold" text-decoration="none" x="281.4248046875" y="107.5">X</text></g></g></g></svg>