<svg version="1.1" xmlns="http://www.w3.org/2000/svg" xmlns:xlink="http://www.w3.org/1999/xlink" width="171" height="116"><defs/><g><g transform="translate(-14,-142) scale(1,1)"><path fill="#ffffff" stroke="none" d="M 34 152 L 165 152 Q 175 152 175 162 L 175 238 Q 175 248 165 248 L 34 248 Q 24 248 24 238 L 24 162 Q 24 152 34 152 Z"/></g><g transform="translate(-14,-142) scale(1,1)"><path fill="none" stroke="#000000" d="M 34 152 L 165 152 Q 175 152 175 162 L 175 238 Q 175 248 165 248 L 34 248 Q 24 248 24 238 L 24 162 Q 24 152 34 152 Z" stroke-miterlimit="10"/></g><g transform="translate(-14,-142) scale(1,1)"><path fill="none" stroke="#000000" d="M 24 177 L 175 177" stroke-miterlimit="10"/></g><g transform="translate(-14,-142) scale(1,1)"><g><path fill="none" stroke="none"/><text fill="#000000" stroke="none" font-family="Roboto" font-size="13px" font-style="normal" font-weight="bold" text-decoration="none" x="43.116943359375" y="171.5">NEGATIVE ACTUAL</text></g></g><g transform="translate(-14,-142) scale(1,1)"><path fill="#ffffff" stroke="none" d="M 82 192 L 121 192 Q 131 192 131 202 L 131 221 Q 131 231 121 231 L 82 231 Q 72 231 72 221 L 72 202 Q 72 192 82 192 Z"/></g><g transform="translate(-14,-142) scale(1,1)"><path fill="none" stroke="#000000" d="M 82 192 L 121 192 Q 131 192 131 202 L 131 221 Q 131 231 121 231 L 82 231 Q 72 231 72 221 L 72 202 Q 72 192 82 192 Z" stroke-miterlimit="10"/></g><g transform="translate(-14,-142) scale(1,1)"><g><path fill="none" stroke="none"/><text fill="#000000" stroke="none" font-family="Roboto" font-size="13px" font-style="normal" font-weight="bold" text-decoration="none" x="97.4248046875" y="211.5">X</text></g></g></g></svg>