<svg version="1.1" xmlns="http://www.w3.org/2000/svg" xmlns:xlink="http://www.w3.org/1999/xlink" width="172" height="116"><defs/><g><g transform="translate(-206,-142) scale(1,1)"><path fill="#ffffff" stroke="none" d="M 226 152 L 358 152 Q 368 152 368 162 L 368 238 Q 368 248 358 248 L 226 248 Q 216 248 216 238 L 216 162 Q 216 152 226 152 Z"/></g><g transform="translate(-206,-142) scale(1,1)"><path fill="none" stroke="#000000" d="M 226 152 L 358 152 Q 368 152 368 162 L 368 238 Q 368 248 358 248 L 226 248 Q 216 248 216 238 L 216 162 Q 216 152 226 152 Z" stroke-miterlimit="10"/></g><g transform="translate(-206,-142) scale(1,1)"><path fill="none" stroke="#000000" d="M 216 177 L 368 177" stroke-miterlimit="10"/></g><g transform="translate(-206,-142) scale(1,1)"><g><path fill="none" stroke="none"/><text fill="#000000" stroke="none" font-family="Roboto" font-size="13px" font-style="normal" font-weight="bold" text-decoration="none" x="223.00732421875" y="171.5">NEGATIVE POSSIBILITY</text></g></g><g transform="translate(-206,-142) scale(1,1)"><path fill="#ffffff" stroke="none" d="M 274 192 L 313 192 Q 323 192 323 202 L 323 221 Q 323 231 313 231 L 274 231 Q 264 231 264 221 L 264 202 Q 264 192 274 192 Z"/></g><g transform="translate(-206,-142) scale(1,1)"><path fill="none" stroke="#000000" d="M 274 192 L 313 192 Q 323 192 323 202 L 323 221 Q 323 231 313 231 L 274 231 Q 264 231 264 221 L 264 202 Q 264 192 274 192 Z" stroke-miterlimit="10"/></g><g transform="translate(-206,-142) scale(1,1)"><g><path fill="none" stroke="none"/><text fill="#000000" stroke="none" font-family="Roboto" font-size="13px" font-style="normal" font-weight="bold" text-decoration="none" x="289.4248046875" y="211.5">X</text></g></g></g></svg>