<svg version="1.1" xmlns="http://www.w3.org/2000/svg" xmlns:xlink="http://www.w3.org/1999/xlink" width="356" height="100"><defs></defs><g><g transform="translate(-6,-6) scale(1,1)"><path fill="#ffffff" stroke="none" d="M 162 16 L 342 16 Q 352 16 352 26 L 352 86 Q 352 96 342 96 L 162 96 Q 152 96 152 86 L 152 26 Q 152 16 162 16 Z"></path></g><g transform="translate(-6,-6) scale(1,1)"><path fill="none" stroke="#000000" d="M 162 16 L 342 16 Q 352 16 352 26 L 352 86 Q 352 96 342 96 L 162 96 Q 152 96 152 86 L 152 26 Q 152 16 162 16 Z" stroke-miterlimit="10"></path></g><g transform="translate(-6,-6) scale(1,1)"><path fill="none" stroke="#000000" d="M 152 41 L 352 41" stroke-miterlimit="10"></path></g><g transform="translate(-6,-6) scale(1,1)"><g><path fill="none" stroke="none"></path><text fill="#000000" stroke="none" font-family="Roboto" font-size="13px" font-style="normal" font-weight="bold" text-decoration="none" x="197" y="35.5">NEGATIVE ACTUAL</text></g></g><g transform="translate(-6,-6) scale(1,1)"><path fill="#ffffff" stroke="none" d="M 26 16 L 131 16 Q 141 16 141 26 L 141 86 Q 141 96 131 96 L 26 96 Q 16 96 16 86 L 16 26 Q 16 16 26 16 Z"></path></g><g transform="translate(-6,-6) scale(1,1)"><path fill="none" stroke="#000000" d="M 26 16 L 131 16 Q 141 16 141 26 L 141 86 Q 141 96 131 96 L 26 96 Q 16 96 16 86 L 16 26 Q 16 16 26 16 Z" stroke-miterlimit="10"></path></g><g transform="translate(-6,-6) scale(1,1)"><path fill="none" stroke="#000000" d="M 16 41 L 141 41" stroke-miterlimit="10"></path></g><g transform="translate(-6,-6) scale(1,1)"><g><path fill="none" stroke="none"></path><text fill="#000000" stroke="none" font-family="Roboto" font-size="13px" font-style="normal" font-weight="bold" text-decoration="none" x="23.5" y="35.5">NEGATIVE ACTUAL</text></g></g><g transform="translate(-6,-6) scale(1,1)"><path fill="#ffffff" stroke="none" d="M 170 48 L 213 48 Q 223 48 223 58 L 223 77 Q 223 87 213 87 L 170 87 Q 160 87 160 77 L 160 58 Q 160 48 170 48 Z"></path></g><g transform="translate(-6,-6) scale(1,1)"><path fill="none" stroke="#000000" d="M 170 48 L 213 48 Q 223 48 223 58 L 223 77 Q 223 87 213 87 L 170 87 Q 160 87 160 77 L 160 58 Q 160 48 170 48 Z" stroke-miterlimit="10"></path></g><g transform="translate(-6,-6) scale(1,1)"><g><path fill="none" stroke="none"></path><text fill="#000000" stroke="none" font-family="Roboto" font-size="13px" font-style="normal" font-weight="normal" text-decoration="none" x="164.5" y="65.5">«relation»</text></g></g><g transform="translate(-6,-6) scale(1,1)"><g><path fill="none" stroke="none"></path><text fill="#000000" stroke="none" font-family="Roboto" font-size="13px" font-style="normal" font-weight="bold" text-decoration="none" x="177.5" y="80.5">drink</text></g></g><g transform="translate(-6,-6) scale(1,1)"><path fill="#ffffff" stroke="none" d="M 34 48 L 73 48 Q 83 48 83 58 L 83 77 Q 83 87 73 87 L 34 87 Q 24 87 24 77 L 24 58 Q 24 48 34 48 Z"></path></g><g transform="translate(-6,-6) scale(1,1)"><path fill="none" stroke="#000000" d="M 34 48 L 73 48 Q 83 48 83 58 L 83 77 Q 83 87 73 87 L 34 87 Q 24 87 24 77 L 24 58 Q 24 48 34 48 Z" stroke-miterlimit="10"></path></g><g transform="translate(-6,-6) scale(1,1)"><g><path fill="none" stroke="none"></path><text fill="#000000" stroke="none" font-family="Roboto" font-size="13px" font-style="normal" font-weight="bold" text-decoration="none" x="41" y="67.5">man</text></g></g><g transform="translate(-6,-6) scale(1,1)"><path fill="#ffffff" stroke="none" d="M 290 48 L 329 48 Q 339 48 339 58 L 339 77 Q 339 87 329 87 L 290 87 Q 280 87 280 77 L 280 58 Q 280 48 290 48 Z"></path></g><g transform="translate(-6,-6) scale(1,1)"><path fill="none" stroke="#000000" d="M 290 48 L 329 48 Q 339 48 339 58 L 339 77 Q 339 87 329 87 L 290 87 Q 280 87 280 77 L 280 58 Q 280 48 290 48 Z" stroke-miterlimit="10"></path></g><g transform="translate(-6,-6) scale(1,1)"><g><path fill="none" stroke="none"></path><text fill="#000000" stroke="none" font-family="Roboto" font-size="13px" font-style="normal" font-weight="bold" text-decoration="none" x="297" y="67.5">beer</text></g></g><g transform="translate(-6,-6) scale(1,1)"><path fill="none" stroke="#b33535" d="M 159 67 L 84 67" stroke-miterlimit="10"></path></g><g transform="translate(-6,-6) scale(1,1)"><path fill="none" stroke="#b33535" d="M 94.16267485762415 62.790482243984016 L 84 67 L 94.16267485762415 71.20951775601598" stroke-miterlimit="10"></path></g><g transform="translate(-6,-6) scale(1,1)"><g><path fill="none" stroke="none"></path><text fill="#b33535" stroke="none" font-family="Roboto" font-size="13px" font-style="normal" font-weight="normal" text-decoration="none" x="94.5" y="83.5">agent</text></g></g><g transform="translate(-6,-6) scale(1,1)"><path fill="none" stroke="#000000" d="M 224 67 L 279 67" stroke-miterlimit="10"></path></g><g transform="translate(-6,-6) scale(1,1)"><path fill="none" stroke="#000000" d="M 268.83732514237585 71.20951775601598 L 279 67 L 268.83732514237585 62.790482243984016" stroke-miterlimit="10"></path></g><g transform="translate(-6,-6) scale(1,1)"><g><path fill="none" stroke="none"></path><text fill="#000000" stroke="none" font-family="Roboto" font-size="13px" font-style="normal" font-weight="normal" text-decoration="none" x="231.5" y="60.5">patient</text></g></g></g></svg>