<svg version="1.1" xmlns="http://www.w3.org/2000/svg" xmlns:xlink="http://www.w3.org/1999/xlink" width="348" height="140"><defs></defs><g><g transform="translate(-22,-6) scale(1,1)"><path fill="#ffffff" stroke="none" d="M 42 16 L 350 16 Q 360 16 360 26 L 360 126 Q 360 136 350 136 L 42 136 Q 32 136 32 126 L 32 26 Q 32 16 42 16 Z"></path></g><g transform="translate(-22,-6) scale(1,1)"><path fill="none" stroke="#000000" d="M 42 16 L 350 16 Q 360 16 360 26 L 360 126 Q 360 136 350 136 L 42 136 Q 32 136 32 126 L 32 26 Q 32 16 42 16 Z" stroke-miterlimit="10"></path></g><g transform="translate(-22,-6) scale(1,1)"><path fill="none" stroke="#000000" d="M 32 41 L 360 41" stroke-miterlimit="10"></path></g><g transform="translate(-22,-6) scale(1,1)"><g><path fill="none" stroke="none"></path><text fill="#000000" stroke="none" font-family="Roboto" font-size="13px" font-style="normal" font-weight="bold" text-decoration="none" x="141" y="35.5">NEGATIVE ACTUAL</text></g></g><g transform="translate(-22,-6) scale(1,1)"><path fill="#ffffff" stroke="none" d="M 162 48 L 342 48 Q 352 48 352 58 L 352 118 Q 352 128 342 128 L 162 128 Q 152 128 152 118 L 152 58 Q 152 48 162 48 Z"></path></g><g transform="translate(-22,-6) scale(1,1)"><path fill="none" stroke="#000000" d="M 162 48 L 342 48 Q 352 48 352 58 L 352 118 Q 352 128 342 128 L 162 128 Q 152 128 152 118 L 152 58 Q 152 48 162 48 Z" stroke-miterlimit="10"></path></g><g transform="translate(-22,-6) scale(1,1)"><path fill="none" stroke="#000000" d="M 152 73 L 352 73" stroke-miterlimit="10"></path></g><g transform="translate(-22,-6) scale(1,1)"><g><path fill="none" stroke="none"></path><text fill="#000000" stroke="none" font-family="Roboto" font-size="13px" font-style="normal" font-weight="bold" text-decoration="none" x="197" y="67.5">NEGATIVE ACTUAL</text></g></g><g transform="translate(-22,-6) scale(1,1)"><path fill="#ffffff" stroke="none" d="M 170 80 L 213 80 Q 223 80 223 90 L 223 109 Q 223 119 213 119 L 170 119 Q 160 119 160 109 L 160 90 Q 160 80 170 80 Z"></path></g><g transform="translate(-22,-6) scale(1,1)"><path fill="none" stroke="#000000" d="M 170 80 L 213 80 Q 223 80 223 90 L 223 109 Q 223 119 213 119 L 170 119 Q 160 119 160 109 L 160 90 Q 160 80 170 80 Z" stroke-miterlimit="10"></path></g><g transform="translate(-22,-6) scale(1,1)"><g><path fill="none" stroke="none"></path><text fill="#000000" stroke="none" font-family="Roboto" font-size="13px" font-style="normal" font-weight="normal" text-decoration="none" x="164.5" y="97.5">«relation»</text></g></g><g transform="translate(-22,-6) scale(1,1)"><g><path fill="none" stroke="none"></path><text fill="#000000" stroke="none" font-family="Roboto" font-size="13px" font-style="normal" font-weight="bold" text-decoration="none" x="177.5" y="112.5">drink</text></g></g><g transform="translate(-22,-6) scale(1,1)"><path fill="#ffffff" stroke="none" d="M 50 80 L 89 80 Q 99 80 99 90 L 99 109 Q 99 119 89 119 L 50 119 Q 40 119 40 109 L 40 90 Q 40 80 50 80 Z"></path></g><g transform="translate(-22,-6) scale(1,1)"><path fill="none" stroke="#000000" d="M 50 80 L 89 80 Q 99 80 99 90 L 99 109 Q 99 119 89 119 L 50 119 Q 40 119 40 109 L 40 90 Q 40 80 50 80 Z" stroke-miterlimit="10"></path></g><g transform="translate(-22,-6) scale(1,1)"><g><path fill="none" stroke="none"></path><text fill="#000000" stroke="none" font-family="Roboto" font-size="13px" font-style="normal" font-weight="bold" text-decoration="none" x="57" y="99.5">man</text></g></g><g transform="translate(-22,-6) scale(1,1)"><path fill="#ffffff" stroke="none" d="M 290 80 L 329 80 Q 339 80 339 90 L 339 109 Q 339 119 329 119 L 290 119 Q 280 119 280 109 L 280 90 Q 280 80 290 80 Z"></path></g><g transform="translate(-22,-6) scale(1,1)"><path fill="none" stroke="#000000" d="M 290 80 L 329 80 Q 339 80 339 90 L 339 109 Q 339 119 329 119 L 290 119 Q 280 119 280 109 L 280 90 Q 280 80 290 80 Z" stroke-miterlimit="10"></path></g><g transform="translate(-22,-6) scale(1,1)"><g><path fill="none" stroke="none"></path><text fill="#000000" stroke="none" font-family="Roboto" font-size="13px" font-style="normal" font-weight="bold" text-decoration="none" x="297" y="99.5">beer</text></g></g><g transform="translate(-22,-6) scale(1,1)"><path fill="none" stroke="#000000" d="M 159 99 L 100 99" stroke-miterlimit="10"></path></g><g transform="translate(-22,-6) scale(1,1)"><path fill="none" stroke="#000000" d="M 110.16267485762415 94.79048224398402 L 100 99 L 110.16267485762415 103.20951775601598" stroke-miterlimit="10"></path></g><g transform="translate(-22,-6) scale(1,1)"><g><path fill="none" stroke="none"></path><text fill="#000000" stroke="none" font-family="Roboto" font-size="13px" font-style="normal" font-weight="normal" text-decoration="none" x="110.5" y="115.5">agent</text></g></g><g transform="translate(-22,-6) scale(1,1)"><path fill="none" stroke="#000000" d="M 224 99 L 279 99" stroke-miterlimit="10"></path></g><g transform="translate(-22,-6) scale(1,1)"><path fill="none" stroke="#000000" d="M 268.83732514237585 103.20951775601598 L 279 99 L 268.83732514237585 94.79048224398402" stroke-miterlimit="10"></path></g><g transform="translate(-22,-6) scale(1,1)"><g><path fill="none" stroke="none"></path><text fill="#000000" stroke="none" font-family="Roboto" font-size="13px" font-style="normal" font-weight="normal" text-decoration="none" x="231.5" y="92.5">patient</text></g></g></g></svg>