<svg version="1.1" xmlns="http://www.w3.org/2000/svg" xmlns:xlink="http://www.w3.org/1999/xlink" width="369" height="100"><defs></defs><g><g transform="translate(-6,-6) scale(1,1)"><path fill="#ffffff" stroke="none" d="M 170 48 L 213 48 Q 223 48 223 58 L 223 77 Q 223 87 213 87 L 170 87 Q 160 87 160 77 L 160 58 Q 160 48 170 48 Z"></path></g><g transform="translate(-6,-6) scale(1,1)"><path fill="none" stroke="#000000" d="M 170 48 L 213 48 Q 223 48 223 58 L 223 77 Q 223 87 213 87 L 170 87 Q 160 87 160 77 L 160 58 Q 160 48 170 48 Z" stroke-miterlimit="10"></path></g><g transform="translate(-6,-6) scale(1,1)"><g><path fill="none" stroke="none"></path><text fill="#000000" stroke="none" font-family="Roboto" font-size="13px" font-style="normal" font-weight="normal" text-decoration="none" x="164.5" y="65.5">«relation»</text></g></g><g transform="translate(-6,-6) scale(1,1)"><g><path fill="none" stroke="none"></path><text fill="#000000" stroke="none" font-family="Roboto" font-size="13px" font-style="normal" font-weight="bold" text-decoration="none" x="177.5" y="80.5">drink</text></g></g><g transform="translate(-6,-6) scale(1,1)"><path fill="#ffffff" stroke="none" d="M 26 16 L 131 16 Q 141 16 141 26 L 141 86 Q 141 96 131 96 L 26 96 Q 16 96 16 86 L 16 26 Q 16 16 26 16 Z"></path></g><g transform="translate(-6,-6) scale(1,1)"><path fill="none" stroke="#000000" d="M 26 16 L 131 16 Q 141 16 141 26 L 141 86 Q 141 96 131 96 L 26 96 Q 16 96 16 86 L 16 26 Q 16 16 26 16 Z" stroke-miterlimit="10"></path></g><g transform="translate(-6,-6) scale(1,1)"><path fill="none" stroke="#000000" d="M 16 41 L 141 41" stroke-miterlimit="10"></path></g><g transform="translate(-6,-6) scale(1,1)"><g><path fill="none" stroke="none"></path><text fill="#000000" stroke="none" font-family="Roboto" font-size="13px" font-style="normal" font-weight="bold" text-decoration="none" x="23.5" y="35.5">NEGATIVE ACTUAL</text></g></g><g transform="translate(-6,-6) scale(1,1)"><path fill="#ffffff" stroke="none" d="M 34 48 L 73 48 Q 83 48 83 58 L 83 77 Q 83 87 73 87 L 34 87 Q 24 87 24 77 L 24 58 Q 24 48 34 48 Z"></path></g><g transform="translate(-6,-6) scale(1,1)"><path fill="none" stroke="#000000" d="M 34 48 L 73 48 Q 83 48 83 58 L 83 77 Q 83 87 73 87 L 34 87 Q 24 87 24 77 L 24 58 Q 24 48 34 48 Z" stroke-miterlimit="10"></path></g><g transform="translate(-6,-6) scale(1,1)"><g><path fill="none" stroke="none"></path><text fill="#000000" stroke="none" font-family="Roboto" font-size="13px" font-style="normal" font-weight="bold" text-decoration="none" x="41" y="67.5">man</text></g></g><g transform="translate(-6,-6) scale(1,1)"><path fill="#ffffff" stroke="none" d="M 250 16 L 355 16 Q 365 16 365 26 L 365 86 Q 365 96 355 96 L 250 96 Q 240 96 240 86 L 240 26 Q 240 16 250 16 Z"></path></g><g transform="translate(-6,-6) scale(1,1)"><path fill="none" stroke="#000000" d="M 250 16 L 355 16 Q 365 16 365 26 L 365 86 Q 365 96 355 96 L 250 96 Q 240 96 240 86 L 240 26 Q 240 16 250 16 Z" stroke-miterlimit="10"></path></g><g transform="translate(-6,-6) scale(1,1)"><path fill="none" stroke="#000000" d="M 240 41 L 365 41" stroke-miterlimit="10"></path></g><g transform="translate(-6,-6) scale(1,1)"><g><path fill="none" stroke="none"></path><text fill="#000000" stroke="none" font-family="Roboto" font-size="13px" font-style="normal" font-weight="bold" text-decoration="none" x="247.5" y="35.5">NEGATIVE ACTUAL</text></g></g><g transform="translate(-6,-6) scale(1,1)"><path fill="#ffffff" stroke="none" d="M 306 48 L 345 48 Q 355 48 355 58 L 355 77 Q 355 87 345 87 L 306 87 Q 296 87 296 77 L 296 58 Q 296 48 306 48 Z"></path></g><g transform="translate(-6,-6) scale(1,1)"><path fill="none" stroke="#000000" d="M 306 48 L 345 48 Q 355 48 355 58 L 355 77 Q 355 87 345 87 L 306 87 Q 296 87 296 77 L 296 58 Q 296 48 306 48 Z" stroke-miterlimit="10"></path></g><g transform="translate(-6,-6) scale(1,1)"><g><path fill="none" stroke="none"></path><text fill="#000000" stroke="none" font-family="Roboto" font-size="13px" font-style="normal" font-weight="bold" text-decoration="none" x="313" y="67.5">beer</text></g></g><g transform="translate(-6,-6) scale(1,1)"><path fill="none" stroke="#b33535" d="M 159 67 L 84 67" stroke-miterlimit="10"></path></g><g transform="translate(-6,-6) scale(1,1)"><path fill="none" stroke="#b33535" d="M 94.16267485762415 62.790482243984016 L 84 67 L 94.16267485762415 71.20951775601598" stroke-miterlimit="10"></path></g><g transform="translate(-6,-6) scale(1,1)"><g><path fill="none" stroke="none"></path><text fill="#b33535" stroke="none" font-family="Roboto" font-size="13px" font-style="normal" font-weight="normal" text-decoration="none" x="101.5" y="84.5">agent</text></g></g><g transform="translate(-6,-6) scale(1,1)"><path fill="none" stroke="#b33535" d="M 224 67 L 295 67" stroke-miterlimit="10"></path></g><g transform="translate(-6,-6) scale(1,1)"><path fill="none" stroke="#b33535" d="M 284.83732514237585 71.20951775601598 L 295 67 L 284.83732514237585 62.790482243984016" stroke-miterlimit="10"></path></g><g transform="translate(-6,-6) scale(1,1)"><g><path fill="none" stroke="none"></path><text fill="#b33535" stroke="none" font-family="Roboto" font-size="13px" font-style="normal" font-weight="normal" text-decoration="none" x="247.5" y="60.5">patient</text></g></g></g></svg>