<svg width="440" height="110" viewBox="0 0 440 110" version="1.1" xmlns="http://www.w3.org/2000/svg" xmlns:xlink="http://www.w3.org/1999/xlink">
<title>nlpPhase</title>
<desc>Created using Figma</desc>
<g id="Canvas" transform="translate(-655 -1020)">
<clipPath id="clip-0" clip-rule="evenodd">
<path d="M 655 1020L 1335 1020L 1335 1200L 655 1200L 655 1020Z" fill="#FFFFFF"/>
</clipPath>
<g id="architecture" clip-path="url(#clip-0)">
<g id="Group">
<g id="Group">
<g id="Rectangle 5">
<use xlink:href="#path0_stroke" transform="translate(655 1025)"/>
</g>
<g id="Ellipse 5">
<use xlink:href="#path1_fill" transform="translate(655 1030)" fill="#355FB3"/>
</g>
<g id="Ellipse 5">
<use xlink:href="#path1_fill" transform="translate(685 1030)" fill="#355FB3"/>
</g>
<g id="Ellipse 5">
<use xlink:href="#path1_fill" transform="translate(715 1030)" fill="#355FB3"/>
</g>
</g>
<g id="Message Stream">
<use xlink:href="#path2_fill" transform="translate(657 1063)"/>
</g>
</g>
<g id="Group">
<g id="Rectangle 6">
<use xlink:href="#path3_fill" transform="translate(765 1020)" fill="#B33535"/>
</g>
<g id="CoreNLP">
<use xlink:href="#path4_fill" transform="translate(765 1035.94)" fill="#FFFFFF"/>
</g>
</g>
<g id="Group">
<g id="Ellipse 6">
<use xlink:href="#path5_fill" transform="translate(765 1090)" fill="#355FB3"/>
</g>
<g id="Annotation Graph">
<use xlink:href="#path6_fill" transform="translate(765 1105.94)" fill="#FFFFFF"/>
</g>
</g>
<g id="Group">
<g id="Ellipse 6">
<use xlink:href="#path5_fill" transform="translate(1005 1090)" fill="#355FB3"/>
</g>
<g id="Extraction Graph">
<use xlink:href="#path7_fill" transform="translate(1005 1105.94)" fill="#FFFFFF"/>
</g>
</g>
<g id="Group">
<g id="Rectangle 6">
<use xlink:href="#path3_fill" transform="translate(885 1090)" fill="#B33535"/>
</g>
<g id="Concept Graph Converter">
<use xlink:href="#path8_fill" transform="translate(885 1105.94)" fill="#FFFFFF"/>
</g>
</g>
<g id="Arrow">
<use xlink:href="#path9_stroke" transform="matrix(1 -2.44929e-16 2.44929e-16 1 735 1040)"/>
</g>
<g id="Arrow">
<use xlink:href="#path9_stroke" transform="translate(855 1110)"/>
</g>
<g id="Arrow">
<use xlink:href="#path9_stroke" transform="translate(975 1110)"/>
</g>
<g id="Arrow">
<use xlink:href="#path9_stroke" transform="matrix(7.17448e-17 1 -1 5.55112e-17 810 1060)"/>
</g>
</g>
</g>
<defs>
<path id="path0_stroke" d="M 0 1L 80 1L 80 -1L 0 -1L 0 1ZM 80 29L 0 29L 0 31L 80 31L 80 29Z"/>
<path id="path1_fill" d="M 20 10C 20 15.5228 15.5228 20 10 20C 4.47715 20 0 15.5228 0 10C 0 4.47715 4.47715 0 10 0C 15.5228 0 20 4.47715 20 10Z"/>
<path id="path2_fill" d="M 2.03613 1.89062L 4.36035 7.69141L 6.68457 1.89062L 7.90039 1.89062L 7.90039 9L 6.96289 9L 6.96289 6.23145L 7.05078 3.24316L 4.7168 9L 3.99902 9L 1.66992 3.25781L 1.7627 6.23145L 1.7627 9L 0.825195 9L 0.825195 1.89062L 2.03613 1.89062ZM 11.6064 9.09766C 10.8903 9.09766 10.3076 8.86328 9.8584 8.39453C 9.40918 7.92253 9.18457 7.29264 9.18457 6.50488L 9.18457 6.33887C 9.18457 5.81478 9.28385 5.34766 9.48242 4.9375C 9.68424 4.52409 9.96419 4.20182 10.3223 3.9707C 10.6836 3.73633 11.0742 3.61914 11.4941 3.61914C 12.181 3.61914 12.7148 3.84538 13.0957 4.29785C 13.4766 4.75033 13.667 5.39811 13.667 6.24121L 13.667 6.61719L 10.0879 6.61719C 10.1009 7.13802 10.2523 7.55957 10.542 7.88184C 10.835 8.20085 11.2061 8.36035 11.6553 8.36035C 11.9743 8.36035 12.2445 8.29525 12.4658 8.16504C 12.6872 8.03483 12.8809 7.8623 13.0469 7.64746L 13.5986 8.07715C 13.1559 8.75749 12.4919 9.09766 11.6064 9.09766ZM 11.4941 4.36133C 11.1296 4.36133 10.8236 4.49479 10.5762 4.76172C 10.3288 5.02539 10.1758 5.39648 10.1172 5.875L 12.7637 5.875L 12.7637 5.80664C 12.7376 5.34766 12.6139 4.99284 12.3926 4.74219C 12.1712 4.48828 11.8717 4.36133 11.4941 4.36133ZM 17.793 7.59863C 17.793 7.35449 17.7002 7.16569 17.5146 7.03223C 17.3324 6.89551 17.0117 6.77832 16.5527 6.68066C 16.097 6.58301 15.734 6.46582 15.4639 6.3291C 15.1969 6.19238 14.9984 6.02962 14.8682 5.84082C 14.7412 5.65202 14.6777 5.42741 14.6777 5.16699C 14.6777 4.73405 14.86 4.36784 15.2246 4.06836C 15.5924 3.76888 16.0612 3.61914 16.6309 3.61914C 17.2298 3.61914 17.7148 3.77376 18.0859 4.08301C 18.4603 4.39225 18.6475 4.78776 18.6475 5.26953L 17.7393 5.26953C 17.7393 5.02214 17.6335 4.80892 17.4219 4.62988C 17.2135 4.45085 16.9499 4.36133 16.6309 4.36133C 16.3021 4.36133 16.0449 4.43294 15.8594 4.57617C 15.6738 4.7194 15.5811 4.90658 15.5811 5.1377C 15.5811 5.35579 15.6673 5.52018 15.8398 5.63086C 16.0124 5.74154 16.3232 5.84733 16.7725 5.94824C 17.2249 6.04915 17.5911 6.1696 17.8711 6.30957C 18.151 6.44954 18.3577 6.61882 18.4912 6.81738C 18.6279 7.0127 18.6963 7.25195 18.6963 7.53516C 18.6963 8.00716 18.5075 8.38639 18.1299 8.67285C 17.7523 8.95605 17.2624 9.09766 16.6602 9.09766C 16.237 9.09766 15.8626 9.02279 15.5371 8.87305C 15.2116 8.72331 14.9561 8.51497 14.7705 8.24805C 14.5882 7.97786 14.4971 7.68652 14.4971 7.37402L 15.4004 7.37402C 15.4167 7.67676 15.5371 7.91764 15.7617 8.09668C 15.9896 8.27246 16.2891 8.36035 16.6602 8.36035C 17.002 8.36035 17.2754 8.29199 17.4805 8.15527C 17.6888 8.0153 17.793 7.82975 17.793 7.59863ZM 22.9492 7.59863C 22.9492 7.35449 22.8564 7.16569 22.6709 7.03223C 22.4886 6.89551 22.168 6.77832 21.709 6.68066C 21.2533 6.58301 20.8903 6.46582 20.6201 6.3291C 20.3532 6.19238 20.1546 6.02962 20.0244 5.84082C 19.8975 5.65202 19.834 5.42741 19.834 5.16699C 19.834 4.73405 20.0163 4.36784 20.3809 4.06836C 20.7487 3.76888 21.2174 3.61914 21.7871 3.61914C 22.3861 3.61914 22.8711 3.77376 23.2422 4.08301C 23.6165 4.39225 23.8037 4.78776 23.8037 5.26953L 22.8955 5.26953C 22.8955 5.02214 22.7897 4.80892 22.5781 4.62988C 22.3698 4.45085 22.1061 4.36133 21.7871 4.36133C 21.4583 4.36133 21.2012 4.43294 21.0156 4.57617C 20.8301 4.7194 20.7373 4.90658 20.7373 5.1377C 20.7373 5.35579 20.8236 5.52018 20.9961 5.63086C 21.1686 5.74154 21.4795 5.84733 21.9287 5.94824C 22.3812 6.04915 22.7474 6.1696 23.0273 6.30957C 23.3073 6.44954 23.514 6.61882 23.6475 6.81738C 23.7842 7.0127 23.8525 7.25195 23.8525 7.53516C 23.8525 8.00716 23.6637 8.38639 23.2861 8.67285C 22.9085 8.95605 22.4186 9.09766 21.8164 9.09766C 21.3932 9.09766 21.0189 9.02279 20.6934 8.87305C 20.3678 8.72331 20.1123 8.51497 19.9268 8.24805C 19.7445 7.97786 19.6533 7.68652 19.6533 7.37402L 20.5566 7.37402C 20.5729 7.67676 20.6934 7.91764 20.918 8.09668C 21.1458 8.27246 21.4453 8.36035 21.8164 8.36035C 22.1582 8.36035 22.4316 8.29199 22.6367 8.15527C 22.8451 8.0153 22.9492 7.82975 22.9492 7.59863ZM 28.291 9C 28.2389 8.89583 28.1966 8.71029 28.1641 8.44336C 27.7441 8.87956 27.2428 9.09766 26.6602 9.09766C 26.1393 9.09766 25.7113 8.95117 25.376 8.6582C 25.0439 8.36198 24.8779 7.98763 24.8779 7.53516C 24.8779 6.98503 25.0863 6.55859 25.5029 6.25586C 25.9229 5.94987 26.512 5.79688 27.2705 5.79688L 28.1494 5.79688L 28.1494 5.38184C 28.1494 5.06608 28.055 4.81543 27.8662 4.62988C 27.6774 4.44108 27.3991 4.34668 27.0312 4.34668C 26.709 4.34668 26.4388 4.42806 26.2207 4.59082C 26.0026 4.75358 25.8936 4.95052 25.8936 5.18164L 24.9854 5.18164C 24.9854 4.91797 25.0781 4.66406 25.2637 4.41992C 25.4525 4.17253 25.7064 3.97721 26.0254 3.83398C 26.3477 3.69076 26.7008 3.61914 27.085 3.61914C 27.6937 3.61914 28.1706 3.77214 28.5156 4.07812C 28.8607 4.38086 29.0397 4.79915 29.0527 5.33301L 29.0527 7.76465C 29.0527 8.24967 29.1146 8.63542 29.2383 8.92188L 29.2383 9L 28.291 9ZM 26.792 8.31152C 27.0752 8.31152 27.3438 8.23828 27.5977 8.0918C 27.8516 7.94531 28.0355 7.75488 28.1494 7.52051L 28.1494 6.43652L 27.4414 6.43652C 26.3346 6.43652 25.7812 6.76042 25.7812 7.4082C 25.7812 7.69141 25.8757 7.91276 26.0645 8.07227C 26.2533 8.23177 26.4958 8.31152 26.792 8.31152ZM 30.2539 6.31445C 30.2539 5.49089 30.4443 4.83659 30.8252 4.35156C 31.2061 3.86328 31.7106 3.61914 32.3389 3.61914C 32.9834 3.61914 33.4863 3.84701 33.8477 4.30273L 33.8916 3.7168L 34.7168 3.7168L 34.7168 8.87305C 34.7168 9.55664 34.5133 10.0954 34.1064 10.4893C 33.7028 10.8831 33.1592 11.0801 32.4756 11.0801C 32.0947 11.0801 31.722 10.9987 31.3574 10.8359C 30.9928 10.6732 30.7145 10.4502 30.5225 10.167L 30.9912 9.625C 31.3786 10.1035 31.8522 10.3428 32.4121 10.3428C 32.8516 10.3428 33.1934 10.2191 33.4375 9.97168C 33.6849 9.72428 33.8086 9.37598 33.8086 8.92676L 33.8086 8.47266C 33.4473 8.88932 32.9541 9.09766 32.3291 9.09766C 31.7106 9.09766 31.2093 8.84863 30.8252 8.35059C 30.4443 7.85254 30.2539 7.17383 30.2539 6.31445ZM 31.1621 6.41699C 31.1621 7.0127 31.2842 7.48145 31.5283 7.82324C 31.7725 8.16178 32.1143 8.33105 32.5537 8.33105C 33.1234 8.33105 33.5417 8.07227 33.8086 7.55469L 33.8086 5.14258C 33.5319 4.63802 33.1169 4.38574 32.5635 4.38574C 32.124 4.38574 31.7806 4.55664 31.5332 4.89844C 31.2858 5.24023 31.1621 5.74642 31.1621 6.41699ZM 38.2764 9.09766C 37.5602 9.09766 36.9775 8.86328 36.5283 8.39453C 36.0791 7.92253 35.8545 7.29264 35.8545 6.50488L 35.8545 6.33887C 35.8545 5.81478 35.9538 5.34766 36.1523 4.9375C 36.3542 4.52409 36.6341 4.20182 36.9922 3.9707C 37.3535 3.73633 37.7441 3.61914 38.1641 3.61914C 38.8509 3.61914 39.3848 3.84538 39.7656 4.29785C 40.1465 4.75033 40.3369 5.39811 40.3369 6.24121L 40.3369 6.61719L 36.7578 6.61719C 36.7708 7.13802 36.9222 7.55957 37.2119 7.88184C 37.5049 8.20085 37.876 8.36035 38.3252 8.36035C 38.6442 8.36035 38.9144 8.29525 39.1357 8.16504C 39.3571 8.03483 39.5508 7.8623 39.7168 7.64746L 40.2686 8.07715C 39.8258 8.75749 39.1618 9.09766 38.2764 9.09766ZM 38.1641 4.36133C 37.7995 4.36133 37.4935 4.49479 37.2461 4.76172C 36.9987 5.02539 36.8457 5.39648 36.7871 5.875L 39.4336 5.875L 39.4336 5.80664C 39.4076 5.34766 39.2839 4.99284 39.0625 4.74219C 38.8411 4.48828 38.5417 4.36133 38.1641 4.36133ZM 46.1035 5.83105C 45.2995 5.59993 44.7135 5.31673 44.3457 4.98145C 43.9811 4.6429 43.7988 4.22624 43.7988 3.73145C 43.7988 3.17155 44.0218 2.70931 44.4678 2.34473C 44.917 1.97689 45.4997 1.79297 46.2158 1.79297C 46.7041 1.79297 47.1387 1.88737 47.5195 2.07617C 47.9036 2.26497 48.1999 2.52539 48.4082 2.85742C 48.6198 3.18945 48.7256 3.55241 48.7256 3.94629L 47.7832 3.94629C 47.7832 3.5166 47.6465 3.17969 47.373 2.93555C 47.0996 2.68815 46.7139 2.56445 46.2158 2.56445C 45.7536 2.56445 45.3923 2.66699 45.1318 2.87207C 44.8747 3.07389 44.7461 3.35547 44.7461 3.7168C 44.7461 4.00651 44.8682 4.25228 45.1123 4.4541C 45.3597 4.65267 45.778 4.83496 46.3672 5.00098C 46.9596 5.16699 47.4219 5.35091 47.7539 5.55273C 48.0892 5.7513 48.3366 5.98405 48.4961 6.25098C 48.6589 6.5179 48.7402 6.83203 48.7402 7.19336C 48.7402 7.76953 48.5156 8.23177 48.0664 8.58008C 47.6172 8.92513 47.0166 9.09766 46.2646 9.09766C 45.7764 9.09766 45.3206 9.00488 44.8975 8.81934C 44.4743 8.63053 44.1471 8.37337 43.916 8.04785C 43.6882 7.72233 43.5742 7.35286 43.5742 6.93945L 44.5166 6.93945C 44.5166 7.36914 44.6745 7.70931 44.9902 7.95996C 45.3092 8.20736 45.734 8.33105 46.2646 8.33105C 46.7594 8.33105 47.1387 8.23014 47.4023 8.02832C 47.666 7.8265 47.7979 7.55143 47.7979 7.20312C 47.7979 6.85482 47.6758 6.58626 47.4316 6.39746C 47.1875 6.2054 46.7448 6.0166 46.1035 5.83105ZM 51.0303 2.4375L 51.0303 3.7168L 52.0166 3.7168L 52.0166 4.41504L 51.0303 4.41504L 51.0303 7.69141C 51.0303 7.90299 51.0742 8.0625 51.1621 8.16992C 51.25 8.27409 51.3997 8.32617 51.6113 8.32617C 51.7155 8.32617 51.8587 8.30664 52.041 8.26758L 52.041 9C 51.8034 9.0651 51.5723 9.09766 51.3477 9.09766C 50.944 9.09766 50.6396 8.97559 50.4346 8.73145C 50.2295 8.4873 50.127 8.14062 50.127 7.69141L 50.127 4.41504L 49.165 4.41504L 49.165 3.7168L 50.127 3.7168L 50.127 2.4375L 51.0303 2.4375ZM 55.6299 4.52734C 55.4932 4.50456 55.3451 4.49316 55.1855 4.49316C 54.5931 4.49316 54.1911 4.74544 53.9795 5.25L 53.9795 9L 53.0762 9L 53.0762 3.7168L 53.9551 3.7168L 53.9697 4.32715C 54.266 3.85514 54.6859 3.61914 55.2295 3.61914C 55.4053 3.61914 55.5387 3.64193 55.6299 3.6875L 55.6299 4.52734ZM 58.5596 9.09766C 57.8434 9.09766 57.2607 8.86328 56.8115 8.39453C 56.3623 7.92253 56.1377 7.29264 56.1377 6.50488L 56.1377 6.33887C 56.1377 5.81478 56.237 5.34766 56.4355 4.9375C 56.6374 4.52409 56.9173 4.20182 57.2754 3.9707C 57.6367 3.73633 58.0273 3.61914 58.4473 3.61914C 59.1341 3.61914 59.668 3.84538 60.0488 4.29785C 60.4297 4.75033 60.6201 5.39811 60.6201 6.24121L 60.6201 6.61719L 57.041 6.61719C 57.054 7.13802 57.2054 7.55957 57.4951 7.88184C 57.7881 8.20085 58.1592 8.36035 58.6084 8.36035C 58.9274 8.36035 59.1976 8.29525 59.4189 8.16504C 59.6403 8.03483 59.834 7.8623 60 7.64746L 60.5518 8.07715C 60.109 8.75749 59.445 9.09766 58.5596 9.09766ZM 58.4473 4.36133C 58.0827 4.36133 57.7767 4.49479 57.5293 4.76172C 57.2819 5.02539 57.1289 5.39648 57.0703 5.875L 59.7168 5.875L 59.7168 5.80664C 59.6908 5.34766 59.5671 4.99284 59.3457 4.74219C 59.1243 4.48828 58.8249 4.36133 58.4473 4.36133ZM 64.9316 9C 64.8796 8.89583 64.8372 8.71029 64.8047 8.44336C 64.3848 8.87956 63.8835 9.09766 63.3008 9.09766C 62.7799 9.09766 62.3519 8.95117 62.0166 8.6582C 61.6846 8.36198 61.5186 7.98763 61.5186 7.53516C 61.5186 6.98503 61.7269 6.55859 62.1436 6.25586C 62.5635 5.94987 63.1527 5.79688 63.9111 5.79688L 64.79 5.79688L 64.79 5.38184C 64.79 5.06608 64.6956 4.81543 64.5068 4.62988C 64.318 4.44108 64.0397 4.34668 63.6719 4.34668C 63.3496 4.34668 63.0794 4.42806 62.8613 4.59082C 62.6432 4.75358 62.5342 4.95052 62.5342 5.18164L 61.626 5.18164C 61.626 4.91797 61.7188 4.66406 61.9043 4.41992C 62.0931 4.17253 62.347 3.97721 62.666 3.83398C 62.9883 3.69076 63.3415 3.61914 63.7256 3.61914C 64.3343 3.61914 64.8112 3.77214 65.1562 4.07812C 65.5013 4.38086 65.6803 4.79915 65.6934 5.33301L 65.6934 7.76465C 65.6934 8.24967 65.7552 8.63542 65.8789 8.92188L 65.8789 9L 64.9316 9ZM 63.4326 8.31152C 63.7158 8.31152 63.9844 8.23828 64.2383 8.0918C 64.4922 7.94531 64.6761 7.75488 64.79 7.52051L 64.79 6.43652L 64.082 6.43652C 62.9753 6.43652 62.4219 6.76042 62.4219 7.4082C 62.4219 7.69141 62.5163 7.91276 62.7051 8.07227C 62.8939 8.23177 63.1364 8.31152 63.4326 8.31152ZM 67.959 3.7168L 67.9834 4.30273C 68.3708 3.84701 68.8932 3.61914 69.5508 3.61914C 70.2897 3.61914 70.7926 3.90234 71.0596 4.46875C 71.2354 4.21484 71.4632 4.00977 71.7432 3.85352C 72.0264 3.69727 72.36 3.61914 72.7441 3.61914C 73.903 3.61914 74.4922 4.23275 74.5117 5.45996L 74.5117 9L 73.6084 9L 73.6084 5.51367C 73.6084 5.13607 73.5221 4.85449 73.3496 4.66895C 73.1771 4.48014 72.8874 4.38574 72.4805 4.38574C 72.1452 4.38574 71.8669 4.48665 71.6455 4.68848C 71.4242 4.88704 71.2956 5.1556 71.2598 5.49414L 71.2598 9L 70.3516 9L 70.3516 5.53809C 70.3516 4.76986 69.9756 4.38574 69.2236 4.38574C 68.6312 4.38574 68.2259 4.63802 68.0078 5.14258L 68.0078 9L 67.1045 9L 67.1045 3.7168L 67.959 3.7168Z"/>
<path id="path3_fill" d="M 0 2C 0 0.895431 0.895431 0 2 0L 88 0C 89.1046 0 90 0.895431 90 2L 90 38C 90 39.1046 89.1046 40 88 40L 2 40C 0.895431 40 0 39.1046 0 38L 0 2Z"/>
<path id="path4_fill" d="M 31.2402 5.74414C 31.1523 6.49609 30.874 7.07715 30.4053 7.4873C 29.9398 7.89421 29.3197 8.09766 28.5449 8.09766C 27.7051 8.09766 27.0312 7.79655 26.5234 7.19434C 26.0189 6.59212 25.7666 5.78646 25.7666 4.77734L 25.7666 4.09375C 25.7666 3.43294 25.8838 2.85189 26.1182 2.35059C 26.3558 1.84928 26.6911 1.46517 27.124 1.19824C 27.557 0.92806 28.0583 0.792969 28.6279 0.792969C 29.3831 0.792969 29.9886 1.00456 30.4443 1.42773C 30.9001 1.84766 31.1654 2.43034 31.2402 3.17578L 30.2979 3.17578C 30.2165 2.60938 30.0391 2.19922 29.7656 1.94531C 29.4954 1.69141 29.1162 1.56445 28.6279 1.56445C 28.029 1.56445 27.5586 1.78581 27.2168 2.22852C 26.8783 2.67122 26.709 3.30111 26.709 4.11816L 26.709 4.80664C 26.709 5.57812 26.8701 6.19173 27.1924 6.64746C 27.5146 7.10319 27.9655 7.33105 28.5449 7.33105C 29.0658 7.33105 29.4645 7.21387 29.7412 6.97949C 30.0212 6.74186 30.2067 6.33008 30.2979 5.74414L 31.2402 5.74414ZM 32.1436 5.30957C 32.1436 4.79199 32.2445 4.3265 32.4463 3.91309C 32.6514 3.49967 32.9346 3.18066 33.2959 2.95605C 33.6605 2.73145 34.0755 2.61914 34.541 2.61914C 35.2604 2.61914 35.8415 2.86816 36.2842 3.36621C 36.7301 3.86426 36.9531 4.52669 36.9531 5.35352L 36.9531 5.41699C 36.9531 5.93132 36.8538 6.39355 36.6553 6.80371C 36.46 7.21061 36.1784 7.52799 35.8105 7.75586C 35.446 7.98372 35.026 8.09766 34.5508 8.09766C 33.8346 8.09766 33.2536 7.84863 32.8076 7.35059C 32.3649 6.85254 32.1436 6.19336 32.1436 5.37305L 32.1436 5.30957ZM 33.0518 5.41699C 33.0518 6.00293 33.1868 6.47331 33.457 6.82812C 33.7305 7.18294 34.0951 7.36035 34.5508 7.36035C 35.0098 7.36035 35.3743 7.18132 35.6445 6.82324C 35.9147 6.46191 36.0498 5.95736 36.0498 5.30957C 36.0498 4.73014 35.9115 4.26139 35.6348 3.90332C 35.3613 3.54199 34.9967 3.36133 34.541 3.36133C 34.0951 3.36133 33.7354 3.53874 33.4619 3.89355C 33.1885 4.24837 33.0518 4.75618 33.0518 5.41699ZM 40.6396 3.52734C 40.5029 3.50456 40.3548 3.49316 40.1953 3.49316C 39.6029 3.49316 39.2008 3.74544 38.9893 4.25L 38.9893 8L 38.0859 8L 38.0859 2.7168L 38.9648 2.7168L 38.9795 3.32715C 39.2757 2.85514 39.6956 2.61914 40.2393 2.61914C 40.415 2.61914 40.5485 2.64193 40.6396 2.6875L 40.6396 3.52734ZM 43.5693 8.09766C 42.8532 8.09766 42.2705 7.86328 41.8213 7.39453C 41.3721 6.92253 41.1475 6.29264 41.1475 5.50488L 41.1475 5.33887C 41.1475 4.81478 41.2467 4.34766 41.4453 3.9375C 41.6471 3.52409 41.9271 3.20182 42.2852 2.9707C 42.6465 2.73633 43.0371 2.61914 43.457 2.61914C 44.1439 2.61914 44.6777 2.84538 45.0586 3.29785C 45.4395 3.75033 45.6299 4.39811 45.6299 5.24121L 45.6299 5.61719L 42.0508 5.61719C 42.0638 6.13802 42.2152 6.55957 42.5049 6.88184C 42.7979 7.20085 43.1689 7.36035 43.6182 7.36035C 43.9372 7.36035 44.2074 7.29525 44.4287 7.16504C 44.6501 7.03483 44.8438 6.8623 45.0098 6.64746L 45.5615 7.07715C 45.1188 7.75749 44.4548 8.09766 43.5693 8.09766ZM 43.457 3.36133C 43.0924 3.36133 42.7865 3.49479 42.5391 3.76172C 42.2917 4.02539 42.1387 4.39648 42.0801 4.875L 44.7266 4.875L 44.7266 4.80664C 44.7005 4.34766 44.5768 3.99284 44.3555 3.74219C 44.1341 3.48828 43.8346 3.36133 43.457 3.36133ZM 52.2852 8L 51.3428 8L 47.7637 2.52148L 47.7637 8L 46.8213 8L 46.8213 0.890625L 47.7637 0.890625L 51.3525 6.39355L 51.3525 0.890625L 52.2852 0.890625L 52.2852 8ZM 54.8926 7.2334L 58.2617 7.2334L 58.2617 8L 53.9502 8L 53.9502 0.890625L 54.8926 0.890625L 54.8926 7.2334ZM 60.2686 5.2168L 60.2686 8L 59.3311 8L 59.3311 0.890625L 61.9531 0.890625C 62.7311 0.890625 63.3398 1.08919 63.7793 1.48633C 64.222 1.88346 64.4434 2.40918 64.4434 3.06348C 64.4434 3.75358 64.2269 4.28581 63.7939 4.66016C 63.3643 5.03125 62.7474 5.2168 61.9434 5.2168L 60.2686 5.2168ZM 60.2686 4.4502L 61.9531 4.4502C 62.4544 4.4502 62.8385 4.33301 63.1055 4.09863C 63.3724 3.861 63.5059 3.51921 63.5059 3.07324C 63.5059 2.65007 63.3724 2.31152 63.1055 2.05762C 62.8385 1.80371 62.4723 1.67188 62.0068 1.66211L 60.2686 1.66211L 60.2686 4.4502Z"/>
<path id="path5_fill" d="M 90 20C 90 31.0457 69.8528 40 45 40C 20.1472 40 0 31.0457 0 20C 0 8.9543 20.1472 0 45 0C 69.8528 0 90 8.9543 90 20Z"/>
<path id="path6_fill" d="M 25.3027 0.144531L 22.3242 0.144531L 21.6553 2L 20.6885 2L 23.4033 -5.10938L 24.2236 -5.10938L 26.9434 2L 25.9814 2L 25.3027 0.144531ZM 22.6074 -0.626953L 25.0244 -0.626953L 23.8135 -3.95215L 22.6074 -0.626953ZM 28.6133 -3.2832L 28.6426 -2.61914C 29.0462 -3.12695 29.5736 -3.38086 30.2246 -3.38086C 31.3411 -3.38086 31.9043 -2.75098 31.9141 -1.49121L 31.9141 2L 31.0107 2L 31.0107 -1.49609C 31.0075 -1.87695 30.9196 -2.15853 30.7471 -2.34082C 30.5778 -2.52311 30.3125 -2.61426 29.9512 -2.61426C 29.6582 -2.61426 29.401 -2.53613 29.1797 -2.37988C 28.9583 -2.22363 28.7858 -2.01855 28.6621 -1.76465L 28.6621 2L 27.7588 2L 27.7588 -3.2832L 28.6133 -3.2832ZM 34.1309 -3.2832L 34.1602 -2.61914C 34.5638 -3.12695 35.0911 -3.38086 35.7422 -3.38086C 36.8587 -3.38086 37.4219 -2.75098 37.4316 -1.49121L 37.4316 2L 36.5283 2L 36.5283 -1.49609C 36.5251 -1.87695 36.4372 -2.15853 36.2646 -2.34082C 36.0954 -2.52311 35.8301 -2.61426 35.4688 -2.61426C 35.1758 -2.61426 34.9186 -2.53613 34.6973 -2.37988C 34.4759 -2.22363 34.3034 -2.01855 34.1797 -1.76465L 34.1797 2L 33.2764 2L 33.2764 -3.2832L 34.1309 -3.2832ZM 38.5547 -0.69043C 38.5547 -1.20801 38.6556 -1.6735 38.8574 -2.08691C 39.0625 -2.50033 39.3457 -2.81934 39.707 -3.04395C 40.0716 -3.26855 40.4867 -3.38086 40.9521 -3.38086C 41.6715 -3.38086 42.2526 -3.13184 42.6953 -2.63379C 43.1413 -2.13574 43.3643 -1.47331 43.3643 -0.646484L 43.3643 -0.583008C 43.3643 -0.0686849 43.265 0.393555 43.0664 0.803711C 42.8711 1.21061 42.5895 1.52799 42.2217 1.75586C 41.8571 1.98372 41.4372 2.09766 40.9619 2.09766C 40.2458 2.09766 39.6647 1.84863 39.2188 1.35059C 38.776 0.852539 38.5547 0.193359 38.5547 -0.626953L 38.5547 -0.69043ZM 39.4629 -0.583008C 39.4629 0.00292969 39.598 0.473307 39.8682 0.828125C 40.1416 1.18294 40.5062 1.36035 40.9619 1.36035C 41.4209 1.36035 41.7855 1.18132 42.0557 0.823242C 42.3258 0.461914 42.4609 -0.0426432 42.4609 -0.69043C 42.4609 -1.26986 42.3226 -1.73861 42.0459 -2.09668C 41.7725 -2.45801 41.4079 -2.63867 40.9521 -2.63867C 40.5062 -2.63867 40.1465 -2.46126 39.873 -2.10645C 39.5996 -1.75163 39.4629 -1.24382 39.4629 -0.583008ZM 45.7227 -4.5625L 45.7227 -3.2832L 46.709 -3.2832L 46.709 -2.58496L 45.7227 -2.58496L 45.7227 0.691406C 45.7227 0.902995 45.7666 1.0625 45.8545 1.16992C 45.9424 1.27409 46.0921 1.32617 46.3037 1.32617C 46.4079 1.32617 46.5511 1.30664 46.7334 1.26758L 46.7334 2C 46.4958 2.0651 46.2646 2.09766 46.04 2.09766C 45.6364 2.09766 45.332 1.97559 45.127 1.73145C 44.9219 1.4873 44.8193 1.14062 44.8193 0.691406L 44.8193 -2.58496L 43.8574 -2.58496L 43.8574 -3.2832L 44.8193 -3.2832L 44.8193 -4.5625L 45.7227 -4.5625ZM 51.0303 2C 50.9782 1.89583 50.9359 1.71029 50.9033 1.44336C 50.4834 1.87956 49.9821 2.09766 49.3994 2.09766C 48.8786 2.09766 48.4505 1.95117 48.1152 1.6582C 47.7832 1.36198 47.6172 0.98763 47.6172 0.535156C 47.6172 -0.014974 47.8255 -0.441406 48.2422 -0.744141C 48.6621 -1.05013 49.2513 -1.20312 50.0098 -1.20312L 50.8887 -1.20312L 50.8887 -1.61816C 50.8887 -1.93392 50.7943 -2.18457 50.6055 -2.37012C 50.4167 -2.55892 50.1383 -2.65332 49.7705 -2.65332C 49.4482 -2.65332 49.1781 -2.57194 48.96 -2.40918C 48.7419 -2.24642 48.6328 -2.04948 48.6328 -1.81836L 47.7246 -1.81836C 47.7246 -2.08203 47.8174 -2.33594 48.0029 -2.58008C 48.1917 -2.82747 48.4456 -3.02279 48.7646 -3.16602C 49.0869 -3.30924 49.4401 -3.38086 49.8242 -3.38086C 50.4329 -3.38086 50.9098 -3.22786 51.2549 -2.92188C 51.5999 -2.61914 51.779 -2.20085 51.792 -1.66699L 51.792 0.764648C 51.792 1.24967 51.8538 1.63542 51.9775 1.92188L 51.9775 2L 51.0303 2ZM 49.5312 1.31152C 49.8145 1.31152 50.083 1.23828 50.3369 1.0918C 50.5908 0.945312 50.7747 0.754883 50.8887 0.520508L 50.8887 -0.563477L 50.1807 -0.563477C 49.0739 -0.563477 48.5205 -0.239583 48.5205 0.408203C 48.5205 0.691406 48.6149 0.91276 48.8037 1.07227C 48.9925 1.23177 49.235 1.31152 49.5312 1.31152ZM 54.4336 -4.5625L 54.4336 -3.2832L 55.4199 -3.2832L 55.4199 -2.58496L 54.4336 -2.58496L 54.4336 0.691406C 54.4336 0.902995 54.4775 1.0625 54.5654 1.16992C 54.6533 1.27409 54.8031 1.32617 55.0146 1.32617C 55.1188 1.32617 55.262 1.30664 55.4443 1.26758L 55.4443 2C 55.2067 2.0651 54.9756 2.09766 54.751 2.09766C 54.3473 2.09766 54.043 1.97559 53.8379 1.73145C 53.6328 1.4873 53.5303 1.14062 53.5303 0.691406L 53.5303 -2.58496L 52.5684 -2.58496L 52.5684 -3.2832L 53.5303 -3.2832L 53.5303 -4.5625L 54.4336 -4.5625ZM 57.4609 2L 56.5576 2L 56.5576 -3.2832L 57.4609 -3.2832L 57.4609 2ZM 56.4844 -4.68457C 56.4844 -4.83105 56.5283 -4.95475 56.6162 -5.05566C 56.7074 -5.15658 56.8408 -5.20703 57.0166 -5.20703C 57.1924 -5.20703 57.3258 -5.15658 57.417 -5.05566C 57.5081 -4.95475 57.5537 -4.83105 57.5537 -4.68457C 57.5537 -4.53809 57.5081 -4.41602 57.417 -4.31836C 57.3258 -4.2207 57.1924 -4.17188 57.0166 -4.17188C 56.8408 -4.17188 56.7074 -4.2207 56.6162 -4.31836C 56.5283 -4.41602 56.4844 -4.53809 56.4844 -4.68457ZM 58.6719 -0.69043C 58.6719 -1.20801 58.7728 -1.6735 58.9746 -2.08691C 59.1797 -2.50033 59.4629 -2.81934 59.8242 -3.04395C 60.1888 -3.26855 60.6038 -3.38086 61.0693 -3.38086C 61.7887 -3.38086 62.3698 -3.13184 62.8125 -2.63379C 63.2585 -2.13574 63.4814 -1.47331 63.4814 -0.646484L 63.4814 -0.583008C 63.4814 -0.0686849 63.3822 0.393555 63.1836 0.803711C 62.9883 1.21061 62.7067 1.52799 62.3389 1.75586C 61.9743 1.98372 61.5544 2.09766 61.0791 2.09766C 60.363 2.09766 59.7819 1.84863 59.3359 1.35059C 58.8932 0.852539 58.6719 0.193359 58.6719 -0.626953L 58.6719 -0.69043ZM 59.5801 -0.583008C 59.5801 0.00292969 59.7152 0.473307 59.9854 0.828125C 60.2588 1.18294 60.6234 1.36035 61.0791 1.36035C 61.5381 1.36035 61.9027 1.18132 62.1729 0.823242C 62.443 0.461914 62.5781 -0.0426432 62.5781 -0.69043C 62.5781 -1.26986 62.4398 -1.73861 62.1631 -2.09668C 61.8896 -2.45801 61.5251 -2.63867 61.0693 -2.63867C 60.6234 -2.63867 60.2637 -2.46126 59.9902 -2.10645C 59.7168 -1.75163 59.5801 -1.24382 59.5801 -0.583008ZM 65.4688 -3.2832L 65.498 -2.61914C 65.9017 -3.12695 66.429 -3.38086 67.0801 -3.38086C 68.1966 -3.38086 68.7598 -2.75098 68.7695 -1.49121L 68.7695 2L 67.8662 2L 67.8662 -1.49609C 67.863 -1.87695 67.7751 -2.15853 67.6025 -2.34082C 67.4333 -2.52311 67.168 -2.61426 66.8066 -2.61426C 66.5137 -2.61426 66.2565 -2.53613 66.0352 -2.37988C 65.8138 -2.22363 65.6413 -2.01855 65.5176 -1.76465L 65.5176 2L 64.6143 2L 64.6143 -3.2832L 65.4688 -3.2832ZM 37.7881 13.0674C 37.5472 13.4124 37.2103 13.6712 36.7773 13.8438C 36.3477 14.013 35.8464 14.0977 35.2734 14.0977C 34.694 14.0977 34.1797 13.9626 33.7305 13.6924C 33.2812 13.4189 32.9329 13.0316 32.6855 12.5303C 32.4414 12.029 32.3161 11.4479 32.3096 10.7871L 32.3096 10.167C 32.3096 9.09603 32.5586 8.26595 33.0566 7.67676C 33.5579 7.08757 34.2611 6.79297 35.166 6.79297C 35.9082 6.79297 36.5055 6.9834 36.958 7.36426C 37.4105 7.74186 37.6872 8.27897 37.7881 8.97559L 36.8506 8.97559C 36.6748 8.03483 36.1149 7.56445 35.1709 7.56445C 34.5426 7.56445 34.0658 7.78581 33.7402 8.22852C 33.418 8.66797 33.2552 9.30599 33.252 10.1426L 33.252 10.7236C 33.252 11.5212 33.4342 12.1559 33.7988 12.6279C 34.1634 13.0967 34.6566 13.3311 35.2783 13.3311C 35.6299 13.3311 35.9375 13.292 36.2012 13.2139C 36.4648 13.1357 36.6829 13.0039 36.8555 12.8184L 36.8555 11.2217L 35.21 11.2217L 35.21 10.46L 37.7881 10.46L 37.7881 13.0674ZM 41.7676 9.52734C 41.6309 9.50456 41.4827 9.49316 41.3232 9.49316C 40.7308 9.49316 40.3288 9.74544 40.1172 10.25L 40.1172 14L 39.2139 14L 39.2139 8.7168L 40.0928 8.7168L 40.1074 9.32715C 40.4036 8.85514 40.8236 8.61914 41.3672 8.61914C 41.543 8.61914 41.6764 8.64193 41.7676 8.6875L 41.7676 9.52734ZM 45.6689 14C 45.6169 13.8958 45.5745 13.7103 45.542 13.4434C 45.1221 13.8796 44.6208 14.0977 44.0381 14.0977C 43.5173 14.0977 43.0892 13.9512 42.7539 13.6582C 42.4219 13.362 42.2559 12.9876 42.2559 12.5352C 42.2559 11.985 42.4642 11.5586 42.8809 11.2559C 43.3008 10.9499 43.89 10.7969 44.6484 10.7969L 45.5273 10.7969L 45.5273 10.3818C 45.5273 10.0661 45.4329 9.81543 45.2441 9.62988C 45.0553 9.44108 44.777 9.34668 44.4092 9.34668C 44.0869 9.34668 43.8167 9.42806 43.5986 9.59082C 43.3805 9.75358 43.2715 9.95052 43.2715 10.1816L 42.3633 10.1816C 42.3633 9.91797 42.4561 9.66406 42.6416 9.41992C 42.8304 9.17253 43.0843 8.97721 43.4033 8.83398C 43.7256 8.69076 44.0788 8.61914 44.4629 8.61914C 45.0716 8.61914 45.5485 8.77214 45.8936 9.07812C 46.2386 9.38086 46.4176 9.79915 46.4307 10.333L 46.4307 12.7646C 46.4307 13.2497 46.4925 13.6354 46.6162 13.9219L 46.6162 14L 45.6689 14ZM 44.1699 13.3115C 44.4531 13.3115 44.7217 13.2383 44.9756 13.0918C 45.2295 12.9453 45.4134 12.7549 45.5273 12.5205L 45.5273 11.4365L 44.8193 11.4365C 43.7126 11.4365 43.1592 11.7604 43.1592 12.4082C 43.1592 12.6914 43.2536 12.9128 43.4424 13.0723C 43.6312 13.2318 43.8737 13.3115 44.1699 13.3115ZM 52.3096 11.417C 52.3096 12.221 52.1257 12.8688 51.7578 13.3604C 51.39 13.8519 50.8919 14.0977 50.2637 14.0977C 49.6224 14.0977 49.1178 13.8942 48.75 13.4873L 48.75 16.0312L 47.8467 16.0312L 47.8467 8.7168L 48.6719 8.7168L 48.7158 9.30273C 49.0837 8.84701 49.5947 8.61914 50.249 8.61914C 50.8838 8.61914 51.3851 8.8584 51.7529 9.33691C 52.124 9.81543 52.3096 10.4811 52.3096 11.334L 52.3096 11.417ZM 51.4062 11.3145C 51.4062 10.7188 51.2793 10.2484 51.0254 9.90332C 50.7715 9.55827 50.4232 9.38574 49.9805 9.38574C 49.4336 9.38574 49.0234 9.62826 48.75 10.1133L 48.75 12.6377C 49.0202 13.1195 49.4336 13.3604 49.9902 13.3604C 50.4232 13.3604 50.7666 13.1895 51.0205 12.8477C 51.2777 12.5026 51.4062 11.9915 51.4062 11.3145ZM 54.3652 9.35645C 54.7656 8.86491 55.2865 8.61914 55.9277 8.61914C 57.0443 8.61914 57.6074 9.24902 57.6172 10.5088L 57.6172 14L 56.7139 14L 56.7139 10.5039C 56.7106 10.123 56.6227 9.84147 56.4502 9.65918C 56.2809 9.47689 56.0156 9.38574 55.6543 9.38574C 55.3613 9.38574 55.1042 9.46387 54.8828 9.62012C 54.6615 9.77637 54.4889 9.98145 54.3652 10.2354L 54.3652 14L 53.4619 14L 53.4619 6.5L 54.3652 6.5L 54.3652 9.35645Z"/>
<path id="path7_fill" d="M 27.4902 -1.28613L 24.4092 -1.28613L 24.4092 1.2334L 27.9883 1.2334L 27.9883 2L 23.4717 2L 23.4717 -5.10938L 27.9395 -5.10938L 27.9395 -4.33789L 24.4092 -4.33789L 24.4092 -2.05273L 27.4902 -2.05273L 27.4902 -1.28613ZM 30.7861 -1.35449L 31.958 -3.2832L 33.0127 -3.2832L 31.2842 -0.670898L 33.0664 2L 32.0215 2L 30.8008 0.0224609L 29.5801 2L 28.5303 2L 30.3125 -0.670898L 28.584 -3.2832L 29.6289 -3.2832L 30.7861 -1.35449ZM 35.2002 -4.5625L 35.2002 -3.2832L 36.1865 -3.2832L 36.1865 -2.58496L 35.2002 -2.58496L 35.2002 0.691406C 35.2002 0.902995 35.2441 1.0625 35.332 1.16992C 35.4199 1.27409 35.5697 1.32617 35.7812 1.32617C 35.8854 1.32617 36.0286 1.30664 36.2109 1.26758L 36.2109 2C 35.9733 2.0651 35.7422 2.09766 35.5176 2.09766C 35.1139 2.09766 34.8096 1.97559 34.6045 1.73145C 34.3994 1.4873 34.2969 1.14062 34.2969 0.691406L 34.2969 -2.58496L 33.335 -2.58496L 33.335 -3.2832L 34.2969 -3.2832L 34.2969 -4.5625L 35.2002 -4.5625ZM 39.7998 -2.47266C 39.6631 -2.49544 39.515 -2.50684 39.3555 -2.50684C 38.763 -2.50684 38.361 -2.25456 38.1494 -1.75L 38.1494 2L 37.2461 2L 37.2461 -3.2832L 38.125 -3.2832L 38.1396 -2.67285C 38.4359 -3.14486 38.8558 -3.38086 39.3994 -3.38086C 39.5752 -3.38086 39.7087 -3.35807 39.7998 -3.3125L 39.7998 -2.47266ZM 43.7012 2C 43.6491 1.89583 43.6068 1.71029 43.5742 1.44336C 43.1543 1.87956 42.653 2.09766 42.0703 2.09766C 41.5495 2.09766 41.1214 1.95117 40.7861 1.6582C 40.4541 1.36198 40.2881 0.98763 40.2881 0.535156C 40.2881 -0.0149739 40.4964 -0.441406 40.9131 -0.744141C 41.333 -1.05013 41.9222 -1.20312 42.6807 -1.20312L 43.5596 -1.20312L 43.5596 -1.61816C 43.5596 -1.93392 43.4652 -2.18457 43.2764 -2.37012C 43.0876 -2.55892 42.8092 -2.65332 42.4414 -2.65332C 42.1191 -2.65332 41.849 -2.57194 41.6309 -2.40918C 41.4128 -2.24642 41.3037 -2.04948 41.3037 -1.81836L 40.3955 -1.81836C 40.3955 -2.08203 40.4883 -2.33594 40.6738 -2.58008C 40.8626 -2.82747 41.1165 -3.02279 41.4355 -3.16602C 41.7578 -3.30924 42.111 -3.38086 42.4951 -3.38086C 43.1038 -3.38086 43.5807 -3.22786 43.9258 -2.92188C 44.2708 -2.61914 44.4499 -2.20085 44.4629 -1.66699L 44.4629 0.764648C 44.4629 1.24967 44.5247 1.63542 44.6484 1.92188L 44.6484 2L 43.7012 2ZM 42.2021 1.31152C 42.4854 1.31152 42.7539 1.23828 43.0078 1.0918C 43.2617 0.945312 43.4456 0.754883 43.5596 0.520508L 43.5596 -0.563477L 42.8516 -0.563477C 41.7448 -0.563477 41.1914 -0.239583 41.1914 0.408203C 41.1914 0.691406 41.2858 0.91276 41.4746 1.07227C 41.6634 1.23177 41.9059 1.31152 42.2021 1.31152ZM 47.998 1.36035C 48.3203 1.36035 48.6019 1.2627 48.8428 1.06738C 49.0837 0.87207 49.2171 0.62793 49.2432 0.334961L 50.0977 0.334961C 50.0814 0.637695 49.9772 0.925781 49.7852 1.19922C 49.5931 1.47266 49.3359 1.69076 49.0137 1.85352C 48.6947 2.01628 48.3561 2.09766 47.998 2.09766C 47.2786 2.09766 46.7057 1.8584 46.2793 1.37988C 45.8561 0.898112 45.6445 0.24056 45.6445 -0.592773L 45.6445 -0.744141C 45.6445 -1.25846 45.7389 -1.71582 45.9277 -2.11621C 46.1165 -2.5166 46.3867 -2.82747 46.7383 -3.04883C 47.0931 -3.27018 47.5114 -3.38086 47.9932 -3.38086C 48.5856 -3.38086 49.0771 -3.20345 49.4678 -2.84863C 49.8617 -2.49382 50.0716 -2.0332 50.0977 -1.4668L 49.2432 -1.4668C 49.2171 -1.80859 49.0869 -2.08854 48.8525 -2.30664C 48.6214 -2.52799 48.335 -2.63867 47.9932 -2.63867C 47.5342 -2.63867 47.1777 -2.47266 46.9238 -2.14062C 46.6732 -1.81185 46.5479 -1.33496 46.5479 -0.709961L 46.5479 -0.539062C 46.5479 0.0696614 46.6732 0.538411 46.9238 0.867188C 47.1745 1.19596 47.5326 1.36035 47.998 1.36035ZM 52.3389 -4.5625L 52.3389 -3.2832L 53.3252 -3.2832L 53.3252 -2.58496L 52.3389 -2.58496L 52.3389 0.691406C 52.3389 0.902995 52.3828 1.0625 52.4707 1.16992C 52.5586 1.27409 52.7083 1.32617 52.9199 1.32617C 53.0241 1.32617 53.1673 1.30664 53.3496 1.26758L 53.3496 2C 53.112 2.0651 52.8809 2.09766 52.6562 2.09766C 52.2526 2.09766 51.9482 1.97559 51.7432 1.73145C 51.5381 1.4873 51.4355 1.14062 51.4355 0.691406L 51.4355 -2.58496L 50.4736 -2.58496L 50.4736 -3.2832L 51.4355 -3.2832L 51.4355 -4.5625L 52.3389 -4.5625ZM 55.3662 2L 54.4629 2L 54.4629 -3.2832L 55.3662 -3.2832L 55.3662 2ZM 54.3896 -4.68457C 54.3896 -4.83105 54.4336 -4.95475 54.5215 -5.05566C 54.6126 -5.15658 54.7461 -5.20703 54.9219 -5.20703C 55.0977 -5.20703 55.2311 -5.15658 55.3223 -5.05566C 55.4134 -4.95475 55.459 -4.83105 55.459 -4.68457C 55.459 -4.53809 55.4134 -4.41602 55.3223 -4.31836C 55.2311 -4.2207 55.0977 -4.17188 54.9219 -4.17188C 54.7461 -4.17188 54.6126 -4.2207 54.5215 -4.31836C 54.4336 -4.41602 54.3896 -4.53809 54.3896 -4.68457ZM 56.5771 -0.69043C 56.5771 -1.20801 56.6781 -1.6735 56.8799 -2.08691C 57.085 -2.50033 57.3682 -2.81934 57.7295 -3.04395C 58.0941 -3.26855 58.5091 -3.38086 58.9746 -3.38086C 59.694 -3.38086 60.2751 -3.13184 60.7178 -2.63379C 61.1637 -2.13574 61.3867 -1.47331 61.3867 -0.646484L 61.3867 -0.583008C 61.3867 -0.0686848 61.2874 0.393555 61.0889 0.803711C 60.8936 1.21061 60.612 1.52799 60.2441 1.75586C 59.8796 1.98372 59.4596 2.09766 58.9844 2.09766C 58.2682 2.09766 57.6872 1.84863 57.2412 1.35059C 56.7985 0.852539 56.5771 0.193359 56.5771 -0.626953L 56.5771 -0.69043ZM 57.4854 -0.583008C 57.4854 0.00292969 57.6204 0.473307 57.8906 0.828125C 58.1641 1.18294 58.5286 1.36035 58.9844 1.36035C 59.4434 1.36035 59.8079 1.18132 60.0781 0.823242C 60.3483 0.461914 60.4834 -0.0426433 60.4834 -0.69043C 60.4834 -1.26986 60.3451 -1.73861 60.0684 -2.09668C 59.7949 -2.45801 59.4303 -2.63867 58.9746 -2.63867C 58.5286 -2.63867 58.1689 -2.46126 57.8955 -2.10645C 57.6221 -1.75163 57.4854 -1.24382 57.4854 -0.583008ZM 63.374 -3.2832L 63.4033 -2.61914C 63.807 -3.12695 64.3343 -3.38086 64.9854 -3.38086C 66.1019 -3.38086 66.665 -2.75098 66.6748 -1.49121L 66.6748 2L 65.7715 2L 65.7715 -1.49609C 65.7682 -1.87695 65.6803 -2.15853 65.5078 -2.34082C 65.3385 -2.52311 65.0732 -2.61426 64.7119 -2.61426C 64.4189 -2.61426 64.1618 -2.53613 63.9404 -2.37988C 63.7191 -2.22363 63.5465 -2.01855 63.4229 -1.76465L 63.4229 2L 62.5195 2L 62.5195 -3.2832L 63.374 -3.2832ZM 37.7881 13.0674C 37.5472 13.4124 37.2103 13.6712 36.7773 13.8438C 36.3477 14.013 35.8464 14.0977 35.2734 14.0977C 34.694 14.0977 34.1797 13.9626 33.7305 13.6924C 33.2812 13.4189 32.9329 13.0316 32.6855 12.5303C 32.4414 12.029 32.3161 11.4479 32.3096 10.7871L 32.3096 10.167C 32.3096 9.09603 32.5586 8.26595 33.0566 7.67676C 33.5579 7.08757 34.2611 6.79297 35.166 6.79297C 35.9082 6.79297 36.5055 6.9834 36.958 7.36426C 37.4105 7.74186 37.6872 8.27897 37.7881 8.97559L 36.8506 8.97559C 36.6748 8.03483 36.1149 7.56445 35.1709 7.56445C 34.5426 7.56445 34.0658 7.78581 33.7402 8.22852C 33.418 8.66797 33.2552 9.30599 33.252 10.1426L 33.252 10.7236C 33.252 11.5212 33.4342 12.1559 33.7988 12.6279C 34.1634 13.0967 34.6566 13.3311 35.2783 13.3311C 35.6299 13.3311 35.9375 13.292 36.2012 13.2139C 36.4648 13.1357 36.6829 13.0039 36.8555 12.8184L 36.8555 11.2217L 35.21 11.2217L 35.21 10.46L 37.7881 10.46L 37.7881 13.0674ZM 41.7676 9.52734C 41.6309 9.50456 41.4827 9.49316 41.3232 9.49316C 40.7308 9.49316 40.3288 9.74544 40.1172 10.25L 40.1172 14L 39.2139 14L 39.2139 8.7168L 40.0928 8.7168L 40.1074 9.32715C 40.4036 8.85514 40.8236 8.61914 41.3672 8.61914C 41.543 8.61914 41.6764 8.64193 41.7676 8.6875L 41.7676 9.52734ZM 45.6689 14C 45.6169 13.8958 45.5745 13.7103 45.542 13.4434C 45.1221 13.8796 44.6208 14.0977 44.0381 14.0977C 43.5173 14.0977 43.0892 13.9512 42.7539 13.6582C 42.4219 13.362 42.2559 12.9876 42.2559 12.5352C 42.2559 11.985 42.4642 11.5586 42.8809 11.2559C 43.3008 10.9499 43.89 10.7969 44.6484 10.7969L 45.5273 10.7969L 45.5273 10.3818C 45.5273 10.0661 45.4329 9.81543 45.2441 9.62988C 45.0553 9.44108 44.777 9.34668 44.4092 9.34668C 44.0869 9.34668 43.8167 9.42806 43.5986 9.59082C 43.3805 9.75358 43.2715 9.95052 43.2715 10.1816L 42.3633 10.1816C 42.3633 9.91797 42.4561 9.66406 42.6416 9.41992C 42.8304 9.17253 43.0843 8.97721 43.4033 8.83398C 43.7256 8.69076 44.0788 8.61914 44.4629 8.61914C 45.0716 8.61914 45.5485 8.77214 45.8936 9.07812C 46.2386 9.38086 46.4176 9.79915 46.4307 10.333L 46.4307 12.7646C 46.4307 13.2497 46.4925 13.6354 46.6162 13.9219L 46.6162 14L 45.6689 14ZM 44.1699 13.3115C 44.4531 13.3115 44.7217 13.2383 44.9756 13.0918C 45.2295 12.9453 45.4134 12.7549 45.5273 12.5205L 45.5273 11.4365L 44.8193 11.4365C 43.7126 11.4365 43.1592 11.7604 43.1592 12.4082C 43.1592 12.6914 43.2536 12.9128 43.4424 13.0723C 43.6312 13.2318 43.8737 13.3115 44.1699 13.3115ZM 52.3096 11.417C 52.3096 12.221 52.1257 12.8688 51.7578 13.3604C 51.39 13.8519 50.8919 14.0977 50.2637 14.0977C 49.6224 14.0977 49.1178 13.8942 48.75 13.4873L 48.75 16.0312L 47.8467 16.0312L 47.8467 8.7168L 48.6719 8.7168L 48.7158 9.30273C 49.0837 8.84701 49.5947 8.61914 50.249 8.61914C 50.8838 8.61914 51.3851 8.8584 51.7529 9.33691C 52.124 9.81543 52.3096 10.4811 52.3096 11.334L 52.3096 11.417ZM 51.4062 11.3145C 51.4062 10.7188 51.2793 10.2484 51.0254 9.90332C 50.7715 9.55827 50.4232 9.38574 49.9805 9.38574C 49.4336 9.38574 49.0234 9.62826 48.75 10.1133L 48.75 12.6377C 49.0202 13.1195 49.4336 13.3604 49.9902 13.3604C 50.4232 13.3604 50.7666 13.1895 51.0205 12.8477C 51.2777 12.5026 51.4062 11.9915 51.4062 11.3145ZM 54.3652 9.35645C 54.7656 8.86491 55.2865 8.61914 55.9277 8.61914C 57.0443 8.61914 57.6074 9.24902 57.6172 10.5088L 57.6172 14L 56.7139 14L 56.7139 10.5039C 56.7106 10.123 56.6227 9.84147 56.4502 9.65918C 56.2809 9.47689 56.0156 9.38574 55.6543 9.38574C 55.3613 9.38574 55.1042 9.46387 54.8828 9.62012C 54.6615 9.77637 54.4889 9.98145 54.3652 10.2354L 54.3652 14L 53.4619 14L 53.4619 6.5L 54.3652 6.5L 54.3652 9.35645Z"/>
<path id="path8_fill" d="M 17.9492 -0.255859C 17.8613 0.496094 17.583 1.07715 17.1143 1.4873C 16.6488 1.89421 16.0286 2.09766 15.2539 2.09766C 14.4141 2.09766 13.7402 1.79655 13.2324 1.19434C 12.7279 0.592122 12.4756 -0.213542 12.4756 -1.22266L 12.4756 -1.90625C 12.4756 -2.56706 12.5928 -3.14811 12.8271 -3.64941C 13.0648 -4.15072 13.4001 -4.53483 13.833 -4.80176C 14.266 -5.07194 14.7673 -5.20703 15.3369 -5.20703C 16.0921 -5.20703 16.6976 -4.99544 17.1533 -4.57227C 17.609 -4.15234 17.8743 -3.56966 17.9492 -2.82422L 17.0068 -2.82422C 16.9255 -3.39062 16.748 -3.80078 16.4746 -4.05469C 16.2044 -4.30859 15.8252 -4.43555 15.3369 -4.43555C 14.738 -4.43555 14.2676 -4.21419 13.9258 -3.77148C 13.5872 -3.32878 13.418 -2.69889 13.418 -1.88184L 13.418 -1.19336C 13.418 -0.421875 13.5791 0.191732 13.9014 0.647461C 14.2236 1.10319 14.6745 1.33105 15.2539 1.33105C 15.7747 1.33105 16.1735 1.21387 16.4502 0.979492C 16.7301 0.741862 16.9157 0.330078 17.0068 -0.255859L 17.9492 -0.255859ZM 18.8525 -0.69043C 18.8525 -1.20801 18.9535 -1.6735 19.1553 -2.08691C 19.3604 -2.50033 19.6436 -2.81934 20.0049 -3.04395C 20.3695 -3.26855 20.7845 -3.38086 21.25 -3.38086C 21.9694 -3.38086 22.5505 -3.13184 22.9932 -2.63379C 23.4391 -2.13574 23.6621 -1.47331 23.6621 -0.646484L 23.6621 -0.583008C 23.6621 -0.0686848 23.5628 0.393555 23.3643 0.803711C 23.1689 1.21061 22.8874 1.52799 22.5195 1.75586C 22.1549 1.98372 21.735 2.09766 21.2598 2.09766C 20.5436 2.09766 19.9626 1.84863 19.5166 1.35059C 19.0739 0.852539 18.8525 0.193359 18.8525 -0.626953L 18.8525 -0.69043ZM 19.7607 -0.583008C 19.7607 0.00292969 19.8958 0.473307 20.166 0.828125C 20.4395 1.18294 20.804 1.36035 21.2598 1.36035C 21.7188 1.36035 22.0833 1.18132 22.3535 0.823242C 22.6237 0.461914 22.7588 -0.0426433 22.7588 -0.69043C 22.7588 -1.26986 22.6204 -1.73861 22.3438 -2.09668C 22.0703 -2.45801 21.7057 -2.63867 21.25 -2.63867C 20.804 -2.63867 20.4443 -2.46126 20.1709 -2.10645C 19.8975 -1.75163 19.7607 -1.24382 19.7607 -0.583008ZM 25.6494 -3.2832L 25.6787 -2.61914C 26.0824 -3.12695 26.6097 -3.38086 27.2607 -3.38086C 28.3773 -3.38086 28.9404 -2.75098 28.9502 -1.49121L 28.9502 2L 28.0469 2L 28.0469 -1.49609C 28.0436 -1.87695 27.9557 -2.15853 27.7832 -2.34082C 27.6139 -2.52311 27.3486 -2.61426 26.9873 -2.61426C 26.6943 -2.61426 26.4372 -2.53613 26.2158 -2.37988C 25.9945 -2.22363 25.8219 -2.01855 25.6982 -1.76465L 25.6982 2L 24.7949 2L 24.7949 -3.2832L 25.6494 -3.2832ZM 32.4316 1.36035C 32.7539 1.36035 33.0355 1.2627 33.2764 1.06738C 33.5173 0.87207 33.6507 0.62793 33.6768 0.334961L 34.5312 0.334961C 34.515 0.637695 34.4108 0.925781 34.2188 1.19922C 34.0267 1.47266 33.7695 1.69076 33.4473 1.85352C 33.1283 2.01628 32.7897 2.09766 32.4316 2.09766C 31.7122 2.09766 31.1393 1.8584 30.7129 1.37988C 30.2897 0.898112 30.0781 0.24056 30.0781 -0.592773L 30.0781 -0.744141C 30.0781 -1.25846 30.1725 -1.71582 30.3613 -2.11621C 30.5501 -2.5166 30.8203 -2.82747 31.1719 -3.04883C 31.5267 -3.27018 31.945 -3.38086 32.4268 -3.38086C 33.0192 -3.38086 33.5107 -3.20345 33.9014 -2.84863C 34.2952 -2.49382 34.5052 -2.0332 34.5312 -1.4668L 33.6768 -1.4668C 33.6507 -1.80859 33.5205 -2.08854 33.2861 -2.30664C 33.055 -2.52799 32.7686 -2.63867 32.4268 -2.63867C 31.9678 -2.63867 31.6113 -2.47266 31.3574 -2.14062C 31.1068 -1.81185 30.9814 -1.33496 30.9814 -0.709961L 30.9814 -0.539062C 30.9814 0.0696614 31.1068 0.538411 31.3574 0.867188C 31.6081 1.19596 31.9661 1.36035 32.4316 1.36035ZM 37.7393 2.09766C 37.0231 2.09766 36.4404 1.86328 35.9912 1.39453C 35.542 0.922526 35.3174 0.292643 35.3174 -0.495117L 35.3174 -0.661133C 35.3174 -1.18522 35.4167 -1.65234 35.6152 -2.0625C 35.8171 -2.47591 36.097 -2.79818 36.4551 -3.0293C 36.8164 -3.26367 37.207 -3.38086 37.627 -3.38086C 38.3138 -3.38086 38.8477 -3.15462 39.2285 -2.70215C 39.6094 -2.24967 39.7998 -1.60189 39.7998 -0.758789L 39.7998 -0.382812L 36.2207 -0.382812C 36.2337 0.138021 36.3851 0.55957 36.6748 0.881836C 36.9678 1.20085 37.3389 1.36035 37.7881 1.36035C 38.1071 1.36035 38.3773 1.29525 38.5986 1.16504C 38.82 1.03483 39.0137 0.862305 39.1797 0.647461L 39.7314 1.07715C 39.2887 1.75749 38.6247 2.09766 37.7393 2.09766ZM 37.627 -2.63867C 37.2624 -2.63867 36.9564 -2.50521 36.709 -2.23828C 36.4616 -1.97461 36.3086 -1.60352 36.25 -1.125L 38.8965 -1.125L 38.8965 -1.19336C 38.8704 -1.65234 38.7467 -2.00716 38.5254 -2.25781C 38.304 -2.51172 38.0046 -2.63867 37.627 -2.63867ZM 45.3125 -0.583008C 45.3125 0.221029 45.1286 0.868815 44.7607 1.36035C 44.3929 1.85189 43.8949 2.09766 43.2666 2.09766C 42.6253 2.09766 42.1208 1.89421 41.7529 1.4873L 41.7529 4.03125L 40.8496 4.03125L 40.8496 -3.2832L 41.6748 -3.2832L 41.7188 -2.69727C 42.0866 -3.15299 42.5977 -3.38086 43.252 -3.38086C 43.8867 -3.38086 44.388 -3.1416 44.7559 -2.66309C 45.127 -2.18457 45.3125 -1.51888 45.3125 -0.666016L 45.3125 -0.583008ZM 44.4092 -0.685547C 44.4092 -1.28125 44.2822 -1.75163 44.0283 -2.09668C 43.7744 -2.44173 43.4261 -2.61426 42.9834 -2.61426C 42.4365 -2.61426 42.0264 -2.37174 41.7529 -1.88672L 41.7529 0.637695C 42.0231 1.11947 42.4365 1.36035 42.9932 1.36035C 43.4261 1.36035 43.7695 1.18945 44.0234 0.847656C 44.2806 0.502604 44.4092 -0.00846359 44.4092 -0.685547ZM 47.6904 -4.5625L 47.6904 -3.2832L 48.6768 -3.2832L 48.6768 -2.58496L 47.6904 -2.58496L 47.6904 0.691406C 47.6904 0.902995 47.7344 1.0625 47.8223 1.16992C 47.9102 1.27409 48.0599 1.32617 48.2715 1.32617C 48.3757 1.32617 48.5189 1.30664 48.7012 1.26758L 48.7012 2C 48.4635 2.0651 48.2324 2.09766 48.0078 2.09766C 47.6042 2.09766 47.2998 1.97559 47.0947 1.73145C 46.8896 1.4873 46.7871 1.14062 46.7871 0.691406L 46.7871 -2.58496L 45.8252 -2.58496L 45.8252 -3.2832L 46.7871 -3.2832L 46.7871 -4.5625L 47.6904 -4.5625ZM 57.6074 1.06738C 57.3665 1.41243 57.0296 1.67122 56.5967 1.84375C 56.167 2.01302 55.6657 2.09766 55.0928 2.09766C 54.5133 2.09766 53.999 1.96257 53.5498 1.69238C 53.1006 1.41895 52.7523 1.03158 52.5049 0.530273C 52.2607 0.0289714 52.1354 -0.552083 52.1289 -1.21289L 52.1289 -1.83301C 52.1289 -2.90397 52.3779 -3.73405 52.876 -4.32324C 53.3773 -4.91243 54.0804 -5.20703 54.9854 -5.20703C 55.7275 -5.20703 56.3249 -5.0166 56.7773 -4.63574C 57.2298 -4.25814 57.5065 -3.72103 57.6074 -3.02441L 56.6699 -3.02441C 56.4941 -3.96517 55.9342 -4.43555 54.9902 -4.43555C 54.362 -4.43555 53.8851 -4.21419 53.5596 -3.77148C 53.2373 -3.33203 53.0745 -2.69401 53.0713 -1.85742L 53.0713 -1.27637C 53.0713 -0.478841 53.2536 0.155925 53.6182 0.62793C 53.9827 1.09668 54.4759 1.33105 55.0977 1.33105C 55.4492 1.33105 55.7568 1.29199 56.0205 1.21387C 56.2842 1.13574 56.5023 1.00391 56.6748 0.818359L 56.6748 -0.77832L 55.0293 -0.77832L 55.0293 -1.54004L 57.6074 -1.54004L 57.6074 1.06738ZM 61.5869 -2.47266C 61.4502 -2.49544 61.3021 -2.50684 61.1426 -2.50684C 60.5501 -2.50684 60.1481 -2.25456 59.9365 -1.75L 59.9365 2L 59.0332 2L 59.0332 -3.2832L 59.9121 -3.2832L 59.9268 -2.67285C 60.223 -3.14486 60.6429 -3.38086 61.1865 -3.38086C 61.3623 -3.38086 61.4958 -3.35807 61.5869 -3.3125L 61.5869 -2.47266ZM 65.4883 2C 65.4362 1.89583 65.3939 1.71029 65.3613 1.44336C 64.9414 1.87956 64.4401 2.09766 63.8574 2.09766C 63.3366 2.09766 62.9085 1.95117 62.5732 1.6582C 62.2412 1.36198 62.0752 0.98763 62.0752 0.535156C 62.0752 -0.0149739 62.2835 -0.441406 62.7002 -0.744141C 63.1201 -1.05013 63.7093 -1.20312 64.4678 -1.20312L 65.3467 -1.20312L 65.3467 -1.61816C 65.3467 -1.93392 65.2523 -2.18457 65.0635 -2.37012C 64.8747 -2.55892 64.5964 -2.65332 64.2285 -2.65332C 63.9062 -2.65332 63.6361 -2.57194 63.418 -2.40918C 63.1999 -2.24642 63.0908 -2.04948 63.0908 -1.81836L 62.1826 -1.81836C 62.1826 -2.08203 62.2754 -2.33594 62.4609 -2.58008C 62.6497 -2.82747 62.9036 -3.02279 63.2227 -3.16602C 63.5449 -3.30924 63.8981 -3.38086 64.2822 -3.38086C 64.891 -3.38086 65.3678 -3.22786 65.7129 -2.92188C 66.0579 -2.61914 66.237 -2.20085 66.25 -1.66699L 66.25 0.764648C 66.25 1.24967 66.3118 1.63542 66.4355 1.92188L 66.4355 2L 65.4883 2ZM 63.9893 1.31152C 64.2725 1.31152 64.541 1.23828 64.7949 1.0918C 65.0488 0.945312 65.2327 0.754883 65.3467 0.520508L 65.3467 -0.563477L 64.6387 -0.563477C 63.5319 -0.563477 62.9785 -0.239583 62.9785 0.408203C 62.9785 0.691406 63.0729 0.91276 63.2617 1.07227C 63.4505 1.23177 63.693 1.31152 63.9893 1.31152ZM 72.1289 -0.583008C 72.1289 0.221029 71.945 0.868815 71.5771 1.36035C 71.2093 1.85189 70.7113 2.09766 70.083 2.09766C 69.4417 2.09766 68.9372 1.89421 68.5693 1.4873L 68.5693 4.03125L 67.666 4.03125L 67.666 -3.2832L 68.4912 -3.2832L 68.5352 -2.69727C 68.903 -3.15299 69.4141 -3.38086 70.0684 -3.38086C 70.7031 -3.38086 71.2044 -3.1416 71.5723 -2.66309C 71.9434 -2.18457 72.1289 -1.51888 72.1289 -0.666016L 72.1289 -0.583008ZM 71.2256 -0.685547C 71.2256 -1.28125 71.0986 -1.75163 70.8447 -2.09668C 70.5908 -2.44173 70.2425 -2.61426 69.7998 -2.61426C 69.2529 -2.61426 68.8428 -2.37174 68.5693 -1.88672L 68.5693 0.637695C 68.8395 1.11947 69.2529 1.36035 69.8096 1.36035C 70.2425 1.36035 70.5859 1.18945 70.8398 0.847656C 71.097 0.502604 71.2256 -0.00846359 71.2256 -0.685547ZM 74.1846 -2.64355C 74.585 -3.13509 75.1058 -3.38086 75.7471 -3.38086C 76.8636 -3.38086 77.4268 -2.75098 77.4365 -1.49121L 77.4365 2L 76.5332 2L 76.5332 -1.49609C 76.5299 -1.87695 76.4421 -2.15853 76.2695 -2.34082C 76.1003 -2.52311 75.835 -2.61426 75.4736 -2.61426C 75.1807 -2.61426 74.9235 -2.53613 74.7021 -2.37988C 74.4808 -2.22363 74.3083 -2.01855 74.1846 -1.76465L 74.1846 2L 73.2812 2L 73.2812 -5.5L 74.1846 -5.5L 74.1846 -2.64355ZM 29.3506 11.7441C 29.2627 12.4961 28.9844 13.0771 28.5156 13.4873C 28.0501 13.8942 27.43 14.0977 26.6553 14.0977C 25.8154 14.0977 25.1416 13.7965 24.6338 13.1943C 24.1292 12.5921 23.877 11.7865 23.877 10.7773L 23.877 10.0938C 23.877 9.43294 23.9941 8.85189 24.2285 8.35059C 24.4661 7.84928 24.8014 7.46517 25.2344 7.19824C 25.6673 6.92806 26.1686 6.79297 26.7383 6.79297C 27.4935 6.79297 28.099 7.00456 28.5547 7.42773C 29.0104 7.84766 29.2757 8.43034 29.3506 9.17578L 28.4082 9.17578C 28.3268 8.60938 28.1494 8.19922 27.876 7.94531C 27.6058 7.69141 27.2266 7.56445 26.7383 7.56445C 26.1393 7.56445 25.6689 7.78581 25.3271 8.22852C 24.9886 8.67122 24.8193 9.30111 24.8193 10.1182L 24.8193 10.8066C 24.8193 11.5781 24.9805 12.1917 25.3027 12.6475C 25.625 13.1032 26.0758 13.3311 26.6553 13.3311C 27.1761 13.3311 27.5749 13.2139 27.8516 12.9795C 28.1315 12.7419 28.3171 12.3301 28.4082 11.7441L 29.3506 11.7441ZM 30.2539 11.3096C 30.2539 10.792 30.3548 10.3265 30.5566 9.91309C 30.7617 9.49967 31.0449 9.18066 31.4062 8.95605C 31.7708 8.73145 32.1859 8.61914 32.6514 8.61914C 33.3708 8.61914 33.9518 8.86816 34.3945 9.36621C 34.8405 9.86426 35.0635 10.5267 35.0635 11.3535L 35.0635 11.417C 35.0635 11.9313 34.9642 12.3936 34.7656 12.8037C 34.5703 13.2106 34.2887 13.528 33.9209 13.7559C 33.5563 13.9837 33.1364 14.0977 32.6611 14.0977C 31.945 14.0977 31.3639 13.8486 30.918 13.3506C 30.4753 12.8525 30.2539 12.1934 30.2539 11.373L 30.2539 11.3096ZM 31.1621 11.417C 31.1621 12.0029 31.2972 12.4733 31.5674 12.8281C 31.8408 13.1829 32.2054 13.3604 32.6611 13.3604C 33.1201 13.3604 33.4847 13.1813 33.7549 12.8232C 34.0251 12.4619 34.1602 11.9574 34.1602 11.3096C 34.1602 10.7301 34.0218 10.2614 33.7451 9.90332C 33.4717 9.54199 33.1071 9.36133 32.6514 9.36133C 32.2054 9.36133 31.8457 9.53874 31.5723 9.89355C 31.2988 10.2484 31.1621 10.7562 31.1621 11.417ZM 37.0508 8.7168L 37.0801 9.38086C 37.4837 8.87305 38.0111 8.61914 38.6621 8.61914C 39.7786 8.61914 40.3418 9.24902 40.3516 10.5088L 40.3516 14L 39.4482 14L 39.4482 10.5039C 39.445 10.123 39.3571 9.84147 39.1846 9.65918C 39.0153 9.47689 38.75 9.38574 38.3887 9.38574C 38.0957 9.38574 37.8385 9.46387 37.6172 9.62012C 37.3958 9.77637 37.2233 9.98145 37.0996 10.2354L 37.0996 14L 36.1963 14L 36.1963 8.7168L 37.0508 8.7168ZM 43.457 12.7744L 44.7656 8.7168L 45.6885 8.7168L 43.7939 14L 43.1055 14L 41.1914 8.7168L 42.1143 8.7168L 43.457 12.7744ZM 48.6816 14.0977C 47.9655 14.0977 47.3828 13.8633 46.9336 13.3945C 46.4844 12.9225 46.2598 12.2926 46.2598 11.5049L 46.2598 11.3389C 46.2598 10.8148 46.359 10.3477 46.5576 9.9375C 46.7594 9.52409 47.0394 9.20182 47.3975 8.9707C 47.7588 8.73633 48.1494 8.61914 48.5693 8.61914C 49.2562 8.61914 49.79 8.84538 50.1709 9.29785C 50.5518 9.75033 50.7422 10.3981 50.7422 11.2412L 50.7422 11.6172L 47.1631 11.6172C 47.1761 12.138 47.3275 12.5596 47.6172 12.8818C 47.9102 13.2008 48.2812 13.3604 48.7305 13.3604C 49.0495 13.3604 49.3197 13.2952 49.541 13.165C 49.7624 13.0348 49.9561 12.8623 50.1221 12.6475L 50.6738 13.0771C 50.2311 13.7575 49.5671 14.0977 48.6816 14.0977ZM 48.5693 9.36133C 48.2048 9.36133 47.8988 9.49479 47.6514 9.76172C 47.404 10.0254 47.251 10.3965 47.1924 10.875L 49.8389 10.875L 49.8389 10.8066C 49.8128 10.3477 49.6891 9.99284 49.4678 9.74219C 49.2464 9.48828 48.9469 9.36133 48.5693 9.36133ZM 54.3457 9.52734C 54.209 9.50456 54.0609 9.49316 53.9014 9.49316C 53.3089 9.49316 52.9069 9.74544 52.6953 10.25L 52.6953 14L 51.792 14L 51.792 8.7168L 52.6709 8.7168L 52.6855 9.32715C 52.9818 8.85514 53.4017 8.61914 53.9453 8.61914C 54.1211 8.61914 54.2546 8.64193 54.3457 8.6875L 54.3457 9.52734ZM 56.6504 7.4375L 56.6504 8.7168L 57.6367 8.7168L 57.6367 9.41504L 56.6504 9.41504L 56.6504 12.6914C 56.6504 12.903 56.6943 13.0625 56.7822 13.1699C 56.8701 13.2741 57.0199 13.3262 57.2314 13.3262C 57.3356 13.3262 57.4788 13.3066 57.6611 13.2676L 57.6611 14C 57.4235 14.0651 57.1924 14.0977 56.9678 14.0977C 56.5641 14.0977 56.2598 13.9756 56.0547 13.7314C 55.8496 13.4873 55.7471 13.1406 55.7471 12.6914L 55.7471 9.41504L 54.7852 9.41504L 54.7852 8.7168L 55.7471 8.7168L 55.7471 7.4375L 56.6504 7.4375ZM 60.8887 14.0977C 60.1725 14.0977 59.5898 13.8633 59.1406 13.3945C 58.6914 12.9225 58.4668 12.2926 58.4668 11.5049L 58.4668 11.3389C 58.4668 10.8148 58.5661 10.3477 58.7646 9.9375C 58.9665 9.52409 59.2464 9.20182 59.6045 8.9707C 59.9658 8.73633 60.3564 8.61914 60.7764 8.61914C 61.4632 8.61914 61.9971 8.84538 62.3779 9.29785C 62.7588 9.75033 62.9492 10.3981 62.9492 11.2412L 62.9492 11.6172L 59.3701 11.6172C 59.3831 12.138 59.5345 12.5596 59.8242 12.8818C 60.1172 13.2008 60.4883 13.3604 60.9375 13.3604C 61.2565 13.3604 61.5267 13.2952 61.748 13.165C 61.9694 13.0348 62.1631 12.8623 62.3291 12.6475L 62.8809 13.0771C 62.4382 13.7575 61.7741 14.0977 60.8887 14.0977ZM 60.7764 9.36133C 60.4118 9.36133 60.1058 9.49479 59.8584 9.76172C 59.611 10.0254 59.458 10.3965 59.3994 10.875L 62.0459 10.875L 62.0459 10.8066C 62.0199 10.3477 61.8962 9.99284 61.6748 9.74219C 61.4535 9.48828 61.154 9.36133 60.7764 9.36133ZM 66.5527 9.52734C 66.416 9.50456 66.2679 9.49316 66.1084 9.49316C 65.516 9.49316 65.1139 9.74544 64.9023 10.25L 64.9023 14L 63.999 14L 63.999 8.7168L 64.8779 8.7168L 64.8926 9.32715C 65.1888 8.85514 65.6087 8.61914 66.1523 8.61914C 66.3281 8.61914 66.4616 8.64193 66.5527 8.6875L 66.5527 9.52734Z"/>
<path id="path9_stroke" d="M 30 0L 20 -5.7735L 20 5.7735L 30 0ZM 0 1L 21 1L 21 -1L 0 -1L 0 1Z"/>
</defs>
</svg>
