<svg version="1.1" xmlns="http://www.w3.org/2000/svg" xmlns:xlink="http://www.w3.org/1999/xlink" width="172" height="115"><defs/><g><g transform="translate(-206,-14) scale(1,1)"><path fill="#ffffff" stroke="none" d="M 226 24 L 358 24 Q 368 24 368 34 L 368 109 Q 368 119 358 119 L 226 119 Q 216 119 216 109 L 216 34 Q 216 24 226 24 Z"/></g><g transform="translate(-206,-14) scale(1,1)"><path fill="none" stroke="#000000" d="M 226 24 L 358 24 Q 368 24 368 34 L 368 109 Q 368 119 358 119 L 226 119 Q 216 119 216 109 L 216 34 Q 216 24 226 24 Z" stroke-miterlimit="10"/></g><g transform="translate(-206,-14) scale(1,1)"><path fill="none" stroke="#000000" d="M 216 49 L 368 49" stroke-miterlimit="10"/></g><g transform="translate(-206,-14) scale(1,1)"><g><path fill="none" stroke="none"/><text fill="#000000" stroke="none" font-family="Roboto" font-size="13px" font-style="normal" font-weight="bold" text-decoration="none" x="225.809814453125" y="43.5">POSITIVE POSSIBILITY</text></g></g><g transform="translate(-206,-14) scale(1,1)"><path fill="#ffffff" stroke="none" d="M 274 64 L 313 64 Q 323 64 323 74 L 323 93 Q 323 103 313 103 L 274 103 Q 264 103 264 93 L 264 74 Q 264 64 274 64 Z"/></g><g transform="translate(-206,-14) scale(1,1)"><path fill="none" stroke="#000000" d="M 274 64 L 313 64 Q 323 64 323 74 L 323 93 Q 323 103 313 103 L 274 103 Q 264 103 264 93 L 264 74 Q 264 64 274 64 Z" stroke-miterlimit="10"/></g><g transform="translate(-206,-14) scale(1,1)"><g><path fill="none" stroke="none"/><text fill="#000000" stroke="none" font-family="Roboto" font-size="13px" font-style="normal" font-weight="bold" text-decoration="none" x="289.4248046875" y="83.5">X</text></g></g></g></svg>