<svg version="1.1" xmlns="http://www.w3.org/2000/svg" xmlns:xlink="http://www.w3.org/1999/xlink" width="172" height="116"><defs/><g><g transform="translate(-14,-14) scale(1,1)"><path fill="#ffffff" stroke="none" d="M 34 24 L 166 24 Q 176 24 176 34 L 176 110 Q 176 120 166 120 L 34 120 Q 24 120 24 110 L 24 34 Q 24 24 34 24 Z"/></g><g transform="translate(-14,-14) scale(1,1)"><path fill="none" stroke="#000000" d="M 34 24 L 166 24 Q 176 24 176 34 L 176 110 Q 176 120 166 120 L 34 120 Q 24 120 24 110 L 24 34 Q 24 24 34 24 Z" stroke-miterlimit="10"/></g><g transform="translate(-14,-14) scale(1,1)"><path fill="none" stroke="#000000" d="M 24 49 L 176 49" stroke-miterlimit="10"/></g><g transform="translate(-14,-14) scale(1,1)"><g><path fill="none" stroke="none"/><text fill="#000000" stroke="none" font-family="Roboto" font-size="13px" font-style="normal" font-weight="bold" text-decoration="none" x="46.41943359375" y="43.5">POSITIVE ACTUAL</text></g></g><g transform="translate(-14,-14) scale(1,1)"><path fill="#ffffff" stroke="none" d="M 81 64 L 120 64 Q 130 64 130 74 L 130 93 Q 130 103 120 103 L 81 103 Q 71 103 71 93 L 71 74 Q 71 64 81 64 Z"/></g><g transform="translate(-14,-14) scale(1,1)"><path fill="none" stroke="#000000" d="M 81 64 L 120 64 Q 130 64 130 74 L 130 93 Q 130 103 120 103 L 81 103 Q 71 103 71 93 L 71 74 Q 71 64 81 64 Z" stroke-miterlimit="10"/></g><g transform="translate(-14,-14) scale(1,1)"><g><path fill="none" stroke="none"/><text fill="#000000" stroke="none" font-family="Roboto" font-size="13px" font-style="normal" font-weight="bold" text-decoration="none" x="96.4248046875" y="83.5">X</text></g></g></g></svg>