<svg version="1.1" xmlns="http://www.w3.org/2000/svg" xmlns:xlink="http://www.w3.org/1999/xlink" width="540" height="140"><defs/><g><g transform="translate(-6,-6) scale(1,1)"><path fill="#ffffff" stroke="none" d="M 258 80 L 297 80 Q 307 80 307 90 L 307 109 Q 307 119 297 119 L 258 119 Q 248 119 248 109 L 248 90 Q 248 80 258 80 Z"/></g><g transform="translate(-6,-6) scale(1,1)"><path fill="none" stroke="#000000" d="M 258 80 L 297 80 Q 307 80 307 90 L 307 109 Q 307 119 297 119 L 258 119 Q 248 119 248 109 L 248 90 Q 248 80 258 80 Z" stroke-miterlimit="10"/></g><g transform="translate(-6,-6) scale(1,1)"><g><path fill="none" stroke="none"/><text fill="#000000" stroke="none" font-family="Roboto" font-size="13px" font-style="normal" font-weight="bold" text-decoration="none" x="274.5673828125" y="99.5">_</text></g></g><g transform="translate(-6,-6) scale(1,1)"><path fill="#ffffff" stroke="none" d="M 330 16 L 526 16 Q 536 16 536 26 L 536 126 Q 536 136 526 136 L 330 136 Q 320 136 320 126 L 320 26 Q 320 16 330 16 Z"/></g><g transform="translate(-6,-6) scale(1,1)"><path fill="none" stroke="#000000" d="M 330 16 L 526 16 Q 536 16 536 26 L 536 126 Q 536 136 526 136 L 330 136 Q 320 136 320 126 L 320 26 Q 320 16 330 16 Z" stroke-miterlimit="10"/></g><g transform="translate(-6,-6) scale(1,1)"><path fill="none" stroke="#000000" d="M 320 41 L 536 41" stroke-miterlimit="10"/></g><g transform="translate(-6,-6) scale(1,1)"><g><path fill="none" stroke="none"/><text fill="#000000" stroke="none" font-family="Roboto" font-size="13px" font-style="normal" font-weight="bold" text-decoration="none" x="371.616943359375" y="35.5">NEGATIVE ACTUAL</text></g></g><g transform="translate(-6,-6) scale(1,1)"><path fill="#ffffff" stroke="none" d="M 26 16 L 222 16 Q 232 16 232 26 L 232 126 Q 232 136 222 136 L 26 136 Q 16 136 16 126 L 16 26 Q 16 16 26 16 Z"/></g><g transform="translate(-6,-6) scale(1,1)"><path fill="none" stroke="#000000" d="M 26 16 L 222 16 Q 232 16 232 26 L 232 126 Q 232 136 222 136 L 26 136 Q 16 136 16 126 L 16 26 Q 16 16 26 16 Z" stroke-miterlimit="10"/></g><g transform="translate(-6,-6) scale(1,1)"><path fill="none" stroke="#000000" d="M 16 41 L 232 41" stroke-miterlimit="10"/></g><g transform="translate(-6,-6) scale(1,1)"><g><path fill="none" stroke="none"/><text fill="#000000" stroke="none" font-family="Roboto" font-size="13px" font-style="normal" font-weight="bold" text-decoration="none" x="67.616943359375" y="35.5">NEGATIVE ACTUAL</text></g></g><g transform="translate(-6,-6) scale(1,1)"><path fill="#ffffff" stroke="none" d="M 338 48 L 445 48 Q 455 48 455 58 L 455 118 Q 455 128 445 128 L 338 128 Q 328 128 328 118 L 328 58 Q 328 48 338 48 Z"/></g><g transform="translate(-6,-6) scale(1,1)"><path fill="none" stroke="#000000" d="M 338 48 L 445 48 Q 455 48 455 58 L 455 118 Q 455 128 445 128 L 338 128 Q 328 128 328 118 L 328 58 Q 328 48 338 48 Z" stroke-miterlimit="10"/></g><g transform="translate(-6,-6) scale(1,1)"><path fill="none" stroke="#000000" d="M 328 73 L 455 73" stroke-miterlimit="10"/></g><g transform="translate(-6,-6) scale(1,1)"><g><path fill="none" stroke="none"/><text fill="#000000" stroke="none" font-family="Roboto" font-size="13px" font-style="normal" font-weight="bold" text-decoration="none" x="335.116943359375" y="67.5">NEGATIVE ACTUAL</text></g></g><g transform="translate(-6,-6) scale(1,1)"><path fill="#ffffff" stroke="none" d="M 370 80 L 409 80 Q 419 80 419 90 L 419 109 Q 419 119 409 119 L 370 119 Q 360 119 360 109 L 360 90 Q 360 80 370 80 Z"/></g><g transform="translate(-6,-6) scale(1,1)"><path fill="none" stroke="#000000" d="M 370 80 L 409 80 Q 419 80 419 90 L 419 109 Q 419 119 409 119 L 370 119 Q 360 119 360 109 L 360 90 Q 360 80 370 80 Z" stroke-miterlimit="10"/></g><g transform="translate(-6,-6) scale(1,1)"><g><path fill="none" stroke="none"/><text fill="#000000" stroke="none" font-family="Roboto" font-size="13px" font-style="normal" font-weight="normal" text-decoration="none" x="365.6455078125" y="97.5">«actual»</text></g></g><g transform="translate(-6,-6) scale(1,1)"><g><path fill="none" stroke="none"/><text fill="#000000" stroke="none" font-family="Roboto" font-size="13px" font-style="normal" font-weight="bold" text-decoration="none" x="386.5673828125" y="112.5">_</text></g></g><g transform="translate(-6,-6) scale(1,1)"><path fill="#ffffff" stroke="none" d="M 474 80 L 513 80 Q 523 80 523 90 L 523 109 Q 523 119 513 119 L 474 119 Q 464 119 464 109 L 464 90 Q 464 80 474 80 Z"/></g><g transform="translate(-6,-6) scale(1,1)"><path fill="none" stroke="#000000" d="M 474 80 L 513 80 Q 523 80 523 90 L 523 109 Q 523 119 513 119 L 474 119 Q 464 119 464 109 L 464 90 Q 464 80 474 80 Z" stroke-miterlimit="10"/></g><g transform="translate(-6,-6) scale(1,1)"><g><path fill="none" stroke="none"/><text fill="#000000" stroke="none" font-family="Roboto" font-size="13px" font-style="normal" font-weight="bold" text-decoration="none" x="489.4248046875" y="99.5">X</text></g></g><g transform="translate(-6,-6) scale(1,1)"><path fill="#ffffff" stroke="none" d="M 34 48 L 137.61328125 48 Q 147.61328125 48 147.61328125 58 L 147.61328125 118 Q 147.61328125 128 137.61328125 128 L 34 128 Q 24 128 24 118 L 24 58 Q 24 48 34 48 Z"/></g><g transform="translate(-6,-6) scale(1,1)"><path fill="none" stroke="#000000" d="M 34 48 L 137.61328125 48 Q 147.61328125 48 147.61328125 58 L 147.61328125 118 Q 147.61328125 128 137.61328125 128 L 34 128 Q 24 128 24 118 L 24 58 Q 24 48 34 48 Z" stroke-miterlimit="10"/></g><g transform="translate(-6,-6) scale(1,1)"><path fill="none" stroke="#000000" d="M 24 73 L 147.61328125 73" stroke-miterlimit="10"/></g><g transform="translate(-6,-6) scale(1,1)"><g><path fill="none" stroke="none"/><text fill="#000000" stroke="none" font-family="Roboto" font-size="13px" font-style="normal" font-weight="bold" text-decoration="none" x="29.423583984375" y="67.5">NEGATIVE ACTUAL</text></g></g><g transform="translate(-6,-6) scale(1,1)"><path fill="#ffffff" stroke="none" d="M 170 80 L 209 80 Q 219 80 219 90 L 219 109 Q 219 119 209 119 L 170 119 Q 160 119 160 109 L 160 90 Q 160 80 170 80 Z"/></g><g transform="translate(-6,-6) scale(1,1)"><path fill="none" stroke="#000000" d="M 170 80 L 209 80 Q 219 80 219 90 L 219 109 Q 219 119 209 119 L 170 119 Q 160 119 160 109 L 160 90 Q 160 80 170 80 Z" stroke-miterlimit="10"/></g><g transform="translate(-6,-6) scale(1,1)"><g><path fill="none" stroke="none"/><text fill="#000000" stroke="none" font-family="Roboto" font-size="13px" font-style="normal" font-weight="normal" text-decoration="none" x="165.6455078125" y="97.5">«actual»</text></g></g><g transform="translate(-6,-6) scale(1,1)"><g><path fill="none" stroke="none"/><text fill="#000000" stroke="none" font-family="Roboto" font-size="13px" font-style="normal" font-weight="bold" text-decoration="none" x="186.5673828125" y="112.5">_</text></g></g><g transform="translate(-6,-6) scale(1,1)"><path fill="#ffffff" stroke="none" d="M 66 80 L 105 80 Q 115 80 115 90 L 115 109 Q 115 119 105 119 L 66 119 Q 56 119 56 109 L 56 90 Q 56 80 66 80 Z"/></g><g transform="translate(-6,-6) scale(1,1)"><path fill="none" stroke="#000000" d="M 66 80 L 105 80 Q 115 80 115 90 L 115 109 Q 115 119 105 119 L 66 119 Q 56 119 56 109 L 56 90 Q 56 80 66 80 Z" stroke-miterlimit="10"/></g><g transform="translate(-6,-6) scale(1,1)"><g><path fill="none" stroke="none"/><text fill="#000000" stroke="none" font-family="Roboto" font-size="13px" font-style="normal" font-weight="bold" text-decoration="none" x="81.4248046875" y="99.5">X</text></g></g><g transform="translate(-6,-6) scale(1,1)"><path fill="none" stroke="#000000" d="M 220 120 L 220 121" stroke-miterlimit="10" stroke-dasharray="3"/></g><g transform="translate(-6,-6) scale(1,1)"><path fill="none" stroke="#000000" d="M 307 99 L 360 99" stroke-miterlimit="10" stroke-dasharray="3"/></g><g transform="translate(-6,-6) scale(1,1)"><path fill="none" stroke="#000000" d="M 220 99 L 247 99" stroke-miterlimit="10" stroke-dasharray="3"/></g></g></svg>