<svg version="1.1" xmlns="http://www.w3.org/2000/svg" xmlns:xlink="http://www.w3.org/1999/xlink" width="463" height="100"><defs/><g><g transform="translate(-94,-94) scale(1,1)"><path fill="#ffffff" stroke="none" d="M 114 136 L 153 136 Q 163 136 163 146 L 163 165 Q 163 175 153 175 L 114 175 Q 104 175 104 165 L 104 146 Q 104 136 114 136 Z"/></g><g transform="translate(-94,-94) scale(1,1)"><path fill="none" stroke="#000000" d="M 114 136 L 153 136 Q 163 136 163 146 L 163 165 Q 163 175 153 175 L 114 175 Q 104 175 104 165 L 104 146 Q 104 136 114 136 Z" stroke-miterlimit="10"/></g><g transform="translate(-94,-94) scale(1,1)"><g><path fill="none" stroke="none"/><text fill="#000000" stroke="none" font-family="Roboto" font-size="13px" font-style="normal" font-weight="bold" text-decoration="none" x="131.732177734375" y="155.5">I</text></g></g><g transform="translate(-94,-94) scale(1,1)"><path fill="#ffffff" stroke="none" d="M 218 136 L 262.6943359375 136 Q 272.6943359375 136 272.6943359375 146 L 272.6943359375 165 Q 272.6943359375 175 262.6943359375 175 L 218 175 Q 208 175 208 165 L 208 146 Q 208 136 218 136 Z"/></g><g transform="translate(-94,-94) scale(1,1)"><path fill="none" stroke="#355fb3" d="M 218 136 L 262.6943359375 136 Q 272.6943359375 136 272.6943359375 146 L 272.6943359375 165 Q 272.6943359375 175 262.6943359375 175 L 218 175 Q 208 175 208 165 L 208 146 Q 208 136 218 136 Z" stroke-miterlimit="10"/></g><g transform="translate(-94,-94) scale(1,1)"><g><path fill="none" stroke="none"/><text fill="#355fb3" stroke="none" font-family="Roboto" font-size="13px" font-style="normal" font-weight="normal" text-decoration="none" x="212.5" y="153.5">«relation»</text></g></g><g transform="translate(-94,-94) scale(1,1)"><g><path fill="none" stroke="none"/><text fill="#355fb3" stroke="none" font-family="Roboto" font-size="13px" font-style="normal" font-weight="bold" text-decoration="none" x="226.185546875" y="168.5">think</text></g></g><g transform="translate(-94,-94) scale(1,1)"><path fill="#ffffff" stroke="none" d="M 498 136 L 537 136 Q 547 136 547 146 L 547 165 Q 547 175 537 175 L 498 175 Q 488 175 488 165 L 488 146 Q 488 136 498 136 Z"/></g><g transform="translate(-94,-94) scale(1,1)"><path fill="none" stroke="#000000" d="M 498 136 L 537 136 Q 547 136 547 146 L 547 165 Q 547 175 537 175 L 498 175 Q 488 175 488 165 L 488 146 Q 488 136 498 136 Z" stroke-miterlimit="10"/></g><g transform="translate(-94,-94) scale(1,1)"><g><path fill="none" stroke="none"/><text fill="#000000" stroke="none" font-family="Roboto" font-size="13px" font-style="normal" font-weight="bold" text-decoration="none" x="502.7734375" y="155.5">good</text></g></g><g transform="translate(-94,-94) scale(1,1)"><path fill="#ffffff" stroke="none" d="M 338 104 L 463.15087890625 104 Q 473.15087890625 104 473.15087890625 114 L 473.15087890625 174 Q 473.15087890625 184 463.15087890625 184 L 338 184 Q 328 184 328 174 L 328 114 Q 328 104 338 104 Z"/></g><g transform="translate(-94,-94) scale(1,1)"><path fill="none" stroke="#b33535" d="M 338 104 L 463.15087890625 104 Q 473.15087890625 104 473.15087890625 114 L 473.15087890625 174 Q 473.15087890625 184 463.15087890625 184 L 338 184 Q 328 184 328 174 L 328 114 Q 328 104 338 104 Z" stroke-miterlimit="10"/></g><g transform="translate(-94,-94) scale(1,1)"><path fill="none" stroke="#b33535" d="M 328 129 L 473.15087890625 129" stroke-miterlimit="10"/></g><g transform="translate(-94,-94) scale(1,1)"><g><path fill="none" stroke="none"/><text fill="#b33535" stroke="none" font-family="Roboto" font-size="13px" font-style="normal" font-weight="bold" text-decoration="none" x="334.38525390625" y="123.5">POSITIVE POSSIBILITY</text></g></g><g transform="translate(-94,-94) scale(1,1)"><path fill="#ffffff" stroke="none" d="M 378 136 L 417 136 Q 427 136 427 146 L 427 165 Q 427 175 417 175 L 378 175 Q 368 175 368 165 L 368 146 Q 368 136 378 136 Z"/></g><g transform="translate(-94,-94) scale(1,1)"><path fill="none" stroke="#b33535" d="M 378 136 L 417 136 Q 427 136 427 146 L 427 165 Q 427 175 417 175 L 378 175 Q 368 175 368 165 L 368 146 Q 368 136 378 136 Z" stroke-miterlimit="10"/></g><g transform="translate(-94,-94) scale(1,1)"><g><path fill="none" stroke="none"/><text fill="#b33535" stroke="none" font-family="Roboto" font-size="13px" font-style="normal" font-weight="bold" text-decoration="none" x="383.144775390625" y="155.5">book</text></g></g><g transform="translate(-94,-94) scale(1,1)"><path fill="none" stroke="#355fb3" d="M 208 155 L 163 155" stroke-miterlimit="10"/></g><g transform="translate(-94,-94) scale(1,1)"><path fill="none" stroke="#355fb3" d="M 173.16267485762415 150.790482243984 L 163 155 L 173.16267485762415 159.209517756016" stroke-miterlimit="10"/></g><g transform="translate(-94,-94) scale(1,1)"><g><path fill="none" stroke="none"/><text fill="#355fb3" stroke="none" font-family="Roboto" font-size="13px" font-style="normal" font-weight="normal" text-decoration="none" x="170.5" y="171.5">agent</text></g></g><g transform="translate(-94,-94) scale(1,1)"><path fill="none" stroke="#355fb3" d="M 273 154 L 328 154" stroke-miterlimit="10"/></g><g transform="translate(-94,-94) scale(1,1)"><path fill="none" stroke="#355fb3" d="M 317.83732514237585 158.209517756016 L 328 154 L 317.83732514237585 149.790482243984" stroke-miterlimit="10"/></g><g transform="translate(-94,-94) scale(1,1)"><g><path fill="none" stroke="none"/><text fill="#355fb3" stroke="none" font-family="Roboto" font-size="13px" font-style="normal" font-weight="normal" text-decoration="none" x="279.5" y="171.5">patient</text></g></g><g transform="translate(-94,-94) scale(1,1)"><path fill="none" stroke="#b33535" d="M 488 155 L 427 155" stroke-miterlimit="10"/></g><g transform="translate(-94,-94) scale(1,1)"><path fill="none" stroke="#b33535" d="M 437.16267485762415 150.790482243984 L 427 155 L 437.16267485762415 159.209517756016" stroke-miterlimit="10"/></g><g transform="translate(-94,-94) scale(1,1)"><g><path fill="none" stroke="none"/><text fill="#b33535" stroke="none" font-family="Roboto" font-size="13px" font-style="normal" font-weight="normal" text-decoration="none" x="439.5" y="172.5">inst</text></g></g></g></svg>