<svg version="1.1" xmlns="http://www.w3.org/2000/svg" xmlns:xlink="http://www.w3.org/1999/xlink" width="199" height="61"><defs/><g><g transform="translate(-38,-28) scale(1,1)"><path fill="#ffffff" stroke="none" d="M 58 40 L 97 40 Q 107 40 107 50 L 107 69 Q 107 79 97 79 L 58 79 Q 48 79 48 69 L 48 50 Q 48 40 58 40 Z"/></g><g transform="translate(-38,-28) scale(1,1)"><path fill="none" stroke="#000000" d="M 58 40 L 97 40 Q 107 40 107 50 L 107 69 Q 107 79 97 79 L 58 79 Q 48 79 48 69 L 48 50 Q 48 40 58 40 Z" stroke-miterlimit="10"/></g><g transform="translate(-38,-28) scale(1,1)"><g><path fill="none" stroke="none"/><text fill="#b33535" stroke="none" font-family="Roboto" font-size="13px" font-style="normal" font-weight="normal" text-decoration="none" x="67.40087890625" y="57.5">«R»</text></g></g><g transform="translate(-38,-28) scale(1,1)"><g><path fill="none" stroke="none"/><text fill="#000000" stroke="none" font-family="Roboto" font-size="13px" font-style="normal" font-weight="bold" text-decoration="none" x="73.96435546875" y="72.5">a</text></g></g><g transform="translate(-38,-28) scale(1,1)"><path fill="#ffffff" stroke="none" d="M 178 40 L 217 40 Q 227 40 227 50 L 227 69 Q 227 79 217 79 L 178 79 Q 168 79 168 69 L 168 50 Q 168 40 178 40 Z"/></g><g transform="translate(-38,-28) scale(1,1)"><path fill="none" stroke="#000000" d="M 178 40 L 217 40 Q 227 40 227 50 L 227 69 Q 227 79 217 79 L 178 79 Q 168 79 168 69 L 168 50 Q 168 40 178 40 Z" stroke-miterlimit="10"/></g><g transform="translate(-38,-28) scale(1,1)"><g><path fill="none" stroke="none"/><text fill="#000000" stroke="none" font-family="Roboto" font-size="13px" font-style="normal" font-weight="bold" text-decoration="none" x="193.853271484375" y="59.5">b</text></g></g><g transform="translate(-38,-28) scale(1,1)"><path fill="none" stroke="#b33535" d="M 108 59 L 167 59" stroke-miterlimit="10"/></g><g transform="translate(-38,-28) scale(1,1)"><path fill="none" stroke="#b33535" d="M 156.83732514237585 63.20951775601599 L 167 59 L 156.83732514237585 54.790482243984016" stroke-miterlimit="10"/></g><g transform="translate(-38,-28) scale(1,1)"><g><path fill="none" stroke="none"/><text fill="#b33535" stroke="none" font-family="Roboto" font-size="13px" font-style="normal" font-weight="normal" text-decoration="none" x="132.5" y="50.5">P</text></g></g></g></svg>
