<svg version="1.1" xmlns="http://www.w3.org/2000/svg" xmlns:xlink="http://www.w3.org/1999/xlink" width="319" height="133"><defs/><g><g transform="translate(-54,-44) scale(1,1)"><path fill="#ffffff" stroke="none" d="M 74 56 L 113 56 Q 123 56 123 66 L 123 85 Q 123 95 113 95 L 74 95 Q 64 95 64 85 L 64 66 Q 64 56 74 56 Z"/></g><g transform="translate(-54,-44) scale(1,1)"><path fill="none" stroke="#000000" d="M 74 56 L 113 56 Q 123 56 123 66 L 123 85 Q 123 95 113 95 L 74 95 Q 64 95 64 85 L 64 66 Q 64 56 74 56 Z" stroke-miterlimit="10"/></g><g transform="translate(-54,-44) scale(1,1)"><g><path fill="none" stroke="none"/><text fill="#000000" stroke="none" font-family="Roboto" font-size="13px" font-style="normal" font-weight="bold" text-decoration="none" x="91.732177734375" y="75.5">I</text></g></g><g transform="translate(-54,-44) scale(1,1)"><path fill="#ffffff" stroke="none" d="M 186 56 L 230.6943359375 56 Q 240.6943359375 56 240.6943359375 66 L 240.6943359375 85 Q 240.6943359375 95 230.6943359375 95 L 186 95 Q 176 95 176 85 L 176 66 Q 176 56 186 56 Z"/></g><g transform="translate(-54,-44) scale(1,1)"><path fill="none" stroke="#000000" d="M 186 56 L 230.6943359375 56 Q 240.6943359375 56 240.6943359375 66 L 240.6943359375 85 Q 240.6943359375 95 230.6943359375 95 L 186 95 Q 176 95 176 85 L 176 66 Q 176 56 186 56 Z" stroke-miterlimit="10"/></g><g transform="translate(-54,-44) scale(1,1)"><g><path fill="none" stroke="none"/><text fill="#000000" stroke="none" font-family="Roboto" font-size="13px" font-style="normal" font-weight="normal" text-decoration="none" x="180.5" y="73.5">«relation»</text></g></g><g transform="translate(-54,-44) scale(1,1)"><g><path fill="none" stroke="none"/><text fill="#000000" stroke="none" font-family="Roboto" font-size="13px" font-style="normal" font-weight="bold" text-decoration="none" x="198.1083984375" y="88.5">see</text></g></g><g transform="translate(-54,-44) scale(1,1)"><path fill="#ffffff" stroke="none" d="M 314 56 L 353 56 Q 363 56 363 66 L 363 85 Q 363 95 353 95 L 314 95 Q 304 95 304 85 L 304 66 Q 304 56 314 56 Z"/></g><g transform="translate(-54,-44) scale(1,1)"><path fill="none" stroke="#000000" d="M 314 56 L 353 56 Q 363 56 363 66 L 363 85 Q 363 95 353 95 L 314 95 Q 304 95 304 85 L 304 66 Q 304 56 314 56 Z" stroke-miterlimit="10"/></g><g transform="translate(-54,-44) scale(1,1)"><g><path fill="none" stroke="none"/><text fill="#000000" stroke="none" font-family="Roboto" font-size="13px" font-style="normal" font-weight="bold" text-decoration="none" x="323.13427734375" y="75.5">you</text></g></g><g transform="translate(-54,-44) scale(1,1)"><path fill="none" stroke="#000000" d="M 176 75 L 123 75" stroke-miterlimit="10"/></g><g transform="translate(-54,-44) scale(1,1)"><path fill="none" stroke="#000000" d="M 133.16267485762415 70.79048224398402 L 123 75 L 133.16267485762415 79.20951775601598" stroke-miterlimit="10"/></g><g transform="translate(-54,-44) scale(1,1)"><g><path fill="none" stroke="none"/><text fill="#000000" stroke="none" font-family="Roboto" font-size="13px" font-style="normal" font-weight="normal" text-decoration="none" x="131.5" y="96.5">agent</text></g></g><g transform="translate(-54,-44) scale(1,1)"><path fill="none" stroke="#000000" d="M 241 75 L 304 75" stroke-miterlimit="10"/></g><g transform="translate(-54,-44) scale(1,1)"><path fill="none" stroke="#000000" d="M 293.83732514237585 79.20951775601598 L 304 75 L 293.83732514237585 70.79048224398402" stroke-miterlimit="10"/></g><g transform="translate(-54,-44) scale(1,1)"><g><path fill="none" stroke="none"/><text fill="#000000" stroke="none" font-family="Roboto" font-size="13px" font-style="normal" font-weight="normal" text-decoration="none" x="251.5" y="66.5">patient</text></g></g><g transform="translate(-54,-44) scale(1,1)"><path fill="#ffffff" stroke="none" d="M 186 128 L 232.2177734375 128 Q 242.2177734375 128 242.2177734375 138 L 242.2177734375 157 Q 242.2177734375 167 232.2177734375 167 L 186 167 Q 176 167 176 157 L 176 138 Q 176 128 186 128 Z"/></g><g transform="translate(-54,-44) scale(1,1)"><path fill="none" stroke="#000000" d="M 186 128 L 232.2177734375 128 Q 242.2177734375 128 242.2177734375 138 L 242.2177734375 157 Q 242.2177734375 167 232.2177734375 167 L 186 167 Q 176 167 176 157 L 176 138 Q 176 128 186 128 Z" stroke-miterlimit="10"/></g><g transform="translate(-54,-44) scale(1,1)"><g><path fill="none" stroke="none"/><text fill="#000000" stroke="none" font-family="Roboto" font-size="13px" font-style="normal" font-weight="bold" text-decoration="none" x="181.195068359375" y="147.5">yesterday</text></g></g><g transform="translate(-54,-44) scale(1,1)"><path fill="none" stroke="#000000" d="M 208 128 L 208 95" stroke-miterlimit="10"/></g><g transform="translate(-54,-44) scale(1,1)"><path fill="none" stroke="#000000" d="M 212.209517756016 105.16267485762415 L 208 95 L 203.790482243984 105.16267485762415" stroke-miterlimit="10"/></g><g transform="translate(-54,-44) scale(1,1)"><g><path fill="none" stroke="none"/><text fill="#000000" stroke="none" font-family="Roboto" font-size="13px" font-style="normal" font-weight="normal" text-decoration="none" x="213.5" y="115.5">patient</text></g></g></g></svg>