<svg width="570" height="142" viewBox="0 0 570 142" version="1.1" xmlns="http://www.w3.org/2000/svg" xmlns:xlink="http://www.w3.org/1999/xlink">
<title>transformationPipeline</title>
<desc>Created using Figma</desc>
<g id="Canvas" transform="translate(-655 -1234)">
<clipPath id="clip-0" clip-rule="evenodd">
<path d="M 655 1234L 1225 1234L 1225 1376L 655 1376L 655 1234Z" fill="#FFFFFF"/>
</clipPath>
<g id="transformationPipeline" clip-path="url(#clip-0)">
<g id="Group">
<g id="Rectangle 6">
<use xlink:href="#path0_fill" transform="translate(775 1250)" fill="#B33535"/>
</g>
<g id="Simplify Annotations">
<use xlink:href="#path1_fill" transform="translate(775 1265.94)" fill="#FFFFFF"/>
</g>
</g>
<g id="Group">
<g id="Rectangle 6">
<use xlink:href="#path0_fill" transform="translate(895 1250)" fill="#B33535"/>
</g>
<g id="Add Extractions">
<use xlink:href="#path2_fill" transform="translate(895 1265.94)" fill="#FFFFFF"/>
</g>
</g>
<g id="Group">
<g id="Rectangle 6">
<use xlink:href="#path0_fill" transform="translate(895 1320)" fill="#B33535"/>
</g>
<g id="Remove Annotations">
<use xlink:href="#path3_fill" transform="translate(895 1335.94)" fill="#FFFFFF"/>
</g>
</g>
<g id="Group">
<g id="Rectangle 6">
<use xlink:href="#path0_fill" transform="translate(1015 1320)" fill="#B33535"/>
</g>
<g id="Simplify Extractions">
<use xlink:href="#path4_fill" transform="translate(1015 1335.94)" fill="#FFFFFF"/>
</g>
</g>
<g id="Group">
<g id="Ellipse 6">
<use xlink:href="#path5_fill" transform="translate(655 1250)" fill="#355FB3"/>
</g>
<g id="Annotation Graph">
<use xlink:href="#path6_fill" transform="translate(655 1265.94)" fill="#FFFFFF"/>
</g>
</g>
<g id="Group">
<g id="Ellipse 6">
<use xlink:href="#path5_fill" transform="translate(1135 1320)" fill="#355FB3"/>
</g>
<g id="Extraction Graph">
<use xlink:href="#path7_fill" transform="translate(1135 1335.94)" fill="#FFFFFF"/>
</g>
</g>
<g id="Arrow">
<use xlink:href="#path8_stroke" transform="translate(745 1270)"/>
</g>
<g id="Arrow">
<use xlink:href="#path8_stroke" transform="translate(865 1270)"/>
</g>
<g id="Arrow">
<use xlink:href="#path8_stroke" transform="translate(985 1340)"/>
</g>
<g id="Arrow">
<use xlink:href="#path8_stroke" transform="translate(1105 1340)"/>
</g>
<g id="Arrow">
<use xlink:href="#path8_stroke" transform="matrix(7.17448e-17 1 -1 5.55112e-17 940 1290)"/>
</g>
<g id="Rectangle">
<use xlink:href="#path9_stroke" transform="translate(760 1235)" fill="#B33535"/>
</g>
<g id="Concept Graph Converter">
<use xlink:href="#path10_fill" transform="translate(991 1235)" fill="#B33535"/>
</g>
</g>
</g>
<defs>
<path id="path0_fill" d="M 0 2C 0 0.895431 0.895431 0 2 0L 88 0C 89.1046 0 90 0.895431 90 2L 90 38C 90 39.1046 89.1046 40 88 40L 2 40C 0.895431 40 0 39.1046 0 38L 0 2Z"/>
<path id="path1_fill" d="M 30.0049 -1.16895C 29.2008 -1.40007 28.6149 -1.68327 28.2471 -2.01855C 27.8825 -2.3571 27.7002 -2.77376 27.7002 -3.26855C 27.7002 -3.82845 27.9232 -4.29069 28.3691 -4.65527C 28.8184 -5.02311 29.401 -5.20703 30.1172 -5.20703C 30.6055 -5.20703 31.04 -5.11263 31.4209 -4.92383C 31.805 -4.73503 32.1012 -4.47461 32.3096 -4.14258C 32.5212 -3.81055 32.627 -3.44759 32.627 -3.05371L 31.6846 -3.05371C 31.6846 -3.4834 31.5479 -3.82031 31.2744 -4.06445C 31.001 -4.31185 30.6152 -4.43555 30.1172 -4.43555C 29.6549 -4.43555 29.2936 -4.33301 29.0332 -4.12793C 28.776 -3.92611 28.6475 -3.64453 28.6475 -3.2832C 28.6475 -2.99349 28.7695 -2.74772 29.0137 -2.5459C 29.2611 -2.34733 29.6794 -2.16504 30.2686 -1.99902C 30.861 -1.83301 31.3232 -1.64909 31.6553 -1.44727C 31.9906 -1.2487 32.238 -1.01595 32.3975 -0.749023C 32.5602 -0.482096 32.6416 -0.167969 32.6416 0.193359C 32.6416 0.769531 32.417 1.23177 31.9678 1.58008C 31.5186 1.92513 30.918 2.09766 30.166 2.09766C 29.6777 2.09766 29.222 2.00488 28.7988 1.81934C 28.3757 1.63053 28.0485 1.37337 27.8174 1.04785C 27.5895 0.722331 27.4756 0.352865 27.4756 -0.0605469L 28.418 -0.0605469C 28.418 0.369141 28.5758 0.70931 28.8916 0.959961C 29.2106 1.20736 29.6354 1.33105 30.166 1.33105C 30.6608 1.33105 31.04 1.23014 31.3037 1.02832C 31.5674 0.826497 31.6992 0.551432 31.6992 0.203125C 31.6992 -0.145182 31.5771 -0.413737 31.333 -0.602539C 31.0889 -0.794596 30.6462 -0.983398 30.0049 -1.16895ZM 34.6875 2L 33.7842 2L 33.7842 -3.2832L 34.6875 -3.2832L 34.6875 2ZM 33.7109 -4.68457C 33.7109 -4.83105 33.7549 -4.95475 33.8428 -5.05566C 33.9339 -5.15658 34.0674 -5.20703 34.2432 -5.20703C 34.4189 -5.20703 34.5524 -5.15658 34.6436 -5.05566C 34.7347 -4.95475 34.7803 -4.83105 34.7803 -4.68457C 34.7803 -4.53809 34.7347 -4.41602 34.6436 -4.31836C 34.5524 -4.2207 34.4189 -4.17188 34.2432 -4.17188C 34.0674 -4.17188 33.9339 -4.2207 33.8428 -4.31836C 33.7549 -4.41602 33.7109 -4.53809 33.7109 -4.68457ZM 36.9873 -3.2832L 37.0117 -2.69727C 37.3991 -3.15299 37.9215 -3.38086 38.5791 -3.38086C 39.318 -3.38086 39.821 -3.09766 40.0879 -2.53125C 40.2637 -2.78516 40.4915 -2.99023 40.7715 -3.14648C 41.0547 -3.30273 41.3883 -3.38086 41.7725 -3.38086C 42.9313 -3.38086 43.5205 -2.76725 43.54 -1.54004L 43.54 2L 42.6367 2L 42.6367 -1.48633C 42.6367 -1.86393 42.5505 -2.14551 42.3779 -2.33105C 42.2054 -2.51986 41.9157 -2.61426 41.5088 -2.61426C 41.1735 -2.61426 40.8952 -2.51335 40.6738 -2.31152C 40.4525 -2.11296 40.3239 -1.8444 40.2881 -1.50586L 40.2881 2L 39.3799 2L 39.3799 -1.46191C 39.3799 -2.23014 39.0039 -2.61426 38.252 -2.61426C 37.6595 -2.61426 37.2542 -2.36198 37.0361 -1.85742L 37.0361 2L 36.1328 2L 36.1328 -3.2832L 36.9873 -3.2832ZM 49.3701 -0.583008C 49.3701 0.221029 49.1862 0.868815 48.8184 1.36035C 48.4505 1.85189 47.9525 2.09766 47.3242 2.09766C 46.6829 2.09766 46.1784 1.89421 45.8105 1.4873L 45.8105 4.03125L 44.9072 4.03125L 44.9072 -3.2832L 45.7324 -3.2832L 45.7764 -2.69727C 46.1442 -3.15299 46.6553 -3.38086 47.3096 -3.38086C 47.9443 -3.38086 48.4456 -3.1416 48.8135 -2.66309C 49.1846 -2.18457 49.3701 -1.51888 49.3701 -0.666016L 49.3701 -0.583008ZM 48.4668 -0.685547C 48.4668 -1.28125 48.3398 -1.75163 48.0859 -2.09668C 47.832 -2.44173 47.4837 -2.61426 47.041 -2.61426C 46.4941 -2.61426 46.084 -2.37174 45.8105 -1.88672L 45.8105 0.637695C 46.0807 1.11947 46.4941 1.36035 47.0508 1.36035C 47.4837 1.36035 47.8271 1.18945 48.0811 0.847656C 48.3382 0.502604 48.4668 -0.00846359 48.4668 -0.685547ZM 51.5039 2L 50.6006 2L 50.6006 -5.5L 51.5039 -5.5L 51.5039 2ZM 53.9355 2L 53.0322 2L 53.0322 -3.2832L 53.9355 -3.2832L 53.9355 2ZM 52.959 -4.68457C 52.959 -4.83105 53.0029 -4.95475 53.0908 -5.05566C 53.182 -5.15658 53.3154 -5.20703 53.4912 -5.20703C 53.667 -5.20703 53.8005 -5.15658 53.8916 -5.05566C 53.9827 -4.95475 54.0283 -4.83105 54.0283 -4.68457C 54.0283 -4.53809 53.9827 -4.41602 53.8916 -4.31836C 53.8005 -4.2207 53.667 -4.17188 53.4912 -4.17188C 53.3154 -4.17188 53.182 -4.2207 53.0908 -4.31836C 53.0029 -4.41602 52.959 -4.53809 52.959 -4.68457ZM 55.8301 2L 55.8301 -2.58496L 54.9951 -2.58496L 54.9951 -3.2832L 55.8301 -3.2832L 55.8301 -3.8252C 55.8301 -4.3916 55.9814 -4.82943 56.2842 -5.13867C 56.5869 -5.44792 57.015 -5.60254 57.5684 -5.60254C 57.7767 -5.60254 57.9834 -5.57487 58.1885 -5.51953L 58.1396 -4.78711C 57.9867 -4.81641 57.8239 -4.83105 57.6514 -4.83105C 57.3584 -4.83105 57.1322 -4.74479 56.9727 -4.57227C 56.8132 -4.40299 56.7334 -4.15885 56.7334 -3.83984L 56.7334 -3.2832L 57.8613 -3.2832L 57.8613 -2.58496L 56.7334 -2.58496L 56.7334 2L 55.8301 2ZM 60.5908 0.676758L 61.8213 -3.2832L 62.7881 -3.2832L 60.6641 2.81543C 60.3353 3.69434 59.8128 4.13379 59.0967 4.13379L 58.9258 4.11914L 58.5889 4.05566L 58.5889 3.32324L 58.833 3.34277C 59.139 3.34277 59.3766 3.28092 59.5459 3.15723C 59.7184 3.03353 59.86 2.80729 59.9707 2.47852L 60.1709 1.94141L 58.2861 -3.2832L 59.2725 -3.2832L 60.5908 0.676758ZM 22.7246 12.1445L 19.7461 12.1445L 19.0771 14L 18.1104 14L 20.8252 6.89062L 21.6455 6.89062L 24.3652 14L 23.4033 14L 22.7246 12.1445ZM 20.0293 11.373L 22.4463 11.373L 21.2354 8.04785L 20.0293 11.373ZM 26.0352 8.7168L 26.0645 9.38086C 26.4681 8.87305 26.9954 8.61914 27.6465 8.61914C 28.763 8.61914 29.3262 9.24902 29.3359 10.5088L 29.3359 14L 28.4326 14L 28.4326 10.5039C 28.4294 10.123 28.3415 9.84147 28.1689 9.65918C 27.9997 9.47689 27.7344 9.38574 27.373 9.38574C 27.0801 9.38574 26.8229 9.46387 26.6016 9.62012C 26.3802 9.77637 26.2077 9.98145 26.084 10.2354L 26.084 14L 25.1807 14L 25.1807 8.7168L 26.0352 8.7168ZM 31.5527 8.7168L 31.582 9.38086C 31.9857 8.87305 32.513 8.61914 33.1641 8.61914C 34.2806 8.61914 34.8438 9.24902 34.8535 10.5088L 34.8535 14L 33.9502 14L 33.9502 10.5039C 33.9469 10.123 33.859 9.84147 33.6865 9.65918C 33.5173 9.47689 33.252 9.38574 32.8906 9.38574C 32.5977 9.38574 32.3405 9.46387 32.1191 9.62012C 31.8978 9.77637 31.7253 9.98145 31.6016 10.2354L 31.6016 14L 30.6982 14L 30.6982 8.7168L 31.5527 8.7168ZM 35.9766 11.3096C 35.9766 10.792 36.0775 10.3265 36.2793 9.91309C 36.4844 9.49967 36.7676 9.18066 37.1289 8.95605C 37.4935 8.73145 37.9085 8.61914 38.374 8.61914C 39.0934 8.61914 39.6745 8.86816 40.1172 9.36621C 40.5632 9.86426 40.7861 10.5267 40.7861 11.3535L 40.7861 11.417C 40.7861 11.9313 40.6868 12.3936 40.4883 12.8037C 40.293 13.2106 40.0114 13.528 39.6436 13.7559C 39.279 13.9837 38.859 14.0977 38.3838 14.0977C 37.6676 14.0977 37.0866 13.8486 36.6406 13.3506C 36.1979 12.8525 35.9766 12.1934 35.9766 11.373L 35.9766 11.3096ZM 36.8848 11.417C 36.8848 12.0029 37.0199 12.4733 37.29 12.8281C 37.5635 13.1829 37.9281 13.3604 38.3838 13.3604C 38.8428 13.3604 39.2074 13.1813 39.4775 12.8232C 39.7477 12.4619 39.8828 11.9574 39.8828 11.3096C 39.8828 10.7301 39.7445 10.2614 39.4678 9.90332C 39.1943 9.54199 38.8298 9.36133 38.374 9.36133C 37.9281 9.36133 37.5684 9.53874 37.2949 9.89355C 37.0215 10.2484 36.8848 10.7562 36.8848 11.417ZM 43.1445 7.4375L 43.1445 8.7168L 44.1309 8.7168L 44.1309 9.41504L 43.1445 9.41504L 43.1445 12.6914C 43.1445 12.903 43.1885 13.0625 43.2764 13.1699C 43.3643 13.2741 43.514 13.3262 43.7256 13.3262C 43.8298 13.3262 43.973 13.3066 44.1553 13.2676L 44.1553 14C 43.9176 14.0651 43.6865 14.0977 43.4619 14.0977C 43.0583 14.0977 42.7539 13.9756 42.5488 13.7314C 42.3438 13.4873 42.2412 13.1406 42.2412 12.6914L 42.2412 9.41504L 41.2793 9.41504L 41.2793 8.7168L 42.2412 8.7168L 42.2412 7.4375L 43.1445 7.4375ZM 48.4521 14C 48.4001 13.8958 48.3577 13.7103 48.3252 13.4434C 47.9053 13.8796 47.404 14.0977 46.8213 14.0977C 46.3005 14.0977 45.8724 13.9512 45.5371 13.6582C 45.2051 13.362 45.0391 12.9876 45.0391 12.5352C 45.0391 11.985 45.2474 11.5586 45.6641 11.2559C 46.084 10.9499 46.6732 10.7969 47.4316 10.7969L 48.3105 10.7969L 48.3105 10.3818C 48.3105 10.0661 48.2161 9.81543 48.0273 9.62988C 47.8385 9.44108 47.5602 9.34668 47.1924 9.34668C 46.8701 9.34668 46.5999 9.42806 46.3818 9.59082C 46.1637 9.75358 46.0547 9.95052 46.0547 10.1816L 45.1465 10.1816C 45.1465 9.91797 45.2393 9.66406 45.4248 9.41992C 45.6136 9.17253 45.8675 8.97721 46.1865 8.83398C 46.5088 8.69076 46.862 8.61914 47.2461 8.61914C 47.8548 8.61914 48.3317 8.77214 48.6768 9.07812C 49.0218 9.38086 49.2008 9.79915 49.2139 10.333L 49.2139 12.7646C 49.2139 13.2497 49.2757 13.6354 49.3994 13.9219L 49.3994 14L 48.4521 14ZM 46.9531 13.3115C 47.2363 13.3115 47.5049 13.2383 47.7588 13.0918C 48.0127 12.9453 48.1966 12.7549 48.3105 12.5205L 48.3105 11.4365L 47.6025 11.4365C 46.4958 11.4365 45.9424 11.7604 45.9424 12.4082C 45.9424 12.6914 46.0368 12.9128 46.2256 13.0723C 46.4144 13.2318 46.6569 13.3115 46.9531 13.3115ZM 51.8555 7.4375L 51.8555 8.7168L 52.8418 8.7168L 52.8418 9.41504L 51.8555 9.41504L 51.8555 12.6914C 51.8555 12.903 51.8994 13.0625 51.9873 13.1699C 52.0752 13.2741 52.2249 13.3262 52.4365 13.3262C 52.5407 13.3262 52.6839 13.3066 52.8662 13.2676L 52.8662 14C 52.6286 14.0651 52.3975 14.0977 52.1729 14.0977C 51.7692 14.0977 51.4648 13.9756 51.2598 13.7314C 51.0547 13.4873 50.9521 13.1406 50.9521 12.6914L 50.9521 9.41504L 49.9902 9.41504L 49.9902 8.7168L 50.9521 8.7168L 50.9521 7.4375L 51.8555 7.4375ZM 54.8828 14L 53.9795 14L 53.9795 8.7168L 54.8828 8.7168L 54.8828 14ZM 53.9062 7.31543C 53.9062 7.16895 53.9502 7.04525 54.0381 6.94434C 54.1292 6.84342 54.2627 6.79297 54.4385 6.79297C 54.6143 6.79297 54.7477 6.84342 54.8389 6.94434C 54.93 7.04525 54.9756 7.16895 54.9756 7.31543C 54.9756 7.46191 54.93 7.58398 54.8389 7.68164C 54.7477 7.7793 54.6143 7.82812 54.4385 7.82812C 54.2627 7.82812 54.1292 7.7793 54.0381 7.68164C 53.9502 7.58398 53.9062 7.46191 53.9062 7.31543ZM 56.0938 11.3096C 56.0938 10.792 56.1947 10.3265 56.3965 9.91309C 56.6016 9.49967 56.8848 9.18066 57.2461 8.95605C 57.6107 8.73145 58.0257 8.61914 58.4912 8.61914C 59.2106 8.61914 59.7917 8.86816 60.2344 9.36621C 60.6803 9.86426 60.9033 10.5267 60.9033 11.3535L 60.9033 11.417C 60.9033 11.9313 60.804 12.3936 60.6055 12.8037C 60.4102 13.2106 60.1286 13.528 59.7607 13.7559C 59.3962 13.9837 58.9762 14.0977 58.501 14.0977C 57.7848 14.0977 57.2038 13.8486 56.7578 13.3506C 56.3151 12.8525 56.0938 12.1934 56.0938 11.373L 56.0938 11.3096ZM 57.002 11.417C 57.002 12.0029 57.137 12.4733 57.4072 12.8281C 57.6807 13.1829 58.0452 13.3604 58.501 13.3604C 58.96 13.3604 59.3245 13.1813 59.5947 12.8232C 59.8649 12.4619 60 11.9574 60 11.3096C 60 10.7301 59.8617 10.2614 59.585 9.90332C 59.3115 9.54199 58.9469 9.36133 58.4912 9.36133C 58.0452 9.36133 57.6855 9.53874 57.4121 9.89355C 57.1387 10.2484 57.002 10.7562 57.002 11.417ZM 62.8906 8.7168L 62.9199 9.38086C 63.3236 8.87305 63.8509 8.61914 64.502 8.61914C 65.6185 8.61914 66.1816 9.24902 66.1914 10.5088L 66.1914 14L 65.2881 14L 65.2881 10.5039C 65.2848 10.123 65.1969 9.84147 65.0244 9.65918C 64.8551 9.47689 64.5898 9.38574 64.2285 9.38574C 63.9355 9.38574 63.6784 9.46387 63.457 9.62012C 63.2357 9.77637 63.0632 9.98145 62.9395 10.2354L 62.9395 14L 62.0361 14L 62.0361 8.7168L 62.8906 8.7168ZM 70.6299 12.5986C 70.6299 12.3545 70.5371 12.1657 70.3516 12.0322C 70.1693 11.8955 69.8486 11.7783 69.3896 11.6807C 68.9339 11.583 68.571 11.4658 68.3008 11.3291C 68.0339 11.1924 67.8353 11.0296 67.7051 10.8408C 67.5781 10.652 67.5146 10.4274 67.5146 10.167C 67.5146 9.73405 67.6969 9.36784 68.0615 9.06836C 68.4294 8.76888 68.8981 8.61914 69.4678 8.61914C 70.0667 8.61914 70.5518 8.77376 70.9229 9.08301C 71.2972 9.39225 71.4844 9.78776 71.4844 10.2695L 70.5762 10.2695C 70.5762 10.0221 70.4704 9.80892 70.2588 9.62988C 70.0505 9.45085 69.7868 9.36133 69.4678 9.36133C 69.139 9.36133 68.8818 9.43294 68.6963 9.57617C 68.5107 9.7194 68.418 9.90658 68.418 10.1377C 68.418 10.3558 68.5042 10.5202 68.6768 10.6309C 68.8493 10.7415 69.1602 10.8473 69.6094 10.9482C 70.0618 11.0492 70.4281 11.1696 70.708 11.3096C 70.988 11.4495 71.1947 11.6188 71.3281 11.8174C 71.4648 12.0127 71.5332 12.252 71.5332 12.5352C 71.5332 13.0072 71.3444 13.3864 70.9668 13.6729C 70.5892 13.9561 70.0993 14.0977 69.4971 14.0977C 69.0739 14.0977 68.6995 14.0228 68.374 13.873C 68.0485 13.7233 67.793 13.515 67.6074 13.248C 67.4251 12.9779 67.334 12.6865 67.334 12.374L 68.2373 12.374C 68.2536 12.6768 68.374 12.9176 68.5986 13.0967C 68.8265 13.2725 69.126 13.3604 69.4971 13.3604C 69.8389 13.3604 70.1123 13.292 70.3174 13.1553C 70.5257 13.0153 70.6299 12.8298 70.6299 12.5986Z"/>
<path id="path2_fill" d="M 40.8447 0.144531L 37.8662 0.144531L 37.1973 2L 36.2305 2L 38.9453 -5.10938L 39.7656 -5.10938L 42.4854 2L 41.5234 2L 40.8447 0.144531ZM 38.1494 -0.626953L 40.5664 -0.626953L 39.3555 -3.95215L 38.1494 -0.626953ZM 43.0811 -0.685547C 43.0811 -1.49609 43.2731 -2.14714 43.6572 -2.63867C 44.0413 -3.13346 44.5443 -3.38086 45.166 -3.38086C 45.7845 -3.38086 46.2744 -3.16927 46.6357 -2.74609L 46.6357 -5.5L 47.5391 -5.5L 47.5391 2L 46.709 2L 46.665 1.43359C 46.3037 1.8763 45.8008 2.09766 45.1562 2.09766C 44.5443 2.09766 44.0446 1.84701 43.6572 1.3457C 43.2731 0.844401 43.0811 0.190104 43.0811 -0.617188L 43.0811 -0.685547ZM 43.9844 -0.583008C 43.9844 0.0159505 44.1081 0.4847 44.3555 0.823242C 44.6029 1.16178 44.9447 1.33105 45.3809 1.33105C 45.9538 1.33105 46.3721 1.07389 46.6357 0.55957L 46.6357 -1.86719C 46.3656 -2.36523 45.9505 -2.61426 45.3906 -2.61426C 44.9479 -2.61426 44.6029 -2.44336 44.3555 -2.10156C 44.1081 -1.75977 43.9844 -1.25358 43.9844 -0.583008ZM 48.7256 -0.685547C 48.7256 -1.49609 48.9176 -2.14714 49.3018 -2.63867C 49.6859 -3.13346 50.1888 -3.38086 50.8105 -3.38086C 51.429 -3.38086 51.9189 -3.16927 52.2803 -2.74609L 52.2803 -5.5L 53.1836 -5.5L 53.1836 2L 52.3535 2L 52.3096 1.43359C 51.9482 1.8763 51.4453 2.09766 50.8008 2.09766C 50.1888 2.09766 49.6891 1.84701 49.3018 1.3457C 48.9176 0.844401 48.7256 0.190104 48.7256 -0.617188L 48.7256 -0.685547ZM 49.6289 -0.583008C 49.6289 0.0159505 49.7526 0.4847 50 0.823242C 50.2474 1.16178 50.5892 1.33105 51.0254 1.33105C 51.5983 1.33105 52.0166 1.07389 52.2803 0.55957L 52.2803 -1.86719C 52.0101 -2.36523 51.5951 -2.61426 51.0352 -2.61426C 50.5924 -2.61426 50.2474 -2.44336 50 -2.10156C 49.7526 -1.75977 49.6289 -1.25358 49.6289 -0.583008ZM 24.9121 10.7139L 21.8311 10.7139L 21.8311 13.2334L 25.4102 13.2334L 25.4102 14L 20.8936 14L 20.8936 6.89062L 25.3613 6.89062L 25.3613 7.66211L 21.8311 7.66211L 21.8311 9.94727L 24.9121 9.94727L 24.9121 10.7139ZM 28.208 10.6455L 29.3799 8.7168L 30.4346 8.7168L 28.7061 11.3291L 30.4883 14L 29.4434 14L 28.2227 12.0225L 27.002 14L 25.9521 14L 27.7344 11.3291L 26.0059 8.7168L 27.0508 8.7168L 28.208 10.6455ZM 32.6221 7.4375L 32.6221 8.7168L 33.6084 8.7168L 33.6084 9.41504L 32.6221 9.41504L 32.6221 12.6914C 32.6221 12.903 32.666 13.0625 32.7539 13.1699C 32.8418 13.2741 32.9915 13.3262 33.2031 13.3262C 33.3073 13.3262 33.4505 13.3066 33.6328 13.2676L 33.6328 14C 33.3952 14.0651 33.1641 14.0977 32.9395 14.0977C 32.5358 14.0977 32.2314 13.9756 32.0264 13.7314C 31.8213 13.4873 31.7188 13.1406 31.7188 12.6914L 31.7188 9.41504L 30.7568 9.41504L 30.7568 8.7168L 31.7188 8.7168L 31.7188 7.4375L 32.6221 7.4375ZM 37.2217 9.52734C 37.085 9.50456 36.9368 9.49316 36.7773 9.49316C 36.1849 9.49316 35.7829 9.74544 35.5713 10.25L 35.5713 14L 34.668 14L 34.668 8.7168L 35.5469 8.7168L 35.5615 9.32715C 35.8577 8.85514 36.2777 8.61914 36.8213 8.61914C 36.9971 8.61914 37.1305 8.64193 37.2217 8.6875L 37.2217 9.52734ZM 41.123 14C 41.071 13.8958 41.0286 13.7103 40.9961 13.4434C 40.5762 13.8796 40.0749 14.0977 39.4922 14.0977C 38.9714 14.0977 38.5433 13.9512 38.208 13.6582C 37.876 13.362 37.71 12.9876 37.71 12.5352C 37.71 11.985 37.9183 11.5586 38.335 11.2559C 38.7549 10.9499 39.3441 10.7969 40.1025 10.7969L 40.9814 10.7969L 40.9814 10.3818C 40.9814 10.0661 40.887 9.81543 40.6982 9.62988C 40.5094 9.44108 40.2311 9.34668 39.8633 9.34668C 39.541 9.34668 39.2708 9.42806 39.0527 9.59082C 38.8346 9.75358 38.7256 9.95052 38.7256 10.1816L 37.8174 10.1816C 37.8174 9.91797 37.9102 9.66406 38.0957 9.41992C 38.2845 9.17253 38.5384 8.97721 38.8574 8.83398C 39.1797 8.69076 39.5329 8.61914 39.917 8.61914C 40.5257 8.61914 41.0026 8.77214 41.3477 9.07812C 41.6927 9.38086 41.8717 9.79915 41.8848 10.333L 41.8848 12.7646C 41.8848 13.2497 41.9466 13.6354 42.0703 13.9219L 42.0703 14L 41.123 14ZM 39.624 13.3115C 39.9072 13.3115 40.1758 13.2383 40.4297 13.0918C 40.6836 12.9453 40.8675 12.7549 40.9814 12.5205L 40.9814 11.4365L 40.2734 11.4365C 39.1667 11.4365 38.6133 11.7604 38.6133 12.4082C 38.6133 12.6914 38.7077 12.9128 38.8965 13.0723C 39.0853 13.2318 39.3278 13.3115 39.624 13.3115ZM 45.4199 13.3604C 45.7422 13.3604 46.0238 13.2627 46.2646 13.0674C 46.5055 12.8721 46.639 12.6279 46.665 12.335L 47.5195 12.335C 47.5033 12.6377 47.3991 12.9258 47.207 13.1992C 47.015 13.4727 46.7578 13.6908 46.4355 13.8535C 46.1165 14.0163 45.778 14.0977 45.4199 14.0977C 44.7005 14.0977 44.1276 13.8584 43.7012 13.3799C 43.278 12.8981 43.0664 12.2406 43.0664 11.4072L 43.0664 11.2559C 43.0664 10.7415 43.1608 10.2842 43.3496 9.88379C 43.5384 9.4834 43.8086 9.17253 44.1602 8.95117C 44.515 8.72982 44.9333 8.61914 45.415 8.61914C 46.0075 8.61914 46.499 8.79655 46.8896 9.15137C 47.2835 9.50618 47.4935 9.9668 47.5195 10.5332L 46.665 10.5332C 46.639 10.1914 46.5088 9.91146 46.2744 9.69336C 46.0433 9.47201 45.7568 9.36133 45.415 9.36133C 44.9561 9.36133 44.5996 9.52734 44.3457 9.85938C 44.0951 10.1882 43.9697 10.665 43.9697 11.29L 43.9697 11.4609C 43.9697 12.0697 44.0951 12.5384 44.3457 12.8672C 44.5964 13.196 44.9544 13.3604 45.4199 13.3604ZM 49.7607 7.4375L 49.7607 8.7168L 50.7471 8.7168L 50.7471 9.41504L 49.7607 9.41504L 49.7607 12.6914C 49.7607 12.903 49.8047 13.0625 49.8926 13.1699C 49.9805 13.2741 50.1302 13.3262 50.3418 13.3262C 50.446 13.3262 50.5892 13.3066 50.7715 13.2676L 50.7715 14C 50.5339 14.0651 50.3027 14.0977 50.0781 14.0977C 49.6745 14.0977 49.3701 13.9756 49.165 13.7314C 48.96 13.4873 48.8574 13.1406 48.8574 12.6914L 48.8574 9.41504L 47.8955 9.41504L 47.8955 8.7168L 48.8574 8.7168L 48.8574 7.4375L 49.7607 7.4375ZM 52.7881 14L 51.8848 14L 51.8848 8.7168L 52.7881 8.7168L 52.7881 14ZM 51.8115 7.31543C 51.8115 7.16895 51.8555 7.04525 51.9434 6.94434C 52.0345 6.84342 52.168 6.79297 52.3438 6.79297C 52.5195 6.79297 52.653 6.84342 52.7441 6.94434C 52.8353 7.04525 52.8809 7.16895 52.8809 7.31543C 52.8809 7.46191 52.8353 7.58398 52.7441 7.68164C 52.653 7.7793 52.5195 7.82812 52.3438 7.82812C 52.168 7.82812 52.0345 7.7793 51.9434 7.68164C 51.8555 7.58398 51.8115 7.46191 51.8115 7.31543ZM 53.999 11.3096C 53.999 10.792 54.0999 10.3265 54.3018 9.91309C 54.5068 9.49967 54.79 9.18066 55.1514 8.95605C 55.516 8.73145 55.931 8.61914 56.3965 8.61914C 57.1159 8.61914 57.6969 8.86816 58.1396 9.36621C 58.5856 9.86426 58.8086 10.5267 58.8086 11.3535L 58.8086 11.417C 58.8086 11.9313 58.7093 12.3936 58.5107 12.8037C 58.3154 13.2106 58.0339 13.528 57.666 13.7559C 57.3014 13.9837 56.8815 14.0977 56.4062 14.0977C 55.6901 14.0977 55.109 13.8486 54.6631 13.3506C 54.2204 12.8525 53.999 12.1934 53.999 11.373L 53.999 11.3096ZM 54.9072 11.417C 54.9072 12.0029 55.0423 12.4733 55.3125 12.8281C 55.5859 13.1829 55.9505 13.3604 56.4062 13.3604C 56.8652 13.3604 57.2298 13.1813 57.5 12.8232C 57.7702 12.4619 57.9053 11.9574 57.9053 11.3096C 57.9053 10.7301 57.7669 10.2614 57.4902 9.90332C 57.2168 9.54199 56.8522 9.36133 56.3965 9.36133C 55.9505 9.36133 55.5908 9.53874 55.3174 9.89355C 55.0439 10.2484 54.9072 10.7562 54.9072 11.417ZM 60.7959 8.7168L 60.8252 9.38086C 61.2288 8.87305 61.7562 8.61914 62.4072 8.61914C 63.5238 8.61914 64.0869 9.24902 64.0967 10.5088L 64.0967 14L 63.1934 14L 63.1934 10.5039C 63.1901 10.123 63.1022 9.84147 62.9297 9.65918C 62.7604 9.47689 62.4951 9.38574 62.1338 9.38574C 61.8408 9.38574 61.5837 9.46387 61.3623 9.62012C 61.141 9.77637 60.9684 9.98145 60.8447 10.2354L 60.8447 14L 59.9414 14L 59.9414 8.7168L 60.7959 8.7168ZM 68.5352 12.5986C 68.5352 12.3545 68.4424 12.1657 68.2568 12.0322C 68.0745 11.8955 67.7539 11.7783 67.2949 11.6807C 66.8392 11.583 66.4762 11.4658 66.2061 11.3291C 65.9391 11.1924 65.7406 11.0296 65.6104 10.8408C 65.4834 10.652 65.4199 10.4274 65.4199 10.167C 65.4199 9.73405 65.6022 9.36784 65.9668 9.06836C 66.3346 8.76888 66.8034 8.61914 67.373 8.61914C 67.972 8.61914 68.457 8.77376 68.8281 9.08301C 69.2025 9.39225 69.3896 9.78776 69.3896 10.2695L 68.4814 10.2695C 68.4814 10.0221 68.3757 9.80892 68.1641 9.62988C 67.9557 9.45085 67.6921 9.36133 67.373 9.36133C 67.0443 9.36133 66.7871 9.43294 66.6016 9.57617C 66.416 9.7194 66.3232 9.90658 66.3232 10.1377C 66.3232 10.3558 66.4095 10.5202 66.582 10.6309C 66.7546 10.7415 67.0654 10.8473 67.5146 10.9482C 67.9671 11.0492 68.3333 11.1696 68.6133 11.3096C 68.8932 11.4495 69.0999 11.6188 69.2334 11.8174C 69.3701 12.0127 69.4385 12.252 69.4385 12.5352C 69.4385 13.0072 69.2497 13.3864 68.8721 13.6729C 68.4945 13.9561 68.0046 14.0977 67.4023 14.0977C 66.9792 14.0977 66.6048 14.0228 66.2793 13.873C 65.9538 13.7233 65.6982 13.515 65.5127 13.248C 65.3304 12.9779 65.2393 12.6865 65.2393 12.374L 66.1426 12.374C 66.1589 12.6768 66.2793 12.9176 66.5039 13.0967C 66.7318 13.2725 67.0312 13.3604 67.4023 13.3604C 67.7441 13.3604 68.0176 13.292 68.2227 13.1553C 68.431 13.0153 68.5352 12.8298 68.5352 12.5986Z"/>
<path id="path3_fill" d="M 30.4639 -0.875977L 28.7939 -0.875977L 28.7939 2L 27.8516 2L 27.8516 -5.10938L 30.2051 -5.10938C 31.0059 -5.10938 31.6211 -4.92708 32.0508 -4.5625C 32.4837 -4.19792 32.7002 -3.66732 32.7002 -2.9707C 32.7002 -2.52799 32.5798 -2.14225 32.3389 -1.81348C 32.1012 -1.4847 31.7692 -1.23893 31.3428 -1.07617L 33.0127 1.94141L 33.0127 2L 32.0068 2L 30.4639 -0.875977ZM 28.7939 -1.64258L 30.2344 -1.64258C 30.6999 -1.64258 31.0693 -1.76302 31.3428 -2.00391C 31.6195 -2.24479 31.7578 -2.56706 31.7578 -2.9707C 31.7578 -3.41016 31.626 -3.74707 31.3623 -3.98145C 31.1019 -4.21582 30.7243 -4.33464 30.2295 -4.33789L 28.7939 -4.33789L 28.7939 -1.64258ZM 36.0693 2.09766C 35.3532 2.09766 34.7705 1.86328 34.3213 1.39453C 33.8721 0.922526 33.6475 0.292643 33.6475 -0.495117L 33.6475 -0.661133C 33.6475 -1.18522 33.7467 -1.65234 33.9453 -2.0625C 34.1471 -2.47591 34.4271 -2.79818 34.7852 -3.0293C 35.1465 -3.26367 35.5371 -3.38086 35.957 -3.38086C 36.6439 -3.38086 37.1777 -3.15462 37.5586 -2.70215C 37.9395 -2.24967 38.1299 -1.60189 38.1299 -0.758789L 38.1299 -0.382812L 34.5508 -0.382812C 34.5638 0.138021 34.7152 0.55957 35.0049 0.881836C 35.2979 1.20085 35.6689 1.36035 36.1182 1.36035C 36.4372 1.36035 36.7074 1.29525 36.9287 1.16504C 37.1501 1.03483 37.3438 0.862305 37.5098 0.647461L 38.0615 1.07715C 37.6188 1.75749 36.9548 2.09766 36.0693 2.09766ZM 35.957 -2.63867C 35.5924 -2.63867 35.2865 -2.50521 35.0391 -2.23828C 34.7917 -1.97461 34.6387 -1.60352 34.5801 -1.125L 37.2266 -1.125L 37.2266 -1.19336C 37.2005 -1.65234 37.0768 -2.00716 36.8555 -2.25781C 36.6341 -2.51172 36.3346 -2.63867 35.957 -2.63867ZM 40.0293 -3.2832L 40.0537 -2.69727C 40.4411 -3.15299 40.9635 -3.38086 41.6211 -3.38086C 42.36 -3.38086 42.863 -3.09766 43.1299 -2.53125C 43.3057 -2.78516 43.5335 -2.99023 43.8135 -3.14648C 44.0967 -3.30273 44.4303 -3.38086 44.8145 -3.38086C 45.9733 -3.38086 46.5625 -2.76725 46.582 -1.54004L 46.582 2L 45.6787 2L 45.6787 -1.48633C 45.6787 -1.86393 45.5924 -2.14551 45.4199 -2.33105C 45.2474 -2.51986 44.9577 -2.61426 44.5508 -2.61426C 44.2155 -2.61426 43.9372 -2.51335 43.7158 -2.31152C 43.4945 -2.11296 43.3659 -1.8444 43.3301 -1.50586L 43.3301 2L 42.4219 2L 42.4219 -1.46191C 42.4219 -2.23014 42.0459 -2.61426 41.2939 -2.61426C 40.7015 -2.61426 40.2962 -2.36198 40.0781 -1.85742L 40.0781 2L 39.1748 2L 39.1748 -3.2832L 40.0293 -3.2832ZM 47.71 -0.69043C 47.71 -1.20801 47.8109 -1.6735 48.0127 -2.08691C 48.2178 -2.50033 48.501 -2.81934 48.8623 -3.04395C 49.2269 -3.26855 49.6419 -3.38086 50.1074 -3.38086C 50.8268 -3.38086 51.4079 -3.13184 51.8506 -2.63379C 52.2965 -2.13574 52.5195 -1.47331 52.5195 -0.646484L 52.5195 -0.583008C 52.5195 -0.0686848 52.4202 0.393555 52.2217 0.803711C 52.0264 1.21061 51.7448 1.52799 51.377 1.75586C 51.0124 1.98372 50.5924 2.09766 50.1172 2.09766C 49.401 2.09766 48.82 1.84863 48.374 1.35059C 47.9313 0.852539 47.71 0.193359 47.71 -0.626953L 47.71 -0.69043ZM 48.6182 -0.583008C 48.6182 0.00292969 48.7533 0.473307 49.0234 0.828125C 49.2969 1.18294 49.6615 1.36035 50.1172 1.36035C 50.5762 1.36035 50.9408 1.18132 51.2109 0.823242C 51.4811 0.461914 51.6162 -0.0426433 51.6162 -0.69043C 51.6162 -1.26986 51.4779 -1.73861 51.2012 -2.09668C 50.9277 -2.45801 50.5632 -2.63867 50.1074 -2.63867C 49.6615 -2.63867 49.3018 -2.46126 49.0283 -2.10645C 48.7549 -1.75163 48.6182 -1.24382 48.6182 -0.583008ZM 55.3174 0.774414L 56.626 -3.2832L 57.5488 -3.2832L 55.6543 2L 54.9658 2L 53.0518 -3.2832L 53.9746 -3.2832L 55.3174 0.774414ZM 60.542 2.09766C 59.8258 2.09766 59.2432 1.86328 58.7939 1.39453C 58.3447 0.922526 58.1201 0.292643 58.1201 -0.495117L 58.1201 -0.661133C 58.1201 -1.18522 58.2194 -1.65234 58.418 -2.0625C 58.6198 -2.47591 58.8997 -2.79818 59.2578 -3.0293C 59.6191 -3.26367 60.0098 -3.38086 60.4297 -3.38086C 61.1165 -3.38086 61.6504 -3.15462 62.0312 -2.70215C 62.4121 -2.24967 62.6025 -1.60189 62.6025 -0.758789L 62.6025 -0.382812L 59.0234 -0.382812C 59.0365 0.138021 59.1878 0.55957 59.4775 0.881836C 59.7705 1.20085 60.1416 1.36035 60.5908 1.36035C 60.9098 1.36035 61.18 1.29525 61.4014 1.16504C 61.6227 1.03483 61.8164 0.862305 61.9824 0.647461L 62.5342 1.07715C 62.0915 1.75749 61.4274 2.09766 60.542 2.09766ZM 60.4297 -2.63867C 60.0651 -2.63867 59.7591 -2.50521 59.5117 -2.23828C 59.2643 -1.97461 59.1113 -1.60352 59.0527 -1.125L 61.6992 -1.125L 61.6992 -1.19336C 61.6732 -1.65234 61.5495 -2.00716 61.3281 -2.25781C 61.1068 -2.51172 60.8073 -2.63867 60.4297 -2.63867ZM 22.7246 12.1445L 19.7461 12.1445L 19.0771 14L 18.1104 14L 20.8252 6.89062L 21.6455 6.89062L 24.3652 14L 23.4033 14L 22.7246 12.1445ZM 20.0293 11.373L 22.4463 11.373L 21.2354 8.04785L 20.0293 11.373ZM 26.0352 8.7168L 26.0645 9.38086C 26.4681 8.87305 26.9954 8.61914 27.6465 8.61914C 28.763 8.61914 29.3262 9.24902 29.3359 10.5088L 29.3359 14L 28.4326 14L 28.4326 10.5039C 28.4294 10.123 28.3415 9.84147 28.1689 9.65918C 27.9997 9.47689 27.7344 9.38574 27.373 9.38574C 27.0801 9.38574 26.8229 9.46387 26.6016 9.62012C 26.3802 9.77637 26.2077 9.98145 26.084 10.2354L 26.084 14L 25.1807 14L 25.1807 8.7168L 26.0352 8.7168ZM 31.5527 8.7168L 31.582 9.38086C 31.9857 8.87305 32.513 8.61914 33.1641 8.61914C 34.2806 8.61914 34.8438 9.24902 34.8535 10.5088L 34.8535 14L 33.9502 14L 33.9502 10.5039C 33.9469 10.123 33.859 9.84147 33.6865 9.65918C 33.5173 9.47689 33.252 9.38574 32.8906 9.38574C 32.5977 9.38574 32.3405 9.46387 32.1191 9.62012C 31.8978 9.77637 31.7253 9.98145 31.6016 10.2354L 31.6016 14L 30.6982 14L 30.6982 8.7168L 31.5527 8.7168ZM 35.9766 11.3096C 35.9766 10.792 36.0775 10.3265 36.2793 9.91309C 36.4844 9.49967 36.7676 9.18066 37.1289 8.95605C 37.4935 8.73145 37.9085 8.61914 38.374 8.61914C 39.0934 8.61914 39.6745 8.86816 40.1172 9.36621C 40.5632 9.86426 40.7861 10.5267 40.7861 11.3535L 40.7861 11.417C 40.7861 11.9313 40.6868 12.3936 40.4883 12.8037C 40.293 13.2106 40.0114 13.528 39.6436 13.7559C 39.279 13.9837 38.859 14.0977 38.3838 14.0977C 37.6676 14.0977 37.0866 13.8486 36.6406 13.3506C 36.1979 12.8525 35.9766 12.1934 35.9766 11.373L 35.9766 11.3096ZM 36.8848 11.417C 36.8848 12.0029 37.0199 12.4733 37.29 12.8281C 37.5635 13.1829 37.9281 13.3604 38.3838 13.3604C 38.8428 13.3604 39.2074 13.1813 39.4775 12.8232C 39.7477 12.4619 39.8828 11.9574 39.8828 11.3096C 39.8828 10.7301 39.7445 10.2614 39.4678 9.90332C 39.1943 9.54199 38.8298 9.36133 38.374 9.36133C 37.9281 9.36133 37.5684 9.53874 37.2949 9.89355C 37.0215 10.2484 36.8848 10.7562 36.8848 11.417ZM 43.1445 7.4375L 43.1445 8.7168L 44.1309 8.7168L 44.1309 9.41504L 43.1445 9.41504L 43.1445 12.6914C 43.1445 12.903 43.1885 13.0625 43.2764 13.1699C 43.3643 13.2741 43.514 13.3262 43.7256 13.3262C 43.8298 13.3262 43.973 13.3066 44.1553 13.2676L 44.1553 14C 43.9176 14.0651 43.6865 14.0977 43.4619 14.0977C 43.0583 14.0977 42.7539 13.9756 42.5488 13.7314C 42.3438 13.4873 42.2412 13.1406 42.2412 12.6914L 42.2412 9.41504L 41.2793 9.41504L 41.2793 8.7168L 42.2412 8.7168L 42.2412 7.4375L 43.1445 7.4375ZM 48.4521 14C 48.4001 13.8958 48.3577 13.7103 48.3252 13.4434C 47.9053 13.8796 47.404 14.0977 46.8213 14.0977C 46.3005 14.0977 45.8724 13.9512 45.5371 13.6582C 45.2051 13.362 45.0391 12.9876 45.0391 12.5352C 45.0391 11.985 45.2474 11.5586 45.6641 11.2559C 46.084 10.9499 46.6732 10.7969 47.4316 10.7969L 48.3105 10.7969L 48.3105 10.3818C 48.3105 10.0661 48.2161 9.81543 48.0273 9.62988C 47.8385 9.44108 47.5602 9.34668 47.1924 9.34668C 46.8701 9.34668 46.5999 9.42806 46.3818 9.59082C 46.1637 9.75358 46.0547 9.95052 46.0547 10.1816L 45.1465 10.1816C 45.1465 9.91797 45.2393 9.66406 45.4248 9.41992C 45.6136 9.17253 45.8675 8.97721 46.1865 8.83398C 46.5088 8.69076 46.862 8.61914 47.2461 8.61914C 47.8548 8.61914 48.3317 8.77214 48.6768 9.07812C 49.0218 9.38086 49.2008 9.79915 49.2139 10.333L 49.2139 12.7646C 49.2139 13.2497 49.2757 13.6354 49.3994 13.9219L 49.3994 14L 48.4521 14ZM 46.9531 13.3115C 47.2363 13.3115 47.5049 13.2383 47.7588 13.0918C 48.0127 12.9453 48.1966 12.7549 48.3105 12.5205L 48.3105 11.4365L 47.6025 11.4365C 46.4958 11.4365 45.9424 11.7604 45.9424 12.4082C 45.9424 12.6914 46.0368 12.9128 46.2256 13.0723C 46.4144 13.2318 46.6569 13.3115 46.9531 13.3115ZM 51.8555 7.4375L 51.8555 8.7168L 52.8418 8.7168L 52.8418 9.41504L 51.8555 9.41504L 51.8555 12.6914C 51.8555 12.903 51.8994 13.0625 51.9873 13.1699C 52.0752 13.2741 52.2249 13.3262 52.4365 13.3262C 52.5407 13.3262 52.6839 13.3066 52.8662 13.2676L 52.8662 14C 52.6286 14.0651 52.3975 14.0977 52.1729 14.0977C 51.7692 14.0977 51.4648 13.9756 51.2598 13.7314C 51.0547 13.4873 50.9521 13.1406 50.9521 12.6914L 50.9521 9.41504L 49.9902 9.41504L 49.9902 8.7168L 50.9521 8.7168L 50.9521 7.4375L 51.8555 7.4375ZM 54.8828 14L 53.9795 14L 53.9795 8.7168L 54.8828 8.7168L 54.8828 14ZM 53.9062 7.31543C 53.9062 7.16895 53.9502 7.04525 54.0381 6.94434C 54.1292 6.84342 54.2627 6.79297 54.4385 6.79297C 54.6143 6.79297 54.7477 6.84342 54.8389 6.94434C 54.93 7.04525 54.9756 7.16895 54.9756 7.31543C 54.9756 7.46191 54.93 7.58398 54.8389 7.68164C 54.7477 7.7793 54.6143 7.82812 54.4385 7.82812C 54.2627 7.82812 54.1292 7.7793 54.0381 7.68164C 53.9502 7.58398 53.9062 7.46191 53.9062 7.31543ZM 56.0938 11.3096C 56.0938 10.792 56.1947 10.3265 56.3965 9.91309C 56.6016 9.49967 56.8848 9.18066 57.2461 8.95605C 57.6107 8.73145 58.0257 8.61914 58.4912 8.61914C 59.2106 8.61914 59.7917 8.86816 60.2344 9.36621C 60.6803 9.86426 60.9033 10.5267 60.9033 11.3535L 60.9033 11.417C 60.9033 11.9313 60.804 12.3936 60.6055 12.8037C 60.4102 13.2106 60.1286 13.528 59.7607 13.7559C 59.3962 13.9837 58.9762 14.0977 58.501 14.0977C 57.7848 14.0977 57.2038 13.8486 56.7578 13.3506C 56.3151 12.8525 56.0938 12.1934 56.0938 11.373L 56.0938 11.3096ZM 57.002 11.417C 57.002 12.0029 57.137 12.4733 57.4072 12.8281C 57.6807 13.1829 58.0452 13.3604 58.501 13.3604C 58.96 13.3604 59.3245 13.1813 59.5947 12.8232C 59.8649 12.4619 60 11.9574 60 11.3096C 60 10.7301 59.8617 10.2614 59.585 9.90332C 59.3115 9.54199 58.9469 9.36133 58.4912 9.36133C 58.0452 9.36133 57.6855 9.53874 57.4121 9.89355C 57.1387 10.2484 57.002 10.7562 57.002 11.417ZM 62.8906 8.7168L 62.9199 9.38086C 63.3236 8.87305 63.8509 8.61914 64.502 8.61914C 65.6185 8.61914 66.1816 9.24902 66.1914 10.5088L 66.1914 14L 65.2881 14L 65.2881 10.5039C 65.2848 10.123 65.1969 9.84147 65.0244 9.65918C 64.8551 9.47689 64.5898 9.38574 64.2285 9.38574C 63.9355 9.38574 63.6784 9.46387 63.457 9.62012C 63.2357 9.77637 63.0632 9.98145 62.9395 10.2354L 62.9395 14L 62.0361 14L 62.0361 8.7168L 62.8906 8.7168ZM 70.6299 12.5986C 70.6299 12.3545 70.5371 12.1657 70.3516 12.0322C 70.1693 11.8955 69.8486 11.7783 69.3896 11.6807C 68.9339 11.583 68.571 11.4658 68.3008 11.3291C 68.0339 11.1924 67.8353 11.0296 67.7051 10.8408C 67.5781 10.652 67.5146 10.4274 67.5146 10.167C 67.5146 9.73405 67.6969 9.36784 68.0615 9.06836C 68.4294 8.76888 68.8981 8.61914 69.4678 8.61914C 70.0667 8.61914 70.5518 8.77376 70.9229 9.08301C 71.2972 9.39225 71.4844 9.78776 71.4844 10.2695L 70.5762 10.2695C 70.5762 10.0221 70.4704 9.80892 70.2588 9.62988C 70.0505 9.45085 69.7868 9.36133 69.4678 9.36133C 69.139 9.36133 68.8818 9.43294 68.6963 9.57617C 68.5107 9.7194 68.418 9.90658 68.418 10.1377C 68.418 10.3558 68.5042 10.5202 68.6768 10.6309C 68.8493 10.7415 69.1602 10.8473 69.6094 10.9482C 70.0618 11.0492 70.4281 11.1696 70.708 11.3096C 70.988 11.4495 71.1947 11.6188 71.3281 11.8174C 71.4648 12.0127 71.5332 12.252 71.5332 12.5352C 71.5332 13.0072 71.3444 13.3864 70.9668 13.6729C 70.5892 13.9561 70.0993 14.0977 69.4971 14.0977C 69.0739 14.0977 68.6995 14.0228 68.374 13.873C 68.0485 13.7233 67.793 13.515 67.6074 13.248C 67.4251 12.9779 67.334 12.6865 67.334 12.374L 68.2373 12.374C 68.2536 12.6768 68.374 12.9176 68.5986 13.0967C 68.8265 13.2725 69.126 13.3604 69.4971 13.3604C 69.8389 13.3604 70.1123 13.292 70.3174 13.1553C 70.5257 13.0153 70.6299 12.8298 70.6299 12.5986Z"/>
<path id="path4_fill" d="M 30.0049 -1.16895C 29.2008 -1.40007 28.6149 -1.68327 28.2471 -2.01855C 27.8825 -2.3571 27.7002 -2.77376 27.7002 -3.26855C 27.7002 -3.82845 27.9232 -4.29069 28.3691 -4.65527C 28.8184 -5.02311 29.401 -5.20703 30.1172 -5.20703C 30.6055 -5.20703 31.04 -5.11263 31.4209 -4.92383C 31.805 -4.73503 32.1012 -4.47461 32.3096 -4.14258C 32.5212 -3.81055 32.627 -3.44759 32.627 -3.05371L 31.6846 -3.05371C 31.6846 -3.4834 31.5479 -3.82031 31.2744 -4.06445C 31.001 -4.31185 30.6152 -4.43555 30.1172 -4.43555C 29.6549 -4.43555 29.2936 -4.33301 29.0332 -4.12793C 28.776 -3.92611 28.6475 -3.64453 28.6475 -3.2832C 28.6475 -2.99349 28.7695 -2.74772 29.0137 -2.5459C 29.2611 -2.34733 29.6794 -2.16504 30.2686 -1.99902C 30.861 -1.83301 31.3232 -1.64909 31.6553 -1.44727C 31.9906 -1.2487 32.238 -1.01595 32.3975 -0.749023C 32.5602 -0.482096 32.6416 -0.167969 32.6416 0.193359C 32.6416 0.769531 32.417 1.23177 31.9678 1.58008C 31.5186 1.92513 30.918 2.09766 30.166 2.09766C 29.6777 2.09766 29.222 2.00488 28.7988 1.81934C 28.3757 1.63053 28.0485 1.37337 27.8174 1.04785C 27.5895 0.722331 27.4756 0.352865 27.4756 -0.0605469L 28.418 -0.0605469C 28.418 0.369141 28.5758 0.70931 28.8916 0.959961C 29.2106 1.20736 29.6354 1.33105 30.166 1.33105C 30.6608 1.33105 31.04 1.23014 31.3037 1.02832C 31.5674 0.826497 31.6992 0.551432 31.6992 0.203125C 31.6992 -0.145182 31.5771 -0.413737 31.333 -0.602539C 31.0889 -0.794596 30.6462 -0.983398 30.0049 -1.16895ZM 34.6875 2L 33.7842 2L 33.7842 -3.2832L 34.6875 -3.2832L 34.6875 2ZM 33.7109 -4.68457C 33.7109 -4.83105 33.7549 -4.95475 33.8428 -5.05566C 33.9339 -5.15658 34.0674 -5.20703 34.2432 -5.20703C 34.4189 -5.20703 34.5524 -5.15658 34.6436 -5.05566C 34.7347 -4.95475 34.7803 -4.83105 34.7803 -4.68457C 34.7803 -4.53809 34.7347 -4.41602 34.6436 -4.31836C 34.5524 -4.2207 34.4189 -4.17188 34.2432 -4.17188C 34.0674 -4.17188 33.9339 -4.2207 33.8428 -4.31836C 33.7549 -4.41602 33.7109 -4.53809 33.7109 -4.68457ZM 36.9873 -3.2832L 37.0117 -2.69727C 37.3991 -3.15299 37.9215 -3.38086 38.5791 -3.38086C 39.318 -3.38086 39.821 -3.09766 40.0879 -2.53125C 40.2637 -2.78516 40.4915 -2.99023 40.7715 -3.14648C 41.0547 -3.30273 41.3883 -3.38086 41.7725 -3.38086C 42.9313 -3.38086 43.5205 -2.76725 43.54 -1.54004L 43.54 2L 42.6367 2L 42.6367 -1.48633C 42.6367 -1.86393 42.5505 -2.14551 42.3779 -2.33105C 42.2054 -2.51986 41.9157 -2.61426 41.5088 -2.61426C 41.1735 -2.61426 40.8952 -2.51335 40.6738 -2.31152C 40.4525 -2.11296 40.3239 -1.8444 40.2881 -1.50586L 40.2881 2L 39.3799 2L 39.3799 -1.46191C 39.3799 -2.23014 39.0039 -2.61426 38.252 -2.61426C 37.6595 -2.61426 37.2542 -2.36198 37.0361 -1.85742L 37.0361 2L 36.1328 2L 36.1328 -3.2832L 36.9873 -3.2832ZM 49.3701 -0.583008C 49.3701 0.221029 49.1862 0.868815 48.8184 1.36035C 48.4505 1.85189 47.9525 2.09766 47.3242 2.09766C 46.6829 2.09766 46.1784 1.89421 45.8105 1.4873L 45.8105 4.03125L 44.9072 4.03125L 44.9072 -3.2832L 45.7324 -3.2832L 45.7764 -2.69727C 46.1442 -3.15299 46.6553 -3.38086 47.3096 -3.38086C 47.9443 -3.38086 48.4456 -3.1416 48.8135 -2.66309C 49.1846 -2.18457 49.3701 -1.51888 49.3701 -0.666016L 49.3701 -0.583008ZM 48.4668 -0.685547C 48.4668 -1.28125 48.3398 -1.75163 48.0859 -2.09668C 47.832 -2.44173 47.4837 -2.61426 47.041 -2.61426C 46.4941 -2.61426 46.084 -2.37174 45.8105 -1.88672L 45.8105 0.637695C 46.0807 1.11947 46.4941 1.36035 47.0508 1.36035C 47.4837 1.36035 47.8271 1.18945 48.0811 0.847656C 48.3382 0.502604 48.4668 -0.00846359 48.4668 -0.685547ZM 51.5039 2L 50.6006 2L 50.6006 -5.5L 51.5039 -5.5L 51.5039 2ZM 53.9355 2L 53.0322 2L 53.0322 -3.2832L 53.9355 -3.2832L 53.9355 2ZM 52.959 -4.68457C 52.959 -4.83105 53.0029 -4.95475 53.0908 -5.05566C 53.182 -5.15658 53.3154 -5.20703 53.4912 -5.20703C 53.667 -5.20703 53.8005 -5.15658 53.8916 -5.05566C 53.9827 -4.95475 54.0283 -4.83105 54.0283 -4.68457C 54.0283 -4.53809 53.9827 -4.41602 53.8916 -4.31836C 53.8005 -4.2207 53.667 -4.17188 53.4912 -4.17188C 53.3154 -4.17188 53.182 -4.2207 53.0908 -4.31836C 53.0029 -4.41602 52.959 -4.53809 52.959 -4.68457ZM 55.8301 2L 55.8301 -2.58496L 54.9951 -2.58496L 54.9951 -3.2832L 55.8301 -3.2832L 55.8301 -3.8252C 55.8301 -4.3916 55.9814 -4.82943 56.2842 -5.13867C 56.5869 -5.44792 57.015 -5.60254 57.5684 -5.60254C 57.7767 -5.60254 57.9834 -5.57487 58.1885 -5.51953L 58.1396 -4.78711C 57.9867 -4.81641 57.8239 -4.83105 57.6514 -4.83105C 57.3584 -4.83105 57.1322 -4.74479 56.9727 -4.57227C 56.8132 -4.40299 56.7334 -4.15885 56.7334 -3.83984L 56.7334 -3.2832L 57.8613 -3.2832L 57.8613 -2.58496L 56.7334 -2.58496L 56.7334 2L 55.8301 2ZM 60.5908 0.676758L 61.8213 -3.2832L 62.7881 -3.2832L 60.6641 2.81543C 60.3353 3.69434 59.8128 4.13379 59.0967 4.13379L 58.9258 4.11914L 58.5889 4.05566L 58.5889 3.32324L 58.833 3.34277C 59.139 3.34277 59.3766 3.28092 59.5459 3.15723C 59.7184 3.03353 59.86 2.80729 59.9707 2.47852L 60.1709 1.94141L 58.2861 -3.2832L 59.2725 -3.2832L 60.5908 0.676758ZM 24.9121 10.7139L 21.8311 10.7139L 21.8311 13.2334L 25.4102 13.2334L 25.4102 14L 20.8936 14L 20.8936 6.89062L 25.3613 6.89062L 25.3613 7.66211L 21.8311 7.66211L 21.8311 9.94727L 24.9121 9.94727L 24.9121 10.7139ZM 28.208 10.6455L 29.3799 8.7168L 30.4346 8.7168L 28.7061 11.3291L 30.4883 14L 29.4434 14L 28.2227 12.0225L 27.002 14L 25.9521 14L 27.7344 11.3291L 26.0059 8.7168L 27.0508 8.7168L 28.208 10.6455ZM 32.6221 7.4375L 32.6221 8.7168L 33.6084 8.7168L 33.6084 9.41504L 32.6221 9.41504L 32.6221 12.6914C 32.6221 12.903 32.666 13.0625 32.7539 13.1699C 32.8418 13.2741 32.9915 13.3262 33.2031 13.3262C 33.3073 13.3262 33.4505 13.3066 33.6328 13.2676L 33.6328 14C 33.3952 14.0651 33.1641 14.0977 32.9395 14.0977C 32.5358 14.0977 32.2314 13.9756 32.0264 13.7314C 31.8213 13.4873 31.7188 13.1406 31.7188 12.6914L 31.7188 9.41504L 30.7568 9.41504L 30.7568 8.7168L 31.7188 8.7168L 31.7188 7.4375L 32.6221 7.4375ZM 37.2217 9.52734C 37.085 9.50456 36.9368 9.49316 36.7773 9.49316C 36.1849 9.49316 35.7829 9.74544 35.5713 10.25L 35.5713 14L 34.668 14L 34.668 8.7168L 35.5469 8.7168L 35.5615 9.32715C 35.8577 8.85514 36.2777 8.61914 36.8213 8.61914C 36.9971 8.61914 37.1305 8.64193 37.2217 8.6875L 37.2217 9.52734ZM 41.123 14C 41.071 13.8958 41.0286 13.7103 40.9961 13.4434C 40.5762 13.8796 40.0749 14.0977 39.4922 14.0977C 38.9714 14.0977 38.5433 13.9512 38.208 13.6582C 37.876 13.362 37.71 12.9876 37.71 12.5352C 37.71 11.985 37.9183 11.5586 38.335 11.2559C 38.7549 10.9499 39.3441 10.7969 40.1025 10.7969L 40.9814 10.7969L 40.9814 10.3818C 40.9814 10.0661 40.887 9.81543 40.6982 9.62988C 40.5094 9.44108 40.2311 9.34668 39.8633 9.34668C 39.541 9.34668 39.2708 9.42806 39.0527 9.59082C 38.8346 9.75358 38.7256 9.95052 38.7256 10.1816L 37.8174 10.1816C 37.8174 9.91797 37.9102 9.66406 38.0957 9.41992C 38.2845 9.17253 38.5384 8.97721 38.8574 8.83398C 39.1797 8.69076 39.5329 8.61914 39.917 8.61914C 40.5257 8.61914 41.0026 8.77214 41.3477 9.07812C 41.6927 9.38086 41.8717 9.79915 41.8848 10.333L 41.8848 12.7646C 41.8848 13.2497 41.9466 13.6354 42.0703 13.9219L 42.0703 14L 41.123 14ZM 39.624 13.3115C 39.9072 13.3115 40.1758 13.2383 40.4297 13.0918C 40.6836 12.9453 40.8675 12.7549 40.9814 12.5205L 40.9814 11.4365L 40.2734 11.4365C 39.1667 11.4365 38.6133 11.7604 38.6133 12.4082C 38.6133 12.6914 38.7077 12.9128 38.8965 13.0723C 39.0853 13.2318 39.3278 13.3115 39.624 13.3115ZM 45.4199 13.3604C 45.7422 13.3604 46.0238 13.2627 46.2646 13.0674C 46.5055 12.8721 46.639 12.6279 46.665 12.335L 47.5195 12.335C 47.5033 12.6377 47.3991 12.9258 47.207 13.1992C 47.015 13.4727 46.7578 13.6908 46.4355 13.8535C 46.1165 14.0163 45.778 14.0977 45.4199 14.0977C 44.7005 14.0977 44.1276 13.8584 43.7012 13.3799C 43.278 12.8981 43.0664 12.2406 43.0664 11.4072L 43.0664 11.2559C 43.0664 10.7415 43.1608 10.2842 43.3496 9.88379C 43.5384 9.4834 43.8086 9.17253 44.1602 8.95117C 44.515 8.72982 44.9333 8.61914 45.415 8.61914C 46.0075 8.61914 46.499 8.79655 46.8896 9.15137C 47.2835 9.50618 47.4935 9.9668 47.5195 10.5332L 46.665 10.5332C 46.639 10.1914 46.5088 9.91146 46.2744 9.69336C 46.0433 9.47201 45.7568 9.36133 45.415 9.36133C 44.9561 9.36133 44.5996 9.52734 44.3457 9.85938C 44.0951 10.1882 43.9697 10.665 43.9697 11.29L 43.9697 11.4609C 43.9697 12.0697 44.0951 12.5384 44.3457 12.8672C 44.5964 13.196 44.9544 13.3604 45.4199 13.3604ZM 49.7607 7.4375L 49.7607 8.7168L 50.7471 8.7168L 50.7471 9.41504L 49.7607 9.41504L 49.7607 12.6914C 49.7607 12.903 49.8047 13.0625 49.8926 13.1699C 49.9805 13.2741 50.1302 13.3262 50.3418 13.3262C 50.446 13.3262 50.5892 13.3066 50.7715 13.2676L 50.7715 14C 50.5339 14.0651 50.3027 14.0977 50.0781 14.0977C 49.6745 14.0977 49.3701 13.9756 49.165 13.7314C 48.96 13.4873 48.8574 13.1406 48.8574 12.6914L 48.8574 9.41504L 47.8955 9.41504L 47.8955 8.7168L 48.8574 8.7168L 48.8574 7.4375L 49.7607 7.4375ZM 52.7881 14L 51.8848 14L 51.8848 8.7168L 52.7881 8.7168L 52.7881 14ZM 51.8115 7.31543C 51.8115 7.16895 51.8555 7.04525 51.9434 6.94434C 52.0345 6.84342 52.168 6.79297 52.3438 6.79297C 52.5195 6.79297 52.653 6.84342 52.7441 6.94434C 52.8353 7.04525 52.8809 7.16895 52.8809 7.31543C 52.8809 7.46191 52.8353 7.58398 52.7441 7.68164C 52.653 7.7793 52.5195 7.82812 52.3438 7.82812C 52.168 7.82812 52.0345 7.7793 51.9434 7.68164C 51.8555 7.58398 51.8115 7.46191 51.8115 7.31543ZM 53.999 11.3096C 53.999 10.792 54.0999 10.3265 54.3018 9.91309C 54.5068 9.49967 54.79 9.18066 55.1514 8.95605C 55.516 8.73145 55.931 8.61914 56.3965 8.61914C 57.1159 8.61914 57.6969 8.86816 58.1396 9.36621C 58.5856 9.86426 58.8086 10.5267 58.8086 11.3535L 58.8086 11.417C 58.8086 11.9313 58.7093 12.3936 58.5107 12.8037C 58.3154 13.2106 58.0339 13.528 57.666 13.7559C 57.3014 13.9837 56.8815 14.0977 56.4062 14.0977C 55.6901 14.0977 55.109 13.8486 54.6631 13.3506C 54.2204 12.8525 53.999 12.1934 53.999 11.373L 53.999 11.3096ZM 54.9072 11.417C 54.9072 12.0029 55.0423 12.4733 55.3125 12.8281C 55.5859 13.1829 55.9505 13.3604 56.4062 13.3604C 56.8652 13.3604 57.2298 13.1813 57.5 12.8232C 57.7702 12.4619 57.9053 11.9574 57.9053 11.3096C 57.9053 10.7301 57.7669 10.2614 57.4902 9.90332C 57.2168 9.54199 56.8522 9.36133 56.3965 9.36133C 55.9505 9.36133 55.5908 9.53874 55.3174 9.89355C 55.0439 10.2484 54.9072 10.7562 54.9072 11.417ZM 60.7959 8.7168L 60.8252 9.38086C 61.2288 8.87305 61.7562 8.61914 62.4072 8.61914C 63.5238 8.61914 64.0869 9.24902 64.0967 10.5088L 64.0967 14L 63.1934 14L 63.1934 10.5039C 63.1901 10.123 63.1022 9.84147 62.9297 9.65918C 62.7604 9.47689 62.4951 9.38574 62.1338 9.38574C 61.8408 9.38574 61.5837 9.46387 61.3623 9.62012C 61.141 9.77637 60.9684 9.98145 60.8447 10.2354L 60.8447 14L 59.9414 14L 59.9414 8.7168L 60.7959 8.7168ZM 68.5352 12.5986C 68.5352 12.3545 68.4424 12.1657 68.2568 12.0322C 68.0745 11.8955 67.7539 11.7783 67.2949 11.6807C 66.8392 11.583 66.4762 11.4658 66.2061 11.3291C 65.9391 11.1924 65.7406 11.0296 65.6104 10.8408C 65.4834 10.652 65.4199 10.4274 65.4199 10.167C 65.4199 9.73405 65.6022 9.36784 65.9668 9.06836C 66.3346 8.76888 66.8034 8.61914 67.373 8.61914C 67.972 8.61914 68.457 8.77376 68.8281 9.08301C 69.2025 9.39225 69.3896 9.78776 69.3896 10.2695L 68.4814 10.2695C 68.4814 10.0221 68.3757 9.80892 68.1641 9.62988C 67.9557 9.45085 67.6921 9.36133 67.373 9.36133C 67.0443 9.36133 66.7871 9.43294 66.6016 9.57617C 66.416 9.7194 66.3232 9.90658 66.3232 10.1377C 66.3232 10.3558 66.4095 10.5202 66.582 10.6309C 66.7546 10.7415 67.0654 10.8473 67.5146 10.9482C 67.9671 11.0492 68.3333 11.1696 68.6133 11.3096C 68.8932 11.4495 69.0999 11.6188 69.2334 11.8174C 69.3701 12.0127 69.4385 12.252 69.4385 12.5352C 69.4385 13.0072 69.2497 13.3864 68.8721 13.6729C 68.4945 13.9561 68.0046 14.0977 67.4023 14.0977C 66.9792 14.0977 66.6048 14.0228 66.2793 13.873C 65.9538 13.7233 65.6982 13.515 65.5127 13.248C 65.3304 12.9779 65.2393 12.6865 65.2393 12.374L 66.1426 12.374C 66.1589 12.6768 66.2793 12.9176 66.5039 13.0967C 66.7318 13.2725 67.0312 13.3604 67.4023 13.3604C 67.7441 13.3604 68.0176 13.292 68.2227 13.1553C 68.431 13.0153 68.5352 12.8298 68.5352 12.5986Z"/>
<path id="path5_fill" d="M 90 20C 90 31.0457 69.8528 40 45 40C 20.1472 40 0 31.0457 0 20C 0 8.9543 20.1472 0 45 0C 69.8528 0 90 8.9543 90 20Z"/>
<path id="path6_fill" d="M 25.3027 0.144531L 22.3242 0.144531L 21.6553 2L 20.6885 2L 23.4033 -5.10938L 24.2236 -5.10938L 26.9434 2L 25.9814 2L 25.3027 0.144531ZM 22.6074 -0.626953L 25.0244 -0.626953L 23.8135 -3.95215L 22.6074 -0.626953ZM 28.6133 -3.2832L 28.6426 -2.61914C 29.0462 -3.12695 29.5736 -3.38086 30.2246 -3.38086C 31.3411 -3.38086 31.9043 -2.75098 31.9141 -1.49121L 31.9141 2L 31.0107 2L 31.0107 -1.49609C 31.0075 -1.87695 30.9196 -2.15853 30.7471 -2.34082C 30.5778 -2.52311 30.3125 -2.61426 29.9512 -2.61426C 29.6582 -2.61426 29.401 -2.53613 29.1797 -2.37988C 28.9583 -2.22363 28.7858 -2.01855 28.6621 -1.76465L 28.6621 2L 27.7588 2L 27.7588 -3.2832L 28.6133 -3.2832ZM 34.1309 -3.2832L 34.1602 -2.61914C 34.5638 -3.12695 35.0911 -3.38086 35.7422 -3.38086C 36.8587 -3.38086 37.4219 -2.75098 37.4316 -1.49121L 37.4316 2L 36.5283 2L 36.5283 -1.49609C 36.5251 -1.87695 36.4372 -2.15853 36.2646 -2.34082C 36.0954 -2.52311 35.8301 -2.61426 35.4688 -2.61426C 35.1758 -2.61426 34.9186 -2.53613 34.6973 -2.37988C 34.4759 -2.22363 34.3034 -2.01855 34.1797 -1.76465L 34.1797 2L 33.2764 2L 33.2764 -3.2832L 34.1309 -3.2832ZM 38.5547 -0.69043C 38.5547 -1.20801 38.6556 -1.6735 38.8574 -2.08691C 39.0625 -2.50033 39.3457 -2.81934 39.707 -3.04395C 40.0716 -3.26855 40.4867 -3.38086 40.9521 -3.38086C 41.6715 -3.38086 42.2526 -3.13184 42.6953 -2.63379C 43.1413 -2.13574 43.3643 -1.47331 43.3643 -0.646484L 43.3643 -0.583008C 43.3643 -0.0686848 43.265 0.393555 43.0664 0.803711C 42.8711 1.21061 42.5895 1.52799 42.2217 1.75586C 41.8571 1.98372 41.4372 2.09766 40.9619 2.09766C 40.2458 2.09766 39.6647 1.84863 39.2188 1.35059C 38.776 0.852539 38.5547 0.193359 38.5547 -0.626953L 38.5547 -0.69043ZM 39.4629 -0.583008C 39.4629 0.00292969 39.598 0.473307 39.8682 0.828125C 40.1416 1.18294 40.5062 1.36035 40.9619 1.36035C 41.4209 1.36035 41.7855 1.18132 42.0557 0.823242C 42.3258 0.461914 42.4609 -0.0426433 42.4609 -0.69043C 42.4609 -1.26986 42.3226 -1.73861 42.0459 -2.09668C 41.7725 -2.45801 41.4079 -2.63867 40.9521 -2.63867C 40.5062 -2.63867 40.1465 -2.46126 39.873 -2.10645C 39.5996 -1.75163 39.4629 -1.24382 39.4629 -0.583008ZM 45.7227 -4.5625L 45.7227 -3.2832L 46.709 -3.2832L 46.709 -2.58496L 45.7227 -2.58496L 45.7227 0.691406C 45.7227 0.902995 45.7666 1.0625 45.8545 1.16992C 45.9424 1.27409 46.0921 1.32617 46.3037 1.32617C 46.4079 1.32617 46.5511 1.30664 46.7334 1.26758L 46.7334 2C 46.4958 2.0651 46.2646 2.09766 46.04 2.09766C 45.6364 2.09766 45.332 1.97559 45.127 1.73145C 44.9219 1.4873 44.8193 1.14062 44.8193 0.691406L 44.8193 -2.58496L 43.8574 -2.58496L 43.8574 -3.2832L 44.8193 -3.2832L 44.8193 -4.5625L 45.7227 -4.5625ZM 51.0303 2C 50.9782 1.89583 50.9359 1.71029 50.9033 1.44336C 50.4834 1.87956 49.9821 2.09766 49.3994 2.09766C 48.8786 2.09766 48.4505 1.95117 48.1152 1.6582C 47.7832 1.36198 47.6172 0.98763 47.6172 0.535156C 47.6172 -0.0149739 47.8255 -0.441406 48.2422 -0.744141C 48.6621 -1.05013 49.2513 -1.20312 50.0098 -1.20312L 50.8887 -1.20312L 50.8887 -1.61816C 50.8887 -1.93392 50.7943 -2.18457 50.6055 -2.37012C 50.4167 -2.55892 50.1383 -2.65332 49.7705 -2.65332C 49.4482 -2.65332 49.1781 -2.57194 48.96 -2.40918C 48.7419 -2.24642 48.6328 -2.04948 48.6328 -1.81836L 47.7246 -1.81836C 47.7246 -2.08203 47.8174 -2.33594 48.0029 -2.58008C 48.1917 -2.82747 48.4456 -3.02279 48.7646 -3.16602C 49.0869 -3.30924 49.4401 -3.38086 49.8242 -3.38086C 50.4329 -3.38086 50.9098 -3.22786 51.2549 -2.92188C 51.5999 -2.61914 51.779 -2.20085 51.792 -1.66699L 51.792 0.764648C 51.792 1.24967 51.8538 1.63542 51.9775 1.92188L 51.9775 2L 51.0303 2ZM 49.5312 1.31152C 49.8145 1.31152 50.083 1.23828 50.3369 1.0918C 50.5908 0.945312 50.7747 0.754883 50.8887 0.520508L 50.8887 -0.563477L 50.1807 -0.563477C 49.0739 -0.563477 48.5205 -0.239583 48.5205 0.408203C 48.5205 0.691406 48.6149 0.91276 48.8037 1.07227C 48.9925 1.23177 49.235 1.31152 49.5312 1.31152ZM 54.4336 -4.5625L 54.4336 -3.2832L 55.4199 -3.2832L 55.4199 -2.58496L 54.4336 -2.58496L 54.4336 0.691406C 54.4336 0.902995 54.4775 1.0625 54.5654 1.16992C 54.6533 1.27409 54.8031 1.32617 55.0146 1.32617C 55.1188 1.32617 55.262 1.30664 55.4443 1.26758L 55.4443 2C 55.2067 2.0651 54.9756 2.09766 54.751 2.09766C 54.3473 2.09766 54.043 1.97559 53.8379 1.73145C 53.6328 1.4873 53.5303 1.14062 53.5303 0.691406L 53.5303 -2.58496L 52.5684 -2.58496L 52.5684 -3.2832L 53.5303 -3.2832L 53.5303 -4.5625L 54.4336 -4.5625ZM 57.4609 2L 56.5576 2L 56.5576 -3.2832L 57.4609 -3.2832L 57.4609 2ZM 56.4844 -4.68457C 56.4844 -4.83105 56.5283 -4.95475 56.6162 -5.05566C 56.7074 -5.15658 56.8408 -5.20703 57.0166 -5.20703C 57.1924 -5.20703 57.3258 -5.15658 57.417 -5.05566C 57.5081 -4.95475 57.5537 -4.83105 57.5537 -4.68457C 57.5537 -4.53809 57.5081 -4.41602 57.417 -4.31836C 57.3258 -4.2207 57.1924 -4.17188 57.0166 -4.17188C 56.8408 -4.17188 56.7074 -4.2207 56.6162 -4.31836C 56.5283 -4.41602 56.4844 -4.53809 56.4844 -4.68457ZM 58.6719 -0.69043C 58.6719 -1.20801 58.7728 -1.6735 58.9746 -2.08691C 59.1797 -2.50033 59.4629 -2.81934 59.8242 -3.04395C 60.1888 -3.26855 60.6038 -3.38086 61.0693 -3.38086C 61.7887 -3.38086 62.3698 -3.13184 62.8125 -2.63379C 63.2585 -2.13574 63.4814 -1.47331 63.4814 -0.646484L 63.4814 -0.583008C 63.4814 -0.0686848 63.3822 0.393555 63.1836 0.803711C 62.9883 1.21061 62.7067 1.52799 62.3389 1.75586C 61.9743 1.98372 61.5544 2.09766 61.0791 2.09766C 60.363 2.09766 59.7819 1.84863 59.3359 1.35059C 58.8932 0.852539 58.6719 0.193359 58.6719 -0.626953L 58.6719 -0.69043ZM 59.5801 -0.583008C 59.5801 0.00292969 59.7152 0.473307 59.9854 0.828125C 60.2588 1.18294 60.6234 1.36035 61.0791 1.36035C 61.5381 1.36035 61.9027 1.18132 62.1729 0.823242C 62.443 0.461914 62.5781 -0.0426433 62.5781 -0.69043C 62.5781 -1.26986 62.4398 -1.73861 62.1631 -2.09668C 61.8896 -2.45801 61.5251 -2.63867 61.0693 -2.63867C 60.6234 -2.63867 60.2637 -2.46126 59.9902 -2.10645C 59.7168 -1.75163 59.5801 -1.24382 59.5801 -0.583008ZM 65.4688 -3.2832L 65.498 -2.61914C 65.9017 -3.12695 66.429 -3.38086 67.0801 -3.38086C 68.1966 -3.38086 68.7598 -2.75098 68.7695 -1.49121L 68.7695 2L 67.8662 2L 67.8662 -1.49609C 67.863 -1.87695 67.7751 -2.15853 67.6025 -2.34082C 67.4333 -2.52311 67.168 -2.61426 66.8066 -2.61426C 66.5137 -2.61426 66.2565 -2.53613 66.0352 -2.37988C 65.8138 -2.22363 65.6413 -2.01855 65.5176 -1.76465L 65.5176 2L 64.6143 2L 64.6143 -3.2832L 65.4688 -3.2832ZM 37.7881 13.0674C 37.5472 13.4124 37.2103 13.6712 36.7773 13.8438C 36.3477 14.013 35.8464 14.0977 35.2734 14.0977C 34.694 14.0977 34.1797 13.9626 33.7305 13.6924C 33.2812 13.4189 32.9329 13.0316 32.6855 12.5303C 32.4414 12.029 32.3161 11.4479 32.3096 10.7871L 32.3096 10.167C 32.3096 9.09603 32.5586 8.26595 33.0566 7.67676C 33.5579 7.08757 34.2611 6.79297 35.166 6.79297C 35.9082 6.79297 36.5055 6.9834 36.958 7.36426C 37.4105 7.74186 37.6872 8.27897 37.7881 8.97559L 36.8506 8.97559C 36.6748 8.03483 36.1149 7.56445 35.1709 7.56445C 34.5426 7.56445 34.0658 7.78581 33.7402 8.22852C 33.418 8.66797 33.2552 9.30599 33.252 10.1426L 33.252 10.7236C 33.252 11.5212 33.4342 12.1559 33.7988 12.6279C 34.1634 13.0967 34.6566 13.3311 35.2783 13.3311C 35.6299 13.3311 35.9375 13.292 36.2012 13.2139C 36.4648 13.1357 36.6829 13.0039 36.8555 12.8184L 36.8555 11.2217L 35.21 11.2217L 35.21 10.46L 37.7881 10.46L 37.7881 13.0674ZM 41.7676 9.52734C 41.6309 9.50456 41.4827 9.49316 41.3232 9.49316C 40.7308 9.49316 40.3288 9.74544 40.1172 10.25L 40.1172 14L 39.2139 14L 39.2139 8.7168L 40.0928 8.7168L 40.1074 9.32715C 40.4036 8.85514 40.8236 8.61914 41.3672 8.61914C 41.543 8.61914 41.6764 8.64193 41.7676 8.6875L 41.7676 9.52734ZM 45.6689 14C 45.6169 13.8958 45.5745 13.7103 45.542 13.4434C 45.1221 13.8796 44.6208 14.0977 44.0381 14.0977C 43.5173 14.0977 43.0892 13.9512 42.7539 13.6582C 42.4219 13.362 42.2559 12.9876 42.2559 12.5352C 42.2559 11.985 42.4642 11.5586 42.8809 11.2559C 43.3008 10.9499 43.89 10.7969 44.6484 10.7969L 45.5273 10.7969L 45.5273 10.3818C 45.5273 10.0661 45.4329 9.81543 45.2441 9.62988C 45.0553 9.44108 44.777 9.34668 44.4092 9.34668C 44.0869 9.34668 43.8167 9.42806 43.5986 9.59082C 43.3805 9.75358 43.2715 9.95052 43.2715 10.1816L 42.3633 10.1816C 42.3633 9.91797 42.4561 9.66406 42.6416 9.41992C 42.8304 9.17253 43.0843 8.97721 43.4033 8.83398C 43.7256 8.69076 44.0788 8.61914 44.4629 8.61914C 45.0716 8.61914 45.5485 8.77214 45.8936 9.07812C 46.2386 9.38086 46.4176 9.79915 46.4307 10.333L 46.4307 12.7646C 46.4307 13.2497 46.4925 13.6354 46.6162 13.9219L 46.6162 14L 45.6689 14ZM 44.1699 13.3115C 44.4531 13.3115 44.7217 13.2383 44.9756 13.0918C 45.2295 12.9453 45.4134 12.7549 45.5273 12.5205L 45.5273 11.4365L 44.8193 11.4365C 43.7126 11.4365 43.1592 11.7604 43.1592 12.4082C 43.1592 12.6914 43.2536 12.9128 43.4424 13.0723C 43.6312 13.2318 43.8737 13.3115 44.1699 13.3115ZM 52.3096 11.417C 52.3096 12.221 52.1257 12.8688 51.7578 13.3604C 51.39 13.8519 50.8919 14.0977 50.2637 14.0977C 49.6224 14.0977 49.1178 13.8942 48.75 13.4873L 48.75 16.0312L 47.8467 16.0312L 47.8467 8.7168L 48.6719 8.7168L 48.7158 9.30273C 49.0837 8.84701 49.5947 8.61914 50.249 8.61914C 50.8838 8.61914 51.3851 8.8584 51.7529 9.33691C 52.124 9.81543 52.3096 10.4811 52.3096 11.334L 52.3096 11.417ZM 51.4062 11.3145C 51.4062 10.7188 51.2793 10.2484 51.0254 9.90332C 50.7715 9.55827 50.4232 9.38574 49.9805 9.38574C 49.4336 9.38574 49.0234 9.62826 48.75 10.1133L 48.75 12.6377C 49.0202 13.1195 49.4336 13.3604 49.9902 13.3604C 50.4232 13.3604 50.7666 13.1895 51.0205 12.8477C 51.2777 12.5026 51.4062 11.9915 51.4062 11.3145ZM 54.3652 9.35645C 54.7656 8.86491 55.2865 8.61914 55.9277 8.61914C 57.0443 8.61914 57.6074 9.24902 57.6172 10.5088L 57.6172 14L 56.7139 14L 56.7139 10.5039C 56.7106 10.123 56.6227 9.84147 56.4502 9.65918C 56.2809 9.47689 56.0156 9.38574 55.6543 9.38574C 55.3613 9.38574 55.1042 9.46387 54.8828 9.62012C 54.6615 9.77637 54.4889 9.98145 54.3652 10.2354L 54.3652 14L 53.4619 14L 53.4619 6.5L 54.3652 6.5L 54.3652 9.35645Z"/>
<path id="path7_fill" d="M 27.4902 -1.28613L 24.4092 -1.28613L 24.4092 1.2334L 27.9883 1.2334L 27.9883 2L 23.4717 2L 23.4717 -5.10938L 27.9395 -5.10938L 27.9395 -4.33789L 24.4092 -4.33789L 24.4092 -2.05273L 27.4902 -2.05273L 27.4902 -1.28613ZM 30.7861 -1.35449L 31.958 -3.2832L 33.0127 -3.2832L 31.2842 -0.670898L 33.0664 2L 32.0215 2L 30.8008 0.0224609L 29.5801 2L 28.5303 2L 30.3125 -0.670898L 28.584 -3.2832L 29.6289 -3.2832L 30.7861 -1.35449ZM 35.2002 -4.5625L 35.2002 -3.2832L 36.1865 -3.2832L 36.1865 -2.58496L 35.2002 -2.58496L 35.2002 0.691406C 35.2002 0.902995 35.2441 1.0625 35.332 1.16992C 35.4199 1.27409 35.5697 1.32617 35.7812 1.32617C 35.8854 1.32617 36.0286 1.30664 36.2109 1.26758L 36.2109 2C 35.9733 2.0651 35.7422 2.09766 35.5176 2.09766C 35.1139 2.09766 34.8096 1.97559 34.6045 1.73145C 34.3994 1.4873 34.2969 1.14062 34.2969 0.691406L 34.2969 -2.58496L 33.335 -2.58496L 33.335 -3.2832L 34.2969 -3.2832L 34.2969 -4.5625L 35.2002 -4.5625ZM 39.7998 -2.47266C 39.6631 -2.49544 39.515 -2.50684 39.3555 -2.50684C 38.763 -2.50684 38.361 -2.25456 38.1494 -1.75L 38.1494 2L 37.2461 2L 37.2461 -3.2832L 38.125 -3.2832L 38.1396 -2.67285C 38.4359 -3.14486 38.8558 -3.38086 39.3994 -3.38086C 39.5752 -3.38086 39.7087 -3.35807 39.7998 -3.3125L 39.7998 -2.47266ZM 43.7012 2C 43.6491 1.89583 43.6068 1.71029 43.5742 1.44336C 43.1543 1.87956 42.653 2.09766 42.0703 2.09766C 41.5495 2.09766 41.1214 1.95117 40.7861 1.6582C 40.4541 1.36198 40.2881 0.98763 40.2881 0.535156C 40.2881 -0.0149739 40.4964 -0.441406 40.9131 -0.744141C 41.333 -1.05013 41.9222 -1.20312 42.6807 -1.20312L 43.5596 -1.20312L 43.5596 -1.61816C 43.5596 -1.93392 43.4652 -2.18457 43.2764 -2.37012C 43.0876 -2.55892 42.8092 -2.65332 42.4414 -2.65332C 42.1191 -2.65332 41.849 -2.57194 41.6309 -2.40918C 41.4128 -2.24642 41.3037 -2.04948 41.3037 -1.81836L 40.3955 -1.81836C 40.3955 -2.08203 40.4883 -2.33594 40.6738 -2.58008C 40.8626 -2.82747 41.1165 -3.02279 41.4355 -3.16602C 41.7578 -3.30924 42.111 -3.38086 42.4951 -3.38086C 43.1038 -3.38086 43.5807 -3.22786 43.9258 -2.92188C 44.2708 -2.61914 44.4499 -2.20085 44.4629 -1.66699L 44.4629 0.764648C 44.4629 1.24967 44.5247 1.63542 44.6484 1.92188L 44.6484 2L 43.7012 2ZM 42.2021 1.31152C 42.4854 1.31152 42.7539 1.23828 43.0078 1.0918C 43.2617 0.945312 43.4456 0.754883 43.5596 0.520508L 43.5596 -0.563477L 42.8516 -0.563477C 41.7448 -0.563477 41.1914 -0.239583 41.1914 0.408203C 41.1914 0.691406 41.2858 0.91276 41.4746 1.07227C 41.6634 1.23177 41.9059 1.31152 42.2021 1.31152ZM 47.998 1.36035C 48.3203 1.36035 48.6019 1.2627 48.8428 1.06738C 49.0837 0.87207 49.2171 0.62793 49.2432 0.334961L 50.0977 0.334961C 50.0814 0.637695 49.9772 0.925781 49.7852 1.19922C 49.5931 1.47266 49.3359 1.69076 49.0137 1.85352C 48.6947 2.01628 48.3561 2.09766 47.998 2.09766C 47.2786 2.09766 46.7057 1.8584 46.2793 1.37988C 45.8561 0.898112 45.6445 0.24056 45.6445 -0.592773L 45.6445 -0.744141C 45.6445 -1.25846 45.7389 -1.71582 45.9277 -2.11621C 46.1165 -2.5166 46.3867 -2.82747 46.7383 -3.04883C 47.0931 -3.27018 47.5114 -3.38086 47.9932 -3.38086C 48.5856 -3.38086 49.0771 -3.20345 49.4678 -2.84863C 49.8617 -2.49382 50.0716 -2.0332 50.0977 -1.4668L 49.2432 -1.4668C 49.2171 -1.80859 49.0869 -2.08854 48.8525 -2.30664C 48.6214 -2.52799 48.335 -2.63867 47.9932 -2.63867C 47.5342 -2.63867 47.1777 -2.47266 46.9238 -2.14062C 46.6732 -1.81185 46.5479 -1.33496 46.5479 -0.709961L 46.5479 -0.539062C 46.5479 0.0696614 46.6732 0.538411 46.9238 0.867188C 47.1745 1.19596 47.5326 1.36035 47.998 1.36035ZM 52.3389 -4.5625L 52.3389 -3.2832L 53.3252 -3.2832L 53.3252 -2.58496L 52.3389 -2.58496L 52.3389 0.691406C 52.3389 0.902995 52.3828 1.0625 52.4707 1.16992C 52.5586 1.27409 52.7083 1.32617 52.9199 1.32617C 53.0241 1.32617 53.1673 1.30664 53.3496 1.26758L 53.3496 2C 53.112 2.0651 52.8809 2.09766 52.6562 2.09766C 52.2526 2.09766 51.9482 1.97559 51.7432 1.73145C 51.5381 1.4873 51.4355 1.14062 51.4355 0.691406L 51.4355 -2.58496L 50.4736 -2.58496L 50.4736 -3.2832L 51.4355 -3.2832L 51.4355 -4.5625L 52.3389 -4.5625ZM 55.3662 2L 54.4629 2L 54.4629 -3.2832L 55.3662 -3.2832L 55.3662 2ZM 54.3896 -4.68457C 54.3896 -4.83105 54.4336 -4.95475 54.5215 -5.05566C 54.6126 -5.15658 54.7461 -5.20703 54.9219 -5.20703C 55.0977 -5.20703 55.2311 -5.15658 55.3223 -5.05566C 55.4134 -4.95475 55.459 -4.83105 55.459 -4.68457C 55.459 -4.53809 55.4134 -4.41602 55.3223 -4.31836C 55.2311 -4.2207 55.0977 -4.17188 54.9219 -4.17188C 54.7461 -4.17188 54.6126 -4.2207 54.5215 -4.31836C 54.4336 -4.41602 54.3896 -4.53809 54.3896 -4.68457ZM 56.5771 -0.69043C 56.5771 -1.20801 56.6781 -1.6735 56.8799 -2.08691C 57.085 -2.50033 57.3682 -2.81934 57.7295 -3.04395C 58.0941 -3.26855 58.5091 -3.38086 58.9746 -3.38086C 59.694 -3.38086 60.2751 -3.13184 60.7178 -2.63379C 61.1637 -2.13574 61.3867 -1.47331 61.3867 -0.646484L 61.3867 -0.583008C 61.3867 -0.0686848 61.2874 0.393555 61.0889 0.803711C 60.8936 1.21061 60.612 1.52799 60.2441 1.75586C 59.8796 1.98372 59.4596 2.09766 58.9844 2.09766C 58.2682 2.09766 57.6872 1.84863 57.2412 1.35059C 56.7985 0.852539 56.5771 0.193359 56.5771 -0.626953L 56.5771 -0.69043ZM 57.4854 -0.583008C 57.4854 0.00292969 57.6204 0.473307 57.8906 0.828125C 58.1641 1.18294 58.5286 1.36035 58.9844 1.36035C 59.4434 1.36035 59.8079 1.18132 60.0781 0.823242C 60.3483 0.461914 60.4834 -0.0426433 60.4834 -0.69043C 60.4834 -1.26986 60.3451 -1.73861 60.0684 -2.09668C 59.7949 -2.45801 59.4303 -2.63867 58.9746 -2.63867C 58.5286 -2.63867 58.1689 -2.46126 57.8955 -2.10645C 57.6221 -1.75163 57.4854 -1.24382 57.4854 -0.583008ZM 63.374 -3.2832L 63.4033 -2.61914C 63.807 -3.12695 64.3343 -3.38086 64.9854 -3.38086C 66.1019 -3.38086 66.665 -2.75098 66.6748 -1.49121L 66.6748 2L 65.7715 2L 65.7715 -1.49609C 65.7682 -1.87695 65.6803 -2.15853 65.5078 -2.34082C 65.3385 -2.52311 65.0732 -2.61426 64.7119 -2.61426C 64.4189 -2.61426 64.1618 -2.53613 63.9404 -2.37988C 63.7191 -2.22363 63.5465 -2.01855 63.4229 -1.76465L 63.4229 2L 62.5195 2L 62.5195 -3.2832L 63.374 -3.2832ZM 37.7881 13.0674C 37.5472 13.4124 37.2103 13.6712 36.7773 13.8438C 36.3477 14.013 35.8464 14.0977 35.2734 14.0977C 34.694 14.0977 34.1797 13.9626 33.7305 13.6924C 33.2812 13.4189 32.9329 13.0316 32.6855 12.5303C 32.4414 12.029 32.3161 11.4479 32.3096 10.7871L 32.3096 10.167C 32.3096 9.09603 32.5586 8.26595 33.0566 7.67676C 33.5579 7.08757 34.2611 6.79297 35.166 6.79297C 35.9082 6.79297 36.5055 6.9834 36.958 7.36426C 37.4105 7.74186 37.6872 8.27897 37.7881 8.97559L 36.8506 8.97559C 36.6748 8.03483 36.1149 7.56445 35.1709 7.56445C 34.5426 7.56445 34.0658 7.78581 33.7402 8.22852C 33.418 8.66797 33.2552 9.30599 33.252 10.1426L 33.252 10.7236C 33.252 11.5212 33.4342 12.1559 33.7988 12.6279C 34.1634 13.0967 34.6566 13.3311 35.2783 13.3311C 35.6299 13.3311 35.9375 13.292 36.2012 13.2139C 36.4648 13.1357 36.6829 13.0039 36.8555 12.8184L 36.8555 11.2217L 35.21 11.2217L 35.21 10.46L 37.7881 10.46L 37.7881 13.0674ZM 41.7676 9.52734C 41.6309 9.50456 41.4827 9.49316 41.3232 9.49316C 40.7308 9.49316 40.3288 9.74544 40.1172 10.25L 40.1172 14L 39.2139 14L 39.2139 8.7168L 40.0928 8.7168L 40.1074 9.32715C 40.4036 8.85514 40.8236 8.61914 41.3672 8.61914C 41.543 8.61914 41.6764 8.64193 41.7676 8.6875L 41.7676 9.52734ZM 45.6689 14C 45.6169 13.8958 45.5745 13.7103 45.542 13.4434C 45.1221 13.8796 44.6208 14.0977 44.0381 14.0977C 43.5173 14.0977 43.0892 13.9512 42.7539 13.6582C 42.4219 13.362 42.2559 12.9876 42.2559 12.5352C 42.2559 11.985 42.4642 11.5586 42.8809 11.2559C 43.3008 10.9499 43.89 10.7969 44.6484 10.7969L 45.5273 10.7969L 45.5273 10.3818C 45.5273 10.0661 45.4329 9.81543 45.2441 9.62988C 45.0553 9.44108 44.777 9.34668 44.4092 9.34668C 44.0869 9.34668 43.8167 9.42806 43.5986 9.59082C 43.3805 9.75358 43.2715 9.95052 43.2715 10.1816L 42.3633 10.1816C 42.3633 9.91797 42.4561 9.66406 42.6416 9.41992C 42.8304 9.17253 43.0843 8.97721 43.4033 8.83398C 43.7256 8.69076 44.0788 8.61914 44.4629 8.61914C 45.0716 8.61914 45.5485 8.77214 45.8936 9.07812C 46.2386 9.38086 46.4176 9.79915 46.4307 10.333L 46.4307 12.7646C 46.4307 13.2497 46.4925 13.6354 46.6162 13.9219L 46.6162 14L 45.6689 14ZM 44.1699 13.3115C 44.4531 13.3115 44.7217 13.2383 44.9756 13.0918C 45.2295 12.9453 45.4134 12.7549 45.5273 12.5205L 45.5273 11.4365L 44.8193 11.4365C 43.7126 11.4365 43.1592 11.7604 43.1592 12.4082C 43.1592 12.6914 43.2536 12.9128 43.4424 13.0723C 43.6312 13.2318 43.8737 13.3115 44.1699 13.3115ZM 52.3096 11.417C 52.3096 12.221 52.1257 12.8688 51.7578 13.3604C 51.39 13.8519 50.8919 14.0977 50.2637 14.0977C 49.6224 14.0977 49.1178 13.8942 48.75 13.4873L 48.75 16.0312L 47.8467 16.0312L 47.8467 8.7168L 48.6719 8.7168L 48.7158 9.30273C 49.0837 8.84701 49.5947 8.61914 50.249 8.61914C 50.8838 8.61914 51.3851 8.8584 51.7529 9.33691C 52.124 9.81543 52.3096 10.4811 52.3096 11.334L 52.3096 11.417ZM 51.4062 11.3145C 51.4062 10.7188 51.2793 10.2484 51.0254 9.90332C 50.7715 9.55827 50.4232 9.38574 49.9805 9.38574C 49.4336 9.38574 49.0234 9.62826 48.75 10.1133L 48.75 12.6377C 49.0202 13.1195 49.4336 13.3604 49.9902 13.3604C 50.4232 13.3604 50.7666 13.1895 51.0205 12.8477C 51.2777 12.5026 51.4062 11.9915 51.4062 11.3145ZM 54.3652 9.35645C 54.7656 8.86491 55.2865 8.61914 55.9277 8.61914C 57.0443 8.61914 57.6074 9.24902 57.6172 10.5088L 57.6172 14L 56.7139 14L 56.7139 10.5039C 56.7106 10.123 56.6227 9.84147 56.4502 9.65918C 56.2809 9.47689 56.0156 9.38574 55.6543 9.38574C 55.3613 9.38574 55.1042 9.46387 54.8828 9.62012C 54.6615 9.77637 54.4889 9.98145 54.3652 10.2354L 54.3652 14L 53.4619 14L 53.4619 6.5L 54.3652 6.5L 54.3652 9.35645Z"/>
<path id="path8_stroke" d="M 30 0L 20 -5.7735L 20 5.7735L 30 0ZM 0 1L 21 1L 21 -1L 0 -1L 0 1Z"/>
<path id="path9_stroke" d="M 2 -0.5C 1.67746 -0.497356 1.32275 -0.423779 1.0429 -0.310102L 1.42595 0.613624C 1.61773 0.531724 1.78017 0.497356 2 0.5L 2 -0.5ZM -0.310102 1.0429C -0.423779 1.32275 -0.497356 1.67746 -0.5 2L 0.5 2C 0.497356 1.78017 0.531724 1.61773 0.613624 1.42595L -0.310102 1.0429ZM -0.5 2L -0.5 3L 0.5 3L 0.5 2L -0.5 2ZM -0.5 5L -0.5 7L 0.5 7L 0.5 5L -0.5 5ZM -0.5 9L -0.5 11L 0.5 11L 0.5 9L -0.5 9ZM -0.5 13L -0.5 15L 0.5 15L 0.5 13L -0.5 13ZM -0.5 17L -0.5 19L 0.5 19L 0.5 17L -0.5 17ZM -0.5 21L -0.5 23L 0.5 23L 0.5 21L -0.5 21ZM -0.5 25L -0.5 27L 0.5 27L 0.5 25L -0.5 25ZM -0.5 29L -0.5 31L 0.5 31L 0.5 29L -0.5 29ZM -0.5 33L -0.5 35L 0.5 35L 0.5 33L -0.5 33ZM -0.5 37L -0.5 39L 0.5 39L 0.5 37L -0.5 37ZM -0.5 41L -0.5 43L 0.5 43L 0.5 41L -0.5 41ZM -0.5 45L -0.5 47L 0.5 47L 0.5 45L -0.5 45ZM -0.5 49L -0.5 51L 0.5 51L 0.5 49L -0.5 49ZM -0.5 53L -0.5 55L 0.5 55L 0.5 53L -0.5 53ZM -0.5 57L -0.5 59L 0.5 59L 0.5 57L -0.5 57ZM -0.5 61L -0.5 63L 0.5 63L 0.5 61L -0.5 61ZM -0.5 65L -0.5 67L 0.5 67L 0.5 65L -0.5 65ZM -0.5 69L -0.5 71L 0.5 71L 0.5 69L -0.5 69ZM -0.5 73L -0.5 75L 0.5 75L 0.5 73L -0.5 73ZM -0.5 77L -0.5 79L 0.5 79L 0.5 77L -0.5 77ZM -0.5 81L -0.5 83L 0.5 83L 0.5 81L -0.5 81ZM -0.5 85L -0.5 87L 0.5 87L 0.5 85L -0.5 85ZM -0.5 89L -0.5 91L 0.5 91L 0.5 89L -0.5 89ZM -0.5 93L -0.5 95L 0.5 95L 0.5 93L -0.5 93ZM -0.5 97L -0.5 99L 0.5 99L 0.5 97L -0.5 97ZM -0.5 101L -0.5 103L 0.5 103L 0.5 101L -0.5 101ZM -0.5 105L -0.5 107L 0.5 107L 0.5 105L -0.5 105ZM -0.5 109L -0.5 111L 0.5 111L 0.5 109L -0.5 109ZM -0.5 113L -0.5 115L 0.5 115L 0.5 113L -0.5 113ZM -0.5 117L -0.5 119L 0.5 119L 0.5 117L -0.5 117ZM -0.5 121L -0.5 123L 0.5 123L 0.5 121L -0.5 121ZM -0.5 125L -0.5 127L 0.5 127L 0.5 125L -0.5 125ZM -0.5 129L -0.5 131L 0.5 131L 0.5 129L -0.5 129ZM -0.5 133L -0.5 135L 0.5 135L 0.5 133L -0.5 133ZM -0.5 137L -0.5 138L 0.5 138L 0.5 137L -0.5 137ZM -0.5 138C -0.497356 138.323 -0.423779 138.677 -0.310102 138.957L 0.613624 138.574C 0.531724 138.382 0.497356 138.22 0.5 138L -0.5 138ZM 1.0429 140.31C 1.32275 140.424 1.67746 140.497 2 140.5L 2 139.5C 1.78017 139.503 1.61773 139.468 1.42595 139.386L 1.0429 140.31ZM 2 140.5L 3 140.5L 3 139.5L 2 139.5L 2 140.5ZM 5 140.5L 7 140.5L 7 139.5L 5 139.5L 5 140.5ZM 9 140.5L 11 140.5L 11 139.5L 9 139.5L 9 140.5ZM 13 140.5L 15 140.5L 15 139.5L 13 139.5L 13 140.5ZM 17 140.5L 19 140.5L 19 139.5L 17 139.5L 17 140.5ZM 21 140.5L 23 140.5L 23 139.5L 21 139.5L 21 140.5ZM 25 140.5L 27 140.5L 27 139.5L 25 139.5L 25 140.5ZM 29 140.5L 31 140.5L 31 139.5L 29 139.5L 29 140.5ZM 33 140.5L 35 140.5L 35 139.5L 33 139.5L 33 140.5ZM 37 140.5L 39 140.5L 39 139.5L 37 139.5L 37 140.5ZM 41 140.5L 43 140.5L 43 139.5L 41 139.5L 41 140.5ZM 45 140.5L 47 140.5L 47 139.5L 45 139.5L 45 140.5ZM 49 140.5L 51 140.5L 51 139.5L 49 139.5L 49 140.5ZM 53 140.5L 55 140.5L 55 139.5L 53 139.5L 53 140.5ZM 57 140.5L 59 140.5L 59 139.5L 57 139.5L 57 140.5ZM 61 140.5L 63 140.5L 63 139.5L 61 139.5L 61 140.5ZM 65 140.5L 67 140.5L 67 139.5L 65 139.5L 65 140.5ZM 69 140.5L 71 140.5L 71 139.5L 69 139.5L 69 140.5ZM 73 140.5L 75 140.5L 75 139.5L 73 139.5L 73 140.5ZM 77 140.5L 79 140.5L 79 139.5L 77 139.5L 77 140.5ZM 81 140.5L 83 140.5L 83 139.5L 81 139.5L 81 140.5ZM 85 140.5L 87 140.5L 87 139.5L 85 139.5L 85 140.5ZM 89 140.5L 91 140.5L 91 139.5L 89 139.5L 89 140.5ZM 93 140.5L 95 140.5L 95 139.5L 93 139.5L 93 140.5ZM 97 140.5L 99 140.5L 99 139.5L 97 139.5L 97 140.5ZM 101 140.5L 103 140.5L 103 139.5L 101 139.5L 101 140.5ZM 105 140.5L 107 140.5L 107 139.5L 105 139.5L 105 140.5ZM 109 140.5L 111 140.5L 111 139.5L 109 139.5L 109 140.5ZM 113 140.5L 115 140.5L 115 139.5L 113 139.5L 113 140.5ZM 117 140.5L 119 140.5L 119 139.5L 117 139.5L 117 140.5ZM 121 140.5L 123 140.5L 123 139.5L 121 139.5L 121 140.5ZM 125 140.5L 127 140.5L 127 139.5L 125 139.5L 125 140.5ZM 129 140.5L 131 140.5L 131 139.5L 129 139.5L 129 140.5ZM 133 140.5L 135 140.5L 135 139.5L 133 139.5L 133 140.5ZM 137 140.5L 139 140.5L 139 139.5L 137 139.5L 137 140.5ZM 141 140.5L 143 140.5L 143 139.5L 141 139.5L 141 140.5ZM 145 140.5L 147 140.5L 147 139.5L 145 139.5L 145 140.5ZM 149 140.5L 151 140.5L 151 139.5L 149 139.5L 149 140.5ZM 153 140.5L 155 140.5L 155 139.5L 153 139.5L 153 140.5ZM 157 140.5L 159 140.5L 159 139.5L 157 139.5L 157 140.5ZM 161 140.5L 163 140.5L 163 139.5L 161 139.5L 161 140.5ZM 165 140.5L 167 140.5L 167 139.5L 165 139.5L 165 140.5ZM 169 140.5L 171 140.5L 171 139.5L 169 139.5L 169 140.5ZM 173 140.5L 175 140.5L 175 139.5L 173 139.5L 173 140.5ZM 177 140.5L 179 140.5L 179 139.5L 177 139.5L 177 140.5ZM 181 140.5L 183 140.5L 183 139.5L 181 139.5L 181 140.5ZM 185 140.5L 187 140.5L 187 139.5L 185 139.5L 185 140.5ZM 189 140.5L 191 140.5L 191 139.5L 189 139.5L 189 140.5ZM 193 140.5L 195 140.5L 195 139.5L 193 139.5L 193 140.5ZM 197 140.5L 199 140.5L 199 139.5L 197 139.5L 197 140.5ZM 201 140.5L 203 140.5L 203 139.5L 201 139.5L 201 140.5ZM 205 140.5L 207 140.5L 207 139.5L 205 139.5L 205 140.5ZM 209 140.5L 211 140.5L 211 139.5L 209 139.5L 209 140.5ZM 213 140.5L 215 140.5L 215 139.5L 213 139.5L 213 140.5ZM 217 140.5L 219 140.5L 219 139.5L 217 139.5L 217 140.5ZM 221 140.5L 223 140.5L 223 139.5L 221 139.5L 221 140.5ZM 225 140.5L 227 140.5L 227 139.5L 225 139.5L 225 140.5ZM 229 140.5L 231 140.5L 231 139.5L 229 139.5L 229 140.5ZM 233 140.5L 235 140.5L 235 139.5L 233 139.5L 233 140.5ZM 237 140.5L 239 140.5L 239 139.5L 237 139.5L 237 140.5ZM 241 140.5L 243 140.5L 243 139.5L 241 139.5L 241 140.5ZM 245 140.5L 247 140.5L 247 139.5L 245 139.5L 245 140.5ZM 249 140.5L 251 140.5L 251 139.5L 249 139.5L 249 140.5ZM 253 140.5L 255 140.5L 255 139.5L 253 139.5L 253 140.5ZM 257 140.5L 259 140.5L 259 139.5L 257 139.5L 257 140.5ZM 261 140.5L 263 140.5L 263 139.5L 261 139.5L 261 140.5ZM 265 140.5L 267 140.5L 267 139.5L 265 139.5L 265 140.5ZM 269 140.5L 271 140.5L 271 139.5L 269 139.5L 269 140.5ZM 273 140.5L 275 140.5L 275 139.5L 273 139.5L 273 140.5ZM 277 140.5L 279 140.5L 279 139.5L 277 139.5L 277 140.5ZM 281 140.5L 283 140.5L 283 139.5L 281 139.5L 281 140.5ZM 285 140.5L 287 140.5L 287 139.5L 285 139.5L 285 140.5ZM 289 140.5L 291 140.5L 291 139.5L 289 139.5L 289 140.5ZM 293 140.5L 295 140.5L 295 139.5L 293 139.5L 293 140.5ZM 297 140.5L 299 140.5L 299 139.5L 297 139.5L 297 140.5ZM 301 140.5L 303 140.5L 303 139.5L 301 139.5L 301 140.5ZM 305 140.5L 307 140.5L 307 139.5L 305 139.5L 305 140.5ZM 309 140.5L 311 140.5L 311 139.5L 309 139.5L 309 140.5ZM 313 140.5L 315 140.5L 315 139.5L 313 139.5L 313 140.5ZM 317 140.5L 319 140.5L 319 139.5L 317 139.5L 317 140.5ZM 321 140.5L 323 140.5L 323 139.5L 321 139.5L 321 140.5ZM 325 140.5L 327 140.5L 327 139.5L 325 139.5L 325 140.5ZM 329 140.5L 331 140.5L 331 139.5L 329 139.5L 329 140.5ZM 333 140.5L 335 140.5L 335 139.5L 333 139.5L 333 140.5ZM 337 140.5L 339 140.5L 339 139.5L 337 139.5L 337 140.5ZM 341 140.5L 343 140.5L 343 139.5L 341 139.5L 341 140.5ZM 345 140.5L 347 140.5L 347 139.5L 345 139.5L 345 140.5ZM 349 140.5L 351 140.5L 351 139.5L 349 139.5L 349 140.5ZM 353 140.5L 355 140.5L 355 139.5L 353 139.5L 353 140.5ZM 357 140.5L 358 140.5L 358 139.5L 357 139.5L 357 140.5ZM 358 140.5C 358.323 140.497 358.677 140.424 358.957 140.31L 358.574 139.386C 358.382 139.468 358.22 139.503 358 139.5L 358 140.5ZM 360.31 138.957C 360.424 138.677 360.497 138.323 360.5 138L 359.5 138C 359.503 138.22 359.468 138.382 359.386 138.574L 360.31 138.957ZM 360.5 138L 360.5 137L 359.5 137L 359.5 138L 360.5 138ZM 360.5 135L 360.5 133L 359.5 133L 359.5 135L 360.5 135ZM 360.5 131L 360.5 129L 359.5 129L 359.5 131L 360.5 131ZM 360.5 127L 360.5 125L 359.5 125L 359.5 127L 360.5 127ZM 360.5 123L 360.5 121L 359.5 121L 359.5 123L 360.5 123ZM 360.5 119L 360.5 117L 359.5 117L 359.5 119L 360.5 119ZM 360.5 115L 360.5 113L 359.5 113L 359.5 115L 360.5 115ZM 360.5 111L 360.5 109L 359.5 109L 359.5 111L 360.5 111ZM 360.5 107L 360.5 105L 359.5 105L 359.5 107L 360.5 107ZM 360.5 103L 360.5 101L 359.5 101L 359.5 103L 360.5 103ZM 360.5 99L 360.5 97L 359.5 97L 359.5 99L 360.5 99ZM 360.5 95L 360.5 93L 359.5 93L 359.5 95L 360.5 95ZM 360.5 91L 360.5 89L 359.5 89L 359.5 91L 360.5 91ZM 360.5 87L 360.5 85L 359.5 85L 359.5 87L 360.5 87ZM 360.5 83L 360.5 81L 359.5 81L 359.5 83L 360.5 83ZM 360.5 79L 360.5 77L 359.5 77L 359.5 79L 360.5 79ZM 360.5 75L 360.5 73L 359.5 73L 359.5 75L 360.5 75ZM 360.5 71L 360.5 69L 359.5 69L 359.5 71L 360.5 71ZM 360.5 67L 360.5 65L 359.5 65L 359.5 67L 360.5 67ZM 360.5 63L 360.5 61L 359.5 61L 359.5 63L 360.5 63ZM 360.5 59L 360.5 57L 359.5 57L 359.5 59L 360.5 59ZM 360.5 55L 360.5 53L 359.5 53L 359.5 55L 360.5 55ZM 360.5 51L 360.5 49L 359.5 49L 359.5 51L 360.5 51ZM 360.5 47L 360.5 45L 359.5 45L 359.5 47L 360.5 47ZM 360.5 43L 360.5 41L 359.5 41L 359.5 43L 360.5 43ZM 360.5 39L 360.5 37L 359.5 37L 359.5 39L 360.5 39ZM 360.5 35L 360.5 33L 359.5 33L 359.5 35L 360.5 35ZM 360.5 31L 360.5 29L 359.5 29L 359.5 31L 360.5 31ZM 360.5 27L 360.5 25L 359.5 25L 359.5 27L 360.5 27ZM 360.5 23L 360.5 21L 359.5 21L 359.5 23L 360.5 23ZM 360.5 19L 360.5 17L 359.5 17L 359.5 19L 360.5 19ZM 360.5 15L 360.5 13L 359.5 13L 359.5 15L 360.5 15ZM 360.5 11L 360.5 9L 359.5 9L 359.5 11L 360.5 11ZM 360.5 7L 360.5 5L 359.5 5L 359.5 7L 360.5 7ZM 360.5 3L 360.5 2L 359.5 2L 359.5 3L 360.5 3ZM 360.5 2C 360.497 1.67746 360.424 1.32275 360.31 1.0429L 359.386 1.42595C 359.468 1.61773 359.503 1.78017 359.5 2L 360.5 2ZM 358.957 -0.310102C 358.677 -0.423779 358.323 -0.497356 358 -0.5L 358 0.5C 358.22 0.497356 358.382 0.531724 358.574 0.613624L 358.957 -0.310102ZM 358 -0.5L 357 -0.5L 357 0.5L 358 0.5L 358 -0.5ZM 355 -0.5L 353 -0.5L 353 0.5L 355 0.5L 355 -0.5ZM 351 -0.5L 349 -0.5L 349 0.5L 351 0.5L 351 -0.5ZM 347 -0.5L 345 -0.5L 345 0.5L 347 0.5L 347 -0.5ZM 343 -0.5L 341 -0.5L 341 0.5L 343 0.5L 343 -0.5ZM 339 -0.5L 337 -0.5L 337 0.5L 339 0.5L 339 -0.5ZM 335 -0.5L 333 -0.5L 333 0.5L 335 0.5L 335 -0.5ZM 331 -0.5L 329 -0.5L 329 0.5L 331 0.5L 331 -0.5ZM 327 -0.5L 325 -0.5L 325 0.5L 327 0.5L 327 -0.5ZM 323 -0.5L 321 -0.5L 321 0.5L 323 0.5L 323 -0.5ZM 319 -0.5L 317 -0.5L 317 0.5L 319 0.5L 319 -0.5ZM 315 -0.5L 313 -0.5L 313 0.5L 315 0.5L 315 -0.5ZM 311 -0.5L 309 -0.5L 309 0.5L 311 0.5L 311 -0.5ZM 307 -0.5L 305 -0.5L 305 0.5L 307 0.5L 307 -0.5ZM 303 -0.5L 301 -0.5L 301 0.5L 303 0.5L 303 -0.5ZM 299 -0.5L 297 -0.5L 297 0.5L 299 0.5L 299 -0.5ZM 295 -0.5L 293 -0.5L 293 0.5L 295 0.5L 295 -0.5ZM 291 -0.5L 289 -0.5L 289 0.5L 291 0.5L 291 -0.5ZM 287 -0.5L 285 -0.5L 285 0.5L 287 0.5L 287 -0.5ZM 283 -0.5L 281 -0.5L 281 0.5L 283 0.5L 283 -0.5ZM 279 -0.5L 277 -0.5L 277 0.5L 279 0.5L 279 -0.5ZM 275 -0.5L 273 -0.5L 273 0.5L 275 0.5L 275 -0.5ZM 271 -0.5L 269 -0.5L 269 0.5L 271 0.5L 271 -0.5ZM 267 -0.5L 265 -0.5L 265 0.5L 267 0.5L 267 -0.5ZM 263 -0.5L 261 -0.5L 261 0.5L 263 0.5L 263 -0.5ZM 259 -0.5L 257 -0.5L 257 0.5L 259 0.5L 259 -0.5ZM 255 -0.5L 253 -0.5L 253 0.5L 255 0.5L 255 -0.5ZM 251 -0.5L 249 -0.5L 249 0.5L 251 0.5L 251 -0.5ZM 247 -0.5L 245 -0.5L 245 0.5L 247 0.5L 247 -0.5ZM 243 -0.5L 241 -0.5L 241 0.5L 243 0.5L 243 -0.5ZM 239 -0.5L 237 -0.5L 237 0.5L 239 0.5L 239 -0.5ZM 235 -0.5L 233 -0.5L 233 0.5L 235 0.5L 235 -0.5ZM 231 -0.5L 229 -0.5L 229 0.5L 231 0.5L 231 -0.5ZM 227 -0.5L 225 -0.5L 225 0.5L 227 0.5L 227 -0.5ZM 223 -0.5L 221 -0.5L 221 0.5L 223 0.5L 223 -0.5ZM 219 -0.5L 217 -0.5L 217 0.5L 219 0.5L 219 -0.5ZM 215 -0.5L 213 -0.5L 213 0.5L 215 0.5L 215 -0.5ZM 211 -0.5L 209 -0.5L 209 0.5L 211 0.5L 211 -0.5ZM 207 -0.5L 205 -0.5L 205 0.5L 207 0.5L 207 -0.5ZM 203 -0.5L 201 -0.5L 201 0.5L 203 0.5L 203 -0.5ZM 199 -0.5L 197 -0.5L 197 0.5L 199 0.5L 199 -0.5ZM 195 -0.5L 193 -0.5L 193 0.5L 195 0.5L 195 -0.5ZM 191 -0.5L 189 -0.5L 189 0.5L 191 0.5L 191 -0.5ZM 187 -0.5L 185 -0.5L 185 0.5L 187 0.5L 187 -0.5ZM 183 -0.5L 181 -0.5L 181 0.5L 183 0.5L 183 -0.5ZM 179 -0.5L 177 -0.5L 177 0.5L 179 0.5L 179 -0.5ZM 175 -0.5L 173 -0.5L 173 0.5L 175 0.5L 175 -0.5ZM 171 -0.5L 169 -0.5L 169 0.5L 171 0.5L 171 -0.5ZM 167 -0.5L 165 -0.5L 165 0.5L 167 0.5L 167 -0.5ZM 163 -0.5L 161 -0.5L 161 0.5L 163 0.5L 163 -0.5ZM 159 -0.5L 157 -0.5L 157 0.5L 159 0.5L 159 -0.5ZM 155 -0.5L 153 -0.5L 153 0.5L 155 0.5L 155 -0.5ZM 151 -0.5L 149 -0.5L 149 0.5L 151 0.5L 151 -0.5ZM 147 -0.5L 145 -0.5L 145 0.5L 147 0.5L 147 -0.5ZM 143 -0.5L 141 -0.5L 141 0.5L 143 0.5L 143 -0.5ZM 139 -0.5L 137 -0.5L 137 0.5L 139 0.5L 139 -0.5ZM 135 -0.5L 133 -0.5L 133 0.5L 135 0.5L 135 -0.5ZM 131 -0.5L 129 -0.5L 129 0.5L 131 0.5L 131 -0.5ZM 127 -0.5L 125 -0.5L 125 0.5L 127 0.5L 127 -0.5ZM 123 -0.5L 121 -0.5L 121 0.5L 123 0.5L 123 -0.5ZM 119 -0.5L 117 -0.5L 117 0.5L 119 0.5L 119 -0.5ZM 115 -0.5L 113 -0.5L 113 0.5L 115 0.5L 115 -0.5ZM 111 -0.5L 109 -0.5L 109 0.5L 111 0.5L 111 -0.5ZM 107 -0.5L 105 -0.5L 105 0.5L 107 0.5L 107 -0.5ZM 103 -0.5L 101 -0.5L 101 0.5L 103 0.5L 103 -0.5ZM 99 -0.5L 97 -0.5L 97 0.5L 99 0.5L 99 -0.5ZM 95 -0.5L 93 -0.5L 93 0.5L 95 0.5L 95 -0.5ZM 91 -0.5L 89 -0.5L 89 0.5L 91 0.5L 91 -0.5ZM 87 -0.5L 85 -0.5L 85 0.5L 87 0.5L 87 -0.5ZM 83 -0.5L 81 -0.5L 81 0.5L 83 0.5L 83 -0.5ZM 79 -0.5L 77 -0.5L 77 0.5L 79 0.5L 79 -0.5ZM 75 -0.5L 73 -0.5L 73 0.5L 75 0.5L 75 -0.5ZM 71 -0.5L 69 -0.5L 69 0.5L 71 0.5L 71 -0.5ZM 67 -0.5L 65 -0.5L 65 0.5L 67 0.5L 67 -0.5ZM 63 -0.5L 61 -0.5L 61 0.5L 63 0.5L 63 -0.5ZM 59 -0.5L 57 -0.5L 57 0.5L 59 0.5L 59 -0.5ZM 55 -0.5L 53 -0.5L 53 0.5L 55 0.5L 55 -0.5ZM 51 -0.5L 49 -0.5L 49 0.5L 51 0.5L 51 -0.5ZM 47 -0.5L 45 -0.5L 45 0.5L 47 0.5L 47 -0.5ZM 43 -0.5L 41 -0.5L 41 0.5L 43 0.5L 43 -0.5ZM 39 -0.5L 37 -0.5L 37 0.5L 39 0.5L 39 -0.5ZM 35 -0.5L 33 -0.5L 33 0.5L 35 0.5L 35 -0.5ZM 31 -0.5L 29 -0.5L 29 0.5L 31 0.5L 31 -0.5ZM 27 -0.5L 25 -0.5L 25 0.5L 27 0.5L 27 -0.5ZM 23 -0.5L 21 -0.5L 21 0.5L 23 0.5L 23 -0.5ZM 19 -0.5L 17 -0.5L 17 0.5L 19 0.5L 19 -0.5ZM 15 -0.5L 13 -0.5L 13 0.5L 15 0.5L 15 -0.5ZM 11 -0.5L 9 -0.5L 9 0.5L 11 0.5L 11 -0.5ZM 7 -0.5L 5 -0.5L 5 0.5L 7 0.5L 7 -0.5ZM 3 -0.5L 2 -0.5L 2 0.5L 3 0.5L 3 -0.5Z"/>
<path id="path10_fill" d="M 13.0049 16.7441C 12.917 17.4961 12.6387 18.0771 12.1699 18.4873C 11.7044 18.8942 11.0843 19.0977 10.3096 19.0977C 9.46973 19.0977 8.7959 18.7965 8.28809 18.1943C 7.78353 17.5921 7.53125 16.7865 7.53125 15.7773L 7.53125 15.0938C 7.53125 14.4329 7.64844 13.8519 7.88281 13.3506C 8.12044 12.8493 8.45573 12.4652 8.88867 12.1982C 9.32161 11.9281 9.82292 11.793 10.3926 11.793C 11.1478 11.793 11.7533 12.0046 12.209 12.4277C 12.6647 12.8477 12.93 13.4303 13.0049 14.1758L 12.0625 14.1758C 11.9811 13.6094 11.8037 13.1992 11.5303 12.9453C 11.2601 12.6914 10.8809 12.5645 10.3926 12.5645C 9.79362 12.5645 9.32324 12.7858 8.98145 13.2285C 8.6429 13.6712 8.47363 14.3011 8.47363 15.1182L 8.47363 15.8066C 8.47363 16.5781 8.63477 17.1917 8.95703 17.6475C 9.2793 18.1032 9.73014 18.3311 10.3096 18.3311C 10.8304 18.3311 11.2292 18.2139 11.5059 17.9795C 11.7858 17.7419 11.9714 17.3301 12.0625 16.7441L 13.0049 16.7441ZM 13.9082 16.3096C 13.9082 15.792 14.0091 15.3265 14.2109 14.9131C 14.416 14.4997 14.6992 14.1807 15.0605 13.9561C 15.4251 13.7314 15.8402 13.6191 16.3057 13.6191C 17.0251 13.6191 17.6061 13.8682 18.0488 14.3662C 18.4948 14.8643 18.7178 15.5267 18.7178 16.3535L 18.7178 16.417C 18.7178 16.9313 18.6185 17.3936 18.4199 17.8037C 18.2246 18.2106 17.943 18.528 17.5752 18.7559C 17.2106 18.9837 16.7907 19.0977 16.3154 19.0977C 15.5993 19.0977 15.0182 18.8486 14.5723 18.3506C 14.1296 17.8525 13.9082 17.1934 13.9082 16.373L 13.9082 16.3096ZM 14.8164 16.417C 14.8164 17.0029 14.9515 17.4733 15.2217 17.8281C 15.4951 18.1829 15.8597 18.3604 16.3154 18.3604C 16.7744 18.3604 17.139 18.1813 17.4092 17.8232C 17.6794 17.4619 17.8145 16.9574 17.8145 16.3096C 17.8145 15.7301 17.6761 15.2614 17.3994 14.9033C 17.126 14.542 16.7614 14.3613 16.3057 14.3613C 15.8597 14.3613 15.5 14.5387 15.2266 14.8936C 14.9531 15.2484 14.8164 15.7562 14.8164 16.417ZM 20.7051 13.7168L 20.7344 14.3809C 21.138 13.873 21.6654 13.6191 22.3164 13.6191C 23.4329 13.6191 23.9961 14.249 24.0059 15.5088L 24.0059 19L 23.1025 19L 23.1025 15.5039C 23.0993 15.123 23.0114 14.8415 22.8389 14.6592C 22.6696 14.4769 22.4043 14.3857 22.043 14.3857C 21.75 14.3857 21.4928 14.4639 21.2715 14.6201C 21.0501 14.7764 20.8776 14.9814 20.7539 15.2354L 20.7539 19L 19.8506 19L 19.8506 13.7168L 20.7051 13.7168ZM 27.4873 18.3604C 27.8096 18.3604 28.0911 18.2627 28.332 18.0674C 28.5729 17.8721 28.7064 17.6279 28.7324 17.335L 29.5869 17.335C 29.5706 17.6377 29.4665 17.9258 29.2744 18.1992C 29.0824 18.4727 28.8252 18.6908 28.5029 18.8535C 28.1839 19.0163 27.8454 19.0977 27.4873 19.0977C 26.7679 19.0977 26.195 18.8584 25.7686 18.3799C 25.3454 17.8981 25.1338 17.2406 25.1338 16.4072L 25.1338 16.2559C 25.1338 15.7415 25.2282 15.2842 25.417 14.8838C 25.6058 14.4834 25.876 14.1725 26.2275 13.9512C 26.5824 13.7298 27.0007 13.6191 27.4824 13.6191C 28.0749 13.6191 28.5664 13.7965 28.957 14.1514C 29.3509 14.5062 29.5609 14.9668 29.5869 15.5332L 28.7324 15.5332C 28.7064 15.1914 28.5762 14.9115 28.3418 14.6934C 28.1107 14.472 27.8242 14.3613 27.4824 14.3613C 27.0234 14.3613 26.667 14.5273 26.4131 14.8594C 26.1624 15.1882 26.0371 15.665 26.0371 16.29L 26.0371 16.4609C 26.0371 17.0697 26.1624 17.5384 26.4131 17.8672C 26.6637 18.196 27.0218 18.3604 27.4873 18.3604ZM 32.7949 19.0977C 32.0788 19.0977 31.4961 18.8633 31.0469 18.3945C 30.5977 17.9225 30.373 17.2926 30.373 16.5049L 30.373 16.3389C 30.373 15.8148 30.4723 15.3477 30.6709 14.9375C 30.8727 14.5241 31.1527 14.2018 31.5107 13.9707C 31.8721 13.7363 32.2627 13.6191 32.6826 13.6191C 33.3695 13.6191 33.9033 13.8454 34.2842 14.2979C 34.665 14.7503 34.8555 15.3981 34.8555 16.2412L 34.8555 16.6172L 31.2764 16.6172C 31.2894 17.138 31.4408 17.5596 31.7305 17.8818C 32.0234 18.2008 32.3945 18.3604 32.8438 18.3604C 33.1628 18.3604 33.4329 18.2952 33.6543 18.165C 33.8757 18.0348 34.0693 17.8623 34.2354 17.6475L 34.7871 18.0771C 34.3444 18.7575 33.6803 19.0977 32.7949 19.0977ZM 32.6826 14.3613C 32.318 14.3613 32.012 14.4948 31.7646 14.7617C 31.5173 15.0254 31.3643 15.3965 31.3057 15.875L 33.9521 15.875L 33.9521 15.8066C 33.9261 15.3477 33.8024 14.9928 33.5811 14.7422C 33.3597 14.4883 33.0602 14.3613 32.6826 14.3613ZM 40.3682 16.417C 40.3682 17.221 40.1842 17.8688 39.8164 18.3604C 39.4486 18.8519 38.9505 19.0977 38.3223 19.0977C 37.681 19.0977 37.1764 18.8942 36.8086 18.4873L 36.8086 21.0312L 35.9053 21.0312L 35.9053 13.7168L 36.7305 13.7168L 36.7744 14.3027C 37.1423 13.847 37.6533 13.6191 38.3076 13.6191C 38.9424 13.6191 39.4437 13.8584 39.8115 14.3369C 40.1826 14.8154 40.3682 15.4811 40.3682 16.334L 40.3682 16.417ZM 39.4648 16.3145C 39.4648 15.7188 39.3379 15.2484 39.084 14.9033C 38.8301 14.5583 38.4818 14.3857 38.0391 14.3857C 37.4922 14.3857 37.082 14.6283 36.8086 15.1133L 36.8086 17.6377C 37.0788 18.1195 37.4922 18.3604 38.0488 18.3604C 38.4818 18.3604 38.8252 18.1895 39.0791 17.8477C 39.3363 17.5026 39.4648 16.9915 39.4648 16.3145ZM 42.7461 12.4375L 42.7461 13.7168L 43.7324 13.7168L 43.7324 14.415L 42.7461 14.415L 42.7461 17.6914C 42.7461 17.903 42.79 18.0625 42.8779 18.1699C 42.9658 18.2741 43.1156 18.3262 43.3271 18.3262C 43.4313 18.3262 43.5745 18.3066 43.7568 18.2676L 43.7568 19C 43.5192 19.0651 43.2881 19.0977 43.0635 19.0977C 42.6598 19.0977 42.3555 18.9756 42.1504 18.7314C 41.9453 18.4873 41.8428 18.1406 41.8428 17.6914L 41.8428 14.415L 40.8809 14.415L 40.8809 13.7168L 41.8428 13.7168L 41.8428 12.4375L 42.7461 12.4375ZM 52.6631 18.0674C 52.4222 18.4124 52.0853 18.6712 51.6523 18.8438C 51.2227 19.013 50.7214 19.0977 50.1484 19.0977C 49.569 19.0977 49.0547 18.9626 48.6055 18.6924C 48.1562 18.4189 47.8079 18.0316 47.5605 17.5303C 47.3164 17.029 47.1911 16.4479 47.1846 15.7871L 47.1846 15.167C 47.1846 14.096 47.4336 13.266 47.9316 12.6768C 48.4329 12.0876 49.1361 11.793 50.041 11.793C 50.7832 11.793 51.3805 11.9834 51.833 12.3643C 52.2855 12.7419 52.5622 13.279 52.6631 13.9756L 51.7256 13.9756C 51.5498 13.0348 50.9899 12.5645 50.0459 12.5645C 49.4176 12.5645 48.9408 12.7858 48.6152 13.2285C 48.293 13.668 48.1302 14.306 48.127 15.1426L 48.127 15.7236C 48.127 16.5212 48.3092 17.1559 48.6738 17.6279C 49.0384 18.0967 49.5316 18.3311 50.1533 18.3311C 50.5049 18.3311 50.8125 18.292 51.0762 18.2139C 51.3398 18.1357 51.5579 18.0039 51.7305 17.8184L 51.7305 16.2217L 50.085 16.2217L 50.085 15.46L 52.6631 15.46L 52.6631 18.0674ZM 56.6426 14.5273C 56.5059 14.5046 56.3577 14.4932 56.1982 14.4932C 55.6058 14.4932 55.2038 14.7454 54.9922 15.25L 54.9922 19L 54.0889 19L 54.0889 13.7168L 54.9678 13.7168L 54.9824 14.3271C 55.2786 13.8551 55.6986 13.6191 56.2422 13.6191C 56.418 13.6191 56.5514 13.6419 56.6426 13.6875L 56.6426 14.5273ZM 60.5439 19C 60.4919 18.8958 60.4495 18.7103 60.417 18.4434C 59.9971 18.8796 59.4958 19.0977 58.9131 19.0977C 58.3923 19.0977 57.9642 18.9512 57.6289 18.6582C 57.2969 18.362 57.1309 17.9876 57.1309 17.5352C 57.1309 16.985 57.3392 16.5586 57.7559 16.2559C 58.1758 15.9499 58.765 15.7969 59.5234 15.7969L 60.4023 15.7969L 60.4023 15.3818C 60.4023 15.0661 60.3079 14.8154 60.1191 14.6299C 59.9303 14.4411 59.652 14.3467 59.2842 14.3467C 58.9619 14.3467 58.6917 14.4281 58.4736 14.5908C 58.2555 14.7536 58.1465 14.9505 58.1465 15.1816L 57.2383 15.1816C 57.2383 14.918 57.3311 14.6641 57.5166 14.4199C 57.7054 14.1725 57.9593 13.9772 58.2783 13.834C 58.6006 13.6908 58.9538 13.6191 59.3379 13.6191C 59.9466 13.6191 60.4235 13.7721 60.7686 14.0781C 61.1136 14.3809 61.2926 14.7992 61.3057 15.333L 61.3057 17.7646C 61.3057 18.2497 61.3675 18.6354 61.4912 18.9219L 61.4912 19L 60.5439 19ZM 59.0449 18.3115C 59.3281 18.3115 59.5967 18.2383 59.8506 18.0918C 60.1045 17.9453 60.2884 17.7549 60.4023 17.5205L 60.4023 16.4365L 59.6943 16.4365C 58.5876 16.4365 58.0342 16.7604 58.0342 17.4082C 58.0342 17.6914 58.1286 17.9128 58.3174 18.0723C 58.5062 18.2318 58.7487 18.3115 59.0449 18.3115ZM 67.1846 16.417C 67.1846 17.221 67.0007 17.8688 66.6328 18.3604C 66.265 18.8519 65.7669 19.0977 65.1387 19.0977C 64.4974 19.0977 63.9928 18.8942 63.625 18.4873L 63.625 21.0312L 62.7217 21.0312L 62.7217 13.7168L 63.5469 13.7168L 63.5908 14.3027C 63.9587 13.847 64.4697 13.6191 65.124 13.6191C 65.7588 13.6191 66.2601 13.8584 66.6279 14.3369C 66.999 14.8154 67.1846 15.4811 67.1846 16.334L 67.1846 16.417ZM 66.2812 16.3145C 66.2812 15.7188 66.1543 15.2484 65.9004 14.9033C 65.6465 14.5583 65.2982 14.3857 64.8555 14.3857C 64.3086 14.3857 63.8984 14.6283 63.625 15.1133L 63.625 17.6377C 63.8952 18.1195 64.3086 18.3604 64.8652 18.3604C 65.2982 18.3604 65.6416 18.1895 65.8955 17.8477C 66.1527 17.5026 66.2812 16.9915 66.2812 16.3145ZM 69.2402 14.3564C 69.6406 13.8649 70.1615 13.6191 70.8027 13.6191C 71.9193 13.6191 72.4824 14.249 72.4922 15.5088L 72.4922 19L 71.5889 19L 71.5889 15.5039C 71.5856 15.123 71.4977 14.8415 71.3252 14.6592C 71.1559 14.4769 70.8906 14.3857 70.5293 14.3857C 70.2363 14.3857 69.9792 14.4639 69.7578 14.6201C 69.5365 14.7764 69.3639 14.9814 69.2402 15.2354L 69.2402 19L 68.3369 19L 68.3369 11.5L 69.2402 11.5L 69.2402 14.3564ZM 81.6963 16.7441C 81.6084 17.4961 81.3301 18.0771 80.8613 18.4873C 80.3958 18.8942 79.7757 19.0977 79.001 19.0977C 78.1611 19.0977 77.4873 18.7965 76.9795 18.1943C 76.4749 17.5921 76.2227 16.7865 76.2227 15.7773L 76.2227 15.0938C 76.2227 14.4329 76.3398 13.8519 76.5742 13.3506C 76.8118 12.8493 77.1471 12.4652 77.5801 12.1982C 78.013 11.9281 78.5143 11.793 79.084 11.793C 79.8392 11.793 80.4447 12.0046 80.9004 12.4277C 81.3561 12.8477 81.6214 13.4303 81.6963 14.1758L 80.7539 14.1758C 80.6725 13.6094 80.4951 13.1992 80.2217 12.9453C 79.9515 12.6914 79.5723 12.5645 79.084 12.5645C 78.485 12.5645 78.0146 12.7858 77.6729 13.2285C 77.3343 13.6712 77.165 14.3011 77.165 15.1182L 77.165 15.8066C 77.165 16.5781 77.3262 17.1917 77.6484 17.6475C 77.9707 18.1032 78.4215 18.3311 79.001 18.3311C 79.5218 18.3311 79.9206 18.2139 80.1973 17.9795C 80.4772 17.7419 80.6628 17.3301 80.7539 16.7441L 81.6963 16.7441ZM 82.5996 16.3096C 82.5996 15.792 82.7005 15.3265 82.9023 14.9131C 83.1074 14.4997 83.3906 14.1807 83.752 13.9561C 84.1165 13.7314 84.5316 13.6191 84.9971 13.6191C 85.7165 13.6191 86.2975 13.8682 86.7402 14.3662C 87.1862 14.8643 87.4092 15.5267 87.4092 16.3535L 87.4092 16.417C 87.4092 16.9313 87.3099 17.3936 87.1113 17.8037C 86.916 18.2106 86.6344 18.528 86.2666 18.7559C 85.902 18.9837 85.4821 19.0977 85.0068 19.0977C 84.2907 19.0977 83.7096 18.8486 83.2637 18.3506C 82.821 17.8525 82.5996 17.1934 82.5996 16.373L 82.5996 16.3096ZM 83.5078 16.417C 83.5078 17.0029 83.6429 17.4733 83.9131 17.8281C 84.1865 18.1829 84.5511 18.3604 85.0068 18.3604C 85.4658 18.3604 85.8304 18.1813 86.1006 17.8232C 86.3708 17.4619 86.5059 16.9574 86.5059 16.3096C 86.5059 15.7301 86.3675 15.2614 86.0908 14.9033C 85.8174 14.542 85.4528 14.3613 84.9971 14.3613C 84.5511 14.3613 84.1914 14.5387 83.918 14.8936C 83.6445 15.2484 83.5078 15.7562 83.5078 16.417ZM 89.3965 13.7168L 89.4258 14.3809C 89.8294 13.873 90.3568 13.6191 91.0078 13.6191C 92.1243 13.6191 92.6875 14.249 92.6973 15.5088L 92.6973 19L 91.7939 19L 91.7939 15.5039C 91.7907 15.123 91.7028 14.8415 91.5303 14.6592C 91.361 14.4769 91.0957 14.3857 90.7344 14.3857C 90.4414 14.3857 90.1842 14.4639 89.9629 14.6201C 89.7415 14.7764 89.569 14.9814 89.4453 15.2354L 89.4453 19L 88.542 19L 88.542 13.7168L 89.3965 13.7168ZM 95.8027 17.7744L 97.1113 13.7168L 98.0342 13.7168L 96.1396 19L 95.4512 19L 93.5371 13.7168L 94.46 13.7168L 95.8027 17.7744ZM 101.027 19.0977C 100.311 19.0977 99.7285 18.8633 99.2793 18.3945C 98.8301 17.9225 98.6055 17.2926 98.6055 16.5049L 98.6055 16.3389C 98.6055 15.8148 98.7048 15.3477 98.9033 14.9375C 99.1051 14.5241 99.3851 14.2018 99.7432 13.9707C 100.104 13.7363 100.495 13.6191 100.915 13.6191C 101.602 13.6191 102.136 13.8454 102.517 14.2979C 102.897 14.7503 103.088 15.3981 103.088 16.2412L 103.088 16.6172L 99.5088 16.6172C 99.5218 17.138 99.6732 17.5596 99.9629 17.8818C 100.256 18.2008 100.627 18.3604 101.076 18.3604C 101.395 18.3604 101.665 18.2952 101.887 18.165C 102.108 18.0348 102.302 17.8623 102.468 17.6475L 103.02 18.0771C 102.577 18.7575 101.913 19.0977 101.027 19.0977ZM 100.915 14.3613C 100.55 14.3613 100.244 14.4948 99.9971 14.7617C 99.7497 15.0254 99.5967 15.3965 99.5381 15.875L 102.185 15.875L 102.185 15.8066C 102.159 15.3477 102.035 14.9928 101.813 14.7422C 101.592 14.4883 101.293 14.3613 100.915 14.3613ZM 106.691 14.5273C 106.555 14.5046 106.407 14.4932 106.247 14.4932C 105.655 14.4932 105.253 14.7454 105.041 15.25L 105.041 19L 104.138 19L 104.138 13.7168L 105.017 13.7168L 105.031 14.3271C 105.327 13.8551 105.747 13.6191 106.291 13.6191C 106.467 13.6191 106.6 13.6419 106.691 13.6875L 106.691 14.5273ZM 108.996 12.4375L 108.996 13.7168L 109.982 13.7168L 109.982 14.415L 108.996 14.415L 108.996 17.6914C 108.996 17.903 109.04 18.0625 109.128 18.1699C 109.216 18.2741 109.366 18.3262 109.577 18.3262C 109.681 18.3262 109.825 18.3066 110.007 18.2676L 110.007 19C 109.769 19.0651 109.538 19.0977 109.313 19.0977C 108.91 19.0977 108.605 18.9756 108.4 18.7314C 108.195 18.4873 108.093 18.1406 108.093 17.6914L 108.093 14.415L 107.131 14.415L 107.131 13.7168L 108.093 13.7168L 108.093 12.4375L 108.996 12.4375ZM 113.234 19.0977C 112.518 19.0977 111.936 18.8633 111.486 18.3945C 111.037 17.9225 110.812 17.2926 110.812 16.5049L 110.812 16.3389C 110.812 15.8148 110.912 15.3477 111.11 14.9375C 111.312 14.5241 111.592 14.2018 111.95 13.9707C 112.312 13.7363 112.702 13.6191 113.122 13.6191C 113.809 13.6191 114.343 13.8454 114.724 14.2979C 115.104 14.7503 115.295 15.3981 115.295 16.2412L 115.295 16.6172L 111.716 16.6172C 111.729 17.138 111.88 17.5596 112.17 17.8818C 112.463 18.2008 112.834 18.3604 113.283 18.3604C 113.602 18.3604 113.872 18.2952 114.094 18.165C 114.315 18.0348 114.509 17.8623 114.675 17.6475L 115.227 18.0771C 114.784 18.7575 114.12 19.0977 113.234 19.0977ZM 113.122 14.3613C 112.757 14.3613 112.451 14.4948 112.204 14.7617C 111.957 15.0254 111.804 15.3965 111.745 15.875L 114.392 15.875L 114.392 15.8066C 114.366 15.3477 114.242 14.9928 114.021 14.7422C 113.799 14.4883 113.5 14.3613 113.122 14.3613ZM 118.898 14.5273C 118.762 14.5046 118.614 14.4932 118.454 14.4932C 117.862 14.4932 117.46 14.7454 117.248 15.25L 117.248 19L 116.345 19L 116.345 13.7168L 117.224 13.7168L 117.238 14.3271C 117.535 13.8551 117.954 13.6191 118.498 13.6191C 118.674 13.6191 118.807 13.6419 118.898 13.6875L 118.898 14.5273Z"/>
</defs>
</svg>
