<svg width="230" height="100" viewBox="0 0 230 100" version="1.1" xmlns="http://www.w3.org/2000/svg" xmlns:xlink="http://www.w3.org/1999/xlink">
<title>conceptNode</title>
<desc>Created using Figma</desc>
<g id="Canvas" transform="translate(-1738 -39)">
<clipPath id="clip-0" clip-rule="evenodd">
<path d="M 1448 0L 2263 0L 2263 838L 1448 838L 1448 0Z" fill="#FFFFFF"/>
</clipPath>
<g id="conceptGraphExplanation" clip-path="url(#clip-0)">
<g id="concept">
<g id="a">
<use xlink:href="#path0_fill" transform="translate(1764.73 46)" fill="#B33535"/>
</g>
<g id="Rectangle 2">
<use xlink:href="#path1_stroke" transform="translate(1742 46)" fill="#B33535"/>
</g>
</g>
<g id="concept">
<g id="b">
<use xlink:href="#path2_fill" transform="translate(1900.73 46)" fill="#B33535"/>
</g>
<g id="Rectangle 2">
<use xlink:href="#path1_stroke" transform="translate(1878 46)" fill="#B33535"/>
</g>
</g>
</g>
</g>
<defs>
<path id="path0_fill" d="M 28.5917 67C 28.2167 66.25 27.912 64.9141 27.6776 62.9922C 24.6542 66.1328 21.0448 67.7031 16.8495 67.7031C 13.0995 67.7031 10.0174 66.6484 7.60338 64.5391C 5.21276 62.4062 4.01744 59.7109 4.01744 56.4531C 4.01744 52.4922 5.51744 49.4219 8.51744 47.2422C 11.5409 45.0391 15.7831 43.9375 21.244 43.9375L 27.5721 43.9375L 27.5721 40.9492C 27.5721 38.6758 26.8924 36.8711 25.5331 35.5352C 24.1737 34.1758 22.1698 33.4961 19.5213 33.4961C 17.201 33.4961 15.2557 34.082 13.6854 35.2539C 12.1151 36.4258 11.3299 37.8438 11.3299 39.5078L 4.79088 39.5078C 4.79088 37.6094 5.45885 35.7812 6.79479 34.0234C 8.15416 32.2422 9.98229 30.8359 12.2792 29.8047C 14.5995 28.7734 17.1424 28.2578 19.9081 28.2578C 24.2909 28.2578 27.7245 29.3594 30.2088 31.5625C 32.6932 33.7422 33.9823 36.7539 34.076 40.5977L 34.076 58.1055C 34.076 61.5977 34.5213 64.375 35.412 66.4375L 35.412 67L 28.5917 67ZM 17.7987 62.043C 19.8378 62.043 21.7713 61.5156 23.5995 60.4609C 25.4276 59.4062 26.7518 58.0352 27.5721 56.3477L 27.5721 48.543L 22.4745 48.543C 14.5057 48.543 10.5213 50.875 10.5213 55.5391C 10.5213 57.5781 11.201 59.1719 12.5604 60.3203C 13.9198 61.4688 15.6659 62.043 17.7987 62.043Z"/>
<path id="path1_stroke" d="M 0 0L 0 -1L -1 -1L -1 0L 0 0ZM 85 0L 86 0L 86 -1L 85 -1L 85 0ZM 85 86L 85 87L 86 87L 86 86L 85 86ZM 0 86L -1 86L -1 87L 0 87L 0 86ZM 0 1L 85 1L 85 -1L 0 -1L 0 1ZM 84 0L 84 86L 86 86L 86 0L 84 0ZM 85 85L 0 85L 0 87L 85 87L 85 85ZM 1 86L 1 0L -1 0L -1 86L 1 86Z"/>
<path id="path2_fill" d="M 36.6776 48.4023C 36.6776 54.2148 35.3417 58.8906 32.6698 62.4297C 29.9979 65.9453 26.412 67.7031 21.912 67.7031C 17.1073 67.7031 13.3924 66.0039 10.7674 62.6055L 10.451 67L 4.47447 67L 4.47447 13L 10.9784 13L 10.9784 33.1445C 13.6034 29.8867 17.2245 28.2578 21.8417 28.2578C 26.4588 28.2578 30.0799 30.0039 32.7049 33.4961C 35.3534 36.9883 36.6776 41.7695 36.6776 47.8398L 36.6776 48.4023ZM 30.1737 47.6641C 30.1737 43.2344 29.3182 39.8125 27.6073 37.3984C 25.8963 34.9844 23.4354 33.7773 20.2245 33.7773C 15.9354 33.7773 12.8534 35.7695 10.9784 39.7539L 10.9784 56.207C 12.9706 60.1914 16.076 62.1836 20.2948 62.1836C 23.412 62.1836 25.8378 60.9766 27.5721 58.5625C 29.3065 56.1484 30.1737 52.5156 30.1737 47.6641Z"/>
</defs>
</svg>
