<svg width="463" height="350" viewBox="0 0 463 350" version="1.1" xmlns="http://www.w3.org/2000/svg" xmlns:xlink="http://www.w3.org/1999/xlink">
<title>contextTreeExample1</title>
<desc>Created using Figma</desc>
<g id="Canvas" transform="translate(-2711 -527)">
<clipPath id="clip-0" clip-rule="evenodd">
<path d="M 2711 527L 3174 527L 3174 877L 2711 877L 2711 527Z" fill="#FFFFFF"/>
</clipPath>
<g id="contextTreeExample1" clip-path="url(#clip-0)">
<g id="concept">
<g id="Rectangle 2">
<use xlink:href="#path0_stroke" transform="translate(2845 530)" fill="#B33535"/>
</g>
</g>
<g id="concept">
<g id="Rectangle 2">
<use xlink:href="#path1_stroke" transform="translate(2857 581)" fill="#B33535"/>
</g>
</g>
<g id="concept">
<g id="Rectangle 2">
<use xlink:href="#path1_stroke" transform="translate(2857 731)" fill="#B33535"/>
</g>
</g>
<g id="concept">
<g id="a">
<use xlink:href="#path2_fill" transform="translate(2754.73 674)"/>
</g>
<g id="Rectangle 2">
<use xlink:href="#path3_stroke" transform="translate(2732 674)"/>
</g>
</g>
<g id="relation">
<g id="R">
<use xlink:href="#path4_fill" transform="translate(2917.23 764)"/>
</g>
<g id="Ellipse 3">
<use xlink:href="#path5_stroke" transform="translate(2898 764)"/>
</g>
</g>
<g id="relation">
<g id="P">
<use xlink:href="#path6_fill" transform="translate(2917.23 594)"/>
</g>
<g id="Ellipse 3">
<use xlink:href="#path5_stroke" transform="translate(2898 594)"/>
</g>
</g>
<g id="concept">
<g id="b">
<use xlink:href="#path7_fill" transform="translate(3087.27 684)"/>
</g>
<g id="Rectangle 2">
<use xlink:href="#path8_stroke" transform="translate(3064 684)"/>
</g>
</g>
<g id="Polygon">
<use xlink:href="#path9_fill" transform="matrix(-1 -8.74228e-08 -8.74228e-08 1 2784 761)"/>
</g>
<g id="Line 2">
<use xlink:href="#path10_stroke" transform="matrix(-1 1.22465e-16 -1.22465e-16 -1 2881 674)"/>
</g>
<g id="Line 2">
<use xlink:href="#path11_stroke" transform="matrix(1 1.22465e-16 1.22465e-16 -1 2984 674)"/>
</g>
<g id="Line 2">
<use xlink:href="#path12_stroke" transform="matrix(-1 -1.22465e-16 -1.22465e-16 1 2898 769)"/>
</g>
<g id="Line 2">
<use xlink:href="#path13_stroke" transform="matrix(1 -1.22465e-16 1.22465e-16 1 2989 770)"/>
</g>
<g id="Polygon">
<use xlink:href="#path9_fill" transform="matrix(2.63678e-16 1 -1 2.63678e-16 2897 626)"/>
</g>
<g id="Polygon">
<use xlink:href="#path9_fill" transform="matrix(1.19249e-08 -1 1 1.19249e-08 2985 817)"/>
</g>
<g id="Polygon">
<use xlink:href="#path9_fill" transform="matrix(-1 -8.74228e-08 8.74228e-08 -1 3118 683)"/>
</g>
<g id="c1">
<use xlink:href="#path14_fill" transform="translate(2898 525)" fill="#B33535"/>
</g>
<g id="c2">
<use xlink:href="#path15_fill" transform="translate(2845 656)" fill="#B33535"/>
</g>
<g id="c3">
<use xlink:href="#path16_fill" transform="translate(2845 724)" fill="#B33535"/>
</g>
<g id="T">
<use xlink:href="#path17_fill" transform="translate(2726 539)" fill="#B33535"/>
</g>
</g>
</g>
<defs>
<path id="path0_stroke" d="M 15 2.5L 177 2.5L 177 -2.5L 15 -2.5L 15 2.5ZM 189.5 15L 189.5 329L 194.5 329L 194.5 15L 189.5 15ZM 177 341.5L 15 341.5L 15 346.5L 177 346.5L 177 341.5ZM 2.5 329L 2.5 15L -2.5 15L -2.5 329L 2.5 329ZM 15 -2.5C 5.33502 -2.5 -2.5 5.33502 -2.5 15L 2.5 15C 2.5 8.09644 8.09644 2.5 15 2.5L 15 -2.5ZM 177 2.5C 183.904 2.5 189.5 8.09644 189.5 15L 194.5 15C 194.5 5.33502 186.665 -2.5 177 -2.5L 177 2.5ZM 189.5 329C 189.5 335.904 183.904 341.5 177 341.5L 177 346.5C 186.665 346.5 194.5 338.665 194.5 329L 189.5 329ZM 15 341.5C 8.09644 341.5 2.5 335.904 2.5 329L -2.5 329C -2.5 338.665 5.33502 346.5 15 346.5L 15 341.5Z"/>
<path id="path1_stroke" d="M 15 2.5L 153 2.5L 153 -2.5L 15 -2.5L 15 2.5ZM 165.5 15L 165.5 117L 170.5 117L 170.5 15L 165.5 15ZM 153 129.5L 15 129.5L 15 134.5L 153 134.5L 153 129.5ZM 2.5 117L 2.5 15L -2.5 15L -2.5 117L 2.5 117ZM 15 -2.5C 5.33502 -2.5 -2.5 5.33502 -2.5 15L 2.5 15C 2.5 8.09644 8.09644 2.5 15 2.5L 15 -2.5ZM 153 2.5C 159.904 2.5 165.5 8.09644 165.5 15L 170.5 15C 170.5 5.33502 162.665 -2.5 153 -2.5L 153 2.5ZM 165.5 117C 165.5 123.904 159.904 129.5 153 129.5L 153 134.5C 162.665 134.5 170.5 126.665 170.5 117L 165.5 117ZM 15 129.5C 8.09644 129.5 2.5 123.904 2.5 117L -2.5 117C -2.5 126.665 5.33502 134.5 15 134.5L 15 129.5Z"/>
<path id="path2_fill" d="M 28.5917 67C 28.2167 66.25 27.912 64.9141 27.6776 62.9922C 24.6542 66.1328 21.0448 67.7031 16.8495 67.7031C 13.0995 67.7031 10.0174 66.6484 7.60338 64.5391C 5.21276 62.4062 4.01744 59.7109 4.01744 56.4531C 4.01744 52.4922 5.51744 49.4219 8.51744 47.2422C 11.5409 45.0391 15.7831 43.9375 21.244 43.9375L 27.5721 43.9375L 27.5721 40.9492C 27.5721 38.6758 26.8924 36.8711 25.5331 35.5352C 24.1737 34.1758 22.1698 33.4961 19.5213 33.4961C 17.201 33.4961 15.2557 34.082 13.6854 35.2539C 12.1151 36.4258 11.3299 37.8438 11.3299 39.5078L 4.79088 39.5078C 4.79088 37.6094 5.45885 35.7812 6.79479 34.0234C 8.15416 32.2422 9.98229 30.8359 12.2792 29.8047C 14.5995 28.7734 17.1424 28.2578 19.9081 28.2578C 24.2909 28.2578 27.7245 29.3594 30.2088 31.5625C 32.6932 33.7422 33.9823 36.7539 34.076 40.5977L 34.076 58.1055C 34.076 61.5977 34.5213 64.375 35.412 66.4375L 35.412 67L 28.5917 67ZM 17.7987 62.043C 19.8378 62.043 21.7713 61.5156 23.5995 60.4609C 25.4276 59.4062 26.7518 58.0352 27.5721 56.3477L 27.5721 48.543L 22.4745 48.543C 14.5057 48.543 10.5213 50.875 10.5213 55.5391C 10.5213 57.5781 11.201 59.1719 12.5604 60.3203C 13.9198 61.4688 15.6659 62.043 17.7987 62.043Z"/>
<path id="path3_stroke" d="M 0 0L 0 -1L -1 -1L -1 0L 0 0ZM 85 0L 86 0L 86 -1L 85 -1L 85 0ZM 85 86L 85 87L 86 87L 86 86L 85 86ZM 0 86L -1 86L -1 87L 0 87L 0 86ZM 0 1L 85 1L 85 -1L 0 -1L 0 1ZM 84 0L 84 86L 86 86L 86 0L 84 0ZM 85 85L 0 85L 0 87L 85 87L 85 85ZM 1 86L 1 0L -1 0L -1 86L 1 86Z"/>
<path id="path4_fill" d="M 25.7987 46.293L 13.7753 46.293L 13.7753 67L 6.9901 67L 6.9901 15.8125L 23.9354 15.8125C 29.701 15.8125 34.1307 17.125 37.2245 19.75C 40.3417 22.375 41.9003 26.1953 41.9003 31.2109C 41.9003 34.3984 41.0331 37.1758 39.2987 39.543C 37.5878 41.9102 35.1971 43.6797 32.1268 44.8516L 44.1503 66.5781L 44.1503 67L 36.9081 67L 25.7987 46.293ZM 13.7753 40.7734L 24.1463 40.7734C 27.4979 40.7734 30.1581 39.9062 32.1268 38.1719C 34.119 36.4375 35.1151 34.1172 35.1151 31.2109C 35.1151 28.0469 34.1659 25.6211 32.2674 23.9336C 30.3924 22.2461 27.6737 21.3906 24.1112 21.3672L 13.7753 21.3672L 13.7753 40.7734Z"/>
<path id="path5_stroke" d="M 85 43C 85 66.196 66.196 85 43 85L 43 87C 67.3005 87 87 67.3005 87 43L 85 43ZM 43 85C 19.804 85 1 66.196 1 43L -1 43C -1 67.3005 18.6995 87 43 87L 43 85ZM 1 43C 1 19.804 19.804 1 43 1L 43 -1C 18.6995 -1 -1 18.6995 -1 43L 1 43ZM 43 1C 66.196 1 85 19.804 85 43L 87 43C 87 18.6995 67.3005 -1 43 -1L 43 1Z"/>
<path id="path6_fill" d="M 13.2479 46.9609L 13.2479 67L 6.49791 67L 6.49791 15.8125L 25.3768 15.8125C 30.9784 15.8125 35.3612 17.2422 38.5253 20.1016C 41.7128 22.9609 43.3065 26.7461 43.3065 31.457C 43.3065 36.4258 41.7479 40.2578 38.6307 42.9531C 35.537 45.625 31.0956 46.9609 25.3065 46.9609L 13.2479 46.9609ZM 13.2479 41.4414L 25.3768 41.4414C 28.9862 41.4414 31.7518 40.5977 33.6737 38.9102C 35.5956 37.1992 36.5565 34.7383 36.5565 31.5273C 36.5565 28.4805 35.5956 26.043 33.6737 24.2148C 31.7518 22.3867 29.1151 21.4375 25.7635 21.3672L 13.2479 21.3672L 13.2479 41.4414Z"/>
<path id="path7_fill" d="M 37.1427 48.4023C 37.1427 54.2148 35.8068 58.8906 33.1349 62.4297C 30.463 65.9453 26.8771 67.7031 22.3771 67.7031C 17.5724 67.7031 13.8576 66.0039 11.2326 62.6055L 10.9162 67L 4.93959 67L 4.93959 13L 11.4435 13L 11.4435 33.1445C 14.0685 29.8867 17.6896 28.2578 22.3068 28.2578C 26.924 28.2578 30.5451 30.0039 33.1701 33.4961C 35.8185 36.9883 37.1427 41.7695 37.1427 47.8398L 37.1427 48.4023ZM 30.6388 47.6641C 30.6388 43.2344 29.7833 39.8125 28.0724 37.3984C 26.3615 34.9844 23.9005 33.7773 20.6896 33.7773C 16.4005 33.7773 13.3185 35.7695 11.4435 39.7539L 11.4435 56.207C 13.4357 60.1914 16.5412 62.1836 20.7599 62.1836C 23.8771 62.1836 26.3029 60.9766 28.0372 58.5625C 29.7716 56.1484 30.6388 52.5156 30.6388 47.6641Z"/>
<path id="path8_stroke" d="M 0 0L 0 -1L -1 -1L -1 0L 0 0ZM 87 0L 88 0L 88 -1L 87 -1L 87 0ZM 87 86L 87 87L 88 87L 88 86L 87 86ZM 0 86L -1 86L -1 87L 0 87L 0 86ZM 0 1L 87 1L 87 -1L 0 -1L 0 1ZM 86 0L 86 86L 88 86L 88 0L 86 0ZM 87 85L 0 85L 0 87L 87 87L 87 85ZM 1 86L 1 0L -1 0L -1 86L 1 86Z"/>
<path id="path9_fill" d="M 11 0L 20.5263 16.5L 1.47372 16.5L 11 0Z"/>
<path id="path10_stroke" d="M 108 37L 108 38L 109 38L 109 37L 108 37ZM 0 38L 108 38L 108 36L 0 36L 0 38ZM 109 37L 109 0L 107 0L 107 37L 109 37Z"/>
<path id="path11_stroke" d="M 123 37L 123 38L 124 38L 124 37L 123 37ZM 0 38L 123 38L 123 36L 0 36L 0 38ZM 124 37L 124 0L 122 0L 122 37L 124 37Z"/>
<path id="path12_stroke" d="M 125 37L 125 38L 126 38L 126 37L 125 37ZM 0 38L 125 38L 125 36L 0 36L 0 38ZM 126 37L 126 0L 124 0L 124 37L 126 37Z"/>
<path id="path13_stroke" d="M 119 36L 119 37L 120 37L 120 36L 119 36ZM 0 37L 119 37L 119 35L 0 35L 0 37ZM 120 36L 120 0L 118 0L 118 36L 120 36Z"/>
<path id="path14_fill" d="M 36.2832 41.9297C 37.8301 41.9297 39.1816 41.4609 40.3379 40.5234C 41.4941 39.5859 42.1348 38.4141 42.2598 37.0078L 46.3613 37.0078C 46.2832 38.4609 45.7832 39.8438 44.8613 41.1562C 43.9395 42.4688 42.7051 43.5156 41.1582 44.2969C 39.627 45.0781 38.002 45.4688 36.2832 45.4688C 32.8301 45.4688 30.0801 44.3203 28.0332 42.0234C 26.002 39.7109 24.9863 36.5547 24.9863 32.5547L 24.9863 31.8281C 24.9863 29.3594 25.4395 27.1641 26.3457 25.2422C 27.252 23.3203 28.5488 21.8281 30.2363 20.7656C 31.9395 19.7031 33.9473 19.1719 36.2598 19.1719C 39.1035 19.1719 41.4629 20.0234 43.3379 21.7266C 45.2285 23.4297 46.2363 25.6406 46.3613 28.3594L 42.2598 28.3594C 42.1348 26.7188 41.5098 25.375 40.3848 24.3281C 39.2754 23.2656 37.9004 22.7344 36.2598 22.7344C 34.0566 22.7344 32.3457 23.5312 31.127 25.125C 29.9238 26.7031 29.3223 28.9922 29.3223 31.9922L 29.3223 32.8125C 29.3223 35.7344 29.9238 37.9844 31.127 39.5625C 32.3301 41.1406 34.0488 41.9297 36.2832 41.9297ZM 60.7695 45L 57.5 45L 57.5 23.3262L 50.9434 25.7344L 50.9434 22.7812L 60.2598 19.2832L 60.7695 19.2832L 60.7695 45Z"/>
<path id="path15_fill" d="M 36.2832 41.9297C 37.8301 41.9297 39.1816 41.4609 40.3379 40.5234C 41.4941 39.5859 42.1348 38.4141 42.2598 37.0078L 46.3613 37.0078C 46.2832 38.4609 45.7832 39.8438 44.8613 41.1562C 43.9395 42.4688 42.7051 43.5156 41.1582 44.2969C 39.627 45.0781 38.002 45.4688 36.2832 45.4688C 32.8301 45.4688 30.0801 44.3203 28.0332 42.0234C 26.002 39.7109 24.9863 36.5547 24.9863 32.5547L 24.9863 31.8281C 24.9863 29.3594 25.4395 27.1641 26.3457 25.2422C 27.252 23.3203 28.5488 21.8281 30.2363 20.7656C 31.9395 19.7031 33.9473 19.1719 36.2598 19.1719C 39.1035 19.1719 41.4629 20.0234 43.3379 21.7266C 45.2285 23.4297 46.2363 25.6406 46.3613 28.3594L 42.2598 28.3594C 42.1348 26.7188 41.5098 25.375 40.3848 24.3281C 39.2754 23.2656 37.9004 22.7344 36.2598 22.7344C 34.0566 22.7344 32.3457 23.5312 31.127 25.125C 29.9238 26.7031 29.3223 28.9922 29.3223 31.9922L 29.3223 32.8125C 29.3223 35.7344 29.9238 37.9844 31.127 39.5625C 32.3301 41.1406 34.0488 41.9297 36.2832 41.9297ZM 66.8516 45L 50.082 45L 50.082 42.6621L 58.9414 32.8184C 60.2539 31.3301 61.1562 30.123 61.6484 29.1973C 62.1523 28.2598 62.4043 27.293 62.4043 26.2969C 62.4043 24.9609 62 23.8652 61.1914 23.0098C 60.3828 22.1543 59.3047 21.7266 57.957 21.7266C 56.3398 21.7266 55.0801 22.1895 54.1777 23.1152C 53.2871 24.0293 52.8418 25.3066 52.8418 26.9473L 49.5898 26.9473C 49.5898 24.5918 50.3457 22.6875 51.8574 21.2344C 53.3809 19.7812 55.4141 19.0547 57.957 19.0547C 60.3359 19.0547 62.2168 19.6816 63.5996 20.9355C 64.9824 22.1777 65.6738 23.8359 65.6738 25.9102C 65.6738 28.4297 64.0684 31.4297 60.8574 34.9102L 54.002 42.3457L 66.8516 42.3457L 66.8516 45Z"/>
<path id="path16_fill" d="M 36.2832 41.9297C 37.8301 41.9297 39.1816 41.4609 40.3379 40.5234C 41.4941 39.5859 42.1348 38.4141 42.2598 37.0078L 46.3613 37.0078C 46.2832 38.4609 45.7832 39.8438 44.8613 41.1562C 43.9395 42.4688 42.7051 43.5156 41.1582 44.2969C 39.627 45.0781 38.002 45.4688 36.2832 45.4688C 32.8301 45.4688 30.0801 44.3203 28.0332 42.0234C 26.002 39.7109 24.9863 36.5547 24.9863 32.5547L 24.9863 31.8281C 24.9863 29.3594 25.4395 27.1641 26.3457 25.2422C 27.252 23.3203 28.5488 21.8281 30.2363 20.7656C 31.9395 19.7031 33.9473 19.1719 36.2598 19.1719C 39.1035 19.1719 41.4629 20.0234 43.3379 21.7266C 45.2285 23.4297 46.2363 25.6406 46.3613 28.3594L 42.2598 28.3594C 42.1348 26.7188 41.5098 25.375 40.3848 24.3281C 39.2754 23.2656 37.9004 22.7344 36.2598 22.7344C 34.0566 22.7344 32.3457 23.5312 31.127 25.125C 29.9238 26.7031 29.3223 28.9922 29.3223 31.9922L 29.3223 32.8125C 29.3223 35.7344 29.9238 37.9844 31.127 39.5625C 32.3301 41.1406 34.0488 41.9297 36.2832 41.9297ZM 54.8105 30.6211L 57.2539 30.6211C 58.7891 30.5977 59.9961 30.1934 60.875 29.4082C 61.7539 28.623 62.1934 27.5625 62.1934 26.2266C 62.1934 23.2266 60.6992 21.7266 57.7109 21.7266C 56.3047 21.7266 55.1797 22.1309 54.3359 22.9395C 53.5039 23.7363 53.0879 24.7969 53.0879 26.1211L 49.8359 26.1211C 49.8359 24.0938 50.5742 22.4121 52.0508 21.0762C 53.5391 19.7285 55.4258 19.0547 57.7109 19.0547C 60.125 19.0547 62.0176 19.6934 63.3887 20.9707C 64.7598 22.248 65.4453 24.0234 65.4453 26.2969C 65.4453 27.4102 65.082 28.4883 64.3555 29.5312C 63.6406 30.5742 62.6621 31.3535 61.4199 31.8691C 62.8262 32.3145 63.9102 33.0527 64.6719 34.084C 65.4453 35.1152 65.832 36.375 65.832 37.8633C 65.832 40.1602 65.082 41.9824 63.582 43.3301C 62.082 44.6777 60.1309 45.3516 57.7285 45.3516C 55.3262 45.3516 53.3691 44.7012 51.8574 43.4004C 50.3574 42.0996 49.6074 40.3828 49.6074 38.25L 52.877 38.25C 52.877 39.5977 53.3164 40.6758 54.1953 41.4844C 55.0742 42.293 56.252 42.6973 57.7285 42.6973C 59.2988 42.6973 60.5 42.2871 61.332 41.4668C 62.1641 40.6465 62.5801 39.4688 62.5801 37.9336C 62.5801 36.4453 62.123 35.3027 61.209 34.5059C 60.2949 33.709 58.9766 33.2988 57.2539 33.2754L 54.8105 33.2754L 54.8105 30.6211Z"/>
<path id="path17_fill" d="M 27.5391 14.5781L 16.5703 14.5781L 16.5703 45L 12.0938 45L 12.0938 14.5781L 1.14844 14.5781L 1.14844 10.875L 27.5391 10.875L 27.5391 14.5781Z"/>
</defs>
</svg>
