<svg width="415" height="150" viewBox="0 0 415 150" version="1.1" xmlns="http://www.w3.org/2000/svg" xmlns:xlink="http://www.w3.org/1999/xlink">
<title>dominatingNodeViolation2</title>
<desc>Created using Figma</desc>
<g id="Canvas" transform="translate(-2027 -1139)">
<clipPath id="clip-0" clip-rule="evenodd">
<path d="M 2027 1139L 2442 1139L 2442 1289L 2027 1289L 2027 1139Z" fill="#FFFFFF"/>
</clipPath>
<g id="dominatingNodeViolation2" clip-path="url(#clip-0)">
<g id="concept">
<g id="Rectangle 2">
<use xlink:href="#path0_stroke" transform="translate(2038 1154)" fill="#B33535"/>
</g>
</g>
<g id="concept">
<g id="Rectangle 2">
<use xlink:href="#path0_stroke" transform="translate(2311 1154)" fill="#B33535"/>
</g>
</g>
<g id="Vector">
<use xlink:href="#path1_stroke" transform="translate(2140 1214)"/>
</g>
<g id="concept">
<g id="a">
<use xlink:href="#path2_fill" transform="translate(2077.73 1171)"/>
</g>
<g id="Rectangle 2">
<use xlink:href="#path3_stroke" transform="translate(2055 1171)"/>
</g>
</g>
<g id="concept">
<g id="b">
<use xlink:href="#path4_fill" transform="translate(2350.27 1171)"/>
</g>
<g id="Rectangle 2">
<use xlink:href="#path5_stroke" transform="translate(2327 1171)"/>
</g>
</g>
</g>
</g>
<defs>
<path id="path0_stroke" d="M 15 2.5L 105 2.5L 105 -2.5L 15 -2.5L 15 2.5ZM 117.5 15L 117.5 105L 122.5 105L 122.5 15L 117.5 15ZM 105 117.5L 15 117.5L 15 122.5L 105 122.5L 105 117.5ZM 2.5 105L 2.5 15L -2.5 15L -2.5 105L 2.5 105ZM 15 -2.5C 5.33502 -2.5 -2.5 5.33502 -2.5 15L 2.5 15C 2.5 8.09644 8.09644 2.5 15 2.5L 15 -2.5ZM 105 2.5C 111.904 2.5 117.5 8.09644 117.5 15L 122.5 15C 122.5 5.33502 114.665 -2.5 105 -2.5L 105 2.5ZM 117.5 105C 117.5 111.904 111.904 117.5 105 117.5L 105 122.5C 114.665 122.5 122.5 114.665 122.5 105L 117.5 105ZM 15 117.5C 8.09644 117.5 2.5 111.904 2.5 105L -2.5 105C -2.5 114.665 5.33502 122.5 15 122.5L 15 117.5Z"/>
<path id="path1_stroke" d="M 0 1.5L 3.89583 1.5L 3.89583 -1.5L 0 -1.5L 0 1.5ZM 11.6875 1.5L 19.4792 1.5L 19.4792 -1.5L 11.6875 -1.5L 11.6875 1.5ZM 27.2708 1.5L 35.0625 1.5L 35.0625 -1.5L 27.2708 -1.5L 27.2708 1.5ZM 42.8542 1.5L 50.6458 1.5L 50.6458 -1.5L 42.8542 -1.5L 42.8542 1.5ZM 58.4375 1.5L 66.2292 1.5L 66.2292 -1.5L 58.4375 -1.5L 58.4375 1.5ZM 74.0208 1.5L 81.8125 1.5L 81.8125 -1.5L 74.0208 -1.5L 74.0208 1.5ZM 89.6042 1.5L 97.3958 1.5L 97.3958 -1.5L 89.6042 -1.5L 89.6042 1.5ZM 105.187 1.5L 112.979 1.5L 112.979 -1.5L 105.187 -1.5L 105.187 1.5ZM 120.771 1.5L 128.562 1.5L 128.562 -1.5L 120.771 -1.5L 120.771 1.5ZM 136.354 1.5L 144.146 1.5L 144.146 -1.5L 136.354 -1.5L 136.354 1.5ZM 151.937 1.5L 159.729 1.5L 159.729 -1.5L 151.937 -1.5L 151.937 1.5ZM 167.521 1.5L 175.312 1.5L 175.312 -1.5L 167.521 -1.5L 167.521 1.5ZM 183.104 1.5L 187 1.5L 187 -1.5L 183.104 -1.5L 183.104 1.5Z"/>
<path id="path2_fill" d="M 28.5917 67C 28.2167 66.25 27.912 64.9141 27.6776 62.9922C 24.6542 66.1328 21.0448 67.7031 16.8495 67.7031C 13.0995 67.7031 10.0174 66.6484 7.60338 64.5391C 5.21276 62.4062 4.01744 59.7109 4.01744 56.4531C 4.01744 52.4922 5.51744 49.4219 8.51744 47.2422C 11.5409 45.0391 15.7831 43.9375 21.244 43.9375L 27.5721 43.9375L 27.5721 40.9492C 27.5721 38.6758 26.8924 36.8711 25.5331 35.5352C 24.1737 34.1758 22.1698 33.4961 19.5213 33.4961C 17.201 33.4961 15.2557 34.082 13.6854 35.2539C 12.1151 36.4258 11.3299 37.8438 11.3299 39.5078L 4.79088 39.5078C 4.79088 37.6094 5.45885 35.7812 6.79479 34.0234C 8.15416 32.2422 9.98229 30.8359 12.2792 29.8047C 14.5995 28.7734 17.1424 28.2578 19.9081 28.2578C 24.2909 28.2578 27.7245 29.3594 30.2088 31.5625C 32.6932 33.7422 33.9823 36.7539 34.076 40.5977L 34.076 58.1055C 34.076 61.5977 34.5213 64.375 35.412 66.4375L 35.412 67L 28.5917 67ZM 17.7987 62.043C 19.8378 62.043 21.7713 61.5156 23.5995 60.4609C 25.4276 59.4062 26.7518 58.0352 27.5721 56.3477L 27.5721 48.543L 22.4745 48.543C 14.5057 48.543 10.5213 50.875 10.5213 55.5391C 10.5213 57.5781 11.201 59.1719 12.5604 60.3203C 13.9198 61.4688 15.6659 62.043 17.7987 62.043Z"/>
<path id="path3_stroke" d="M 0 0L 0 -1L -1 -1L -1 0L 0 0ZM 85 0L 86 0L 86 -1L 85 -1L 85 0ZM 85 86L 85 87L 86 87L 86 86L 85 86ZM 0 86L -1 86L -1 87L 0 87L 0 86ZM 0 1L 85 1L 85 -1L 0 -1L 0 1ZM 84 0L 84 86L 86 86L 86 0L 84 0ZM 85 85L 0 85L 0 87L 85 87L 85 85ZM 1 86L 1 0L -1 0L -1 86L 1 86Z"/>
<path id="path4_fill" d="M 37.1427 48.4023C 37.1427 54.2148 35.8068 58.8906 33.1349 62.4297C 30.463 65.9453 26.8771 67.7031 22.3771 67.7031C 17.5724 67.7031 13.8576 66.0039 11.2326 62.6055L 10.9162 67L 4.93959 67L 4.93959 13L 11.4435 13L 11.4435 33.1445C 14.0685 29.8867 17.6896 28.2578 22.3068 28.2578C 26.924 28.2578 30.5451 30.0039 33.1701 33.4961C 35.8185 36.9883 37.1427 41.7695 37.1427 47.8398L 37.1427 48.4023ZM 30.6388 47.6641C 30.6388 43.2344 29.7833 39.8125 28.0724 37.3984C 26.3615 34.9844 23.9005 33.7773 20.6896 33.7773C 16.4005 33.7773 13.3185 35.7695 11.4435 39.7539L 11.4435 56.207C 13.4357 60.1914 16.5412 62.1836 20.7599 62.1836C 23.8771 62.1836 26.3029 60.9766 28.0372 58.5625C 29.7716 56.1484 30.6388 52.5156 30.6388 47.6641Z"/>
<path id="path5_stroke" d="M 0 0L 0 -1L -1 -1L -1 0L 0 0ZM 87 0L 88 0L 88 -1L 87 -1L 87 0ZM 87 86L 87 87L 88 87L 88 86L 87 86ZM 0 86L -1 86L -1 87L 0 87L 0 86ZM 0 1L 87 1L 87 -1L 0 -1L 0 1ZM 86 0L 86 86L 88 86L 88 0L 86 0ZM 87 85L 0 85L 0 87L 87 87L 87 85ZM 1 86L 1 0L -1 0L -1 86L 1 86Z"/>
</defs>
</svg>
