<svg width="544" height="711" viewBox="0 0 544 711" version="1.1" xmlns="http://www.w3.org/2000/svg" xmlns:xlink="http://www.w3.org/1999/xlink">
<title>mrfExample1</title>
<desc>Created using Figma</desc>
<g id="Canvas" transform="translate(0 -1020)">
<clipPath id="clip-0" clip-rule="evenodd">
<path d="M 0 1020L 544 1020L 544 1731L 0 1731L 0 1020Z" fill="#FFFFFF"/>
</clipPath>
<g id="mrfExample1" clip-path="url(#clip-0)">
<path d="M 0 1020L 544 1020L 544 1731L 0 1731L 0 1020Z" fill="#FFFFFF"/>
<g id="Vector 2">
<use xlink:href="#path0_stroke" transform="translate(106 1119.5)"/>
</g>
<g id="mrfNode">
<g id="Ellipse 4">
<use xlink:href="#path1_fill" transform="translate(202 1566)" fill="#FFFFFF"/>
<use xlink:href="#path2_stroke" transform="translate(202 1566)"/>
</g>
<g id="D">
<use xlink:href="#path3_fill" transform="translate(252 1598)"/>
</g>
</g>
<g id="mrfNode">
<g id="Ellipse 4">
<use xlink:href="#path1_fill" transform="translate(32 1046)" fill="#FFFFFF"/>
<use xlink:href="#path2_stroke" transform="translate(32 1046)"/>
</g>
<g id="A">
<use xlink:href="#path4_fill" transform="translate(82 1078)"/>
</g>
</g>
<g id="mrfNode">
<g id="Ellipse 4">
<use xlink:href="#path1_fill" transform="translate(372 1046)" fill="#FFFFFF"/>
<use xlink:href="#path2_stroke" transform="translate(372 1046)"/>
</g>
<g id="B">
<use xlink:href="#path5_fill" transform="translate(422 1078)"/>
</g>
</g>
<g id="mrfNode">
<g id="Ellipse 4">
<use xlink:href="#path1_fill" transform="translate(202 1286)" fill="#FFFFFF"/>
<use xlink:href="#path2_stroke" transform="translate(202 1286)"/>
</g>
<g id="C">
<use xlink:href="#path6_fill" transform="translate(252 1318)"/>
</g>
</g>
<g id="Rectangle 3">
<use xlink:href="#path7_stroke" transform="translate(-80 1025)" fill="#B33535"/>
</g>
<g id="Rectangle 4">
<use xlink:href="#path8_stroke" transform="translate(182 1266)" fill="#355FB3"/>
</g>
<g id="c1">
<use xlink:href="#path9_fill" transform="translate(463 1248)" fill="#B33535"/>
</g>
<g id="c2">
<use xlink:href="#path10_fill" transform="translate(382 1477)" fill="#355FB3"/>
</g>
</g>
</g>
<defs>
<path id="path0_stroke" d="M 0 0L 0 -1.5L -2.9155 -1.5L -1.22043 0.872101L 0 0ZM 334.5 0L 335.729 0.860019L 337.38 -1.5L 334.5 -1.5L 334.5 0ZM 0 1.5L 334.5 1.5L 334.5 -1.5L 0 -1.5L 0 1.5ZM 333.271 -0.860019L 167.771 235.64L 170.229 237.36L 335.729 0.860019L 333.271 -0.860019ZM 170.22 235.628L 1.22043 -0.872101L -1.22043 0.872101L 167.78 237.372L 170.22 235.628ZM 170.5 517L 170.5 236.5L 167.5 236.5L 167.5 517L 170.5 517Z"/>
<path id="path1_fill" d="M 140 70C 140 108.66 108.66 140 70 140C 31.3401 140 0 108.66 0 70C 0 31.3401 31.3401 0 70 0C 108.66 0 140 31.3401 140 70Z"/>
<path id="path2_stroke" d="M 138.5 70C 138.5 107.832 107.832 138.5 70 138.5L 70 141.5C 109.488 141.5 141.5 109.488 141.5 70L 138.5 70ZM 70 138.5C 32.1685 138.5 1.5 107.832 1.5 70L -1.5 70C -1.5 109.488 30.5116 141.5 70 141.5L 70 138.5ZM 1.5 70C 1.5 32.1685 32.1685 1.5 70 1.5L 70 -1.5C 30.5116 -1.5 -1.5 30.5116 -1.5 70L 1.5 70ZM 70 1.5C 107.832 1.5 138.5 32.1685 138.5 70L 141.5 70C 141.5 30.5116 109.488 -1.5 70 -1.5L 70 1.5Z"/>
<path id="path3_fill" d="M 4.78125 59L 4.78125 13.5L 17.625 13.5C 21.5833 13.5 25.0833 14.375 28.125 16.125C 31.1667 17.875 33.5104 20.3646 35.1562 23.5938C 36.8229 26.8229 37.6667 30.5312 37.6875 34.7188L 37.6875 37.625C 37.6875 41.9167 36.8542 45.6771 35.1875 48.9062C 33.5417 52.1354 31.1771 54.6146 28.0938 56.3438C 25.0312 58.0729 21.4583 58.9583 17.375 59L 4.78125 59ZM 10.7812 18.4375L 10.7812 54.0938L 17.0938 54.0938C 21.7188 54.0938 25.3125 52.6562 27.875 49.7812C 30.4583 46.9062 31.75 42.8125 31.75 37.5L 31.75 34.8438C 31.75 29.6771 30.5312 25.6667 28.0938 22.8125C 25.6771 19.9375 22.2396 18.4792 17.7812 18.4375L 10.7812 18.4375Z"/>
<path id="path4_fill" d="M 30.0312 47.125L 10.9688 47.125L 6.6875 59L 0.5 59L 17.875 13.5L 23.125 13.5L 40.5312 59L 34.375 59L 30.0312 47.125ZM 12.7812 42.1875L 28.25 42.1875L 20.5 20.9062L 12.7812 42.1875Z"/>
<path id="path5_fill" d="M 5.84375 59L 5.84375 13.5L 20.7188 13.5C 25.6562 13.5 29.3646 14.5208 31.8438 16.5625C 34.3438 18.6042 35.5938 21.625 35.5938 25.625C 35.5938 27.75 34.9896 29.6354 33.7812 31.2812C 32.5729 32.9062 30.9271 34.1667 28.8438 35.0625C 31.3021 35.75 33.2396 37.0625 34.6562 39C 36.0938 40.9167 36.8125 43.2083 36.8125 45.875C 36.8125 49.9583 35.4896 53.1667 32.8438 55.5C 30.1979 57.8333 26.4583 59 21.625 59L 5.84375 59ZM 11.8438 37.7188L 11.8438 54.0938L 21.75 54.0938C 24.5417 54.0938 26.7396 53.375 28.3438 51.9375C 29.9688 50.4792 30.7812 48.4792 30.7812 45.9375C 30.7812 40.4583 27.8021 37.7188 21.8438 37.7188L 11.8438 37.7188ZM 11.8438 32.9062L 20.9062 32.9062C 23.5312 32.9062 25.625 32.25 27.1875 30.9375C 28.7708 29.625 29.5625 27.8438 29.5625 25.5938C 29.5625 23.0938 28.8333 21.2812 27.375 20.1562C 25.9167 19.0104 23.6979 18.4375 20.7188 18.4375L 11.8438 18.4375L 11.8438 32.9062Z"/>
<path id="path6_fill" d="M 38.4062 44.5625C 37.8438 49.375 36.0625 53.0938 33.0625 55.7188C 30.0833 58.3229 26.1146 59.625 21.1562 59.625C 15.7812 59.625 11.4688 57.6979 8.21875 53.8438C 4.98958 49.9896 3.375 44.8333 3.375 38.375L 3.375 34C 3.375 29.7708 4.125 26.0521 5.625 22.8438C 7.14583 19.6354 9.29167 17.1771 12.0625 15.4688C 14.8333 13.7396 18.0417 12.875 21.6875 12.875C 26.5208 12.875 30.3958 14.2292 33.3125 16.9375C 36.2292 19.625 37.9271 23.3542 38.4062 28.125L 32.375 28.125C 31.8542 24.5 30.7188 21.875 28.9688 20.25C 27.2396 18.625 24.8125 17.8125 21.6875 17.8125C 17.8542 17.8125 14.8438 19.2292 12.6562 22.0625C 10.4896 24.8958 9.40625 28.9271 9.40625 34.1562L 9.40625 38.5625C 9.40625 43.5 10.4375 47.4271 12.5 50.3438C 14.5625 53.2604 17.4479 54.7188 21.1562 54.7188C 24.4896 54.7188 27.0417 53.9688 28.8125 52.4688C 30.6042 50.9479 31.7917 48.3125 32.375 44.5625L 38.4062 44.5625Z"/>
<path id="path7_stroke" d="M 102.895 142.65L 98.8403 145.575L 102.895 142.65ZM 279.007 386.806L 274.952 389.731L 279.007 386.806ZM 597.049 139.725L 420.938 383.881L 429.048 389.731L 605.16 145.575L 597.049 139.725ZM 283.062 383.881L 106.951 139.725L 98.8403 145.575L 274.952 389.731L 283.062 383.881ZM 175.888 5L 528.112 5L 528.112 -5L 175.888 -5L 175.888 5ZM 106.951 139.725C 66.3997 83.5072 106.571 5 175.888 5L 175.888 -5C 98.4161 -5 53.5187 82.7434 98.8403 145.575L 106.951 139.725ZM 605.16 145.575C 650.481 82.7434 605.584 -5 528.112 -5L 528.112 5C 597.429 5 637.6 83.5072 597.049 139.725L 605.16 145.575ZM 420.938 383.881C 387.012 430.913 316.988 430.913 283.062 383.881L 274.952 389.731C 312.869 442.297 391.131 442.297 429.048 389.731L 420.938 383.881Z"/>
<path id="path8_stroke" d="M 175 90L 175 370L 185 370L 185 90L 175 90ZM 5 370L 5 90L -5 90L -5 370L 5 370ZM 90 -5C 37.5329 -5 -5 37.5329 -5 90L 5 90C 5 43.0558 43.0558 5 90 5L 90 -5ZM 90 5C 136.944 5 175 43.0558 175 90L 185 90C 185 37.5329 142.467 -5 90 -5L 90 5ZM 175 370C 175 416.944 136.944 455 90 455L 90 465C 142.467 465 185 422.467 185 370L 175 370ZM 90 455C 43.0558 455 5 416.944 5 370L -5 370C -5 422.467 37.5329 465 90 465L 90 455Z"/>
<path id="path9_fill" d="M 17.9375 54.9062C 20 54.9062 21.8021 54.2812 23.3438 53.0312C 24.8854 51.7812 25.7396 50.2188 25.9062 48.3438L 31.375 48.3438C 31.2708 50.2812 30.6042 52.125 29.375 53.875C 28.1458 55.625 26.5 57.0208 24.4375 58.0625C 22.3958 59.1042 20.2292 59.625 17.9375 59.625C 13.3333 59.625 9.66667 58.0938 6.9375 55.0312C 4.22917 51.9479 2.875 47.7396 2.875 42.4062L 2.875 41.4375C 2.875 38.1458 3.47917 35.2188 4.6875 32.6562C 5.89583 30.0938 7.625 28.1042 9.875 26.6875C 12.1458 25.2708 14.8229 24.5625 17.9062 24.5625C 21.6979 24.5625 24.8438 25.6979 27.3438 27.9688C 29.8646 30.2396 31.2083 33.1875 31.375 36.8125L 25.9062 36.8125C 25.7396 34.625 24.9062 32.8333 23.4062 31.4375C 21.9271 30.0208 20.0938 29.3125 17.9062 29.3125C 14.9688 29.3125 12.6875 30.375 11.0625 32.5C 9.45833 34.6042 8.65625 37.6562 8.65625 41.6562L 8.65625 42.75C 8.65625 46.6458 9.45833 49.6458 11.0625 51.75C 12.6667 53.8542 14.9583 54.9062 17.9375 54.9062ZM 50.5859 59L 46.2266 59L 46.2266 30.1016L 37.4844 33.3125L 37.4844 29.375L 49.9062 24.7109L 50.5859 24.7109L 50.5859 59Z"/>
<path id="path10_fill" d="M 17.9375 54.9062C 20 54.9062 21.8021 54.2812 23.3438 53.0312C 24.8854 51.7812 25.7396 50.2188 25.9062 48.3438L 31.375 48.3438C 31.2708 50.2812 30.6042 52.125 29.375 53.875C 28.1458 55.625 26.5 57.0208 24.4375 58.0625C 22.3958 59.1042 20.2292 59.625 17.9375 59.625C 13.3333 59.625 9.66667 58.0938 6.9375 55.0312C 4.22917 51.9479 2.875 47.7396 2.875 42.4062L 2.875 41.4375C 2.875 38.1458 3.47917 35.2188 4.6875 32.6562C 5.89583 30.0938 7.625 28.1042 9.875 26.6875C 12.1458 25.2708 14.8229 24.5625 17.9062 24.5625C 21.6979 24.5625 24.8438 25.6979 27.3438 27.9688C 29.8646 30.2396 31.2083 33.1875 31.375 36.8125L 25.9062 36.8125C 25.7396 34.625 24.9062 32.8333 23.4062 31.4375C 21.9271 30.0208 20.0938 29.3125 17.9062 29.3125C 14.9688 29.3125 12.6875 30.375 11.0625 32.5C 9.45833 34.6042 8.65625 37.6562 8.65625 41.6562L 8.65625 42.75C 8.65625 46.6458 9.45833 49.6458 11.0625 51.75C 12.6667 53.8542 14.9583 54.9062 17.9375 54.9062ZM 58.6953 59L 36.3359 59L 36.3359 55.8828L 48.1484 42.7578C 49.8984 40.7734 51.1016 39.1641 51.7578 37.9297C 52.4297 36.6797 52.7656 35.3906 52.7656 34.0625C 52.7656 32.2812 52.2266 30.8203 51.1484 29.6797C 50.0703 28.5391 48.6328 27.9688 46.8359 27.9688C 44.6797 27.9688 43 28.5859 41.7969 29.8203C 40.6094 31.0391 40.0156 32.7422 40.0156 34.9297L 35.6797 34.9297C 35.6797 31.7891 36.6875 29.25 38.7031 27.3125C 40.7344 25.375 43.4453 24.4062 46.8359 24.4062C 50.0078 24.4062 52.5156 25.2422 54.3594 26.9141C 56.2031 28.5703 57.125 30.7812 57.125 33.5469C 57.125 36.9062 54.9844 40.9062 50.7031 45.5469L 41.5625 55.4609L 58.6953 55.4609L 58.6953 59Z"/>
</defs>
</svg>
