<svg width="463" height="250" viewBox="0 0 463 250" version="1.1" xmlns="http://www.w3.org/2000/svg" xmlns:xlink="http://www.w3.org/1999/xlink">
<title>negationNode4</title>
<desc>Created using Figma</desc>
<g id="Canvas" transform="translate(-2009 -503)">
<clipPath id="clip-0" clip-rule="evenodd">
<path d="M 2009 503L 2472 503L 2472 753L 2009 753L 2009 503Z" fill="#FFFFFF"/>
</clipPath>
<g id="negationNode4" clip-path="url(#clip-0)">
<g id="concept">
<g id="Rectangle 2">
<use xlink:href="#path0_stroke" transform="translate(2143 508)" fill="#B33535"/>
</g>
</g>
<g id="concept">
<g id="Rectangle 2">
<use xlink:href="#path1_stroke" transform="translate(2155 519)" fill="#B33535"/>
</g>
</g>
<g id="concept">
<g id="Rectangle 2">
<use xlink:href="#path1_stroke" transform="translate(2155 638)" fill="#B33535"/>
</g>
</g>
<g id="concept">
<g id="a">
<use xlink:href="#path2_fill" transform="translate(2052.73 581)"/>
</g>
<g id="Rectangle 2">
<use xlink:href="#path3_stroke" transform="translate(2030 581)"/>
</g>
</g>
<g id="relation">
<g id="R">
<use xlink:href="#path4_fill" transform="translate(2215.23 646)"/>
</g>
<g id="Ellipse 3">
<use xlink:href="#path5_stroke" transform="translate(2196 646)"/>
</g>
</g>
<g id="relation">
<g id="P">
<use xlink:href="#path6_fill" transform="translate(2215.23 526)"/>
</g>
<g id="Ellipse 3">
<use xlink:href="#path5_stroke" transform="translate(2196 526)"/>
</g>
</g>
<g id="concept">
<g id="b">
<use xlink:href="#path7_fill" transform="translate(2385.27 591)"/>
</g>
<g id="Rectangle 2">
<use xlink:href="#path8_stroke" transform="translate(2362 591)"/>
</g>
</g>
<g id="Polygon">
<use xlink:href="#path9_fill" transform="matrix(-1 -8.74228e-08 -8.74228e-08 1 2082 668)"/>
</g>
<g id="Line 2">
<use xlink:href="#path10_stroke" transform="matrix(-1 1.22465e-16 -1.22465e-16 -1 2179 581)"/>
</g>
<g id="Line 2">
<use xlink:href="#path11_stroke" transform="matrix(1 1.22465e-16 1.22465e-16 -1 2282 581)"/>
</g>
<g id="Line 2">
<use xlink:href="#path12_stroke" transform="matrix(-1 -1.22465e-16 -1.22465e-16 1 2196 674)"/>
</g>
<g id="Line 2">
<use xlink:href="#path13_stroke" transform="matrix(1 -1.22465e-16 1.22465e-16 1 2287 676)"/>
</g>
<g id="Polygon">
<use xlink:href="#path9_fill" transform="matrix(2.63678e-16 1 -1 2.63678e-16 2195 558)"/>
</g>
<g id="Polygon">
<use xlink:href="#path14_fill" transform="matrix(1.19249e-08 -1 1 1.19249e-08 2283 699)"/>
</g>
<g id="Polygon">
<use xlink:href="#path9_fill" transform="matrix(-1 -8.74228e-08 8.74228e-08 -1 2416 590)"/>
</g>
</g>
</g>
<defs>
<path id="path0_stroke" d="M 15 2.5L 177 2.5L 177 -2.5L 15 -2.5L 15 2.5ZM 189.5 15L 189.5 226L 194.5 226L 194.5 15L 189.5 15ZM 177 238.5L 15 238.5L 15 243.5L 177 243.5L 177 238.5ZM 2.5 226L 2.5 15L -2.5 15L -2.5 226L 2.5 226ZM 15 -2.5C 5.33502 -2.5 -2.5 5.33502 -2.5 15L 2.5 15C 2.5 8.09644 8.09644 2.5 15 2.5L 15 -2.5ZM 177 2.5C 183.904 2.5 189.5 8.09644 189.5 15L 194.5 15C 194.5 5.33502 186.665 -2.5 177 -2.5L 177 2.5ZM 189.5 226C 189.5 232.904 183.904 238.5 177 238.5L 177 243.5C 186.665 243.5 194.5 235.665 194.5 226L 189.5 226ZM 15 238.5C 8.09644 238.5 2.5 232.904 2.5 226L -2.5 226C -2.5 235.665 5.33502 243.5 15 243.5L 15 238.5Z"/>
<path id="path1_stroke" d="M 15 2.5L 153 2.5L 153 -2.5L 15 -2.5L 15 2.5ZM 165.5 15L 165.5 87L 170.5 87L 170.5 15L 165.5 15ZM 153 99.5L 15 99.5L 15 104.5L 153 104.5L 153 99.5ZM 2.5 87L 2.5 15L -2.5 15L -2.5 87L 2.5 87ZM 15 -2.5C 5.33502 -2.5 -2.5 5.33502 -2.5 15L 2.5 15C 2.5 8.09644 8.09644 2.5 15 2.5L 15 -2.5ZM 153 2.5C 159.904 2.5 165.5 8.09644 165.5 15L 170.5 15C 170.5 5.33502 162.665 -2.5 153 -2.5L 153 2.5ZM 165.5 87C 165.5 93.9036 159.904 99.5 153 99.5L 153 104.5C 162.665 104.5 170.5 96.665 170.5 87L 165.5 87ZM 15 99.5C 8.09644 99.5 2.5 93.9036 2.5 87L -2.5 87C -2.5 96.665 5.33502 104.5 15 104.5L 15 99.5Z"/>
<path id="path2_fill" d="M 28.5917 67C 28.2167 66.25 27.912 64.9141 27.6776 62.9922C 24.6542 66.1328 21.0448 67.7031 16.8495 67.7031C 13.0995 67.7031 10.0174 66.6484 7.60338 64.5391C 5.21276 62.4062 4.01744 59.7109 4.01744 56.4531C 4.01744 52.4922 5.51744 49.4219 8.51744 47.2422C 11.5409 45.0391 15.7831 43.9375 21.244 43.9375L 27.5721 43.9375L 27.5721 40.9492C 27.5721 38.6758 26.8924 36.8711 25.5331 35.5352C 24.1737 34.1758 22.1698 33.4961 19.5213 33.4961C 17.201 33.4961 15.2557 34.082 13.6854 35.2539C 12.1151 36.4258 11.3299 37.8438 11.3299 39.5078L 4.79088 39.5078C 4.79088 37.6094 5.45885 35.7812 6.79479 34.0234C 8.15416 32.2422 9.98229 30.8359 12.2792 29.8047C 14.5995 28.7734 17.1424 28.2578 19.9081 28.2578C 24.2909 28.2578 27.7245 29.3594 30.2088 31.5625C 32.6932 33.7422 33.9823 36.7539 34.076 40.5977L 34.076 58.1055C 34.076 61.5977 34.5213 64.375 35.412 66.4375L 35.412 67L 28.5917 67ZM 17.7987 62.043C 19.8378 62.043 21.7713 61.5156 23.5995 60.4609C 25.4276 59.4062 26.7518 58.0352 27.5721 56.3477L 27.5721 48.543L 22.4745 48.543C 14.5057 48.543 10.5213 50.875 10.5213 55.5391C 10.5213 57.5781 11.201 59.1719 12.5604 60.3203C 13.9198 61.4688 15.6659 62.043 17.7987 62.043Z"/>
<path id="path3_stroke" d="M 0 0L 0 -1L -1 -1L -1 0L 0 0ZM 85 0L 86 0L 86 -1L 85 -1L 85 0ZM 85 86L 85 87L 86 87L 86 86L 85 86ZM 0 86L -1 86L -1 87L 0 87L 0 86ZM 0 1L 85 1L 85 -1L 0 -1L 0 1ZM 84 0L 84 86L 86 86L 86 0L 84 0ZM 85 85L 0 85L 0 87L 85 87L 85 85ZM 1 86L 1 0L -1 0L -1 86L 1 86Z"/>
<path id="path4_fill" d="M 25.7987 46.293L 13.7753 46.293L 13.7753 67L 6.9901 67L 6.9901 15.8125L 23.9354 15.8125C 29.701 15.8125 34.1307 17.125 37.2245 19.75C 40.3417 22.375 41.9003 26.1953 41.9003 31.2109C 41.9003 34.3984 41.0331 37.1758 39.2987 39.543C 37.5878 41.9102 35.1971 43.6797 32.1268 44.8516L 44.1503 66.5781L 44.1503 67L 36.9081 67L 25.7987 46.293ZM 13.7753 40.7734L 24.1463 40.7734C 27.4979 40.7734 30.1581 39.9062 32.1268 38.1719C 34.119 36.4375 35.1151 34.1172 35.1151 31.2109C 35.1151 28.0469 34.1659 25.6211 32.2674 23.9336C 30.3924 22.2461 27.6737 21.3906 24.1112 21.3672L 13.7753 21.3672L 13.7753 40.7734Z"/>
<path id="path5_stroke" d="M 85 43C 85 66.196 66.196 85 43 85L 43 87C 67.3005 87 87 67.3005 87 43L 85 43ZM 43 85C 19.804 85 1 66.196 1 43L -1 43C -1 67.3005 18.6995 87 43 87L 43 85ZM 1 43C 1 19.804 19.804 1 43 1L 43 -1C 18.6995 -1 -1 18.6995 -1 43L 1 43ZM 43 1C 66.196 1 85 19.804 85 43L 87 43C 87 18.6995 67.3005 -1 43 -1L 43 1Z"/>
<path id="path6_fill" d="M 13.2479 46.9609L 13.2479 67L 6.49791 67L 6.49791 15.8125L 25.3768 15.8125C 30.9784 15.8125 35.3612 17.2422 38.5253 20.1016C 41.7128 22.9609 43.3065 26.7461 43.3065 31.457C 43.3065 36.4258 41.7479 40.2578 38.6307 42.9531C 35.537 45.625 31.0956 46.9609 25.3065 46.9609L 13.2479 46.9609ZM 13.2479 41.4414L 25.3768 41.4414C 28.9862 41.4414 31.7518 40.5977 33.6737 38.9102C 35.5956 37.1992 36.5565 34.7383 36.5565 31.5273C 36.5565 28.4805 35.5956 26.043 33.6737 24.2148C 31.7518 22.3867 29.1151 21.4375 25.7635 21.3672L 13.2479 21.3672L 13.2479 41.4414Z"/>
<path id="path7_fill" d="M 37.1427 48.4023C 37.1427 54.2148 35.8068 58.8906 33.1349 62.4297C 30.463 65.9453 26.8771 67.7031 22.3771 67.7031C 17.5724 67.7031 13.8576 66.0039 11.2326 62.6055L 10.9162 67L 4.93959 67L 4.93959 13L 11.4435 13L 11.4435 33.1445C 14.0685 29.8867 17.6896 28.2578 22.3068 28.2578C 26.924 28.2578 30.5451 30.0039 33.1701 33.4961C 35.8185 36.9883 37.1427 41.7695 37.1427 47.8398L 37.1427 48.4023ZM 30.6388 47.6641C 30.6388 43.2344 29.7833 39.8125 28.0724 37.3984C 26.3615 34.9844 23.9005 33.7773 20.6896 33.7773C 16.4005 33.7773 13.3185 35.7695 11.4435 39.7539L 11.4435 56.207C 13.4357 60.1914 16.5412 62.1836 20.7599 62.1836C 23.8771 62.1836 26.3029 60.9766 28.0372 58.5625C 29.7716 56.1484 30.6388 52.5156 30.6388 47.6641Z"/>
<path id="path8_stroke" d="M 0 0L 0 -1L -1 -1L -1 0L 0 0ZM 87 0L 88 0L 88 -1L 87 -1L 87 0ZM 87 86L 87 87L 88 87L 88 86L 87 86ZM 0 86L -1 86L -1 87L 0 87L 0 86ZM 0 1L 87 1L 87 -1L 0 -1L 0 1ZM 86 0L 86 86L 88 86L 88 0L 86 0ZM 87 85L 0 85L 0 87L 87 87L 87 85ZM 1 86L 1 0L -1 0L -1 86L 1 86Z"/>
<path id="path9_fill" d="M 11 0L 20.5263 16.5L 1.47372 16.5L 11 0Z"/>
<path id="path10_stroke" d="M 108 11L 108 12L 109 12L 109 11L 108 11ZM 0 12L 108 12L 108 10L 0 10L 0 12ZM 109 11L 109 0L 107 0L 107 11L 109 11Z"/>
<path id="path11_stroke" d="M 123 11L 123 12L 124 12L 124 11L 123 11ZM 0 12L 123 12L 123 10L 0 10L 0 12ZM 124 11L 124 0L 122 0L 122 11L 124 11Z"/>
<path id="path12_stroke" d="M 125 14L 125 15L 126 15L 126 14L 125 14ZM 0 15L 125 15L 125 13L 0 13L 0 15ZM 126 14L 126 0L 124 0L 124 14L 126 14Z"/>
<path id="path13_stroke" d="M 119 12L 119 13L 120 13L 120 12L 119 12ZM 0 13L 119 13L 119 11L 0 11L 0 13ZM 120 12L 120 0L 118 0L 118 12L 120 12Z"/>
<path id="path14_fill" d="M 11 0L 20.5263 16.5L 1.47372 16.5L 11 0Z"/>
</defs>
</svg>
