<svg width="463" height="250" viewBox="0 0 463 250" version="1.1" xmlns="http://www.w3.org/2000/svg" xmlns:xlink="http://www.w3.org/1999/xlink">
<title>relationNode2</title>
<desc>Created using Figma</desc>
<g id="Canvas" transform="translate(-2731 -998)">
<clipPath id="clip-0" clip-rule="evenodd">
<path d="M 2731 998L 3194 998L 3194 1248L 2731 1248L 2731 998Z" fill="#FFFFFF"/>
</clipPath>
<g id="relationNode2" clip-path="url(#clip-0)">
<g id="Line 2">
<use xlink:href="#path0_stroke" transform="matrix(-1 1.22465e-16 -1.22465e-16 -1 2918 1076)" fill="#B33535"/>
</g>
<g id="Line 2">
<use xlink:href="#path1_stroke" transform="matrix(-1 -1.22465e-16 -1.22465e-16 1 2918 1162)" fill="#B33535"/>
</g>
<g id="Line 2">
<use xlink:href="#path2_stroke" transform="matrix(1 1.22465e-16 1.22465e-16 -1 3004 1086)" fill="#B33535"/>
</g>
<g id="Line 2">
<use xlink:href="#path3_stroke" transform="matrix(1 -1.22465e-16 1.22465e-16 1 3004 1171)" fill="#B33535"/>
</g>
<g id="concept">
<g id="a">
<use xlink:href="#path4_fill" transform="translate(2774.73 1076)"/>
</g>
<g id="Rectangle 2">
<use xlink:href="#path5_stroke" transform="translate(2752 1076)"/>
</g>
</g>
<g id="relation">
<g id="R">
<use xlink:href="#path6_fill" transform="translate(2937.23 1151)" fill="#B33535"/>
</g>
<g id="Ellipse 3">
<use xlink:href="#path7_stroke" transform="translate(2918 1151)" fill="#B33535"/>
</g>
</g>
<g id="relation">
<g id="P">
<use xlink:href="#path8_fill" transform="translate(2937.23 1011)" fill="#B33535"/>
</g>
<g id="Ellipse 3">
<use xlink:href="#path7_stroke" transform="translate(2918 1011)" fill="#B33535"/>
</g>
</g>
<g id="concept">
<g id="b">
<use xlink:href="#path9_fill" transform="translate(3107.27 1086)"/>
</g>
<g id="Rectangle 2">
<use xlink:href="#path10_stroke" transform="translate(3084 1086)"/>
</g>
</g>
<g id="1">
<use xlink:href="#path11_fill" transform="translate(2854 1058)" fill="#B33535"/>
</g>
<g id="2">
<use xlink:href="#path12_fill" transform="translate(3021 1058)" fill="#B33535"/>
</g>
<g id="2">
<use xlink:href="#path12_fill" transform="translate(2854 1150)" fill="#B33535"/>
</g>
<g id="1">
<use xlink:href="#path11_fill" transform="translate(3021 1150)" fill="#B33535"/>
</g>
</g>
</g>
<defs>
<path id="path0_stroke" d="M 125 21L 125 22L 126 22L 126 21L 125 21ZM 0 22L 125 22L 125 20L 0 20L 0 22ZM 126 21L 126 0L 124 0L 124 21L 126 21Z"/>
<path id="path1_stroke" d="M 125 31L 125 32L 126 32L 126 31L 125 31ZM 0 32L 125 32L 125 30L 0 30L 0 32ZM 126 31L 126 0L 124 0L 124 31L 126 31Z"/>
<path id="path2_stroke" d="M 123 31L 123 32L 124 32L 124 31L 123 31ZM 0 32L 123 32L 123 30L 0 30L 0 32ZM 124 31L 124 0L 122 0L 122 31L 124 31Z"/>
<path id="path3_stroke" d="M 124 22L 124 23L 125 23L 125 22L 124 22ZM 0 23L 124 23L 124 21L 0 21L 0 23ZM 125 22L 125 0L 123 0L 123 22L 125 22Z"/>
<path id="path4_fill" d="M 28.5917 67C 28.2167 66.25 27.912 64.9141 27.6776 62.9922C 24.6542 66.1328 21.0448 67.7031 16.8495 67.7031C 13.0995 67.7031 10.0174 66.6484 7.60338 64.5391C 5.21276 62.4062 4.01744 59.7109 4.01744 56.4531C 4.01744 52.4922 5.51744 49.4219 8.51744 47.2422C 11.5409 45.0391 15.7831 43.9375 21.244 43.9375L 27.5721 43.9375L 27.5721 40.9492C 27.5721 38.6758 26.8924 36.8711 25.5331 35.5352C 24.1737 34.1758 22.1698 33.4961 19.5213 33.4961C 17.201 33.4961 15.2557 34.082 13.6854 35.2539C 12.1151 36.4258 11.3299 37.8438 11.3299 39.5078L 4.79088 39.5078C 4.79088 37.6094 5.45885 35.7812 6.79479 34.0234C 8.15416 32.2422 9.98229 30.8359 12.2792 29.8047C 14.5995 28.7734 17.1424 28.2578 19.9081 28.2578C 24.2909 28.2578 27.7245 29.3594 30.2088 31.5625C 32.6932 33.7422 33.9823 36.7539 34.076 40.5977L 34.076 58.1055C 34.076 61.5977 34.5213 64.375 35.412 66.4375L 35.412 67L 28.5917 67ZM 17.7987 62.043C 19.8378 62.043 21.7713 61.5156 23.5995 60.4609C 25.4276 59.4062 26.7518 58.0352 27.5721 56.3477L 27.5721 48.543L 22.4745 48.543C 14.5057 48.543 10.5213 50.875 10.5213 55.5391C 10.5213 57.5781 11.201 59.1719 12.5604 60.3203C 13.9198 61.4688 15.6659 62.043 17.7987 62.043Z"/>
<path id="path5_stroke" d="M 0 0L 0 -1L -1 -1L -1 0L 0 0ZM 85 0L 86 0L 86 -1L 85 -1L 85 0ZM 85 86L 85 87L 86 87L 86 86L 85 86ZM 0 86L -1 86L -1 87L 0 87L 0 86ZM 0 1L 85 1L 85 -1L 0 -1L 0 1ZM 84 0L 84 86L 86 86L 86 0L 84 0ZM 85 85L 0 85L 0 87L 85 87L 85 85ZM 1 86L 1 0L -1 0L -1 86L 1 86Z"/>
<path id="path6_fill" d="M 25.7987 46.293L 13.7753 46.293L 13.7753 67L 6.9901 67L 6.9901 15.8125L 23.9354 15.8125C 29.701 15.8125 34.1307 17.125 37.2245 19.75C 40.3417 22.375 41.9003 26.1953 41.9003 31.2109C 41.9003 34.3984 41.0331 37.1758 39.2987 39.543C 37.5878 41.9102 35.1971 43.6797 32.1268 44.8516L 44.1503 66.5781L 44.1503 67L 36.9081 67L 25.7987 46.293ZM 13.7753 40.7734L 24.1463 40.7734C 27.4979 40.7734 30.1581 39.9062 32.1268 38.1719C 34.119 36.4375 35.1151 34.1172 35.1151 31.2109C 35.1151 28.0469 34.1659 25.6211 32.2674 23.9336C 30.3924 22.2461 27.6737 21.3906 24.1112 21.3672L 13.7753 21.3672L 13.7753 40.7734Z"/>
<path id="path7_stroke" d="M 85 43C 85 66.196 66.196 85 43 85L 43 87C 67.3005 87 87 67.3005 87 43L 85 43ZM 43 85C 19.804 85 1 66.196 1 43L -1 43C -1 67.3005 18.6995 87 43 87L 43 85ZM 1 43C 1 19.804 19.804 1 43 1L 43 -1C 18.6995 -1 -1 18.6995 -1 43L 1 43ZM 43 1C 66.196 1 85 19.804 85 43L 87 43C 87 18.6995 67.3005 -1 43 -1L 43 1Z"/>
<path id="path8_fill" d="M 13.2479 46.9609L 13.2479 67L 6.49791 67L 6.49791 15.8125L 25.3768 15.8125C 30.9784 15.8125 35.3612 17.2422 38.5253 20.1016C 41.7128 22.9609 43.3065 26.7461 43.3065 31.457C 43.3065 36.4258 41.7479 40.2578 38.6307 42.9531C 35.537 45.625 31.0956 46.9609 25.3065 46.9609L 13.2479 46.9609ZM 13.2479 41.4414L 25.3768 41.4414C 28.9862 41.4414 31.7518 40.5977 33.6737 38.9102C 35.5956 37.1992 36.5565 34.7383 36.5565 31.5273C 36.5565 28.4805 35.5956 26.043 33.6737 24.2148C 31.7518 22.3867 29.1151 21.4375 25.7635 21.3672L 13.2479 21.3672L 13.2479 41.4414Z"/>
<path id="path9_fill" d="M 37.4102 48.4023C 37.4102 54.2148 36.0742 58.8906 33.4023 62.4297C 30.7305 65.9453 27.1445 67.7031 22.6445 67.7031C 17.8398 67.7031 14.125 66.0039 11.5 62.6055L 11.1836 67L 5.20703 67L 5.20703 13L 11.7109 13L 11.7109 33.1445C 14.3359 29.8867 17.957 28.2578 22.5742 28.2578C 27.1914 28.2578 30.8125 30.0039 33.4375 33.4961C 36.0859 36.9883 37.4102 41.7695 37.4102 47.8398L 37.4102 48.4023ZM 30.9062 47.6641C 30.9062 43.2344 30.0508 39.8125 28.3398 37.3984C 26.6289 34.9844 24.168 33.7773 20.957 33.7773C 16.668 33.7773 13.5859 35.7695 11.7109 39.7539L 11.7109 56.207C 13.7031 60.1914 16.8086 62.1836 21.0273 62.1836C 24.1445 62.1836 26.5703 60.9766 28.3047 58.5625C 30.0391 56.1484 30.9062 52.5156 30.9062 47.6641Z"/>
<path id="path10_stroke" d="M 0 0L 0 -1L -1 -1L -1 0L 0 0ZM 87 0L 88 0L 88 -1L 87 -1L 87 0ZM 87 86L 87 87L 88 87L 88 86L 87 86ZM 0 86L -1 86L -1 87L 0 87L 0 86ZM 0 1L 87 1L 87 -1L 0 -1L 0 1ZM 86 0L 86 86L 88 86L 88 0L 86 0ZM 87 85L 0 85L 0 87L 87 87L 87 85ZM 1 86L 1 0L -1 0L -1 86L 1 86Z"/>
<path id="path11_fill" d="M 25.9745 33L 22.7049 33L 22.7049 11.3262L 16.1483 13.7344L 16.1483 10.7812L 25.4647 7.2832L 25.9745 7.2832L 25.9745 33Z"/>
<path id="path12_fill" d="M 32.0565 33L 15.287 33L 15.287 30.6621L 24.1463 20.8184C 25.4588 19.3301 26.3612 18.123 26.8534 17.1973C 27.3573 16.2598 27.6092 15.293 27.6092 14.2969C 27.6092 12.9609 27.2049 11.8652 26.3963 11.0098C 25.5878 10.1543 24.5096 9.72656 23.162 9.72656C 21.5448 9.72656 20.285 10.1895 19.3827 11.1152C 18.4921 12.0293 18.0467 13.3066 18.0467 14.9473L 14.7948 14.9473C 14.7948 12.5918 15.5506 10.6875 17.0624 9.23438C 18.5858 7.78125 20.619 7.05469 23.162 7.05469C 25.5409 7.05469 27.4217 7.68164 28.8046 8.93555C 30.1874 10.1777 30.8788 11.8359 30.8788 13.9102C 30.8788 16.4297 29.2733 19.4297 26.0624 22.9102L 19.2069 30.3457L 32.0565 30.3457L 32.0565 33Z"/>
</defs>
</svg>
