<svg width="560" height="55" viewBox="0 0 560 55" version="1.1" xmlns="http://www.w3.org/2000/svg" xmlns:xlink="http://www.w3.org/1999/xlink">
<title>overview</title>
<desc>Created using Figma</desc>
<g id="Canvas" transform="translate(-655 -1410)">
<clipPath id="clip-0" clip-rule="evenodd">
<path d="M 655 1410L 1215 1410L 1215 1465L 655 1465L 655 1410Z" fill="#FFFFFF"/>
</clipPath>
<g id="overview" clip-path="url(#clip-0)">
<g id="Group">
<g id="Ellipse 6">
<use xlink:href="#path0_fill" transform="translate(1005 1410)" fill="#355FB3"/>
</g>
<g id="Knowledge Graph">
<use xlink:href="#path1_fill" transform="translate(1005 1425.94)" fill="#FFFFFF"/>
</g>
</g>
<g id="Group">
<g id="Rectangle 6">
<use xlink:href="#path2_fill" transform="translate(1125 1410)" fill="#B3B3B3"/>
</g>
<g id="Query Engine">
<use xlink:href="#path3_fill" transform="translate(1125 1425.94)" fill="#FFFFFF"/>
</g>
</g>
<g id="Arrow">
<use xlink:href="#path4_stroke" transform="matrix(-1 0 0 1 1125 1430)" fill="#B3B3B3"/>
</g>
<g id="Arrow">
<use xlink:href="#path5_stroke" transform="translate(975 1430)"/>
</g>
<g id="Group">
<g id="Group">
<g id="Rectangle 5">
<use xlink:href="#path6_stroke" transform="translate(655 1415)"/>
</g>
<g id="Ellipse 5">
<use xlink:href="#path7_fill" transform="translate(655 1420)" fill="#355FB3"/>
</g>
<g id="Ellipse 5">
<use xlink:href="#path7_fill" transform="translate(685 1420)" fill="#355FB3"/>
</g>
<g id="Ellipse 5">
<use xlink:href="#path7_fill" transform="translate(715 1420)" fill="#355FB3"/>
</g>
</g>
<g id="Message Stream">
<use xlink:href="#path8_fill" transform="translate(657 1453)"/>
</g>
</g>
<g id="Group">
<g id="Rectangle 6">
<use xlink:href="#path2_fill" transform="translate(765 1410)" fill="#B33535"/>
</g>
<g id="Natural Language Processing">
<use xlink:href="#path9_fill" transform="translate(765 1425.94)" fill="#FFFFFF"/>
</g>
</g>
<g id="Group">
<g id="Rectangle 6">
<use xlink:href="#path2_fill" transform="translate(885 1410)" fill="#B33535"/>
</g>
<g id="Knowledge Graph Inference">
<use xlink:href="#path10_fill" transform="translate(885 1425.94)" fill="#FFFFFF"/>
</g>
</g>
<g id="Arrow">
<use xlink:href="#path5_stroke" transform="matrix(1 -2.44929e-16 2.44929e-16 1 735 1430)"/>
</g>
<g id="Arrow">
<use xlink:href="#path5_stroke" transform="translate(855 1430)"/>
</g>
</g>
</g>
<defs>
<path id="path0_fill" d="M 90 20C 90 31.0457 69.8528 40 45 40C 20.1472 40 0 31.0457 0 20C 0 8.95431 20.1472 0 45 0C 69.8528 0 90 8.95431 90 20Z"/>
<path id="path1_fill" d="M 23.0371 -1.30566L 22.168 -0.402344L 22.168 2L 21.2305 2L 21.2305 -5.10938L 22.168 -5.10938L 22.168 -1.59375L 25.3271 -5.10938L 26.46 -5.10938L 23.6621 -1.96973L 26.6797 2L 25.5566 2L 23.0371 -1.30566ZM 28.0957 -3.2832L 28.125 -2.61914C 28.5286 -3.12695 29.056 -3.38086 29.707 -3.38086C 30.8236 -3.38086 31.3867 -2.75098 31.3965 -1.49121L 31.3965 2L 30.4932 2L 30.4932 -1.49609C 30.4899 -1.87695 30.402 -2.15853 30.2295 -2.34082C 30.0602 -2.52311 29.7949 -2.61426 29.4336 -2.61426C 29.1406 -2.61426 28.8835 -2.53613 28.6621 -2.37988C 28.4408 -2.22363 28.2682 -2.01855 28.1445 -1.76465L 28.1445 2L 27.2412 2L 27.2412 -3.2832L 28.0957 -3.2832ZM 32.5195 -0.69043C 32.5195 -1.20801 32.6204 -1.6735 32.8223 -2.08691C 33.0273 -2.50033 33.3105 -2.81934 33.6719 -3.04395C 34.0365 -3.26855 34.4515 -3.38086 34.917 -3.38086C 35.6364 -3.38086 36.2174 -3.13184 36.6602 -2.63379C 37.1061 -2.13574 37.3291 -1.47331 37.3291 -0.646484L 37.3291 -0.583008C 37.3291 -0.0686849 37.2298 0.393555 37.0312 0.803711C 36.8359 1.21061 36.5544 1.52799 36.1865 1.75586C 35.8219 1.98372 35.402 2.09766 34.9268 2.09766C 34.2106 2.09766 33.6296 1.84863 33.1836 1.35059C 32.7409 0.852539 32.5195 0.193359 32.5195 -0.626953L 32.5195 -0.69043ZM 33.4277 -0.583008C 33.4277 0.00292969 33.5628 0.473307 33.833 0.828125C 34.1064 1.18294 34.471 1.36035 34.9268 1.36035C 35.3857 1.36035 35.7503 1.18132 36.0205 0.823242C 36.2907 0.461914 36.4258 -0.0426432 36.4258 -0.69043C 36.4258 -1.26986 36.2874 -1.73861 36.0107 -2.09668C 35.7373 -2.45801 35.3727 -2.63867 34.917 -2.63867C 34.471 -2.63867 34.1113 -2.46126 33.8379 -2.10645C 33.5645 -1.75163 33.4277 -1.24382 33.4277 -0.583008ZM 43.1396 0.754883L 44.1553 -3.2832L 45.0586 -3.2832L 43.5205 2L 42.7881 2L 41.5039 -2.00391L 40.2539 2L 39.5215 2L 37.9883 -3.2832L 38.8867 -3.2832L 39.9268 0.671875L 41.1572 -3.2832L 41.8848 -3.2832L 43.1396 0.754883ZM 46.9629 2L 46.0596 2L 46.0596 -5.5L 46.9629 -5.5L 46.9629 2ZM 50.6055 2.09766C 49.8893 2.09766 49.3066 1.86328 48.8574 1.39453C 48.4082 0.922526 48.1836 0.292643 48.1836 -0.495117L 48.1836 -0.661133C 48.1836 -1.18522 48.2829 -1.65234 48.4814 -2.0625C 48.6833 -2.47591 48.9632 -2.79818 49.3213 -3.0293C 49.6826 -3.26367 50.0732 -3.38086 50.4932 -3.38086C 51.18 -3.38086 51.7139 -3.15462 52.0947 -2.70215C 52.4756 -2.24967 52.666 -1.60189 52.666 -0.758789L 52.666 -0.382812L 49.0869 -0.382812C 49.0999 0.138021 49.2513 0.55957 49.541 0.881836C 49.834 1.20085 50.2051 1.36035 50.6543 1.36035C 50.9733 1.36035 51.2435 1.29525 51.4648 1.16504C 51.6862 1.03483 51.8799 0.862305 52.0459 0.647461L 52.5977 1.07715C 52.1549 1.75749 51.4909 2.09766 50.6055 2.09766ZM 50.4932 -2.63867C 50.1286 -2.63867 49.8226 -2.50521 49.5752 -2.23828C 49.3278 -1.97461 49.1748 -1.60352 49.1162 -1.125L 51.7627 -1.125L 51.7627 -1.19336C 51.7367 -1.65234 51.613 -2.00716 51.3916 -2.25781C 51.1702 -2.51172 50.8708 -2.63867 50.4932 -2.63867ZM 53.4961 -0.685547C 53.4961 -1.49609 53.6882 -2.14714 54.0723 -2.63867C 54.4564 -3.13346 54.9593 -3.38086 55.5811 -3.38086C 56.1995 -3.38086 56.6895 -3.16927 57.0508 -2.74609L 57.0508 -5.5L 57.9541 -5.5L 57.9541 2L 57.124 2L 57.0801 1.43359C 56.7188 1.8763 56.2158 2.09766 55.5713 2.09766C 54.9593 2.09766 54.4596 1.84701 54.0723 1.3457C 53.6882 0.844401 53.4961 0.190104 53.4961 -0.617188L 53.4961 -0.685547ZM 54.3994 -0.583008C 54.3994 0.0159505 54.5231 0.484701 54.7705 0.823242C 55.0179 1.16178 55.3597 1.33105 55.7959 1.33105C 56.3688 1.33105 56.7871 1.07389 57.0508 0.55957L 57.0508 -1.86719C 56.7806 -2.36523 56.3656 -2.61426 55.8057 -2.61426C 55.363 -2.61426 55.0179 -2.44336 54.7705 -2.10156C 54.5231 -1.75977 54.3994 -1.25358 54.3994 -0.583008ZM 59.1455 -0.685547C 59.1455 -1.50911 59.3359 -2.16341 59.7168 -2.64844C 60.0977 -3.13672 60.6022 -3.38086 61.2305 -3.38086C 61.875 -3.38086 62.3779 -3.15299 62.7393 -2.69727L 62.7832 -3.2832L 63.6084 -3.2832L 63.6084 1.87305C 63.6084 2.55664 63.4049 3.09538 62.998 3.48926C 62.5944 3.88314 62.0508 4.08008 61.3672 4.08008C 60.9863 4.08008 60.6136 3.9987 60.249 3.83594C 59.8844 3.67318 59.6061 3.4502 59.4141 3.16699L 59.8828 2.625C 60.2702 3.10352 60.7438 3.34277 61.3037 3.34277C 61.7432 3.34277 62.085 3.21908 62.3291 2.97168C 62.5765 2.72428 62.7002 2.37598 62.7002 1.92676L 62.7002 1.47266C 62.3389 1.88932 61.8457 2.09766 61.2207 2.09766C 60.6022 2.09766 60.1009 1.84863 59.7168 1.35059C 59.3359 0.852539 59.1455 0.173828 59.1455 -0.685547ZM 60.0537 -0.583008C 60.0537 0.0126953 60.1758 0.481445 60.4199 0.823242C 60.6641 1.16178 61.0059 1.33105 61.4453 1.33105C 62.015 1.33105 62.4333 1.07227 62.7002 0.554688L 62.7002 -1.85742C 62.4235 -2.36198 62.0085 -2.61426 61.4551 -2.61426C 61.0156 -2.61426 60.6722 -2.44336 60.4248 -2.10156C 60.1774 -1.75977 60.0537 -1.25358 60.0537 -0.583008ZM 67.168 2.09766C 66.4518 2.09766 65.8691 1.86328 65.4199 1.39453C 64.9707 0.922526 64.7461 0.292643 64.7461 -0.495117L 64.7461 -0.661133C 64.7461 -1.18522 64.8454 -1.65234 65.0439 -2.0625C 65.2458 -2.47591 65.5257 -2.79818 65.8838 -3.0293C 66.2451 -3.26367 66.6357 -3.38086 67.0557 -3.38086C 67.7425 -3.38086 68.2764 -3.15462 68.6572 -2.70215C 69.0381 -2.24967 69.2285 -1.60189 69.2285 -0.758789L 69.2285 -0.382812L 65.6494 -0.382812C 65.6624 0.138021 65.8138 0.55957 66.1035 0.881836C 66.3965 1.20085 66.7676 1.36035 67.2168 1.36035C 67.5358 1.36035 67.806 1.29525 68.0273 1.16504C 68.2487 1.03483 68.4424 0.862305 68.6084 0.647461L 69.1602 1.07715C 68.7174 1.75749 68.0534 2.09766 67.168 2.09766ZM 67.0557 -2.63867C 66.6911 -2.63867 66.3851 -2.50521 66.1377 -2.23828C 65.8903 -1.97461 65.7373 -1.60352 65.6787 -1.125L 68.3252 -1.125L 68.3252 -1.19336C 68.2992 -1.65234 68.1755 -2.00716 67.9541 -2.25781C 67.7327 -2.51172 67.4333 -2.63867 67.0557 -2.63867ZM 37.7881 13.0674C 37.5472 13.4124 37.2103 13.6712 36.7773 13.8438C 36.3477 14.013 35.8464 14.0977 35.2734 14.0977C 34.694 14.0977 34.1797 13.9626 33.7305 13.6924C 33.2812 13.4189 32.9329 13.0316 32.6855 12.5303C 32.4414 12.029 32.3161 11.4479 32.3096 10.7871L 32.3096 10.167C 32.3096 9.09603 32.5586 8.26595 33.0566 7.67676C 33.5579 7.08757 34.2611 6.79297 35.166 6.79297C 35.9082 6.79297 36.5055 6.9834 36.958 7.36426C 37.4105 7.74186 37.6872 8.27897 37.7881 8.97559L 36.8506 8.97559C 36.6748 8.03483 36.1149 7.56445 35.1709 7.56445C 34.5426 7.56445 34.0658 7.78581 33.7402 8.22852C 33.418 8.66797 33.2552 9.30599 33.252 10.1426L 33.252 10.7236C 33.252 11.5212 33.4342 12.1559 33.7988 12.6279C 34.1634 13.0967 34.6566 13.3311 35.2783 13.3311C 35.6299 13.3311 35.9375 13.292 36.2012 13.2139C 36.4648 13.1357 36.6829 13.0039 36.8555 12.8184L 36.8555 11.2217L 35.21 11.2217L 35.21 10.46L 37.7881 10.46L 37.7881 13.0674ZM 41.7676 9.52734C 41.6309 9.50456 41.4827 9.49316 41.3232 9.49316C 40.7308 9.49316 40.3288 9.74544 40.1172 10.25L 40.1172 14L 39.2139 14L 39.2139 8.7168L 40.0928 8.7168L 40.1074 9.32715C 40.4036 8.85514 40.8236 8.61914 41.3672 8.61914C 41.543 8.61914 41.6764 8.64193 41.7676 8.6875L 41.7676 9.52734ZM 45.6689 14C 45.6169 13.8958 45.5745 13.7103 45.542 13.4434C 45.1221 13.8796 44.6208 14.0977 44.0381 14.0977C 43.5173 14.0977 43.0892 13.9512 42.7539 13.6582C 42.4219 13.362 42.2559 12.9876 42.2559 12.5352C 42.2559 11.985 42.4642 11.5586 42.8809 11.2559C 43.3008 10.9499 43.89 10.7969 44.6484 10.7969L 45.5273 10.7969L 45.5273 10.3818C 45.5273 10.0661 45.4329 9.81543 45.2441 9.62988C 45.0553 9.44108 44.777 9.34668 44.4092 9.34668C 44.0869 9.34668 43.8167 9.42806 43.5986 9.59082C 43.3805 9.75358 43.2715 9.95052 43.2715 10.1816L 42.3633 10.1816C 42.3633 9.91797 42.4561 9.66406 42.6416 9.41992C 42.8304 9.17253 43.0843 8.97721 43.4033 8.83398C 43.7256 8.69076 44.0788 8.61914 44.4629 8.61914C 45.0716 8.61914 45.5485 8.77214 45.8936 9.07812C 46.2386 9.38086 46.4176 9.79915 46.4307 10.333L 46.4307 12.7646C 46.4307 13.2497 46.4925 13.6354 46.6162 13.9219L 46.6162 14L 45.6689 14ZM 44.1699 13.3115C 44.4531 13.3115 44.7217 13.2383 44.9756 13.0918C 45.2295 12.9453 45.4134 12.7549 45.5273 12.5205L 45.5273 11.4365L 44.8193 11.4365C 43.7126 11.4365 43.1592 11.7604 43.1592 12.4082C 43.1592 12.6914 43.2536 12.9128 43.4424 13.0723C 43.6312 13.2318 43.8737 13.3115 44.1699 13.3115ZM 52.3096 11.417C 52.3096 12.221 52.1257 12.8688 51.7578 13.3604C 51.39 13.8519 50.8919 14.0977 50.2637 14.0977C 49.6224 14.0977 49.1178 13.8942 48.75 13.4873L 48.75 16.0312L 47.8467 16.0312L 47.8467 8.7168L 48.6719 8.7168L 48.7158 9.30273C 49.0837 8.84701 49.5947 8.61914 50.249 8.61914C 50.8838 8.61914 51.3851 8.8584 51.7529 9.33691C 52.124 9.81543 52.3096 10.4811 52.3096 11.334L 52.3096 11.417ZM 51.4062 11.3145C 51.4062 10.7188 51.2793 10.2484 51.0254 9.90332C 50.7715 9.55827 50.4232 9.38574 49.9805 9.38574C 49.4336 9.38574 49.0234 9.62826 48.75 10.1133L 48.75 12.6377C 49.0202 13.1195 49.4336 13.3604 49.9902 13.3604C 50.4232 13.3604 50.7666 13.1895 51.0205 12.8477C 51.2777 12.5026 51.4062 11.9915 51.4062 11.3145ZM 54.3652 9.35645C 54.7656 8.86491 55.2865 8.61914 55.9277 8.61914C 57.0443 8.61914 57.6074 9.24902 57.6172 10.5088L 57.6172 14L 56.7139 14L 56.7139 10.5039C 56.7106 10.123 56.6227 9.84147 56.4502 9.65918C 56.2809 9.47689 56.0156 9.38574 55.6543 9.38574C 55.3613 9.38574 55.1042 9.46387 54.8828 9.62012C 54.6615 9.77637 54.4889 9.98145 54.3652 10.2354L 54.3652 14L 53.4619 14L 53.4619 6.5L 54.3652 6.5L 54.3652 9.35645Z"/>
<path id="path2_fill" d="M 0 2C 0 0.895431 0.895431 0 2 0L 88 0C 89.1046 0 90 0.895431 90 2L 90 38C 90 39.1046 89.1046 40 88 40L 2 40C 0.895431 40 0 39.1046 0 38L 0 2Z"/>
<path id="path3_fill" d="M 38.3008 -1.3252C 38.3008 -0.638346 38.1917 -0.0458984 37.9736 0.452148C 37.7555 0.94694 37.4495 1.33431 37.0557 1.61426L 38.3252 2.61035L 37.6855 3.20117L 36.1865 2.00977C 35.9521 2.06836 35.7048 2.09766 35.4443 2.09766C 34.8844 2.09766 34.388 1.96094 33.9551 1.6875C 33.5221 1.41081 33.1852 1.01855 32.9443 0.510742C 32.7067 -0.000325521 32.5846 -0.591146 32.5781 -1.26172L 32.5781 -1.77441C 32.5781 -2.45801 32.6969 -3.06185 32.9346 -3.58594C 33.1722 -4.11003 33.5075 -4.51042 33.9404 -4.78711C 34.3766 -5.06706 34.8747 -5.20703 35.4346 -5.20703C 36.0075 -5.20703 36.5104 -5.06868 36.9434 -4.79199C 37.3796 -4.5153 37.7148 -4.11654 37.9492 -3.5957C 38.1836 -3.07812 38.3008 -2.47266 38.3008 -1.7793L 38.3008 -1.3252ZM 37.3633 -1.78418C 37.3633 -2.62077 37.1956 -3.2653 36.8604 -3.71777C 36.5283 -4.1735 36.0531 -4.40137 35.4346 -4.40137C 34.8454 -4.40137 34.3799 -4.17513 34.0381 -3.72266C 33.6995 -3.27344 33.5254 -2.64844 33.5156 -1.84766L 33.5156 -1.3252C 33.5156 -0.511393 33.6849 0.129883 34.0234 0.598633C 34.3652 1.06738 34.8389 1.30176 35.4443 1.30176C 36.0498 1.30176 36.5186 1.08203 36.8506 0.642578C 37.1826 0.19987 37.3535 -0.433268 37.3633 -1.25684L 37.3633 -1.78418ZM 42.8662 1.47754C 42.5146 1.89095 41.9987 2.09766 41.3184 2.09766C 40.7552 2.09766 40.3255 1.9349 40.0293 1.60938C 39.7363 1.2806 39.5882 0.795573 39.585 0.154297L 39.585 -3.2832L 40.4883 -3.2832L 40.4883 0.129883C 40.4883 0.930664 40.8138 1.33105 41.4648 1.33105C 42.1549 1.33105 42.6139 1.07389 42.8418 0.55957L 42.8418 -3.2832L 43.7451 -3.2832L 43.7451 2L 42.8857 2L 42.8662 1.47754ZM 47.3145 2.09766C 46.5983 2.09766 46.0156 1.86328 45.5664 1.39453C 45.1172 0.922526 44.8926 0.292643 44.8926 -0.495117L 44.8926 -0.661133C 44.8926 -1.18522 44.9919 -1.65234 45.1904 -2.0625C 45.3923 -2.47591 45.6722 -2.79818 46.0303 -3.0293C 46.3916 -3.26367 46.7822 -3.38086 47.2021 -3.38086C 47.889 -3.38086 48.4229 -3.15462 48.8037 -2.70215C 49.1846 -2.24967 49.375 -1.60189 49.375 -0.758789L 49.375 -0.382812L 45.7959 -0.382812C 45.8089 0.138021 45.9603 0.55957 46.25 0.881836C 46.543 1.20085 46.9141 1.36035 47.3633 1.36035C 47.6823 1.36035 47.9525 1.29525 48.1738 1.16504C 48.3952 1.03483 48.5889 0.862305 48.7549 0.647461L 49.3066 1.07715C 48.8639 1.75749 48.1999 2.09766 47.3145 2.09766ZM 47.2021 -2.63867C 46.8376 -2.63867 46.5316 -2.50521 46.2842 -2.23828C 46.0368 -1.97461 45.8838 -1.60352 45.8252 -1.125L 48.4717 -1.125L 48.4717 -1.19336C 48.4456 -1.65234 48.3219 -2.00716 48.1006 -2.25781C 47.8792 -2.51172 47.5798 -2.63867 47.2021 -2.63867ZM 52.9785 -2.47266C 52.8418 -2.49544 52.6937 -2.50684 52.5342 -2.50684C 51.9417 -2.50684 51.5397 -2.25456 51.3281 -1.75L 51.3281 2L 50.4248 2L 50.4248 -3.2832L 51.3037 -3.2832L 51.3184 -2.67285C 51.6146 -3.14486 52.0345 -3.38086 52.5781 -3.38086C 52.7539 -3.38086 52.8874 -3.35807 52.9785 -3.3125L 52.9785 -2.47266ZM 55.6299 0.676758L 56.8604 -3.2832L 57.8271 -3.2832L 55.7031 2.81543C 55.3743 3.69434 54.8519 4.13379 54.1357 4.13379L 53.9648 4.11914L 53.6279 4.05566L 53.6279 3.32324L 53.8721 3.34277C 54.1781 3.34277 54.4157 3.28092 54.585 3.15723C 54.7575 3.03353 54.8991 2.80729 55.0098 2.47852L 55.21 1.94141L 53.3252 -3.2832L 54.3115 -3.2832L 55.6299 0.676758ZM 34.8096 10.7139L 31.7285 10.7139L 31.7285 13.2334L 35.3076 13.2334L 35.3076 14L 30.791 14L 30.791 6.89062L 35.2588 6.89062L 35.2588 7.66211L 31.7285 7.66211L 31.7285 9.94727L 34.8096 9.94727L 34.8096 10.7139ZM 37.1875 8.7168L 37.2168 9.38086C 37.6204 8.87305 38.1478 8.61914 38.7988 8.61914C 39.9154 8.61914 40.4785 9.24902 40.4883 10.5088L 40.4883 14L 39.585 14L 39.585 10.5039C 39.5817 10.123 39.4938 9.84147 39.3213 9.65918C 39.152 9.47689 38.8867 9.38574 38.5254 9.38574C 38.2324 9.38574 37.9753 9.46387 37.7539 9.62012C 37.5326 9.77637 37.36 9.98145 37.2363 10.2354L 37.2363 14L 36.333 14L 36.333 8.7168L 37.1875 8.7168ZM 41.6357 11.3145C 41.6357 10.4909 41.8262 9.83659 42.207 9.35156C 42.5879 8.86328 43.0924 8.61914 43.7207 8.61914C 44.3652 8.61914 44.8682 8.84701 45.2295 9.30273L 45.2734 8.7168L 46.0986 8.7168L 46.0986 13.873C 46.0986 14.5566 45.8952 15.0954 45.4883 15.4893C 45.0846 15.8831 44.541 16.0801 43.8574 16.0801C 43.4766 16.0801 43.1038 15.9987 42.7393 15.8359C 42.3747 15.6732 42.0964 15.4502 41.9043 15.167L 42.373 14.625C 42.7604 15.1035 43.234 15.3428 43.7939 15.3428C 44.2334 15.3428 44.5752 15.2191 44.8193 14.9717C 45.0667 14.7243 45.1904 14.376 45.1904 13.9268L 45.1904 13.4727C 44.8291 13.8893 44.3359 14.0977 43.7109 14.0977C 43.0924 14.0977 42.5911 13.8486 42.207 13.3506C 41.8262 12.8525 41.6357 12.1738 41.6357 11.3145ZM 42.5439 11.417C 42.5439 12.0127 42.666 12.4814 42.9102 12.8232C 43.1543 13.1618 43.4961 13.3311 43.9355 13.3311C 44.5052 13.3311 44.9235 13.0723 45.1904 12.5547L 45.1904 10.1426C 44.9137 9.63802 44.4987 9.38574 43.9453 9.38574C 43.5059 9.38574 43.1624 9.55664 42.915 9.89844C 42.6676 10.2402 42.5439 10.7464 42.5439 11.417ZM 48.4473 14L 47.5439 14L 47.5439 8.7168L 48.4473 8.7168L 48.4473 14ZM 47.4707 7.31543C 47.4707 7.16895 47.5146 7.04525 47.6025 6.94434C 47.6937 6.84342 47.8271 6.79297 48.0029 6.79297C 48.1787 6.79297 48.3122 6.84342 48.4033 6.94434C 48.4945 7.04525 48.54 7.16895 48.54 7.31543C 48.54 7.46191 48.4945 7.58398 48.4033 7.68164C 48.3122 7.7793 48.1787 7.82812 48.0029 7.82812C 47.8271 7.82812 47.6937 7.7793 47.6025 7.68164C 47.5146 7.58398 47.4707 7.46191 47.4707 7.31543ZM 50.752 8.7168L 50.7812 9.38086C 51.1849 8.87305 51.7122 8.61914 52.3633 8.61914C 53.4798 8.61914 54.043 9.24902 54.0527 10.5088L 54.0527 14L 53.1494 14L 53.1494 10.5039C 53.1462 10.123 53.0583 9.84147 52.8857 9.65918C 52.7165 9.47689 52.4512 9.38574 52.0898 9.38574C 51.7969 9.38574 51.5397 9.46387 51.3184 9.62012C 51.097 9.77637 50.9245 9.98145 50.8008 10.2354L 50.8008 14L 49.8975 14L 49.8975 8.7168L 50.752 8.7168ZM 57.6074 14.0977C 56.8913 14.0977 56.3086 13.8633 55.8594 13.3945C 55.4102 12.9225 55.1855 12.2926 55.1855 11.5049L 55.1855 11.3389C 55.1855 10.8148 55.2848 10.3477 55.4834 9.9375C 55.6852 9.52409 55.9652 9.20182 56.3232 8.9707C 56.6846 8.73633 57.0752 8.61914 57.4951 8.61914C 58.182 8.61914 58.7158 8.84538 59.0967 9.29785C 59.4775 9.75033 59.668 10.3981 59.668 11.2412L 59.668 11.6172L 56.0889 11.6172C 56.1019 12.138 56.2533 12.5596 56.543 12.8818C 56.8359 13.2008 57.207 13.3604 57.6562 13.3604C 57.9753 13.3604 58.2454 13.2952 58.4668 13.165C 58.6882 13.0348 58.8818 12.8623 59.0479 12.6475L 59.5996 13.0771C 59.1569 13.7575 58.4928 14.0977 57.6074 14.0977ZM 57.4951 9.36133C 57.1305 9.36133 56.8245 9.49479 56.5771 9.76172C 56.3298 10.0254 56.1768 10.3965 56.1182 10.875L 58.7646 10.875L 58.7646 10.8066C 58.7386 10.3477 58.6149 9.99284 58.3936 9.74219C 58.1722 9.48828 57.8727 9.36133 57.4951 9.36133Z"/>
<path id="path4_stroke" d="M 30 0L 20 -5.7735L 20 5.7735L 30 0ZM 0 1L 1.875 1L 1.875 -1L 0 -1L 0 1ZM 5.625 1L 9.375 1L 9.375 -1L 5.625 -1L 5.625 1ZM 13.125 1L 16.875 1L 16.875 -1L 13.125 -1L 13.125 1ZM 20.625 1L 24.375 1L 24.375 -1L 20.625 -1L 20.625 1Z"/>
<path id="path5_stroke" d="M 30 0L 20 -5.7735L 20 5.7735L 30 0ZM 0 1L 21 1L 21 -1L 0 -1L 0 1Z"/>
<path id="path6_stroke" d="M 0 1L 80 1L 80 -1L 0 -1L 0 1ZM 80 29L 0 29L 0 31L 80 31L 80 29Z"/>
<path id="path7_fill" d="M 20 10C 20 15.5228 15.5228 20 10 20C 4.47715 20 0 15.5228 0 10C 0 4.47715 4.47715 0 10 0C 15.5228 0 20 4.47715 20 10Z"/>
<path id="path8_fill" d="M 2.03613 1.89062L 4.36035 7.69141L 6.68457 1.89062L 7.90039 1.89062L 7.90039 9L 6.96289 9L 6.96289 6.23145L 7.05078 3.24316L 4.7168 9L 3.99902 9L 1.66992 3.25781L 1.7627 6.23145L 1.7627 9L 0.825195 9L 0.825195 1.89062L 2.03613 1.89062ZM 11.6064 9.09766C 10.8903 9.09766 10.3076 8.86328 9.8584 8.39453C 9.40918 7.92253 9.18457 7.29264 9.18457 6.50488L 9.18457 6.33887C 9.18457 5.81478 9.28385 5.34766 9.48242 4.9375C 9.68424 4.52409 9.96419 4.20182 10.3223 3.9707C 10.6836 3.73633 11.0742 3.61914 11.4941 3.61914C 12.181 3.61914 12.7148 3.84538 13.0957 4.29785C 13.4766 4.75033 13.667 5.39811 13.667 6.24121L 13.667 6.61719L 10.0879 6.61719C 10.1009 7.13802 10.2523 7.55957 10.542 7.88184C 10.835 8.20085 11.2061 8.36035 11.6553 8.36035C 11.9743 8.36035 12.2445 8.29525 12.4658 8.16504C 12.6872 8.03483 12.8809 7.8623 13.0469 7.64746L 13.5986 8.07715C 13.1559 8.75749 12.4919 9.09766 11.6064 9.09766ZM 11.4941 4.36133C 11.1296 4.36133 10.8236 4.49479 10.5762 4.76172C 10.3288 5.02539 10.1758 5.39648 10.1172 5.875L 12.7637 5.875L 12.7637 5.80664C 12.7376 5.34766 12.6139 4.99284 12.3926 4.74219C 12.1712 4.48828 11.8717 4.36133 11.4941 4.36133ZM 17.793 7.59863C 17.793 7.35449 17.7002 7.16569 17.5146 7.03223C 17.3324 6.89551 17.0117 6.77832 16.5527 6.68066C 16.097 6.58301 15.734 6.46582 15.4639 6.3291C 15.1969 6.19238 14.9984 6.02962 14.8682 5.84082C 14.7412 5.65202 14.6777 5.42741 14.6777 5.16699C 14.6777 4.73405 14.86 4.36784 15.2246 4.06836C 15.5924 3.76888 16.0612 3.61914 16.6309 3.61914C 17.2298 3.61914 17.7148 3.77376 18.0859 4.08301C 18.4603 4.39225 18.6475 4.78776 18.6475 5.26953L 17.7393 5.26953C 17.7393 5.02214 17.6335 4.80892 17.4219 4.62988C 17.2135 4.45085 16.9499 4.36133 16.6309 4.36133C 16.3021 4.36133 16.0449 4.43294 15.8594 4.57617C 15.6738 4.7194 15.5811 4.90658 15.5811 5.1377C 15.5811 5.35579 15.6673 5.52018 15.8398 5.63086C 16.0124 5.74154 16.3232 5.84733 16.7725 5.94824C 17.2249 6.04915 17.5911 6.1696 17.8711 6.30957C 18.151 6.44954 18.3577 6.61882 18.4912 6.81738C 18.6279 7.0127 18.6963 7.25195 18.6963 7.53516C 18.6963 8.00716 18.5075 8.38639 18.1299 8.67285C 17.7523 8.95605 17.2624 9.09766 16.6602 9.09766C 16.237 9.09766 15.8626 9.02279 15.5371 8.87305C 15.2116 8.72331 14.9561 8.51497 14.7705 8.24805C 14.5882 7.97786 14.4971 7.68652 14.4971 7.37402L 15.4004 7.37402C 15.4167 7.67676 15.5371 7.91764 15.7617 8.09668C 15.9896 8.27246 16.2891 8.36035 16.6602 8.36035C 17.002 8.36035 17.2754 8.29199 17.4805 8.15527C 17.6888 8.0153 17.793 7.82975 17.793 7.59863ZM 22.9492 7.59863C 22.9492 7.35449 22.8564 7.16569 22.6709 7.03223C 22.4886 6.89551 22.168 6.77832 21.709 6.68066C 21.2533 6.58301 20.8903 6.46582 20.6201 6.3291C 20.3532 6.19238 20.1546 6.02962 20.0244 5.84082C 19.8975 5.65202 19.834 5.42741 19.834 5.16699C 19.834 4.73405 20.0163 4.36784 20.3809 4.06836C 20.7487 3.76888 21.2174 3.61914 21.7871 3.61914C 22.3861 3.61914 22.8711 3.77376 23.2422 4.08301C 23.6165 4.39225 23.8037 4.78776 23.8037 5.26953L 22.8955 5.26953C 22.8955 5.02214 22.7897 4.80892 22.5781 4.62988C 22.3698 4.45085 22.1061 4.36133 21.7871 4.36133C 21.4583 4.36133 21.2012 4.43294 21.0156 4.57617C 20.8301 4.7194 20.7373 4.90658 20.7373 5.1377C 20.7373 5.35579 20.8236 5.52018 20.9961 5.63086C 21.1686 5.74154 21.4795 5.84733 21.9287 5.94824C 22.3812 6.04915 22.7474 6.1696 23.0273 6.30957C 23.3073 6.44954 23.514 6.61882 23.6475 6.81738C 23.7842 7.0127 23.8525 7.25195 23.8525 7.53516C 23.8525 8.00716 23.6637 8.38639 23.2861 8.67285C 22.9085 8.95605 22.4186 9.09766 21.8164 9.09766C 21.3932 9.09766 21.0189 9.02279 20.6934 8.87305C 20.3678 8.72331 20.1123 8.51497 19.9268 8.24805C 19.7445 7.97786 19.6533 7.68652 19.6533 7.37402L 20.5566 7.37402C 20.5729 7.67676 20.6934 7.91764 20.918 8.09668C 21.1458 8.27246 21.4453 8.36035 21.8164 8.36035C 22.1582 8.36035 22.4316 8.29199 22.6367 8.15527C 22.8451 8.0153 22.9492 7.82975 22.9492 7.59863ZM 28.291 9C 28.2389 8.89583 28.1966 8.71029 28.1641 8.44336C 27.7441 8.87956 27.2428 9.09766 26.6602 9.09766C 26.1393 9.09766 25.7113 8.95117 25.376 8.6582C 25.0439 8.36198 24.8779 7.98763 24.8779 7.53516C 24.8779 6.98503 25.0863 6.55859 25.5029 6.25586C 25.9229 5.94987 26.512 5.79688 27.2705 5.79688L 28.1494 5.79688L 28.1494 5.38184C 28.1494 5.06608 28.055 4.81543 27.8662 4.62988C 27.6774 4.44108 27.3991 4.34668 27.0312 4.34668C 26.709 4.34668 26.4388 4.42806 26.2207 4.59082C 26.0026 4.75358 25.8936 4.95052 25.8936 5.18164L 24.9854 5.18164C 24.9854 4.91797 25.0781 4.66406 25.2637 4.41992C 25.4525 4.17253 25.7064 3.97721 26.0254 3.83398C 26.3477 3.69076 26.7008 3.61914 27.085 3.61914C 27.6937 3.61914 28.1706 3.77214 28.5156 4.07812C 28.8607 4.38086 29.0397 4.79915 29.0527 5.33301L 29.0527 7.76465C 29.0527 8.24967 29.1146 8.63542 29.2383 8.92188L 29.2383 9L 28.291 9ZM 26.792 8.31152C 27.0752 8.31152 27.3438 8.23828 27.5977 8.0918C 27.8516 7.94531 28.0355 7.75488 28.1494 7.52051L 28.1494 6.43652L 27.4414 6.43652C 26.3346 6.43652 25.7812 6.76042 25.7812 7.4082C 25.7812 7.69141 25.8757 7.91276 26.0645 8.07227C 26.2533 8.23177 26.4958 8.31152 26.792 8.31152ZM 30.2539 6.31445C 30.2539 5.49089 30.4443 4.83659 30.8252 4.35156C 31.2061 3.86328 31.7106 3.61914 32.3389 3.61914C 32.9834 3.61914 33.4863 3.84701 33.8477 4.30273L 33.8916 3.7168L 34.7168 3.7168L 34.7168 8.87305C 34.7168 9.55664 34.5133 10.0954 34.1064 10.4893C 33.7028 10.8831 33.1592 11.0801 32.4756 11.0801C 32.0947 11.0801 31.722 10.9987 31.3574 10.8359C 30.9928 10.6732 30.7145 10.4502 30.5225 10.167L 30.9912 9.625C 31.3786 10.1035 31.8522 10.3428 32.4121 10.3428C 32.8516 10.3428 33.1934 10.2191 33.4375 9.97168C 33.6849 9.72428 33.8086 9.37598 33.8086 8.92676L 33.8086 8.47266C 33.4473 8.88932 32.9541 9.09766 32.3291 9.09766C 31.7106 9.09766 31.2093 8.84863 30.8252 8.35059C 30.4443 7.85254 30.2539 7.17383 30.2539 6.31445ZM 31.1621 6.41699C 31.1621 7.0127 31.2842 7.48145 31.5283 7.82324C 31.7725 8.16178 32.1143 8.33105 32.5537 8.33105C 33.1234 8.33105 33.5417 8.07227 33.8086 7.55469L 33.8086 5.14258C 33.5319 4.63802 33.1169 4.38574 32.5635 4.38574C 32.124 4.38574 31.7806 4.55664 31.5332 4.89844C 31.2858 5.24023 31.1621 5.74642 31.1621 6.41699ZM 38.2764 9.09766C 37.5602 9.09766 36.9775 8.86328 36.5283 8.39453C 36.0791 7.92253 35.8545 7.29264 35.8545 6.50488L 35.8545 6.33887C 35.8545 5.81478 35.9538 5.34766 36.1523 4.9375C 36.3542 4.52409 36.6341 4.20182 36.9922 3.9707C 37.3535 3.73633 37.7441 3.61914 38.1641 3.61914C 38.8509 3.61914 39.3848 3.84538 39.7656 4.29785C 40.1465 4.75033 40.3369 5.39811 40.3369 6.24121L 40.3369 6.61719L 36.7578 6.61719C 36.7708 7.13802 36.9222 7.55957 37.2119 7.88184C 37.5049 8.20085 37.876 8.36035 38.3252 8.36035C 38.6442 8.36035 38.9144 8.29525 39.1357 8.16504C 39.3571 8.03483 39.5508 7.8623 39.7168 7.64746L 40.2686 8.07715C 39.8258 8.75749 39.1618 9.09766 38.2764 9.09766ZM 38.1641 4.36133C 37.7995 4.36133 37.4935 4.49479 37.2461 4.76172C 36.9987 5.02539 36.8457 5.39648 36.7871 5.875L 39.4336 5.875L 39.4336 5.80664C 39.4076 5.34766 39.2839 4.99284 39.0625 4.74219C 38.8411 4.48828 38.5417 4.36133 38.1641 4.36133ZM 46.1035 5.83105C 45.2995 5.59993 44.7135 5.31673 44.3457 4.98145C 43.9811 4.6429 43.7988 4.22624 43.7988 3.73145C 43.7988 3.17155 44.0218 2.70931 44.4678 2.34473C 44.917 1.97689 45.4997 1.79297 46.2158 1.79297C 46.7041 1.79297 47.1387 1.88737 47.5195 2.07617C 47.9036 2.26497 48.1999 2.52539 48.4082 2.85742C 48.6198 3.18945 48.7256 3.55241 48.7256 3.94629L 47.7832 3.94629C 47.7832 3.5166 47.6465 3.17969 47.373 2.93555C 47.0996 2.68815 46.7139 2.56445 46.2158 2.56445C 45.7536 2.56445 45.3923 2.66699 45.1318 2.87207C 44.8747 3.07389 44.7461 3.35547 44.7461 3.7168C 44.7461 4.00651 44.8682 4.25228 45.1123 4.4541C 45.3597 4.65267 45.778 4.83496 46.3672 5.00098C 46.9596 5.16699 47.4219 5.35091 47.7539 5.55273C 48.0892 5.7513 48.3366 5.98405 48.4961 6.25098C 48.6589 6.5179 48.7402 6.83203 48.7402 7.19336C 48.7402 7.76953 48.5156 8.23177 48.0664 8.58008C 47.6172 8.92513 47.0166 9.09766 46.2646 9.09766C 45.7764 9.09766 45.3206 9.00488 44.8975 8.81934C 44.4743 8.63053 44.1471 8.37337 43.916 8.04785C 43.6882 7.72233 43.5742 7.35286 43.5742 6.93945L 44.5166 6.93945C 44.5166 7.36914 44.6745 7.70931 44.9902 7.95996C 45.3092 8.20736 45.734 8.33105 46.2646 8.33105C 46.7594 8.33105 47.1387 8.23014 47.4023 8.02832C 47.666 7.8265 47.7979 7.55143 47.7979 7.20312C 47.7979 6.85482 47.6758 6.58626 47.4316 6.39746C 47.1875 6.2054 46.7448 6.0166 46.1035 5.83105ZM 51.0303 2.4375L 51.0303 3.7168L 52.0166 3.7168L 52.0166 4.41504L 51.0303 4.41504L 51.0303 7.69141C 51.0303 7.90299 51.0742 8.0625 51.1621 8.16992C 51.25 8.27409 51.3997 8.32617 51.6113 8.32617C 51.7155 8.32617 51.8587 8.30664 52.041 8.26758L 52.041 9C 51.8034 9.0651 51.5723 9.09766 51.3477 9.09766C 50.944 9.09766 50.6396 8.97559 50.4346 8.73145C 50.2295 8.4873 50.127 8.14062 50.127 7.69141L 50.127 4.41504L 49.165 4.41504L 49.165 3.7168L 50.127 3.7168L 50.127 2.4375L 51.0303 2.4375ZM 55.6299 4.52734C 55.4932 4.50456 55.3451 4.49316 55.1855 4.49316C 54.5931 4.49316 54.1911 4.74544 53.9795 5.25L 53.9795 9L 53.0762 9L 53.0762 3.7168L 53.9551 3.7168L 53.9697 4.32715C 54.266 3.85514 54.6859 3.61914 55.2295 3.61914C 55.4053 3.61914 55.5387 3.64193 55.6299 3.6875L 55.6299 4.52734ZM 58.5596 9.09766C 57.8434 9.09766 57.2607 8.86328 56.8115 8.39453C 56.3623 7.92253 56.1377 7.29264 56.1377 6.50488L 56.1377 6.33887C 56.1377 5.81478 56.237 5.34766 56.4355 4.9375C 56.6374 4.52409 56.9173 4.20182 57.2754 3.9707C 57.6367 3.73633 58.0273 3.61914 58.4473 3.61914C 59.1341 3.61914 59.668 3.84538 60.0488 4.29785C 60.4297 4.75033 60.6201 5.39811 60.6201 6.24121L 60.6201 6.61719L 57.041 6.61719C 57.054 7.13802 57.2054 7.55957 57.4951 7.88184C 57.7881 8.20085 58.1592 8.36035 58.6084 8.36035C 58.9274 8.36035 59.1976 8.29525 59.4189 8.16504C 59.6403 8.03483 59.834 7.8623 60 7.64746L 60.5518 8.07715C 60.109 8.75749 59.445 9.09766 58.5596 9.09766ZM 58.4473 4.36133C 58.0827 4.36133 57.7767 4.49479 57.5293 4.76172C 57.2819 5.02539 57.1289 5.39648 57.0703 5.875L 59.7168 5.875L 59.7168 5.80664C 59.6908 5.34766 59.5671 4.99284 59.3457 4.74219C 59.1243 4.48828 58.8249 4.36133 58.4473 4.36133ZM 64.9316 9C 64.8796 8.89583 64.8372 8.71029 64.8047 8.44336C 64.3848 8.87956 63.8835 9.09766 63.3008 9.09766C 62.7799 9.09766 62.3519 8.95117 62.0166 8.6582C 61.6846 8.36198 61.5186 7.98763 61.5186 7.53516C 61.5186 6.98503 61.7269 6.55859 62.1436 6.25586C 62.5635 5.94987 63.1527 5.79688 63.9111 5.79688L 64.79 5.79688L 64.79 5.38184C 64.79 5.06608 64.6956 4.81543 64.5068 4.62988C 64.318 4.44108 64.0397 4.34668 63.6719 4.34668C 63.3496 4.34668 63.0794 4.42806 62.8613 4.59082C 62.6432 4.75358 62.5342 4.95052 62.5342 5.18164L 61.626 5.18164C 61.626 4.91797 61.7188 4.66406 61.9043 4.41992C 62.0931 4.17253 62.347 3.97721 62.666 3.83398C 62.9883 3.69076 63.3415 3.61914 63.7256 3.61914C 64.3343 3.61914 64.8112 3.77214 65.1562 4.07812C 65.5013 4.38086 65.6803 4.79915 65.6934 5.33301L 65.6934 7.76465C 65.6934 8.24967 65.7552 8.63542 65.8789 8.92188L 65.8789 9L 64.9316 9ZM 63.4326 8.31152C 63.7158 8.31152 63.9844 8.23828 64.2383 8.0918C 64.4922 7.94531 64.6761 7.75488 64.79 7.52051L 64.79 6.43652L 64.082 6.43652C 62.9753 6.43652 62.4219 6.76042 62.4219 7.4082C 62.4219 7.69141 62.5163 7.91276 62.7051 8.07227C 62.8939 8.23177 63.1364 8.31152 63.4326 8.31152ZM 67.959 3.7168L 67.9834 4.30273C 68.3708 3.84701 68.8932 3.61914 69.5508 3.61914C 70.2897 3.61914 70.7926 3.90234 71.0596 4.46875C 71.2354 4.21484 71.4632 4.00977 71.7432 3.85352C 72.0264 3.69727 72.36 3.61914 72.7441 3.61914C 73.903 3.61914 74.4922 4.23275 74.5117 5.45996L 74.5117 9L 73.6084 9L 73.6084 5.51367C 73.6084 5.13607 73.5221 4.85449 73.3496 4.66895C 73.1771 4.48014 72.8874 4.38574 72.4805 4.38574C 72.1452 4.38574 71.8669 4.48665 71.6455 4.68848C 71.4242 4.88704 71.2956 5.1556 71.2598 5.49414L 71.2598 9L 70.3516 9L 70.3516 5.53809C 70.3516 4.76986 69.9756 4.38574 69.2236 4.38574C 68.6312 4.38574 68.2259 4.63802 68.0078 5.14258L 68.0078 9L 67.1045 9L 67.1045 3.7168L 67.959 3.7168Z"/>
<path id="path9_fill" d="M 11.9238 2L 10.9814 2L 7.40234 -3.47852L 7.40234 2L 6.45996 2L 6.45996 -5.10938L 7.40234 -5.10938L 10.9912 0.393555L 10.9912 -5.10938L 11.9238 -5.10938L 11.9238 2ZM 16.709 2C 16.6569 1.89583 16.6146 1.71029 16.582 1.44336C 16.1621 1.87956 15.6608 2.09766 15.0781 2.09766C 14.5573 2.09766 14.1292 1.95117 13.7939 1.6582C 13.4619 1.36198 13.2959 0.98763 13.2959 0.535156C 13.2959 -0.014974 13.5042 -0.441406 13.9209 -0.744141C 14.3408 -1.05013 14.93 -1.20312 15.6885 -1.20312L 16.5674 -1.20312L 16.5674 -1.61816C 16.5674 -1.93392 16.473 -2.18457 16.2842 -2.37012C 16.0954 -2.55892 15.8171 -2.65332 15.4492 -2.65332C 15.127 -2.65332 14.8568 -2.57194 14.6387 -2.40918C 14.4206 -2.24642 14.3115 -2.04948 14.3115 -1.81836L 13.4033 -1.81836C 13.4033 -2.08203 13.4961 -2.33594 13.6816 -2.58008C 13.8704 -2.82747 14.1243 -3.02279 14.4434 -3.16602C 14.7656 -3.30924 15.1188 -3.38086 15.5029 -3.38086C 16.1117 -3.38086 16.5885 -3.22786 16.9336 -2.92188C 17.2786 -2.61914 17.4577 -2.20085 17.4707 -1.66699L 17.4707 0.764648C 17.4707 1.24967 17.5326 1.63542 17.6562 1.92188L 17.6562 2L 16.709 2ZM 15.21 1.31152C 15.4932 1.31152 15.7617 1.23828 16.0156 1.0918C 16.2695 0.945312 16.4535 0.754883 16.5674 0.520508L 16.5674 -0.563477L 15.8594 -0.563477C 14.7526 -0.563477 14.1992 -0.239583 14.1992 0.408203C 14.1992 0.691406 14.2936 0.91276 14.4824 1.07227C 14.6712 1.23177 14.9137 1.31152 15.21 1.31152ZM 20.1123 -4.5625L 20.1123 -3.2832L 21.0986 -3.2832L 21.0986 -2.58496L 20.1123 -2.58496L 20.1123 0.691406C 20.1123 0.902995 20.1562 1.0625 20.2441 1.16992C 20.332 1.27409 20.4818 1.32617 20.6934 1.32617C 20.7975 1.32617 20.9408 1.30664 21.123 1.26758L 21.123 2C 20.8854 2.0651 20.6543 2.09766 20.4297 2.09766C 20.026 2.09766 19.7217 1.97559 19.5166 1.73145C 19.3115 1.4873 19.209 1.14062 19.209 0.691406L 19.209 -2.58496L 18.2471 -2.58496L 18.2471 -3.2832L 19.209 -3.2832L 19.209 -4.5625L 20.1123 -4.5625ZM 25.4199 1.47754C 25.0684 1.89095 24.5524 2.09766 23.8721 2.09766C 23.3089 2.09766 22.8792 1.9349 22.583 1.60938C 22.29 1.2806 22.1419 0.795573 22.1387 0.154297L 22.1387 -3.2832L 23.042 -3.2832L 23.042 0.129883C 23.042 0.930664 23.3675 1.33105 24.0186 1.33105C 24.7087 1.33105 25.1676 1.07389 25.3955 0.55957L 25.3955 -3.2832L 26.2988 -3.2832L 26.2988 2L 25.4395 2L 25.4199 1.47754ZM 30.2295 -2.47266C 30.0928 -2.49544 29.9447 -2.50684 29.7852 -2.50684C 29.1927 -2.50684 28.7907 -2.25456 28.5791 -1.75L 28.5791 2L 27.6758 2L 27.6758 -3.2832L 28.5547 -3.2832L 28.5693 -2.67285C 28.8656 -3.14486 29.2855 -3.38086 29.8291 -3.38086C 30.0049 -3.38086 30.1383 -3.35807 30.2295 -3.3125L 30.2295 -2.47266ZM 34.1309 2C 34.0788 1.89583 34.0365 1.71029 34.0039 1.44336C 33.584 1.87956 33.0827 2.09766 32.5 2.09766C 31.9792 2.09766 31.5511 1.95117 31.2158 1.6582C 30.8838 1.36198 30.7178 0.98763 30.7178 0.535156C 30.7178 -0.014974 30.9261 -0.441406 31.3428 -0.744141C 31.7627 -1.05013 32.3519 -1.20312 33.1104 -1.20312L 33.9893 -1.20312L 33.9893 -1.61816C 33.9893 -1.93392 33.8949 -2.18457 33.7061 -2.37012C 33.5173 -2.55892 33.2389 -2.65332 32.8711 -2.65332C 32.5488 -2.65332 32.2786 -2.57194 32.0605 -2.40918C 31.8424 -2.24642 31.7334 -2.04948 31.7334 -1.81836L 30.8252 -1.81836C 30.8252 -2.08203 30.918 -2.33594 31.1035 -2.58008C 31.2923 -2.82747 31.5462 -3.02279 31.8652 -3.16602C 32.1875 -3.30924 32.5407 -3.38086 32.9248 -3.38086C 33.5335 -3.38086 34.0104 -3.22786 34.3555 -2.92188C 34.7005 -2.61914 34.8796 -2.20085 34.8926 -1.66699L 34.8926 0.764648C 34.8926 1.24967 34.9544 1.63542 35.0781 1.92188L 35.0781 2L 34.1309 2ZM 32.6318 1.31152C 32.915 1.31152 33.1836 1.23828 33.4375 1.0918C 33.6914 0.945312 33.8753 0.754883 33.9893 0.520508L 33.9893 -0.563477L 33.2812 -0.563477C 32.1745 -0.563477 31.6211 -0.239583 31.6211 0.408203C 31.6211 0.691406 31.7155 0.91276 31.9043 1.07227C 32.0931 1.23177 32.3356 1.31152 32.6318 1.31152ZM 37.29 2L 36.3867 2L 36.3867 -5.5L 37.29 -5.5L 37.29 2ZM 42.3047 1.2334L 45.6738 1.2334L 45.6738 2L 41.3623 2L 41.3623 -5.10938L 42.3047 -5.10938L 42.3047 1.2334ZM 49.8633 2C 49.8112 1.89583 49.7689 1.71029 49.7363 1.44336C 49.3164 1.87956 48.8151 2.09766 48.2324 2.09766C 47.7116 2.09766 47.2835 1.95117 46.9482 1.6582C 46.6162 1.36198 46.4502 0.98763 46.4502 0.535156C 46.4502 -0.014974 46.6585 -0.441406 47.0752 -0.744141C 47.4951 -1.05013 48.0843 -1.20312 48.8428 -1.20312L 49.7217 -1.20312L 49.7217 -1.61816C 49.7217 -1.93392 49.6273 -2.18457 49.4385 -2.37012C 49.2497 -2.55892 48.9714 -2.65332 48.6035 -2.65332C 48.2812 -2.65332 48.0111 -2.57194 47.793 -2.40918C 47.5749 -2.24642 47.4658 -2.04948 47.4658 -1.81836L 46.5576 -1.81836C 46.5576 -2.08203 46.6504 -2.33594 46.8359 -2.58008C 47.0247 -2.82747 47.2786 -3.02279 47.5977 -3.16602C 47.9199 -3.30924 48.2731 -3.38086 48.6572 -3.38086C 49.266 -3.38086 49.7428 -3.22786 50.0879 -2.92188C 50.4329 -2.61914 50.612 -2.20085 50.625 -1.66699L 50.625 0.764648C 50.625 1.24967 50.6868 1.63542 50.8105 1.92188L 50.8105 2L 49.8633 2ZM 48.3643 1.31152C 48.6475 1.31152 48.916 1.23828 49.1699 1.0918C 49.4238 0.945312 49.6077 0.754883 49.7217 0.520508L 49.7217 -0.563477L 49.0137 -0.563477C 47.9069 -0.563477 47.3535 -0.239583 47.3535 0.408203C 47.3535 0.691406 47.4479 0.91276 47.6367 1.07227C 47.8255 1.23177 48.068 1.31152 48.3643 1.31152ZM 52.8955 -3.2832L 52.9248 -2.61914C 53.3285 -3.12695 53.8558 -3.38086 54.5068 -3.38086C 55.6234 -3.38086 56.1865 -2.75098 56.1963 -1.49121L 56.1963 2L 55.293 2L 55.293 -1.49609C 55.2897 -1.87695 55.2018 -2.15853 55.0293 -2.34082C 54.86 -2.52311 54.5947 -2.61426 54.2334 -2.61426C 53.9404 -2.61426 53.6833 -2.53613 53.4619 -2.37988C 53.2406 -2.22363 53.068 -2.01855 52.9443 -1.76465L 52.9443 2L 52.041 2L 52.041 -3.2832L 52.8955 -3.2832ZM 57.3438 -0.685547C 57.3438 -1.50911 57.5342 -2.16341 57.915 -2.64844C 58.2959 -3.13672 58.8005 -3.38086 59.4287 -3.38086C 60.0732 -3.38086 60.5762 -3.15299 60.9375 -2.69727L 60.9814 -3.2832L 61.8066 -3.2832L 61.8066 1.87305C 61.8066 2.55664 61.6032 3.09538 61.1963 3.48926C 60.7926 3.88314 60.249 4.08008 59.5654 4.08008C 59.1846 4.08008 58.8118 3.9987 58.4473 3.83594C 58.0827 3.67318 57.8044 3.4502 57.6123 3.16699L 58.0811 2.625C 58.4684 3.10352 58.9421 3.34277 59.502 3.34277C 59.9414 3.34277 60.2832 3.21908 60.5273 2.97168C 60.7747 2.72428 60.8984 2.37598 60.8984 1.92676L 60.8984 1.47266C 60.5371 1.88932 60.0439 2.09766 59.4189 2.09766C 58.8005 2.09766 58.2992 1.84863 57.915 1.35059C 57.5342 0.852539 57.3438 0.173828 57.3438 -0.685547ZM 58.252 -0.583008C 58.252 0.0126953 58.374 0.481445 58.6182 0.823242C 58.8623 1.16178 59.2041 1.33105 59.6436 1.33105C 60.2132 1.33105 60.6315 1.07227 60.8984 0.554688L 60.8984 -1.85742C 60.6217 -2.36198 60.2067 -2.61426 59.6533 -2.61426C 59.2139 -2.61426 58.8704 -2.44336 58.623 -2.10156C 58.3757 -1.75977 58.252 -1.25358 58.252 -0.583008ZM 66.4355 1.47754C 66.084 1.89095 65.568 2.09766 64.8877 2.09766C 64.3245 2.09766 63.8949 1.9349 63.5986 1.60938C 63.3057 1.2806 63.1576 0.795573 63.1543 0.154297L 63.1543 -3.2832L 64.0576 -3.2832L 64.0576 0.129883C 64.0576 0.930664 64.3831 1.33105 65.0342 1.33105C 65.7243 1.33105 66.1833 1.07389 66.4111 0.55957L 66.4111 -3.2832L 67.3145 -3.2832L 67.3145 2L 66.4551 2L 66.4355 1.47754ZM 71.9531 2C 71.901 1.89583 71.8587 1.71029 71.8262 1.44336C 71.4062 1.87956 70.9049 2.09766 70.3223 2.09766C 69.8014 2.09766 69.3734 1.95117 69.0381 1.6582C 68.7061 1.36198 68.54 0.98763 68.54 0.535156C 68.54 -0.014974 68.7484 -0.441406 69.165 -0.744141C 69.585 -1.05013 70.1742 -1.20312 70.9326 -1.20312L 71.8115 -1.20312L 71.8115 -1.61816C 71.8115 -1.93392 71.7171 -2.18457 71.5283 -2.37012C 71.3395 -2.55892 71.0612 -2.65332 70.6934 -2.65332C 70.3711 -2.65332 70.1009 -2.57194 69.8828 -2.40918C 69.6647 -2.24642 69.5557 -2.04948 69.5557 -1.81836L 68.6475 -1.81836C 68.6475 -2.08203 68.7402 -2.33594 68.9258 -2.58008C 69.1146 -2.82747 69.3685 -3.02279 69.6875 -3.16602C 70.0098 -3.30924 70.363 -3.38086 70.7471 -3.38086C 71.3558 -3.38086 71.8327 -3.22786 72.1777 -2.92188C 72.5228 -2.61914 72.7018 -2.20085 72.7148 -1.66699L 72.7148 0.764648C 72.7148 1.24967 72.7767 1.63542 72.9004 1.92188L 72.9004 2L 71.9531 2ZM 70.4541 1.31152C 70.7373 1.31152 71.0059 1.23828 71.2598 1.0918C 71.5137 0.945312 71.6976 0.754883 71.8115 0.520508L 71.8115 -0.563477L 71.1035 -0.563477C 69.9967 -0.563477 69.4434 -0.239583 69.4434 0.408203C 69.4434 0.691406 69.5378 0.91276 69.7266 1.07227C 69.9154 1.23177 70.1579 1.31152 70.4541 1.31152ZM 73.916 -0.685547C 73.916 -1.50911 74.1064 -2.16341 74.4873 -2.64844C 74.8682 -3.13672 75.3727 -3.38086 76.001 -3.38086C 76.6455 -3.38086 77.1484 -3.15299 77.5098 -2.69727L 77.5537 -3.2832L 78.3789 -3.2832L 78.3789 1.87305C 78.3789 2.55664 78.1755 3.09538 77.7686 3.48926C 77.3649 3.88314 76.8213 4.08008 76.1377 4.08008C 75.7568 4.08008 75.3841 3.9987 75.0195 3.83594C 74.6549 3.67318 74.3766 3.4502 74.1846 3.16699L 74.6533 2.625C 75.0407 3.10352 75.5143 3.34277 76.0742 3.34277C 76.5137 3.34277 76.8555 3.21908 77.0996 2.97168C 77.347 2.72428 77.4707 2.37598 77.4707 1.92676L 77.4707 1.47266C 77.1094 1.88932 76.6162 2.09766 75.9912 2.09766C 75.3727 2.09766 74.8714 1.84863 74.4873 1.35059C 74.1064 0.852539 73.916 0.173828 73.916 -0.685547ZM 74.8242 -0.583008C 74.8242 0.0126953 74.9463 0.481445 75.1904 0.823242C 75.4346 1.16178 75.7764 1.33105 76.2158 1.33105C 76.7855 1.33105 77.2038 1.07227 77.4707 0.554688L 77.4707 -1.85742C 77.194 -2.36198 76.779 -2.61426 76.2256 -2.61426C 75.7861 -2.61426 75.4427 -2.44336 75.1953 -2.10156C 74.9479 -1.75977 74.8242 -1.25358 74.8242 -0.583008ZM 81.9385 2.09766C 81.2223 2.09766 80.6396 1.86328 80.1904 1.39453C 79.7412 0.922526 79.5166 0.292643 79.5166 -0.495117L 79.5166 -0.661133C 79.5166 -1.18522 79.6159 -1.65234 79.8145 -2.0625C 80.0163 -2.47591 80.2962 -2.79818 80.6543 -3.0293C 81.0156 -3.26367 81.4062 -3.38086 81.8262 -3.38086C 82.513 -3.38086 83.0469 -3.15462 83.4277 -2.70215C 83.8086 -2.24967 83.999 -1.60189 83.999 -0.758789L 83.999 -0.382812L 80.4199 -0.382812C 80.4329 0.138021 80.5843 0.55957 80.874 0.881836C 81.167 1.20085 81.5381 1.36035 81.9873 1.36035C 82.3063 1.36035 82.5765 1.29525 82.7979 1.16504C 83.0192 1.03483 83.2129 0.862305 83.3789 0.647461L 83.9307 1.07715C 83.488 1.75749 82.8239 2.09766 81.9385 2.09766ZM 81.8262 -2.63867C 81.4616 -2.63867 81.1556 -2.50521 80.9082 -2.23828C 80.6608 -1.97461 80.5078 -1.60352 80.4492 -1.125L 83.0957 -1.125L 83.0957 -1.19336C 83.0697 -1.65234 82.946 -2.00716 82.7246 -2.25781C 82.5033 -2.51172 82.2038 -2.63867 81.8262 -2.63867ZM 21.9043 11.2168L 21.9043 14L 20.9668 14L 20.9668 6.89062L 23.5889 6.89062C 24.3669 6.89062 24.9756 7.08919 25.415 7.48633C 25.8577 7.88346 26.0791 8.40918 26.0791 9.06348C 26.0791 9.75358 25.8626 10.2858 25.4297 10.6602C 25 11.0312 24.3831 11.2168 23.5791 11.2168L 21.9043 11.2168ZM 21.9043 10.4502L 23.5889 10.4502C 24.0902 10.4502 24.4743 10.333 24.7412 10.0986C 25.0081 9.861 25.1416 9.51921 25.1416 9.07324C 25.1416 8.65007 25.0081 8.31152 24.7412 8.05762C 24.4743 7.80371 24.1081 7.67188 23.6426 7.66211L 21.9043 7.66211L 21.9043 10.4502ZM 29.6875 9.52734C 29.5508 9.50456 29.4027 9.49316 29.2432 9.49316C 28.6507 9.49316 28.2487 9.74544 28.0371 10.25L 28.0371 14L 27.1338 14L 27.1338 8.7168L 28.0127 8.7168L 28.0273 9.32715C 28.3236 8.85514 28.7435 8.61914 29.2871 8.61914C 29.4629 8.61914 29.5964 8.64193 29.6875 8.6875L 29.6875 9.52734ZM 30.1855 11.3096C 30.1855 10.792 30.2865 10.3265 30.4883 9.91309C 30.6934 9.49967 30.9766 9.18066 31.3379 8.95605C 31.7025 8.73145 32.1175 8.61914 32.583 8.61914C 33.3024 8.61914 33.8835 8.86816 34.3262 9.36621C 34.7721 9.86426 34.9951 10.5267 34.9951 11.3535L 34.9951 11.417C 34.9951 11.9313 34.8958 12.3936 34.6973 12.8037C 34.502 13.2106 34.2204 13.528 33.8525 13.7559C 33.488 13.9837 33.068 14.0977 32.5928 14.0977C 31.8766 14.0977 31.2956 13.8486 30.8496 13.3506C 30.4069 12.8525 30.1855 12.1934 30.1855 11.373L 30.1855 11.3096ZM 31.0938 11.417C 31.0938 12.0029 31.2288 12.4733 31.499 12.8281C 31.7725 13.1829 32.137 13.3604 32.5928 13.3604C 33.0518 13.3604 33.4163 13.1813 33.6865 12.8232C 33.9567 12.4619 34.0918 11.9574 34.0918 11.3096C 34.0918 10.7301 33.9535 10.2614 33.6768 9.90332C 33.4033 9.54199 33.0387 9.36133 32.583 9.36133C 32.137 9.36133 31.7773 9.53874 31.5039 9.89355C 31.2305 10.2484 31.0938 10.7562 31.0938 11.417ZM 38.2471 13.3604C 38.5693 13.3604 38.8509 13.2627 39.0918 13.0674C 39.3327 12.8721 39.4661 12.6279 39.4922 12.335L 40.3467 12.335C 40.3304 12.6377 40.2262 12.9258 40.0342 13.1992C 39.8421 13.4727 39.585 13.6908 39.2627 13.8535C 38.9437 14.0163 38.6051 14.0977 38.2471 14.0977C 37.5277 14.0977 36.9548 13.8584 36.5283 13.3799C 36.1051 12.8981 35.8936 12.2406 35.8936 11.4072L 35.8936 11.2559C 35.8936 10.7415 35.988 10.2842 36.1768 9.88379C 36.3656 9.4834 36.6357 9.17253 36.9873 8.95117C 37.3421 8.72982 37.7604 8.61914 38.2422 8.61914C 38.8346 8.61914 39.3262 8.79655 39.7168 9.15137C 40.1107 9.50618 40.3206 9.9668 40.3467 10.5332L 39.4922 10.5332C 39.4661 10.1914 39.3359 9.91146 39.1016 9.69336C 38.8704 9.47201 38.584 9.36133 38.2422 9.36133C 37.7832 9.36133 37.4268 9.52734 37.1729 9.85938C 36.9222 10.1882 36.7969 10.665 36.7969 11.29L 36.7969 11.4609C 36.7969 12.0697 36.9222 12.5384 37.1729 12.8672C 37.4235 13.196 37.7816 13.3604 38.2471 13.3604ZM 43.5547 14.0977C 42.8385 14.0977 42.2559 13.8633 41.8066 13.3945C 41.3574 12.9225 41.1328 12.2926 41.1328 11.5049L 41.1328 11.3389C 41.1328 10.8148 41.2321 10.3477 41.4307 9.9375C 41.6325 9.52409 41.9124 9.20182 42.2705 8.9707C 42.6318 8.73633 43.0225 8.61914 43.4424 8.61914C 44.1292 8.61914 44.6631 8.84538 45.0439 9.29785C 45.4248 9.75033 45.6152 10.3981 45.6152 11.2412L 45.6152 11.6172L 42.0361 11.6172C 42.0492 12.138 42.2005 12.5596 42.4902 12.8818C 42.7832 13.2008 43.1543 13.3604 43.6035 13.3604C 43.9225 13.3604 44.1927 13.2952 44.4141 13.165C 44.6354 13.0348 44.8291 12.8623 44.9951 12.6475L 45.5469 13.0771C 45.1042 13.7575 44.4401 14.0977 43.5547 14.0977ZM 43.4424 9.36133C 43.0778 9.36133 42.7718 9.49479 42.5244 9.76172C 42.277 10.0254 42.124 10.3965 42.0654 10.875L 44.7119 10.875L 44.7119 10.8066C 44.6859 10.3477 44.5622 9.99284 44.3408 9.74219C 44.1195 9.48828 43.82 9.36133 43.4424 9.36133ZM 49.7412 12.5986C 49.7412 12.3545 49.6484 12.1657 49.4629 12.0322C 49.2806 11.8955 48.96 11.7783 48.501 11.6807C 48.0452 11.583 47.6823 11.4658 47.4121 11.3291C 47.1452 11.1924 46.9466 11.0296 46.8164 10.8408C 46.6895 10.652 46.626 10.4274 46.626 10.167C 46.626 9.73405 46.8083 9.36784 47.1729 9.06836C 47.5407 8.76888 48.0094 8.61914 48.5791 8.61914C 49.1781 8.61914 49.6631 8.77376 50.0342 9.08301C 50.4085 9.39225 50.5957 9.78776 50.5957 10.2695L 49.6875 10.2695C 49.6875 10.0221 49.5817 9.80892 49.3701 9.62988C 49.1618 9.45085 48.8981 9.36133 48.5791 9.36133C 48.2503 9.36133 47.9932 9.43294 47.8076 9.57617C 47.6221 9.7194 47.5293 9.90658 47.5293 10.1377C 47.5293 10.3558 47.6156 10.5202 47.7881 10.6309C 47.9606 10.7415 48.2715 10.8473 48.7207 10.9482C 49.1732 11.0492 49.5394 11.1696 49.8193 11.3096C 50.0993 11.4495 50.306 11.6188 50.4395 11.8174C 50.5762 12.0127 50.6445 12.252 50.6445 12.5352C 50.6445 13.0072 50.4557 13.3864 50.0781 13.6729C 49.7005 13.9561 49.2106 14.0977 48.6084 14.0977C 48.1852 14.0977 47.8109 14.0228 47.4854 13.873C 47.1598 13.7233 46.9043 13.515 46.7188 13.248C 46.5365 12.9779 46.4453 12.6865 46.4453 12.374L 47.3486 12.374C 47.3649 12.6768 47.4854 12.9176 47.71 13.0967C 47.9378 13.2725 48.2373 13.3604 48.6084 13.3604C 48.9502 13.3604 49.2236 13.292 49.4287 13.1553C 49.637 13.0153 49.7412 12.8298 49.7412 12.5986ZM 54.8975 12.5986C 54.8975 12.3545 54.8047 12.1657 54.6191 12.0322C 54.4368 11.8955 54.1162 11.7783 53.6572 11.6807C 53.2015 11.583 52.8385 11.4658 52.5684 11.3291C 52.3014 11.1924 52.1029 11.0296 51.9727 10.8408C 51.8457 10.652 51.7822 10.4274 51.7822 10.167C 51.7822 9.73405 51.9645 9.36784 52.3291 9.06836C 52.6969 8.76888 53.1657 8.61914 53.7354 8.61914C 54.3343 8.61914 54.8193 8.77376 55.1904 9.08301C 55.5648 9.39225 55.752 9.78776 55.752 10.2695L 54.8438 10.2695C 54.8438 10.0221 54.738 9.80892 54.5264 9.62988C 54.318 9.45085 54.0544 9.36133 53.7354 9.36133C 53.4066 9.36133 53.1494 9.43294 52.9639 9.57617C 52.7783 9.7194 52.6855 9.90658 52.6855 10.1377C 52.6855 10.3558 52.7718 10.5202 52.9443 10.6309C 53.1169 10.7415 53.4277 10.8473 53.877 10.9482C 54.3294 11.0492 54.6956 11.1696 54.9756 11.3096C 55.2555 11.4495 55.4622 11.6188 55.5957 11.8174C 55.7324 12.0127 55.8008 12.252 55.8008 12.5352C 55.8008 13.0072 55.612 13.3864 55.2344 13.6729C 54.8568 13.9561 54.3669 14.0977 53.7646 14.0977C 53.3415 14.0977 52.9671 14.0228 52.6416 13.873C 52.3161 13.7233 52.0605 13.515 51.875 13.248C 51.6927 12.9779 51.6016 12.6865 51.6016 12.374L 52.5049 12.374C 52.5212 12.6768 52.6416 12.9176 52.8662 13.0967C 53.0941 13.2725 53.3936 13.3604 53.7646 13.3604C 54.1064 13.3604 54.3799 13.292 54.585 13.1553C 54.7933 13.0153 54.8975 12.8298 54.8975 12.5986ZM 57.959 14L 57.0557 14L 57.0557 8.7168L 57.959 8.7168L 57.959 14ZM 56.9824 7.31543C 56.9824 7.16895 57.0264 7.04525 57.1143 6.94434C 57.2054 6.84342 57.3389 6.79297 57.5146 6.79297C 57.6904 6.79297 57.8239 6.84342 57.915 6.94434C 58.0062 7.04525 58.0518 7.16895 58.0518 7.31543C 58.0518 7.46191 58.0062 7.58398 57.915 7.68164C 57.8239 7.7793 57.6904 7.82812 57.5146 7.82812C 57.3389 7.82812 57.2054 7.7793 57.1143 7.68164C 57.0264 7.58398 56.9824 7.46191 56.9824 7.31543ZM 60.2637 8.7168L 60.293 9.38086C 60.6966 8.87305 61.224 8.61914 61.875 8.61914C 62.9915 8.61914 63.5547 9.24902 63.5645 10.5088L 63.5645 14L 62.6611 14L 62.6611 10.5039C 62.6579 10.123 62.57 9.84147 62.3975 9.65918C 62.2282 9.47689 61.9629 9.38574 61.6016 9.38574C 61.3086 9.38574 61.0514 9.46387 60.8301 9.62012C 60.6087 9.77637 60.4362 9.98145 60.3125 10.2354L 60.3125 14L 59.4092 14L 59.4092 8.7168L 60.2637 8.7168ZM 64.7119 11.3145C 64.7119 10.4909 64.9023 9.83659 65.2832 9.35156C 65.6641 8.86328 66.1686 8.61914 66.7969 8.61914C 67.4414 8.61914 67.9443 8.84701 68.3057 9.30273L 68.3496 8.7168L 69.1748 8.7168L 69.1748 13.873C 69.1748 14.5566 68.9714 15.0954 68.5645 15.4893C 68.1608 15.8831 67.6172 16.0801 66.9336 16.0801C 66.5527 16.0801 66.18 15.9987 65.8154 15.8359C 65.4508 15.6732 65.1725 15.4502 64.9805 15.167L 65.4492 14.625C 65.8366 15.1035 66.3102 15.3428 66.8701 15.3428C 67.3096 15.3428 67.6514 15.2191 67.8955 14.9717C 68.1429 14.7243 68.2666 14.376 68.2666 13.9268L 68.2666 13.4727C 67.9053 13.8893 67.4121 14.0977 66.7871 14.0977C 66.1686 14.0977 65.6673 13.8486 65.2832 13.3506C 64.9023 12.8525 64.7119 12.1738 64.7119 11.3145ZM 65.6201 11.417C 65.6201 12.0127 65.7422 12.4814 65.9863 12.8232C 66.2305 13.1618 66.5723 13.3311 67.0117 13.3311C 67.5814 13.3311 67.9997 13.0723 68.2666 12.5547L 68.2666 10.1426C 67.9899 9.63802 67.5749 9.38574 67.0215 9.38574C 66.582 9.38574 66.2386 9.55664 65.9912 9.89844C 65.7438 10.2402 65.6201 10.7464 65.6201 11.417Z"/>
<path id="path10_fill" d="M 23.0371 -1.30566L 22.168 -0.402344L 22.168 2L 21.2305 2L 21.2305 -5.10938L 22.168 -5.10938L 22.168 -1.59375L 25.3271 -5.10938L 26.46 -5.10938L 23.6621 -1.96973L 26.6797 2L 25.5566 2L 23.0371 -1.30566ZM 28.0957 -3.2832L 28.125 -2.61914C 28.5286 -3.12695 29.056 -3.38086 29.707 -3.38086C 30.8236 -3.38086 31.3867 -2.75098 31.3965 -1.49121L 31.3965 2L 30.4932 2L 30.4932 -1.49609C 30.4899 -1.87695 30.402 -2.15853 30.2295 -2.34082C 30.0602 -2.52311 29.7949 -2.61426 29.4336 -2.61426C 29.1406 -2.61426 28.8835 -2.53613 28.6621 -2.37988C 28.4408 -2.22363 28.2682 -2.01855 28.1445 -1.76465L 28.1445 2L 27.2412 2L 27.2412 -3.2832L 28.0957 -3.2832ZM 32.5195 -0.69043C 32.5195 -1.20801 32.6204 -1.6735 32.8223 -2.08691C 33.0273 -2.50033 33.3105 -2.81934 33.6719 -3.04395C 34.0365 -3.26855 34.4515 -3.38086 34.917 -3.38086C 35.6364 -3.38086 36.2174 -3.13184 36.6602 -2.63379C 37.1061 -2.13574 37.3291 -1.47331 37.3291 -0.646484L 37.3291 -0.583008C 37.3291 -0.0686849 37.2298 0.393555 37.0312 0.803711C 36.8359 1.21061 36.5544 1.52799 36.1865 1.75586C 35.8219 1.98372 35.402 2.09766 34.9268 2.09766C 34.2106 2.09766 33.6296 1.84863 33.1836 1.35059C 32.7409 0.852539 32.5195 0.193359 32.5195 -0.626953L 32.5195 -0.69043ZM 33.4277 -0.583008C 33.4277 0.00292969 33.5628 0.473307 33.833 0.828125C 34.1064 1.18294 34.471 1.36035 34.9268 1.36035C 35.3857 1.36035 35.7503 1.18132 36.0205 0.823242C 36.2907 0.461914 36.4258 -0.0426432 36.4258 -0.69043C 36.4258 -1.26986 36.2874 -1.73861 36.0107 -2.09668C 35.7373 -2.45801 35.3727 -2.63867 34.917 -2.63867C 34.471 -2.63867 34.1113 -2.46126 33.8379 -2.10645C 33.5645 -1.75163 33.4277 -1.24382 33.4277 -0.583008ZM 43.1396 0.754883L 44.1553 -3.2832L 45.0586 -3.2832L 43.5205 2L 42.7881 2L 41.5039 -2.00391L 40.2539 2L 39.5215 2L 37.9883 -3.2832L 38.8867 -3.2832L 39.9268 0.671875L 41.1572 -3.2832L 41.8848 -3.2832L 43.1396 0.754883ZM 46.9629 2L 46.0596 2L 46.0596 -5.5L 46.9629 -5.5L 46.9629 2ZM 50.6055 2.09766C 49.8893 2.09766 49.3066 1.86328 48.8574 1.39453C 48.4082 0.922526 48.1836 0.292643 48.1836 -0.495117L 48.1836 -0.661133C 48.1836 -1.18522 48.2829 -1.65234 48.4814 -2.0625C 48.6833 -2.47591 48.9632 -2.79818 49.3213 -3.0293C 49.6826 -3.26367 50.0732 -3.38086 50.4932 -3.38086C 51.18 -3.38086 51.7139 -3.15462 52.0947 -2.70215C 52.4756 -2.24967 52.666 -1.60189 52.666 -0.758789L 52.666 -0.382812L 49.0869 -0.382812C 49.0999 0.138021 49.2513 0.55957 49.541 0.881836C 49.834 1.20085 50.2051 1.36035 50.6543 1.36035C 50.9733 1.36035 51.2435 1.29525 51.4648 1.16504C 51.6862 1.03483 51.8799 0.862305 52.0459 0.647461L 52.5977 1.07715C 52.1549 1.75749 51.4909 2.09766 50.6055 2.09766ZM 50.4932 -2.63867C 50.1286 -2.63867 49.8226 -2.50521 49.5752 -2.23828C 49.3278 -1.97461 49.1748 -1.60352 49.1162 -1.125L 51.7627 -1.125L 51.7627 -1.19336C 51.7367 -1.65234 51.613 -2.00716 51.3916 -2.25781C 51.1702 -2.51172 50.8708 -2.63867 50.4932 -2.63867ZM 53.4961 -0.685547C 53.4961 -1.49609 53.6882 -2.14714 54.0723 -2.63867C 54.4564 -3.13346 54.9593 -3.38086 55.5811 -3.38086C 56.1995 -3.38086 56.6895 -3.16927 57.0508 -2.74609L 57.0508 -5.5L 57.9541 -5.5L 57.9541 2L 57.124 2L 57.0801 1.43359C 56.7188 1.8763 56.2158 2.09766 55.5713 2.09766C 54.9593 2.09766 54.4596 1.84701 54.0723 1.3457C 53.6882 0.844401 53.4961 0.190104 53.4961 -0.617188L 53.4961 -0.685547ZM 54.3994 -0.583008C 54.3994 0.0159505 54.5231 0.484701 54.7705 0.823242C 55.0179 1.16178 55.3597 1.33105 55.7959 1.33105C 56.3688 1.33105 56.7871 1.07389 57.0508 0.55957L 57.0508 -1.86719C 56.7806 -2.36523 56.3656 -2.61426 55.8057 -2.61426C 55.363 -2.61426 55.0179 -2.44336 54.7705 -2.10156C 54.5231 -1.75977 54.3994 -1.25358 54.3994 -0.583008ZM 59.1455 -0.685547C 59.1455 -1.50911 59.3359 -2.16341 59.7168 -2.64844C 60.0977 -3.13672 60.6022 -3.38086 61.2305 -3.38086C 61.875 -3.38086 62.3779 -3.15299 62.7393 -2.69727L 62.7832 -3.2832L 63.6084 -3.2832L 63.6084 1.87305C 63.6084 2.55664 63.4049 3.09538 62.998 3.48926C 62.5944 3.88314 62.0508 4.08008 61.3672 4.08008C 60.9863 4.08008 60.6136 3.9987 60.249 3.83594C 59.8844 3.67318 59.6061 3.4502 59.4141 3.16699L 59.8828 2.625C 60.2702 3.10352 60.7438 3.34277 61.3037 3.34277C 61.7432 3.34277 62.085 3.21908 62.3291 2.97168C 62.5765 2.72428 62.7002 2.37598 62.7002 1.92676L 62.7002 1.47266C 62.3389 1.88932 61.8457 2.09766 61.2207 2.09766C 60.6022 2.09766 60.1009 1.84863 59.7168 1.35059C 59.3359 0.852539 59.1455 0.173828 59.1455 -0.685547ZM 60.0537 -0.583008C 60.0537 0.0126953 60.1758 0.481445 60.4199 0.823242C 60.6641 1.16178 61.0059 1.33105 61.4453 1.33105C 62.015 1.33105 62.4333 1.07227 62.7002 0.554688L 62.7002 -1.85742C 62.4235 -2.36198 62.0085 -2.61426 61.4551 -2.61426C 61.0156 -2.61426 60.6722 -2.44336 60.4248 -2.10156C 60.1774 -1.75977 60.0537 -1.25358 60.0537 -0.583008ZM 67.168 2.09766C 66.4518 2.09766 65.8691 1.86328 65.4199 1.39453C 64.9707 0.922526 64.7461 0.292643 64.7461 -0.495117L 64.7461 -0.661133C 64.7461 -1.18522 64.8454 -1.65234 65.0439 -2.0625C 65.2458 -2.47591 65.5257 -2.79818 65.8838 -3.0293C 66.2451 -3.26367 66.6357 -3.38086 67.0557 -3.38086C 67.7425 -3.38086 68.2764 -3.15462 68.6572 -2.70215C 69.0381 -2.24967 69.2285 -1.60189 69.2285 -0.758789L 69.2285 -0.382812L 65.6494 -0.382812C 65.6624 0.138021 65.8138 0.55957 66.1035 0.881836C 66.3965 1.20085 66.7676 1.36035 67.2168 1.36035C 67.5358 1.36035 67.806 1.29525 68.0273 1.16504C 68.2487 1.03483 68.4424 0.862305 68.6084 0.647461L 69.1602 1.07715C 68.7174 1.75749 68.0534 2.09766 67.168 2.09766ZM 67.0557 -2.63867C 66.6911 -2.63867 66.3851 -2.50521 66.1377 -2.23828C 65.8903 -1.97461 65.7373 -1.60352 65.6787 -1.125L 68.3252 -1.125L 68.3252 -1.19336C 68.2992 -1.65234 68.1755 -2.00716 67.9541 -2.25781C 67.7327 -2.51172 67.4333 -2.63867 67.0557 -2.63867ZM 15.7715 13.0674C 15.5306 13.4124 15.1937 13.6712 14.7607 13.8438C 14.3311 14.013 13.8298 14.0977 13.2568 14.0977C 12.6774 14.0977 12.1631 13.9626 11.7139 13.6924C 11.2646 13.4189 10.9163 13.0316 10.6689 12.5303C 10.4248 12.029 10.2995 11.4479 10.293 10.7871L 10.293 10.167C 10.293 9.09603 10.542 8.26595 11.04 7.67676C 11.5413 7.08757 12.2445 6.79297 13.1494 6.79297C 13.8916 6.79297 14.4889 6.9834 14.9414 7.36426C 15.3939 7.74186 15.6706 8.27897 15.7715 8.97559L 14.834 8.97559C 14.6582 8.03483 14.0983 7.56445 13.1543 7.56445C 12.526 7.56445 12.0492 7.78581 11.7236 8.22852C 11.4014 8.66797 11.2386 9.30599 11.2354 10.1426L 11.2354 10.7236C 11.2354 11.5212 11.4176 12.1559 11.7822 12.6279C 12.1468 13.0967 12.64 13.3311 13.2617 13.3311C 13.6133 13.3311 13.9209 13.292 14.1846 13.2139C 14.4482 13.1357 14.6663 13.0039 14.8389 12.8184L 14.8389 11.2217L 13.1934 11.2217L 13.1934 10.46L 15.7715 10.46L 15.7715 13.0674ZM 19.751 9.52734C 19.6143 9.50456 19.4661 9.49316 19.3066 9.49316C 18.7142 9.49316 18.3122 9.74544 18.1006 10.25L 18.1006 14L 17.1973 14L 17.1973 8.7168L 18.0762 8.7168L 18.0908 9.32715C 18.387 8.85514 18.807 8.61914 19.3506 8.61914C 19.5264 8.61914 19.6598 8.64193 19.751 8.6875L 19.751 9.52734ZM 23.6523 14C 23.6003 13.8958 23.5579 13.7103 23.5254 13.4434C 23.1055 13.8796 22.6042 14.0977 22.0215 14.0977C 21.5007 14.0977 21.0726 13.9512 20.7373 13.6582C 20.4053 13.362 20.2393 12.9876 20.2393 12.5352C 20.2393 11.985 20.4476 11.5586 20.8643 11.2559C 21.2842 10.9499 21.8734 10.7969 22.6318 10.7969L 23.5107 10.7969L 23.5107 10.3818C 23.5107 10.0661 23.4163 9.81543 23.2275 9.62988C 23.0387 9.44108 22.7604 9.34668 22.3926 9.34668C 22.0703 9.34668 21.8001 9.42806 21.582 9.59082C 21.3639 9.75358 21.2549 9.95052 21.2549 10.1816L 20.3467 10.1816C 20.3467 9.91797 20.4395 9.66406 20.625 9.41992C 20.8138 9.17253 21.0677 8.97721 21.3867 8.83398C 21.709 8.69076 22.0622 8.61914 22.4463 8.61914C 23.055 8.61914 23.5319 8.77214 23.877 9.07812C 24.222 9.38086 24.401 9.79915 24.4141 10.333L 24.4141 12.7646C 24.4141 13.2497 24.4759 13.6354 24.5996 13.9219L 24.5996 14L 23.6523 14ZM 22.1533 13.3115C 22.4365 13.3115 22.7051 13.2383 22.959 13.0918C 23.2129 12.9453 23.3968 12.7549 23.5107 12.5205L 23.5107 11.4365L 22.8027 11.4365C 21.696 11.4365 21.1426 11.7604 21.1426 12.4082C 21.1426 12.6914 21.237 12.9128 21.4258 13.0723C 21.6146 13.2318 21.8571 13.3115 22.1533 13.3115ZM 30.293 11.417C 30.293 12.221 30.109 12.8688 29.7412 13.3604C 29.3734 13.8519 28.8753 14.0977 28.2471 14.0977C 27.6058 14.0977 27.1012 13.8942 26.7334 13.4873L 26.7334 16.0312L 25.8301 16.0312L 25.8301 8.7168L 26.6553 8.7168L 26.6992 9.30273C 27.0671 8.84701 27.5781 8.61914 28.2324 8.61914C 28.8672 8.61914 29.3685 8.8584 29.7363 9.33691C 30.1074 9.81543 30.293 10.4811 30.293 11.334L 30.293 11.417ZM 29.3896 11.3145C 29.3896 10.7188 29.2627 10.2484 29.0088 9.90332C 28.7549 9.55827 28.4066 9.38574 27.9639 9.38574C 27.417 9.38574 27.0068 9.62826 26.7334 10.1133L 26.7334 12.6377C 27.0036 13.1195 27.417 13.3604 27.9736 13.3604C 28.4066 13.3604 28.75 13.1895 29.0039 12.8477C 29.2611 12.5026 29.3896 11.9915 29.3896 11.3145ZM 32.3486 9.35645C 32.749 8.86491 33.2699 8.61914 33.9111 8.61914C 35.0277 8.61914 35.5908 9.24902 35.6006 10.5088L 35.6006 14L 34.6973 14L 34.6973 10.5039C 34.694 10.123 34.6061 9.84147 34.4336 9.65918C 34.2643 9.47689 33.999 9.38574 33.6377 9.38574C 33.3447 9.38574 33.0876 9.46387 32.8662 9.62012C 32.6449 9.77637 32.4723 9.98145 32.3486 10.2354L 32.3486 14L 31.4453 14L 31.4453 6.5L 32.3486 6.5L 32.3486 9.35645ZM 40.5811 14L 39.6436 14L 39.6436 6.89062L 40.5811 6.89062L 40.5811 14ZM 43.0127 8.7168L 43.042 9.38086C 43.4456 8.87305 43.973 8.61914 44.624 8.61914C 45.7406 8.61914 46.3037 9.24902 46.3135 10.5088L 46.3135 14L 45.4102 14L 45.4102 10.5039C 45.4069 10.123 45.319 9.84147 45.1465 9.65918C 44.9772 9.47689 44.7119 9.38574 44.3506 9.38574C 44.0576 9.38574 43.8005 9.46387 43.5791 9.62012C 43.3577 9.77637 43.1852 9.98145 43.0615 10.2354L 43.0615 14L 42.1582 14L 42.1582 8.7168L 43.0127 8.7168ZM 48.1201 14L 48.1201 9.41504L 47.2852 9.41504L 47.2852 8.7168L 48.1201 8.7168L 48.1201 8.1748C 48.1201 7.6084 48.2715 7.17057 48.5742 6.86133C 48.877 6.55208 49.305 6.39746 49.8584 6.39746C 50.0667 6.39746 50.2734 6.42513 50.4785 6.48047L 50.4297 7.21289C 50.2767 7.18359 50.1139 7.16895 49.9414 7.16895C 49.6484 7.16895 49.4222 7.25521 49.2627 7.42773C 49.1032 7.59701 49.0234 7.84115 49.0234 8.16016L 49.0234 8.7168L 50.1514 8.7168L 50.1514 9.41504L 49.0234 9.41504L 49.0234 14L 48.1201 14ZM 53.2275 14.0977C 52.5114 14.0977 51.9287 13.8633 51.4795 13.3945C 51.0303 12.9225 50.8057 12.2926 50.8057 11.5049L 50.8057 11.3389C 50.8057 10.8148 50.9049 10.3477 51.1035 9.9375C 51.3053 9.52409 51.5853 9.20182 51.9434 8.9707C 52.3047 8.73633 52.6953 8.61914 53.1152 8.61914C 53.8021 8.61914 54.3359 8.84538 54.7168 9.29785C 55.0977 9.75033 55.2881 10.3981 55.2881 11.2412L 55.2881 11.6172L 51.709 11.6172C 51.722 12.138 51.8734 12.5596 52.1631 12.8818C 52.4561 13.2008 52.8271 13.3604 53.2764 13.3604C 53.5954 13.3604 53.8656 13.2952 54.0869 13.165C 54.3083 13.0348 54.502 12.8623 54.668 12.6475L 55.2197 13.0771C 54.777 13.7575 54.113 14.0977 53.2275 14.0977ZM 53.1152 9.36133C 52.7507 9.36133 52.4447 9.49479 52.1973 9.76172C 51.9499 10.0254 51.7969 10.3965 51.7383 10.875L 54.3848 10.875L 54.3848 10.8066C 54.3587 10.3477 54.235 9.99284 54.0137 9.74219C 53.7923 9.48828 53.4928 9.36133 53.1152 9.36133ZM 58.8916 9.52734C 58.7549 9.50456 58.6068 9.49316 58.4473 9.49316C 57.8548 9.49316 57.4528 9.74544 57.2412 10.25L 57.2412 14L 56.3379 14L 56.3379 8.7168L 57.2168 8.7168L 57.2314 9.32715C 57.5277 8.85514 57.9476 8.61914 58.4912 8.61914C 58.667 8.61914 58.8005 8.64193 58.8916 8.6875L 58.8916 9.52734ZM 61.8213 14.0977C 61.1051 14.0977 60.5225 13.8633 60.0732 13.3945C 59.624 12.9225 59.3994 12.2926 59.3994 11.5049L 59.3994 11.3389C 59.3994 10.8148 59.4987 10.3477 59.6973 9.9375C 59.8991 9.52409 60.179 9.20182 60.5371 8.9707C 60.8984 8.73633 61.2891 8.61914 61.709 8.61914C 62.3958 8.61914 62.9297 8.84538 63.3105 9.29785C 63.6914 9.75033 63.8818 10.3981 63.8818 11.2412L 63.8818 11.6172L 60.3027 11.6172C 60.3158 12.138 60.4671 12.5596 60.7568 12.8818C 61.0498 13.2008 61.4209 13.3604 61.8701 13.3604C 62.1891 13.3604 62.4593 13.2952 62.6807 13.165C 62.902 13.0348 63.0957 12.8623 63.2617 12.6475L 63.8135 13.0771C 63.3708 13.7575 62.7067 14.0977 61.8213 14.0977ZM 61.709 9.36133C 61.3444 9.36133 61.0384 9.49479 60.791 9.76172C 60.5436 10.0254 60.3906 10.3965 60.332 10.875L 62.9785 10.875L 62.9785 10.8066C 62.9525 10.3477 62.8288 9.99284 62.6074 9.74219C 62.3861 9.48828 62.0866 9.36133 61.709 9.36133ZM 65.7861 8.7168L 65.8154 9.38086C 66.2191 8.87305 66.7464 8.61914 67.3975 8.61914C 68.514 8.61914 69.0771 9.24902 69.0869 10.5088L 69.0869 14L 68.1836 14L 68.1836 10.5039C 68.1803 10.123 68.0924 9.84147 67.9199 9.65918C 67.7507 9.47689 67.4854 9.38574 67.124 9.38574C 66.8311 9.38574 66.5739 9.46387 66.3525 9.62012C 66.1312 9.77637 65.9587 9.98145 65.835 10.2354L 65.835 14L 64.9316 14L 64.9316 8.7168L 65.7861 8.7168ZM 72.5684 13.3604C 72.8906 13.3604 73.1722 13.2627 73.4131 13.0674C 73.654 12.8721 73.7874 12.6279 73.8135 12.335L 74.668 12.335C 74.6517 12.6377 74.5475 12.9258 74.3555 13.1992C 74.1634 13.4727 73.9062 13.6908 73.584 13.8535C 73.265 14.0163 72.9264 14.0977 72.5684 14.0977C 71.849 14.0977 71.276 13.8584 70.8496 13.3799C 70.4264 12.8981 70.2148 12.2406 70.2148 11.4072L 70.2148 11.2559C 70.2148 10.7415 70.3092 10.2842 70.498 9.88379C 70.6868 9.4834 70.957 9.17253 71.3086 8.95117C 71.6634 8.72982 72.0817 8.61914 72.5635 8.61914C 73.1559 8.61914 73.6475 8.79655 74.0381 9.15137C 74.432 9.50618 74.6419 9.9668 74.668 10.5332L 73.8135 10.5332C 73.7874 10.1914 73.6572 9.91146 73.4229 9.69336C 73.1917 9.47201 72.9053 9.36133 72.5635 9.36133C 72.1045 9.36133 71.748 9.52734 71.4941 9.85938C 71.2435 10.1882 71.1182 10.665 71.1182 11.29L 71.1182 11.4609C 71.1182 12.0697 71.2435 12.5384 71.4941 12.8672C 71.7448 13.196 72.1029 13.3604 72.5684 13.3604ZM 77.876 14.0977C 77.1598 14.0977 76.5771 13.8633 76.1279 13.3945C 75.6787 12.9225 75.4541 12.2926 75.4541 11.5049L 75.4541 11.3389C 75.4541 10.8148 75.5534 10.3477 75.752 9.9375C 75.9538 9.52409 76.2337 9.20182 76.5918 8.9707C 76.9531 8.73633 77.3438 8.61914 77.7637 8.61914C 78.4505 8.61914 78.9844 8.84538 79.3652 9.29785C 79.7461 9.75033 79.9365 10.3981 79.9365 11.2412L 79.9365 11.6172L 76.3574 11.6172C 76.3704 12.138 76.5218 12.5596 76.8115 12.8818C 77.1045 13.2008 77.4756 13.3604 77.9248 13.3604C 78.2438 13.3604 78.514 13.2952 78.7354 13.165C 78.9567 13.0348 79.1504 12.8623 79.3164 12.6475L 79.8682 13.0771C 79.4255 13.7575 78.7614 14.0977 77.876 14.0977ZM 77.7637 9.36133C 77.3991 9.36133 77.0931 9.49479 76.8457 9.76172C 76.5983 10.0254 76.4453 10.3965 76.3867 10.875L 79.0332 10.875L 79.0332 10.8066C 79.0072 10.3477 78.8835 9.99284 78.6621 9.74219C 78.4408 9.48828 78.1413 9.36133 77.7637 9.36133Z"/>
</defs>
</svg>
