<svg version="1.1" xmlns="http://www.w3.org/2000/svg" xmlns:xlink="http://www.w3.org/1999/xlink" width="740" height="501"><defs/><g><g transform="translate(-78,-308) scale(1,1)"><path fill="#C0C0C0" stroke="none" d="M 353 327 L 392 327 Q 402 327 402 337 L 402 356 Q 402 366 392 366 L 353 366 Q 343 366 343 356 L 343 337 Q 343 327 353 327 Z" opacity="0.2"/></g><g transform="translate(-78,-308) scale(1,1)"><path fill="#ffffff" stroke="none" d="M 346 320 L 385 320 Q 395 320 395 330 L 395 349 Q 395 359 385 359 L 346 359 Q 336 359 336 349 L 336 330 Q 336 320 346 320 Z"/></g><g transform="translate(-78,-308) scale(1,1)"><path fill="none" stroke="#000000" d="M 346 320 L 385 320 Q 395 320 395 330 L 395 349 Q 395 359 385 359 L 346 359 Q 336 359 336 349 L 336 330 Q 336 320 346 320 Z" stroke-miterlimit="10"/></g><g transform="translate(-78,-308) scale(1,1)"><g><path fill="none" stroke="none"/><text fill="#000000" stroke="none" font-family="Arial" font-size="13px" font-style="normal" font-weight="bold" text-decoration="none" x="351" y="339.5">Alice</text></g></g><g transform="translate(-78,-308) scale(1,1)"><path fill="#C0C0C0" stroke="none" d="M 225 511 L 805 511 Q 815 511 815 521 L 815 733 Q 815 743 805 743 L 225 743 Q 215 743 215 733 L 215 521 Q 215 511 225 511 Z" opacity="0.2"/></g><g transform="translate(-78,-308) scale(1,1)"><path fill="#ffffff" stroke="none" d="M 218 504 L 798 504 Q 808 504 808 514 L 808 726 Q 808 736 798 736 L 218 736 Q 208 736 208 726 L 208 514 Q 208 504 218 504 Z"/></g><g transform="translate(-78,-308) scale(1,1)"><path fill="none" stroke="#000000" d="M 218 504 L 798 504 Q 808 504 808 514 L 808 726 Q 808 736 798 736 L 218 736 Q 208 736 208 726 L 208 514 Q 208 504 218 504 Z" stroke-miterlimit="10"/></g><g transform="translate(-78,-308) scale(1,1)"><path fill="none" stroke="#000000" d="M 208 529 L 808 529" stroke-miterlimit="10"/></g><g transform="translate(-78,-308) scale(1,1)"><g><path fill="none" stroke="none"/><text fill="#000000" stroke="none" font-family="Arial" font-size="13px" font-style="normal" font-weight="bold" text-decoration="none" x="434" y="523.5">POSITIVE POSSIBILITY</text></g></g><g transform="translate(-78,-308) scale(1,1)"><path fill="#C0C0C0" stroke="none" d="M 625 327 L 664 327 Q 674 327 674 337 L 674 356 Q 674 366 664 366 L 625 366 Q 615 366 615 356 L 615 337 Q 615 327 625 327 Z" opacity="0.2"/></g><g transform="translate(-78,-308) scale(1,1)"><path fill="#ffffff" stroke="none" d="M 618 320 L 657 320 Q 667 320 667 330 L 667 349 Q 667 359 657 359 L 618 359 Q 608 359 608 349 L 608 330 Q 608 320 618 320 Z"/></g><g transform="translate(-78,-308) scale(1,1)"><path fill="none" stroke="#000000" d="M 618 320 L 657 320 Q 667 320 667 330 L 667 349 Q 667 359 657 359 L 618 359 Q 608 359 608 349 L 608 330 Q 608 320 618 320 Z" stroke-miterlimit="10"/></g><g transform="translate(-78,-308) scale(1,1)"><g><path fill="none" stroke="none"/><text fill="#000000" stroke="none" font-family="Arial" font-size="13px" font-style="normal" font-weight="bold" text-decoration="none" x="626" y="339.5">Bob</text></g></g><g transform="translate(-78,-308) scale(1,1)"><path fill="#C0C0C0" stroke="none" d="M 489 415 L 533 415 Q 543 415 543 425 L 543 444 Q 543 454 533 454 L 489 454 Q 479 454 479 444 L 479 425 Q 479 415 489 415 Z" opacity="0.2"/></g><g transform="translate(-78,-308) scale(1,1)"><path fill="#ffffff" stroke="none" d="M 482 408 L 526 408 Q 536 408 536 418 L 536 437 Q 536 447 526 447 L 482 447 Q 472 447 472 437 L 472 418 Q 472 408 482 408 Z"/></g><g transform="translate(-78,-308) scale(1,1)"><path fill="none" stroke="#000000" d="M 482 408 L 526 408 Q 536 408 536 418 L 536 437 Q 536 447 526 447 L 482 447 Q 472 447 472 437 L 472 418 Q 472 408 482 408 Z" stroke-miterlimit="10"/></g><g transform="translate(-78,-308) scale(1,1)"><g><path fill="none" stroke="none"/><text fill="#000000" stroke="none" font-family="Arial" font-size="13px" font-style="normal" font-weight="bold" text-decoration="none" x="477.5" y="427.5">message</text></g></g><g transform="translate(-78,-308) scale(1,1)"><path fill="#C0C0C0" stroke="none" d="M 353 415 L 392 415 Q 402 415 402 425 L 402 444 Q 402 454 392 454 L 353 454 Q 343 454 343 444 L 343 425 Q 343 415 353 415 Z" opacity="0.2"/></g><g transform="translate(-78,-308) scale(1,1)"><path fill="#ffffff" stroke="none" d="M 346 408 L 385 408 Q 395 408 395 418 L 395 437 Q 395 447 385 447 L 346 447 Q 336 447 336 437 L 336 418 Q 336 408 346 408 Z"/></g><g transform="translate(-78,-308) scale(1,1)"><path fill="none" stroke="#000000" d="M 346 408 L 385 408 Q 395 408 395 418 L 395 437 Q 395 447 385 447 L 346 447 Q 336 447 336 437 L 336 418 Q 336 408 346 408 Z" stroke-miterlimit="10"/></g><g transform="translate(-78,-308) scale(1,1)"><g><path fill="none" stroke="none"/><text fill="#000000" stroke="none" font-family="Arial" font-size="13px" font-style="normal" font-weight="bold" text-decoration="none" x="351.5" y="427.5">send</text></g></g><g transform="translate(-78,-308) scale(1,1)"><path fill="#C0C0C0" stroke="none" d="M 625 415 L 664 415 Q 674 415 674 425 L 674 444 Q 674 454 664 454 L 625 454 Q 615 454 615 444 L 615 425 Q 615 415 625 415 Z" opacity="0.2"/></g><g transform="translate(-78,-308) scale(1,1)"><path fill="#ffffff" stroke="none" d="M 618 408 L 657 408 Q 667 408 667 418 L 667 437 Q 667 447 657 447 L 618 447 Q 608 447 608 437 L 608 418 Q 608 408 618 408 Z"/></g><g transform="translate(-78,-308) scale(1,1)"><path fill="none" stroke="#000000" d="M 618 408 L 657 408 Q 667 408 667 418 L 667 437 Q 667 447 657 447 L 618 447 Q 608 447 608 437 L 608 418 Q 608 408 618 408 Z" stroke-miterlimit="10"/></g><g transform="translate(-78,-308) scale(1,1)"><g><path fill="none" stroke="none"/><text fill="#000000" stroke="none" font-family="Arial" font-size="13px" font-style="normal" font-weight="bold" text-decoration="none" x="616.5" y="427.5">receive</text></g></g><g transform="translate(-78,-308) scale(1,1)"><path fill="none" stroke="#000000" d="M 365 407 L 365 360" stroke-miterlimit="10"/></g><g transform="translate(-78,-308) scale(1,1)"><path fill="none" stroke="#000000" d="M 369.209517756016 370.16267485762415 L 365 360 L 360.790482243984 370.16267485762415" stroke-miterlimit="10"/></g><g transform="translate(-78,-308) scale(1,1)"><g><path fill="none" stroke="none"/><text fill="#000000" stroke="none" font-family="Arial" font-size="13px" font-style="normal" font-weight="normal" text-decoration="none" x="337.5" y="388.5">subj</text></g></g><g transform="translate(-78,-308) scale(1,1)"><path fill="none" stroke="#000000" d="M 396 427 L 471 427" stroke-miterlimit="10"/></g><g transform="translate(-78,-308) scale(1,1)"><path fill="none" stroke="#000000" d="M 460.83732514237585 431.209517756016 L 471 427 L 460.83732514237585 422.790482243984" stroke-miterlimit="10"/></g><g transform="translate(-78,-308) scale(1,1)"><g><path fill="none" stroke="none"/><text fill="#000000" stroke="none" font-family="Arial" font-size="13px" font-style="normal" font-weight="normal" text-decoration="none" x="423.5" y="444.5">obj</text></g></g><g transform="translate(-78,-308) scale(1,1)"><path fill="none" stroke="#000000" d="M 607 427 L 537 427" stroke-miterlimit="10"/></g><g transform="translate(-78,-308) scale(1,1)"><path fill="none" stroke="#000000" d="M 547.1626748576241 422.790482243984 L 537 427 L 547.1626748576241 431.209517756016" stroke-miterlimit="10"/></g><g transform="translate(-78,-308) scale(1,1)"><g><path fill="none" stroke="none"/><text fill="#000000" stroke="none" font-family="Arial" font-size="13px" font-style="normal" font-weight="normal" text-decoration="none" x="562.5" y="444.5">obj</text></g></g><g transform="translate(-78,-308) scale(1,1)"><path fill="none" stroke="#000000" d="M 637 407 L 637 360" stroke-miterlimit="10"/></g><g transform="translate(-78,-308) scale(1,1)"><path fill="none" stroke="#000000" d="M 641.209517756016 370.16267485762415 L 637 360 L 632.790482243984 370.16267485762415" stroke-miterlimit="10"/></g><g transform="translate(-78,-308) scale(1,1)"><g><path fill="none" stroke="none"/><text fill="#000000" stroke="none" font-family="Arial" font-size="13px" font-style="normal" font-weight="normal" text-decoration="none" x="609.5" y="388.5">subj</text></g></g><g transform="translate(-78,-308) scale(1,1)"><path fill="none" stroke="#000000" d="M 504 448 L 506 503" stroke-miterlimit="10"/></g><g transform="translate(-78,-308) scale(1,1)"><path fill="none" stroke="#000000" d="M 501.4239549158333 492.9970098776579 L 506 503 L 509.8374296376205 492.6910653423202" stroke-miterlimit="10"/></g><g transform="translate(-78,-308) scale(1,1)"><g><path fill="none" stroke="none"/><text fill="#000000" stroke="none" font-family="Arial" font-size="13px" font-style="normal" font-weight="normal" text-decoration="none" x="510.5" y="480.5">obj</text></g></g><g transform="translate(-78,-308) scale(1,1)"><path fill="#C0C0C0" stroke="none" d="M 561 607 L 773 607 Q 783 607 783 617 L 783 717 Q 783 727 773 727 L 561 727 Q 551 727 551 717 L 551 617 Q 551 607 561 607 Z" opacity="0.2"/></g><g transform="translate(-78,-308) scale(1,1)"><path fill="#ffffff" stroke="none" d="M 554 600 L 766 600 Q 776 600 776 610 L 776 710 Q 776 720 766 720 L 554 720 Q 544 720 544 710 L 544 610 Q 544 600 554 600 Z"/></g><g transform="translate(-78,-308) scale(1,1)"><path fill="none" stroke="#000000" d="M 554 600 L 766 600 Q 776 600 776 610 L 776 710 Q 776 720 766 720 L 554 720 Q 544 720 544 710 L 544 610 Q 544 600 554 600 Z" stroke-miterlimit="10"/></g><g transform="translate(-78,-308) scale(1,1)"><path fill="none" stroke="#000000" d="M 544 625 L 776 625" stroke-miterlimit="10"/></g><g transform="translate(-78,-308) scale(1,1)"><g><path fill="none" stroke="none"/><text fill="#000000" stroke="none" font-family="Arial" font-size="13px" font-style="normal" font-weight="bold" text-decoration="none" x="586" y="619.5">POSITIVE POSSIBILITY</text></g></g><g transform="translate(-78,-308) scale(1,1)"><path fill="#C0C0C0" stroke="none" d="M 265 591 L 400 591 Q 410 591 410 601 L 410 677 Q 410 687 400 687 L 265 687 Q 255 687 255 677 L 255 601 Q 255 591 265 591 Z" opacity="0.2"/></g><g transform="translate(-78,-308) scale(1,1)"><path fill="#ffffff" stroke="none" d="M 258 584 L 393 584 Q 403 584 403 594 L 403 670 Q 403 680 393 680 L 258 680 Q 248 680 248 670 L 248 594 Q 248 584 258 584 Z"/></g><g transform="translate(-78,-308) scale(1,1)"><path fill="none" stroke="#000000" d="M 258 584 L 393 584 Q 403 584 403 594 L 403 670 Q 403 680 393 680 L 258 680 Q 248 680 248 670 L 248 594 Q 248 584 258 584 Z" stroke-miterlimit="10"/></g><g transform="translate(-78,-308) scale(1,1)"><path fill="none" stroke="#000000" d="M 248 609 L 403 609" stroke-miterlimit="10"/></g><g transform="translate(-78,-308) scale(1,1)"><g><path fill="none" stroke="none"/><text fill="#000000" stroke="none" font-family="Arial" font-size="13px" font-style="normal" font-weight="bold" text-decoration="none" x="252.5" y="603.5">NEGATIVE NECESSITY</text></g></g><g transform="translate(-78,-308) scale(1,1)"><path fill="#C0C0C0" stroke="none" d="M 105 415 L 144 415 Q 154 415 154 425 L 154 444 Q 154 454 144 454 L 105 454 Q 95 454 95 444 L 95 425 Q 95 415 105 415 Z" opacity="0.2"/></g><g transform="translate(-78,-308) scale(1,1)"><path fill="#ffffff" stroke="none" d="M 98 408 L 137 408 Q 147 408 147 418 L 147 437 Q 147 447 137 447 L 98 447 Q 88 447 88 437 L 88 418 Q 88 408 98 408 Z"/></g><g transform="translate(-78,-308) scale(1,1)"><path fill="none" stroke="#000000" d="M 98 408 L 137 408 Q 147 408 147 418 L 147 437 Q 147 447 137 447 L 98 447 Q 88 447 88 437 L 88 418 Q 88 408 98 408 Z" stroke-miterlimit="10"/></g><g transform="translate(-78,-308) scale(1,1)"><g><path fill="none" stroke="none"/><text fill="#000000" stroke="none" font-family="Arial" font-size="13px" font-style="normal" font-weight="bold" text-decoration="none" x="105" y="427.5">time</text></g></g><g transform="translate(-78,-308) scale(1,1)"><path fill="#C0C0C0" stroke="none" d="M 465 551 L 504 551 Q 514 551 514 561 L 514 580 Q 514 590 504 590 L 465 590 Q 455 590 455 580 L 455 561 Q 455 551 465 551 Z" opacity="0.2"/></g><g transform="translate(-78,-308) scale(1,1)"><path fill="#ffffff" stroke="none" d="M 458 544 L 497 544 Q 507 544 507 554 L 507 573 Q 507 583 497 583 L 458 583 Q 448 583 448 573 L 448 554 Q 448 544 458 544 Z"/></g><g transform="translate(-78,-308) scale(1,1)"><path fill="none" stroke="#000000" d="M 458 544 L 497 544 Q 507 544 507 554 L 507 573 Q 507 583 497 583 L 458 583 Q 448 583 448 573 L 448 554 Q 448 544 458 544 Z" stroke-miterlimit="10"/></g><g transform="translate(-78,-308) scale(1,1)"><g><path fill="none" stroke="none"/><text fill="#000000" stroke="none" font-family="Arial" font-size="13px" font-style="normal" font-weight="bold" text-decoration="none" x="475.5" y="563.5">I</text></g></g><g transform="translate(-78,-308) scale(1,1)"><path fill="#C0C0C0" stroke="none" d="M 305 639 L 344 639 Q 354 639 354 649 L 354 668 Q 354 678 344 678 L 305 678 Q 295 678 295 668 L 295 649 Q 295 639 305 639 Z" opacity="0.2"/></g><g transform="translate(-78,-308) scale(1,1)"><path fill="#ffffff" stroke="none" d="M 298 632 L 337 632 Q 347 632 347 642 L 347 661 Q 347 671 337 671 L 298 671 Q 288 671 288 661 L 288 642 Q 288 632 298 632 Z"/></g><g transform="translate(-78,-308) scale(1,1)"><path fill="none" stroke="#000000" d="M 298 632 L 337 632 Q 347 632 347 642 L 347 661 Q 347 671 337 671 L 298 671 Q 288 671 288 661 L 288 642 Q 288 632 298 632 Z" stroke-miterlimit="10"/></g><g transform="translate(-78,-308) scale(1,1)"><g><path fill="none" stroke="none"/><text fill="#000000" stroke="none" font-family="Arial" font-size="13px" font-style="normal" font-weight="bold" text-decoration="none" x="303.5" y="651.5">think</text></g></g><g transform="translate(-78,-308) scale(1,1)"><path fill="#C0C0C0" stroke="none" d="M 593 647 L 632 647 Q 642 647 642 657 L 642 676 Q 642 686 632 686 L 593 686 Q 583 686 583 676 L 583 657 Q 583 647 593 647 Z" opacity="0.2"/></g><g transform="translate(-78,-308) scale(1,1)"><path fill="#ffffff" stroke="none" d="M 586 640 L 625 640 Q 635 640 635 650 L 635 669 Q 635 679 625 679 L 586 679 Q 576 679 576 669 L 576 650 Q 576 640 586 640 Z"/></g><g transform="translate(-78,-308) scale(1,1)"><path fill="none" stroke="#000000" d="M 586 640 L 625 640 Q 635 640 635 650 L 635 669 Q 635 679 625 679 L 586 679 Q 576 679 576 669 L 576 650 Q 576 640 586 640 Z" stroke-miterlimit="10"/></g><g transform="translate(-78,-308) scale(1,1)"><g><path fill="none" stroke="none"/><text fill="#000000" stroke="none" font-family="Arial" font-size="13px" font-style="normal" font-weight="bold" text-decoration="none" x="595" y="659.5">see</text></g></g><g transform="translate(-78,-308) scale(1,1)"><path fill="#C0C0C0" stroke="none" d="M 705 647 L 744 647 Q 754 647 754 657 L 754 676 Q 754 686 744 686 L 705 686 Q 695 686 695 676 L 695 657 Q 695 647 705 647 Z" opacity="0.2"/></g><g transform="translate(-78,-308) scale(1,1)"><path fill="#ffffff" stroke="none" d="M 698 640 L 737 640 Q 747 640 747 650 L 747 669 Q 747 679 737 679 L 698 679 Q 688 679 688 669 L 688 650 Q 688 640 698 640 Z"/></g><g transform="translate(-78,-308) scale(1,1)"><path fill="none" stroke="#000000" d="M 698 640 L 737 640 Q 747 640 747 650 L 747 669 Q 747 679 737 679 L 698 679 Q 688 679 688 669 L 688 650 Q 688 640 698 640 Z" stroke-miterlimit="10"/></g><g transform="translate(-78,-308) scale(1,1)"><g><path fill="none" stroke="none"/><text fill="#000000" stroke="none" font-family="Arial" font-size="13px" font-style="normal" font-weight="bold" text-decoration="none" x="707" y="659.5">you</text></g></g><g transform="translate(-78,-308) scale(1,1)"><path fill="none" stroke="#000000" d="M 347 640 L 456 640 L 456 583" stroke-miterlimit="10"/></g><g transform="translate(-78,-308) scale(1,1)"><path fill="none" stroke="#000000" d="M 460.209517756016 593.1626748576241 L 456 583 L 451.790482243984 593.1626748576241" stroke-miterlimit="10"/></g><g transform="translate(-78,-308) scale(1,1)"><g><path fill="none" stroke="none"/><text fill="#000000" stroke="none" font-family="Arial" font-size="13px" font-style="normal" font-weight="normal" text-decoration="none" x="365.5" y="636.5">subj</text></g></g><g transform="translate(-78,-308) scale(1,1)"><path fill="none" stroke="#000000" d="M 347 656 L 544 656" stroke-miterlimit="10"/></g><g transform="translate(-78,-308) scale(1,1)"><path fill="none" stroke="#000000" d="M 533.8373251423759 660.209517756016 L 544 656 L 533.8373251423758 651.790482243984" stroke-miterlimit="10"/></g><g transform="translate(-78,-308) scale(1,1)"><g><path fill="none" stroke="none"/><text fill="#000000" stroke="none" font-family="Arial" font-size="13px" font-style="normal" font-weight="normal" text-decoration="none" x="367.5" y="672.5">obj</text></g></g><g transform="translate(-78,-308) scale(1,1)"><path fill="none" stroke="#000000" d="M 604 759 L 605 680" stroke-miterlimit="10"/></g><g transform="translate(-78,-308) scale(1,1)"><path fill="none" stroke="#000000" d="M 609.0805494005072 690.2151415354864 L 605 680 L 600.6621883015425 690.1085800025882" stroke-miterlimit="10"/></g><g transform="translate(-78,-308) scale(1,1)"><g><path fill="none" stroke="none"/><text fill="#000000" stroke="none" font-family="Arial" font-size="13px" font-style="normal" font-weight="normal" text-decoration="none" x="607.5" y="708.5">obj</text></g></g><g transform="translate(-78,-308) scale(1,1)"><path fill="none" stroke="#000000" d="M 636 659 L 687 659" stroke-miterlimit="10"/></g><g transform="translate(-78,-308) scale(1,1)"><path fill="none" stroke="#000000" d="M 676.8373251423759 663.209517756016 L 687 659 L 676.8373251423758 654.790482243984" stroke-miterlimit="10"/></g><g transform="translate(-78,-308) scale(1,1)"><g><path fill="none" stroke="none"/><text fill="#000000" stroke="none" font-family="Arial" font-size="13px" font-style="normal" font-weight="normal" text-decoration="none" x="647.5" y="651.5">obj</text></g></g><g transform="translate(-78,-308) scale(1,1)"><path fill="none" stroke="#000000" d="M 576 648 L 496 648 L 496 583" stroke-miterlimit="10"/></g><g transform="translate(-78,-308) scale(1,1)"><path fill="none" stroke="#000000" d="M 500.209517756016 593.1626748576241 L 496 583 L 491.790482243984 593.1626748576241" stroke-miterlimit="10"/></g><g transform="translate(-78,-308) scale(1,1)"><g><path fill="none" stroke="none"/><text fill="#000000" stroke="none" font-family="Arial" font-size="13px" font-style="normal" font-weight="normal" text-decoration="none" x="547.5" y="643.5">subj</text></g></g><g transform="translate(-78,-308) scale(1,1)"><path fill="none" stroke="#000000" d="M 120 447 L 120 779 L 568 779" stroke-miterlimit="10"/></g><g transform="translate(-78,-308) scale(1,1)"><path fill="none" stroke="#000000" d="M 557.8373251423759 783.209517756016 L 568 779 L 557.8373251423758 774.790482243984" stroke-miterlimit="10"/></g><g transform="translate(-78,-308) scale(1,1)"><g><path fill="none" stroke="none"/><text fill="#000000" stroke="none" font-family="Arial" font-size="13px" font-style="normal" font-weight="normal" text-decoration="none" x="127.5" y="773.5">obj</text></g></g><g transform="translate(-78,-308) scale(1,1)"><path fill="none" stroke="#000000" d="M 448 563 L 272 563 L 272 344 L 336 344" stroke-miterlimit="10" stroke-dasharray="3"/></g><g transform="translate(-78,-308) scale(1,1)"><path fill="none" stroke="#000000" d="M 747 659 L 760 659 L 760 344 L 667 344" stroke-miterlimit="10" stroke-dasharray="3"/></g><g transform="translate(-78,-308) scale(1,1)"><path fill="#C0C0C0" stroke="none" d="M 489 327 L 528 327 Q 538 327 538 337 L 538 356 Q 538 366 528 366 L 489 366 Q 479 366 479 356 L 479 337 Q 479 327 489 327 Z" opacity="0.2"/></g><g transform="translate(-78,-308) scale(1,1)"><path fill="#ffffff" stroke="none" d="M 482 320 L 521 320 Q 531 320 531 330 L 531 349 Q 531 359 521 359 L 482 359 Q 472 359 472 349 L 472 330 Q 472 320 482 320 Z"/></g><g transform="translate(-78,-308) scale(1,1)"><path fill="none" stroke="#000000" d="M 482 320 L 521 320 Q 531 320 531 330 L 531 349 Q 531 359 521 359 L 482 359 Q 472 359 472 349 L 472 330 Q 472 320 482 320 Z" stroke-miterlimit="10"/></g><g transform="translate(-78,-308) scale(1,1)"><g><path fill="none" stroke="none"/><text fill="#000000" stroke="none" font-family="Arial" font-size="13px" font-style="normal" font-weight="bold" text-decoration="none" x="482" y="339.5">person</text></g></g><g transform="translate(-78,-308) scale(1,1)"><path fill="none" stroke="#000000" d="M 471 339 L 396 339" stroke-miterlimit="10"/></g><g transform="translate(-78,-308) scale(1,1)"><path fill="none" stroke="#000000" d="M 406.16267485762415 334.790482243984 L 396 339 L 406.16267485762415 343.209517756016" stroke-miterlimit="10"/></g><g transform="translate(-78,-308) scale(1,1)"><g><path fill="none" stroke="none"/><text fill="#000000" stroke="none" font-family="Arial" font-size="13px" font-style="normal" font-weight="normal" text-decoration="none" x="423.5" y="331.5">obj</text></g></g><g transform="translate(-78,-308) scale(1,1)"><path fill="none" stroke="#000000" d="M 532 339 L 607 339" stroke-miterlimit="10"/></g><g transform="translate(-78,-308) scale(1,1)"><path fill="none" stroke="#000000" d="M 596.8373251423759 343.209517756016 L 607 339 L 596.8373251423758 334.790482243984" stroke-miterlimit="10"/></g><g transform="translate(-78,-308) scale(1,1)"><g><path fill="none" stroke="none"/><text fill="#000000" stroke="none" font-family="Arial" font-size="13px" font-style="normal" font-weight="normal" text-decoration="none" x="560.5" y="330.5">obj</text></g></g><g transform="translate(-78,-308) scale(1,1)"><path fill="#C0C0C0" stroke="none" d="M 201 415 L 254 415 Q 264 415 264 425 L 264 444 Q 264 454 254 454 L 201 454 Q 191 454 191 444 L 191 425 Q 191 415 201 415 Z" opacity="0.2"/></g><g transform="translate(-78,-308) scale(1,1)"><path fill="#ffffff" stroke="none" d="M 194 408 L 247 408 Q 257 408 257 418 L 257 437 Q 257 447 247 447 L 194 447 Q 184 447 184 437 L 184 418 Q 184 408 194 408 Z"/></g><g transform="translate(-78,-308) scale(1,1)"><path fill="none" stroke="#000000" d="M 194 408 L 247 408 Q 257 408 257 418 L 257 437 Q 257 447 247 447 L 194 447 Q 184 447 184 437 L 184 418 Q 184 408 194 408 Z" stroke-miterlimit="10"/></g><g transform="translate(-78,-308) scale(1,1)"><g><path fill="none" stroke="none"/><text fill="#000000" stroke="none" font-family="Arial" font-size="13px" font-style="normal" font-weight="bold" text-decoration="none" x="188.5" y="427.5">12.06.2017</text></g></g><g transform="translate(-78,-308) scale(1,1)"><path fill="#C0C0C0" stroke="none" d="M 585 767 L 638 767 Q 648 767 648 777 L 648 796 Q 648 806 638 806 L 585 806 Q 575 806 575 796 L 575 777 Q 575 767 585 767 Z" opacity="0.2"/></g><g transform="translate(-78,-308) scale(1,1)"><path fill="#ffffff" stroke="none" d="M 578 760 L 631 760 Q 641 760 641 770 L 641 789 Q 641 799 631 799 L 578 799 Q 568 799 568 789 L 568 770 Q 568 760 578 760 Z"/></g><g transform="translate(-78,-308) scale(1,1)"><path fill="none" stroke="#000000" d="M 578 760 L 631 760 Q 641 760 641 770 L 641 789 Q 641 799 631 799 L 578 799 Q 568 799 568 789 L 568 770 Q 568 760 578 760 Z" stroke-miterlimit="10"/></g><g transform="translate(-78,-308) scale(1,1)"><g><path fill="none" stroke="none"/><text fill="#000000" stroke="none" font-family="Arial" font-size="13px" font-style="normal" font-weight="bold" text-decoration="none" x="572.5" y="779.5">11.06.2017</text></g></g><g transform="translate(-78,-308) scale(1,1)"><path fill="none" stroke="#000000" d="M 258 427 L 335 427" stroke-miterlimit="10"/></g><g transform="translate(-78,-308) scale(1,1)"><path fill="none" stroke="#000000" d="M 324.83732514237585 431.209517756016 L 335 427 L 324.83732514237585 422.790482243984" stroke-miterlimit="10"/></g><g transform="translate(-78,-308) scale(1,1)"><g><path fill="none" stroke="none"/><text fill="#000000" stroke="none" font-family="Arial" font-size="13px" font-style="normal" font-weight="normal" text-decoration="none" x="295.5" y="442.5">obj</text></g></g><g transform="translate(-78,-308) scale(1,1)"><path fill="none" stroke="#000000" d="M 148 427 L 183 427" stroke-miterlimit="10"/></g><g transform="translate(-78,-308) scale(1,1)"><path fill="none" stroke="#000000" d="M 172.83732514237585 431.209517756016 L 183 427 L 172.83732514237585 422.790482243984" stroke-miterlimit="10"/></g><g transform="translate(-78,-308) scale(1,1)"><g><path fill="none" stroke="none"/><text fill="#000000" stroke="none" font-family="Arial" font-size="13px" font-style="normal" font-weight="normal" text-decoration="none" x="151.5" y="444.5">obj</text></g></g></g></svg>