<svg version="1.1" xmlns="http://www.w3.org/2000/svg" xmlns:xlink="http://www.w3.org/1999/xlink" width="732" height="501"><defs/><g><g transform="translate(2,4) scale(1,1)"><path fill="#ffffff" stroke="none" d="M 266 8 L 305 8 Q 315 8 315 18 L 315 37 Q 315 47 305 47 L 266 47 Q 256 47 256 37 L 256 18 Q 256 8 266 8 Z"/></g><g transform="translate(2,4) scale(1,1)"><path fill="none" stroke="#000000" d="M 266 8 L 305 8 Q 315 8 315 18 L 315 37 Q 315 47 305 47 L 266 47 Q 256 47 256 37 L 256 18 Q 256 8 266 8 Z" stroke-miterlimit="10"/></g><g transform="translate(2,4) scale(1,1)"><g><path fill="none" stroke="none"/><text fill="#000000" stroke="none" font-family="Arial" font-size="13px" font-style="normal" font-weight="bold" text-decoration="none" x="271.411376953125" y="27.5">Alice</text></g></g><g transform="translate(2,4) scale(1,1)"><path fill="#ffffff" stroke="none" d="M 154 192 L 710 192 Q 720 192 720 202 L 720 414 Q 720 424 710 424 L 154 424 Q 144 424 144 414 L 144 202 Q 144 192 154 192 Z"/></g><g transform="translate(2,4) scale(1,1)"><path fill="none" stroke="#000000" d="M 154 192 L 710 192 Q 720 192 720 202 L 720 414 Q 720 424 710 424 L 154 424 Q 144 424 144 414 L 144 202 Q 144 192 154 192 Z" stroke-miterlimit="10"/></g><g transform="translate(2,4) scale(1,1)"><path fill="none" stroke="#000000" d="M 144 217 L 720 217" stroke-miterlimit="10"/></g><g transform="translate(2,4) scale(1,1)"><g><path fill="none" stroke="none"/><text fill="#000000" stroke="none" font-family="Arial" font-size="13px" font-style="normal" font-weight="bold" text-decoration="none" x="350.0009765625" y="211.5">c1. POSITIVE POSSIBILITY</text></g></g><g transform="translate(2,4) scale(1,1)"><path fill="#ffffff" stroke="none" d="M 538 8 L 577 8 Q 587 8 587 18 L 587 37 Q 587 47 577 47 L 538 47 Q 528 47 528 37 L 528 18 Q 528 8 538 8 Z"/></g><g transform="translate(2,4) scale(1,1)"><path fill="none" stroke="#000000" d="M 538 8 L 577 8 Q 587 8 587 18 L 587 37 Q 587 47 577 47 L 538 47 Q 528 47 528 37 L 528 18 Q 528 8 538 8 Z" stroke-miterlimit="10"/></g><g transform="translate(2,4) scale(1,1)"><g><path fill="none" stroke="none"/><text fill="#000000" stroke="none" font-family="Arial" font-size="13px" font-style="normal" font-weight="bold" text-decoration="none" x="545.9345703125" y="27.5">Bob</text></g></g><g transform="translate(2,4) scale(1,1)"><path fill="#ffffff" stroke="none" d="M 402 96 L 446.64990234375 96 Q 456.64990234375 96 456.64990234375 106 L 456.64990234375 125 Q 456.64990234375 135 446.64990234375 135 L 402 135 Q 392 135 392 125 L 392 106 Q 392 96 402 96 Z"/></g><g transform="translate(2,4) scale(1,1)"><path fill="none" stroke="#000000" d="M 402 96 L 446.64990234375 96 Q 456.64990234375 96 456.64990234375 106 L 456.64990234375 125 Q 456.64990234375 135 446.64990234375 135 L 402 135 Q 392 135 392 125 L 392 106 Q 392 96 402 96 Z" stroke-miterlimit="10"/></g><g transform="translate(2,4) scale(1,1)"><g><path fill="none" stroke="none"/><text fill="#000000" stroke="none" font-family="Arial" font-size="13px" font-style="normal" font-weight="bold" text-decoration="none" x="397.950439453125" y="115.5">message</text></g></g><g transform="translate(2,4) scale(1,1)"><path fill="#ffffff" stroke="none" d="M 266 96 L 305 96 Q 315 96 315 106 L 315 125 Q 315 135 305 135 L 266 135 Q 256 135 256 125 L 256 106 Q 256 96 266 96 Z"/></g><g transform="translate(2,4) scale(1,1)"><path fill="none" stroke="#000000" d="M 266 96 L 305 96 Q 315 96 315 106 L 315 125 Q 315 135 305 135 L 266 135 Q 256 135 256 125 L 256 106 Q 256 96 266 96 Z" stroke-miterlimit="10"/></g><g transform="translate(2,4) scale(1,1)"><g><path fill="none" stroke="none"/><text fill="#000000" stroke="none" font-family="Arial" font-size="13px" font-style="normal" font-weight="bold" text-decoration="none" x="271.405029296875" y="115.5">send</text></g></g><g transform="translate(2,4) scale(1,1)"><path fill="#ffffff" stroke="none" d="M 538 96 L 577 96 Q 587 96 587 106 L 587 125 Q 587 135 577 135 L 538 135 Q 528 135 528 125 L 528 106 Q 528 96 538 96 Z"/></g><g transform="translate(2,4) scale(1,1)"><path fill="none" stroke="#000000" d="M 538 96 L 577 96 Q 587 96 587 106 L 587 125 Q 587 135 577 135 L 538 135 Q 528 135 528 125 L 528 106 Q 528 96 538 96 Z" stroke-miterlimit="10"/></g><g transform="translate(2,4) scale(1,1)"><g><path fill="none" stroke="none"/><text fill="#000000" stroke="none" font-family="Arial" font-size="13px" font-style="normal" font-weight="bold" text-decoration="none" x="536.54638671875" y="115.5">receive</text></g></g><g transform="translate(2,4) scale(1,1)"><path fill="none" stroke="#000000" d="M 285 96 L 285 47" stroke-miterlimit="10"/></g><g transform="translate(2,4) scale(1,1)"><path fill="none" stroke="#000000" d="M 289.209517756016 57.162674857624154 L 285 47 L 280.790482243984 57.162674857624154" stroke-miterlimit="10"/></g><g transform="translate(2,4) scale(1,1)"><g><path fill="none" stroke="none"/><text fill="#000000" stroke="none" font-family="Arial" font-size="13px" font-style="normal" font-weight="normal" text-decoration="none" x="257.575927734375" y="76.5">subj</text></g></g><g transform="translate(2,4) scale(1,1)"><path fill="none" stroke="#000000" d="M 315 115 L 392 115" stroke-miterlimit="10"/></g><g transform="translate(2,4) scale(1,1)"><path fill="none" stroke="#000000" d="M 381.83732514237585 119.20951775601598 L 392 115 L 381.83732514237585 110.79048224398402" stroke-miterlimit="10"/></g><g transform="translate(2,4) scale(1,1)"><g><path fill="none" stroke="none"/><text fill="#000000" stroke="none" font-family="Arial" font-size="13px" font-style="normal" font-weight="normal" text-decoration="none" x="343.5" y="132.5">obj</text></g></g><g transform="translate(2,4) scale(1,1)"><path fill="none" stroke="#000000" d="M 528 115 L 457 115" stroke-miterlimit="10"/></g><g transform="translate(2,4) scale(1,1)"><path fill="none" stroke="#000000" d="M 467.16267485762415 110.79048224398402 L 457 115 L 467.16267485762415 119.20951775601598" stroke-miterlimit="10"/></g><g transform="translate(2,4) scale(1,1)"><g><path fill="none" stroke="none"/><text fill="#000000" stroke="none" font-family="Arial" font-size="13px" font-style="normal" font-weight="normal" text-decoration="none" x="482.5" y="132.5">obj</text></g></g><g transform="translate(2,4) scale(1,1)"><path fill="none" stroke="#000000" d="M 557 96 L 557 47" stroke-miterlimit="10"/></g><g transform="translate(2,4) scale(1,1)"><path fill="none" stroke="#000000" d="M 561.209517756016 57.162674857624154 L 557 47 L 552.790482243984 57.162674857624154" stroke-miterlimit="10"/></g><g transform="translate(2,4) scale(1,1)"><g><path fill="none" stroke="none"/><text fill="#000000" stroke="none" font-family="Arial" font-size="13px" font-style="normal" font-weight="normal" text-decoration="none" x="529.575927734375" y="76.5">subj</text></g></g><g transform="translate(2,4) scale(1,1)"><path fill="none" stroke="#000000" d="M 424 135 L 424 192" stroke-miterlimit="10"/></g><g transform="translate(2,4) scale(1,1)"><path fill="none" stroke="#000000" d="M 419.790482243984 181.83732514237585 L 424 192 L 428.209517756016 181.83732514237585" stroke-miterlimit="10"/></g><g transform="translate(2,4) scale(1,1)"><g><path fill="none" stroke="none"/><text fill="#000000" stroke="none" font-family="Arial" font-size="13px" font-style="normal" font-weight="normal" text-decoration="none" x="429.5" y="168.5">obj</text></g></g><g transform="translate(2,4) scale(1,1)"><path fill="#ffffff" stroke="none" d="M 474 288 L 686 288 Q 696 288 696 298 L 696 398 Q 696 408 686 408 L 474 408 Q 464 408 464 398 L 464 298 Q 464 288 474 288 Z"/></g><g transform="translate(2,4) scale(1,1)"><path fill="none" stroke="#000000" d="M 474 288 L 686 288 Q 696 288 696 298 L 696 398 Q 696 408 686 408 L 474 408 Q 464 408 464 398 L 464 298 Q 464 288 474 288 Z" stroke-miterlimit="10"/></g><g transform="translate(2,4) scale(1,1)"><path fill="none" stroke="#000000" d="M 464 313 L 696 313" stroke-miterlimit="10"/></g><g transform="translate(2,4) scale(1,1)"><g><path fill="none" stroke="none"/><text fill="#000000" stroke="none" font-family="Arial" font-size="13px" font-style="normal" font-weight="bold" text-decoration="none" x="498.0009765625" y="307.5">c3. POSITIVE POSSIBILITY</text></g></g><g transform="translate(2,4) scale(1,1)"><path fill="#ffffff" stroke="none" d="M 178 272 L 334 272 Q 344 272 344 282 L 344 358 Q 344 368 334 368 L 178 368 Q 168 368 168 358 L 168 282 Q 168 272 178 272 Z"/></g><g transform="translate(2,4) scale(1,1)"><path fill="none" stroke="#000000" d="M 178 272 L 334 272 Q 344 272 344 282 L 344 358 Q 344 368 334 368 L 178 368 Q 168 368 168 358 L 168 282 Q 168 272 178 272 Z" stroke-miterlimit="10"/></g><g transform="translate(2,4) scale(1,1)"><path fill="none" stroke="#000000" d="M 168 297 L 344 297" stroke-miterlimit="10"/></g><g transform="translate(2,4) scale(1,1)"><g><path fill="none" stroke="none"/><text fill="#000000" stroke="none" font-family="Arial" font-size="13px" font-style="normal" font-weight="bold" text-decoration="none" x="174.00732421875" y="291.5">c2. NEGATIVE NECESSITY</text></g></g><g transform="translate(2,4) scale(1,1)"><path fill="#ffffff" stroke="none" d="M 18 96 L 57 96 Q 67 96 67 106 L 67 125 Q 67 135 57 135 L 18 135 Q 8 135 8 125 L 8 106 Q 8 96 18 96 Z"/></g><g transform="translate(2,4) scale(1,1)"><path fill="none" stroke="#000000" d="M 18 96 L 57 96 Q 67 96 67 106 L 67 125 Q 67 135 57 135 L 18 135 Q 8 135 8 125 L 8 106 Q 8 96 18 96 Z" stroke-miterlimit="10"/></g><g transform="translate(2,4) scale(1,1)"><g><path fill="none" stroke="none"/><text fill="#000000" stroke="none" font-family="Arial" font-size="13px" font-style="normal" font-weight="bold" text-decoration="none" x="25.220458984375" y="115.5">time</text></g></g><g transform="translate(2,4) scale(1,1)"><path fill="#ffffff" stroke="none" d="M 378 232 L 417 232 Q 427 232 427 242 L 427 261 Q 427 271 417 271 L 378 271 Q 368 271 368 261 L 368 242 Q 368 232 378 232 Z"/></g><g transform="translate(2,4) scale(1,1)"><path fill="none" stroke="#000000" d="M 378 232 L 417 232 Q 427 232 427 242 L 427 261 Q 427 271 417 271 L 378 271 Q 368 271 368 261 L 368 242 Q 368 232 378 232 Z" stroke-miterlimit="10"/></g><g transform="translate(2,4) scale(1,1)"><g><path fill="none" stroke="none"/><text fill="#000000" stroke="none" font-family="Arial" font-size="13px" font-style="normal" font-weight="bold" text-decoration="none" x="395.694091796875" y="251.5">I</text></g></g><g transform="translate(2,4) scale(1,1)"><path fill="#ffffff" stroke="none" d="M 218 320 L 257 320 Q 267 320 267 330 L 267 349 Q 267 359 257 359 L 218 359 Q 208 359 208 349 L 208 330 Q 208 320 218 320 Z"/></g><g transform="translate(2,4) scale(1,1)"><path fill="none" stroke="#000000" d="M 218 320 L 257 320 Q 267 320 267 330 L 267 349 Q 267 359 257 359 L 218 359 Q 208 359 208 349 L 208 330 Q 208 320 218 320 Z" stroke-miterlimit="10"/></g><g transform="translate(2,4) scale(1,1)"><g><path fill="none" stroke="none"/><text fill="#000000" stroke="none" font-family="Arial" font-size="13px" font-style="normal" font-weight="bold" text-decoration="none" x="223.77001953125" y="339.5">think</text></g></g><g transform="translate(2,4) scale(1,1)"><path fill="#ffffff" stroke="none" d="M 506 328 L 545 328 Q 555 328 555 338 L 555 357 Q 555 367 545 367 L 506 367 Q 496 367 496 357 L 496 338 Q 496 328 506 328 Z"/></g><g transform="translate(2,4) scale(1,1)"><path fill="none" stroke="#000000" d="M 506 328 L 545 328 Q 555 328 555 338 L 555 357 Q 555 367 545 367 L 506 367 Q 496 367 496 357 L 496 338 Q 496 328 506 328 Z" stroke-miterlimit="10"/></g><g transform="translate(2,4) scale(1,1)"><g><path fill="none" stroke="none"/><text fill="#000000" stroke="none" font-family="Arial" font-size="13px" font-style="normal" font-weight="bold" text-decoration="none" x="515.02001953125" y="347.5">see</text></g></g><g transform="translate(2,4) scale(1,1)"><path fill="#ffffff" stroke="none" d="M 618 328 L 657 328 Q 667 328 667 338 L 667 357 Q 667 367 657 367 L 618 367 Q 608 367 608 357 L 608 338 Q 608 328 618 328 Z"/></g><g transform="translate(2,4) scale(1,1)"><path fill="none" stroke="#000000" d="M 618 328 L 657 328 Q 667 328 667 338 L 667 357 Q 667 367 657 367 L 618 367 Q 608 367 608 357 L 608 338 Q 608 328 618 328 Z" stroke-miterlimit="10"/></g><g transform="translate(2,4) scale(1,1)"><g><path fill="none" stroke="none"/><text fill="#000000" stroke="none" font-family="Arial" font-size="13px" font-style="normal" font-weight="bold" text-decoration="none" x="627.02001953125" y="347.5">you</text></g></g><g transform="translate(2,4) scale(1,1)"><path fill="none" stroke="#000000" d="M 267 328 L 376 328 L 376 271" stroke-miterlimit="10"/></g><g transform="translate(2,4) scale(1,1)"><path fill="none" stroke="#000000" d="M 380.209517756016 281.16267485762415 L 376 271 L 371.790482243984 281.16267485762415" stroke-miterlimit="10"/></g><g transform="translate(2,4) scale(1,1)"><g><path fill="none" stroke="none"/><text fill="#000000" stroke="none" font-family="Arial" font-size="13px" font-style="normal" font-weight="normal" text-decoration="none" x="285.575927734375" y="324.5">subj</text></g></g><g transform="translate(2,4) scale(1,1)"><path fill="none" stroke="#000000" d="M 267 344 L 464 344" stroke-miterlimit="10"/></g><g transform="translate(2,4) scale(1,1)"><path fill="none" stroke="#000000" d="M 453.83732514237585 348.209517756016 L 464 344 L 453.83732514237585 339.790482243984" stroke-miterlimit="10"/></g><g transform="translate(2,4) scale(1,1)"><g><path fill="none" stroke="none"/><text fill="#000000" stroke="none" font-family="Arial" font-size="13px" font-style="normal" font-weight="normal" text-decoration="none" x="287.5" y="360.5">obj</text></g></g><g transform="translate(2,4) scale(1,1)"><path fill="none" stroke="#000000" d="M 525 448 L 525 367" stroke-miterlimit="10"/></g><g transform="translate(2,4) scale(1,1)"><path fill="none" stroke="#000000" d="M 529.209517756016 377.16267485762415 L 525 367 L 520.790482243984 377.16267485762415" stroke-miterlimit="10"/></g><g transform="translate(2,4) scale(1,1)"><g><path fill="none" stroke="none"/><text fill="#000000" stroke="none" font-family="Arial" font-size="13px" font-style="normal" font-weight="normal" text-decoration="none" x="527.5" y="395.5">obj</text></g></g><g transform="translate(2,4) scale(1,1)"><path fill="none" stroke="#000000" d="M 555 347 L 608 347" stroke-miterlimit="10"/></g><g transform="translate(2,4) scale(1,1)"><path fill="none" stroke="#000000" d="M 597.8373251423759 351.209517756016 L 608 347 L 597.8373251423758 342.790482243984" stroke-miterlimit="10"/></g><g transform="translate(2,4) scale(1,1)"><g><path fill="none" stroke="none"/><text fill="#000000" stroke="none" font-family="Arial" font-size="13px" font-style="normal" font-weight="normal" text-decoration="none" x="567.5" y="339.5">obj</text></g></g><g transform="translate(2,4) scale(1,1)"><path fill="none" stroke="#000000" d="M 496 336 L 416 336 L 416 271" stroke-miterlimit="10"/></g><g transform="translate(2,4) scale(1,1)"><path fill="none" stroke="#000000" d="M 420.209517756016 281.16267485762415 L 416 271 L 411.790482243984 281.16267485762415" stroke-miterlimit="10"/></g><g transform="translate(2,4) scale(1,1)"><g><path fill="none" stroke="none"/><text fill="#000000" stroke="none" font-family="Arial" font-size="13px" font-style="normal" font-weight="normal" text-decoration="none" x="467.575927734375" y="331.5">subj</text></g></g><g transform="translate(2,4) scale(1,1)"><path fill="none" stroke="#000000" d="M 40 135 L 40 467 L 488 467" stroke-miterlimit="10"/></g><g transform="translate(2,4) scale(1,1)"><path fill="none" stroke="#000000" d="M 477.83732514237585 471.209517756016 L 488 467 L 477.83732514237585 462.790482243984" stroke-miterlimit="10"/></g><g transform="translate(2,4) scale(1,1)"><g><path fill="none" stroke="none"/><text fill="#000000" stroke="none" font-family="Arial" font-size="13px" font-style="normal" font-weight="normal" text-decoration="none" x="47.5" y="461.5">obj</text></g></g><g transform="translate(2,4) scale(1,1)"><path fill="none" stroke="#000000" d="M 368 251 L 192 251 L 192 32 L 256 32" stroke-miterlimit="10" stroke-dasharray="3"/></g><g transform="translate(2,4) scale(1,1)"><path fill="none" stroke="#000000" d="M 667 347 L 680 347 L 680 32 L 587 32" stroke-miterlimit="10" stroke-dasharray="3"/></g><g transform="translate(2,4) scale(1,1)"><path fill="#ffffff" stroke="none" d="M 402 8 L 441 8 Q 451 8 451 18 L 451 37 Q 451 47 441 47 L 402 47 Q 392 47 392 37 L 392 18 Q 392 8 402 8 Z"/></g><g transform="translate(2,4) scale(1,1)"><path fill="none" stroke="#000000" d="M 402 8 L 441 8 Q 451 8 451 18 L 451 37 Q 451 47 441 47 L 402 47 Q 392 47 392 37 L 392 18 Q 392 8 402 8 Z" stroke-miterlimit="10"/></g><g transform="translate(2,4) scale(1,1)"><g><path fill="none" stroke="none"/><text fill="#000000" stroke="none" font-family="Arial" font-size="13px" font-style="normal" font-weight="bold" text-decoration="none" x="401.62548828125" y="27.5">person</text></g></g><g transform="translate(2,4) scale(1,1)"><path fill="none" stroke="#000000" d="M 392 27 L 315 27" stroke-miterlimit="10"/></g><g transform="translate(2,4) scale(1,1)"><path fill="none" stroke="#000000" d="M 325.16267485762415 22.790482243984012 L 315 27 L 325.16267485762415 31.209517756015988" stroke-miterlimit="10"/></g><g transform="translate(2,4) scale(1,1)"><g><path fill="none" stroke="none"/><text fill="#000000" stroke="none" font-family="Arial" font-size="13px" font-style="normal" font-weight="normal" text-decoration="none" x="343.5" y="19.5">obj</text></g></g><g transform="translate(2,4) scale(1,1)"><path fill="none" stroke="#000000" d="M 451 27 L 528 27" stroke-miterlimit="10"/></g><g transform="translate(2,4) scale(1,1)"><path fill="none" stroke="#000000" d="M 517.8373251423759 31.209517756015988 L 528 27 L 517.8373251423758 22.790482243984012" stroke-miterlimit="10"/></g><g transform="translate(2,4) scale(1,1)"><g><path fill="none" stroke="none"/><text fill="#000000" stroke="none" font-family="Arial" font-size="13px" font-style="normal" font-weight="normal" text-decoration="none" x="480.5" y="18.5">obj</text></g></g><g transform="translate(2,4) scale(1,1)"><path fill="#ffffff" stroke="none" d="M 114 96 L 168.0634765625 96 Q 178.0634765625 96 178.0634765625 106 L 178.0634765625 125 Q 178.0634765625 135 168.0634765625 135 L 114 135 Q 104 135 104 125 L 104 106 Q 104 96 114 96 Z"/></g><g transform="translate(2,4) scale(1,1)"><path fill="none" stroke="#000000" d="M 114 96 L 168.0634765625 96 Q 178.0634765625 96 178.0634765625 106 L 178.0634765625 125 Q 178.0634765625 135 168.0634765625 135 L 114 135 Q 104 135 104 125 L 104 106 Q 104 96 114 96 Z" stroke-miterlimit="10"/></g><g transform="translate(2,4) scale(1,1)"><g><path fill="none" stroke="none"/><text fill="#000000" stroke="none" font-family="Arial" font-size="13px" font-style="normal" font-weight="bold" text-decoration="none" x="108.5" y="115.5">12.06.2017</text></g></g><g transform="translate(2,4) scale(1,1)"><path fill="#ffffff" stroke="none" d="M 498 448 L 552.0634765625 448 Q 562.0634765625 448 562.0634765625 458 L 562.0634765625 477 Q 562.0634765625 487 552.0634765625 487 L 498 487 Q 488 487 488 477 L 488 458 Q 488 448 498 448 Z"/></g><g transform="translate(2,4) scale(1,1)"><path fill="none" stroke="#000000" d="M 498 448 L 552.0634765625 448 Q 562.0634765625 448 562.0634765625 458 L 562.0634765625 477 Q 562.0634765625 487 552.0634765625 487 L 498 487 Q 488 487 488 477 L 488 458 Q 488 448 498 448 Z" stroke-miterlimit="10"/></g><g transform="translate(2,4) scale(1,1)"><g><path fill="none" stroke="none"/><text fill="#000000" stroke="none" font-family="Arial" font-size="13px" font-style="normal" font-weight="bold" text-decoration="none" x="492.5" y="467.5">11.06.2017</text></g></g><g transform="translate(2,4) scale(1,1)"><path fill="none" stroke="#000000" d="M 178 115 L 256 115" stroke-miterlimit="10"/></g><g transform="translate(2,4) scale(1,1)"><path fill="none" stroke="#000000" d="M 245.83732514237585 119.20951775601598 L 256 115 L 245.83732514237585 110.79048224398402" stroke-miterlimit="10"/></g><g transform="translate(2,4) scale(1,1)"><g><path fill="none" stroke="none"/><text fill="#000000" stroke="none" font-family="Arial" font-size="13px" font-style="normal" font-weight="normal" text-decoration="none" x="216.5" y="130.5">obj</text></g></g><g transform="translate(2,4) scale(1,1)"><path fill="none" stroke="#000000" d="M 67 115 L 104 115" stroke-miterlimit="10"/></g><g transform="translate(2,4) scale(1,1)"><path fill="none" stroke="#000000" d="M 93.83732514237585 119.20951775601598 L 104 115 L 93.83732514237585 110.79048224398402" stroke-miterlimit="10"/></g><g transform="translate(2,4) scale(1,1)"><g><path fill="none" stroke="none"/><text fill="#000000" stroke="none" font-family="Arial" font-size="13px" font-style="normal" font-weight="normal" text-decoration="none" x="71.5" y="132.5">obj</text></g></g></g></svg>